<?xml version="1.0" encoding="utf-8" standalone="no"?>
<!DOCTYPE svg PUBLIC "-//W3C//DTD SVG 1.1//EN"
  "http://www.w3.org/Graphics/SVG/1.1/DTD/svg11.dtd">
<svg xmlns:xlink="http://www.w3.org/1999/xlink" width="1800pt" height="1080pt" viewBox="0 0 1800 1080" xmlns="http://www.w3.org/2000/svg" version="1.1">
 <metadata>
  <rdf:RDF xmlns:dc="http://purl.org/dc/elements/1.1/" xmlns:cc="http://creativecommons.org/ns#" xmlns:rdf="http://www.w3.org/1999/02/22-rdf-syntax-ns#">
   <cc:Work>
    <dc:type rdf:resource="http://purl.org/dc/dcmitype/StillImage"/>
    <dc:date>2025-06-23T20:04:38.327095</dc:date>
    <dc:format>image/svg+xml</dc:format>
    <dc:creator>
     <cc:Agent>
      <dc:title>Matplotlib v3.5.1, https://matplotlib.org/</dc:title>
     </cc:Agent>
    </dc:creator>
   </cc:Work>
  </rdf:RDF>
 </metadata>
 <defs>
  <style type="text/css">*{stroke-linejoin: round; stroke-linecap: butt}</style>
 </defs>
 <g id="figure_1">
  <g id="patch_1">
   <path d="M 0 1080 
L 1800 1080 
L 1800 0 
L 0 0 
z
" style="fill: #ffffff"/>
  </g>
  <g id="axes_1">
   <g id="patch_2">
    <path d="M 225 961.2 
L 1620 961.2 
L 1620 129.6 
L 225 129.6 
z
" style="fill: #ffffff"/>
   </g>
   <g id="PolyCollection_1">
    <path d="M 711.136364 412.078239 
L 711.136364 412.078239 
L 852.045455 412.078239 
L 992.954545 382.158341 
L 992.954545 382.158341 
L 992.954545 382.158341 
L 852.045455 412.078239 
L 711.136364 412.078239 
z
" clip-path="url(#p2f29c25972)" style="fill: #f77189; fill-opacity: 0.2; stroke: #f77189; stroke-opacity: 0.2"/>
    <path d="M 1415.681818 471.878671 
L 1415.681818 471.878671 
L 1556.590909 489.90897 
L 1556.590909 489.90897 
L 1556.590909 489.90897 
L 1415.681818 471.878671 
z
" clip-path="url(#p2f29c25972)" style="fill: #f77189; fill-opacity: 0.2; stroke: #f77189; stroke-opacity: 0.2"/>
   </g>
   <g id="PolyCollection_2">
    <path d="M 711.136364 473.904401 
L 711.136364 473.904401 
L 852.045455 533.032582 
L 992.954545 533.032582 
L 992.954545 533.032582 
L 992.954545 533.032582 
L 852.045455 533.032582 
L 711.136364 473.904401 
z
" clip-path="url(#p2f29c25972)" style="fill: #e68332; fill-opacity: 0.2; stroke: #e68332; stroke-opacity: 0.2"/>
    <path d="M 1415.681818 438.960854 
L 1415.681818 438.960854 
L 1556.590909 537.966307 
L 1556.590909 537.966307 
L 1556.590909 537.966307 
L 1415.681818 438.960854 
z
" clip-path="url(#p2f29c25972)" style="fill: #e68332; fill-opacity: 0.2; stroke: #e68332; stroke-opacity: 0.2"/>
   </g>
   <g id="PolyCollection_3">
    <path d="M 711.136364 561.085579 
L 711.136364 561.085579 
L 852.045455 441.387534 
L 992.954545 370.588551 
L 992.954545 370.588551 
L 992.954545 370.588551 
L 852.045455 441.387534 
L 711.136364 561.085579 
z
" clip-path="url(#p2f29c25972)" style="fill: #bb9832; fill-opacity: 0.2; stroke: #bb9832; stroke-opacity: 0.2"/>
    <path d="M 1415.681818 447.127214 
L 1415.681818 447.127214 
L 1556.590909 489.751192 
L 1556.590909 489.751192 
L 1556.590909 489.751192 
L 1415.681818 447.127214 
z
" clip-path="url(#p2f29c25972)" style="fill: #bb9832; fill-opacity: 0.2; stroke: #bb9832; stroke-opacity: 0.2"/>
   </g>
   <g id="PolyCollection_4">
    <path d="M 711.136364 906.025296 
L 711.136364 906.025296 
L 852.045455 906.025296 
L 992.954545 906.025296 
L 992.954545 906.025296 
L 992.954545 906.025296 
L 852.045455 906.025296 
L 711.136364 906.025296 
z
" clip-path="url(#p2f29c25972)" style="fill: #97a431; fill-opacity: 0.2; stroke: #97a431; stroke-opacity: 0.2"/>
    <path d="M 1415.681818 923.4 
L 1415.681818 923.4 
L 1556.590909 923.4 
L 1556.590909 923.4 
L 1556.590909 923.4 
L 1415.681818 923.4 
z
" clip-path="url(#p2f29c25972)" style="fill: #97a431; fill-opacity: 0.2; stroke: #97a431; stroke-opacity: 0.2"/>
   </g>
   <g id="PolyCollection_5">
    <path d="M 711.136364 645.179424 
L 711.136364 645.179424 
L 852.045455 645.179424 
L 992.954545 605.522186 
L 992.954545 605.522186 
L 992.954545 605.522186 
L 852.045455 645.179424 
L 711.136364 645.179424 
z
" clip-path="url(#p2f29c25972)" style="fill: #50b131; fill-opacity: 0.2; stroke: #50b131; stroke-opacity: 0.2"/>
    <path d="M 1415.681818 865.506725 
L 1415.681818 865.506725 
L 1556.590909 806.988849 
L 1556.590909 806.988849 
L 1556.590909 806.988849 
L 1415.681818 865.506725 
z
" clip-path="url(#p2f29c25972)" style="fill: #50b131; fill-opacity: 0.2; stroke: #50b131; stroke-opacity: 0.2"/>
   </g>
   <g id="PolyCollection_6">
    <path d="M 711.136364 367.6053 
L 711.136364 367.6053 
L 852.045455 257.625093 
L 992.954545 317.979303 
L 992.954545 317.979303 
L 992.954545 317.979303 
L 852.045455 257.625093 
L 711.136364 367.6053 
z
" clip-path="url(#p2f29c25972)" style="fill: #34af84; fill-opacity: 0.2; stroke: #34af84; stroke-opacity: 0.2"/>
    <path d="M 1415.681818 172.279308 
L 1415.681818 172.279308 
L 1556.590909 172.279308 
L 1556.590909 172.279308 
L 1556.590909 172.279308 
L 1415.681818 172.279308 
z
" clip-path="url(#p2f29c25972)" style="fill: #34af84; fill-opacity: 0.2; stroke: #34af84; stroke-opacity: 0.2"/>
   </g>
   <g id="PolyCollection_7">
    <path d="M 711.136364 756.850395 
L 711.136364 756.850395 
L 852.045455 766.116593 
L 992.954545 700.539996 
L 992.954545 700.539996 
L 992.954545 700.539996 
L 852.045455 766.116593 
L 711.136364 756.850395 
z
" clip-path="url(#p2f29c25972)" style="fill: #36ada4; fill-opacity: 0.2; stroke: #36ada4; stroke-opacity: 0.2"/>
    <path d="M 1415.681818 312.29565 
L 1415.681818 312.29565 
L 1556.590909 312.29565 
L 1556.590909 312.29565 
L 1556.590909 312.29565 
L 1415.681818 312.29565 
z
" clip-path="url(#p2f29c25972)" style="fill: #36ada4; fill-opacity: 0.2; stroke: #36ada4; stroke-opacity: 0.2"/>
   </g>
   <g id="PolyCollection_8">
    <path d="M 711.136364 610.111392 
L 711.136364 610.111392 
L 852.045455 610.111392 
L 992.954545 610.111392 
L 992.954545 610.111392 
L 992.954545 610.111392 
L 852.045455 610.111392 
L 711.136364 610.111392 
z
" clip-path="url(#p2f29c25972)" style="fill: #38aabf; fill-opacity: 0.2; stroke: #38aabf; stroke-opacity: 0.2"/>
    <path d="M 1415.681818 610.111392 
L 1415.681818 610.111392 
L 1556.590909 610.111392 
L 1556.590909 610.111392 
L 1556.590909 610.111392 
L 1415.681818 610.111392 
z
" clip-path="url(#p2f29c25972)" style="fill: #38aabf; fill-opacity: 0.2; stroke: #38aabf; stroke-opacity: 0.2"/>
   </g>
   <g id="PolyCollection_9">
    <path d="M 711.136364 665.753161 
L 711.136364 665.753161 
L 852.045455 691.629248 
L 992.954545 696.851634 
L 992.954545 696.851634 
L 992.954545 696.851634 
L 852.045455 691.629248 
L 711.136364 665.753161 
z
" clip-path="url(#p2f29c25972)" style="fill: #3ba3ec; fill-opacity: 0.2; stroke: #3ba3ec; stroke-opacity: 0.2"/>
    <path d="M 1415.681818 665.954026 
L 1415.681818 665.954026 
L 1556.590909 566.948573 
L 1556.590909 566.948573 
L 1556.590909 566.948573 
L 1415.681818 665.954026 
z
" clip-path="url(#p2f29c25972)" style="fill: #3ba3ec; fill-opacity: 0.2; stroke: #3ba3ec; stroke-opacity: 0.2"/>
   </g>
   <g id="PolyCollection_10">
    <path d="M 711.136364 601.164321 
L 711.136364 601.164321 
L 852.045455 601.164321 
L 992.954545 636.306605 
L 992.954545 636.306605 
L 992.954545 636.306605 
L 852.045455 601.164321 
L 711.136364 601.164321 
z
" clip-path="url(#p2f29c25972)" style="fill: #a48cf4; fill-opacity: 0.2; stroke: #a48cf4; stroke-opacity: 0.2"/>
    <path d="M 1415.681818 822.623575 
L 1415.681818 822.623575 
L 1556.590909 822.623575 
L 1556.590909 822.623575 
L 1556.590909 822.623575 
L 1415.681818 822.623575 
z
" clip-path="url(#p2f29c25972)" style="fill: #a48cf4; fill-opacity: 0.2; stroke: #a48cf4; stroke-opacity: 0.2"/>
   </g>
   <g id="PolyCollection_11">
    <path d="M 711.136364 586.434972 
L 711.136364 586.434972 
L 852.045455 586.434972 
L 992.954545 626.09221 
L 992.954545 626.09221 
L 992.954545 626.09221 
L 852.045455 586.434972 
L 711.136364 586.434972 
z
" clip-path="url(#p2f29c25972)" style="fill: #e866f4; fill-opacity: 0.2; stroke: #e866f4; stroke-opacity: 0.2"/>
    <path d="M 1415.681818 650.797877 
L 1415.681818 650.797877 
L 1556.590909 652.934279 
L 1556.590909 652.934279 
L 1556.590909 652.934279 
L 1415.681818 650.797877 
z
" clip-path="url(#p2f29c25972)" style="fill: #e866f4; fill-opacity: 0.2; stroke: #e866f4; stroke-opacity: 0.2"/>
   </g>
   <g id="PolyCollection_12">
    <path d="M 711.136364 586.434972 
L 711.136364 586.434972 
L 852.045455 586.434972 
L 992.954545 652.011568 
L 992.954545 652.011568 
L 992.954545 652.011568 
L 852.045455 586.434972 
L 711.136364 586.434972 
z
" clip-path="url(#p2f29c25972)" style="fill: #f668c2; fill-opacity: 0.2; stroke: #f668c2; stroke-opacity: 0.2"/>
    <path d="M 1415.681818 652.011568 
L 1415.681818 652.011568 
L 1556.590909 652.011568 
L 1556.590909 652.011568 
L 1556.590909 652.011568 
L 1415.681818 652.011568 
z
" clip-path="url(#p2f29c25972)" style="fill: #f668c2; fill-opacity: 0.2; stroke: #f668c2; stroke-opacity: 0.2"/>
   </g>
   <g id="matplotlib.axis_1">
    <g id="xtick_1">
     <g id="line2d_1">
      <defs>
       <path id="maddac0e8e6" d="M 0 0 
L 0 3.5 
" style="stroke: #000000; stroke-width: 0.8"/>
      </defs>
      <g>
       <use xlink:href="#maddac0e8e6" x="288.409091" y="961.2" style="stroke: #000000; stroke-width: 0.8"/>
      </g>
     </g>
     <g id="text_1">
      <!-- 2025-06-09 -->
      <g transform="translate(259.351278 975.798437)scale(0.1 -0.1)">
       <defs>
        <path id="DejaVuSans-32" d="M 1228 531 
L 3431 531 
L 3431 0 
L 469 0 
L 469 531 
Q 828 903 1448 1529 
Q 2069 2156 2228 2338 
Q 2531 2678 2651 2914 
Q 2772 3150 2772 3378 
Q 2772 3750 2511 3984 
Q 2250 4219 1831 4219 
Q 1534 4219 1204 4116 
Q 875 4013 500 3803 
L 500 4441 
Q 881 4594 1212 4672 
Q 1544 4750 1819 4750 
Q 2544 4750 2975 4387 
Q 3406 4025 3406 3419 
Q 3406 3131 3298 2873 
Q 3191 2616 2906 2266 
Q 2828 2175 2409 1742 
Q 1991 1309 1228 531 
z
" transform="scale(0.015625)"/>
        <path id="DejaVuSans-30" d="M 2034 4250 
Q 1547 4250 1301 3770 
Q 1056 3291 1056 2328 
Q 1056 1369 1301 889 
Q 1547 409 2034 409 
Q 2525 409 2770 889 
Q 3016 1369 3016 2328 
Q 3016 3291 2770 3770 
Q 2525 4250 2034 4250 
z
M 2034 4750 
Q 2819 4750 3233 4129 
Q 3647 3509 3647 2328 
Q 3647 1150 3233 529 
Q 2819 -91 2034 -91 
Q 1250 -91 836 529 
Q 422 1150 422 2328 
Q 422 3509 836 4129 
Q 1250 4750 2034 4750 
z
" transform="scale(0.015625)"/>
        <path id="DejaVuSans-35" d="M 691 4666 
L 3169 4666 
L 3169 4134 
L 1269 4134 
L 1269 2991 
Q 1406 3038 1543 3061 
Q 1681 3084 1819 3084 
Q 2600 3084 3056 2656 
Q 3513 2228 3513 1497 
Q 3513 744 3044 326 
Q 2575 -91 1722 -91 
Q 1428 -91 1123 -41 
Q 819 9 494 109 
L 494 744 
Q 775 591 1075 516 
Q 1375 441 1709 441 
Q 2250 441 2565 725 
Q 2881 1009 2881 1497 
Q 2881 1984 2565 2268 
Q 2250 2553 1709 2553 
Q 1456 2553 1204 2497 
Q 953 2441 691 2322 
L 691 4666 
z
" transform="scale(0.015625)"/>
        <path id="DejaVuSans-2d" d="M 313 2009 
L 1997 2009 
L 1997 1497 
L 313 1497 
L 313 2009 
z
" transform="scale(0.015625)"/>
        <path id="DejaVuSans-36" d="M 2113 2584 
Q 1688 2584 1439 2293 
Q 1191 2003 1191 1497 
Q 1191 994 1439 701 
Q 1688 409 2113 409 
Q 2538 409 2786 701 
Q 3034 994 3034 1497 
Q 3034 2003 2786 2293 
Q 2538 2584 2113 2584 
z
M 3366 4563 
L 3366 3988 
Q 3128 4100 2886 4159 
Q 2644 4219 2406 4219 
Q 1781 4219 1451 3797 
Q 1122 3375 1075 2522 
Q 1259 2794 1537 2939 
Q 1816 3084 2150 3084 
Q 2853 3084 3261 2657 
Q 3669 2231 3669 1497 
Q 3669 778 3244 343 
Q 2819 -91 2113 -91 
Q 1303 -91 875 529 
Q 447 1150 447 2328 
Q 447 3434 972 4092 
Q 1497 4750 2381 4750 
Q 2619 4750 2861 4703 
Q 3103 4656 3366 4563 
z
" transform="scale(0.015625)"/>
        <path id="DejaVuSans-39" d="M 703 97 
L 703 672 
Q 941 559 1184 500 
Q 1428 441 1663 441 
Q 2288 441 2617 861 
Q 2947 1281 2994 2138 
Q 2813 1869 2534 1725 
Q 2256 1581 1919 1581 
Q 1219 1581 811 2004 
Q 403 2428 403 3163 
Q 403 3881 828 4315 
Q 1253 4750 1959 4750 
Q 2769 4750 3195 4129 
Q 3622 3509 3622 2328 
Q 3622 1225 3098 567 
Q 2575 -91 1691 -91 
Q 1453 -91 1209 -44 
Q 966 3 703 97 
z
M 1959 2075 
Q 2384 2075 2632 2365 
Q 2881 2656 2881 3163 
Q 2881 3666 2632 3958 
Q 2384 4250 1959 4250 
Q 1534 4250 1286 3958 
Q 1038 3666 1038 3163 
Q 1038 2656 1286 2365 
Q 1534 2075 1959 2075 
z
" transform="scale(0.015625)"/>
       </defs>
       <use xlink:href="#DejaVuSans-32"/>
       <use xlink:href="#DejaVuSans-30" x="63.623047"/>
       <use xlink:href="#DejaVuSans-32" x="127.246094"/>
       <use xlink:href="#DejaVuSans-35" x="190.869141"/>
       <use xlink:href="#DejaVuSans-2d" x="254.492188"/>
       <use xlink:href="#DejaVuSans-30" x="290.576172"/>
       <use xlink:href="#DejaVuSans-36" x="354.199219"/>
       <use xlink:href="#DejaVuSans-2d" x="417.822266"/>
       <use xlink:href="#DejaVuSans-30" x="453.90625"/>
       <use xlink:href="#DejaVuSans-39" x="517.529297"/>
      </g>
     </g>
    </g>
    <g id="xtick_2">
     <g id="line2d_2">
      <g>
       <use xlink:href="#maddac0e8e6" x="429.318182" y="961.2" style="stroke: #000000; stroke-width: 0.8"/>
      </g>
     </g>
     <g id="text_2">
      <!-- 2025-06-10 -->
      <g transform="translate(400.260369 975.798437)scale(0.1 -0.1)">
       <defs>
        <path id="DejaVuSans-31" d="M 794 531 
L 1825 531 
L 1825 4091 
L 703 3866 
L 703 4441 
L 1819 4666 
L 2450 4666 
L 2450 531 
L 3481 531 
L 3481 0 
L 794 0 
L 794 531 
z
" transform="scale(0.015625)"/>
       </defs>
       <use xlink:href="#DejaVuSans-32"/>
       <use xlink:href="#DejaVuSans-30" x="63.623047"/>
       <use xlink:href="#DejaVuSans-32" x="127.246094"/>
       <use xlink:href="#DejaVuSans-35" x="190.869141"/>
       <use xlink:href="#DejaVuSans-2d" x="254.492188"/>
       <use xlink:href="#DejaVuSans-30" x="290.576172"/>
       <use xlink:href="#DejaVuSans-36" x="354.199219"/>
       <use xlink:href="#DejaVuSans-2d" x="417.822266"/>
       <use xlink:href="#DejaVuSans-31" x="453.90625"/>
       <use xlink:href="#DejaVuSans-30" x="517.529297"/>
      </g>
     </g>
    </g>
    <g id="xtick_3">
     <g id="line2d_3">
      <g>
       <use xlink:href="#maddac0e8e6" x="570.227273" y="961.2" style="stroke: #000000; stroke-width: 0.8"/>
      </g>
     </g>
     <g id="text_3">
      <!-- 2025-06-12 -->
      <g transform="translate(541.16946 975.798437)scale(0.1 -0.1)">
       <use xlink:href="#DejaVuSans-32"/>
       <use xlink:href="#DejaVuSans-30" x="63.623047"/>
       <use xlink:href="#DejaVuSans-32" x="127.246094"/>
       <use xlink:href="#DejaVuSans-35" x="190.869141"/>
       <use xlink:href="#DejaVuSans-2d" x="254.492188"/>
       <use xlink:href="#DejaVuSans-30" x="290.576172"/>
       <use xlink:href="#DejaVuSans-36" x="354.199219"/>
       <use xlink:href="#DejaVuSans-2d" x="417.822266"/>
       <use xlink:href="#DejaVuSans-31" x="453.90625"/>
       <use xlink:href="#DejaVuSans-32" x="517.529297"/>
      </g>
     </g>
    </g>
    <g id="xtick_4">
     <g id="line2d_4">
      <g>
       <use xlink:href="#maddac0e8e6" x="711.136364" y="961.2" style="stroke: #000000; stroke-width: 0.8"/>
      </g>
     </g>
     <g id="text_4">
      <!-- 2025-06-13 -->
      <g transform="translate(682.078551 975.798437)scale(0.1 -0.1)">
       <defs>
        <path id="DejaVuSans-33" d="M 2597 2516 
Q 3050 2419 3304 2112 
Q 3559 1806 3559 1356 
Q 3559 666 3084 287 
Q 2609 -91 1734 -91 
Q 1441 -91 1130 -33 
Q 819 25 488 141 
L 488 750 
Q 750 597 1062 519 
Q 1375 441 1716 441 
Q 2309 441 2620 675 
Q 2931 909 2931 1356 
Q 2931 1769 2642 2001 
Q 2353 2234 1838 2234 
L 1294 2234 
L 1294 2753 
L 1863 2753 
Q 2328 2753 2575 2939 
Q 2822 3125 2822 3475 
Q 2822 3834 2567 4026 
Q 2313 4219 1838 4219 
Q 1578 4219 1281 4162 
Q 984 4106 628 3988 
L 628 4550 
Q 988 4650 1302 4700 
Q 1616 4750 1894 4750 
Q 2613 4750 3031 4423 
Q 3450 4097 3450 3541 
Q 3450 3153 3228 2886 
Q 3006 2619 2597 2516 
z
" transform="scale(0.015625)"/>
       </defs>
       <use xlink:href="#DejaVuSans-32"/>
       <use xlink:href="#DejaVuSans-30" x="63.623047"/>
       <use xlink:href="#DejaVuSans-32" x="127.246094"/>
       <use xlink:href="#DejaVuSans-35" x="190.869141"/>
       <use xlink:href="#DejaVuSans-2d" x="254.492188"/>
       <use xlink:href="#DejaVuSans-30" x="290.576172"/>
       <use xlink:href="#DejaVuSans-36" x="354.199219"/>
       <use xlink:href="#DejaVuSans-2d" x="417.822266"/>
       <use xlink:href="#DejaVuSans-31" x="453.90625"/>
       <use xlink:href="#DejaVuSans-33" x="517.529297"/>
      </g>
     </g>
    </g>
    <g id="xtick_5">
     <g id="line2d_5">
      <g>
       <use xlink:href="#maddac0e8e6" x="852.045455" y="961.2" style="stroke: #000000; stroke-width: 0.8"/>
      </g>
     </g>
     <g id="text_5">
      <!-- 2025-06-16 -->
      <g transform="translate(822.987642 975.798437)scale(0.1 -0.1)">
       <use xlink:href="#DejaVuSans-32"/>
       <use xlink:href="#DejaVuSans-30" x="63.623047"/>
       <use xlink:href="#DejaVuSans-32" x="127.246094"/>
       <use xlink:href="#DejaVuSans-35" x="190.869141"/>
       <use xlink:href="#DejaVuSans-2d" x="254.492188"/>
       <use xlink:href="#DejaVuSans-30" x="290.576172"/>
       <use xlink:href="#DejaVuSans-36" x="354.199219"/>
       <use xlink:href="#DejaVuSans-2d" x="417.822266"/>
       <use xlink:href="#DejaVuSans-31" x="453.90625"/>
       <use xlink:href="#DejaVuSans-36" x="517.529297"/>
      </g>
     </g>
    </g>
    <g id="xtick_6">
     <g id="line2d_6">
      <g>
       <use xlink:href="#maddac0e8e6" x="992.954545" y="961.2" style="stroke: #000000; stroke-width: 0.8"/>
      </g>
     </g>
     <g id="text_6">
      <!-- 2025-06-17 -->
      <g transform="translate(963.896733 975.798437)scale(0.1 -0.1)">
       <defs>
        <path id="DejaVuSans-37" d="M 525 4666 
L 3525 4666 
L 3525 4397 
L 1831 0 
L 1172 0 
L 2766 4134 
L 525 4134 
L 525 4666 
z
" transform="scale(0.015625)"/>
       </defs>
       <use xlink:href="#DejaVuSans-32"/>
       <use xlink:href="#DejaVuSans-30" x="63.623047"/>
       <use xlink:href="#DejaVuSans-32" x="127.246094"/>
       <use xlink:href="#DejaVuSans-35" x="190.869141"/>
       <use xlink:href="#DejaVuSans-2d" x="254.492188"/>
       <use xlink:href="#DejaVuSans-30" x="290.576172"/>
       <use xlink:href="#DejaVuSans-36" x="354.199219"/>
       <use xlink:href="#DejaVuSans-2d" x="417.822266"/>
       <use xlink:href="#DejaVuSans-31" x="453.90625"/>
       <use xlink:href="#DejaVuSans-37" x="517.529297"/>
      </g>
     </g>
    </g>
    <g id="xtick_7">
     <g id="line2d_7">
      <g>
       <use xlink:href="#maddac0e8e6" x="1133.863636" y="961.2" style="stroke: #000000; stroke-width: 0.8"/>
      </g>
     </g>
     <g id="text_7">
      <!-- 2025-06-18 -->
      <g transform="translate(1104.805824 975.798437)scale(0.1 -0.1)">
       <defs>
        <path id="DejaVuSans-38" d="M 2034 2216 
Q 1584 2216 1326 1975 
Q 1069 1734 1069 1313 
Q 1069 891 1326 650 
Q 1584 409 2034 409 
Q 2484 409 2743 651 
Q 3003 894 3003 1313 
Q 3003 1734 2745 1975 
Q 2488 2216 2034 2216 
z
M 1403 2484 
Q 997 2584 770 2862 
Q 544 3141 544 3541 
Q 544 4100 942 4425 
Q 1341 4750 2034 4750 
Q 2731 4750 3128 4425 
Q 3525 4100 3525 3541 
Q 3525 3141 3298 2862 
Q 3072 2584 2669 2484 
Q 3125 2378 3379 2068 
Q 3634 1759 3634 1313 
Q 3634 634 3220 271 
Q 2806 -91 2034 -91 
Q 1263 -91 848 271 
Q 434 634 434 1313 
Q 434 1759 690 2068 
Q 947 2378 1403 2484 
z
M 1172 3481 
Q 1172 3119 1398 2916 
Q 1625 2713 2034 2713 
Q 2441 2713 2670 2916 
Q 2900 3119 2900 3481 
Q 2900 3844 2670 4047 
Q 2441 4250 2034 4250 
Q 1625 4250 1398 4047 
Q 1172 3844 1172 3481 
z
" transform="scale(0.015625)"/>
       </defs>
       <use xlink:href="#DejaVuSans-32"/>
       <use xlink:href="#DejaVuSans-30" x="63.623047"/>
       <use xlink:href="#DejaVuSans-32" x="127.246094"/>
       <use xlink:href="#DejaVuSans-35" x="190.869141"/>
       <use xlink:href="#DejaVuSans-2d" x="254.492188"/>
       <use xlink:href="#DejaVuSans-30" x="290.576172"/>
       <use xlink:href="#DejaVuSans-36" x="354.199219"/>
       <use xlink:href="#DejaVuSans-2d" x="417.822266"/>
       <use xlink:href="#DejaVuSans-31" x="453.90625"/>
       <use xlink:href="#DejaVuSans-38" x="517.529297"/>
      </g>
     </g>
    </g>
    <g id="xtick_8">
     <g id="line2d_8">
      <g>
       <use xlink:href="#maddac0e8e6" x="1274.772727" y="961.2" style="stroke: #000000; stroke-width: 0.8"/>
      </g>
     </g>
     <g id="text_8">
      <!-- 2025-06-19 -->
      <g transform="translate(1245.714915 975.798437)scale(0.1 -0.1)">
       <use xlink:href="#DejaVuSans-32"/>
       <use xlink:href="#DejaVuSans-30" x="63.623047"/>
       <use xlink:href="#DejaVuSans-32" x="127.246094"/>
       <use xlink:href="#DejaVuSans-35" x="190.869141"/>
       <use xlink:href="#DejaVuSans-2d" x="254.492188"/>
       <use xlink:href="#DejaVuSans-30" x="290.576172"/>
       <use xlink:href="#DejaVuSans-36" x="354.199219"/>
       <use xlink:href="#DejaVuSans-2d" x="417.822266"/>
       <use xlink:href="#DejaVuSans-31" x="453.90625"/>
       <use xlink:href="#DejaVuSans-39" x="517.529297"/>
      </g>
     </g>
    </g>
    <g id="xtick_9">
     <g id="line2d_9">
      <g>
       <use xlink:href="#maddac0e8e6" x="1415.681818" y="961.2" style="stroke: #000000; stroke-width: 0.8"/>
      </g>
     </g>
     <g id="text_9">
      <!-- 2025-06-20 -->
      <g transform="translate(1386.624006 975.798437)scale(0.1 -0.1)">
       <use xlink:href="#DejaVuSans-32"/>
       <use xlink:href="#DejaVuSans-30" x="63.623047"/>
       <use xlink:href="#DejaVuSans-32" x="127.246094"/>
       <use xlink:href="#DejaVuSans-35" x="190.869141"/>
       <use xlink:href="#DejaVuSans-2d" x="254.492188"/>
       <use xlink:href="#DejaVuSans-30" x="290.576172"/>
       <use xlink:href="#DejaVuSans-36" x="354.199219"/>
       <use xlink:href="#DejaVuSans-2d" x="417.822266"/>
       <use xlink:href="#DejaVuSans-32" x="453.90625"/>
       <use xlink:href="#DejaVuSans-30" x="517.529297"/>
      </g>
     </g>
    </g>
    <g id="xtick_10">
     <g id="line2d_10">
      <g>
       <use xlink:href="#maddac0e8e6" x="1556.590909" y="961.2" style="stroke: #000000; stroke-width: 0.8"/>
      </g>
     </g>
     <g id="text_10">
      <!-- 2025-06-23 -->
      <g transform="translate(1527.533097 975.798437)scale(0.1 -0.1)">
       <use xlink:href="#DejaVuSans-32"/>
       <use xlink:href="#DejaVuSans-30" x="63.623047"/>
       <use xlink:href="#DejaVuSans-32" x="127.246094"/>
       <use xlink:href="#DejaVuSans-35" x="190.869141"/>
       <use xlink:href="#DejaVuSans-2d" x="254.492188"/>
       <use xlink:href="#DejaVuSans-30" x="290.576172"/>
       <use xlink:href="#DejaVuSans-36" x="354.199219"/>
       <use xlink:href="#DejaVuSans-2d" x="417.822266"/>
       <use xlink:href="#DejaVuSans-32" x="453.90625"/>
       <use xlink:href="#DejaVuSans-33" x="517.529297"/>
      </g>
     </g>
    </g>
    <g id="text_11">
     <!-- date -->
     <g transform="translate(911.225 989.476562)scale(0.1 -0.1)">
      <defs>
       <path id="DejaVuSans-64" d="M 2906 2969 
L 2906 4863 
L 3481 4863 
L 3481 0 
L 2906 0 
L 2906 525 
Q 2725 213 2448 61 
Q 2172 -91 1784 -91 
Q 1150 -91 751 415 
Q 353 922 353 1747 
Q 353 2572 751 3078 
Q 1150 3584 1784 3584 
Q 2172 3584 2448 3432 
Q 2725 3281 2906 2969 
z
M 947 1747 
Q 947 1113 1208 752 
Q 1469 391 1925 391 
Q 2381 391 2643 752 
Q 2906 1113 2906 1747 
Q 2906 2381 2643 2742 
Q 2381 3103 1925 3103 
Q 1469 3103 1208 2742 
Q 947 2381 947 1747 
z
" transform="scale(0.015625)"/>
       <path id="DejaVuSans-61" d="M 2194 1759 
Q 1497 1759 1228 1600 
Q 959 1441 959 1056 
Q 959 750 1161 570 
Q 1363 391 1709 391 
Q 2188 391 2477 730 
Q 2766 1069 2766 1631 
L 2766 1759 
L 2194 1759 
z
M 3341 1997 
L 3341 0 
L 2766 0 
L 2766 531 
Q 2569 213 2275 61 
Q 1981 -91 1556 -91 
Q 1019 -91 701 211 
Q 384 513 384 1019 
Q 384 1609 779 1909 
Q 1175 2209 1959 2209 
L 2766 2209 
L 2766 2266 
Q 2766 2663 2505 2880 
Q 2244 3097 1772 3097 
Q 1472 3097 1187 3025 
Q 903 2953 641 2809 
L 641 3341 
Q 956 3463 1253 3523 
Q 1550 3584 1831 3584 
Q 2591 3584 2966 3190 
Q 3341 2797 3341 1997 
z
" transform="scale(0.015625)"/>
       <path id="DejaVuSans-74" d="M 1172 4494 
L 1172 3500 
L 2356 3500 
L 2356 3053 
L 1172 3053 
L 1172 1153 
Q 1172 725 1289 603 
Q 1406 481 1766 481 
L 2356 481 
L 2356 0 
L 1766 0 
Q 1100 0 847 248 
Q 594 497 594 1153 
L 594 3053 
L 172 3053 
L 172 3500 
L 594 3500 
L 594 4494 
L 1172 4494 
z
" transform="scale(0.015625)"/>
       <path id="DejaVuSans-65" d="M 3597 1894 
L 3597 1613 
L 953 1613 
Q 991 1019 1311 708 
Q 1631 397 2203 397 
Q 2534 397 2845 478 
Q 3156 559 3463 722 
L 3463 178 
Q 3153 47 2828 -22 
Q 2503 -91 2169 -91 
Q 1331 -91 842 396 
Q 353 884 353 1716 
Q 353 2575 817 3079 
Q 1281 3584 2069 3584 
Q 2775 3584 3186 3129 
Q 3597 2675 3597 1894 
z
M 3022 2063 
Q 3016 2534 2758 2815 
Q 2500 3097 2075 3097 
Q 1594 3097 1305 2825 
Q 1016 2553 972 2059 
L 3022 2063 
z
" transform="scale(0.015625)"/>
      </defs>
      <use xlink:href="#DejaVuSans-64"/>
      <use xlink:href="#DejaVuSans-61" x="63.476562"/>
      <use xlink:href="#DejaVuSans-74" x="124.755859"/>
      <use xlink:href="#DejaVuSans-65" x="163.964844"/>
     </g>
    </g>
   </g>
   <g id="matplotlib.axis_2">
    <g id="ytick_1">
     <g id="line2d_11">
      <defs>
       <path id="med33e6eaec" d="M 0 0 
L -3.5 0 
" style="stroke: #000000; stroke-width: 0.8"/>
      </defs>
      <g>
       <use xlink:href="#med33e6eaec" x="225" y="900.934294" style="stroke: #000000; stroke-width: 0.8"/>
      </g>
     </g>
     <g id="text_12">
      <!-- 850 -->
      <g transform="translate(198.9125 904.733513)scale(0.1 -0.1)">
       <use xlink:href="#DejaVuSans-38"/>
       <use xlink:href="#DejaVuSans-35" x="63.623047"/>
       <use xlink:href="#DejaVuSans-30" x="127.246094"/>
      </g>
     </g>
    </g>
    <g id="ytick_2">
     <g id="line2d_12">
      <g>
       <use xlink:href="#med33e6eaec" x="225" y="796.101187" style="stroke: #000000; stroke-width: 0.8"/>
      </g>
     </g>
     <g id="text_13">
      <!-- 900 -->
      <g transform="translate(198.9125 799.900405)scale(0.1 -0.1)">
       <use xlink:href="#DejaVuSans-39"/>
       <use xlink:href="#DejaVuSans-30" x="63.623047"/>
       <use xlink:href="#DejaVuSans-30" x="127.246094"/>
      </g>
     </g>
    </g>
    <g id="ytick_3">
     <g id="line2d_13">
      <g>
       <use xlink:href="#med33e6eaec" x="225" y="691.268079" style="stroke: #000000; stroke-width: 0.8"/>
      </g>
     </g>
     <g id="text_14">
      <!-- 950 -->
      <g transform="translate(198.9125 695.067298)scale(0.1 -0.1)">
       <use xlink:href="#DejaVuSans-39"/>
       <use xlink:href="#DejaVuSans-35" x="63.623047"/>
       <use xlink:href="#DejaVuSans-30" x="127.246094"/>
      </g>
     </g>
    </g>
    <g id="ytick_4">
     <g id="line2d_14">
      <g>
       <use xlink:href="#med33e6eaec" x="225" y="586.434972" style="stroke: #000000; stroke-width: 0.8"/>
      </g>
     </g>
     <g id="text_15">
      <!-- 1000 -->
      <g transform="translate(192.55 590.234191)scale(0.1 -0.1)">
       <use xlink:href="#DejaVuSans-31"/>
       <use xlink:href="#DejaVuSans-30" x="63.623047"/>
       <use xlink:href="#DejaVuSans-30" x="127.246094"/>
       <use xlink:href="#DejaVuSans-30" x="190.869141"/>
      </g>
     </g>
    </g>
    <g id="ytick_5">
     <g id="line2d_15">
      <g>
       <use xlink:href="#med33e6eaec" x="225" y="481.601865" style="stroke: #000000; stroke-width: 0.8"/>
      </g>
     </g>
     <g id="text_16">
      <!-- 1050 -->
      <g transform="translate(192.55 485.401084)scale(0.1 -0.1)">
       <use xlink:href="#DejaVuSans-31"/>
       <use xlink:href="#DejaVuSans-30" x="63.623047"/>
       <use xlink:href="#DejaVuSans-35" x="127.246094"/>
       <use xlink:href="#DejaVuSans-30" x="190.869141"/>
      </g>
     </g>
    </g>
    <g id="ytick_6">
     <g id="line2d_16">
      <g>
       <use xlink:href="#med33e6eaec" x="225" y="376.768758" style="stroke: #000000; stroke-width: 0.8"/>
      </g>
     </g>
     <g id="text_17">
      <!-- 1100 -->
      <g transform="translate(192.55 380.567976)scale(0.1 -0.1)">
       <use xlink:href="#DejaVuSans-31"/>
       <use xlink:href="#DejaVuSans-31" x="63.623047"/>
       <use xlink:href="#DejaVuSans-30" x="127.246094"/>
       <use xlink:href="#DejaVuSans-30" x="190.869141"/>
      </g>
     </g>
    </g>
    <g id="ytick_7">
     <g id="line2d_17">
      <g>
       <use xlink:href="#med33e6eaec" x="225" y="271.93565" style="stroke: #000000; stroke-width: 0.8"/>
      </g>
     </g>
     <g id="text_18">
      <!-- 1150 -->
      <g transform="translate(192.55 275.734869)scale(0.1 -0.1)">
       <use xlink:href="#DejaVuSans-31"/>
       <use xlink:href="#DejaVuSans-31" x="63.623047"/>
       <use xlink:href="#DejaVuSans-35" x="127.246094"/>
       <use xlink:href="#DejaVuSans-30" x="190.869141"/>
      </g>
     </g>
    </g>
    <g id="ytick_8">
     <g id="line2d_18">
      <g>
       <use xlink:href="#med33e6eaec" x="225" y="167.102543" style="stroke: #000000; stroke-width: 0.8"/>
      </g>
     </g>
     <g id="text_19">
      <!-- 1200 -->
      <g transform="translate(192.55 170.901762)scale(0.1 -0.1)">
       <use xlink:href="#DejaVuSans-31"/>
       <use xlink:href="#DejaVuSans-32" x="63.623047"/>
       <use xlink:href="#DejaVuSans-30" x="127.246094"/>
       <use xlink:href="#DejaVuSans-30" x="190.869141"/>
      </g>
     </g>
    </g>
    <g id="text_20">
     <!-- elo -->
     <g transform="translate(186.470313 552.925)rotate(-90)scale(0.1 -0.1)">
      <defs>
       <path id="DejaVuSans-6c" d="M 603 4863 
L 1178 4863 
L 1178 0 
L 603 0 
L 603 4863 
z
" transform="scale(0.015625)"/>
       <path id="DejaVuSans-6f" d="M 1959 3097 
Q 1497 3097 1228 2736 
Q 959 2375 959 1747 
Q 959 1119 1226 758 
Q 1494 397 1959 397 
Q 2419 397 2687 759 
Q 2956 1122 2956 1747 
Q 2956 2369 2687 2733 
Q 2419 3097 1959 3097 
z
M 1959 3584 
Q 2709 3584 3137 3096 
Q 3566 2609 3566 1747 
Q 3566 888 3137 398 
Q 2709 -91 1959 -91 
Q 1206 -91 779 398 
Q 353 888 353 1747 
Q 353 2609 779 3096 
Q 1206 3584 1959 3584 
z
" transform="scale(0.015625)"/>
      </defs>
      <use xlink:href="#DejaVuSans-65"/>
      <use xlink:href="#DejaVuSans-6c" x="61.523438"/>
      <use xlink:href="#DejaVuSans-6f" x="89.306641"/>
     </g>
    </g>
   </g>
   <g id="line2d_19">
    <path d="M 288.409091 586.434972 
L 429.318182 537.684624 
L 570.227273 424.119811 
L 711.136364 412.078239 
L 852.045455 412.078239 
L 992.954545 382.158341 
L 1133.863636 422.040586 
L 1274.772727 507.247038 
L 1415.681818 471.878671 
L 1556.590909 489.90897 
" clip-path="url(#p2f29c25972)" style="fill: none; stroke: #f77189; stroke-width: 1.5; stroke-linecap: square"/>
   </g>
   <g id="line2d_20">
    <path d="M 288.409091 586.434972 
L 429.318182 606.99506 
L 570.227273 678.490289 
L 711.136364 473.904401 
L 852.045455 533.032582 
L 992.954545 533.032582 
L 1133.863636 533.032582 
L 1274.772727 438.960854 
L 1415.681818 438.960854 
L 1556.590909 537.966307 
" clip-path="url(#p2f29c25972)" style="fill: none; stroke: #e68332; stroke-width: 1.5; stroke-linecap: square"/>
   </g>
   <g id="line2d_21">
    <path d="M 288.409091 586.434972 
L 429.318182 602.742062 
L 570.227273 561.085579 
L 711.136364 561.085579 
L 852.045455 441.387534 
L 992.954545 370.588551 
L 1133.863636 462.967605 
L 1274.772727 447.127214 
L 1415.681818 447.127214 
L 1556.590909 489.751192 
" clip-path="url(#p2f29c25972)" style="fill: none; stroke: #bb9832; stroke-width: 1.5; stroke-linecap: square"/>
   </g>
   <g id="line2d_22">
    <path d="M 288.409091 586.434972 
L 429.318182 647.563213 
L 570.227273 712.351886 
L 711.136364 906.025296 
L 852.045455 906.025296 
L 992.954545 906.025296 
L 1133.863636 906.025296 
L 1274.772727 906.025296 
L 1415.681818 923.4 
L 1556.590909 923.4 
" clip-path="url(#p2f29c25972)" style="fill: none; stroke: #97a431; stroke-width: 1.5; stroke-linecap: square"/>
   </g>
   <g id="line2d_23">
    <path d="M 288.409091 586.434972 
L 429.318182 616.300553 
L 570.227273 645.179424 
L 711.136364 645.179424 
L 852.045455 645.179424 
L 992.954545 605.522186 
L 1133.863636 737.020393 
L 1274.772727 737.020393 
L 1415.681818 865.506725 
L 1556.590909 806.988849 
" clip-path="url(#p2f29c25972)" style="fill: none; stroke: #50b131; stroke-width: 1.5; stroke-linecap: square"/>
   </g>
   <g id="line2d_24">
    <path d="M 288.409091 586.434972 
L 429.318182 507.32432 
L 570.227273 469.223376 
L 711.136364 367.6053 
L 852.045455 257.625093 
L 992.954545 317.979303 
L 1133.863636 167.4 
L 1274.772727 167.4 
L 1415.681818 172.279308 
L 1556.590909 172.279308 
" clip-path="url(#p2f29c25972)" style="fill: none; stroke: #34af84; stroke-width: 1.5; stroke-linecap: square"/>
   </g>
   <g id="line2d_25">
    <path d="M 288.409091 586.434972 
L 429.318182 586.434972 
L 570.227273 614.594438 
L 711.136364 756.850395 
L 852.045455 766.116593 
L 992.954545 700.539996 
L 1133.863636 492.238209 
L 1274.772727 381.531717 
L 1415.681818 312.29565 
L 1556.590909 312.29565 
" clip-path="url(#p2f29c25972)" style="fill: none; stroke: #36ada4; stroke-width: 1.5; stroke-linecap: square"/>
   </g>
   <g id="line2d_26">
    <path d="M 288.409091 586.434972 
L 429.318182 586.434972 
L 570.227273 586.434972 
L 711.136364 610.111392 
L 852.045455 610.111392 
L 992.954545 610.111392 
L 1133.863636 610.111392 
L 1274.772727 610.111392 
L 1415.681818 610.111392 
L 1556.590909 610.111392 
" clip-path="url(#p2f29c25972)" style="fill: none; stroke: #38aabf; stroke-width: 1.5; stroke-linecap: square"/>
   </g>
   <g id="line2d_27">
    <path d="M 288.409091 586.434972 
L 429.318182 586.434972 
L 570.227273 586.434972 
L 711.136364 665.753161 
L 852.045455 691.629248 
L 992.954545 696.851634 
L 1133.863636 696.851634 
L 1274.772727 696.851634 
L 1415.681818 665.954026 
L 1556.590909 566.948573 
" clip-path="url(#p2f29c25972)" style="fill: none; stroke: #3ba3ec; stroke-width: 1.5; stroke-linecap: square"/>
   </g>
   <g id="line2d_28">
    <path d="M 288.409091 586.434972 
L 429.318182 586.434972 
L 570.227273 586.434972 
L 711.136364 601.164321 
L 852.045455 601.164321 
L 992.954545 636.306605 
L 1133.863636 731.428189 
L 1274.772727 842.134681 
L 1415.681818 822.623575 
L 1556.590909 822.623575 
" clip-path="url(#p2f29c25972)" style="fill: none; stroke: #a48cf4; stroke-width: 1.5; stroke-linecap: square"/>
   </g>
   <g id="line2d_29">
    <path d="M 288.409091 586.434972 
L 429.318182 586.434972 
L 570.227273 586.434972 
L 711.136364 586.434972 
L 852.045455 586.434972 
L 992.954545 626.09221 
L 1133.863636 626.09221 
L 1274.772727 650.797877 
L 1415.681818 650.797877 
L 1556.590909 652.934279 
" clip-path="url(#p2f29c25972)" style="fill: none; stroke: #e866f4; stroke-width: 1.5; stroke-linecap: square"/>
   </g>
   <g id="line2d_30">
    <path d="M 288.409091 586.434972 
L 429.318182 586.434972 
L 570.227273 586.434972 
L 711.136364 586.434972 
L 852.045455 586.434972 
L 992.954545 652.011568 
L 1133.863636 652.011568 
L 1274.772727 652.011568 
L 1415.681818 652.011568 
L 1556.590909 652.011568 
" clip-path="url(#p2f29c25972)" style="fill: none; stroke: #f668c2; stroke-width: 1.5; stroke-linecap: square"/>
   </g>
   <g id="line2d_31"/>
   <g id="line2d_32"/>
   <g id="line2d_33"/>
   <g id="line2d_34"/>
   <g id="line2d_35"/>
   <g id="line2d_36"/>
   <g id="line2d_37"/>
   <g id="line2d_38"/>
   <g id="line2d_39"/>
   <g id="line2d_40"/>
   <g id="line2d_41"/>
   <g id="line2d_42"/>
   <g id="patch_3">
    <path d="M 225 961.2 
L 225 129.6 
" style="fill: none; stroke: #000000; stroke-width: 0.8; stroke-linejoin: miter; stroke-linecap: square"/>
   </g>
   <g id="patch_4">
    <path d="M 1620 961.2 
L 1620 129.6 
" style="fill: none; stroke: #000000; stroke-width: 0.8; stroke-linejoin: miter; stroke-linecap: square"/>
   </g>
   <g id="patch_5">
    <path d="M 225 961.2 
L 1620 961.2 
" style="fill: none; stroke: #000000; stroke-width: 0.8; stroke-linejoin: miter; stroke-linecap: square"/>
   </g>
   <g id="patch_6">
    <path d="M 225 129.6 
L 1620 129.6 
" style="fill: none; stroke: #000000; stroke-width: 0.8; stroke-linejoin: miter; stroke-linecap: square"/>
   </g>
   <g id="legend_1">
    <g id="patch_7">
     <path d="M 232 328.415625 
L 315.06875 328.415625 
Q 317.06875 328.415625 317.06875 326.415625 
L 317.06875 136.6 
Q 317.06875 134.6 315.06875 134.6 
L 232 134.6 
Q 230 134.6 230 136.6 
L 230 326.415625 
Q 230 328.415625 232 328.415625 
z
" style="fill: #ffffff; opacity: 0.8; stroke: #cccccc; stroke-linejoin: miter"/>
    </g>
    <g id="text_21">
     <!-- player -->
     <g transform="translate(257.815625 146.198437)scale(0.1 -0.1)">
      <defs>
       <path id="DejaVuSans-70" d="M 1159 525 
L 1159 -1331 
L 581 -1331 
L 581 3500 
L 1159 3500 
L 1159 2969 
Q 1341 3281 1617 3432 
Q 1894 3584 2278 3584 
Q 2916 3584 3314 3078 
Q 3713 2572 3713 1747 
Q 3713 922 3314 415 
Q 2916 -91 2278 -91 
Q 1894 -91 1617 61 
Q 1341 213 1159 525 
z
M 3116 1747 
Q 3116 2381 2855 2742 
Q 2594 3103 2138 3103 
Q 1681 3103 1420 2742 
Q 1159 2381 1159 1747 
Q 1159 1113 1420 752 
Q 1681 391 2138 391 
Q 2594 391 2855 752 
Q 3116 1113 3116 1747 
z
" transform="scale(0.015625)"/>
       <path id="DejaVuSans-79" d="M 2059 -325 
Q 1816 -950 1584 -1140 
Q 1353 -1331 966 -1331 
L 506 -1331 
L 506 -850 
L 844 -850 
Q 1081 -850 1212 -737 
Q 1344 -625 1503 -206 
L 1606 56 
L 191 3500 
L 800 3500 
L 1894 763 
L 2988 3500 
L 3597 3500 
L 2059 -325 
z
" transform="scale(0.015625)"/>
       <path id="DejaVuSans-72" d="M 2631 2963 
Q 2534 3019 2420 3045 
Q 2306 3072 2169 3072 
Q 1681 3072 1420 2755 
Q 1159 2438 1159 1844 
L 1159 0 
L 581 0 
L 581 3500 
L 1159 3500 
L 1159 2956 
Q 1341 3275 1631 3429 
Q 1922 3584 2338 3584 
Q 2397 3584 2469 3576 
Q 2541 3569 2628 3553 
L 2631 2963 
z
" transform="scale(0.015625)"/>
      </defs>
      <use xlink:href="#DejaVuSans-70"/>
      <use xlink:href="#DejaVuSans-6c" x="63.476562"/>
      <use xlink:href="#DejaVuSans-61" x="91.259766"/>
      <use xlink:href="#DejaVuSans-79" x="152.539062"/>
      <use xlink:href="#DejaVuSans-65" x="211.71875"/>
      <use xlink:href="#DejaVuSans-72" x="273.242188"/>
     </g>
    </g>
    <g id="line2d_43">
     <path d="M 234 157.376562 
L 244 157.376562 
L 254 157.376562 
" style="fill: none; stroke: #f77189; stroke-width: 1.5; stroke-linecap: square"/>
    </g>
    <g id="text_22">
     <!-- Pablo -->
     <g transform="translate(262 160.876562)scale(0.1 -0.1)">
      <defs>
       <path id="DejaVuSans-50" d="M 1259 4147 
L 1259 2394 
L 2053 2394 
Q 2494 2394 2734 2622 
Q 2975 2850 2975 3272 
Q 2975 3691 2734 3919 
Q 2494 4147 2053 4147 
L 1259 4147 
z
M 628 4666 
L 2053 4666 
Q 2838 4666 3239 4311 
Q 3641 3956 3641 3272 
Q 3641 2581 3239 2228 
Q 2838 1875 2053 1875 
L 1259 1875 
L 1259 0 
L 628 0 
L 628 4666 
z
" transform="scale(0.015625)"/>
       <path id="DejaVuSans-62" d="M 3116 1747 
Q 3116 2381 2855 2742 
Q 2594 3103 2138 3103 
Q 1681 3103 1420 2742 
Q 1159 2381 1159 1747 
Q 1159 1113 1420 752 
Q 1681 391 2138 391 
Q 2594 391 2855 752 
Q 3116 1113 3116 1747 
z
M 1159 2969 
Q 1341 3281 1617 3432 
Q 1894 3584 2278 3584 
Q 2916 3584 3314 3078 
Q 3713 2572 3713 1747 
Q 3713 922 3314 415 
Q 2916 -91 2278 -91 
Q 1894 -91 1617 61 
Q 1341 213 1159 525 
L 1159 0 
L 581 0 
L 581 4863 
L 1159 4863 
L 1159 2969 
z
" transform="scale(0.015625)"/>
      </defs>
      <use xlink:href="#DejaVuSans-50"/>
      <use xlink:href="#DejaVuSans-61" x="55.802734"/>
      <use xlink:href="#DejaVuSans-62" x="117.082031"/>
      <use xlink:href="#DejaVuSans-6c" x="180.558594"/>
      <use xlink:href="#DejaVuSans-6f" x="208.341797"/>
     </g>
    </g>
    <g id="line2d_44">
     <path d="M 234 172.054688 
L 244 172.054688 
L 254 172.054688 
" style="fill: none; stroke: #e68332; stroke-width: 1.5; stroke-linecap: square"/>
    </g>
    <g id="text_23">
     <!-- Ugo -->
     <g transform="translate(262 175.554688)scale(0.1 -0.1)">
      <defs>
       <path id="DejaVuSans-55" d="M 556 4666 
L 1191 4666 
L 1191 1831 
Q 1191 1081 1462 751 
Q 1734 422 2344 422 
Q 2950 422 3222 751 
Q 3494 1081 3494 1831 
L 3494 4666 
L 4128 4666 
L 4128 1753 
Q 4128 841 3676 375 
Q 3225 -91 2344 -91 
Q 1459 -91 1007 375 
Q 556 841 556 1753 
L 556 4666 
z
" transform="scale(0.015625)"/>
       <path id="DejaVuSans-67" d="M 2906 1791 
Q 2906 2416 2648 2759 
Q 2391 3103 1925 3103 
Q 1463 3103 1205 2759 
Q 947 2416 947 1791 
Q 947 1169 1205 825 
Q 1463 481 1925 481 
Q 2391 481 2648 825 
Q 2906 1169 2906 1791 
z
M 3481 434 
Q 3481 -459 3084 -895 
Q 2688 -1331 1869 -1331 
Q 1566 -1331 1297 -1286 
Q 1028 -1241 775 -1147 
L 775 -588 
Q 1028 -725 1275 -790 
Q 1522 -856 1778 -856 
Q 2344 -856 2625 -561 
Q 2906 -266 2906 331 
L 2906 616 
Q 2728 306 2450 153 
Q 2172 0 1784 0 
Q 1141 0 747 490 
Q 353 981 353 1791 
Q 353 2603 747 3093 
Q 1141 3584 1784 3584 
Q 2172 3584 2450 3431 
Q 2728 3278 2906 2969 
L 2906 3500 
L 3481 3500 
L 3481 434 
z
" transform="scale(0.015625)"/>
      </defs>
      <use xlink:href="#DejaVuSans-55"/>
      <use xlink:href="#DejaVuSans-67" x="73.193359"/>
      <use xlink:href="#DejaVuSans-6f" x="136.669922"/>
     </g>
    </g>
    <g id="line2d_45">
     <path d="M 234 186.732813 
L 244 186.732813 
L 254 186.732813 
" style="fill: none; stroke: #bb9832; stroke-width: 1.5; stroke-linecap: square"/>
    </g>
    <g id="text_24">
     <!-- Nicco -->
     <g transform="translate(262 190.232813)scale(0.1 -0.1)">
      <defs>
       <path id="DejaVuSans-4e" d="M 628 4666 
L 1478 4666 
L 3547 763 
L 3547 4666 
L 4159 4666 
L 4159 0 
L 3309 0 
L 1241 3903 
L 1241 0 
L 628 0 
L 628 4666 
z
" transform="scale(0.015625)"/>
       <path id="DejaVuSans-69" d="M 603 3500 
L 1178 3500 
L 1178 0 
L 603 0 
L 603 3500 
z
M 603 4863 
L 1178 4863 
L 1178 4134 
L 603 4134 
L 603 4863 
z
" transform="scale(0.015625)"/>
       <path id="DejaVuSans-63" d="M 3122 3366 
L 3122 2828 
Q 2878 2963 2633 3030 
Q 2388 3097 2138 3097 
Q 1578 3097 1268 2742 
Q 959 2388 959 1747 
Q 959 1106 1268 751 
Q 1578 397 2138 397 
Q 2388 397 2633 464 
Q 2878 531 3122 666 
L 3122 134 
Q 2881 22 2623 -34 
Q 2366 -91 2075 -91 
Q 1284 -91 818 406 
Q 353 903 353 1747 
Q 353 2603 823 3093 
Q 1294 3584 2113 3584 
Q 2378 3584 2631 3529 
Q 2884 3475 3122 3366 
z
" transform="scale(0.015625)"/>
      </defs>
      <use xlink:href="#DejaVuSans-4e"/>
      <use xlink:href="#DejaVuSans-69" x="74.804688"/>
      <use xlink:href="#DejaVuSans-63" x="102.587891"/>
      <use xlink:href="#DejaVuSans-63" x="157.568359"/>
      <use xlink:href="#DejaVuSans-6f" x="212.548828"/>
     </g>
    </g>
    <g id="line2d_46">
     <path d="M 234 201.410938 
L 244 201.410938 
L 254 201.410938 
" style="fill: none; stroke: #97a431; stroke-width: 1.5; stroke-linecap: square"/>
    </g>
    <g id="text_25">
     <!-- Shintaro -->
     <g transform="translate(262 204.910938)scale(0.1 -0.1)">
      <defs>
       <path id="DejaVuSans-53" d="M 3425 4513 
L 3425 3897 
Q 3066 4069 2747 4153 
Q 2428 4238 2131 4238 
Q 1616 4238 1336 4038 
Q 1056 3838 1056 3469 
Q 1056 3159 1242 3001 
Q 1428 2844 1947 2747 
L 2328 2669 
Q 3034 2534 3370 2195 
Q 3706 1856 3706 1288 
Q 3706 609 3251 259 
Q 2797 -91 1919 -91 
Q 1588 -91 1214 -16 
Q 841 59 441 206 
L 441 856 
Q 825 641 1194 531 
Q 1563 422 1919 422 
Q 2459 422 2753 634 
Q 3047 847 3047 1241 
Q 3047 1584 2836 1778 
Q 2625 1972 2144 2069 
L 1759 2144 
Q 1053 2284 737 2584 
Q 422 2884 422 3419 
Q 422 4038 858 4394 
Q 1294 4750 2059 4750 
Q 2388 4750 2728 4690 
Q 3069 4631 3425 4513 
z
" transform="scale(0.015625)"/>
       <path id="DejaVuSans-68" d="M 3513 2113 
L 3513 0 
L 2938 0 
L 2938 2094 
Q 2938 2591 2744 2837 
Q 2550 3084 2163 3084 
Q 1697 3084 1428 2787 
Q 1159 2491 1159 1978 
L 1159 0 
L 581 0 
L 581 4863 
L 1159 4863 
L 1159 2956 
Q 1366 3272 1645 3428 
Q 1925 3584 2291 3584 
Q 2894 3584 3203 3211 
Q 3513 2838 3513 2113 
z
" transform="scale(0.015625)"/>
       <path id="DejaVuSans-6e" d="M 3513 2113 
L 3513 0 
L 2938 0 
L 2938 2094 
Q 2938 2591 2744 2837 
Q 2550 3084 2163 3084 
Q 1697 3084 1428 2787 
Q 1159 2491 1159 1978 
L 1159 0 
L 581 0 
L 581 3500 
L 1159 3500 
L 1159 2956 
Q 1366 3272 1645 3428 
Q 1925 3584 2291 3584 
Q 2894 3584 3203 3211 
Q 3513 2838 3513 2113 
z
" transform="scale(0.015625)"/>
      </defs>
      <use xlink:href="#DejaVuSans-53"/>
      <use xlink:href="#DejaVuSans-68" x="63.476562"/>
      <use xlink:href="#DejaVuSans-69" x="126.855469"/>
      <use xlink:href="#DejaVuSans-6e" x="154.638672"/>
      <use xlink:href="#DejaVuSans-74" x="218.017578"/>
      <use xlink:href="#DejaVuSans-61" x="257.226562"/>
      <use xlink:href="#DejaVuSans-72" x="318.505859"/>
      <use xlink:href="#DejaVuSans-6f" x="357.369141"/>
     </g>
    </g>
    <g id="line2d_47">
     <path d="M 234 216.089062 
L 244 216.089062 
L 254 216.089062 
" style="fill: none; stroke: #50b131; stroke-width: 1.5; stroke-linecap: square"/>
    </g>
    <g id="text_26">
     <!-- Xiaoyu -->
     <g transform="translate(262 219.589062)scale(0.1 -0.1)">
      <defs>
       <path id="DejaVuSans-58" d="M 403 4666 
L 1081 4666 
L 2241 2931 
L 3406 4666 
L 4084 4666 
L 2584 2425 
L 4184 0 
L 3506 0 
L 2194 1984 
L 872 0 
L 191 0 
L 1856 2491 
L 403 4666 
z
" transform="scale(0.015625)"/>
       <path id="DejaVuSans-75" d="M 544 1381 
L 544 3500 
L 1119 3500 
L 1119 1403 
Q 1119 906 1312 657 
Q 1506 409 1894 409 
Q 2359 409 2629 706 
Q 2900 1003 2900 1516 
L 2900 3500 
L 3475 3500 
L 3475 0 
L 2900 0 
L 2900 538 
Q 2691 219 2414 64 
Q 2138 -91 1772 -91 
Q 1169 -91 856 284 
Q 544 659 544 1381 
z
M 1991 3584 
L 1991 3584 
z
" transform="scale(0.015625)"/>
      </defs>
      <use xlink:href="#DejaVuSans-58"/>
      <use xlink:href="#DejaVuSans-69" x="68.505859"/>
      <use xlink:href="#DejaVuSans-61" x="96.289062"/>
      <use xlink:href="#DejaVuSans-6f" x="157.568359"/>
      <use xlink:href="#DejaVuSans-79" x="218.75"/>
      <use xlink:href="#DejaVuSans-75" x="277.929688"/>
     </g>
    </g>
    <g id="line2d_48">
     <path d="M 234 230.767187 
L 244 230.767187 
L 254 230.767187 
" style="fill: none; stroke: #34af84; stroke-width: 1.5; stroke-linecap: square"/>
    </g>
    <g id="text_27">
     <!-- Leo -->
     <g transform="translate(262 234.267187)scale(0.1 -0.1)">
      <defs>
       <path id="DejaVuSans-4c" d="M 628 4666 
L 1259 4666 
L 1259 531 
L 3531 531 
L 3531 0 
L 628 0 
L 628 4666 
z
" transform="scale(0.015625)"/>
      </defs>
      <use xlink:href="#DejaVuSans-4c"/>
      <use xlink:href="#DejaVuSans-65" x="53.962891"/>
      <use xlink:href="#DejaVuSans-6f" x="115.486328"/>
     </g>
    </g>
    <g id="line2d_49">
     <path d="M 234 245.445312 
L 244 245.445312 
L 254 245.445312 
" style="fill: none; stroke: #36ada4; stroke-width: 1.5; stroke-linecap: square"/>
    </g>
    <g id="text_28">
     <!-- Mathieu p -->
     <g transform="translate(262 248.945312)scale(0.1 -0.1)">
      <defs>
       <path id="DejaVuSans-4d" d="M 628 4666 
L 1569 4666 
L 2759 1491 
L 3956 4666 
L 4897 4666 
L 4897 0 
L 4281 0 
L 4281 4097 
L 3078 897 
L 2444 897 
L 1241 4097 
L 1241 0 
L 628 0 
L 628 4666 
z
" transform="scale(0.015625)"/>
       <path id="DejaVuSans-20" transform="scale(0.015625)"/>
      </defs>
      <use xlink:href="#DejaVuSans-4d"/>
      <use xlink:href="#DejaVuSans-61" x="86.279297"/>
      <use xlink:href="#DejaVuSans-74" x="147.558594"/>
      <use xlink:href="#DejaVuSans-68" x="186.767578"/>
      <use xlink:href="#DejaVuSans-69" x="250.146484"/>
      <use xlink:href="#DejaVuSans-65" x="277.929688"/>
      <use xlink:href="#DejaVuSans-75" x="339.453125"/>
      <use xlink:href="#DejaVuSans-20" x="402.832031"/>
      <use xlink:href="#DejaVuSans-70" x="434.619141"/>
     </g>
    </g>
    <g id="line2d_50">
     <path d="M 234 260.123438 
L 244 260.123438 
L 254 260.123438 
" style="fill: none; stroke: #38aabf; stroke-width: 1.5; stroke-linecap: square"/>
    </g>
    <g id="text_29">
     <!-- Samantha -->
     <g transform="translate(262 263.623438)scale(0.1 -0.1)">
      <defs>
       <path id="DejaVuSans-6d" d="M 3328 2828 
Q 3544 3216 3844 3400 
Q 4144 3584 4550 3584 
Q 5097 3584 5394 3201 
Q 5691 2819 5691 2113 
L 5691 0 
L 5113 0 
L 5113 2094 
Q 5113 2597 4934 2840 
Q 4756 3084 4391 3084 
Q 3944 3084 3684 2787 
Q 3425 2491 3425 1978 
L 3425 0 
L 2847 0 
L 2847 2094 
Q 2847 2600 2669 2842 
Q 2491 3084 2119 3084 
Q 1678 3084 1418 2786 
Q 1159 2488 1159 1978 
L 1159 0 
L 581 0 
L 581 3500 
L 1159 3500 
L 1159 2956 
Q 1356 3278 1631 3431 
Q 1906 3584 2284 3584 
Q 2666 3584 2933 3390 
Q 3200 3197 3328 2828 
z
" transform="scale(0.015625)"/>
      </defs>
      <use xlink:href="#DejaVuSans-53"/>
      <use xlink:href="#DejaVuSans-61" x="63.476562"/>
      <use xlink:href="#DejaVuSans-6d" x="124.755859"/>
      <use xlink:href="#DejaVuSans-61" x="222.167969"/>
      <use xlink:href="#DejaVuSans-6e" x="283.447266"/>
      <use xlink:href="#DejaVuSans-74" x="346.826172"/>
      <use xlink:href="#DejaVuSans-68" x="386.035156"/>
      <use xlink:href="#DejaVuSans-61" x="449.414062"/>
     </g>
    </g>
    <g id="line2d_51">
     <path d="M 234 274.801562 
L 244 274.801562 
L 254 274.801562 
" style="fill: none; stroke: #3ba3ec; stroke-width: 1.5; stroke-linecap: square"/>
    </g>
    <g id="text_30">
     <!-- Mathieu r -->
     <g transform="translate(262 278.301562)scale(0.1 -0.1)">
      <use xlink:href="#DejaVuSans-4d"/>
      <use xlink:href="#DejaVuSans-61" x="86.279297"/>
      <use xlink:href="#DejaVuSans-74" x="147.558594"/>
      <use xlink:href="#DejaVuSans-68" x="186.767578"/>
      <use xlink:href="#DejaVuSans-69" x="250.146484"/>
      <use xlink:href="#DejaVuSans-65" x="277.929688"/>
      <use xlink:href="#DejaVuSans-75" x="339.453125"/>
      <use xlink:href="#DejaVuSans-20" x="402.832031"/>
      <use xlink:href="#DejaVuSans-72" x="434.619141"/>
     </g>
    </g>
    <g id="line2d_52">
     <path d="M 234 289.479687 
L 244 289.479687 
L 254 289.479687 
" style="fill: none; stroke: #a48cf4; stroke-width: 1.5; stroke-linecap: square"/>
    </g>
    <g id="text_31">
     <!-- Jonathan -->
     <g transform="translate(262 292.979687)scale(0.1 -0.1)">
      <defs>
       <path id="DejaVuSans-4a" d="M 628 4666 
L 1259 4666 
L 1259 325 
Q 1259 -519 939 -900 
Q 619 -1281 -91 -1281 
L -331 -1281 
L -331 -750 
L -134 -750 
Q 284 -750 456 -515 
Q 628 -281 628 325 
L 628 4666 
z
" transform="scale(0.015625)"/>
      </defs>
      <use xlink:href="#DejaVuSans-4a"/>
      <use xlink:href="#DejaVuSans-6f" x="29.492188"/>
      <use xlink:href="#DejaVuSans-6e" x="90.673828"/>
      <use xlink:href="#DejaVuSans-61" x="154.052734"/>
      <use xlink:href="#DejaVuSans-74" x="215.332031"/>
      <use xlink:href="#DejaVuSans-68" x="254.541016"/>
      <use xlink:href="#DejaVuSans-61" x="317.919922"/>
      <use xlink:href="#DejaVuSans-6e" x="379.199219"/>
     </g>
    </g>
    <g id="line2d_53">
     <path d="M 234 304.157812 
L 244 304.157812 
L 254 304.157812 
" style="fill: none; stroke: #e866f4; stroke-width: 1.5; stroke-linecap: square"/>
    </g>
    <g id="text_32">
     <!-- Jacopo -->
     <g transform="translate(262 307.657812)scale(0.1 -0.1)">
      <use xlink:href="#DejaVuSans-4a"/>
      <use xlink:href="#DejaVuSans-61" x="29.492188"/>
      <use xlink:href="#DejaVuSans-63" x="90.771484"/>
      <use xlink:href="#DejaVuSans-6f" x="145.751953"/>
      <use xlink:href="#DejaVuSans-70" x="206.933594"/>
      <use xlink:href="#DejaVuSans-6f" x="270.410156"/>
     </g>
    </g>
    <g id="line2d_54">
     <path d="M 234 318.835938 
L 244 318.835938 
L 254 318.835938 
" style="fill: none; stroke: #f668c2; stroke-width: 1.5; stroke-linecap: square"/>
    </g>
    <g id="text_33">
     <!-- Emanuel -->
     <g transform="translate(262 322.335938)scale(0.1 -0.1)">
      <defs>
       <path id="DejaVuSans-45" d="M 628 4666 
L 3578 4666 
L 3578 4134 
L 1259 4134 
L 1259 2753 
L 3481 2753 
L 3481 2222 
L 1259 2222 
L 1259 531 
L 3634 531 
L 3634 0 
L 628 0 
L 628 4666 
z
" transform="scale(0.015625)"/>
      </defs>
      <use xlink:href="#DejaVuSans-45"/>
      <use xlink:href="#DejaVuSans-6d" x="63.183594"/>
      <use xlink:href="#DejaVuSans-61" x="160.595703"/>
      <use xlink:href="#DejaVuSans-6e" x="221.875"/>
      <use xlink:href="#DejaVuSans-75" x="285.253906"/>
      <use xlink:href="#DejaVuSans-65" x="348.632812"/>
      <use xlink:href="#DejaVuSans-6c" x="410.15625"/>
     </g>
    </g>
   </g>
  </g>
 </g>
 <defs>
  <clipPath id="p2f29c25972">
   <rect x="225" y="129.6" width="1395" height="831.6"/>
  </clipPath>
 </defs>
</svg>
