<?xml version="1.0" encoding="utf-8" standalone="no"?>
<!DOCTYPE svg PUBLIC "-//W3C//DTD SVG 1.1//EN"
  "http://www.w3.org/Graphics/SVG/1.1/DTD/svg11.dtd">
<svg xmlns:xlink="http://www.w3.org/1999/xlink" width="1800pt" height="1080pt" viewBox="0 0 1800 1080" xmlns="http://www.w3.org/2000/svg" version="1.1">
 <metadata>
  <rdf:RDF xmlns:dc="http://purl.org/dc/elements/1.1/" xmlns:cc="http://creativecommons.org/ns#" xmlns:rdf="http://www.w3.org/1999/02/22-rdf-syntax-ns#">
   <cc:Work>
    <dc:type rdf:resource="http://purl.org/dc/dcmitype/StillImage"/>
    <dc:date>2025-07-07T10:57:35.424514</dc:date>
    <dc:format>image/svg+xml</dc:format>
    <dc:creator>
     <cc:Agent>
      <dc:title>Matplotlib v3.5.1, https://matplotlib.org/</dc:title>
     </cc:Agent>
    </dc:creator>
   </cc:Work>
  </rdf:RDF>
 </metadata>
 <defs>
  <style type="text/css">*{stroke-linejoin: round; stroke-linecap: butt}</style>
 </defs>
 <g id="figure_1">
  <g id="patch_1">
   <path d="M 0 1080 
L 1800 1080 
L 1800 0 
L 0 0 
z
" style="fill: #ffffff"/>
  </g>
  <g id="axes_1">
   <g id="patch_2">
    <path d="M 225 961.2 
L 1620 961.2 
L 1620 129.6 
L 225 129.6 
z
" style="fill: #ffffff"/>
   </g>
   <g id="PolyCollection_1">
    <path d="M 512.205882 381.305958 
L 512.205882 381.305958 
L 586.804813 381.305958 
L 661.403743 355.148975 
L 661.403743 355.148975 
L 661.403743 355.148975 
L 586.804813 381.305958 
L 512.205882 381.305958 
z
" clip-path="url(#p52a29f7b3b)" style="fill: #f77189; fill-opacity: 0.2; stroke: #f77189; stroke-opacity: 0.2"/>
    <path d="M 885.200535 433.585511 
L 885.200535 433.585511 
L 959.799465 449.348205 
L 959.799465 449.348205 
L 959.799465 449.348205 
L 885.200535 433.585511 
z
" clip-path="url(#p52a29f7b3b)" style="fill: #f77189; fill-opacity: 0.2; stroke: #f77189; stroke-opacity: 0.2"/>
    <path d="M 1108.997326 442.809329 
L 1108.997326 442.809329 
L 1108.997326 442.809329 
L 1108.997326 442.809329 
z
" clip-path="url(#p52a29f7b3b)" style="fill: #f77189; fill-opacity: 0.2; stroke: #f77189; stroke-opacity: 0.2"/>
    <path d="M 1332.794118 419.847423 
L 1332.794118 419.847423 
L 1332.794118 419.847423 
L 1332.794118 419.847423 
z
" clip-path="url(#p52a29f7b3b)" style="fill: #f77189; fill-opacity: 0.2; stroke: #f77189; stroke-opacity: 0.2"/>
    <path d="M 1481.991979 419.847423 
L 1481.991979 419.847423 
L 1481.991979 419.847423 
L 1481.991979 419.847423 
z
" clip-path="url(#p52a29f7b3b)" style="fill: #f77189; fill-opacity: 0.2; stroke: #f77189; stroke-opacity: 0.2"/>
   </g>
   <g id="PolyCollection_2">
    <path d="M 512.205882 435.356471 
L 512.205882 435.356471 
L 586.804813 487.048319 
L 661.403743 487.048319 
L 661.403743 487.048319 
L 661.403743 487.048319 
L 586.804813 487.048319 
L 512.205882 435.356471 
z
" clip-path="url(#p52a29f7b3b)" style="fill: #f77732; fill-opacity: 0.2; stroke: #f77732; stroke-opacity: 0.2"/>
    <path d="M 885.200535 404.807646 
L 885.200535 404.807646 
L 959.799465 491.361548 
L 959.799465 491.361548 
L 959.799465 491.361548 
L 885.200535 404.807646 
z
" clip-path="url(#p52a29f7b3b)" style="fill: #f77732; fill-opacity: 0.2; stroke: #f77732; stroke-opacity: 0.2"/>
    <path d="M 1108.997326 542.315334 
L 1108.997326 542.315334 
L 1108.997326 542.315334 
L 1108.997326 542.315334 
z
" clip-path="url(#p52a29f7b3b)" style="fill: #f77732; fill-opacity: 0.2; stroke: #f77732; stroke-opacity: 0.2"/>
    <path d="M 1332.794118 684.520959 
L 1332.794118 684.520959 
L 1332.794118 684.520959 
L 1332.794118 684.520959 
z
" clip-path="url(#p52a29f7b3b)" style="fill: #f77732; fill-opacity: 0.2; stroke: #f77732; stroke-opacity: 0.2"/>
    <path d="M 1481.991979 684.520959 
L 1481.991979 684.520959 
L 1481.991979 684.520959 
L 1481.991979 684.520959 
z
" clip-path="url(#p52a29f7b3b)" style="fill: #f77732; fill-opacity: 0.2; stroke: #f77732; stroke-opacity: 0.2"/>
   </g>
   <g id="PolyCollection_3">
    <path d="M 512.205882 511.573195 
L 512.205882 511.573195 
L 586.804813 406.929131 
L 661.403743 345.034276 
L 661.403743 345.034276 
L 661.403743 345.034276 
L 586.804813 406.929131 
L 512.205882 511.573195 
z
" clip-path="url(#p52a29f7b3b)" style="fill: #ce9032; fill-opacity: 0.2; stroke: #ce9032; stroke-opacity: 0.2"/>
    <path d="M 885.200535 411.946953 
L 885.200535 411.946953 
L 959.799465 449.210271 
L 959.799465 449.210271 
L 959.799465 449.210271 
L 885.200535 411.946953 
z
" clip-path="url(#p52a29f7b3b)" style="fill: #ce9032; fill-opacity: 0.2; stroke: #ce9032; stroke-opacity: 0.2"/>
    <path d="M 1108.997326 490.551196 
L 1108.997326 490.551196 
L 1108.997326 490.551196 
L 1108.997326 490.551196 
z
" clip-path="url(#p52a29f7b3b)" style="fill: #ce9032; fill-opacity: 0.2; stroke: #ce9032; stroke-opacity: 0.2"/>
    <path d="M 1332.794118 443.861806 
L 1332.794118 443.861806 
L 1332.794118 443.861806 
L 1332.794118 443.861806 
z
" clip-path="url(#p52a29f7b3b)" style="fill: #ce9032; fill-opacity: 0.2; stroke: #ce9032; stroke-opacity: 0.2"/>
    <path d="M 1481.991979 325.012981 
L 1481.991979 325.012981 
L 1481.991979 325.012981 
L 1481.991979 325.012981 
z
" clip-path="url(#p52a29f7b3b)" style="fill: #ce9032; fill-opacity: 0.2; stroke: #ce9032; stroke-opacity: 0.2"/>
   </g>
   <g id="PolyCollection_4">
    <path d="M 512.205882 813.131114 
L 512.205882 813.131114 
L 586.804813 813.131114 
L 661.403743 813.131114 
L 661.403743 813.131114 
L 661.403743 813.131114 
L 586.804813 813.131114 
L 512.205882 813.131114 
z
" clip-path="url(#p52a29f7b3b)" style="fill: #b39b32; fill-opacity: 0.2; stroke: #b39b32; stroke-opacity: 0.2"/>
    <path d="M 885.200535 828.320665 
L 885.200535 828.320665 
L 959.799465 828.320665 
L 959.799465 828.320665 
L 959.799465 828.320665 
L 885.200535 828.320665 
z
" clip-path="url(#p52a29f7b3b)" style="fill: #b39b32; fill-opacity: 0.2; stroke: #b39b32; stroke-opacity: 0.2"/>
    <path d="M 1108.997326 777.366879 
L 1108.997326 777.366879 
L 1108.997326 777.366879 
L 1108.997326 777.366879 
z
" clip-path="url(#p52a29f7b3b)" style="fill: #b39b32; fill-opacity: 0.2; stroke: #b39b32; stroke-opacity: 0.2"/>
    <path d="M 1332.794118 923.4 
L 1332.794118 923.4 
L 1332.794118 923.4 
L 1332.794118 923.4 
z
" clip-path="url(#p52a29f7b3b)" style="fill: #b39b32; fill-opacity: 0.2; stroke: #b39b32; stroke-opacity: 0.2"/>
    <path d="M 1481.991979 899.112259 
L 1481.991979 899.112259 
L 1481.991979 899.112259 
L 1481.991979 899.112259 
z
" clip-path="url(#p52a29f7b3b)" style="fill: #b39b32; fill-opacity: 0.2; stroke: #b39b32; stroke-opacity: 0.2"/>
   </g>
   <g id="PolyCollection_5">
    <path d="M 512.205882 585.090866 
L 512.205882 585.090866 
L 586.804813 585.090866 
L 661.403743 550.421173 
L 661.403743 550.421173 
L 661.403743 550.421173 
L 586.804813 585.090866 
L 512.205882 585.090866 
z
" clip-path="url(#p52a29f7b3b)" style="fill: #97a431; fill-opacity: 0.2; stroke: #97a431; stroke-opacity: 0.2"/>
    <path d="M 885.200535 777.708414 
L 885.200535 777.708414 
L 959.799465 754.437448 
L 959.799465 754.437448 
L 959.799465 754.437448 
L 885.200535 777.708414 
z
" clip-path="url(#p52a29f7b3b)" style="fill: #97a431; fill-opacity: 0.2; stroke: #97a431; stroke-opacity: 0.2"/>
    <path d="M 1108.997326 754.437448 
L 1108.997326 754.437448 
L 1108.997326 754.437448 
L 1108.997326 754.437448 
z
" clip-path="url(#p52a29f7b3b)" style="fill: #97a431; fill-opacity: 0.2; stroke: #97a431; stroke-opacity: 0.2"/>
    <path d="M 1332.794118 749.027596 
L 1332.794118 749.027596 
L 1332.794118 749.027596 
L 1332.794118 749.027596 
z
" clip-path="url(#p52a29f7b3b)" style="fill: #97a431; fill-opacity: 0.2; stroke: #97a431; stroke-opacity: 0.2"/>
    <path d="M 1481.991979 823.435332 
L 1481.991979 823.435332 
L 1481.991979 823.435332 
L 1481.991979 823.435332 
z
" clip-path="url(#p52a29f7b3b)" style="fill: #97a431; fill-opacity: 0.2; stroke: #97a431; stroke-opacity: 0.2"/>
   </g>
   <g id="PolyCollection_6">
    <path d="M 512.205882 342.426217 
L 512.205882 342.426217 
L 586.804813 246.277816 
L 661.403743 299.041499 
L 661.403743 299.041499 
L 661.403743 299.041499 
L 586.804813 246.277816 
L 512.205882 342.426217 
z
" clip-path="url(#p52a29f7b3b)" style="fill: #6cad31; fill-opacity: 0.2; stroke: #6cad31; stroke-opacity: 0.2"/>
    <path d="M 885.200535 171.665655 
L 885.200535 171.665655 
L 959.799465 171.665655 
L 959.799465 171.665655 
L 959.799465 171.665655 
L 885.200535 171.665655 
z
" clip-path="url(#p52a29f7b3b)" style="fill: #6cad31; fill-opacity: 0.2; stroke: #6cad31; stroke-opacity: 0.2"/>
    <path d="M 1108.997326 171.665655 
L 1108.997326 171.665655 
L 1108.997326 171.665655 
L 1108.997326 171.665655 
z
" clip-path="url(#p52a29f7b3b)" style="fill: #6cad31; fill-opacity: 0.2; stroke: #6cad31; stroke-opacity: 0.2"/>
    <path d="M 1332.794118 221.94005 
L 1332.794118 221.94005 
L 1332.794118 221.94005 
L 1332.794118 221.94005 
z
" clip-path="url(#p52a29f7b3b)" style="fill: #6cad31; fill-opacity: 0.2; stroke: #6cad31; stroke-opacity: 0.2"/>
    <path d="M 1481.991979 183.104425 
L 1481.991979 183.104425 
L 1481.991979 183.104425 
L 1481.991979 183.104425 
z
" clip-path="url(#p52a29f7b3b)" style="fill: #6cad31; fill-opacity: 0.2; stroke: #6cad31; stroke-opacity: 0.2"/>
   </g>
   <g id="PolyCollection_7">
    <path d="M 512.205882 682.71739 
L 512.205882 682.71739 
L 586.804813 690.818213 
L 661.403743 633.488943 
L 661.403743 633.488943 
L 661.403743 633.488943 
L 586.804813 690.818213 
L 512.205882 682.71739 
z
" clip-path="url(#p52a29f7b3b)" style="fill: #32b166; fill-opacity: 0.2; stroke: #32b166; stroke-opacity: 0.2"/>
    <path d="M 885.200535 294.072658 
L 885.200535 294.072658 
L 959.799465 321.95999 
L 959.799465 321.95999 
L 959.799465 321.95999 
L 885.200535 294.072658 
z
" clip-path="url(#p52a29f7b3b)" style="fill: #32b166; fill-opacity: 0.2; stroke: #32b166; stroke-opacity: 0.2"/>
    <path d="M 1108.997326 295.388336 
L 1108.997326 295.388336 
L 1108.997326 295.388336 
L 1108.997326 295.388336 
z
" clip-path="url(#p52a29f7b3b)" style="fill: #32b166; fill-opacity: 0.2; stroke: #32b166; stroke-opacity: 0.2"/>
    <path d="M 1332.794118 262.260102 
L 1332.794118 262.260102 
L 1332.794118 262.260102 
L 1332.794118 262.260102 
z
" clip-path="url(#p52a29f7b3b)" style="fill: #32b166; fill-opacity: 0.2; stroke: #32b166; stroke-opacity: 0.2"/>
    <path d="M 1481.991979 201.740547 
L 1481.991979 201.740547 
L 1481.991979 201.740547 
L 1481.991979 201.740547 
z
" clip-path="url(#p52a29f7b3b)" style="fill: #32b166; fill-opacity: 0.2; stroke: #32b166; stroke-opacity: 0.2"/>
   </g>
   <g id="PolyCollection_8">
    <path d="M 512.205882 554.433211 
L 512.205882 554.433211 
L 586.804813 554.433211 
L 661.403743 554.433211 
L 661.403743 554.433211 
L 661.403743 554.433211 
L 586.804813 554.433211 
L 512.205882 554.433211 
z
" clip-path="url(#p52a29f7b3b)" style="fill: #34af8e; fill-opacity: 0.2; stroke: #34af8e; stroke-opacity: 0.2"/>
    <path d="M 885.200535 554.433211 
L 885.200535 554.433211 
L 959.799465 554.433211 
L 959.799465 554.433211 
L 959.799465 554.433211 
L 885.200535 554.433211 
z
" clip-path="url(#p52a29f7b3b)" style="fill: #34af8e; fill-opacity: 0.2; stroke: #34af8e; stroke-opacity: 0.2"/>
    <path d="M 1108.997326 554.433211 
L 1108.997326 554.433211 
L 1108.997326 554.433211 
L 1108.997326 554.433211 
z
" clip-path="url(#p52a29f7b3b)" style="fill: #34af8e; fill-opacity: 0.2; stroke: #34af8e; stroke-opacity: 0.2"/>
    <path d="M 1332.794118 554.433211 
L 1332.794118 554.433211 
L 1332.794118 554.433211 
L 1332.794118 554.433211 
z
" clip-path="url(#p52a29f7b3b)" style="fill: #34af8e; fill-opacity: 0.2; stroke: #34af8e; stroke-opacity: 0.2"/>
    <path d="M 1481.991979 554.433211 
L 1481.991979 554.433211 
L 1481.991979 554.433211 
L 1481.991979 554.433211 
z
" clip-path="url(#p52a29f7b3b)" style="fill: #34af8e; fill-opacity: 0.2; stroke: #34af8e; stroke-opacity: 0.2"/>
   </g>
   <g id="PolyCollection_9">
    <path d="M 512.205882 603.07712 
L 512.205882 603.07712 
L 586.804813 625.698867 
L 661.403743 630.264453 
L 661.403743 630.264453 
L 661.403743 630.264453 
L 586.804813 625.698867 
L 512.205882 603.07712 
z
" clip-path="url(#p52a29f7b3b)" style="fill: #36ada4; fill-opacity: 0.2; stroke: #36ada4; stroke-opacity: 0.2"/>
    <path d="M 885.200535 603.252723 
L 885.200535 603.252723 
L 959.799465 516.698821 
L 959.799465 516.698821 
L 959.799465 516.698821 
L 885.200535 603.252723 
z
" clip-path="url(#p52a29f7b3b)" style="fill: #36ada4; fill-opacity: 0.2; stroke: #36ada4; stroke-opacity: 0.2"/>
    <path d="M 1108.997326 516.698821 
L 1108.997326 516.698821 
L 1108.997326 516.698821 
L 1108.997326 516.698821 
z
" clip-path="url(#p52a29f7b3b)" style="fill: #36ada4; fill-opacity: 0.2; stroke: #36ada4; stroke-opacity: 0.2"/>
    <path d="M 1332.794118 516.698821 
L 1332.794118 516.698821 
L 1332.794118 516.698821 
L 1332.794118 516.698821 
z
" clip-path="url(#p52a29f7b3b)" style="fill: #36ada4; fill-opacity: 0.2; stroke: #36ada4; stroke-opacity: 0.2"/>
    <path d="M 1481.991979 516.698821 
L 1481.991979 516.698821 
L 1481.991979 516.698821 
L 1481.991979 516.698821 
z
" clip-path="url(#p52a29f7b3b)" style="fill: #36ada4; fill-opacity: 0.2; stroke: #36ada4; stroke-opacity: 0.2"/>
   </g>
   <g id="PolyCollection_10">
    <path d="M 512.205882 546.61138 
L 512.205882 546.61138 
L 586.804813 546.61138 
L 661.403743 577.333949 
L 661.403743 577.333949 
L 661.403743 577.333949 
L 586.804813 546.61138 
L 512.205882 546.61138 
z
" clip-path="url(#p52a29f7b3b)" style="fill: #37abb8; fill-opacity: 0.2; stroke: #37abb8; stroke-opacity: 0.2"/>
    <path d="M 885.200535 740.21852 
L 885.200535 740.21852 
L 959.799465 712.331188 
L 959.799465 712.331188 
L 959.799465 712.331188 
L 885.200535 740.21852 
z
" clip-path="url(#p52a29f7b3b)" style="fill: #37abb8; fill-opacity: 0.2; stroke: #37abb8; stroke-opacity: 0.2"/>
    <path d="M 1108.997326 704.100793 
L 1108.997326 704.100793 
L 1108.997326 704.100793 
L 1108.997326 704.100793 
z
" clip-path="url(#p52a29f7b3b)" style="fill: #37abb8; fill-opacity: 0.2; stroke: #37abb8; stroke-opacity: 0.2"/>
    <path d="M 1332.794118 552.014455 
L 1332.794118 552.014455 
L 1332.794118 552.014455 
L 1332.794118 552.014455 
z
" clip-path="url(#p52a29f7b3b)" style="fill: #37abb8; fill-opacity: 0.2; stroke: #37abb8; stroke-opacity: 0.2"/>
    <path d="M 1481.991979 552.014455 
L 1481.991979 552.014455 
L 1481.991979 552.014455 
L 1481.991979 552.014455 
z
" clip-path="url(#p52a29f7b3b)" style="fill: #37abb8; fill-opacity: 0.2; stroke: #37abb8; stroke-opacity: 0.2"/>
   </g>
   <g id="PolyCollection_11">
    <path d="M 512.205882 533.734487 
L 512.205882 533.734487 
L 586.804813 533.734487 
L 661.403743 568.404181 
L 661.403743 568.404181 
L 661.403743 568.404181 
L 586.804813 533.734487 
L 512.205882 533.734487 
z
" clip-path="url(#p52a29f7b3b)" style="fill: #39a7d0; fill-opacity: 0.2; stroke: #39a7d0; stroke-opacity: 0.2"/>
    <path d="M 885.200535 590.002707 
L 885.200535 590.002707 
L 959.799465 563.98309 
L 959.799465 563.98309 
L 959.799465 563.98309 
L 885.200535 590.002707 
z
" clip-path="url(#p52a29f7b3b)" style="fill: #39a7d0; fill-opacity: 0.2; stroke: #39a7d0; stroke-opacity: 0.2"/>
    <path d="M 1108.997326 563.98309 
L 1108.997326 563.98309 
L 1108.997326 563.98309 
L 1108.997326 563.98309 
z
" clip-path="url(#p52a29f7b3b)" style="fill: #39a7d0; fill-opacity: 0.2; stroke: #39a7d0; stroke-opacity: 0.2"/>
    <path d="M 1332.794118 563.98309 
L 1332.794118 563.98309 
L 1332.794118 563.98309 
L 1332.794118 563.98309 
z
" clip-path="url(#p52a29f7b3b)" style="fill: #39a7d0; fill-opacity: 0.2; stroke: #39a7d0; stroke-opacity: 0.2"/>
    <path d="M 1481.991979 563.98309 
L 1481.991979 563.98309 
L 1481.991979 563.98309 
L 1481.991979 563.98309 
z
" clip-path="url(#p52a29f7b3b)" style="fill: #39a7d0; fill-opacity: 0.2; stroke: #39a7d0; stroke-opacity: 0.2"/>
   </g>
   <g id="PolyCollection_12">
    <path d="M 512.205882 533.734487 
L 512.205882 533.734487 
L 586.804813 533.734487 
L 661.403743 591.063757 
L 661.403743 591.063757 
L 661.403743 591.063757 
L 586.804813 533.734487 
L 512.205882 533.734487 
z
" clip-path="url(#p52a29f7b3b)" style="fill: #5a9ef4; fill-opacity: 0.2; stroke: #5a9ef4; stroke-opacity: 0.2"/>
    <path d="M 885.200535 591.063757 
L 885.200535 591.063757 
L 959.799465 591.063757 
L 959.799465 591.063757 
L 959.799465 591.063757 
L 885.200535 591.063757 
z
" clip-path="url(#p52a29f7b3b)" style="fill: #5a9ef4; fill-opacity: 0.2; stroke: #5a9ef4; stroke-opacity: 0.2"/>
    <path d="M 1108.997326 591.063757 
L 1108.997326 591.063757 
L 1108.997326 591.063757 
L 1108.997326 591.063757 
z
" clip-path="url(#p52a29f7b3b)" style="fill: #5a9ef4; fill-opacity: 0.2; stroke: #5a9ef4; stroke-opacity: 0.2"/>
    <path d="M 1332.794118 703.900115 
L 1332.794118 703.900115 
L 1332.794118 703.900115 
L 1332.794118 703.900115 
z
" clip-path="url(#p52a29f7b3b)" style="fill: #5a9ef4; fill-opacity: 0.2; stroke: #5a9ef4; stroke-opacity: 0.2"/>
    <path d="M 1481.991979 703.900115 
L 1481.991979 703.900115 
L 1481.991979 703.900115 
L 1481.991979 703.900115 
z
" clip-path="url(#p52a29f7b3b)" style="fill: #5a9ef4; fill-opacity: 0.2; stroke: #5a9ef4; stroke-opacity: 0.2"/>
   </g>
   <g id="PolyCollection_13">
    <path d="M 512.205882 533.734487 
L 512.205882 533.734487 
L 586.804813 533.734487 
L 661.403743 533.734487 
L 661.403743 533.734487 
L 661.403743 533.734487 
L 586.804813 533.734487 
L 512.205882 533.734487 
z
" clip-path="url(#p52a29f7b3b)" style="fill: #a48cf4; fill-opacity: 0.2; stroke: #a48cf4; stroke-opacity: 0.2"/>
    <path d="M 885.200535 533.734487 
L 885.200535 533.734487 
L 959.799465 533.734487 
L 959.799465 533.734487 
L 959.799465 533.734487 
L 885.200535 533.734487 
z
" clip-path="url(#p52a29f7b3b)" style="fill: #a48cf4; fill-opacity: 0.2; stroke: #a48cf4; stroke-opacity: 0.2"/>
    <path d="M 1108.997326 568.536536 
L 1108.997326 568.536536 
L 1108.997326 568.536536 
L 1108.997326 568.536536 
z
" clip-path="url(#p52a29f7b3b)" style="fill: #a48cf4; fill-opacity: 0.2; stroke: #a48cf4; stroke-opacity: 0.2"/>
    <path d="M 1332.794118 506.617008 
L 1332.794118 506.617008 
L 1332.794118 506.617008 
L 1332.794118 506.617008 
z
" clip-path="url(#p52a29f7b3b)" style="fill: #a48cf4; fill-opacity: 0.2; stroke: #a48cf4; stroke-opacity: 0.2"/>
    <path d="M 1481.991979 506.617008 
L 1481.991979 506.617008 
L 1481.991979 506.617008 
L 1481.991979 506.617008 
z
" clip-path="url(#p52a29f7b3b)" style="fill: #a48cf4; fill-opacity: 0.2; stroke: #a48cf4; stroke-opacity: 0.2"/>
   </g>
   <g id="PolyCollection_14">
    <path d="M 512.205882 533.734487 
L 512.205882 533.734487 
L 586.804813 533.734487 
L 661.403743 533.734487 
L 661.403743 533.734487 
L 661.403743 533.734487 
L 586.804813 533.734487 
L 512.205882 533.734487 
z
" clip-path="url(#p52a29f7b3b)" style="fill: #d673f4; fill-opacity: 0.2; stroke: #d673f4; stroke-opacity: 0.2"/>
    <path d="M 885.200535 533.734487 
L 885.200535 533.734487 
L 959.799465 533.734487 
L 959.799465 533.734487 
L 959.799465 533.734487 
L 885.200535 533.734487 
z
" clip-path="url(#p52a29f7b3b)" style="fill: #d673f4; fill-opacity: 0.2; stroke: #d673f4; stroke-opacity: 0.2"/>
    <path d="M 1108.997326 498.932438 
L 1108.997326 498.932438 
L 1108.997326 498.932438 
L 1108.997326 498.932438 
z
" clip-path="url(#p52a29f7b3b)" style="fill: #d673f4; fill-opacity: 0.2; stroke: #d673f4; stroke-opacity: 0.2"/>
    <path d="M 1332.794118 578.352594 
L 1332.794118 578.352594 
L 1332.794118 578.352594 
L 1332.794118 578.352594 
z
" clip-path="url(#p52a29f7b3b)" style="fill: #d673f4; fill-opacity: 0.2; stroke: #d673f4; stroke-opacity: 0.2"/>
    <path d="M 1481.991979 578.352594 
L 1481.991979 578.352594 
L 1481.991979 578.352594 
L 1481.991979 578.352594 
z
" clip-path="url(#p52a29f7b3b)" style="fill: #d673f4; fill-opacity: 0.2; stroke: #d673f4; stroke-opacity: 0.2"/>
   </g>
   <g id="PolyCollection_15">
    <path d="M 512.205882 533.734487 
L 512.205882 533.734487 
L 586.804813 533.734487 
L 661.403743 533.734487 
L 661.403743 533.734487 
L 661.403743 533.734487 
L 586.804813 533.734487 
L 512.205882 533.734487 
z
" clip-path="url(#p52a29f7b3b)" style="fill: #f561dd; fill-opacity: 0.2; stroke: #f561dd; stroke-opacity: 0.2"/>
    <path d="M 885.200535 533.734487 
L 885.200535 533.734487 
L 959.799465 533.734487 
L 959.799465 533.734487 
L 959.799465 533.734487 
L 885.200535 533.734487 
z
" clip-path="url(#p52a29f7b3b)" style="fill: #f561dd; fill-opacity: 0.2; stroke: #f561dd; stroke-opacity: 0.2"/>
    <path d="M 1108.997326 533.734487 
L 1108.997326 533.734487 
L 1108.997326 533.734487 
L 1108.997326 533.734487 
z
" clip-path="url(#p52a29f7b3b)" style="fill: #f561dd; fill-opacity: 0.2; stroke: #f561dd; stroke-opacity: 0.2"/>
    <path d="M 1332.794118 348.446659 
L 1332.794118 348.446659 
L 1332.794118 348.446659 
L 1332.794118 348.446659 
z
" clip-path="url(#p52a29f7b3b)" style="fill: #f561dd; fill-opacity: 0.2; stroke: #f561dd; stroke-opacity: 0.2"/>
    <path d="M 1481.991979 408.966214 
L 1481.991979 408.966214 
L 1481.991979 408.966214 
L 1481.991979 408.966214 
z
" clip-path="url(#p52a29f7b3b)" style="fill: #f561dd; fill-opacity: 0.2; stroke: #f561dd; stroke-opacity: 0.2"/>
   </g>
   <g id="PolyCollection_16">
    <path d="M 512.205882 533.734487 
L 512.205882 533.734487 
L 586.804813 533.734487 
L 661.403743 533.734487 
L 661.403743 533.734487 
L 661.403743 533.734487 
L 586.804813 533.734487 
L 512.205882 533.734487 
z
" clip-path="url(#p52a29f7b3b)" style="fill: #f66ab5; fill-opacity: 0.2; stroke: #f66ab5; stroke-opacity: 0.2"/>
    <path d="M 885.200535 533.734487 
L 885.200535 533.734487 
L 959.799465 533.734487 
L 959.799465 533.734487 
L 959.799465 533.734487 
L 885.200535 533.734487 
z
" clip-path="url(#p52a29f7b3b)" style="fill: #f66ab5; fill-opacity: 0.2; stroke: #f66ab5; stroke-opacity: 0.2"/>
    <path d="M 1108.997326 533.734487 
L 1108.997326 533.734487 
L 1108.997326 533.734487 
L 1108.997326 533.734487 
z
" clip-path="url(#p52a29f7b3b)" style="fill: #f66ab5; fill-opacity: 0.2; stroke: #f66ab5; stroke-opacity: 0.2"/>
    <path d="M 1332.794118 533.734487 
L 1332.794118 533.734487 
L 1332.794118 533.734487 
L 1332.794118 533.734487 
z
" clip-path="url(#p52a29f7b3b)" style="fill: #f66ab5; fill-opacity: 0.2; stroke: #f66ab5; stroke-opacity: 0.2"/>
    <path d="M 1481.991979 618.012365 
L 1481.991979 618.012365 
L 1481.991979 618.012365 
L 1481.991979 618.012365 
z
" clip-path="url(#p52a29f7b3b)" style="fill: #f66ab5; fill-opacity: 0.2; stroke: #f66ab5; stroke-opacity: 0.2"/>
   </g>
   <g id="matplotlib.axis_1">
    <g id="xtick_1">
     <g id="line2d_1">
      <defs>
       <path id="mbc84eaa9f8" d="M 0 0 
L 0 3.5 
" style="stroke: #000000; stroke-width: 0.8"/>
      </defs>
      <g>
       <use xlink:href="#mbc84eaa9f8" x="288.409091" y="961.2" style="stroke: #000000; stroke-width: 0.8"/>
      </g>
     </g>
     <g id="text_1">
      <!-- 2025-06-09 -->
      <g transform="translate(259.351278 975.798437)scale(0.1 -0.1)">
       <defs>
        <path id="DejaVuSans-32" d="M 1228 531 
L 3431 531 
L 3431 0 
L 469 0 
L 469 531 
Q 828 903 1448 1529 
Q 2069 2156 2228 2338 
Q 2531 2678 2651 2914 
Q 2772 3150 2772 3378 
Q 2772 3750 2511 3984 
Q 2250 4219 1831 4219 
Q 1534 4219 1204 4116 
Q 875 4013 500 3803 
L 500 4441 
Q 881 4594 1212 4672 
Q 1544 4750 1819 4750 
Q 2544 4750 2975 4387 
Q 3406 4025 3406 3419 
Q 3406 3131 3298 2873 
Q 3191 2616 2906 2266 
Q 2828 2175 2409 1742 
Q 1991 1309 1228 531 
z
" transform="scale(0.015625)"/>
        <path id="DejaVuSans-30" d="M 2034 4250 
Q 1547 4250 1301 3770 
Q 1056 3291 1056 2328 
Q 1056 1369 1301 889 
Q 1547 409 2034 409 
Q 2525 409 2770 889 
Q 3016 1369 3016 2328 
Q 3016 3291 2770 3770 
Q 2525 4250 2034 4250 
z
M 2034 4750 
Q 2819 4750 3233 4129 
Q 3647 3509 3647 2328 
Q 3647 1150 3233 529 
Q 2819 -91 2034 -91 
Q 1250 -91 836 529 
Q 422 1150 422 2328 
Q 422 3509 836 4129 
Q 1250 4750 2034 4750 
z
" transform="scale(0.015625)"/>
        <path id="DejaVuSans-35" d="M 691 4666 
L 3169 4666 
L 3169 4134 
L 1269 4134 
L 1269 2991 
Q 1406 3038 1543 3061 
Q 1681 3084 1819 3084 
Q 2600 3084 3056 2656 
Q 3513 2228 3513 1497 
Q 3513 744 3044 326 
Q 2575 -91 1722 -91 
Q 1428 -91 1123 -41 
Q 819 9 494 109 
L 494 744 
Q 775 591 1075 516 
Q 1375 441 1709 441 
Q 2250 441 2565 725 
Q 2881 1009 2881 1497 
Q 2881 1984 2565 2268 
Q 2250 2553 1709 2553 
Q 1456 2553 1204 2497 
Q 953 2441 691 2322 
L 691 4666 
z
" transform="scale(0.015625)"/>
        <path id="DejaVuSans-2d" d="M 313 2009 
L 1997 2009 
L 1997 1497 
L 313 1497 
L 313 2009 
z
" transform="scale(0.015625)"/>
        <path id="DejaVuSans-36" d="M 2113 2584 
Q 1688 2584 1439 2293 
Q 1191 2003 1191 1497 
Q 1191 994 1439 701 
Q 1688 409 2113 409 
Q 2538 409 2786 701 
Q 3034 994 3034 1497 
Q 3034 2003 2786 2293 
Q 2538 2584 2113 2584 
z
M 3366 4563 
L 3366 3988 
Q 3128 4100 2886 4159 
Q 2644 4219 2406 4219 
Q 1781 4219 1451 3797 
Q 1122 3375 1075 2522 
Q 1259 2794 1537 2939 
Q 1816 3084 2150 3084 
Q 2853 3084 3261 2657 
Q 3669 2231 3669 1497 
Q 3669 778 3244 343 
Q 2819 -91 2113 -91 
Q 1303 -91 875 529 
Q 447 1150 447 2328 
Q 447 3434 972 4092 
Q 1497 4750 2381 4750 
Q 2619 4750 2861 4703 
Q 3103 4656 3366 4563 
z
" transform="scale(0.015625)"/>
        <path id="DejaVuSans-39" d="M 703 97 
L 703 672 
Q 941 559 1184 500 
Q 1428 441 1663 441 
Q 2288 441 2617 861 
Q 2947 1281 2994 2138 
Q 2813 1869 2534 1725 
Q 2256 1581 1919 1581 
Q 1219 1581 811 2004 
Q 403 2428 403 3163 
Q 403 3881 828 4315 
Q 1253 4750 1959 4750 
Q 2769 4750 3195 4129 
Q 3622 3509 3622 2328 
Q 3622 1225 3098 567 
Q 2575 -91 1691 -91 
Q 1453 -91 1209 -44 
Q 966 3 703 97 
z
M 1959 2075 
Q 2384 2075 2632 2365 
Q 2881 2656 2881 3163 
Q 2881 3666 2632 3958 
Q 2384 4250 1959 4250 
Q 1534 4250 1286 3958 
Q 1038 3666 1038 3163 
Q 1038 2656 1286 2365 
Q 1534 2075 1959 2075 
z
" transform="scale(0.015625)"/>
       </defs>
       <use xlink:href="#DejaVuSans-32"/>
       <use xlink:href="#DejaVuSans-30" x="63.623047"/>
       <use xlink:href="#DejaVuSans-32" x="127.246094"/>
       <use xlink:href="#DejaVuSans-35" x="190.869141"/>
       <use xlink:href="#DejaVuSans-2d" x="254.492188"/>
       <use xlink:href="#DejaVuSans-30" x="290.576172"/>
       <use xlink:href="#DejaVuSans-36" x="354.199219"/>
       <use xlink:href="#DejaVuSans-2d" x="417.822266"/>
       <use xlink:href="#DejaVuSans-30" x="453.90625"/>
       <use xlink:href="#DejaVuSans-39" x="517.529297"/>
      </g>
     </g>
    </g>
    <g id="xtick_2">
     <g id="line2d_2">
      <g>
       <use xlink:href="#mbc84eaa9f8" x="363.008021" y="961.2" style="stroke: #000000; stroke-width: 0.8"/>
      </g>
     </g>
     <g id="text_2">
      <!-- 2025-06-10 -->
      <g transform="translate(333.950209 975.798437)scale(0.1 -0.1)">
       <defs>
        <path id="DejaVuSans-31" d="M 794 531 
L 1825 531 
L 1825 4091 
L 703 3866 
L 703 4441 
L 1819 4666 
L 2450 4666 
L 2450 531 
L 3481 531 
L 3481 0 
L 794 0 
L 794 531 
z
" transform="scale(0.015625)"/>
       </defs>
       <use xlink:href="#DejaVuSans-32"/>
       <use xlink:href="#DejaVuSans-30" x="63.623047"/>
       <use xlink:href="#DejaVuSans-32" x="127.246094"/>
       <use xlink:href="#DejaVuSans-35" x="190.869141"/>
       <use xlink:href="#DejaVuSans-2d" x="254.492188"/>
       <use xlink:href="#DejaVuSans-30" x="290.576172"/>
       <use xlink:href="#DejaVuSans-36" x="354.199219"/>
       <use xlink:href="#DejaVuSans-2d" x="417.822266"/>
       <use xlink:href="#DejaVuSans-31" x="453.90625"/>
       <use xlink:href="#DejaVuSans-30" x="517.529297"/>
      </g>
     </g>
    </g>
    <g id="xtick_3">
     <g id="line2d_3">
      <g>
       <use xlink:href="#mbc84eaa9f8" x="437.606952" y="961.2" style="stroke: #000000; stroke-width: 0.8"/>
      </g>
     </g>
     <g id="text_3">
      <!-- 2025-06-12 -->
      <g transform="translate(408.549139 975.798437)scale(0.1 -0.1)">
       <use xlink:href="#DejaVuSans-32"/>
       <use xlink:href="#DejaVuSans-30" x="63.623047"/>
       <use xlink:href="#DejaVuSans-32" x="127.246094"/>
       <use xlink:href="#DejaVuSans-35" x="190.869141"/>
       <use xlink:href="#DejaVuSans-2d" x="254.492188"/>
       <use xlink:href="#DejaVuSans-30" x="290.576172"/>
       <use xlink:href="#DejaVuSans-36" x="354.199219"/>
       <use xlink:href="#DejaVuSans-2d" x="417.822266"/>
       <use xlink:href="#DejaVuSans-31" x="453.90625"/>
       <use xlink:href="#DejaVuSans-32" x="517.529297"/>
      </g>
     </g>
    </g>
    <g id="xtick_4">
     <g id="line2d_4">
      <g>
       <use xlink:href="#mbc84eaa9f8" x="512.205882" y="961.2" style="stroke: #000000; stroke-width: 0.8"/>
      </g>
     </g>
     <g id="text_4">
      <!-- 2025-06-13 -->
      <g transform="translate(483.14807 975.798437)scale(0.1 -0.1)">
       <defs>
        <path id="DejaVuSans-33" d="M 2597 2516 
Q 3050 2419 3304 2112 
Q 3559 1806 3559 1356 
Q 3559 666 3084 287 
Q 2609 -91 1734 -91 
Q 1441 -91 1130 -33 
Q 819 25 488 141 
L 488 750 
Q 750 597 1062 519 
Q 1375 441 1716 441 
Q 2309 441 2620 675 
Q 2931 909 2931 1356 
Q 2931 1769 2642 2001 
Q 2353 2234 1838 2234 
L 1294 2234 
L 1294 2753 
L 1863 2753 
Q 2328 2753 2575 2939 
Q 2822 3125 2822 3475 
Q 2822 3834 2567 4026 
Q 2313 4219 1838 4219 
Q 1578 4219 1281 4162 
Q 984 4106 628 3988 
L 628 4550 
Q 988 4650 1302 4700 
Q 1616 4750 1894 4750 
Q 2613 4750 3031 4423 
Q 3450 4097 3450 3541 
Q 3450 3153 3228 2886 
Q 3006 2619 2597 2516 
z
" transform="scale(0.015625)"/>
       </defs>
       <use xlink:href="#DejaVuSans-32"/>
       <use xlink:href="#DejaVuSans-30" x="63.623047"/>
       <use xlink:href="#DejaVuSans-32" x="127.246094"/>
       <use xlink:href="#DejaVuSans-35" x="190.869141"/>
       <use xlink:href="#DejaVuSans-2d" x="254.492188"/>
       <use xlink:href="#DejaVuSans-30" x="290.576172"/>
       <use xlink:href="#DejaVuSans-36" x="354.199219"/>
       <use xlink:href="#DejaVuSans-2d" x="417.822266"/>
       <use xlink:href="#DejaVuSans-31" x="453.90625"/>
       <use xlink:href="#DejaVuSans-33" x="517.529297"/>
      </g>
     </g>
    </g>
    <g id="xtick_5">
     <g id="line2d_5">
      <g>
       <use xlink:href="#mbc84eaa9f8" x="586.804813" y="961.2" style="stroke: #000000; stroke-width: 0.8"/>
      </g>
     </g>
     <g id="text_5">
      <!-- 2025-06-16 -->
      <g transform="translate(557.747 975.798437)scale(0.1 -0.1)">
       <use xlink:href="#DejaVuSans-32"/>
       <use xlink:href="#DejaVuSans-30" x="63.623047"/>
       <use xlink:href="#DejaVuSans-32" x="127.246094"/>
       <use xlink:href="#DejaVuSans-35" x="190.869141"/>
       <use xlink:href="#DejaVuSans-2d" x="254.492188"/>
       <use xlink:href="#DejaVuSans-30" x="290.576172"/>
       <use xlink:href="#DejaVuSans-36" x="354.199219"/>
       <use xlink:href="#DejaVuSans-2d" x="417.822266"/>
       <use xlink:href="#DejaVuSans-31" x="453.90625"/>
       <use xlink:href="#DejaVuSans-36" x="517.529297"/>
      </g>
     </g>
    </g>
    <g id="xtick_6">
     <g id="line2d_6">
      <g>
       <use xlink:href="#mbc84eaa9f8" x="661.403743" y="961.2" style="stroke: #000000; stroke-width: 0.8"/>
      </g>
     </g>
     <g id="text_6">
      <!-- 2025-06-17 -->
      <g transform="translate(632.345931 975.798437)scale(0.1 -0.1)">
       <defs>
        <path id="DejaVuSans-37" d="M 525 4666 
L 3525 4666 
L 3525 4397 
L 1831 0 
L 1172 0 
L 2766 4134 
L 525 4134 
L 525 4666 
z
" transform="scale(0.015625)"/>
       </defs>
       <use xlink:href="#DejaVuSans-32"/>
       <use xlink:href="#DejaVuSans-30" x="63.623047"/>
       <use xlink:href="#DejaVuSans-32" x="127.246094"/>
       <use xlink:href="#DejaVuSans-35" x="190.869141"/>
       <use xlink:href="#DejaVuSans-2d" x="254.492188"/>
       <use xlink:href="#DejaVuSans-30" x="290.576172"/>
       <use xlink:href="#DejaVuSans-36" x="354.199219"/>
       <use xlink:href="#DejaVuSans-2d" x="417.822266"/>
       <use xlink:href="#DejaVuSans-31" x="453.90625"/>
       <use xlink:href="#DejaVuSans-37" x="517.529297"/>
      </g>
     </g>
    </g>
    <g id="xtick_7">
     <g id="line2d_7">
      <g>
       <use xlink:href="#mbc84eaa9f8" x="736.002674" y="961.2" style="stroke: #000000; stroke-width: 0.8"/>
      </g>
     </g>
     <g id="text_7">
      <!-- 2025-06-18 -->
      <g transform="translate(706.944861 975.798437)scale(0.1 -0.1)">
       <defs>
        <path id="DejaVuSans-38" d="M 2034 2216 
Q 1584 2216 1326 1975 
Q 1069 1734 1069 1313 
Q 1069 891 1326 650 
Q 1584 409 2034 409 
Q 2484 409 2743 651 
Q 3003 894 3003 1313 
Q 3003 1734 2745 1975 
Q 2488 2216 2034 2216 
z
M 1403 2484 
Q 997 2584 770 2862 
Q 544 3141 544 3541 
Q 544 4100 942 4425 
Q 1341 4750 2034 4750 
Q 2731 4750 3128 4425 
Q 3525 4100 3525 3541 
Q 3525 3141 3298 2862 
Q 3072 2584 2669 2484 
Q 3125 2378 3379 2068 
Q 3634 1759 3634 1313 
Q 3634 634 3220 271 
Q 2806 -91 2034 -91 
Q 1263 -91 848 271 
Q 434 634 434 1313 
Q 434 1759 690 2068 
Q 947 2378 1403 2484 
z
M 1172 3481 
Q 1172 3119 1398 2916 
Q 1625 2713 2034 2713 
Q 2441 2713 2670 2916 
Q 2900 3119 2900 3481 
Q 2900 3844 2670 4047 
Q 2441 4250 2034 4250 
Q 1625 4250 1398 4047 
Q 1172 3844 1172 3481 
z
" transform="scale(0.015625)"/>
       </defs>
       <use xlink:href="#DejaVuSans-32"/>
       <use xlink:href="#DejaVuSans-30" x="63.623047"/>
       <use xlink:href="#DejaVuSans-32" x="127.246094"/>
       <use xlink:href="#DejaVuSans-35" x="190.869141"/>
       <use xlink:href="#DejaVuSans-2d" x="254.492188"/>
       <use xlink:href="#DejaVuSans-30" x="290.576172"/>
       <use xlink:href="#DejaVuSans-36" x="354.199219"/>
       <use xlink:href="#DejaVuSans-2d" x="417.822266"/>
       <use xlink:href="#DejaVuSans-31" x="453.90625"/>
       <use xlink:href="#DejaVuSans-38" x="517.529297"/>
      </g>
     </g>
    </g>
    <g id="xtick_8">
     <g id="line2d_8">
      <g>
       <use xlink:href="#mbc84eaa9f8" x="810.601604" y="961.2" style="stroke: #000000; stroke-width: 0.8"/>
      </g>
     </g>
     <g id="text_8">
      <!-- 2025-06-19 -->
      <g transform="translate(781.543792 975.798437)scale(0.1 -0.1)">
       <use xlink:href="#DejaVuSans-32"/>
       <use xlink:href="#DejaVuSans-30" x="63.623047"/>
       <use xlink:href="#DejaVuSans-32" x="127.246094"/>
       <use xlink:href="#DejaVuSans-35" x="190.869141"/>
       <use xlink:href="#DejaVuSans-2d" x="254.492188"/>
       <use xlink:href="#DejaVuSans-30" x="290.576172"/>
       <use xlink:href="#DejaVuSans-36" x="354.199219"/>
       <use xlink:href="#DejaVuSans-2d" x="417.822266"/>
       <use xlink:href="#DejaVuSans-31" x="453.90625"/>
       <use xlink:href="#DejaVuSans-39" x="517.529297"/>
      </g>
     </g>
    </g>
    <g id="xtick_9">
     <g id="line2d_9">
      <g>
       <use xlink:href="#mbc84eaa9f8" x="885.200535" y="961.2" style="stroke: #000000; stroke-width: 0.8"/>
      </g>
     </g>
     <g id="text_9">
      <!-- 2025-06-20 -->
      <g transform="translate(856.142722 975.798437)scale(0.1 -0.1)">
       <use xlink:href="#DejaVuSans-32"/>
       <use xlink:href="#DejaVuSans-30" x="63.623047"/>
       <use xlink:href="#DejaVuSans-32" x="127.246094"/>
       <use xlink:href="#DejaVuSans-35" x="190.869141"/>
       <use xlink:href="#DejaVuSans-2d" x="254.492188"/>
       <use xlink:href="#DejaVuSans-30" x="290.576172"/>
       <use xlink:href="#DejaVuSans-36" x="354.199219"/>
       <use xlink:href="#DejaVuSans-2d" x="417.822266"/>
       <use xlink:href="#DejaVuSans-32" x="453.90625"/>
       <use xlink:href="#DejaVuSans-30" x="517.529297"/>
      </g>
     </g>
    </g>
    <g id="xtick_10">
     <g id="line2d_10">
      <g>
       <use xlink:href="#mbc84eaa9f8" x="959.799465" y="961.2" style="stroke: #000000; stroke-width: 0.8"/>
      </g>
     </g>
     <g id="text_10">
      <!-- 2025-06-23 -->
      <g transform="translate(930.741653 975.798437)scale(0.1 -0.1)">
       <use xlink:href="#DejaVuSans-32"/>
       <use xlink:href="#DejaVuSans-30" x="63.623047"/>
       <use xlink:href="#DejaVuSans-32" x="127.246094"/>
       <use xlink:href="#DejaVuSans-35" x="190.869141"/>
       <use xlink:href="#DejaVuSans-2d" x="254.492188"/>
       <use xlink:href="#DejaVuSans-30" x="290.576172"/>
       <use xlink:href="#DejaVuSans-36" x="354.199219"/>
       <use xlink:href="#DejaVuSans-2d" x="417.822266"/>
       <use xlink:href="#DejaVuSans-32" x="453.90625"/>
       <use xlink:href="#DejaVuSans-33" x="517.529297"/>
      </g>
     </g>
    </g>
    <g id="xtick_11">
     <g id="line2d_11">
      <g>
       <use xlink:href="#mbc84eaa9f8" x="1034.398396" y="961.2" style="stroke: #000000; stroke-width: 0.8"/>
      </g>
     </g>
     <g id="text_11">
      <!-- 2025-06-24 -->
      <g transform="translate(1005.340583 975.798437)scale(0.1 -0.1)">
       <defs>
        <path id="DejaVuSans-34" d="M 2419 4116 
L 825 1625 
L 2419 1625 
L 2419 4116 
z
M 2253 4666 
L 3047 4666 
L 3047 1625 
L 3713 1625 
L 3713 1100 
L 3047 1100 
L 3047 0 
L 2419 0 
L 2419 1100 
L 313 1100 
L 313 1709 
L 2253 4666 
z
" transform="scale(0.015625)"/>
       </defs>
       <use xlink:href="#DejaVuSans-32"/>
       <use xlink:href="#DejaVuSans-30" x="63.623047"/>
       <use xlink:href="#DejaVuSans-32" x="127.246094"/>
       <use xlink:href="#DejaVuSans-35" x="190.869141"/>
       <use xlink:href="#DejaVuSans-2d" x="254.492188"/>
       <use xlink:href="#DejaVuSans-30" x="290.576172"/>
       <use xlink:href="#DejaVuSans-36" x="354.199219"/>
       <use xlink:href="#DejaVuSans-2d" x="417.822266"/>
       <use xlink:href="#DejaVuSans-32" x="453.90625"/>
       <use xlink:href="#DejaVuSans-34" x="517.529297"/>
      </g>
     </g>
    </g>
    <g id="xtick_12">
     <g id="line2d_12">
      <g>
       <use xlink:href="#mbc84eaa9f8" x="1108.997326" y="961.2" style="stroke: #000000; stroke-width: 0.8"/>
      </g>
     </g>
     <g id="text_12">
      <!-- 2025-06-25 -->
      <g transform="translate(1079.939514 975.798437)scale(0.1 -0.1)">
       <use xlink:href="#DejaVuSans-32"/>
       <use xlink:href="#DejaVuSans-30" x="63.623047"/>
       <use xlink:href="#DejaVuSans-32" x="127.246094"/>
       <use xlink:href="#DejaVuSans-35" x="190.869141"/>
       <use xlink:href="#DejaVuSans-2d" x="254.492188"/>
       <use xlink:href="#DejaVuSans-30" x="290.576172"/>
       <use xlink:href="#DejaVuSans-36" x="354.199219"/>
       <use xlink:href="#DejaVuSans-2d" x="417.822266"/>
       <use xlink:href="#DejaVuSans-32" x="453.90625"/>
       <use xlink:href="#DejaVuSans-35" x="517.529297"/>
      </g>
     </g>
    </g>
    <g id="xtick_13">
     <g id="line2d_13">
      <g>
       <use xlink:href="#mbc84eaa9f8" x="1183.596257" y="961.2" style="stroke: #000000; stroke-width: 0.8"/>
      </g>
     </g>
     <g id="text_13">
      <!-- 2025-06-26 -->
      <g transform="translate(1154.538444 975.798437)scale(0.1 -0.1)">
       <use xlink:href="#DejaVuSans-32"/>
       <use xlink:href="#DejaVuSans-30" x="63.623047"/>
       <use xlink:href="#DejaVuSans-32" x="127.246094"/>
       <use xlink:href="#DejaVuSans-35" x="190.869141"/>
       <use xlink:href="#DejaVuSans-2d" x="254.492188"/>
       <use xlink:href="#DejaVuSans-30" x="290.576172"/>
       <use xlink:href="#DejaVuSans-36" x="354.199219"/>
       <use xlink:href="#DejaVuSans-2d" x="417.822266"/>
       <use xlink:href="#DejaVuSans-32" x="453.90625"/>
       <use xlink:href="#DejaVuSans-36" x="517.529297"/>
      </g>
     </g>
    </g>
    <g id="xtick_14">
     <g id="line2d_14">
      <g>
       <use xlink:href="#mbc84eaa9f8" x="1258.195187" y="961.2" style="stroke: #000000; stroke-width: 0.8"/>
      </g>
     </g>
     <g id="text_14">
      <!-- 2025-06-27 -->
      <g transform="translate(1229.137375 975.798437)scale(0.1 -0.1)">
       <use xlink:href="#DejaVuSans-32"/>
       <use xlink:href="#DejaVuSans-30" x="63.623047"/>
       <use xlink:href="#DejaVuSans-32" x="127.246094"/>
       <use xlink:href="#DejaVuSans-35" x="190.869141"/>
       <use xlink:href="#DejaVuSans-2d" x="254.492188"/>
       <use xlink:href="#DejaVuSans-30" x="290.576172"/>
       <use xlink:href="#DejaVuSans-36" x="354.199219"/>
       <use xlink:href="#DejaVuSans-2d" x="417.822266"/>
       <use xlink:href="#DejaVuSans-32" x="453.90625"/>
       <use xlink:href="#DejaVuSans-37" x="517.529297"/>
      </g>
     </g>
    </g>
    <g id="xtick_15">
     <g id="line2d_15">
      <g>
       <use xlink:href="#mbc84eaa9f8" x="1332.794118" y="961.2" style="stroke: #000000; stroke-width: 0.8"/>
      </g>
     </g>
     <g id="text_15">
      <!-- 2025-07-01 -->
      <g transform="translate(1303.736305 975.798437)scale(0.1 -0.1)">
       <use xlink:href="#DejaVuSans-32"/>
       <use xlink:href="#DejaVuSans-30" x="63.623047"/>
       <use xlink:href="#DejaVuSans-32" x="127.246094"/>
       <use xlink:href="#DejaVuSans-35" x="190.869141"/>
       <use xlink:href="#DejaVuSans-2d" x="254.492188"/>
       <use xlink:href="#DejaVuSans-30" x="290.576172"/>
       <use xlink:href="#DejaVuSans-37" x="354.199219"/>
       <use xlink:href="#DejaVuSans-2d" x="417.822266"/>
       <use xlink:href="#DejaVuSans-30" x="453.90625"/>
       <use xlink:href="#DejaVuSans-31" x="517.529297"/>
      </g>
     </g>
    </g>
    <g id="xtick_16">
     <g id="line2d_16">
      <g>
       <use xlink:href="#mbc84eaa9f8" x="1407.393048" y="961.2" style="stroke: #000000; stroke-width: 0.8"/>
      </g>
     </g>
     <g id="text_16">
      <!-- 2025-07-02 -->
      <g transform="translate(1378.335236 975.798437)scale(0.1 -0.1)">
       <use xlink:href="#DejaVuSans-32"/>
       <use xlink:href="#DejaVuSans-30" x="63.623047"/>
       <use xlink:href="#DejaVuSans-32" x="127.246094"/>
       <use xlink:href="#DejaVuSans-35" x="190.869141"/>
       <use xlink:href="#DejaVuSans-2d" x="254.492188"/>
       <use xlink:href="#DejaVuSans-30" x="290.576172"/>
       <use xlink:href="#DejaVuSans-37" x="354.199219"/>
       <use xlink:href="#DejaVuSans-2d" x="417.822266"/>
       <use xlink:href="#DejaVuSans-30" x="453.90625"/>
       <use xlink:href="#DejaVuSans-32" x="517.529297"/>
      </g>
     </g>
    </g>
    <g id="xtick_17">
     <g id="line2d_17">
      <g>
       <use xlink:href="#mbc84eaa9f8" x="1481.991979" y="961.2" style="stroke: #000000; stroke-width: 0.8"/>
      </g>
     </g>
     <g id="text_17">
      <!-- 2025-07-03 -->
      <g transform="translate(1452.934166 975.798437)scale(0.1 -0.1)">
       <use xlink:href="#DejaVuSans-32"/>
       <use xlink:href="#DejaVuSans-30" x="63.623047"/>
       <use xlink:href="#DejaVuSans-32" x="127.246094"/>
       <use xlink:href="#DejaVuSans-35" x="190.869141"/>
       <use xlink:href="#DejaVuSans-2d" x="254.492188"/>
       <use xlink:href="#DejaVuSans-30" x="290.576172"/>
       <use xlink:href="#DejaVuSans-37" x="354.199219"/>
       <use xlink:href="#DejaVuSans-2d" x="417.822266"/>
       <use xlink:href="#DejaVuSans-30" x="453.90625"/>
       <use xlink:href="#DejaVuSans-33" x="517.529297"/>
      </g>
     </g>
    </g>
    <g id="xtick_18">
     <g id="line2d_18">
      <g>
       <use xlink:href="#mbc84eaa9f8" x="1556.590909" y="961.2" style="stroke: #000000; stroke-width: 0.8"/>
      </g>
     </g>
     <g id="text_18">
      <!-- 2025-07-04 -->
      <g transform="translate(1527.533097 975.798437)scale(0.1 -0.1)">
       <use xlink:href="#DejaVuSans-32"/>
       <use xlink:href="#DejaVuSans-30" x="63.623047"/>
       <use xlink:href="#DejaVuSans-32" x="127.246094"/>
       <use xlink:href="#DejaVuSans-35" x="190.869141"/>
       <use xlink:href="#DejaVuSans-2d" x="254.492188"/>
       <use xlink:href="#DejaVuSans-30" x="290.576172"/>
       <use xlink:href="#DejaVuSans-37" x="354.199219"/>
       <use xlink:href="#DejaVuSans-2d" x="417.822266"/>
       <use xlink:href="#DejaVuSans-30" x="453.90625"/>
       <use xlink:href="#DejaVuSans-34" x="517.529297"/>
      </g>
     </g>
    </g>
    <g id="text_19">
     <!-- date -->
     <g transform="translate(911.225 989.476562)scale(0.1 -0.1)">
      <defs>
       <path id="DejaVuSans-64" d="M 2906 2969 
L 2906 4863 
L 3481 4863 
L 3481 0 
L 2906 0 
L 2906 525 
Q 2725 213 2448 61 
Q 2172 -91 1784 -91 
Q 1150 -91 751 415 
Q 353 922 353 1747 
Q 353 2572 751 3078 
Q 1150 3584 1784 3584 
Q 2172 3584 2448 3432 
Q 2725 3281 2906 2969 
z
M 947 1747 
Q 947 1113 1208 752 
Q 1469 391 1925 391 
Q 2381 391 2643 752 
Q 2906 1113 2906 1747 
Q 2906 2381 2643 2742 
Q 2381 3103 1925 3103 
Q 1469 3103 1208 2742 
Q 947 2381 947 1747 
z
" transform="scale(0.015625)"/>
       <path id="DejaVuSans-61" d="M 2194 1759 
Q 1497 1759 1228 1600 
Q 959 1441 959 1056 
Q 959 750 1161 570 
Q 1363 391 1709 391 
Q 2188 391 2477 730 
Q 2766 1069 2766 1631 
L 2766 1759 
L 2194 1759 
z
M 3341 1997 
L 3341 0 
L 2766 0 
L 2766 531 
Q 2569 213 2275 61 
Q 1981 -91 1556 -91 
Q 1019 -91 701 211 
Q 384 513 384 1019 
Q 384 1609 779 1909 
Q 1175 2209 1959 2209 
L 2766 2209 
L 2766 2266 
Q 2766 2663 2505 2880 
Q 2244 3097 1772 3097 
Q 1472 3097 1187 3025 
Q 903 2953 641 2809 
L 641 3341 
Q 956 3463 1253 3523 
Q 1550 3584 1831 3584 
Q 2591 3584 2966 3190 
Q 3341 2797 3341 1997 
z
" transform="scale(0.015625)"/>
       <path id="DejaVuSans-74" d="M 1172 4494 
L 1172 3500 
L 2356 3500 
L 2356 3053 
L 1172 3053 
L 1172 1153 
Q 1172 725 1289 603 
Q 1406 481 1766 481 
L 2356 481 
L 2356 0 
L 1766 0 
Q 1100 0 847 248 
Q 594 497 594 1153 
L 594 3053 
L 172 3053 
L 172 3500 
L 594 3500 
L 594 4494 
L 1172 4494 
z
" transform="scale(0.015625)"/>
       <path id="DejaVuSans-65" d="M 3597 1894 
L 3597 1613 
L 953 1613 
Q 991 1019 1311 708 
Q 1631 397 2203 397 
Q 2534 397 2845 478 
Q 3156 559 3463 722 
L 3463 178 
Q 3153 47 2828 -22 
Q 2503 -91 2169 -91 
Q 1331 -91 842 396 
Q 353 884 353 1716 
Q 353 2575 817 3079 
Q 1281 3584 2069 3584 
Q 2775 3584 3186 3129 
Q 3597 2675 3597 1894 
z
M 3022 2063 
Q 3016 2534 2758 2815 
Q 2500 3097 2075 3097 
Q 1594 3097 1305 2825 
Q 1016 2553 972 2059 
L 3022 2063 
z
" transform="scale(0.015625)"/>
      </defs>
      <use xlink:href="#DejaVuSans-64"/>
      <use xlink:href="#DejaVuSans-61" x="63.476562"/>
      <use xlink:href="#DejaVuSans-74" x="124.755859"/>
      <use xlink:href="#DejaVuSans-65" x="163.964844"/>
     </g>
    </g>
   </g>
   <g id="matplotlib.axis_2">
    <g id="ytick_1">
     <g id="line2d_19">
      <defs>
       <path id="m44bb8ef121" d="M 0 0 
L -3.5 0 
" style="stroke: #000000; stroke-width: 0.8"/>
      </defs>
      <g>
       <use xlink:href="#m44bb8ef121" x="225" y="900.329022" style="stroke: #000000; stroke-width: 0.8"/>
      </g>
     </g>
     <g id="text_20">
      <!-- 800 -->
      <g transform="translate(198.9125 904.128241)scale(0.1 -0.1)">
       <use xlink:href="#DejaVuSans-38"/>
       <use xlink:href="#DejaVuSans-30" x="63.623047"/>
       <use xlink:href="#DejaVuSans-30" x="127.246094"/>
      </g>
     </g>
    </g>
    <g id="ytick_2">
     <g id="line2d_20">
      <g>
       <use xlink:href="#m44bb8ef121" x="225" y="717.031755" style="stroke: #000000; stroke-width: 0.8"/>
      </g>
     </g>
     <g id="text_21">
      <!-- 900 -->
      <g transform="translate(198.9125 720.830973)scale(0.1 -0.1)">
       <use xlink:href="#DejaVuSans-39"/>
       <use xlink:href="#DejaVuSans-30" x="63.623047"/>
       <use xlink:href="#DejaVuSans-30" x="127.246094"/>
      </g>
     </g>
    </g>
    <g id="ytick_3">
     <g id="line2d_21">
      <g>
       <use xlink:href="#m44bb8ef121" x="225" y="533.734487" style="stroke: #000000; stroke-width: 0.8"/>
      </g>
     </g>
     <g id="text_22">
      <!-- 1000 -->
      <g transform="translate(192.55 537.533706)scale(0.1 -0.1)">
       <use xlink:href="#DejaVuSans-31"/>
       <use xlink:href="#DejaVuSans-30" x="63.623047"/>
       <use xlink:href="#DejaVuSans-30" x="127.246094"/>
       <use xlink:href="#DejaVuSans-30" x="190.869141"/>
      </g>
     </g>
    </g>
    <g id="ytick_4">
     <g id="line2d_22">
      <g>
       <use xlink:href="#m44bb8ef121" x="225" y="350.43722" style="stroke: #000000; stroke-width: 0.8"/>
      </g>
     </g>
     <g id="text_23">
      <!-- 1100 -->
      <g transform="translate(192.55 354.236439)scale(0.1 -0.1)">
       <use xlink:href="#DejaVuSans-31"/>
       <use xlink:href="#DejaVuSans-31" x="63.623047"/>
       <use xlink:href="#DejaVuSans-30" x="127.246094"/>
       <use xlink:href="#DejaVuSans-30" x="190.869141"/>
      </g>
     </g>
    </g>
    <g id="ytick_5">
     <g id="line2d_23">
      <g>
       <use xlink:href="#m44bb8ef121" x="225" y="167.139953" style="stroke: #000000; stroke-width: 0.8"/>
      </g>
     </g>
     <g id="text_24">
      <!-- 1200 -->
      <g transform="translate(192.55 170.939172)scale(0.1 -0.1)">
       <use xlink:href="#DejaVuSans-31"/>
       <use xlink:href="#DejaVuSans-32" x="63.623047"/>
       <use xlink:href="#DejaVuSans-30" x="127.246094"/>
       <use xlink:href="#DejaVuSans-30" x="190.869141"/>
      </g>
     </g>
    </g>
    <g id="text_25">
     <!-- elo -->
     <g transform="translate(186.470313 552.925)rotate(-90)scale(0.1 -0.1)">
      <defs>
       <path id="DejaVuSans-6c" d="M 603 4863 
L 1178 4863 
L 1178 0 
L 603 0 
L 603 4863 
z
" transform="scale(0.015625)"/>
       <path id="DejaVuSans-6f" d="M 1959 3097 
Q 1497 3097 1228 2736 
Q 959 2375 959 1747 
Q 959 1119 1226 758 
Q 1494 397 1959 397 
Q 2419 397 2687 759 
Q 2956 1122 2956 1747 
Q 2956 2369 2687 2733 
Q 2419 3097 1959 3097 
z
M 1959 3584 
Q 2709 3584 3137 3096 
Q 3566 2609 3566 1747 
Q 3566 888 3137 398 
Q 2709 -91 1959 -91 
Q 1206 -91 779 398 
Q 353 888 353 1747 
Q 353 2609 779 3096 
Q 1206 3584 1959 3584 
z
" transform="scale(0.015625)"/>
      </defs>
      <use xlink:href="#DejaVuSans-65"/>
      <use xlink:href="#DejaVuSans-6c" x="61.523438"/>
      <use xlink:href="#DejaVuSans-6f" x="89.306641"/>
     </g>
    </g>
   </g>
   <g id="line2d_24">
    <path d="M 288.409091 533.734487 
L 363.008021 491.115291 
L 437.606952 391.833107 
L 512.205882 381.305958 
L 586.804813 381.305958 
L 661.403743 355.148975 
L 736.002674 390.015378 
L 810.601604 464.505728 
L 885.200535 433.585511 
L 959.799465 449.348205 
L 1034.398396 407.316047 
L 1108.997326 442.809329 
L 1183.596257 375.708739 
L 1258.195187 419.847423 
L 1332.794118 419.847423 
L 1407.393048 419.847423 
L 1481.991979 419.847423 
L 1556.590909 419.847423 
" clip-path="url(#p52a29f7b3b)" style="fill: none; stroke: #f77189; stroke-width: 1.5; stroke-linecap: square"/>
   </g>
   <g id="line2d_25">
    <path d="M 288.409091 533.734487 
L 363.008021 551.708809 
L 437.606952 614.212347 
L 512.205882 435.356471 
L 586.804813 487.048319 
L 661.403743 487.048319 
L 736.002674 487.048319 
L 810.601604 404.807646 
L 885.200535 404.807646 
L 959.799465 491.361548 
L 1034.398396 533.393706 
L 1108.997326 542.315334 
L 1183.596257 542.315334 
L 1258.195187 519.920733 
L 1332.794118 684.520959 
L 1407.393048 684.520959 
L 1481.991979 684.520959 
L 1556.590909 684.520959 
" clip-path="url(#p52a29f7b3b)" style="fill: none; stroke: #f77732; stroke-width: 1.5; stroke-linecap: square"/>
   </g>
   <g id="line2d_26">
    <path d="M 288.409091 533.734487 
L 363.008021 547.990695 
L 437.606952 511.573195 
L 512.205882 511.573195 
L 586.804813 406.929131 
L 661.403743 345.034276 
L 736.002674 425.795156 
L 810.601604 411.946953 
L 885.200535 411.946953 
L 959.799465 449.210271 
L 1034.398396 491.242429 
L 1108.997326 490.551196 
L 1183.596257 490.551196 
L 1258.195187 512.945796 
L 1332.794118 443.861806 
L 1407.393048 367.239482 
L 1481.991979 325.012981 
L 1556.590909 325.012981 
" clip-path="url(#p52a29f7b3b)" style="fill: none; stroke: #ce9032; stroke-width: 1.5; stroke-linecap: square"/>
   </g>
   <g id="line2d_27">
    <path d="M 288.409091 533.734487 
L 363.008021 587.174855 
L 437.606952 643.815295 
L 512.205882 813.131114 
L 586.804813 813.131114 
L 661.403743 813.131114 
L 736.002674 813.131114 
L 810.601604 813.131114 
L 885.200535 828.320665 
L 959.799465 828.320665 
L 1034.398396 786.288507 
L 1108.997326 777.366879 
L 1183.596257 754.977547 
L 1258.195187 711.474643 
L 1332.794118 923.4 
L 1407.393048 923.4 
L 1481.991979 899.112259 
L 1556.590909 874.206038 
" clip-path="url(#p52a29f7b3b)" style="fill: none; stroke: #b39b32; stroke-width: 1.5; stroke-linecap: square"/>
   </g>
   <g id="line2d_28">
    <path d="M 288.409091 533.734487 
L 363.008021 559.843984 
L 437.606952 585.090866 
L 512.205882 585.090866 
L 586.804813 585.090866 
L 661.403743 550.421173 
L 736.002674 665.381335 
L 810.601604 665.381335 
L 885.200535 777.708414 
L 959.799465 754.437448 
L 1034.398396 754.437448 
L 1108.997326 754.437448 
L 1183.596257 754.437448 
L 1258.195187 776.832048 
L 1332.794118 749.027596 
L 1407.393048 760.311967 
L 1481.991979 823.435332 
L 1556.590909 798.529111 
" clip-path="url(#p52a29f7b3b)" style="fill: none; stroke: #97a431; stroke-width: 1.5; stroke-linecap: square"/>
   </g>
   <g id="line2d_29">
    <path d="M 288.409091 533.734487 
L 363.008021 464.57329 
L 437.606952 431.264162 
L 512.205882 342.426217 
L 586.804813 246.277816 
L 661.403743 299.041499 
L 736.002674 167.4 
L 810.601604 167.4 
L 885.200535 171.665655 
L 959.799465 171.665655 
L 1034.398396 171.665655 
L 1108.997326 171.665655 
L 1183.596257 171.665655 
L 1258.195187 171.665655 
L 1332.794118 221.94005 
L 1407.393048 221.94005 
L 1481.991979 183.104425 
L 1556.590909 208.010646 
" clip-path="url(#p52a29f7b3b)" style="fill: none; stroke: #6cad31; stroke-width: 1.5; stroke-linecap: square"/>
   </g>
   <g id="line2d_30">
    <path d="M 288.409091 533.734487 
L 363.008021 533.734487 
L 437.606952 558.352441 
L 512.205882 682.71739 
L 586.804813 690.818213 
L 661.403743 633.488943 
L 736.002674 451.384504 
L 810.601604 354.60116 
L 885.200535 294.072658 
L 959.799465 321.95999 
L 1034.398396 321.95999 
L 1108.997326 295.388336 
L 1183.596257 362.488927 
L 1258.195187 383.59723 
L 1332.794118 262.260102 
L 1407.393048 262.260102 
L 1481.991979 201.740547 
L 1556.590909 201.740547 
" clip-path="url(#p52a29f7b3b)" style="fill: none; stroke: #32b166; stroke-width: 1.5; stroke-linecap: square"/>
   </g>
   <g id="line2d_31">
    <path d="M 288.409091 533.734487 
L 363.008021 533.734487 
L 437.606952 533.734487 
L 512.205882 554.433211 
L 586.804813 554.433211 
L 661.403743 554.433211 
L 736.002674 554.433211 
L 810.601604 554.433211 
L 885.200535 554.433211 
L 959.799465 554.433211 
L 1034.398396 554.433211 
L 1108.997326 554.433211 
L 1183.596257 554.433211 
L 1258.195187 554.433211 
L 1332.794118 554.433211 
L 1407.393048 554.433211 
L 1481.991979 554.433211 
L 1556.590909 554.433211 
" clip-path="url(#p52a29f7b3b)" style="fill: none; stroke: #34af8e; stroke-width: 1.5; stroke-linecap: square"/>
   </g>
   <g id="line2d_32">
    <path d="M 288.409091 533.734487 
L 363.008021 533.734487 
L 437.606952 533.734487 
L 512.205882 603.07712 
L 586.804813 625.698867 
L 661.403743 630.264453 
L 736.002674 630.264453 
L 810.601604 630.264453 
L 885.200535 603.252723 
L 959.799465 516.698821 
L 1034.398396 516.698821 
L 1108.997326 516.698821 
L 1183.596257 516.698821 
L 1258.195187 516.698821 
L 1332.794118 516.698821 
L 1407.393048 516.698821 
L 1481.991979 516.698821 
L 1556.590909 516.698821 
" clip-path="url(#p52a29f7b3b)" style="fill: none; stroke: #36ada4; stroke-width: 1.5; stroke-linecap: square"/>
   </g>
   <g id="line2d_33">
    <path d="M 288.409091 533.734487 
L 363.008021 533.734487 
L 437.606952 533.734487 
L 512.205882 546.61138 
L 586.804813 546.61138 
L 661.403743 577.333949 
L 736.002674 660.492442 
L 810.601604 757.275786 
L 885.200535 740.21852 
L 959.799465 712.331188 
L 1034.398396 712.331188 
L 1108.997326 704.100793 
L 1183.596257 596.153139 
L 1258.195187 552.014455 
L 1332.794118 552.014455 
L 1407.393048 552.014455 
L 1481.991979 552.014455 
L 1556.590909 552.014455 
" clip-path="url(#p52a29f7b3b)" style="fill: none; stroke: #37abb8; stroke-width: 1.5; stroke-linecap: square"/>
   </g>
   <g id="line2d_34">
    <path d="M 288.409091 533.734487 
L 363.008021 533.734487 
L 437.606952 533.734487 
L 512.205882 533.734487 
L 586.804813 533.734487 
L 661.403743 568.404181 
L 736.002674 568.404181 
L 810.601604 590.002707 
L 885.200535 590.002707 
L 959.799465 563.98309 
L 1034.398396 563.98309 
L 1108.997326 563.98309 
L 1183.596257 563.98309 
L 1258.195187 563.98309 
L 1332.794118 563.98309 
L 1407.393048 563.98309 
L 1481.991979 563.98309 
L 1556.590909 563.98309 
" clip-path="url(#p52a29f7b3b)" style="fill: none; stroke: #39a7d0; stroke-width: 1.5; stroke-linecap: square"/>
   </g>
   <g id="line2d_35">
    <path d="M 288.409091 533.734487 
L 363.008021 533.734487 
L 437.606952 533.734487 
L 512.205882 533.734487 
L 586.804813 533.734487 
L 661.403743 591.063757 
L 736.002674 591.063757 
L 810.601604 591.063757 
L 885.200535 591.063757 
L 959.799465 591.063757 
L 1034.398396 591.063757 
L 1108.997326 591.063757 
L 1183.596257 703.900115 
L 1258.195187 703.900115 
L 1332.794118 703.900115 
L 1407.393048 703.900115 
L 1481.991979 703.900115 
L 1556.590909 703.900115 
" clip-path="url(#p52a29f7b3b)" style="fill: none; stroke: #5a9ef4; stroke-width: 1.5; stroke-linecap: square"/>
   </g>
   <g id="line2d_36">
    <path d="M 288.409091 533.734487 
L 363.008021 533.734487 
L 437.606952 533.734487 
L 512.205882 533.734487 
L 586.804813 533.734487 
L 661.403743 533.734487 
L 736.002674 533.734487 
L 810.601604 533.734487 
L 885.200535 533.734487 
L 959.799465 533.734487 
L 1034.398396 533.734487 
L 1108.997326 568.536536 
L 1183.596257 506.617008 
L 1258.195187 506.617008 
L 1332.794118 506.617008 
L 1407.393048 506.617008 
L 1481.991979 506.617008 
L 1556.590909 506.617008 
" clip-path="url(#p52a29f7b3b)" style="fill: none; stroke: #a48cf4; stroke-width: 1.5; stroke-linecap: square"/>
   </g>
   <g id="line2d_37">
    <path d="M 288.409091 533.734487 
L 363.008021 533.734487 
L 437.606952 533.734487 
L 512.205882 533.734487 
L 586.804813 533.734487 
L 661.403743 533.734487 
L 736.002674 533.734487 
L 810.601604 533.734487 
L 885.200535 533.734487 
L 959.799465 533.734487 
L 1034.398396 533.734487 
L 1108.997326 498.932438 
L 1183.596257 578.352594 
L 1258.195187 578.352594 
L 1332.794118 578.352594 
L 1407.393048 578.352594 
L 1481.991979 578.352594 
L 1556.590909 578.352594 
" clip-path="url(#p52a29f7b3b)" style="fill: none; stroke: #d673f4; stroke-width: 1.5; stroke-linecap: square"/>
   </g>
   <g id="line2d_38">
    <path d="M 288.409091 533.734487 
L 363.008021 533.734487 
L 437.606952 533.734487 
L 512.205882 533.734487 
L 586.804813 533.734487 
L 661.403743 533.734487 
L 736.002674 533.734487 
L 810.601604 533.734487 
L 885.200535 533.734487 
L 959.799465 533.734487 
L 1034.398396 533.734487 
L 1108.997326 533.734487 
L 1183.596257 533.734487 
L 1258.195187 533.734487 
L 1332.794118 348.446659 
L 1407.393048 348.446659 
L 1481.991979 408.966214 
L 1556.590909 408.966214 
" clip-path="url(#p52a29f7b3b)" style="fill: none; stroke: #f561dd; stroke-width: 1.5; stroke-linecap: square"/>
   </g>
   <g id="line2d_39">
    <path d="M 288.409091 533.734487 
L 363.008021 533.734487 
L 437.606952 533.734487 
L 512.205882 533.734487 
L 586.804813 533.734487 
L 661.403743 533.734487 
L 736.002674 533.734487 
L 810.601604 533.734487 
L 885.200535 533.734487 
L 959.799465 533.734487 
L 1034.398396 533.734487 
L 1108.997326 533.734487 
L 1183.596257 533.734487 
L 1258.195187 533.734487 
L 1332.794118 533.734487 
L 1407.393048 554.888999 
L 1481.991979 618.012365 
L 1556.590909 642.918586 
" clip-path="url(#p52a29f7b3b)" style="fill: none; stroke: #f66ab5; stroke-width: 1.5; stroke-linecap: square"/>
   </g>
   <g id="line2d_40"/>
   <g id="line2d_41"/>
   <g id="line2d_42"/>
   <g id="line2d_43"/>
   <g id="line2d_44"/>
   <g id="line2d_45"/>
   <g id="line2d_46"/>
   <g id="line2d_47"/>
   <g id="line2d_48"/>
   <g id="line2d_49"/>
   <g id="line2d_50"/>
   <g id="line2d_51"/>
   <g id="line2d_52"/>
   <g id="line2d_53"/>
   <g id="line2d_54"/>
   <g id="line2d_55"/>
   <g id="patch_3">
    <path d="M 225 961.2 
L 225 129.6 
" style="fill: none; stroke: #000000; stroke-width: 0.8; stroke-linejoin: miter; stroke-linecap: square"/>
   </g>
   <g id="patch_4">
    <path d="M 1620 961.2 
L 1620 129.6 
" style="fill: none; stroke: #000000; stroke-width: 0.8; stroke-linejoin: miter; stroke-linecap: square"/>
   </g>
   <g id="patch_5">
    <path d="M 225 961.2 
L 1620 961.2 
" style="fill: none; stroke: #000000; stroke-width: 0.8; stroke-linejoin: miter; stroke-linecap: square"/>
   </g>
   <g id="patch_6">
    <path d="M 225 129.6 
L 1620 129.6 
" style="fill: none; stroke: #000000; stroke-width: 0.8; stroke-linejoin: miter; stroke-linecap: square"/>
   </g>
   <g id="legend_1">
    <g id="patch_7">
     <path d="M 232 387.128125 
L 315.06875 387.128125 
Q 317.06875 387.128125 317.06875 385.128125 
L 317.06875 136.6 
Q 317.06875 134.6 315.06875 134.6 
L 232 134.6 
Q 230 134.6 230 136.6 
L 230 385.128125 
Q 230 387.128125 232 387.128125 
z
" style="fill: #ffffff; opacity: 0.8; stroke: #cccccc; stroke-linejoin: miter"/>
    </g>
    <g id="text_26">
     <!-- player -->
     <g transform="translate(257.815625 146.198437)scale(0.1 -0.1)">
      <defs>
       <path id="DejaVuSans-70" d="M 1159 525 
L 1159 -1331 
L 581 -1331 
L 581 3500 
L 1159 3500 
L 1159 2969 
Q 1341 3281 1617 3432 
Q 1894 3584 2278 3584 
Q 2916 3584 3314 3078 
Q 3713 2572 3713 1747 
Q 3713 922 3314 415 
Q 2916 -91 2278 -91 
Q 1894 -91 1617 61 
Q 1341 213 1159 525 
z
M 3116 1747 
Q 3116 2381 2855 2742 
Q 2594 3103 2138 3103 
Q 1681 3103 1420 2742 
Q 1159 2381 1159 1747 
Q 1159 1113 1420 752 
Q 1681 391 2138 391 
Q 2594 391 2855 752 
Q 3116 1113 3116 1747 
z
" transform="scale(0.015625)"/>
       <path id="DejaVuSans-79" d="M 2059 -325 
Q 1816 -950 1584 -1140 
Q 1353 -1331 966 -1331 
L 506 -1331 
L 506 -850 
L 844 -850 
Q 1081 -850 1212 -737 
Q 1344 -625 1503 -206 
L 1606 56 
L 191 3500 
L 800 3500 
L 1894 763 
L 2988 3500 
L 3597 3500 
L 2059 -325 
z
" transform="scale(0.015625)"/>
       <path id="DejaVuSans-72" d="M 2631 2963 
Q 2534 3019 2420 3045 
Q 2306 3072 2169 3072 
Q 1681 3072 1420 2755 
Q 1159 2438 1159 1844 
L 1159 0 
L 581 0 
L 581 3500 
L 1159 3500 
L 1159 2956 
Q 1341 3275 1631 3429 
Q 1922 3584 2338 3584 
Q 2397 3584 2469 3576 
Q 2541 3569 2628 3553 
L 2631 2963 
z
" transform="scale(0.015625)"/>
      </defs>
      <use xlink:href="#DejaVuSans-70"/>
      <use xlink:href="#DejaVuSans-6c" x="63.476562"/>
      <use xlink:href="#DejaVuSans-61" x="91.259766"/>
      <use xlink:href="#DejaVuSans-79" x="152.539062"/>
      <use xlink:href="#DejaVuSans-65" x="211.71875"/>
      <use xlink:href="#DejaVuSans-72" x="273.242188"/>
     </g>
    </g>
    <g id="line2d_56">
     <path d="M 234 157.376562 
L 244 157.376562 
L 254 157.376562 
" style="fill: none; stroke: #f77189; stroke-width: 1.5; stroke-linecap: square"/>
    </g>
    <g id="text_27">
     <!-- Pablo -->
     <g transform="translate(262 160.876562)scale(0.1 -0.1)">
      <defs>
       <path id="DejaVuSans-50" d="M 1259 4147 
L 1259 2394 
L 2053 2394 
Q 2494 2394 2734 2622 
Q 2975 2850 2975 3272 
Q 2975 3691 2734 3919 
Q 2494 4147 2053 4147 
L 1259 4147 
z
M 628 4666 
L 2053 4666 
Q 2838 4666 3239 4311 
Q 3641 3956 3641 3272 
Q 3641 2581 3239 2228 
Q 2838 1875 2053 1875 
L 1259 1875 
L 1259 0 
L 628 0 
L 628 4666 
z
" transform="scale(0.015625)"/>
       <path id="DejaVuSans-62" d="M 3116 1747 
Q 3116 2381 2855 2742 
Q 2594 3103 2138 3103 
Q 1681 3103 1420 2742 
Q 1159 2381 1159 1747 
Q 1159 1113 1420 752 
Q 1681 391 2138 391 
Q 2594 391 2855 752 
Q 3116 1113 3116 1747 
z
M 1159 2969 
Q 1341 3281 1617 3432 
Q 1894 3584 2278 3584 
Q 2916 3584 3314 3078 
Q 3713 2572 3713 1747 
Q 3713 922 3314 415 
Q 2916 -91 2278 -91 
Q 1894 -91 1617 61 
Q 1341 213 1159 525 
L 1159 0 
L 581 0 
L 581 4863 
L 1159 4863 
L 1159 2969 
z
" transform="scale(0.015625)"/>
      </defs>
      <use xlink:href="#DejaVuSans-50"/>
      <use xlink:href="#DejaVuSans-61" x="55.802734"/>
      <use xlink:href="#DejaVuSans-62" x="117.082031"/>
      <use xlink:href="#DejaVuSans-6c" x="180.558594"/>
      <use xlink:href="#DejaVuSans-6f" x="208.341797"/>
     </g>
    </g>
    <g id="line2d_57">
     <path d="M 234 172.054688 
L 244 172.054688 
L 254 172.054688 
" style="fill: none; stroke: #f77732; stroke-width: 1.5; stroke-linecap: square"/>
    </g>
    <g id="text_28">
     <!-- Ugo -->
     <g transform="translate(262 175.554688)scale(0.1 -0.1)">
      <defs>
       <path id="DejaVuSans-55" d="M 556 4666 
L 1191 4666 
L 1191 1831 
Q 1191 1081 1462 751 
Q 1734 422 2344 422 
Q 2950 422 3222 751 
Q 3494 1081 3494 1831 
L 3494 4666 
L 4128 4666 
L 4128 1753 
Q 4128 841 3676 375 
Q 3225 -91 2344 -91 
Q 1459 -91 1007 375 
Q 556 841 556 1753 
L 556 4666 
z
" transform="scale(0.015625)"/>
       <path id="DejaVuSans-67" d="M 2906 1791 
Q 2906 2416 2648 2759 
Q 2391 3103 1925 3103 
Q 1463 3103 1205 2759 
Q 947 2416 947 1791 
Q 947 1169 1205 825 
Q 1463 481 1925 481 
Q 2391 481 2648 825 
Q 2906 1169 2906 1791 
z
M 3481 434 
Q 3481 -459 3084 -895 
Q 2688 -1331 1869 -1331 
Q 1566 -1331 1297 -1286 
Q 1028 -1241 775 -1147 
L 775 -588 
Q 1028 -725 1275 -790 
Q 1522 -856 1778 -856 
Q 2344 -856 2625 -561 
Q 2906 -266 2906 331 
L 2906 616 
Q 2728 306 2450 153 
Q 2172 0 1784 0 
Q 1141 0 747 490 
Q 353 981 353 1791 
Q 353 2603 747 3093 
Q 1141 3584 1784 3584 
Q 2172 3584 2450 3431 
Q 2728 3278 2906 2969 
L 2906 3500 
L 3481 3500 
L 3481 434 
z
" transform="scale(0.015625)"/>
      </defs>
      <use xlink:href="#DejaVuSans-55"/>
      <use xlink:href="#DejaVuSans-67" x="73.193359"/>
      <use xlink:href="#DejaVuSans-6f" x="136.669922"/>
     </g>
    </g>
    <g id="line2d_58">
     <path d="M 234 186.732813 
L 244 186.732813 
L 254 186.732813 
" style="fill: none; stroke: #ce9032; stroke-width: 1.5; stroke-linecap: square"/>
    </g>
    <g id="text_29">
     <!-- Nicco -->
     <g transform="translate(262 190.232813)scale(0.1 -0.1)">
      <defs>
       <path id="DejaVuSans-4e" d="M 628 4666 
L 1478 4666 
L 3547 763 
L 3547 4666 
L 4159 4666 
L 4159 0 
L 3309 0 
L 1241 3903 
L 1241 0 
L 628 0 
L 628 4666 
z
" transform="scale(0.015625)"/>
       <path id="DejaVuSans-69" d="M 603 3500 
L 1178 3500 
L 1178 0 
L 603 0 
L 603 3500 
z
M 603 4863 
L 1178 4863 
L 1178 4134 
L 603 4134 
L 603 4863 
z
" transform="scale(0.015625)"/>
       <path id="DejaVuSans-63" d="M 3122 3366 
L 3122 2828 
Q 2878 2963 2633 3030 
Q 2388 3097 2138 3097 
Q 1578 3097 1268 2742 
Q 959 2388 959 1747 
Q 959 1106 1268 751 
Q 1578 397 2138 397 
Q 2388 397 2633 464 
Q 2878 531 3122 666 
L 3122 134 
Q 2881 22 2623 -34 
Q 2366 -91 2075 -91 
Q 1284 -91 818 406 
Q 353 903 353 1747 
Q 353 2603 823 3093 
Q 1294 3584 2113 3584 
Q 2378 3584 2631 3529 
Q 2884 3475 3122 3366 
z
" transform="scale(0.015625)"/>
      </defs>
      <use xlink:href="#DejaVuSans-4e"/>
      <use xlink:href="#DejaVuSans-69" x="74.804688"/>
      <use xlink:href="#DejaVuSans-63" x="102.587891"/>
      <use xlink:href="#DejaVuSans-63" x="157.568359"/>
      <use xlink:href="#DejaVuSans-6f" x="212.548828"/>
     </g>
    </g>
    <g id="line2d_59">
     <path d="M 234 201.410938 
L 244 201.410938 
L 254 201.410938 
" style="fill: none; stroke: #b39b32; stroke-width: 1.5; stroke-linecap: square"/>
    </g>
    <g id="text_30">
     <!-- Shintaro -->
     <g transform="translate(262 204.910938)scale(0.1 -0.1)">
      <defs>
       <path id="DejaVuSans-53" d="M 3425 4513 
L 3425 3897 
Q 3066 4069 2747 4153 
Q 2428 4238 2131 4238 
Q 1616 4238 1336 4038 
Q 1056 3838 1056 3469 
Q 1056 3159 1242 3001 
Q 1428 2844 1947 2747 
L 2328 2669 
Q 3034 2534 3370 2195 
Q 3706 1856 3706 1288 
Q 3706 609 3251 259 
Q 2797 -91 1919 -91 
Q 1588 -91 1214 -16 
Q 841 59 441 206 
L 441 856 
Q 825 641 1194 531 
Q 1563 422 1919 422 
Q 2459 422 2753 634 
Q 3047 847 3047 1241 
Q 3047 1584 2836 1778 
Q 2625 1972 2144 2069 
L 1759 2144 
Q 1053 2284 737 2584 
Q 422 2884 422 3419 
Q 422 4038 858 4394 
Q 1294 4750 2059 4750 
Q 2388 4750 2728 4690 
Q 3069 4631 3425 4513 
z
" transform="scale(0.015625)"/>
       <path id="DejaVuSans-68" d="M 3513 2113 
L 3513 0 
L 2938 0 
L 2938 2094 
Q 2938 2591 2744 2837 
Q 2550 3084 2163 3084 
Q 1697 3084 1428 2787 
Q 1159 2491 1159 1978 
L 1159 0 
L 581 0 
L 581 4863 
L 1159 4863 
L 1159 2956 
Q 1366 3272 1645 3428 
Q 1925 3584 2291 3584 
Q 2894 3584 3203 3211 
Q 3513 2838 3513 2113 
z
" transform="scale(0.015625)"/>
       <path id="DejaVuSans-6e" d="M 3513 2113 
L 3513 0 
L 2938 0 
L 2938 2094 
Q 2938 2591 2744 2837 
Q 2550 3084 2163 3084 
Q 1697 3084 1428 2787 
Q 1159 2491 1159 1978 
L 1159 0 
L 581 0 
L 581 3500 
L 1159 3500 
L 1159 2956 
Q 1366 3272 1645 3428 
Q 1925 3584 2291 3584 
Q 2894 3584 3203 3211 
Q 3513 2838 3513 2113 
z
" transform="scale(0.015625)"/>
      </defs>
      <use xlink:href="#DejaVuSans-53"/>
      <use xlink:href="#DejaVuSans-68" x="63.476562"/>
      <use xlink:href="#DejaVuSans-69" x="126.855469"/>
      <use xlink:href="#DejaVuSans-6e" x="154.638672"/>
      <use xlink:href="#DejaVuSans-74" x="218.017578"/>
      <use xlink:href="#DejaVuSans-61" x="257.226562"/>
      <use xlink:href="#DejaVuSans-72" x="318.505859"/>
      <use xlink:href="#DejaVuSans-6f" x="357.369141"/>
     </g>
    </g>
    <g id="line2d_60">
     <path d="M 234 216.089062 
L 244 216.089062 
L 254 216.089062 
" style="fill: none; stroke: #97a431; stroke-width: 1.5; stroke-linecap: square"/>
    </g>
    <g id="text_31">
     <!-- Xiaoyu -->
     <g transform="translate(262 219.589062)scale(0.1 -0.1)">
      <defs>
       <path id="DejaVuSans-58" d="M 403 4666 
L 1081 4666 
L 2241 2931 
L 3406 4666 
L 4084 4666 
L 2584 2425 
L 4184 0 
L 3506 0 
L 2194 1984 
L 872 0 
L 191 0 
L 1856 2491 
L 403 4666 
z
" transform="scale(0.015625)"/>
       <path id="DejaVuSans-75" d="M 544 1381 
L 544 3500 
L 1119 3500 
L 1119 1403 
Q 1119 906 1312 657 
Q 1506 409 1894 409 
Q 2359 409 2629 706 
Q 2900 1003 2900 1516 
L 2900 3500 
L 3475 3500 
L 3475 0 
L 2900 0 
L 2900 538 
Q 2691 219 2414 64 
Q 2138 -91 1772 -91 
Q 1169 -91 856 284 
Q 544 659 544 1381 
z
M 1991 3584 
L 1991 3584 
z
" transform="scale(0.015625)"/>
      </defs>
      <use xlink:href="#DejaVuSans-58"/>
      <use xlink:href="#DejaVuSans-69" x="68.505859"/>
      <use xlink:href="#DejaVuSans-61" x="96.289062"/>
      <use xlink:href="#DejaVuSans-6f" x="157.568359"/>
      <use xlink:href="#DejaVuSans-79" x="218.75"/>
      <use xlink:href="#DejaVuSans-75" x="277.929688"/>
     </g>
    </g>
    <g id="line2d_61">
     <path d="M 234 230.767187 
L 244 230.767187 
L 254 230.767187 
" style="fill: none; stroke: #6cad31; stroke-width: 1.5; stroke-linecap: square"/>
    </g>
    <g id="text_32">
     <!-- Leo -->
     <g transform="translate(262 234.267187)scale(0.1 -0.1)">
      <defs>
       <path id="DejaVuSans-4c" d="M 628 4666 
L 1259 4666 
L 1259 531 
L 3531 531 
L 3531 0 
L 628 0 
L 628 4666 
z
" transform="scale(0.015625)"/>
      </defs>
      <use xlink:href="#DejaVuSans-4c"/>
      <use xlink:href="#DejaVuSans-65" x="53.962891"/>
      <use xlink:href="#DejaVuSans-6f" x="115.486328"/>
     </g>
    </g>
    <g id="line2d_62">
     <path d="M 234 245.445312 
L 244 245.445312 
L 254 245.445312 
" style="fill: none; stroke: #32b166; stroke-width: 1.5; stroke-linecap: square"/>
    </g>
    <g id="text_33">
     <!-- Mathieu p -->
     <g transform="translate(262 248.945312)scale(0.1 -0.1)">
      <defs>
       <path id="DejaVuSans-4d" d="M 628 4666 
L 1569 4666 
L 2759 1491 
L 3956 4666 
L 4897 4666 
L 4897 0 
L 4281 0 
L 4281 4097 
L 3078 897 
L 2444 897 
L 1241 4097 
L 1241 0 
L 628 0 
L 628 4666 
z
" transform="scale(0.015625)"/>
       <path id="DejaVuSans-20" transform="scale(0.015625)"/>
      </defs>
      <use xlink:href="#DejaVuSans-4d"/>
      <use xlink:href="#DejaVuSans-61" x="86.279297"/>
      <use xlink:href="#DejaVuSans-74" x="147.558594"/>
      <use xlink:href="#DejaVuSans-68" x="186.767578"/>
      <use xlink:href="#DejaVuSans-69" x="250.146484"/>
      <use xlink:href="#DejaVuSans-65" x="277.929688"/>
      <use xlink:href="#DejaVuSans-75" x="339.453125"/>
      <use xlink:href="#DejaVuSans-20" x="402.832031"/>
      <use xlink:href="#DejaVuSans-70" x="434.619141"/>
     </g>
    </g>
    <g id="line2d_63">
     <path d="M 234 260.123438 
L 244 260.123438 
L 254 260.123438 
" style="fill: none; stroke: #34af8e; stroke-width: 1.5; stroke-linecap: square"/>
    </g>
    <g id="text_34">
     <!-- Samantha -->
     <g transform="translate(262 263.623438)scale(0.1 -0.1)">
      <defs>
       <path id="DejaVuSans-6d" d="M 3328 2828 
Q 3544 3216 3844 3400 
Q 4144 3584 4550 3584 
Q 5097 3584 5394 3201 
Q 5691 2819 5691 2113 
L 5691 0 
L 5113 0 
L 5113 2094 
Q 5113 2597 4934 2840 
Q 4756 3084 4391 3084 
Q 3944 3084 3684 2787 
Q 3425 2491 3425 1978 
L 3425 0 
L 2847 0 
L 2847 2094 
Q 2847 2600 2669 2842 
Q 2491 3084 2119 3084 
Q 1678 3084 1418 2786 
Q 1159 2488 1159 1978 
L 1159 0 
L 581 0 
L 581 3500 
L 1159 3500 
L 1159 2956 
Q 1356 3278 1631 3431 
Q 1906 3584 2284 3584 
Q 2666 3584 2933 3390 
Q 3200 3197 3328 2828 
z
" transform="scale(0.015625)"/>
      </defs>
      <use xlink:href="#DejaVuSans-53"/>
      <use xlink:href="#DejaVuSans-61" x="63.476562"/>
      <use xlink:href="#DejaVuSans-6d" x="124.755859"/>
      <use xlink:href="#DejaVuSans-61" x="222.167969"/>
      <use xlink:href="#DejaVuSans-6e" x="283.447266"/>
      <use xlink:href="#DejaVuSans-74" x="346.826172"/>
      <use xlink:href="#DejaVuSans-68" x="386.035156"/>
      <use xlink:href="#DejaVuSans-61" x="449.414062"/>
     </g>
    </g>
    <g id="line2d_64">
     <path d="M 234 274.801562 
L 244 274.801562 
L 254 274.801562 
" style="fill: none; stroke: #36ada4; stroke-width: 1.5; stroke-linecap: square"/>
    </g>
    <g id="text_35">
     <!-- Mathieu r -->
     <g transform="translate(262 278.301562)scale(0.1 -0.1)">
      <use xlink:href="#DejaVuSans-4d"/>
      <use xlink:href="#DejaVuSans-61" x="86.279297"/>
      <use xlink:href="#DejaVuSans-74" x="147.558594"/>
      <use xlink:href="#DejaVuSans-68" x="186.767578"/>
      <use xlink:href="#DejaVuSans-69" x="250.146484"/>
      <use xlink:href="#DejaVuSans-65" x="277.929688"/>
      <use xlink:href="#DejaVuSans-75" x="339.453125"/>
      <use xlink:href="#DejaVuSans-20" x="402.832031"/>
      <use xlink:href="#DejaVuSans-72" x="434.619141"/>
     </g>
    </g>
    <g id="line2d_65">
     <path d="M 234 289.479687 
L 244 289.479687 
L 254 289.479687 
" style="fill: none; stroke: #37abb8; stroke-width: 1.5; stroke-linecap: square"/>
    </g>
    <g id="text_36">
     <!-- Jonathan -->
     <g transform="translate(262 292.979687)scale(0.1 -0.1)">
      <defs>
       <path id="DejaVuSans-4a" d="M 628 4666 
L 1259 4666 
L 1259 325 
Q 1259 -519 939 -900 
Q 619 -1281 -91 -1281 
L -331 -1281 
L -331 -750 
L -134 -750 
Q 284 -750 456 -515 
Q 628 -281 628 325 
L 628 4666 
z
" transform="scale(0.015625)"/>
      </defs>
      <use xlink:href="#DejaVuSans-4a"/>
      <use xlink:href="#DejaVuSans-6f" x="29.492188"/>
      <use xlink:href="#DejaVuSans-6e" x="90.673828"/>
      <use xlink:href="#DejaVuSans-61" x="154.052734"/>
      <use xlink:href="#DejaVuSans-74" x="215.332031"/>
      <use xlink:href="#DejaVuSans-68" x="254.541016"/>
      <use xlink:href="#DejaVuSans-61" x="317.919922"/>
      <use xlink:href="#DejaVuSans-6e" x="379.199219"/>
     </g>
    </g>
    <g id="line2d_66">
     <path d="M 234 304.157812 
L 244 304.157812 
L 254 304.157812 
" style="fill: none; stroke: #39a7d0; stroke-width: 1.5; stroke-linecap: square"/>
    </g>
    <g id="text_37">
     <!-- Jacopo -->
     <g transform="translate(262 307.657812)scale(0.1 -0.1)">
      <use xlink:href="#DejaVuSans-4a"/>
      <use xlink:href="#DejaVuSans-61" x="29.492188"/>
      <use xlink:href="#DejaVuSans-63" x="90.771484"/>
      <use xlink:href="#DejaVuSans-6f" x="145.751953"/>
      <use xlink:href="#DejaVuSans-70" x="206.933594"/>
      <use xlink:href="#DejaVuSans-6f" x="270.410156"/>
     </g>
    </g>
    <g id="line2d_67">
     <path d="M 234 318.835938 
L 244 318.835938 
L 254 318.835938 
" style="fill: none; stroke: #5a9ef4; stroke-width: 1.5; stroke-linecap: square"/>
    </g>
    <g id="text_38">
     <!-- Emanuel -->
     <g transform="translate(262 322.335938)scale(0.1 -0.1)">
      <defs>
       <path id="DejaVuSans-45" d="M 628 4666 
L 3578 4666 
L 3578 4134 
L 1259 4134 
L 1259 2753 
L 3481 2753 
L 3481 2222 
L 1259 2222 
L 1259 531 
L 3634 531 
L 3634 0 
L 628 0 
L 628 4666 
z
" transform="scale(0.015625)"/>
      </defs>
      <use xlink:href="#DejaVuSans-45"/>
      <use xlink:href="#DejaVuSans-6d" x="63.183594"/>
      <use xlink:href="#DejaVuSans-61" x="160.595703"/>
      <use xlink:href="#DejaVuSans-6e" x="221.875"/>
      <use xlink:href="#DejaVuSans-75" x="285.253906"/>
      <use xlink:href="#DejaVuSans-65" x="348.632812"/>
      <use xlink:href="#DejaVuSans-6c" x="410.15625"/>
     </g>
    </g>
    <g id="line2d_68">
     <path d="M 234 333.514062 
L 244 333.514062 
L 254 333.514062 
" style="fill: none; stroke: #a48cf4; stroke-width: 1.5; stroke-linecap: square"/>
    </g>
    <g id="text_39">
     <!-- Grekou -->
     <g transform="translate(262 337.014062)scale(0.1 -0.1)">
      <defs>
       <path id="DejaVuSans-47" d="M 3809 666 
L 3809 1919 
L 2778 1919 
L 2778 2438 
L 4434 2438 
L 4434 434 
Q 4069 175 3628 42 
Q 3188 -91 2688 -91 
Q 1594 -91 976 548 
Q 359 1188 359 2328 
Q 359 3472 976 4111 
Q 1594 4750 2688 4750 
Q 3144 4750 3555 4637 
Q 3966 4525 4313 4306 
L 4313 3634 
Q 3963 3931 3569 4081 
Q 3175 4231 2741 4231 
Q 1884 4231 1454 3753 
Q 1025 3275 1025 2328 
Q 1025 1384 1454 906 
Q 1884 428 2741 428 
Q 3075 428 3337 486 
Q 3600 544 3809 666 
z
" transform="scale(0.015625)"/>
       <path id="DejaVuSans-6b" d="M 581 4863 
L 1159 4863 
L 1159 1991 
L 2875 3500 
L 3609 3500 
L 1753 1863 
L 3688 0 
L 2938 0 
L 1159 1709 
L 1159 0 
L 581 0 
L 581 4863 
z
" transform="scale(0.015625)"/>
      </defs>
      <use xlink:href="#DejaVuSans-47"/>
      <use xlink:href="#DejaVuSans-72" x="77.490234"/>
      <use xlink:href="#DejaVuSans-65" x="116.353516"/>
      <use xlink:href="#DejaVuSans-6b" x="177.876953"/>
      <use xlink:href="#DejaVuSans-6f" x="232.162109"/>
      <use xlink:href="#DejaVuSans-75" x="293.34375"/>
     </g>
    </g>
    <g id="line2d_69">
     <path d="M 234 348.192187 
L 244 348.192187 
L 254 348.192187 
" style="fill: none; stroke: #d673f4; stroke-width: 1.5; stroke-linecap: square"/>
    </g>
    <g id="text_40">
     <!-- Ys -->
     <g transform="translate(262 351.692187)scale(0.1 -0.1)">
      <defs>
       <path id="DejaVuSans-59" d="M -13 4666 
L 666 4666 
L 1959 2747 
L 3244 4666 
L 3922 4666 
L 2272 2222 
L 2272 0 
L 1638 0 
L 1638 2222 
L -13 4666 
z
" transform="scale(0.015625)"/>
       <path id="DejaVuSans-73" d="M 2834 3397 
L 2834 2853 
Q 2591 2978 2328 3040 
Q 2066 3103 1784 3103 
Q 1356 3103 1142 2972 
Q 928 2841 928 2578 
Q 928 2378 1081 2264 
Q 1234 2150 1697 2047 
L 1894 2003 
Q 2506 1872 2764 1633 
Q 3022 1394 3022 966 
Q 3022 478 2636 193 
Q 2250 -91 1575 -91 
Q 1294 -91 989 -36 
Q 684 19 347 128 
L 347 722 
Q 666 556 975 473 
Q 1284 391 1588 391 
Q 1994 391 2212 530 
Q 2431 669 2431 922 
Q 2431 1156 2273 1281 
Q 2116 1406 1581 1522 
L 1381 1569 
Q 847 1681 609 1914 
Q 372 2147 372 2553 
Q 372 3047 722 3315 
Q 1072 3584 1716 3584 
Q 2034 3584 2315 3537 
Q 2597 3491 2834 3397 
z
" transform="scale(0.015625)"/>
      </defs>
      <use xlink:href="#DejaVuSans-59"/>
      <use xlink:href="#DejaVuSans-73" x="61.083984"/>
     </g>
    </g>
    <g id="line2d_70">
     <path d="M 234 362.870312 
L 244 362.870312 
L 254 362.870312 
" style="fill: none; stroke: #f561dd; stroke-width: 1.5; stroke-linecap: square"/>
    </g>
    <g id="text_41">
     <!-- Ravi -->
     <g transform="translate(262 366.370312)scale(0.1 -0.1)">
      <defs>
       <path id="DejaVuSans-52" d="M 2841 2188 
Q 3044 2119 3236 1894 
Q 3428 1669 3622 1275 
L 4263 0 
L 3584 0 
L 2988 1197 
Q 2756 1666 2539 1819 
Q 2322 1972 1947 1972 
L 1259 1972 
L 1259 0 
L 628 0 
L 628 4666 
L 2053 4666 
Q 2853 4666 3247 4331 
Q 3641 3997 3641 3322 
Q 3641 2881 3436 2590 
Q 3231 2300 2841 2188 
z
M 1259 4147 
L 1259 2491 
L 2053 2491 
Q 2509 2491 2742 2702 
Q 2975 2913 2975 3322 
Q 2975 3731 2742 3939 
Q 2509 4147 2053 4147 
L 1259 4147 
z
" transform="scale(0.015625)"/>
       <path id="DejaVuSans-76" d="M 191 3500 
L 800 3500 
L 1894 563 
L 2988 3500 
L 3597 3500 
L 2284 0 
L 1503 0 
L 191 3500 
z
" transform="scale(0.015625)"/>
      </defs>
      <use xlink:href="#DejaVuSans-52"/>
      <use xlink:href="#DejaVuSans-61" x="67.232422"/>
      <use xlink:href="#DejaVuSans-76" x="128.511719"/>
      <use xlink:href="#DejaVuSans-69" x="187.691406"/>
     </g>
    </g>
    <g id="line2d_71">
     <path d="M 234 377.548437 
L 244 377.548437 
L 254 377.548437 
" style="fill: none; stroke: #f66ab5; stroke-width: 1.5; stroke-linecap: square"/>
    </g>
    <g id="text_42">
     <!-- Nasra -->
     <g transform="translate(262 381.048437)scale(0.1 -0.1)">
      <use xlink:href="#DejaVuSans-4e"/>
      <use xlink:href="#DejaVuSans-61" x="74.804688"/>
      <use xlink:href="#DejaVuSans-73" x="136.083984"/>
      <use xlink:href="#DejaVuSans-72" x="188.183594"/>
      <use xlink:href="#DejaVuSans-61" x="229.296875"/>
     </g>
    </g>
   </g>
  </g>
 </g>
 <defs>
  <clipPath id="p52a29f7b3b">
   <rect x="225" y="129.6" width="1395" height="831.6"/>
  </clipPath>
 </defs>
</svg>
