<?xml version="1.0" encoding="utf-8" standalone="no"?>
<!DOCTYPE svg PUBLIC "-//W3C//DTD SVG 1.1//EN"
  "http://www.w3.org/Graphics/SVG/1.1/DTD/svg11.dtd">
<svg xmlns:xlink="http://www.w3.org/1999/xlink" width="460.8pt" height="345.6pt" viewBox="0 0 460.8 345.6" xmlns="http://www.w3.org/2000/svg" version="1.1">
 <metadata>
  <rdf:RDF xmlns:dc="http://purl.org/dc/elements/1.1/" xmlns:cc="http://creativecommons.org/ns#" xmlns:rdf="http://www.w3.org/1999/02/22-rdf-syntax-ns#">
   <cc:Work>
    <dc:type rdf:resource="http://purl.org/dc/dcmitype/StillImage"/>
    <dc:date>2025-06-10T15:30:28.472998</dc:date>
    <dc:format>image/svg+xml</dc:format>
    <dc:creator>
     <cc:Agent>
      <dc:title>Matplotlib v3.5.1, https://matplotlib.org/</dc:title>
     </cc:Agent>
    </dc:creator>
   </cc:Work>
  </rdf:RDF>
 </metadata>
 <defs>
  <style type="text/css">*{stroke-linejoin: round; stroke-linecap: butt}</style>
 </defs>
 <g id="figure_1">
  <g id="patch_1">
   <path d="M 0 345.6 
L 460.8 345.6 
L 460.8 0 
L 0 0 
z
" style="fill: #ffffff"/>
  </g>
  <g id="axes_1">
   <g id="patch_2">
    <path d="M 113.227546 29.990083 
Q 106.958375 40.717426 101.253325 50.479488 
" clip-path="url(#paf936e34ef)" style="fill: none; stroke: #000000; stroke-linecap: round"/>
    <path d="M 104.998332 48.035122 
L 101.253325 50.479488 
L 101.544836 46.016864 
L 104.998332 48.035122 
z
" clip-path="url(#paf936e34ef)" style="stroke: #000000; stroke-linecap: round"/>
   </g>
   <g id="patch_3">
    <path d="M 251.106827 315.609917 
Q 267.003246 313.309584 281.793158 311.16937 
" clip-path="url(#paf936e34ef)" style="fill: none; stroke: #000000; stroke-linecap: round"/>
    <path d="M 277.54796 309.762851 
L 281.793158 311.16937 
L 278.120824 313.721617 
L 277.54796 309.762851 
z
" clip-path="url(#paf936e34ef)" style="stroke: #000000; stroke-linecap: round"/>
   </g>
   <g id="patch_4">
    <path d="M 39.986777 194.478249 
Q 55.57704 191.448408 70.069804 188.631858 
" clip-path="url(#paf936e34ef)" style="fill: none; stroke: #000000; stroke-linecap: round"/>
    <path d="M 65.761721 187.43168 
L 70.069804 188.631858 
L 66.524812 191.358217 
L 65.761721 187.43168 
z
" clip-path="url(#paf936e34ef)" style="stroke: #000000; stroke-linecap: round"/>
   </g>
   <g id="patch_5">
    <path d="M 219.397311 308.197987 
Q 235.252069 311.903952 250.018138 315.355442 
" clip-path="url(#paf936e34ef)" style="fill: none; stroke: #000000; stroke-linecap: round"/>
    <path d="M 246.578347 312.497499 
L 250.018138 315.355442 
L 245.667909 316.392509 
L 246.578347 312.497499 
z
" clip-path="url(#paf936e34ef)" style="stroke: #000000; stroke-linecap: round"/>
   </g>
   <g id="patch_6">
    <path d="M 420.813223 135.312557 
Q 408.771383 128.964809 397.718574 123.13842 
" clip-path="url(#paf936e34ef)" style="fill: none; stroke: #000000; stroke-linecap: round"/>
    <path d="M 400.324407 126.772926 
L 397.718574 123.13842 
L 402.189679 123.234458 
L 400.324407 126.772926 
z
" clip-path="url(#paf936e34ef)" style="stroke: #000000; stroke-linecap: round"/>
   </g>
   <g id="text_1">
    <g id="patch_7">
     <path d="M 108.109061 54.284748 
L 119.343508 35.061188 
Q 120.857202 32.471066 118.26708 30.957372 
L 109.911239 26.074133 
Q 107.321117 24.560439 105.807423 27.15056 
L 94.572977 46.37412 
Q 93.059283 48.964242 95.649404 50.477936 
L 104.005245 55.361176 
Q 106.595367 56.87487 108.109061 54.284748 
z
" clip-path="url(#paf936e34ef)" style="fill: #ffffff; stroke: #ffffff; stroke-linejoin: miter"/>
    </g>
    <g clip-path="url(#paf936e34ef)">
     <!-- 0.56 -->
     <g transform="translate(103.723391 51.721717)rotate(-59.697544)scale(0.1 -0.1)">
      <defs>
       <path id="DejaVuSans-30" d="M 2034 4250 
Q 1547 4250 1301 3770 
Q 1056 3291 1056 2328 
Q 1056 1369 1301 889 
Q 1547 409 2034 409 
Q 2525 409 2770 889 
Q 3016 1369 3016 2328 
Q 3016 3291 2770 3770 
Q 2525 4250 2034 4250 
z
M 2034 4750 
Q 2819 4750 3233 4129 
Q 3647 3509 3647 2328 
Q 3647 1150 3233 529 
Q 2819 -91 2034 -91 
Q 1250 -91 836 529 
Q 422 1150 422 2328 
Q 422 3509 836 4129 
Q 1250 4750 2034 4750 
z
" transform="scale(0.015625)"/>
       <path id="DejaVuSans-2e" d="M 684 794 
L 1344 794 
L 1344 0 
L 684 0 
L 684 794 
z
" transform="scale(0.015625)"/>
       <path id="DejaVuSans-35" d="M 691 4666 
L 3169 4666 
L 3169 4134 
L 1269 4134 
L 1269 2991 
Q 1406 3038 1543 3061 
Q 1681 3084 1819 3084 
Q 2600 3084 3056 2656 
Q 3513 2228 3513 1497 
Q 3513 744 3044 326 
Q 2575 -91 1722 -91 
Q 1428 -91 1123 -41 
Q 819 9 494 109 
L 494 744 
Q 775 591 1075 516 
Q 1375 441 1709 441 
Q 2250 441 2565 725 
Q 2881 1009 2881 1497 
Q 2881 1984 2565 2268 
Q 2250 2553 1709 2553 
Q 1456 2553 1204 2497 
Q 953 2441 691 2322 
L 691 4666 
z
" transform="scale(0.015625)"/>
       <path id="DejaVuSans-36" d="M 2113 2584 
Q 1688 2584 1439 2293 
Q 1191 2003 1191 1497 
Q 1191 994 1439 701 
Q 1688 409 2113 409 
Q 2538 409 2786 701 
Q 3034 994 3034 1497 
Q 3034 2003 2786 2293 
Q 2538 2584 2113 2584 
z
M 3366 4563 
L 3366 3988 
Q 3128 4100 2886 4159 
Q 2644 4219 2406 4219 
Q 1781 4219 1451 3797 
Q 1122 3375 1075 2522 
Q 1259 2794 1537 2939 
Q 1816 3084 2150 3084 
Q 2853 3084 3261 2657 
Q 3669 2231 3669 1497 
Q 3669 778 3244 343 
Q 2819 -91 2113 -91 
Q 1303 -91 875 529 
Q 447 1150 447 2328 
Q 447 3434 972 4092 
Q 1497 4750 2381 4750 
Q 2619 4750 2861 4703 
Q 3103 4656 3366 4563 
z
" transform="scale(0.015625)"/>
      </defs>
      <use xlink:href="#DejaVuSans-30"/>
      <use xlink:href="#DejaVuSans-2e" x="63.623047"/>
      <use xlink:href="#DejaVuSans-35" x="95.410156"/>
      <use xlink:href="#DejaVuSans-36" x="159.033203"/>
     </g>
    </g>
   </g>
   <g id="text_2">
    <g id="patch_8">
     <path d="M 257.110131 322.661907 
L 279.14623 319.473114 
Q 282.115304 319.043466 281.685656 316.074392 
L 280.299594 306.496034 
Q 279.869946 303.52696 276.900872 303.956608 
L 254.864773 307.1454 
Q 251.895699 307.575048 252.325347 310.544122 
L 253.711408 320.12248 
Q 254.141056 323.091555 257.110131 322.661907 
z
" clip-path="url(#paf936e34ef)" style="fill: #ffffff; stroke: #ffffff; stroke-linejoin: miter"/>
    </g>
    <g clip-path="url(#paf936e34ef)">
     <!-- 0.56 -->
     <g transform="translate(256.382638 317.634583)rotate(-8.233982)scale(0.1 -0.1)">
      <use xlink:href="#DejaVuSans-30"/>
      <use xlink:href="#DejaVuSans-2e" x="63.623047"/>
      <use xlink:href="#DejaVuSans-35" x="95.410156"/>
      <use xlink:href="#DejaVuSans-36" x="159.033203"/>
     </g>
    </g>
   </g>
   <g id="text_3">
    <g id="patch_9">
     <path d="M 46.142461 201.267668 
L 67.999161 197.019997 
Q 70.944064 196.447679 70.371746 193.502776 
L 68.525424 184.002397 
Q 67.953107 181.057494 65.008204 181.629812 
L 43.151504 185.877484 
Q 40.206601 186.449802 40.778919 189.394704 
L 42.62524 198.895083 
Q 43.197558 201.839986 46.142461 201.267668 
z
" clip-path="url(#paf936e34ef)" style="fill: #ffffff; stroke: #ffffff; stroke-linejoin: miter"/>
    </g>
    <g clip-path="url(#paf936e34ef)">
     <!-- 0.71 -->
     <g transform="translate(45.173395 196.281273)rotate(-10.997877)scale(0.1 -0.1)">
      <defs>
       <path id="DejaVuSans-37" d="M 525 4666 
L 3525 4666 
L 3525 4397 
L 1831 0 
L 1172 0 
L 2766 4134 
L 525 4134 
L 525 4666 
z
" transform="scale(0.015625)"/>
       <path id="DejaVuSans-31" d="M 794 531 
L 1825 531 
L 1825 4091 
L 703 3866 
L 703 4441 
L 1819 4666 
L 2450 4666 
L 2450 531 
L 3481 531 
L 3481 0 
L 794 0 
L 794 531 
z
" transform="scale(0.015625)"/>
      </defs>
      <use xlink:href="#DejaVuSans-30"/>
      <use xlink:href="#DejaVuSans-2e" x="63.623047"/>
      <use xlink:href="#DejaVuSans-37" x="95.410156"/>
      <use xlink:href="#DejaVuSans-31" x="159.033203"/>
     </g>
    </g>
   </g>
   <g id="text_4">
    <g id="patch_10">
     <path d="M 222.626694 317.003202 
L 244.307902 322.071069 
Q 247.229159 322.753898 247.911987 319.83264 
L 250.11482 310.408542 
Q 250.797649 307.487284 247.876391 306.804456 
L 226.195183 301.736589 
Q 223.273926 301.05376 222.591097 303.975018 
L 220.388264 313.399116 
Q 219.705436 316.320374 222.626694 317.003202 
z
" clip-path="url(#paf936e34ef)" style="fill: #ffffff; stroke: #ffffff; stroke-linejoin: miter"/>
    </g>
    <g clip-path="url(#paf936e34ef)">
     <!-- 0.62 -->
     <g transform="translate(223.782878 312.056844)rotate(-346.843628)scale(0.1 -0.1)">
      <defs>
       <path id="DejaVuSans-32" d="M 1228 531 
L 3431 531 
L 3431 0 
L 469 0 
L 469 531 
Q 828 903 1448 1529 
Q 2069 2156 2228 2338 
Q 2531 2678 2651 2914 
Q 2772 3150 2772 3378 
Q 2772 3750 2511 3984 
Q 2250 4219 1831 4219 
Q 1534 4219 1204 4116 
Q 875 4013 500 3803 
L 500 4441 
Q 881 4594 1212 4672 
Q 1544 4750 1819 4750 
Q 2544 4750 2975 4387 
Q 3406 4025 3406 3419 
Q 3406 3131 3298 2873 
Q 3191 2616 2906 2266 
Q 2828 2175 2409 1742 
Q 1991 1309 1228 531 
z
" transform="scale(0.015625)"/>
      </defs>
      <use xlink:href="#DejaVuSans-30"/>
      <use xlink:href="#DejaVuSans-2e" x="63.623047"/>
      <use xlink:href="#DejaVuSans-36" x="95.410156"/>
      <use xlink:href="#DejaVuSans-32" x="159.033203"/>
     </g>
    </g>
   </g>
   <g id="text_5">
    <g id="patch_11">
     <path d="M 395.270006 130.70921 
L 414.96656 141.092072 
Q 417.620411 142.491026 419.019365 139.837175 
L 423.532449 131.275739 
Q 424.931403 128.621888 422.277552 127.222934 
L 402.580998 116.840072 
Q 399.927146 115.441118 398.528192 118.094969 
L 394.015108 126.656405 
Q 392.616154 129.310256 395.270006 130.70921 
z
" clip-path="url(#paf936e34ef)" style="fill: #ffffff; stroke: #ffffff; stroke-linejoin: miter"/>
    </g>
    <g clip-path="url(#paf936e34ef)">
     <!-- 0.62 -->
     <g transform="translate(397.638756 126.215631)rotate(-332.204445)scale(0.1 -0.1)">
      <use xlink:href="#DejaVuSans-30"/>
      <use xlink:href="#DejaVuSans-2e" x="63.623047"/>
      <use xlink:href="#DejaVuSans-36" x="95.410156"/>
      <use xlink:href="#DejaVuSans-32" x="159.033203"/>
     </g>
    </g>
   </g>
   <g id="PathCollection_1">
    <path d="M 113.227546 80.338866 
C 126.580199 80.338866 139.38776 75.033801 148.829512 65.592049 
C 158.271264 56.150297 163.576329 43.342736 163.576329 29.990083 
C 163.576329 16.637429 158.271264 3.829868 148.829512 -5.611884 
C 139.38776 -15.053635 126.580199 -20.358701 113.227546 -20.358701 
C 99.874892 -20.358701 87.067331 -15.053635 77.625579 -5.611884 
C 68.183828 3.829868 62.878762 16.637429 62.878762 29.990083 
C 62.878762 43.342736 68.183828 56.150297 77.625579 65.592049 
C 87.067331 75.033801 99.874892 80.338866 113.227546 80.338866 
z
" clip-path="url(#paf936e34ef)" style="fill: #808080; stroke: #808080"/>
    <path d="M 100.689205 121.15847 
C 119.177494 121.15847 136.91104 113.812995 149.984235 100.7398 
C 163.05743 87.666605 170.402905 69.933059 170.402905 51.44477 
C 170.402905 32.95648 163.05743 15.222934 149.984235 2.14974 
C 136.91104 -10.923455 119.177494 -18.26893 100.689205 -18.26893 
C 82.200916 -18.26893 64.46737 -10.923455 51.394175 2.14974 
C 38.32098 15.222934 30.975505 32.95648 30.975505 51.44477 
C 30.975505 69.933059 38.32098 87.666605 51.394175 100.7398 
C 64.46737 113.812995 82.200916 121.15847 100.689205 121.15847 
z
" clip-path="url(#paf936e34ef)" style="fill: #808080; stroke: #808080"/>
    <path d="M 251.106827 377.577651 
C 267.540862 377.577651 283.304014 371.04834 294.924631 359.427722 
C 306.545249 347.807104 313.07456 332.043952 313.07456 315.609917 
C 313.07456 299.175882 306.545249 283.41273 294.924631 271.792113 
C 283.304014 260.171495 267.540862 253.642184 251.106827 253.642184 
C 234.672792 253.642184 218.90964 260.171495 207.289022 271.792113 
C 195.668405 283.41273 189.139093 299.175882 189.139093 315.609917 
C 189.139093 332.043952 195.668405 347.807104 207.289022 359.427722 
C 218.90964 371.04834 234.672792 377.577651 251.106827 377.577651 
z
" clip-path="url(#paf936e34ef)" style="fill: #808080; stroke: #808080"/>
    <path d="M 219.397311 358.54677 
C 232.749965 358.54677 245.557526 353.241705 254.999277 343.799953 
C 264.441029 334.358201 269.746095 321.55064 269.746095 308.197987 
C 269.746095 294.845333 264.441029 282.037772 254.999277 272.596021 
C 245.557526 263.154269 232.749965 257.849203 219.397311 257.849203 
C 206.044658 257.849203 193.237097 263.154269 183.795345 272.596021 
C 174.353593 282.037772 169.048528 294.845333 169.048528 308.197987 
C 169.048528 321.55064 174.353593 334.358201 183.795345 343.799953 
C 193.237097 353.241705 206.044658 358.54677 219.397311 358.54677 
z
" clip-path="url(#paf936e34ef)" style="fill: #808080; stroke: #808080"/>
    <path d="M 282.899666 372.976983 
C 299.333701 372.976983 315.096853 366.447672 326.717471 354.827054 
C 338.338088 343.206437 344.8674 327.443285 344.8674 311.00925 
C 344.8674 294.575215 338.338088 278.812063 326.717471 267.191445 
C 315.096853 255.570827 299.333701 249.041516 282.899666 249.041516 
C 266.465631 249.041516 250.702479 255.570827 239.081862 267.191445 
C 227.461244 278.812063 220.931933 294.575215 220.931933 311.00925 
C 220.931933 327.443285 227.461244 343.206437 239.081862 354.827054 
C 250.702479 366.447672 266.465631 372.976983 282.899666 372.976983 
z
" clip-path="url(#paf936e34ef)" style="fill: #808080; stroke: #808080"/>
    <path d="M 39.986777 244.827033 
C 53.33943 244.827033 66.146991 239.521967 75.588743 230.080215 
C 85.030495 220.638463 90.33556 207.830903 90.33556 194.478249 
C 90.33556 181.125596 85.030495 168.318035 75.588743 158.876283 
C 66.146991 149.434531 53.33943 144.129466 39.986777 144.129466 
C 26.634123 144.129466 13.826562 149.434531 4.384811 158.876283 
C -5.056941 168.318035 -10.362007 181.125596 -10.362007 194.478249 
C -10.362007 207.830903 -5.056941 220.638463 4.384811 230.080215 
C 13.826562 239.521967 26.634123 244.827033 39.986777 244.827033 
z
" clip-path="url(#paf936e34ef)" style="fill: #808080; stroke: #808080"/>
    <path d="M 71.167304 262.005251 
C 90.682721 262.005251 109.401464 254.251694 123.200947 240.45221 
C 137.00043 226.652727 144.753988 207.933984 144.753988 188.418567 
C 144.753988 168.903151 137.00043 150.184408 123.200947 136.384924 
C 109.401464 122.585441 90.682721 114.831884 71.167304 114.831884 
C 51.651887 114.831884 32.933145 122.585441 19.133661 136.384924 
C 5.334178 150.184408 -2.41938 168.903151 -2.41938 188.418567 
C -2.41938 207.933984 5.334178 226.652727 19.133661 240.45221 
C 32.933145 254.251694 51.651887 262.005251 71.167304 262.005251 
z
" clip-path="url(#paf936e34ef)" style="fill: #808080; stroke: #808080"/>
    <path d="M 420.813223 189.534324 
C 435.193004 189.534324 448.985762 183.821177 459.153802 173.653136 
C 469.321843 163.485096 475.03499 149.692338 475.03499 135.312557 
C 475.03499 120.932777 469.321843 107.140019 459.153802 96.971978 
C 448.985762 86.803938 435.193004 81.09079 420.813223 81.09079 
C 406.433442 81.09079 392.640685 86.803938 382.472644 96.971978 
C 372.304604 107.140019 366.591456 120.932777 366.591456 135.312557 
C 366.591456 149.692338 372.304604 163.485096 382.472644 173.653136 
C 392.640685 183.821177 406.433442 189.534324 420.813223 189.534324 
z
" clip-path="url(#paf936e34ef)" style="fill: #808080; stroke: #808080"/>
    <path d="M 396.729542 192.330761 
C 415.217831 192.330761 432.951377 184.985285 446.024572 171.912091 
C 459.097767 158.838896 466.443242 141.10535 466.443242 122.61706 
C 466.443242 104.128771 459.097767 86.395225 446.024572 73.32203 
C 432.951377 60.248835 415.217831 52.90336 396.729542 52.90336 
C 378.241253 52.90336 360.507707 60.248835 347.434512 73.32203 
C 334.361317 86.395225 327.015842 104.128771 327.015842 122.61706 
C 327.015842 141.10535 334.361317 158.838896 347.434512 171.912091 
C 360.507707 184.985285 378.241253 192.330761 396.729542 192.330761 
z
" clip-path="url(#paf936e34ef)" style="fill: #808080; stroke: #808080"/>
   </g>
   <g id="text_6">
    <g clip-path="url(#paf936e34ef)">
     <!-- Pablo and Ugo -->
     <g transform="translate(70.081921 33.301333)scale(0.12 -0.12)">
      <defs>
       <path id="DejaVuSans-50" d="M 1259 4147 
L 1259 2394 
L 2053 2394 
Q 2494 2394 2734 2622 
Q 2975 2850 2975 3272 
Q 2975 3691 2734 3919 
Q 2494 4147 2053 4147 
L 1259 4147 
z
M 628 4666 
L 2053 4666 
Q 2838 4666 3239 4311 
Q 3641 3956 3641 3272 
Q 3641 2581 3239 2228 
Q 2838 1875 2053 1875 
L 1259 1875 
L 1259 0 
L 628 0 
L 628 4666 
z
" transform="scale(0.015625)"/>
       <path id="DejaVuSans-61" d="M 2194 1759 
Q 1497 1759 1228 1600 
Q 959 1441 959 1056 
Q 959 750 1161 570 
Q 1363 391 1709 391 
Q 2188 391 2477 730 
Q 2766 1069 2766 1631 
L 2766 1759 
L 2194 1759 
z
M 3341 1997 
L 3341 0 
L 2766 0 
L 2766 531 
Q 2569 213 2275 61 
Q 1981 -91 1556 -91 
Q 1019 -91 701 211 
Q 384 513 384 1019 
Q 384 1609 779 1909 
Q 1175 2209 1959 2209 
L 2766 2209 
L 2766 2266 
Q 2766 2663 2505 2880 
Q 2244 3097 1772 3097 
Q 1472 3097 1187 3025 
Q 903 2953 641 2809 
L 641 3341 
Q 956 3463 1253 3523 
Q 1550 3584 1831 3584 
Q 2591 3584 2966 3190 
Q 3341 2797 3341 1997 
z
" transform="scale(0.015625)"/>
       <path id="DejaVuSans-62" d="M 3116 1747 
Q 3116 2381 2855 2742 
Q 2594 3103 2138 3103 
Q 1681 3103 1420 2742 
Q 1159 2381 1159 1747 
Q 1159 1113 1420 752 
Q 1681 391 2138 391 
Q 2594 391 2855 752 
Q 3116 1113 3116 1747 
z
M 1159 2969 
Q 1341 3281 1617 3432 
Q 1894 3584 2278 3584 
Q 2916 3584 3314 3078 
Q 3713 2572 3713 1747 
Q 3713 922 3314 415 
Q 2916 -91 2278 -91 
Q 1894 -91 1617 61 
Q 1341 213 1159 525 
L 1159 0 
L 581 0 
L 581 4863 
L 1159 4863 
L 1159 2969 
z
" transform="scale(0.015625)"/>
       <path id="DejaVuSans-6c" d="M 603 4863 
L 1178 4863 
L 1178 0 
L 603 0 
L 603 4863 
z
" transform="scale(0.015625)"/>
       <path id="DejaVuSans-6f" d="M 1959 3097 
Q 1497 3097 1228 2736 
Q 959 2375 959 1747 
Q 959 1119 1226 758 
Q 1494 397 1959 397 
Q 2419 397 2687 759 
Q 2956 1122 2956 1747 
Q 2956 2369 2687 2733 
Q 2419 3097 1959 3097 
z
M 1959 3584 
Q 2709 3584 3137 3096 
Q 3566 2609 3566 1747 
Q 3566 888 3137 398 
Q 2709 -91 1959 -91 
Q 1206 -91 779 398 
Q 353 888 353 1747 
Q 353 2609 779 3096 
Q 1206 3584 1959 3584 
z
" transform="scale(0.015625)"/>
       <path id="DejaVuSans-20" transform="scale(0.015625)"/>
       <path id="DejaVuSans-6e" d="M 3513 2113 
L 3513 0 
L 2938 0 
L 2938 2094 
Q 2938 2591 2744 2837 
Q 2550 3084 2163 3084 
Q 1697 3084 1428 2787 
Q 1159 2491 1159 1978 
L 1159 0 
L 581 0 
L 581 3500 
L 1159 3500 
L 1159 2956 
Q 1366 3272 1645 3428 
Q 1925 3584 2291 3584 
Q 2894 3584 3203 3211 
Q 3513 2838 3513 2113 
z
" transform="scale(0.015625)"/>
       <path id="DejaVuSans-64" d="M 2906 2969 
L 2906 4863 
L 3481 4863 
L 3481 0 
L 2906 0 
L 2906 525 
Q 2725 213 2448 61 
Q 2172 -91 1784 -91 
Q 1150 -91 751 415 
Q 353 922 353 1747 
Q 353 2572 751 3078 
Q 1150 3584 1784 3584 
Q 2172 3584 2448 3432 
Q 2725 3281 2906 2969 
z
M 947 1747 
Q 947 1113 1208 752 
Q 1469 391 1925 391 
Q 2381 391 2643 752 
Q 2906 1113 2906 1747 
Q 2906 2381 2643 2742 
Q 2381 3103 1925 3103 
Q 1469 3103 1208 2742 
Q 947 2381 947 1747 
z
" transform="scale(0.015625)"/>
       <path id="DejaVuSans-55" d="M 556 4666 
L 1191 4666 
L 1191 1831 
Q 1191 1081 1462 751 
Q 1734 422 2344 422 
Q 2950 422 3222 751 
Q 3494 1081 3494 1831 
L 3494 4666 
L 4128 4666 
L 4128 1753 
Q 4128 841 3676 375 
Q 3225 -91 2344 -91 
Q 1459 -91 1007 375 
Q 556 841 556 1753 
L 556 4666 
z
" transform="scale(0.015625)"/>
       <path id="DejaVuSans-67" d="M 2906 1791 
Q 2906 2416 2648 2759 
Q 2391 3103 1925 3103 
Q 1463 3103 1205 2759 
Q 947 2416 947 1791 
Q 947 1169 1205 825 
Q 1463 481 1925 481 
Q 2391 481 2648 825 
Q 2906 1169 2906 1791 
z
M 3481 434 
Q 3481 -459 3084 -895 
Q 2688 -1331 1869 -1331 
Q 1566 -1331 1297 -1286 
Q 1028 -1241 775 -1147 
L 775 -588 
Q 1028 -725 1275 -790 
Q 1522 -856 1778 -856 
Q 2344 -856 2625 -561 
Q 2906 -266 2906 331 
L 2906 616 
Q 2728 306 2450 153 
Q 2172 0 1784 0 
Q 1141 0 747 490 
Q 353 981 353 1791 
Q 353 2603 747 3093 
Q 1141 3584 1784 3584 
Q 2172 3584 2450 3431 
Q 2728 3278 2906 2969 
L 2906 3500 
L 3481 3500 
L 3481 434 
z
" transform="scale(0.015625)"/>
      </defs>
      <use xlink:href="#DejaVuSans-50"/>
      <use xlink:href="#DejaVuSans-61" x="55.802734"/>
      <use xlink:href="#DejaVuSans-62" x="117.082031"/>
      <use xlink:href="#DejaVuSans-6c" x="180.558594"/>
      <use xlink:href="#DejaVuSans-6f" x="208.341797"/>
      <use xlink:href="#DejaVuSans-20" x="269.523438"/>
      <use xlink:href="#DejaVuSans-61" x="301.310547"/>
      <use xlink:href="#DejaVuSans-6e" x="362.589844"/>
      <use xlink:href="#DejaVuSans-64" x="425.96875"/>
      <use xlink:href="#DejaVuSans-20" x="489.445312"/>
      <use xlink:href="#DejaVuSans-55" x="521.232422"/>
      <use xlink:href="#DejaVuSans-67" x="594.425781"/>
      <use xlink:href="#DejaVuSans-6f" x="657.902344"/>
     </g>
    </g>
   </g>
   <g id="text_7">
    <g clip-path="url(#paf936e34ef)">
     <!-- Nicco and Shintaro -->
     <g transform="translate(44.049205 54.75602)scale(0.12 -0.12)">
      <defs>
       <path id="DejaVuSans-4e" d="M 628 4666 
L 1478 4666 
L 3547 763 
L 3547 4666 
L 4159 4666 
L 4159 0 
L 3309 0 
L 1241 3903 
L 1241 0 
L 628 0 
L 628 4666 
z
" transform="scale(0.015625)"/>
       <path id="DejaVuSans-69" d="M 603 3500 
L 1178 3500 
L 1178 0 
L 603 0 
L 603 3500 
z
M 603 4863 
L 1178 4863 
L 1178 4134 
L 603 4134 
L 603 4863 
z
" transform="scale(0.015625)"/>
       <path id="DejaVuSans-63" d="M 3122 3366 
L 3122 2828 
Q 2878 2963 2633 3030 
Q 2388 3097 2138 3097 
Q 1578 3097 1268 2742 
Q 959 2388 959 1747 
Q 959 1106 1268 751 
Q 1578 397 2138 397 
Q 2388 397 2633 464 
Q 2878 531 3122 666 
L 3122 134 
Q 2881 22 2623 -34 
Q 2366 -91 2075 -91 
Q 1284 -91 818 406 
Q 353 903 353 1747 
Q 353 2603 823 3093 
Q 1294 3584 2113 3584 
Q 2378 3584 2631 3529 
Q 2884 3475 3122 3366 
z
" transform="scale(0.015625)"/>
       <path id="DejaVuSans-53" d="M 3425 4513 
L 3425 3897 
Q 3066 4069 2747 4153 
Q 2428 4238 2131 4238 
Q 1616 4238 1336 4038 
Q 1056 3838 1056 3469 
Q 1056 3159 1242 3001 
Q 1428 2844 1947 2747 
L 2328 2669 
Q 3034 2534 3370 2195 
Q 3706 1856 3706 1288 
Q 3706 609 3251 259 
Q 2797 -91 1919 -91 
Q 1588 -91 1214 -16 
Q 841 59 441 206 
L 441 856 
Q 825 641 1194 531 
Q 1563 422 1919 422 
Q 2459 422 2753 634 
Q 3047 847 3047 1241 
Q 3047 1584 2836 1778 
Q 2625 1972 2144 2069 
L 1759 2144 
Q 1053 2284 737 2584 
Q 422 2884 422 3419 
Q 422 4038 858 4394 
Q 1294 4750 2059 4750 
Q 2388 4750 2728 4690 
Q 3069 4631 3425 4513 
z
" transform="scale(0.015625)"/>
       <path id="DejaVuSans-68" d="M 3513 2113 
L 3513 0 
L 2938 0 
L 2938 2094 
Q 2938 2591 2744 2837 
Q 2550 3084 2163 3084 
Q 1697 3084 1428 2787 
Q 1159 2491 1159 1978 
L 1159 0 
L 581 0 
L 581 4863 
L 1159 4863 
L 1159 2956 
Q 1366 3272 1645 3428 
Q 1925 3584 2291 3584 
Q 2894 3584 3203 3211 
Q 3513 2838 3513 2113 
z
" transform="scale(0.015625)"/>
       <path id="DejaVuSans-74" d="M 1172 4494 
L 1172 3500 
L 2356 3500 
L 2356 3053 
L 1172 3053 
L 1172 1153 
Q 1172 725 1289 603 
Q 1406 481 1766 481 
L 2356 481 
L 2356 0 
L 1766 0 
Q 1100 0 847 248 
Q 594 497 594 1153 
L 594 3053 
L 172 3053 
L 172 3500 
L 594 3500 
L 594 4494 
L 1172 4494 
z
" transform="scale(0.015625)"/>
       <path id="DejaVuSans-72" d="M 2631 2963 
Q 2534 3019 2420 3045 
Q 2306 3072 2169 3072 
Q 1681 3072 1420 2755 
Q 1159 2438 1159 1844 
L 1159 0 
L 581 0 
L 581 3500 
L 1159 3500 
L 1159 2956 
Q 1341 3275 1631 3429 
Q 1922 3584 2338 3584 
Q 2397 3584 2469 3576 
Q 2541 3569 2628 3553 
L 2631 2963 
z
" transform="scale(0.015625)"/>
      </defs>
      <use xlink:href="#DejaVuSans-4e"/>
      <use xlink:href="#DejaVuSans-69" x="74.804688"/>
      <use xlink:href="#DejaVuSans-63" x="102.587891"/>
      <use xlink:href="#DejaVuSans-63" x="157.568359"/>
      <use xlink:href="#DejaVuSans-6f" x="212.548828"/>
      <use xlink:href="#DejaVuSans-20" x="273.730469"/>
      <use xlink:href="#DejaVuSans-61" x="305.517578"/>
      <use xlink:href="#DejaVuSans-6e" x="366.796875"/>
      <use xlink:href="#DejaVuSans-64" x="430.175781"/>
      <use xlink:href="#DejaVuSans-20" x="493.652344"/>
      <use xlink:href="#DejaVuSans-53" x="525.439453"/>
      <use xlink:href="#DejaVuSans-68" x="588.916016"/>
      <use xlink:href="#DejaVuSans-69" x="652.294922"/>
      <use xlink:href="#DejaVuSans-6e" x="680.078125"/>
      <use xlink:href="#DejaVuSans-74" x="743.457031"/>
      <use xlink:href="#DejaVuSans-61" x="782.666016"/>
      <use xlink:href="#DejaVuSans-72" x="843.945312"/>
      <use xlink:href="#DejaVuSans-6f" x="882.808594"/>
     </g>
    </g>
   </g>
   <g id="text_8">
    <g clip-path="url(#paf936e34ef)">
     <!-- Pablo and Xiaoyu -->
     <g transform="translate(199.354014 318.921167)scale(0.12 -0.12)">
      <defs>
       <path id="DejaVuSans-58" d="M 403 4666 
L 1081 4666 
L 2241 2931 
L 3406 4666 
L 4084 4666 
L 2584 2425 
L 4184 0 
L 3506 0 
L 2194 1984 
L 872 0 
L 191 0 
L 1856 2491 
L 403 4666 
z
" transform="scale(0.015625)"/>
       <path id="DejaVuSans-79" d="M 2059 -325 
Q 1816 -950 1584 -1140 
Q 1353 -1331 966 -1331 
L 506 -1331 
L 506 -850 
L 844 -850 
Q 1081 -850 1212 -737 
Q 1344 -625 1503 -206 
L 1606 56 
L 191 3500 
L 800 3500 
L 1894 763 
L 2988 3500 
L 3597 3500 
L 2059 -325 
z
" transform="scale(0.015625)"/>
       <path id="DejaVuSans-75" d="M 544 1381 
L 544 3500 
L 1119 3500 
L 1119 1403 
Q 1119 906 1312 657 
Q 1506 409 1894 409 
Q 2359 409 2629 706 
Q 2900 1003 2900 1516 
L 2900 3500 
L 3475 3500 
L 3475 0 
L 2900 0 
L 2900 538 
Q 2691 219 2414 64 
Q 2138 -91 1772 -91 
Q 1169 -91 856 284 
Q 544 659 544 1381 
z
M 1991 3584 
L 1991 3584 
z
" transform="scale(0.015625)"/>
      </defs>
      <use xlink:href="#DejaVuSans-50"/>
      <use xlink:href="#DejaVuSans-61" x="55.802734"/>
      <use xlink:href="#DejaVuSans-62" x="117.082031"/>
      <use xlink:href="#DejaVuSans-6c" x="180.558594"/>
      <use xlink:href="#DejaVuSans-6f" x="208.341797"/>
      <use xlink:href="#DejaVuSans-20" x="269.523438"/>
      <use xlink:href="#DejaVuSans-61" x="301.310547"/>
      <use xlink:href="#DejaVuSans-6e" x="362.589844"/>
      <use xlink:href="#DejaVuSans-64" x="425.96875"/>
      <use xlink:href="#DejaVuSans-20" x="489.445312"/>
      <use xlink:href="#DejaVuSans-58" x="521.232422"/>
      <use xlink:href="#DejaVuSans-69" x="589.738281"/>
      <use xlink:href="#DejaVuSans-61" x="617.521484"/>
      <use xlink:href="#DejaVuSans-6f" x="678.800781"/>
      <use xlink:href="#DejaVuSans-79" x="739.982422"/>
      <use xlink:href="#DejaVuSans-75" x="799.162109"/>
     </g>
    </g>
   </g>
   <g id="text_9">
    <g clip-path="url(#paf936e34ef)">
     <!-- Nicco and Leo -->
     <g transform="translate(177.268874 311.509237)scale(0.12 -0.12)">
      <defs>
       <path id="DejaVuSans-4c" d="M 628 4666 
L 1259 4666 
L 1259 531 
L 3531 531 
L 3531 0 
L 628 0 
L 628 4666 
z
" transform="scale(0.015625)"/>
       <path id="DejaVuSans-65" d="M 3597 1894 
L 3597 1613 
L 953 1613 
Q 991 1019 1311 708 
Q 1631 397 2203 397 
Q 2534 397 2845 478 
Q 3156 559 3463 722 
L 3463 178 
Q 3153 47 2828 -22 
Q 2503 -91 2169 -91 
Q 1331 -91 842 396 
Q 353 884 353 1716 
Q 353 2575 817 3079 
Q 1281 3584 2069 3584 
Q 2775 3584 3186 3129 
Q 3597 2675 3597 1894 
z
M 3022 2063 
Q 3016 2534 2758 2815 
Q 2500 3097 2075 3097 
Q 1594 3097 1305 2825 
Q 1016 2553 972 2059 
L 3022 2063 
z
" transform="scale(0.015625)"/>
      </defs>
      <use xlink:href="#DejaVuSans-4e"/>
      <use xlink:href="#DejaVuSans-69" x="74.804688"/>
      <use xlink:href="#DejaVuSans-63" x="102.587891"/>
      <use xlink:href="#DejaVuSans-63" x="157.568359"/>
      <use xlink:href="#DejaVuSans-6f" x="212.548828"/>
      <use xlink:href="#DejaVuSans-20" x="273.730469"/>
      <use xlink:href="#DejaVuSans-61" x="305.517578"/>
      <use xlink:href="#DejaVuSans-6e" x="366.796875"/>
      <use xlink:href="#DejaVuSans-64" x="430.175781"/>
      <use xlink:href="#DejaVuSans-20" x="493.652344"/>
      <use xlink:href="#DejaVuSans-4c" x="525.439453"/>
      <use xlink:href="#DejaVuSans-65" x="579.402344"/>
      <use xlink:href="#DejaVuSans-6f" x="640.925781"/>
     </g>
    </g>
   </g>
   <g id="text_10">
    <g clip-path="url(#paf936e34ef)">
     <!-- Leo and Shintaro -->
     <g transform="translate(232.083416 314.3205)scale(0.12 -0.12)">
      <use xlink:href="#DejaVuSans-4c"/>
      <use xlink:href="#DejaVuSans-65" x="53.962891"/>
      <use xlink:href="#DejaVuSans-6f" x="115.486328"/>
      <use xlink:href="#DejaVuSans-20" x="176.667969"/>
      <use xlink:href="#DejaVuSans-61" x="208.455078"/>
      <use xlink:href="#DejaVuSans-6e" x="269.734375"/>
      <use xlink:href="#DejaVuSans-64" x="333.113281"/>
      <use xlink:href="#DejaVuSans-20" x="396.589844"/>
      <use xlink:href="#DejaVuSans-53" x="428.376953"/>
      <use xlink:href="#DejaVuSans-68" x="491.853516"/>
      <use xlink:href="#DejaVuSans-69" x="555.232422"/>
      <use xlink:href="#DejaVuSans-6e" x="583.015625"/>
      <use xlink:href="#DejaVuSans-74" x="646.394531"/>
      <use xlink:href="#DejaVuSans-61" x="685.603516"/>
      <use xlink:href="#DejaVuSans-72" x="746.882812"/>
      <use xlink:href="#DejaVuSans-6f" x="785.746094"/>
     </g>
    </g>
   </g>
   <g id="text_11">
    <g clip-path="url(#paf936e34ef)">
     <!-- Pablo and Leo -->
     <g transform="translate(-1.888536 197.789499)scale(0.12 -0.12)">
      <use xlink:href="#DejaVuSans-50"/>
      <use xlink:href="#DejaVuSans-61" x="55.802734"/>
      <use xlink:href="#DejaVuSans-62" x="117.082031"/>
      <use xlink:href="#DejaVuSans-6c" x="180.558594"/>
      <use xlink:href="#DejaVuSans-6f" x="208.341797"/>
      <use xlink:href="#DejaVuSans-20" x="269.523438"/>
      <use xlink:href="#DejaVuSans-61" x="301.310547"/>
      <use xlink:href="#DejaVuSans-6e" x="362.589844"/>
      <use xlink:href="#DejaVuSans-64" x="425.96875"/>
      <use xlink:href="#DejaVuSans-20" x="489.445312"/>
      <use xlink:href="#DejaVuSans-4c" x="521.232422"/>
      <use xlink:href="#DejaVuSans-65" x="575.195312"/>
      <use xlink:href="#DejaVuSans-6f" x="636.71875"/>
     </g>
    </g>
   </g>
   <g id="text_12">
    <g clip-path="url(#paf936e34ef)">
     <!-- Shintaro and Xiaoyu -->
     <g transform="translate(10.473554 191.729817)scale(0.12 -0.12)">
      <use xlink:href="#DejaVuSans-53"/>
      <use xlink:href="#DejaVuSans-68" x="63.476562"/>
      <use xlink:href="#DejaVuSans-69" x="126.855469"/>
      <use xlink:href="#DejaVuSans-6e" x="154.638672"/>
      <use xlink:href="#DejaVuSans-74" x="218.017578"/>
      <use xlink:href="#DejaVuSans-61" x="257.226562"/>
      <use xlink:href="#DejaVuSans-72" x="318.505859"/>
      <use xlink:href="#DejaVuSans-6f" x="357.369141"/>
      <use xlink:href="#DejaVuSans-20" x="418.550781"/>
      <use xlink:href="#DejaVuSans-61" x="450.337891"/>
      <use xlink:href="#DejaVuSans-6e" x="511.617188"/>
      <use xlink:href="#DejaVuSans-64" x="574.996094"/>
      <use xlink:href="#DejaVuSans-20" x="638.472656"/>
      <use xlink:href="#DejaVuSans-58" x="670.259766"/>
      <use xlink:href="#DejaVuSans-69" x="738.765625"/>
      <use xlink:href="#DejaVuSans-61" x="766.548828"/>
      <use xlink:href="#DejaVuSans-6f" x="827.828125"/>
      <use xlink:href="#DejaVuSans-79" x="889.009766"/>
      <use xlink:href="#DejaVuSans-75" x="948.189453"/>
     </g>
    </g>
   </g>
   <g id="text_13">
    <g clip-path="url(#paf936e34ef)">
     <!-- Leo and Xiaoyu -->
     <g transform="translate(374.631036 138.623807)scale(0.12 -0.12)">
      <use xlink:href="#DejaVuSans-4c"/>
      <use xlink:href="#DejaVuSans-65" x="53.962891"/>
      <use xlink:href="#DejaVuSans-6f" x="115.486328"/>
      <use xlink:href="#DejaVuSans-20" x="176.667969"/>
      <use xlink:href="#DejaVuSans-61" x="208.455078"/>
      <use xlink:href="#DejaVuSans-6e" x="269.734375"/>
      <use xlink:href="#DejaVuSans-64" x="333.113281"/>
      <use xlink:href="#DejaVuSans-20" x="396.589844"/>
      <use xlink:href="#DejaVuSans-58" x="428.376953"/>
      <use xlink:href="#DejaVuSans-69" x="496.882812"/>
      <use xlink:href="#DejaVuSans-61" x="524.666016"/>
      <use xlink:href="#DejaVuSans-6f" x="585.945312"/>
      <use xlink:href="#DejaVuSans-79" x="647.126953"/>
      <use xlink:href="#DejaVuSans-75" x="706.306641"/>
     </g>
    </g>
   </g>
   <g id="text_14">
    <g clip-path="url(#paf936e34ef)">
     <!-- Pablo and Shintaro -->
     <g transform="translate(340.342667 125.92831)scale(0.12 -0.12)">
      <use xlink:href="#DejaVuSans-50"/>
      <use xlink:href="#DejaVuSans-61" x="55.802734"/>
      <use xlink:href="#DejaVuSans-62" x="117.082031"/>
      <use xlink:href="#DejaVuSans-6c" x="180.558594"/>
      <use xlink:href="#DejaVuSans-6f" x="208.341797"/>
      <use xlink:href="#DejaVuSans-20" x="269.523438"/>
      <use xlink:href="#DejaVuSans-61" x="301.310547"/>
      <use xlink:href="#DejaVuSans-6e" x="362.589844"/>
      <use xlink:href="#DejaVuSans-64" x="425.96875"/>
      <use xlink:href="#DejaVuSans-20" x="489.445312"/>
      <use xlink:href="#DejaVuSans-53" x="521.232422"/>
      <use xlink:href="#DejaVuSans-68" x="584.708984"/>
      <use xlink:href="#DejaVuSans-69" x="648.087891"/>
      <use xlink:href="#DejaVuSans-6e" x="675.871094"/>
      <use xlink:href="#DejaVuSans-74" x="739.25"/>
      <use xlink:href="#DejaVuSans-61" x="778.458984"/>
      <use xlink:href="#DejaVuSans-72" x="839.738281"/>
      <use xlink:href="#DejaVuSans-6f" x="878.601562"/>
     </g>
    </g>
   </g>
  </g>
 </g>
 <defs>
  <clipPath id="paf936e34ef">
   <rect x="0" y="0" width="460.8" height="345.6"/>
  </clipPath>
 </defs>
</svg>
