<?xml version="1.0" encoding="utf-8" standalone="no"?>
<!DOCTYPE svg PUBLIC "-//W3C//DTD SVG 1.1//EN"
  "http://www.w3.org/Graphics/SVG/1.1/DTD/svg11.dtd">
<svg xmlns:xlink="http://www.w3.org/1999/xlink" width="460.8pt" height="345.6pt" viewBox="0 0 460.8 345.6" xmlns="http://www.w3.org/2000/svg" version="1.1">
 <metadata>
  <rdf:RDF xmlns:dc="http://purl.org/dc/elements/1.1/" xmlns:cc="http://creativecommons.org/ns#" xmlns:rdf="http://www.w3.org/1999/02/22-rdf-syntax-ns#">
   <cc:Work>
    <dc:type rdf:resource="http://purl.org/dc/dcmitype/StillImage"/>
    <dc:date>2025-06-11T15:40:50.808781</dc:date>
    <dc:format>image/svg+xml</dc:format>
    <dc:creator>
     <cc:Agent>
      <dc:title>Matplotlib v3.5.1, https://matplotlib.org/</dc:title>
     </cc:Agent>
    </dc:creator>
   </cc:Work>
  </rdf:RDF>
 </metadata>
 <defs>
  <style type="text/css">*{stroke-linejoin: round; stroke-linecap: butt}</style>
 </defs>
 <g id="figure_1">
  <g id="patch_1">
   <path d="M 0 345.6 
L 460.8 345.6 
L 460.8 0 
L 0 0 
z
" style="fill: #ffffff"/>
  </g>
  <g id="axes_1">
   <g id="patch_2">
    <path d="M 102.380482 275.344297 
Q 81.657158 252.75808 61.689699 230.995676 
" clip-path="url(#p201a9f8d00)" style="fill: none; stroke: #000000; stroke-linecap: round"/>
    <path d="M 62.920284 235.295171 
L 61.689699 230.995676 
L 65.867646 232.590905 
L 62.920284 235.295171 
z
" clip-path="url(#p201a9f8d00)" style="stroke: #000000; stroke-linecap: round"/>
   </g>
   <g id="patch_3">
    <path d="M 402.205687 197.26394 
Q 335.484343 247.159548 269.658361 296.385584 
" clip-path="url(#p201a9f8d00)" style="fill: none; stroke: #000000; stroke-linecap: round"/>
    <path d="M 274.059474 295.591728 
L 269.658361 296.385584 
L 271.663944 292.38838 
L 274.059474 295.591728 
z
" clip-path="url(#p201a9f8d00)" style="stroke: #000000; stroke-linecap: round"/>
   </g>
   <g id="patch_4">
    <path d="M 165.740675 36.669473 
Q 206.598198 34.246747 246.339646 31.8902 
" clip-path="url(#p201a9f8d00)" style="fill: none; stroke: #000000; stroke-linecap: round"/>
    <path d="M 242.228274 30.130479 
L 246.339646 31.8902 
L 242.465046 34.123465 
L 242.228274 30.130479 
z
" clip-path="url(#p201a9f8d00)" style="stroke: #000000; stroke-linecap: round"/>
   </g>
   <g id="patch_5">
    <path d="M 374.126847 256.743333 
Q 391.234594 229.848668 407.742272 203.897356 
" clip-path="url(#p201a9f8d00)" style="fill: none; stroke: #000000; stroke-linecap: round"/>
    <path d="M 403.907876 206.198966 
L 407.742272 203.897356 
L 407.282922 208.345839 
L 403.907876 206.198966 
z
" clip-path="url(#p201a9f8d00)" style="stroke: #000000; stroke-linecap: round"/>
   </g>
   <g id="patch_6">
    <path d="M 75.058354 106.443827 
Q 215.160715 97.845412 354.147141 89.315485 
" clip-path="url(#p201a9f8d00)" style="fill: none; stroke: #000000; stroke-linecap: round"/>
    <path d="M 350.032139 87.564269 
L 354.147141 89.315485 
L 350.277168 91.556757 
L 350.032139 87.564269 
z
" clip-path="url(#p201a9f8d00)" style="stroke: #000000; stroke-linecap: round"/>
   </g>
   <g id="text_1">
    <g id="patch_7">
     <path d="M 64.427139 245.574299 
L 79.480184 261.980515 
Q 81.508383 264.191036 83.718905 262.162837 
L 90.85014 255.61978 
Q 93.060662 253.59158 91.032462 251.381059 
L 75.979418 234.974843 
Q 73.951218 232.764321 71.740696 234.792521 
L 64.609461 241.335578 
Q 62.39894 243.363777 64.427139 245.574299 
z
" clip-path="url(#p201a9f8d00)" style="fill: #ffffff; stroke: #ffffff; stroke-linejoin: miter"/>
    </g>
    <g clip-path="url(#p201a9f8d00)">
     <!-- 0.56 -->
     <g transform="translate(68.170059 242.140092)rotate(-312.537029)scale(0.1 -0.1)">
      <defs>
       <path id="DejaVuSans-30" d="M 2034 4250 
Q 1547 4250 1301 3770 
Q 1056 3291 1056 2328 
Q 1056 1369 1301 889 
Q 1547 409 2034 409 
Q 2525 409 2770 889 
Q 3016 1369 3016 2328 
Q 3016 3291 2770 3770 
Q 2525 4250 2034 4250 
z
M 2034 4750 
Q 2819 4750 3233 4129 
Q 3647 3509 3647 2328 
Q 3647 1150 3233 529 
Q 2819 -91 2034 -91 
Q 1250 -91 836 529 
Q 422 1150 422 2328 
Q 422 3509 836 4129 
Q 1250 4750 2034 4750 
z
" transform="scale(0.015625)"/>
       <path id="DejaVuSans-2e" d="M 684 794 
L 1344 794 
L 1344 0 
L 684 0 
L 684 794 
z
" transform="scale(0.015625)"/>
       <path id="DejaVuSans-35" d="M 691 4666 
L 3169 4666 
L 3169 4134 
L 1269 4134 
L 1269 2991 
Q 1406 3038 1543 3061 
Q 1681 3084 1819 3084 
Q 2600 3084 3056 2656 
Q 3513 2228 3513 1497 
Q 3513 744 3044 326 
Q 2575 -91 1722 -91 
Q 1428 -91 1123 -41 
Q 819 9 494 109 
L 494 744 
Q 775 591 1075 516 
Q 1375 441 1709 441 
Q 2250 441 2565 725 
Q 2881 1009 2881 1497 
Q 2881 1984 2565 2268 
Q 2250 2553 1709 2553 
Q 1456 2553 1204 2497 
Q 953 2441 691 2322 
L 691 4666 
z
" transform="scale(0.015625)"/>
       <path id="DejaVuSans-36" d="M 2113 2584 
Q 1688 2584 1439 2293 
Q 1191 2003 1191 1497 
Q 1191 994 1439 701 
Q 1688 409 2113 409 
Q 2538 409 2786 701 
Q 3034 994 3034 1497 
Q 3034 2003 2786 2293 
Q 2538 2584 2113 2584 
z
M 3366 4563 
L 3366 3988 
Q 3128 4100 2886 4159 
Q 2644 4219 2406 4219 
Q 1781 4219 1451 3797 
Q 1122 3375 1075 2522 
Q 1259 2794 1537 2939 
Q 1816 3084 2150 3084 
Q 2853 3084 3261 2657 
Q 3669 2231 3669 1497 
Q 3669 778 3244 343 
Q 2819 -91 2113 -91 
Q 1303 -91 875 529 
Q 447 1150 447 2328 
Q 447 3434 972 4092 
Q 1497 4750 2381 4750 
Q 2619 4750 2861 4703 
Q 3103 4656 3366 4563 
z
" transform="scale(0.015625)"/>
      </defs>
      <use xlink:href="#DejaVuSans-30"/>
      <use xlink:href="#DejaVuSans-2e" x="63.623047"/>
      <use xlink:href="#DejaVuSans-35" x="95.410156"/>
      <use xlink:href="#DejaVuSans-36" x="159.033203"/>
     </g>
    </g>
   </g>
   <g id="text_2">
    <g id="patch_8">
     <path d="M 328.162871 262.423284 
L 345.994006 249.088791 
Q 348.396516 247.292144 346.599869 244.889633 
L 340.803809 237.139033 
Q 339.007162 234.736522 336.604651 236.53317 
L 318.773517 249.867663 
Q 316.371006 251.66431 318.167653 254.066821 
L 323.963713 261.817421 
Q 325.76036 264.219932 328.162871 262.423284 
z
" clip-path="url(#p201a9f8d00)" style="fill: #ffffff; stroke: #ffffff; stroke-linejoin: miter"/>
    </g>
    <g clip-path="url(#p201a9f8d00)">
     <!-- 0.56 -->
     <g transform="translate(325.120735 258.355283)rotate(-36.789903)scale(0.1 -0.1)">
      <use xlink:href="#DejaVuSans-30"/>
      <use xlink:href="#DejaVuSans-2e" x="63.623047"/>
      <use xlink:href="#DejaVuSans-35" x="95.410156"/>
      <use xlink:href="#DejaVuSans-36" x="159.033203"/>
     </g>
    </g>
   </g>
   <g id="text_3">
    <g id="patch_9">
     <path d="M 201.750142 42.387053 
L 223.976726 41.069085 
Q 226.971465 40.891506 226.793887 37.896766 
L 226.22101 28.235611 
Q 226.043431 25.240872 223.048691 25.418451 
L 200.822107 26.736419 
Q 197.827368 26.913998 198.004947 29.908738 
L 198.577824 39.569893 
Q 198.755403 42.564632 201.750142 42.387053 
z
" clip-path="url(#p201a9f8d00)" style="fill: #ffffff; stroke: #ffffff; stroke-linejoin: miter"/>
    </g>
    <g clip-path="url(#p201a9f8d00)">
     <!-- 0.71 -->
     <g transform="translate(201.44946 37.316273)rotate(-3.393491)scale(0.1 -0.1)">
      <defs>
       <path id="DejaVuSans-37" d="M 525 4666 
L 3525 4666 
L 3525 4397 
L 1831 0 
L 1172 0 
L 2766 4134 
L 525 4134 
L 525 4666 
z
" transform="scale(0.015625)"/>
       <path id="DejaVuSans-31" d="M 794 531 
L 1825 531 
L 1825 4091 
L 703 3866 
L 703 4441 
L 1819 4666 
L 2450 4666 
L 2450 531 
L 3481 531 
L 3481 0 
L 794 0 
L 794 531 
z
" transform="scale(0.015625)"/>
      </defs>
      <use xlink:href="#DejaVuSans-30"/>
      <use xlink:href="#DejaVuSans-2e" x="63.623047"/>
      <use xlink:href="#DejaVuSans-37" x="95.410156"/>
      <use xlink:href="#DejaVuSans-31" x="159.033203"/>
     </g>
    </g>
   </g>
   <g id="text_4">
    <g id="patch_10">
     <path d="M 392.912537 241.816359 
L 404.862905 223.029481 
Q 406.47306 220.498197 403.941776 218.888042 
L 395.775746 213.693615 
Q 393.244462 212.08346 391.634307 214.614745 
L 379.683939 233.401622 
Q 378.073784 235.932907 380.605069 237.543062 
L 388.771098 242.737488 
Q 391.302382 244.347643 392.912537 241.816359 
z
" clip-path="url(#p201a9f8d00)" style="fill: #ffffff; stroke: #ffffff; stroke-linejoin: miter"/>
    </g>
    <g clip-path="url(#p201a9f8d00)">
     <!-- 0.62 -->
     <g transform="translate(388.626493 239.089997)rotate(-57.539484)scale(0.1 -0.1)">
      <defs>
       <path id="DejaVuSans-32" d="M 1228 531 
L 3431 531 
L 3431 0 
L 469 0 
L 469 531 
Q 828 903 1448 1529 
Q 2069 2156 2228 2338 
Q 2531 2678 2651 2914 
Q 2772 3150 2772 3378 
Q 2772 3750 2511 3984 
Q 2250 4219 1831 4219 
Q 1534 4219 1204 4116 
Q 875 4013 500 3803 
L 500 4441 
Q 881 4594 1212 4672 
Q 1544 4750 1819 4750 
Q 2544 4750 2975 4387 
Q 3406 4025 3406 3419 
Q 3406 3131 3298 2873 
Q 3191 2616 2906 2266 
Q 2828 2175 2409 1742 
Q 1991 1309 1228 531 
z
" transform="scale(0.015625)"/>
      </defs>
      <use xlink:href="#DejaVuSans-30"/>
      <use xlink:href="#DejaVuSans-2e" x="63.623047"/>
      <use xlink:href="#DejaVuSans-36" x="95.410156"/>
      <use xlink:href="#DejaVuSans-32" x="159.033203"/>
     </g>
    </g>
   </g>
   <g id="text_5">
    <g id="patch_11">
     <path d="M 208.398437 106.114241 
L 230.622248 104.750313 
Q 233.616614 104.566541 233.432842 101.572175 
L 232.839988 91.912225 
Q 232.656217 88.917859 229.661851 89.101631 
L 207.43804 90.465559 
Q 204.443674 90.64933 204.627446 93.643696 
L 205.2203 103.303646 
Q 205.404071 106.298012 208.398437 106.114241 
z
" clip-path="url(#p201a9f8d00)" style="fill: #ffffff; stroke: #ffffff; stroke-linejoin: miter"/>
    </g>
    <g clip-path="url(#p201a9f8d00)">
     <!-- 0.62 -->
     <g transform="translate(208.08727 101.044093)rotate(-3.511973)scale(0.1 -0.1)">
      <use xlink:href="#DejaVuSans-30"/>
      <use xlink:href="#DejaVuSans-2e" x="63.623047"/>
      <use xlink:href="#DejaVuSans-36" x="95.410156"/>
      <use xlink:href="#DejaVuSans-32" x="159.033203"/>
     </g>
    </g>
   </g>
   <g id="PathCollection_1">
    <path d="M 115.471988 308.977561 
C 120.607624 308.977561 125.533609 306.937151 129.165052 303.305708 
C 132.796495 299.674265 134.836905 294.74828 134.836905 289.612644 
C 134.836905 284.477008 132.796495 279.551023 129.165052 275.91958 
C 125.533609 272.288137 120.607624 270.247727 115.471988 270.247727 
C 110.336352 270.247727 105.410367 272.288137 101.778924 275.91958 
C 98.147481 279.551023 96.107071 284.477008 96.107071 289.612644 
C 96.107071 294.74828 98.147481 299.674265 101.778924 303.305708 
C 105.410367 306.937151 110.336352 308.977561 115.471988 308.977561 
z
" clip-path="url(#p201a9f8d00)" style="fill: #808080; stroke: #808080"/>
    <path d="M 39.986777 238.325669 
C 48.203794 238.325669 56.08537 235.061013 61.895679 229.250704 
C 67.705988 223.440396 70.970644 215.55882 70.970644 207.341802 
C 70.970644 199.124785 67.705988 191.243209 61.895679 185.4329 
C 56.08537 179.622591 48.203794 176.357935 39.986777 176.357935 
C 31.769759 176.357935 23.888183 179.622591 18.077875 185.4329 
C 12.267566 191.243209 9.00291 199.124785 9.00291 207.341802 
C 9.00291 215.55882 12.267566 223.440396 18.077875 229.250704 
C 23.888183 235.061013 31.769759 238.325669 39.986777 238.325669 
z
" clip-path="url(#p201a9f8d00)" style="fill: #808080; stroke: #808080"/>
    <path d="M 420.813223 206.586738 
C 426.975986 206.586738 432.887168 204.138247 437.2449 199.780515 
C 441.602631 195.422783 444.051123 189.511601 444.051123 183.348838 
C 444.051123 177.186075 441.602631 171.274893 437.2449 166.917162 
C 432.887168 162.55943 426.975986 160.110938 420.813223 160.110938 
C 414.65046 160.110938 408.739278 162.55943 404.381546 166.917162 
C 400.023815 171.274893 397.575323 177.186075 397.575323 183.348838 
C 397.575323 189.511601 400.023815 195.422783 404.381546 199.780515 
C 408.739278 204.138247 414.65046 206.586738 420.813223 206.586738 
z
" clip-path="url(#p201a9f8d00)" style="fill: #808080; stroke: #808080"/>
    <path d="M 363.732547 292.44887 
C 368.868183 292.44887 373.794168 290.40846 377.425611 286.777017 
C 381.057054 283.145574 383.097464 278.219589 383.097464 273.083953 
C 383.097464 267.948317 381.057054 263.022332 377.425611 259.390889 
C 373.794168 255.759446 368.868183 253.719037 363.732547 253.719037 
C 358.596911 253.719037 353.670927 255.759446 350.039483 259.390889 
C 346.40804 263.022332 344.367631 267.948317 344.367631 273.083953 
C 344.367631 278.219589 346.40804 283.145574 350.039483 286.777017 
C 353.670927 290.40846 358.596911 292.44887 363.732547 292.44887 
z
" clip-path="url(#p201a9f8d00)" style="fill: #808080; stroke: #808080"/>
    <path d="M 243.951221 346.593784 
C 252.168239 346.593784 260.049815 343.329128 265.860123 337.51882 
C 271.670432 331.708511 274.935088 323.826935 274.935088 315.609917 
C 274.935088 307.3929 271.670432 299.511324 265.860123 293.701015 
C 260.049815 287.890706 252.168239 284.626051 243.951221 284.626051 
C 235.734204 284.626051 227.852628 287.890706 222.042319 293.701015 
C 216.23201 299.511324 212.967354 307.3929 212.967354 315.609917 
C 212.967354 323.826935 216.23201 331.708511 222.042319 337.51882 
C 227.852628 343.329128 235.734204 346.593784 243.951221 346.593784 
z
" clip-path="url(#p201a9f8d00)" style="fill: #808080; stroke: #808080"/>
    <path d="M 146.413058 57.180458 
C 151.548694 57.180458 156.474679 55.140048 160.106122 51.508605 
C 163.737565 47.877162 165.777975 42.951177 165.777975 37.815541 
C 165.777975 32.679906 163.737565 27.753921 160.106122 24.122478 
C 156.474679 20.491035 151.548694 18.450625 146.413058 18.450625 
C 141.277422 18.450625 136.351437 20.491035 132.719994 24.122478 
C 129.088551 27.753921 127.048141 32.679906 127.048141 37.815541 
C 127.048141 42.951177 129.088551 47.877162 132.719994 51.508605 
C 136.351437 55.140048 141.277422 57.180458 146.413058 57.180458 
z
" clip-path="url(#p201a9f8d00)" style="fill: #808080; stroke: #808080"/>
    <path d="M 278.383752 60.973949 
C 286.60077 60.973949 294.482346 57.709294 300.292655 51.898985 
C 306.102963 46.088676 309.367619 38.2071 309.367619 29.990083 
C 309.367619 21.773065 306.102963 13.891489 300.292655 8.08118 
C 294.482346 2.270872 286.60077 -0.993784 278.383752 -0.993784 
C 270.166735 -0.993784 262.285159 2.270872 256.47485 8.08118 
C 250.664541 13.891489 247.399885 21.773065 247.399885 29.990083 
C 247.399885 38.2071 250.664541 46.088676 256.47485 51.898985 
C 262.285159 57.709294 270.166735 60.973949 278.383752 60.973949 
z
" clip-path="url(#p201a9f8d00)" style="fill: #808080; stroke: #808080"/>
    <path d="M 51.864606 131.105182 
C 58.027369 131.105182 63.938551 128.65669 68.296283 124.298959 
C 72.654014 119.941227 75.102506 114.030045 75.102506 107.867282 
C 75.102506 101.704519 72.654014 95.793337 68.296283 91.435605 
C 63.938551 87.077874 58.027369 84.629382 51.864606 84.629382 
C 45.701843 84.629382 39.790661 87.077874 35.432929 91.435605 
C 31.075198 95.793337 28.626706 101.704519 28.626706 107.867282 
C 28.626706 114.030045 31.075198 119.941227 35.432929 124.298959 
C 39.790661 128.65669 45.701843 131.105182 51.864606 131.105182 
z
" clip-path="url(#p201a9f8d00)" style="fill: #808080; stroke: #808080"/>
    <path d="M 386.193317 118.332601 
C 394.410334 118.332601 402.29191 115.067946 408.102219 109.257637 
C 413.912528 103.447328 417.177184 95.565752 417.177184 87.348735 
C 417.177184 79.131717 413.912528 71.250141 408.102219 65.439832 
C 402.29191 59.629523 394.410334 56.364868 386.193317 56.364868 
C 377.976299 56.364868 370.094723 59.629523 364.284415 65.439832 
C 358.474106 71.250141 355.20945 79.131717 355.20945 87.348735 
C 355.20945 95.565752 358.474106 103.447328 364.284415 109.257637 
C 370.094723 115.067946 377.976299 118.332601 386.193317 118.332601 
z
" clip-path="url(#p201a9f8d00)" style="fill: #808080; stroke: #808080"/>
   </g>
   <g id="text_6">
    <g clip-path="url(#p201a9f8d00)">
     <!-- Pablo -->
     <g transform="translate(99.300113 286.205207)scale(0.12 -0.12)">
      <defs>
       <path id="DejaVuSans-50" d="M 1259 4147 
L 1259 2394 
L 2053 2394 
Q 2494 2394 2734 2622 
Q 2975 2850 2975 3272 
Q 2975 3691 2734 3919 
Q 2494 4147 2053 4147 
L 1259 4147 
z
M 628 4666 
L 2053 4666 
Q 2838 4666 3239 4311 
Q 3641 3956 3641 3272 
Q 3641 2581 3239 2228 
Q 2838 1875 2053 1875 
L 1259 1875 
L 1259 0 
L 628 0 
L 628 4666 
z
" transform="scale(0.015625)"/>
       <path id="DejaVuSans-61" d="M 2194 1759 
Q 1497 1759 1228 1600 
Q 959 1441 959 1056 
Q 959 750 1161 570 
Q 1363 391 1709 391 
Q 2188 391 2477 730 
Q 2766 1069 2766 1631 
L 2766 1759 
L 2194 1759 
z
M 3341 1997 
L 3341 0 
L 2766 0 
L 2766 531 
Q 2569 213 2275 61 
Q 1981 -91 1556 -91 
Q 1019 -91 701 211 
Q 384 513 384 1019 
Q 384 1609 779 1909 
Q 1175 2209 1959 2209 
L 2766 2209 
L 2766 2266 
Q 2766 2663 2505 2880 
Q 2244 3097 1772 3097 
Q 1472 3097 1187 3025 
Q 903 2953 641 2809 
L 641 3341 
Q 956 3463 1253 3523 
Q 1550 3584 1831 3584 
Q 2591 3584 2966 3190 
Q 3341 2797 3341 1997 
z
" transform="scale(0.015625)"/>
       <path id="DejaVuSans-62" d="M 3116 1747 
Q 3116 2381 2855 2742 
Q 2594 3103 2138 3103 
Q 1681 3103 1420 2742 
Q 1159 2381 1159 1747 
Q 1159 1113 1420 752 
Q 1681 391 2138 391 
Q 2594 391 2855 752 
Q 3116 1113 3116 1747 
z
M 1159 2969 
Q 1341 3281 1617 3432 
Q 1894 3584 2278 3584 
Q 2916 3584 3314 3078 
Q 3713 2572 3713 1747 
Q 3713 922 3314 415 
Q 2916 -91 2278 -91 
Q 1894 -91 1617 61 
Q 1341 213 1159 525 
L 1159 0 
L 581 0 
L 581 4863 
L 1159 4863 
L 1159 2969 
z
" transform="scale(0.015625)"/>
       <path id="DejaVuSans-6c" d="M 603 4863 
L 1178 4863 
L 1178 0 
L 603 0 
L 603 4863 
z
" transform="scale(0.015625)"/>
       <path id="DejaVuSans-6f" d="M 1959 3097 
Q 1497 3097 1228 2736 
Q 959 2375 959 1747 
Q 959 1119 1226 758 
Q 1494 397 1959 397 
Q 2419 397 2687 759 
Q 2956 1122 2956 1747 
Q 2956 2369 2687 2733 
Q 2419 3097 1959 3097 
z
M 1959 3584 
Q 2709 3584 3137 3096 
Q 3566 2609 3566 1747 
Q 3566 888 3137 398 
Q 2709 -91 1959 -91 
Q 1206 -91 779 398 
Q 353 888 353 1747 
Q 353 2609 779 3096 
Q 1206 3584 1959 3584 
z
" transform="scale(0.015625)"/>
      </defs>
      <use xlink:href="#DejaVuSans-50"/>
      <use xlink:href="#DejaVuSans-61" x="55.802734"/>
      <use xlink:href="#DejaVuSans-62" x="117.082031"/>
      <use xlink:href="#DejaVuSans-6c" x="180.558594"/>
      <use xlink:href="#DejaVuSans-6f" x="208.341797"/>
     </g>
    </g>
    <g clip-path="url(#p201a9f8d00)">
     <!-- Ugo -->
     <g transform="translate(103.600426 299.642582)scale(0.12 -0.12)">
      <defs>
       <path id="DejaVuSans-55" d="M 556 4666 
L 1191 4666 
L 1191 1831 
Q 1191 1081 1462 751 
Q 1734 422 2344 422 
Q 2950 422 3222 751 
Q 3494 1081 3494 1831 
L 3494 4666 
L 4128 4666 
L 4128 1753 
Q 4128 841 3676 375 
Q 3225 -91 2344 -91 
Q 1459 -91 1007 375 
Q 556 841 556 1753 
L 556 4666 
z
" transform="scale(0.015625)"/>
       <path id="DejaVuSans-67" d="M 2906 1791 
Q 2906 2416 2648 2759 
Q 2391 3103 1925 3103 
Q 1463 3103 1205 2759 
Q 947 2416 947 1791 
Q 947 1169 1205 825 
Q 1463 481 1925 481 
Q 2391 481 2648 825 
Q 2906 1169 2906 1791 
z
M 3481 434 
Q 3481 -459 3084 -895 
Q 2688 -1331 1869 -1331 
Q 1566 -1331 1297 -1286 
Q 1028 -1241 775 -1147 
L 775 -588 
Q 1028 -725 1275 -790 
Q 1522 -856 1778 -856 
Q 2344 -856 2625 -561 
Q 2906 -266 2906 331 
L 2906 616 
Q 2728 306 2450 153 
Q 2172 0 1784 0 
Q 1141 0 747 490 
Q 353 981 353 1791 
Q 353 2603 747 3093 
Q 1141 3584 1784 3584 
Q 2172 3584 2450 3431 
Q 2728 3278 2906 2969 
L 2906 3500 
L 3481 3500 
L 3481 434 
z
" transform="scale(0.015625)"/>
      </defs>
      <use xlink:href="#DejaVuSans-55"/>
      <use xlink:href="#DejaVuSans-67" x="73.193359"/>
      <use xlink:href="#DejaVuSans-6f" x="136.669922"/>
     </g>
    </g>
   </g>
   <g id="text_7">
    <g clip-path="url(#p201a9f8d00)">
     <!-- Nicco -->
     <g transform="translate(23.561777 203.934365)scale(0.12 -0.12)">
      <defs>
       <path id="DejaVuSans-4e" d="M 628 4666 
L 1478 4666 
L 3547 763 
L 3547 4666 
L 4159 4666 
L 4159 0 
L 3309 0 
L 1241 3903 
L 1241 0 
L 628 0 
L 628 4666 
z
" transform="scale(0.015625)"/>
       <path id="DejaVuSans-69" d="M 603 3500 
L 1178 3500 
L 1178 0 
L 603 0 
L 603 3500 
z
M 603 4863 
L 1178 4863 
L 1178 4134 
L 603 4134 
L 603 4863 
z
" transform="scale(0.015625)"/>
       <path id="DejaVuSans-63" d="M 3122 3366 
L 3122 2828 
Q 2878 2963 2633 3030 
Q 2388 3097 2138 3097 
Q 1578 3097 1268 2742 
Q 959 2388 959 1747 
Q 959 1106 1268 751 
Q 1578 397 2138 397 
Q 2388 397 2633 464 
Q 2878 531 3122 666 
L 3122 134 
Q 2881 22 2623 -34 
Q 2366 -91 2075 -91 
Q 1284 -91 818 406 
Q 353 903 353 1747 
Q 353 2603 823 3093 
Q 1294 3584 2113 3584 
Q 2378 3584 2631 3529 
Q 2884 3475 3122 3366 
z
" transform="scale(0.015625)"/>
      </defs>
      <use xlink:href="#DejaVuSans-4e"/>
      <use xlink:href="#DejaVuSans-69" x="74.804688"/>
      <use xlink:href="#DejaVuSans-63" x="102.587891"/>
      <use xlink:href="#DejaVuSans-63" x="157.568359"/>
      <use xlink:href="#DejaVuSans-6f" x="212.548828"/>
     </g>
    </g>
    <g clip-path="url(#p201a9f8d00)">
     <!-- Shintaro -->
     <g transform="translate(14.873964 217.37174)scale(0.12 -0.12)">
      <defs>
       <path id="DejaVuSans-53" d="M 3425 4513 
L 3425 3897 
Q 3066 4069 2747 4153 
Q 2428 4238 2131 4238 
Q 1616 4238 1336 4038 
Q 1056 3838 1056 3469 
Q 1056 3159 1242 3001 
Q 1428 2844 1947 2747 
L 2328 2669 
Q 3034 2534 3370 2195 
Q 3706 1856 3706 1288 
Q 3706 609 3251 259 
Q 2797 -91 1919 -91 
Q 1588 -91 1214 -16 
Q 841 59 441 206 
L 441 856 
Q 825 641 1194 531 
Q 1563 422 1919 422 
Q 2459 422 2753 634 
Q 3047 847 3047 1241 
Q 3047 1584 2836 1778 
Q 2625 1972 2144 2069 
L 1759 2144 
Q 1053 2284 737 2584 
Q 422 2884 422 3419 
Q 422 4038 858 4394 
Q 1294 4750 2059 4750 
Q 2388 4750 2728 4690 
Q 3069 4631 3425 4513 
z
" transform="scale(0.015625)"/>
       <path id="DejaVuSans-68" d="M 3513 2113 
L 3513 0 
L 2938 0 
L 2938 2094 
Q 2938 2591 2744 2837 
Q 2550 3084 2163 3084 
Q 1697 3084 1428 2787 
Q 1159 2491 1159 1978 
L 1159 0 
L 581 0 
L 581 4863 
L 1159 4863 
L 1159 2956 
Q 1366 3272 1645 3428 
Q 1925 3584 2291 3584 
Q 2894 3584 3203 3211 
Q 3513 2838 3513 2113 
z
" transform="scale(0.015625)"/>
       <path id="DejaVuSans-6e" d="M 3513 2113 
L 3513 0 
L 2938 0 
L 2938 2094 
Q 2938 2591 2744 2837 
Q 2550 3084 2163 3084 
Q 1697 3084 1428 2787 
Q 1159 2491 1159 1978 
L 1159 0 
L 581 0 
L 581 3500 
L 1159 3500 
L 1159 2956 
Q 1366 3272 1645 3428 
Q 1925 3584 2291 3584 
Q 2894 3584 3203 3211 
Q 3513 2838 3513 2113 
z
" transform="scale(0.015625)"/>
       <path id="DejaVuSans-74" d="M 1172 4494 
L 1172 3500 
L 2356 3500 
L 2356 3053 
L 1172 3053 
L 1172 1153 
Q 1172 725 1289 603 
Q 1406 481 1766 481 
L 2356 481 
L 2356 0 
L 1766 0 
Q 1100 0 847 248 
Q 594 497 594 1153 
L 594 3053 
L 172 3053 
L 172 3500 
L 594 3500 
L 594 4494 
L 1172 4494 
z
" transform="scale(0.015625)"/>
       <path id="DejaVuSans-72" d="M 2631 2963 
Q 2534 3019 2420 3045 
Q 2306 3072 2169 3072 
Q 1681 3072 1420 2755 
Q 1159 2438 1159 1844 
L 1159 0 
L 581 0 
L 581 3500 
L 1159 3500 
L 1159 2956 
Q 1341 3275 1631 3429 
Q 1922 3584 2338 3584 
Q 2397 3584 2469 3576 
Q 2541 3569 2628 3553 
L 2631 2963 
z
" transform="scale(0.015625)"/>
      </defs>
      <use xlink:href="#DejaVuSans-53"/>
      <use xlink:href="#DejaVuSans-68" x="63.476562"/>
      <use xlink:href="#DejaVuSans-69" x="126.855469"/>
      <use xlink:href="#DejaVuSans-6e" x="154.638672"/>
      <use xlink:href="#DejaVuSans-74" x="218.017578"/>
      <use xlink:href="#DejaVuSans-61" x="257.226562"/>
      <use xlink:href="#DejaVuSans-72" x="318.505859"/>
      <use xlink:href="#DejaVuSans-6f" x="357.369141"/>
     </g>
    </g>
   </g>
   <g id="text_8">
    <g clip-path="url(#p201a9f8d00)">
     <!-- Pablo -->
     <g transform="translate(404.641348 179.941401)scale(0.12 -0.12)">
      <use xlink:href="#DejaVuSans-50"/>
      <use xlink:href="#DejaVuSans-61" x="55.802734"/>
      <use xlink:href="#DejaVuSans-62" x="117.082031"/>
      <use xlink:href="#DejaVuSans-6c" x="180.558594"/>
      <use xlink:href="#DejaVuSans-6f" x="208.341797"/>
     </g>
    </g>
    <g clip-path="url(#p201a9f8d00)">
     <!-- Xiaoyu -->
     <g transform="translate(400.334473 193.378776)scale(0.12 -0.12)">
      <defs>
       <path id="DejaVuSans-58" d="M 403 4666 
L 1081 4666 
L 2241 2931 
L 3406 4666 
L 4084 4666 
L 2584 2425 
L 4184 0 
L 3506 0 
L 2194 1984 
L 872 0 
L 191 0 
L 1856 2491 
L 403 4666 
z
" transform="scale(0.015625)"/>
       <path id="DejaVuSans-79" d="M 2059 -325 
Q 1816 -950 1584 -1140 
Q 1353 -1331 966 -1331 
L 506 -1331 
L 506 -850 
L 844 -850 
Q 1081 -850 1212 -737 
Q 1344 -625 1503 -206 
L 1606 56 
L 191 3500 
L 800 3500 
L 1894 763 
L 2988 3500 
L 3597 3500 
L 2059 -325 
z
" transform="scale(0.015625)"/>
       <path id="DejaVuSans-75" d="M 544 1381 
L 544 3500 
L 1119 3500 
L 1119 1403 
Q 1119 906 1312 657 
Q 1506 409 1894 409 
Q 2359 409 2629 706 
Q 2900 1003 2900 1516 
L 2900 3500 
L 3475 3500 
L 3475 0 
L 2900 0 
L 2900 538 
Q 2691 219 2414 64 
Q 2138 -91 1772 -91 
Q 1169 -91 856 284 
Q 544 659 544 1381 
z
M 1991 3584 
L 1991 3584 
z
" transform="scale(0.015625)"/>
      </defs>
      <use xlink:href="#DejaVuSans-58"/>
      <use xlink:href="#DejaVuSans-69" x="68.505859"/>
      <use xlink:href="#DejaVuSans-61" x="96.289062"/>
      <use xlink:href="#DejaVuSans-6f" x="157.568359"/>
      <use xlink:href="#DejaVuSans-79" x="218.75"/>
      <use xlink:href="#DejaVuSans-75" x="277.929688"/>
     </g>
    </g>
   </g>
   <g id="text_9">
    <g clip-path="url(#p201a9f8d00)">
     <!-- Nicco -->
     <g transform="translate(347.307547 269.676516)scale(0.12 -0.12)">
      <use xlink:href="#DejaVuSans-4e"/>
      <use xlink:href="#DejaVuSans-69" x="74.804688"/>
      <use xlink:href="#DejaVuSans-63" x="102.587891"/>
      <use xlink:href="#DejaVuSans-63" x="157.568359"/>
      <use xlink:href="#DejaVuSans-6f" x="212.548828"/>
     </g>
    </g>
    <g clip-path="url(#p201a9f8d00)">
     <!-- Leo -->
     <g transform="translate(353.131297 283.113891)scale(0.12 -0.12)">
      <defs>
       <path id="DejaVuSans-4c" d="M 628 4666 
L 1259 4666 
L 1259 531 
L 3531 531 
L 3531 0 
L 628 0 
L 628 4666 
z
" transform="scale(0.015625)"/>
       <path id="DejaVuSans-65" d="M 3597 1894 
L 3597 1613 
L 953 1613 
Q 991 1019 1311 708 
Q 1631 397 2203 397 
Q 2534 397 2845 478 
Q 3156 559 3463 722 
L 3463 178 
Q 3153 47 2828 -22 
Q 2503 -91 2169 -91 
Q 1331 -91 842 396 
Q 353 884 353 1716 
Q 353 2575 817 3079 
Q 1281 3584 2069 3584 
Q 2775 3584 3186 3129 
Q 3597 2675 3597 1894 
z
M 3022 2063 
Q 3016 2534 2758 2815 
Q 2500 3097 2075 3097 
Q 1594 3097 1305 2825 
Q 1016 2553 972 2059 
L 3022 2063 
z
" transform="scale(0.015625)"/>
      </defs>
      <use xlink:href="#DejaVuSans-4c"/>
      <use xlink:href="#DejaVuSans-65" x="53.962891"/>
      <use xlink:href="#DejaVuSans-6f" x="115.486328"/>
     </g>
    </g>
   </g>
   <g id="text_10">
    <g clip-path="url(#p201a9f8d00)">
     <!-- Leo -->
     <g transform="translate(233.349971 312.20248)scale(0.12 -0.12)">
      <use xlink:href="#DejaVuSans-4c"/>
      <use xlink:href="#DejaVuSans-65" x="53.962891"/>
      <use xlink:href="#DejaVuSans-6f" x="115.486328"/>
     </g>
    </g>
    <g clip-path="url(#p201a9f8d00)">
     <!-- Shintaro -->
     <g transform="translate(218.838409 325.639855)scale(0.12 -0.12)">
      <use xlink:href="#DejaVuSans-53"/>
      <use xlink:href="#DejaVuSans-68" x="63.476562"/>
      <use xlink:href="#DejaVuSans-69" x="126.855469"/>
      <use xlink:href="#DejaVuSans-6e" x="154.638672"/>
      <use xlink:href="#DejaVuSans-74" x="218.017578"/>
      <use xlink:href="#DejaVuSans-61" x="257.226562"/>
      <use xlink:href="#DejaVuSans-72" x="318.505859"/>
      <use xlink:href="#DejaVuSans-6f" x="357.369141"/>
     </g>
    </g>
   </g>
   <g id="text_11">
    <g clip-path="url(#p201a9f8d00)">
     <!-- Pablo -->
     <g transform="translate(130.241183 34.408104)scale(0.12 -0.12)">
      <use xlink:href="#DejaVuSans-50"/>
      <use xlink:href="#DejaVuSans-61" x="55.802734"/>
      <use xlink:href="#DejaVuSans-62" x="117.082031"/>
      <use xlink:href="#DejaVuSans-6c" x="180.558594"/>
      <use xlink:href="#DejaVuSans-6f" x="208.341797"/>
     </g>
    </g>
    <g clip-path="url(#p201a9f8d00)">
     <!-- Leo -->
     <g transform="translate(135.811808 47.845479)scale(0.12 -0.12)">
      <use xlink:href="#DejaVuSans-4c"/>
      <use xlink:href="#DejaVuSans-65" x="53.962891"/>
      <use xlink:href="#DejaVuSans-6f" x="115.486328"/>
     </g>
    </g>
   </g>
   <g id="text_12">
    <g clip-path="url(#p201a9f8d00)">
     <!-- Shintaro -->
     <g transform="translate(253.27094 26.582645)scale(0.12 -0.12)">
      <use xlink:href="#DejaVuSans-53"/>
      <use xlink:href="#DejaVuSans-68" x="63.476562"/>
      <use xlink:href="#DejaVuSans-69" x="126.855469"/>
      <use xlink:href="#DejaVuSans-6e" x="154.638672"/>
      <use xlink:href="#DejaVuSans-74" x="218.017578"/>
      <use xlink:href="#DejaVuSans-61" x="257.226562"/>
      <use xlink:href="#DejaVuSans-72" x="318.505859"/>
      <use xlink:href="#DejaVuSans-6f" x="357.369141"/>
     </g>
    </g>
    <g clip-path="url(#p201a9f8d00)">
     <!-- Xiaoyu -->
     <g transform="translate(257.905002 40.02002)scale(0.12 -0.12)">
      <use xlink:href="#DejaVuSans-58"/>
      <use xlink:href="#DejaVuSans-69" x="68.505859"/>
      <use xlink:href="#DejaVuSans-61" x="96.289062"/>
      <use xlink:href="#DejaVuSans-6f" x="157.568359"/>
      <use xlink:href="#DejaVuSans-79" x="218.75"/>
      <use xlink:href="#DejaVuSans-75" x="277.929688"/>
     </g>
    </g>
   </g>
   <g id="text_13">
    <g clip-path="url(#p201a9f8d00)">
     <!-- Leo -->
     <g transform="translate(41.263356 104.459844)scale(0.12 -0.12)">
      <use xlink:href="#DejaVuSans-4c"/>
      <use xlink:href="#DejaVuSans-65" x="53.962891"/>
      <use xlink:href="#DejaVuSans-6f" x="115.486328"/>
     </g>
    </g>
    <g clip-path="url(#p201a9f8d00)">
     <!-- Xiaoyu -->
     <g transform="translate(31.385856 117.897219)scale(0.12 -0.12)">
      <use xlink:href="#DejaVuSans-58"/>
      <use xlink:href="#DejaVuSans-69" x="68.505859"/>
      <use xlink:href="#DejaVuSans-61" x="96.289062"/>
      <use xlink:href="#DejaVuSans-6f" x="157.568359"/>
      <use xlink:href="#DejaVuSans-79" x="218.75"/>
      <use xlink:href="#DejaVuSans-75" x="277.929688"/>
     </g>
    </g>
   </g>
   <g id="text_14">
    <g clip-path="url(#p201a9f8d00)">
     <!-- Pablo -->
     <g transform="translate(370.021442 83.941297)scale(0.12 -0.12)">
      <use xlink:href="#DejaVuSans-50"/>
      <use xlink:href="#DejaVuSans-61" x="55.802734"/>
      <use xlink:href="#DejaVuSans-62" x="117.082031"/>
      <use xlink:href="#DejaVuSans-6c" x="180.558594"/>
      <use xlink:href="#DejaVuSans-6f" x="208.341797"/>
     </g>
    </g>
    <g clip-path="url(#p201a9f8d00)">
     <!-- Shintaro -->
     <g transform="translate(361.080504 97.378672)scale(0.12 -0.12)">
      <use xlink:href="#DejaVuSans-53"/>
      <use xlink:href="#DejaVuSans-68" x="63.476562"/>
      <use xlink:href="#DejaVuSans-69" x="126.855469"/>
      <use xlink:href="#DejaVuSans-6e" x="154.638672"/>
      <use xlink:href="#DejaVuSans-74" x="218.017578"/>
      <use xlink:href="#DejaVuSans-61" x="257.226562"/>
      <use xlink:href="#DejaVuSans-72" x="318.505859"/>
      <use xlink:href="#DejaVuSans-6f" x="357.369141"/>
     </g>
    </g>
   </g>
  </g>
 </g>
 <defs>
  <clipPath id="p201a9f8d00">
   <rect x="0" y="0" width="460.8" height="345.6"/>
  </clipPath>
 </defs>
</svg>
