<?xml version="1.0" encoding="utf-8" standalone="no"?>
<!DOCTYPE svg PUBLIC "-//W3C//DTD SVG 1.1//EN"
  "http://www.w3.org/Graphics/SVG/1.1/DTD/svg11.dtd">
<svg xmlns:xlink="http://www.w3.org/1999/xlink" width="460.8pt" height="345.6pt" viewBox="0 0 460.8 345.6" xmlns="http://www.w3.org/2000/svg" version="1.1">
 <metadata>
  <rdf:RDF xmlns:dc="http://purl.org/dc/elements/1.1/" xmlns:cc="http://creativecommons.org/ns#" xmlns:rdf="http://www.w3.org/1999/02/22-rdf-syntax-ns#">
   <cc:Work>
    <dc:type rdf:resource="http://purl.org/dc/dcmitype/StillImage"/>
    <dc:date>2025-06-17T18:11:53.163603</dc:date>
    <dc:format>image/svg+xml</dc:format>
    <dc:creator>
     <cc:Agent>
      <dc:title>Matplotlib v3.5.1, https://matplotlib.org/</dc:title>
     </cc:Agent>
    </dc:creator>
   </cc:Work>
  </rdf:RDF>
 </metadata>
 <defs>
  <style type="text/css">*{stroke-linejoin: round; stroke-linecap: butt}</style>
 </defs>
 <g id="figure_1">
  <g id="patch_1">
   <path d="M 0 345.6 
L 460.8 345.6 
L 460.8 0 
L 0 0 
z
" style="fill: #ffffff"/>
  </g>
  <g id="axes_1">
   <g id="patch_2">
    <path d="M 68.695943 226.275961 
Q 91.018843 249.856187 112.573116 272.624494 
" clip-path="url(#pfdbf15bd19)" style="fill: none; stroke: #000000; stroke-linecap: round"/>
    <path d="M 111.275599 268.344722 
L 112.573116 272.624494 
L 108.370788 271.094645 
L 111.275599 268.344722 
z
" clip-path="url(#pfdbf15bd19)" style="stroke: #000000; stroke-linecap: round"/>
   </g>
   <g id="patch_3">
    <path d="M 284.196549 294.39524 
Q 193.03619 200.15678 102.653168 106.721904 
" clip-path="url(#pfdbf15bd19)" style="fill: none; stroke: #000000; stroke-linecap: round"/>
    <path d="M 103.996758 110.987436 
L 102.653168 106.721904 
L 106.871748 108.206351 
L 103.996758 110.987436 
z
" clip-path="url(#pfdbf15bd19)" style="stroke: #000000; stroke-linecap: round"/>
   </g>
   <g id="patch_4">
    <path d="M 119.441659 96.181529 
Q 143.025286 186.694041 166.327013 276.12464 
" clip-path="url(#pfdbf15bd19)" style="fill: none; stroke: #000000; stroke-linecap: round"/>
    <path d="M 167.253843 271.749599 
L 166.327013 276.12464 
L 163.383078 272.758152 
L 167.253843 271.749599 
z
" clip-path="url(#pfdbf15bd19)" style="stroke: #000000; stroke-linecap: round"/>
   </g>
   <g id="patch_5">
    <path d="M 199.508432 61.299189 
Q 262.179558 169.375077 324.289832 276.483781 
" clip-path="url(#pfdbf15bd19)" style="fill: none; stroke: #000000; stroke-linecap: round"/>
    <path d="M 324.01342 272.020195 
L 324.289832 276.483781 
L 320.553116 274.026759 
L 324.01342 272.020195 
z
" clip-path="url(#pfdbf15bd19)" style="stroke: #000000; stroke-linecap: round"/>
   </g>
   <g id="patch_6">
    <path d="M 52.486183 155.52517 
Q 87.671895 113.896062 122.135887 73.12084 
" clip-path="url(#pfdbf15bd19)" style="fill: none; stroke: #000000; stroke-linecap: round"/>
    <path d="M 118.026306 74.884741 
L 122.135887 73.12084 
L 121.081259 77.466845 
L 118.026306 74.884741 
z
" clip-path="url(#pfdbf15bd19)" style="stroke: #000000; stroke-linecap: round"/>
   </g>
   <g id="patch_7">
    <path d="M 214.896615 36.333113 
Q 242.992363 37.998914 269.972036 39.598542 
" clip-path="url(#pfdbf15bd19)" style="fill: none; stroke: #000000; stroke-linecap: round"/>
    <path d="M 266.097421 37.365303 
L 269.972036 39.598542 
L 265.860676 41.358291 
L 266.097421 37.365303 
z
" clip-path="url(#pfdbf15bd19)" style="stroke: #000000; stroke-linecap: round"/>
   </g>
   <g id="patch_8">
    <path d="M 91.418653 239.631348 
Q 171.379865 144.923517 250.619818 51.069962 
" clip-path="url(#pfdbf15bd19)" style="fill: none; stroke: #000000; stroke-linecap: round"/>
    <path d="M 246.51119 52.836081 
L 250.619818 51.069962 
L 249.567537 55.416536 
L 246.51119 52.836081 
z
" clip-path="url(#pfdbf15bd19)" style="stroke: #000000; stroke-linecap: round"/>
   </g>
   <g id="patch_9">
    <path d="M 420.813223 161.616724 
Q 420.798919 165.482406 420.788752 168.23006 
" clip-path="url(#pfdbf15bd19)" style="fill: none; stroke: #000000; stroke-linecap: round"/>
    <path d="M 422.803539 164.237488 
L 420.788752 168.23006 
L 418.803567 164.222687 
L 422.803539 164.237488 
z
" clip-path="url(#pfdbf15bd19)" style="stroke: #000000; stroke-linecap: round"/>
   </g>
   <g id="patch_10">
    <path d="M 134.339078 277.583435 
Q 246.214427 265.939749 356.977749 254.411801 
" clip-path="url(#pfdbf15bd19)" style="fill: none; stroke: #000000; stroke-linecap: round"/>
    <path d="M 352.792202 252.836618 
L 356.977749 254.411801 
L 353.206275 256.815129 
L 352.792202 252.836618 
z
" clip-path="url(#pfdbf15bd19)" style="stroke: #000000; stroke-linecap: round"/>
   </g>
   <g id="patch_11">
    <path d="M 270.179824 296.104575 
Q 324.419941 213.798136 378.044846 132.425248 
" clip-path="url(#pfdbf15bd19)" style="fill: none; stroke: #000000; stroke-linecap: round"/>
    <path d="M 374.173815 134.664693 
L 378.044846 132.425248 
L 377.513784 136.86574 
L 374.173815 134.664693 
z
" clip-path="url(#pfdbf15bd19)" style="stroke: #000000; stroke-linecap: round"/>
   </g>
   <g id="patch_12">
    <path d="M 353.913448 275.93726 
Q 281.757601 290.083485 210.698902 304.014612 
" clip-path="url(#pfdbf15bd19)" style="fill: none; stroke: #000000; stroke-linecap: round"/>
    <path d="M 215.008954 305.207696 
L 210.698902 304.014612 
L 214.2394 301.28242 
L 215.008954 305.207696 
z
" clip-path="url(#pfdbf15bd19)" style="stroke: #000000; stroke-linecap: round"/>
   </g>
   <g id="patch_13">
    <path d="M 281.556444 297.572172 
Q 175.95901 227.12979 71.291658 157.307849 
" clip-path="url(#pfdbf15bd19)" style="fill: none; stroke: #000000; stroke-linecap: round"/>
    <path d="M 73.509337 161.191392 
L 71.291658 157.307849 
L 75.729099 157.863832 
L 73.509337 161.191392 
z
" clip-path="url(#pfdbf15bd19)" style="stroke: #000000; stroke-linecap: round"/>
   </g>
   <g id="patch_14">
    <path d="M 229.744672 287.758622 
Q 278.477406 187.734648 326.72045 88.715763 
" clip-path="url(#pfdbf15bd19)" style="fill: none; stroke: #000000; stroke-linecap: round"/>
    <path d="M 323.170525 91.435695 
L 326.72045 88.715763 
L 326.76644 93.187663 
L 323.170525 91.435695 
z
" clip-path="url(#pfdbf15bd19)" style="stroke: #000000; stroke-linecap: round"/>
   </g>
   <g id="patch_15">
    <path d="M 206.825882 36.725338 
Q 158.104155 54.799442 110.430659 72.484689 
" clip-path="url(#pfdbf15bd19)" style="fill: none; stroke: #000000; stroke-linecap: round"/>
    <path d="M 114.876537 72.968601 
L 110.430659 72.484689 
L 113.485315 69.218334 
L 114.876537 72.968601 
z
" clip-path="url(#pfdbf15bd19)" style="stroke: #000000; stroke-linecap: round"/>
   </g>
   <g id="patch_16">
    <path d="M 389.302415 232.619251 
Q 316.709511 267.417561 245.124791 301.732585 
" clip-path="url(#pfdbf15bd19)" style="fill: none; stroke: #000000; stroke-linecap: round"/>
    <path d="M 249.596308 301.807024 
L 245.124791 301.732585 
L 247.867253 298.200035 
L 249.596308 301.807024 
z
" clip-path="url(#pfdbf15bd19)" style="stroke: #000000; stroke-linecap: round"/>
   </g>
   <g id="patch_17">
    <path d="M 392.963396 182.574142 
Q 316.947127 239.777536 241.824206 296.308672 
" clip-path="url(#pfdbf15bd19)" style="fill: none; stroke: #000000; stroke-linecap: round"/>
    <path d="M 246.222914 295.501599 
L 241.824206 296.308672 
L 243.817772 292.305462 
L 246.222914 295.501599 
z
" clip-path="url(#pfdbf15bd19)" style="stroke: #000000; stroke-linecap: round"/>
   </g>
   <g id="patch_18">
    <path d="M 242.841273 37.46969 
Q 304.266945 63.195071 364.66137 88.488562 
" clip-path="url(#pfdbf15bd19)" style="fill: none; stroke: #000000; stroke-linecap: round"/>
    <path d="M 361.74446 85.09863 
L 364.66137 88.488562 
L 360.199279 88.78813 
L 361.74446 85.09863 
z
" clip-path="url(#pfdbf15bd19)" style="stroke: #000000; stroke-linecap: round"/>
   </g>
   <g id="patch_19">
    <path d="M 212.464737 44.767048 
Q 144.875738 124.558494 78.00938 203.496833 
" clip-path="url(#pfdbf15bd19)" style="fill: none; stroke: #000000; stroke-linecap: round"/>
    <path d="M 82.120862 201.737368 
L 78.00938 203.496833 
L 79.068697 199.151969 
L 82.120862 201.737368 
z
" clip-path="url(#pfdbf15bd19)" style="stroke: #000000; stroke-linecap: round"/>
   </g>
   <g id="patch_20">
    <path d="M 308.278042 292.121237 
Q 351.492996 226.183182 394.095099 161.180228 
" clip-path="url(#pfdbf15bd19)" style="fill: none; stroke: #000000; stroke-linecap: round"/>
    <path d="M 390.229733 163.429439 
L 394.095099 161.180228 
L 393.575248 165.622047 
L 390.229733 163.429439 
z
" clip-path="url(#pfdbf15bd19)" style="stroke: #000000; stroke-linecap: round"/>
   </g>
   <g id="patch_21">
    <path d="M 141.393536 78.87781 
Q 265.578003 145.250574 388.776434 211.096333 
" clip-path="url(#pfdbf15bd19)" style="fill: none; stroke: #000000; stroke-linecap: round"/>
    <path d="M 386.191423 207.446988 
L 388.776434 211.096333 
L 384.305952 210.974735 
L 386.191423 207.446988 
z
" clip-path="url(#pfdbf15bd19)" style="stroke: #000000; stroke-linecap: round"/>
   </g>
   <g id="patch_22">
    <path d="M 59.159495 173.019702 
Q 223.200849 196.173626 386.135143 219.171291 
" clip-path="url(#pfdbf15bd19)" style="fill: none; stroke: #000000; stroke-linecap: round"/>
    <path d="M 382.453925 216.631874 
L 386.135143 219.171291 
L 381.894879 220.592615 
L 382.453925 216.631874 
z
" clip-path="url(#pfdbf15bd19)" style="stroke: #000000; stroke-linecap: round"/>
   </g>
   <g id="patch_23">
    <path d="M 45.872624 151.863169 
Q 47.189939 147.733781 48.167461 144.669542 
" clip-path="url(#pfdbf15bd19)" style="fill: none; stroke: #000000; stroke-linecap: round"/>
    <path d="M 45.046386 147.872493 
L 48.167461 144.669542 
L 48.857177 149.088172 
L 45.046386 147.872493 
z
" clip-path="url(#pfdbf15bd19)" style="stroke: #000000; stroke-linecap: round"/>
   </g>
   <g id="patch_24">
    <path d="M 321.105061 280.270607 
Q 227.9898 183.894415 135.651389 88.322277 
" clip-path="url(#pfdbf15bd19)" style="fill: none; stroke: #000000; stroke-linecap: round"/>
    <path d="M 136.992393 92.588623 
L 135.651389 88.322277 
L 139.869068 89.809282 
L 136.992393 92.588623 
z
" clip-path="url(#pfdbf15bd19)" style="stroke: #000000; stroke-linecap: round"/>
   </g>
   <g id="patch_25">
    <path d="M 353.929332 76.190229 
Q 249.691223 70.301785 146.569369 64.476399 
" clip-path="url(#pfdbf15bd19)" style="fill: none; stroke: #000000; stroke-linecap: round"/>
    <path d="M 150.450201 66.698817 
L 146.569369 64.476399 
L 150.675802 62.705184 
L 150.450201 66.698817 
z
" clip-path="url(#pfdbf15bd19)" style="stroke: #000000; stroke-linecap: round"/>
   </g>
   <g id="patch_26">
    <path d="M 251.517917 293.028093 
Q 221.65909 178.752117 192.082902 65.55786 
" clip-path="url(#pfdbf15bd19)" style="fill: none; stroke: #000000; stroke-linecap: round"/>
    <path d="M 191.159065 69.933535 
L 192.082902 65.55786 
L 195.029139 68.922334 
L 191.159065 69.933535 
z
" clip-path="url(#pfdbf15bd19)" style="stroke: #000000; stroke-linecap: round"/>
   </g>
   <g id="patch_27">
    <path d="M 358.29655 264.44172 
Q 280.491507 161.815686 203.361917 60.080584 
" clip-path="url(#pfdbf15bd19)" style="fill: none; stroke: #000000; stroke-linecap: round"/>
    <path d="M 204.184743 64.476373 
L 203.361917 60.080584 
L 207.372244 62.059797 
L 204.184743 64.476373 
z
" clip-path="url(#pfdbf15bd19)" style="stroke: #000000; stroke-linecap: round"/>
   </g>
   <g id="text_1">
    <g id="patch_28">
     <path d="M 77.669649 247.1577 
L 92.976836 263.327056 
Q 95.039278 265.505664 97.217886 263.443222 
L 104.246166 256.789698 
Q 106.424774 254.727256 104.362332 252.548648 
L 89.055145 236.379292 
Q 86.992703 234.200684 84.814095 236.263126 
L 77.785815 242.91665 
Q 75.607207 244.979092 77.669649 247.1577 
z
" clip-path="url(#pfdbf15bd19)" style="fill: #ffffff; stroke: #ffffff; stroke-linejoin: miter"/>
    </g>
    <g clip-path="url(#pfdbf15bd19)">
     <!-- 0.62 -->
     <g transform="translate(81.358531 243.665513)rotate(-313.431011)scale(0.1 -0.1)">
      <defs>
       <path id="DejaVuSans-30" d="M 2034 4250 
Q 1547 4250 1301 3770 
Q 1056 3291 1056 2328 
Q 1056 1369 1301 889 
Q 1547 409 2034 409 
Q 2525 409 2770 889 
Q 3016 1369 3016 2328 
Q 3016 3291 2770 3770 
Q 2525 4250 2034 4250 
z
M 2034 4750 
Q 2819 4750 3233 4129 
Q 3647 3509 3647 2328 
Q 3647 1150 3233 529 
Q 2819 -91 2034 -91 
Q 1250 -91 836 529 
Q 422 1150 422 2328 
Q 422 3509 836 4129 
Q 1250 4750 2034 4750 
z
" transform="scale(0.015625)"/>
       <path id="DejaVuSans-2e" d="M 684 794 
L 1344 794 
L 1344 0 
L 684 0 
L 684 794 
z
" transform="scale(0.015625)"/>
       <path id="DejaVuSans-36" d="M 2113 2584 
Q 1688 2584 1439 2293 
Q 1191 2003 1191 1497 
Q 1191 994 1439 701 
Q 1688 409 2113 409 
Q 2538 409 2786 701 
Q 3034 994 3034 1497 
Q 3034 2003 2786 2293 
Q 2538 2584 2113 2584 
z
M 3366 4563 
L 3366 3988 
Q 3128 4100 2886 4159 
Q 2644 4219 2406 4219 
Q 1781 4219 1451 3797 
Q 1122 3375 1075 2522 
Q 1259 2794 1537 2939 
Q 1816 3084 2150 3084 
Q 2853 3084 3261 2657 
Q 3669 2231 3669 1497 
Q 3669 778 3244 343 
Q 2819 -91 2113 -91 
Q 1303 -91 875 529 
Q 447 1150 447 2328 
Q 447 3434 972 4092 
Q 1497 4750 2381 4750 
Q 2619 4750 2861 4703 
Q 3103 4656 3366 4563 
z
" transform="scale(0.015625)"/>
       <path id="DejaVuSans-32" d="M 1228 531 
L 3431 531 
L 3431 0 
L 469 0 
L 469 531 
Q 828 903 1448 1529 
Q 2069 2156 2228 2338 
Q 2531 2678 2651 2914 
Q 2772 3150 2772 3378 
Q 2772 3750 2511 3984 
Q 2250 4219 1831 4219 
Q 1534 4219 1204 4116 
Q 875 4013 500 3803 
L 500 4441 
Q 881 4594 1212 4672 
Q 1544 4750 1819 4750 
Q 2544 4750 2975 4387 
Q 3406 4025 3406 3419 
Q 3406 3131 3298 2873 
Q 3191 2616 2906 2266 
Q 2828 2175 2409 1742 
Q 1991 1309 1228 531 
z
" transform="scale(0.015625)"/>
      </defs>
      <use xlink:href="#DejaVuSans-30"/>
      <use xlink:href="#DejaVuSans-2e" x="63.623047"/>
      <use xlink:href="#DejaVuSans-36" x="95.410156"/>
      <use xlink:href="#DejaVuSans-32" x="159.033203"/>
     </g>
    </g>
   </g>
   <g id="text_2">
    <g id="patch_29">
     <path d="M 175.624786 193.432293 
L 191.105433 209.435656 
Q 193.191246 211.591899 195.347489 209.506085 
L 202.303617 202.777164 
Q 204.45986 200.691351 202.374046 198.535108 
L 186.893399 182.531745 
Q 184.807586 180.375502 182.651343 182.461316 
L 175.695215 189.190237 
Q 173.538972 191.27605 175.624786 193.432293 
z
" clip-path="url(#pfdbf15bd19)" style="fill: #ffffff; stroke: #ffffff; stroke-linejoin: miter"/>
    </g>
    <g clip-path="url(#pfdbf15bd19)">
     <!-- 0.62 -->
     <g transform="translate(179.275799 189.900533)rotate(-314.048829)scale(0.1 -0.1)">
      <use xlink:href="#DejaVuSans-30"/>
      <use xlink:href="#DejaVuSans-2e" x="63.623047"/>
      <use xlink:href="#DejaVuSans-36" x="95.410156"/>
      <use xlink:href="#DejaVuSans-32" x="159.033203"/>
     </g>
    </g>
   </g>
   <g id="text_3">
    <g id="patch_30">
     <path d="M 132.63239 177.897075 
L 138.246406 199.443325 
Q 139.002821 202.346398 141.905894 201.589983 
L 151.271331 199.149758 
Q 154.174404 198.393343 153.41799 195.490269 
L 147.803973 173.944019 
Q 147.047559 171.040946 144.144485 171.797361 
L 134.779048 174.237586 
Q 131.875975 174.994001 132.63239 177.897075 
z
" clip-path="url(#pfdbf15bd19)" style="fill: #ffffff; stroke: #ffffff; stroke-linejoin: miter"/>
    </g>
    <g clip-path="url(#pfdbf15bd19)">
     <!-- 0.62 -->
     <g transform="translate(137.547958 176.616291)rotate(-284.60408)scale(0.1 -0.1)">
      <use xlink:href="#DejaVuSans-30"/>
      <use xlink:href="#DejaVuSans-2e" x="63.623047"/>
      <use xlink:href="#DejaVuSans-36" x="95.410156"/>
      <use xlink:href="#DejaVuSans-32" x="159.033203"/>
     </g>
    </g>
   </g>
   <g id="text_4">
    <g id="patch_31">
     <path d="M 246.899552 158.651662 
L 258.0689 177.913119 
Q 259.573823 180.508347 262.16905 179.003424 
L 270.541364 174.148481 
Q 273.136592 172.643559 271.631669 170.048331 
L 260.462321 150.786874 
Q 258.957398 148.191646 256.362171 149.696568 
L 247.989857 154.551512 
Q 245.394629 156.056434 246.899552 158.651662 
z
" clip-path="url(#pfdbf15bd19)" style="fill: #ffffff; stroke: #ffffff; stroke-linejoin: miter"/>
    </g>
    <g clip-path="url(#pfdbf15bd19)">
     <!-- 0.62 -->
     <g transform="translate(251.293868 156.103483)rotate(-300.10862)scale(0.1 -0.1)">
      <use xlink:href="#DejaVuSans-30"/>
      <use xlink:href="#DejaVuSans-2e" x="63.623047"/>
      <use xlink:href="#DejaVuSans-36" x="95.410156"/>
      <use xlink:href="#DejaVuSans-32" x="159.033203"/>
     </g>
    </g>
   </g>
   <g id="text_5">
    <g id="patch_32">
     <path d="M 91.475416 121.539701 
L 105.848457 104.534592 
Q 107.785036 102.243377 105.493821 100.306799 
L 98.102267 94.059317 
Q 95.811052 92.122738 93.874474 94.413953 
L 79.501432 111.419062 
Q 77.564854 113.710277 79.856069 115.646855 
L 87.247623 121.894337 
Q 89.538838 123.830915 91.475416 121.539701 
z
" clip-path="url(#pfdbf15bd19)" style="fill: #ffffff; stroke: #ffffff; stroke-linejoin: miter"/>
    </g>
    <g clip-path="url(#pfdbf15bd19)">
     <!-- 0.62 -->
     <g transform="translate(87.595864 118.26063)rotate(-49.79487)scale(0.1 -0.1)">
      <use xlink:href="#DejaVuSans-30"/>
      <use xlink:href="#DejaVuSans-2e" x="63.623047"/>
      <use xlink:href="#DejaVuSans-36" x="95.410156"/>
      <use xlink:href="#DejaVuSans-32" x="159.033203"/>
     </g>
    </g>
   </g>
   <g id="text_6">
    <g id="patch_33">
     <path d="M 233.346586 45.279843 
L 255.573178 46.597661 
Q 258.567919 46.775219 258.745478 43.780478 
L 259.318289 34.119319 
Q 259.495848 31.124579 256.501107 30.94702 
L 234.274514 29.629202 
Q 231.279773 29.451644 231.102215 32.446385 
L 230.529403 42.107544 
Q 230.351845 45.102285 233.346586 45.279843 
z
" clip-path="url(#pfdbf15bd19)" style="fill: #ffffff; stroke: #ffffff; stroke-linejoin: miter"/>
    </g>
    <g clip-path="url(#pfdbf15bd19)">
     <!-- 0.56 -->
     <g transform="translate(233.647233 40.20906)rotate(-356.606898)scale(0.1 -0.1)">
      <defs>
       <path id="DejaVuSans-35" d="M 691 4666 
L 3169 4666 
L 3169 4134 
L 1269 4134 
L 1269 2991 
Q 1406 3038 1543 3061 
Q 1681 3084 1819 3084 
Q 2600 3084 3056 2656 
Q 3513 2228 3513 1497 
Q 3513 744 3044 326 
Q 2575 -91 1722 -91 
Q 1428 -91 1123 -41 
Q 819 9 494 109 
L 494 744 
Q 775 591 1075 516 
Q 1375 441 1709 441 
Q 2250 441 2565 725 
Q 2881 1009 2881 1497 
Q 2881 1984 2565 2268 
Q 2250 2553 1709 2553 
Q 1456 2553 1204 2497 
Q 953 2441 691 2322 
L 691 4666 
z
" transform="scale(0.015625)"/>
      </defs>
      <use xlink:href="#DejaVuSans-30"/>
      <use xlink:href="#DejaVuSans-2e" x="63.623047"/>
      <use xlink:href="#DejaVuSans-35" x="95.410156"/>
      <use xlink:href="#DejaVuSans-36" x="159.033203"/>
     </g>
    </g>
   </g>
   <g id="text_7">
    <g id="patch_34">
     <path d="M 170.189277 158.485123 
L 184.553132 141.472254 
Q 186.488473 139.179994 184.196213 137.244654 
L 176.801286 131.001164 
Q 174.509025 129.065824 172.573685 131.358084 
L 158.209829 148.370953 
Q 156.274489 150.663213 158.566749 152.598554 
L 165.961676 158.842043 
Q 168.253936 160.777384 170.189277 158.485123 
z
" clip-path="url(#pfdbf15bd19)" style="fill: #ffffff; stroke: #ffffff; stroke-linejoin: miter"/>
    </g>
    <g clip-path="url(#pfdbf15bd19)">
     <!-- 0.62 -->
     <g transform="translate(166.307955 155.208148)rotate(-49.825813)scale(0.1 -0.1)">
      <use xlink:href="#DejaVuSans-30"/>
      <use xlink:href="#DejaVuSans-2e" x="63.623047"/>
      <use xlink:href="#DejaVuSans-36" x="95.410156"/>
      <use xlink:href="#DejaVuSans-32" x="159.033203"/>
     </g>
    </g>
   </g>
   <g id="text_8">
    <g id="patch_35">
     <path d="M 428.553742 188.263134 
L 428.636129 165.997662 
Q 428.647229 162.997682 425.64725 162.986582 
L 415.969191 162.950771 
Q 412.969212 162.93967 412.958111 165.93965 
L 412.875724 188.205122 
Q 412.864623 191.205102 415.864603 191.216202 
L 425.542661 191.252013 
Q 428.542641 191.263114 428.553742 188.263134 
z
" clip-path="url(#pfdbf15bd19)" style="fill: #ffffff; stroke: #ffffff; stroke-linejoin: miter"/>
    </g>
    <g clip-path="url(#pfdbf15bd19)">
     <!-- 0.83 -->
     <g transform="translate(423.474089 188.244339)rotate(-89.787994)scale(0.1 -0.1)">
      <defs>
       <path id="DejaVuSans-38" d="M 2034 2216 
Q 1584 2216 1326 1975 
Q 1069 1734 1069 1313 
Q 1069 891 1326 650 
Q 1584 409 2034 409 
Q 2484 409 2743 651 
Q 3003 894 3003 1313 
Q 3003 1734 2745 1975 
Q 2488 2216 2034 2216 
z
M 1403 2484 
Q 997 2584 770 2862 
Q 544 3141 544 3541 
Q 544 4100 942 4425 
Q 1341 4750 2034 4750 
Q 2731 4750 3128 4425 
Q 3525 4100 3525 3541 
Q 3525 3141 3298 2862 
Q 3072 2584 2669 2484 
Q 3125 2378 3379 2068 
Q 3634 1759 3634 1313 
Q 3634 634 3220 271 
Q 2806 -91 2034 -91 
Q 1263 -91 848 271 
Q 434 634 434 1313 
Q 434 1759 690 2068 
Q 947 2378 1403 2484 
z
M 1172 3481 
Q 1172 3119 1398 2916 
Q 1625 2713 2034 2713 
Q 2441 2713 2670 2916 
Q 2900 3119 2900 3481 
Q 2900 3844 2670 4047 
Q 2441 4250 2034 4250 
Q 1625 4250 1398 4047 
Q 1172 3844 1172 3481 
z
" transform="scale(0.015625)"/>
       <path id="DejaVuSans-33" d="M 2597 2516 
Q 3050 2419 3304 2112 
Q 3559 1806 3559 1356 
Q 3559 666 3084 287 
Q 2609 -91 1734 -91 
Q 1441 -91 1130 -33 
Q 819 25 488 141 
L 488 750 
Q 750 597 1062 519 
Q 1375 441 1716 441 
Q 2309 441 2620 675 
Q 2931 909 2931 1356 
Q 2931 1769 2642 2001 
Q 2353 2234 1838 2234 
L 1294 2234 
L 1294 2753 
L 1863 2753 
Q 2328 2753 2575 2939 
Q 2822 3125 2822 3475 
Q 2822 3834 2567 4026 
Q 2313 4219 1838 4219 
Q 1578 4219 1281 4162 
Q 984 4106 628 3988 
L 628 4550 
Q 988 4650 1302 4700 
Q 1616 4750 1894 4750 
Q 2613 4750 3031 4423 
Q 3450 4097 3450 3541 
Q 3450 3153 3228 2886 
Q 3006 2619 2597 2516 
z
" transform="scale(0.015625)"/>
      </defs>
      <use xlink:href="#DejaVuSans-30"/>
      <use xlink:href="#DejaVuSans-2e" x="63.623047"/>
      <use xlink:href="#DejaVuSans-38" x="95.410156"/>
      <use xlink:href="#DejaVuSans-33" x="159.033203"/>
     </g>
    </g>
   </g>
   <g id="text_9">
    <g id="patch_36">
     <path d="M 237.879301 274.688652 
L 260.025306 272.383755 
Q 263.009188 272.073201 262.698634 269.089318 
L 261.696772 259.463188 
Q 261.386218 256.479305 258.402335 256.78986 
L 236.256331 259.094756 
Q 233.272448 259.405311 233.583002 262.389194 
L 234.584864 272.015323 
Q 234.895419 274.999206 237.879301 274.688652 
z
" clip-path="url(#pfdbf15bd19)" style="fill: #ffffff; stroke: #ffffff; stroke-linejoin: miter"/>
    </g>
    <g clip-path="url(#pfdbf15bd19)">
     <!-- 0.56 -->
     <g transform="translate(237.353461 269.636254)rotate(-5.941798)scale(0.1 -0.1)">
      <use xlink:href="#DejaVuSans-30"/>
      <use xlink:href="#DejaVuSans-2e" x="63.623047"/>
      <use xlink:href="#DejaVuSans-35" x="95.410156"/>
      <use xlink:href="#DejaVuSans-36" x="159.033203"/>
     </g>
    </g>
   </g>
   <g id="text_10">
    <g id="patch_37">
     <path d="M 328.036483 222.556292 
L 340.288403 203.964667 
Q 341.939188 201.459691 339.434212 199.808906 
L 331.353052 194.483404 
Q 328.848075 192.832619 327.19729 195.337596 
L 314.94537 213.929221 
Q 313.294585 216.434198 315.799562 218.084983 
L 323.880722 223.410484 
Q 326.385698 225.061269 328.036483 222.556292 
z
" clip-path="url(#pfdbf15bd19)" style="fill: #ffffff; stroke: #ffffff; stroke-linejoin: miter"/>
    </g>
    <g clip-path="url(#pfdbf15bd19)">
     <!-- 0.83 -->
     <g transform="translate(323.794984 219.761135)rotate(-56.615034)scale(0.1 -0.1)">
      <use xlink:href="#DejaVuSans-30"/>
      <use xlink:href="#DejaVuSans-2e" x="63.623047"/>
      <use xlink:href="#DejaVuSans-38" x="95.410156"/>
      <use xlink:href="#DejaVuSans-33" x="159.033203"/>
     </g>
    </g>
   </g>
   <g id="text_11">
    <g id="patch_38">
     <path d="M 260.938389 302.153404 
L 282.788067 297.869754 
Q 285.732023 297.292588 285.154858 294.348632 
L 283.292898 284.851305 
Q 282.715732 281.907349 279.771775 282.484514 
L 257.922098 286.768165 
Q 254.978142 287.345331 255.555307 290.289287 
L 257.417267 299.786613 
Q 257.994433 302.73057 260.938389 302.153404 
z
" clip-path="url(#pfdbf15bd19)" style="fill: #ffffff; stroke: #ffffff; stroke-linejoin: miter"/>
    </g>
    <g clip-path="url(#pfdbf15bd19)">
     <!-- 0.62 -->
     <g transform="translate(259.961116 297.168611)rotate(-11.092208)scale(0.1 -0.1)">
      <use xlink:href="#DejaVuSans-30"/>
      <use xlink:href="#DejaVuSans-2e" x="63.623047"/>
      <use xlink:href="#DejaVuSans-36" x="95.410156"/>
      <use xlink:href="#DejaVuSans-32" x="159.033203"/>
     </g>
    </g>
   </g>
   <g id="text_12">
    <g id="patch_39">
     <path d="M 157.514718 224.249089 
L 176.037267 236.60519 
Q 178.532937 238.270012 180.197759 235.774342 
L 185.568544 227.723207 
Q 187.233366 225.227537 184.737696 223.562715 
L 166.215147 211.206615 
Q 163.719477 209.541793 162.054655 212.037463 
L 156.68387 220.088597 
Q 155.019048 222.584267 157.514718 224.249089 
z
" clip-path="url(#pfdbf15bd19)" style="fill: #ffffff; stroke: #ffffff; stroke-linejoin: miter"/>
    </g>
    <g clip-path="url(#pfdbf15bd19)">
     <!-- 0.71 -->
     <g transform="translate(160.333643 220.023348)rotate(-326.293372)scale(0.1 -0.1)">
      <defs>
       <path id="DejaVuSans-37" d="M 525 4666 
L 3525 4666 
L 3525 4397 
L 1831 0 
L 1172 0 
L 2766 4134 
L 525 4134 
L 525 4666 
z
" transform="scale(0.015625)"/>
       <path id="DejaVuSans-31" d="M 794 531 
L 1825 531 
L 1825 4091 
L 703 3866 
L 703 4441 
L 1819 4666 
L 2450 4666 
L 2450 531 
L 3481 531 
L 3481 0 
L 794 0 
L 794 531 
z
" transform="scale(0.015625)"/>
      </defs>
      <use xlink:href="#DejaVuSans-30"/>
      <use xlink:href="#DejaVuSans-2e" x="63.623047"/>
      <use xlink:href="#DejaVuSans-37" x="95.410156"/>
      <use xlink:href="#DejaVuSans-31" x="159.033203"/>
     </g>
    </g>
   </g>
   <g id="text_13">
    <g id="patch_40">
     <path d="M 281.497848 199.43292 
L 291.250013 179.416593 
Q 292.563989 176.719657 289.867052 175.405681 
L 281.166623 171.16674 
Q 278.469686 169.852764 277.15571 172.5497 
L 267.403545 192.566027 
Q 266.089569 195.262964 268.786505 196.57694 
L 277.486935 200.815881 
Q 280.183872 202.129857 281.497848 199.43292 
z
" clip-path="url(#pfdbf15bd19)" style="fill: #ffffff; stroke: #ffffff; stroke-linejoin: miter"/>
    </g>
    <g clip-path="url(#pfdbf15bd19)">
     <!-- 0.56 -->
     <g transform="translate(276.931316 197.208058)rotate(-64.024168)scale(0.1 -0.1)">
      <use xlink:href="#DejaVuSans-30"/>
      <use xlink:href="#DejaVuSans-2e" x="63.623047"/>
      <use xlink:href="#DejaVuSans-35" x="95.410156"/>
      <use xlink:href="#DejaVuSans-36" x="159.033203"/>
     </g>
    </g>
   </g>
   <g id="text_14">
    <g id="patch_41">
     <path d="M 144.948163 68.04094 
L 165.823672 60.296835 
Q 168.636372 59.253419 167.592956 56.440719 
L 164.226852 47.366831 
Q 163.183436 44.55413 160.370736 45.597547 
L 139.495226 53.341651 
Q 136.682526 54.385067 137.725942 57.197767 
L 141.092046 66.271656 
Q 142.135462 69.084356 144.948163 68.04094 
z
" clip-path="url(#pfdbf15bd19)" style="fill: #ffffff; stroke: #ffffff; stroke-linejoin: miter"/>
    </g>
    <g clip-path="url(#pfdbf15bd19)">
     <!-- 0.56 -->
     <g transform="translate(143.18142 63.278394)rotate(-20.353142)scale(0.1 -0.1)">
      <use xlink:href="#DejaVuSans-30"/>
      <use xlink:href="#DejaVuSans-2e" x="63.623047"/>
      <use xlink:href="#DejaVuSans-35" x="95.410156"/>
      <use xlink:href="#DejaVuSans-36" x="159.033203"/>
     </g>
    </g>
   </g>
   <g id="text_15">
    <g id="patch_42">
     <path d="M 306.563592 280.974326 
L 326.641558 271.349704 
Q 329.3468 270.052912 328.050009 267.347671 
L 323.866506 258.620448 
Q 322.569715 255.915207 319.864473 257.211998 
L 299.786508 266.83662 
Q 297.081266 268.133411 298.378057 270.838653 
L 302.561559 279.565875 
Q 303.858351 282.271117 306.563592 280.974326 
z
" clip-path="url(#pfdbf15bd19)" style="fill: #ffffff; stroke: #ffffff; stroke-linejoin: miter"/>
    </g>
    <g clip-path="url(#pfdbf15bd19)">
     <!-- 0.56 -->
     <g transform="translate(304.367828 276.393731)rotate(-25.611308)scale(0.1 -0.1)">
      <use xlink:href="#DejaVuSans-30"/>
      <use xlink:href="#DejaVuSans-2e" x="63.623047"/>
      <use xlink:href="#DejaVuSans-35" x="95.410156"/>
      <use xlink:href="#DejaVuSans-36" x="159.033203"/>
     </g>
    </g>
   </g>
   <g id="text_16">
    <g id="patch_43">
     <path d="M 314.30979 251.572842 
L 332.100789 238.184847 
Q 334.497891 236.38099 332.694035 233.983887 
L 326.87472 226.250733 
Q 325.070863 223.85363 322.67376 225.657487 
L 304.882762 239.045483 
Q 302.485659 240.849339 304.289515 243.246442 
L 310.108831 250.979596 
Q 311.912687 253.376699 314.30979 251.572842 
z
" clip-path="url(#pfdbf15bd19)" style="fill: #ffffff; stroke: #ffffff; stroke-linejoin: miter"/>
    </g>
    <g clip-path="url(#pfdbf15bd19)">
     <!-- 0.62 -->
     <g transform="translate(311.255448 247.513998)rotate(-36.962015)scale(0.1 -0.1)">
      <use xlink:href="#DejaVuSans-30"/>
      <use xlink:href="#DejaVuSans-2e" x="63.623047"/>
      <use xlink:href="#DejaVuSans-36" x="95.410156"/>
      <use xlink:href="#DejaVuSans-32" x="159.033203"/>
     </g>
    </g>
   </g>
   <g id="text_17">
    <g id="patch_44">
     <path d="M 301.050237 70.346677 
L 315.718884 76.48998 
Q 318.48601 77.648866 319.644896 74.881741 
L 323.38351 65.954879 
Q 324.542397 63.187754 321.775271 62.028868 
L 307.106624 55.885564 
Q 304.339499 54.726678 303.180613 57.493804 
L 299.441998 66.420665 
Q 298.283112 69.187791 301.050237 70.346677 
z
" clip-path="url(#pfdbf15bd19)" style="fill: #ffffff; stroke: #ffffff; stroke-linejoin: miter"/>
    </g>
    <g clip-path="url(#pfdbf15bd19)">
     <!-- 1.0 -->
     <g transform="translate(303.012497 65.661299)rotate(-337.275818)scale(0.1 -0.1)">
      <use xlink:href="#DejaVuSans-31"/>
      <use xlink:href="#DejaVuSans-2e" x="63.623047"/>
      <use xlink:href="#DejaVuSans-30" x="95.410156"/>
     </g>
    </g>
   </g>
   <g id="text_18">
    <g id="patch_45">
     <path d="M 138.65522 144.03026 
L 153.046604 127.040671 
Q 154.985654 124.751548 152.69653 122.812498 
L 145.311722 116.557043 
Q 143.022599 114.617994 141.083549 116.907117 
L 126.692165 133.896706 
Q 124.753116 136.18583 127.042239 138.124879 
L 134.427047 144.380334 
Q 136.716171 146.319384 138.65522 144.03026 
z
" clip-path="url(#pfdbf15bd19)" style="fill: #ffffff; stroke: #ffffff; stroke-linejoin: miter"/>
    </g>
    <g clip-path="url(#pfdbf15bd19)">
     <!-- 0.71 -->
     <g transform="translate(134.779209 140.747005)rotate(-49.733041)scale(0.1 -0.1)">
      <use xlink:href="#DejaVuSans-30"/>
      <use xlink:href="#DejaVuSans-2e" x="63.623047"/>
      <use xlink:href="#DejaVuSans-37" x="95.410156"/>
      <use xlink:href="#DejaVuSans-31" x="159.033203"/>
     </g>
    </g>
   </g>
   <g id="text_19">
    <g id="patch_46">
     <path d="M 356.193354 233.312197 
L 368.398299 214.689701 
Q 370.042755 212.180564 367.533619 210.536109 
L 359.43904 205.231026 
Q 356.929904 203.58657 355.285448 206.095706 
L 343.080503 224.718203 
Q 341.436047 227.227339 343.945184 228.871795 
L 352.039762 234.176878 
Q 354.548898 235.821333 356.193354 233.312197 
z
" clip-path="url(#pfdbf15bd19)" style="fill: #ffffff; stroke: #ffffff; stroke-linejoin: miter"/>
    </g>
    <g clip-path="url(#pfdbf15bd19)">
     <!-- 0.83 -->
     <g transform="translate(351.944811 230.527757)rotate(-56.759681)scale(0.1 -0.1)">
      <use xlink:href="#DejaVuSans-30"/>
      <use xlink:href="#DejaVuSans-2e" x="63.623047"/>
      <use xlink:href="#DejaVuSans-38" x="95.410156"/>
      <use xlink:href="#DejaVuSans-33" x="159.033203"/>
     </g>
    </g>
   </g>
   <g id="text_20">
    <g id="patch_47">
     <path d="M 246.939016 144.177075 
L 266.575887 154.672377 
Q 269.221697 156.086481 270.635801 153.440671 
L 275.197758 144.905177 
Q 276.611862 142.259367 273.966052 140.845264 
L 254.329181 130.349962 
Q 251.683371 128.935858 250.269267 131.581668 
L 245.70731 140.117162 
Q 244.293206 142.762972 246.939016 144.177075 
z
" clip-path="url(#pfdbf15bd19)" style="fill: #ffffff; stroke: #ffffff; stroke-linejoin: miter"/>
    </g>
    <g clip-path="url(#pfdbf15bd19)">
     <!-- 0.56 -->
     <g transform="translate(249.333418 139.697113)rotate(-331.876872)scale(0.1 -0.1)">
      <use xlink:href="#DejaVuSans-30"/>
      <use xlink:href="#DejaVuSans-2e" x="63.623047"/>
      <use xlink:href="#DejaVuSans-35" x="95.410156"/>
      <use xlink:href="#DejaVuSans-36" x="159.033203"/>
     </g>
    </g>
   </g>
   <g id="text_21">
    <g id="patch_48">
     <path d="M 213.00137 202.650765 
L 235.048462 205.762643 
Q 238.019018 206.181928 238.438302 203.211372 
L 239.790932 193.628236 
Q 240.210216 190.65768 237.239661 190.238396 
L 215.192569 187.126518 
Q 212.222013 186.707233 211.802728 189.677789 
L 210.450099 199.260925 
Q 210.030814 202.23148 213.00137 202.650765 
z
" clip-path="url(#pfdbf15bd19)" style="fill: #ffffff; stroke: #ffffff; stroke-linejoin: miter"/>
    </g>
    <g clip-path="url(#pfdbf15bd19)">
     <!-- 0.62 -->
     <g transform="translate(213.711315 197.620934)rotate(-351.965952)scale(0.1 -0.1)">
      <use xlink:href="#DejaVuSans-30"/>
      <use xlink:href="#DejaVuSans-2e" x="63.623047"/>
      <use xlink:href="#DejaVuSans-36" x="95.410156"/>
      <use xlink:href="#DejaVuSans-32" x="159.033203"/>
     </g>
    </g>
   </g>
   <g id="text_22">
    <g id="patch_49">
     <path d="M 54.596047 150.311043 
L 59.429322 135.160174 
Q 60.341082 132.302081 57.482989 131.390322 
L 48.262663 128.448947 
Q 45.40457 127.537188 44.49281 130.395281 
L 39.659535 145.54615 
Q 38.747775 148.404243 41.605868 149.316002 
L 50.826194 152.257377 
Q 53.684287 153.169136 54.596047 150.311043 
z
" clip-path="url(#pfdbf15bd19)" style="fill: #ffffff; stroke: #ffffff; stroke-linejoin: miter"/>
    </g>
    <g clip-path="url(#pfdbf15bd19)">
     <!-- 1.0 -->
     <g transform="translate(49.756641 148.767225)rotate(-72.306808)scale(0.1 -0.1)">
      <use xlink:href="#DejaVuSans-31"/>
      <use xlink:href="#DejaVuSans-2e" x="63.623047"/>
      <use xlink:href="#DejaVuSans-30" x="95.410156"/>
     </g>
    </g>
   </g>
   <g id="text_23">
    <g id="patch_50">
     <path d="M 209.233433 175.763091 
L 224.704378 191.775834 
Q 226.788884 193.933341 228.94639 191.848834 
L 235.906596 185.12413 
Q 238.064102 183.039624 235.979596 180.882118 
L 220.508652 164.869375 
Q 218.424145 162.711869 216.266639 164.796375 
L 209.306433 171.521079 
Q 207.148927 173.605585 209.233433 175.763091 
z
" clip-path="url(#pfdbf15bd19)" style="fill: #ffffff; stroke: #ffffff; stroke-linejoin: miter"/>
    </g>
    <g clip-path="url(#pfdbf15bd19)">
     <!-- 0.62 -->
     <g transform="translate(212.886586 172.233545)rotate(-314.014102)scale(0.1 -0.1)">
      <use xlink:href="#DejaVuSans-30"/>
      <use xlink:href="#DejaVuSans-2e" x="63.623047"/>
      <use xlink:href="#DejaVuSans-36" x="95.410156"/>
      <use xlink:href="#DejaVuSans-32" x="159.033203"/>
     </g>
    </g>
   </g>
   <g id="text_24">
    <g id="patch_51">
     <path d="M 230.401818 77.063681 
L 252.632001 78.319471 
Q 255.627226 78.488672 255.796427 75.493448 
L 256.342277 65.830728 
Q 256.511478 62.835503 253.516253 62.666302 
L 231.28607 61.410512 
Q 228.290846 61.241311 228.121644 64.236535 
L 227.575794 73.899255 
Q 227.406593 76.89448 230.401818 77.063681 
z
" clip-path="url(#pfdbf15bd19)" style="fill: #ffffff; stroke: #ffffff; stroke-linejoin: miter"/>
    </g>
    <g clip-path="url(#pfdbf15bd19)">
     <!-- 0.71 -->
     <g transform="translate(230.688314 71.992079)rotate(-356.76678)scale(0.1 -0.1)">
      <use xlink:href="#DejaVuSans-30"/>
      <use xlink:href="#DejaVuSans-2e" x="63.623047"/>
      <use xlink:href="#DejaVuSans-37" x="95.410156"/>
      <use xlink:href="#DejaVuSans-31" x="159.033203"/>
     </g>
    </g>
   </g>
   <g id="text_25">
    <g id="patch_52">
     <path d="M 210.280979 166.214652 
L 215.909729 187.757058 
Q 216.668129 190.659613 219.570685 189.901213 
L 228.934451 187.454583 
Q 231.837006 186.696183 231.078606 183.793627 
L 225.449856 162.251222 
Q 224.691456 159.348666 221.7889 160.107066 
L 212.425134 162.553697 
Q 209.522579 163.312097 210.280979 166.214652 
z
" clip-path="url(#pfdbf15bd19)" style="fill: #ffffff; stroke: #ffffff; stroke-linejoin: miter"/>
    </g>
    <g clip-path="url(#pfdbf15bd19)">
     <!-- 0.62 -->
     <g transform="translate(215.195671 164.930507)rotate(-284.643265)scale(0.1 -0.1)">
      <use xlink:href="#DejaVuSans-30"/>
      <use xlink:href="#DejaVuSans-2e" x="63.623047"/>
      <use xlink:href="#DejaVuSans-36" x="95.410156"/>
      <use xlink:href="#DejaVuSans-32" x="159.033203"/>
     </g>
    </g>
   </g>
   <g id="text_26">
    <g id="patch_53">
     <path d="M 263.591393 152.499665 
L 273.199171 165.17247 
Q 275.011603 167.563096 277.402229 165.750664 
L 285.114486 159.903682 
Q 287.505112 158.09125 285.69268 155.700625 
L 276.084902 143.02782 
Q 274.27247 140.637194 271.881844 142.449626 
L 264.169587 148.296608 
Q 261.778961 150.10904 263.591393 152.499665 
z
" clip-path="url(#pfdbf15bd19)" style="fill: #ffffff; stroke: #ffffff; stroke-linejoin: miter"/>
    </g>
    <g clip-path="url(#pfdbf15bd19)">
     <!-- 1.0 -->
     <g transform="translate(267.63927 149.430802)rotate(-307.167271)scale(0.1 -0.1)">
      <use xlink:href="#DejaVuSans-31"/>
      <use xlink:href="#DejaVuSans-2e" x="63.623047"/>
      <use xlink:href="#DejaVuSans-30" x="95.410156"/>
     </g>
    </g>
   </g>
   <g id="PathCollection_1">
    <path d="M 224.981873 49.354999 
C 230.117508 49.354999 235.043493 47.31459 238.674936 43.683147 
C 242.306379 40.051704 244.346789 35.125719 244.346789 29.990083 
C 244.346789 24.854447 242.306379 19.928462 238.674936 16.297019 
C 235.043493 12.665576 230.117508 10.625166 224.981873 10.625166 
C 219.846237 10.625166 214.920252 12.665576 211.288809 16.297019 
C 207.657366 19.928462 205.616956 24.854447 205.616956 29.990083 
C 205.616956 35.125719 207.657366 40.051704 211.288809 43.683147 
C 214.920252 47.31459 219.846237 49.354999 224.981873 49.354999 
z
" clip-path="url(#pfdbf15bd19)" style="fill: #808080; stroke: #808080"/>
    <path d="M 80.334295 114.633283 
C 88.551313 114.633283 96.432889 111.368628 102.243198 105.558319 
C 108.053506 99.74801 111.318162 91.866434 111.318162 83.649416 
C 111.318162 75.432399 108.053506 67.550823 102.243198 61.740514 
C 96.432889 55.930205 88.551313 52.66555 80.334295 52.66555 
C 72.117278 52.66555 64.235702 55.930205 58.425393 61.740514 
C 52.615084 67.550823 49.350429 75.432399 49.350429 83.649416 
C 49.350429 91.866434 52.615084 99.74801 58.425393 105.558319 
C 64.235702 111.368628 72.117278 114.633283 80.334295 114.633283 
z
" clip-path="url(#pfdbf15bd19)" style="fill: #808080; stroke: #808080"/>
    <path d="M 410.254414 245.81355 
C 416.417177 245.81355 422.328359 243.365059 426.686091 239.007327 
C 431.043822 234.649596 433.492314 228.738414 433.492314 222.57565 
C 433.492314 216.412887 431.043822 210.501705 426.686091 206.143974 
C 422.328359 201.786242 416.417177 199.33775 410.254414 199.33775 
C 404.091651 199.33775 398.180469 201.786242 393.822737 206.143974 
C 389.465006 210.501705 387.016514 216.412887 387.016514 222.57565 
C 387.016514 228.738414 389.465006 234.649596 393.822737 239.007327 
C 398.180469 243.365059 404.091651 245.81355 410.254414 245.81355 
z
" clip-path="url(#pfdbf15bd19)" style="fill: #808080; stroke: #808080"/>
    <path d="M 39.986777 189.67845 
C 45.122413 189.67845 50.048398 187.63804 53.679841 184.006597 
C 57.311284 180.375154 59.351694 175.449169 59.351694 170.313533 
C 59.351694 165.177897 57.311284 160.251912 53.679841 156.620469 
C 50.048398 152.989026 45.122413 150.948616 39.986777 150.948616 
C 34.851141 150.948616 29.925156 152.989026 26.293713 156.620469 
C 22.66227 160.251912 20.62186 165.177897 20.62186 170.313533 
C 20.62186 175.449169 22.66227 180.375154 26.293713 184.006597 
C 29.925156 187.63804 34.851141 189.67845 39.986777 189.67845 
z
" clip-path="url(#pfdbf15bd19)" style="fill: #808080; stroke: #808080"/>
    <path d="M 216.175228 346.593784 
C 224.392245 346.593784 232.273821 343.329128 238.08413 337.51882 
C 243.894439 331.708511 247.159094 323.826935 247.159094 315.609917 
C 247.159094 307.3929 243.894439 299.511324 238.08413 293.701015 
C 232.273821 287.890706 224.392245 284.626051 216.175228 284.626051 
C 207.95821 284.626051 200.076634 287.890706 194.266325 293.701015 
C 188.456017 299.511324 185.191361 307.3929 185.191361 315.609917 
C 185.191361 323.826935 188.456017 331.708511 194.266325 337.51882 
C 200.076634 343.329128 207.95821 346.593784 216.175228 346.593784 
z
" clip-path="url(#pfdbf15bd19)" style="fill: #808080; stroke: #808080"/>
    <path d="M 297.663562 327.681894 
C 302.799198 327.681894 307.725183 325.641484 311.356626 322.010041 
C 314.988069 318.378598 317.028478 313.452613 317.028478 308.316977 
C 317.028478 303.181341 314.988069 298.255356 311.356626 294.623913 
C 307.725183 290.99247 302.799198 288.95206 297.663562 288.95206 
C 292.527926 288.95206 287.601941 290.99247 283.970498 294.623913 
C 280.339055 298.255356 278.298645 303.181341 278.298645 308.316977 
C 278.298645 313.452613 280.339055 318.378598 283.970498 322.010041 
C 287.601941 325.641484 292.527926 327.681894 297.663562 327.681894 
z
" clip-path="url(#pfdbf15bd19)" style="fill: #808080; stroke: #808080"/>
    <path d="M 44.583705 170.475261 
C 52.800722 170.475261 60.682298 167.210605 66.492607 161.400297 
C 72.302916 155.589988 75.567571 147.708412 75.567571 139.491394 
C 75.567571 131.274377 72.302916 123.392801 66.492607 117.582492 
C 60.682298 111.772183 52.800722 108.507528 44.583705 108.507528 
C 36.366687 108.507528 28.485111 111.772183 22.674802 117.582492 
C 16.864493 123.392801 13.599838 131.274377 13.599838 139.491394 
C 13.599838 147.708412 16.864493 155.589988 22.674802 161.400297 
C 28.485111 167.210605 36.366687 170.475261 44.583705 170.475261 
z
" clip-path="url(#pfdbf15bd19)" style="fill: #808080; stroke: #808080"/>
    <path d="M 257.391994 338.747314 
C 263.554757 338.747314 269.465939 336.298822 273.823671 331.941091 
C 278.181403 327.583359 280.629894 321.672177 280.629894 315.509414 
C 280.629894 309.346651 278.181403 303.435469 273.823671 299.077737 
C 269.465939 294.720006 263.554757 292.271514 257.391994 292.271514 
C 251.229231 292.271514 245.318049 294.720006 240.960318 299.077737 
C 236.602586 303.435469 234.154094 309.346651 234.154094 315.509414 
C 234.154094 321.672177 236.602586 327.583359 240.960318 331.941091 
C 245.318049 336.298822 251.229231 338.747314 257.391994 338.747314 
z
" clip-path="url(#pfdbf15bd19)" style="fill: #808080; stroke: #808080"/>
    <path d="M 183.967713 65.483201 
C 192.184731 65.483201 200.066307 62.218546 205.876616 56.408237 
C 211.686924 50.597928 214.95158 42.716352 214.95158 34.499335 
C 214.95158 26.282317 211.686924 18.400741 205.876616 12.590432 
C 200.066307 6.780123 192.184731 3.515468 183.967713 3.515468 
C 175.750696 3.515468 167.86912 6.780123 162.058811 12.590432 
C 156.248502 18.400741 152.983846 26.282317 152.983846 34.499335 
C 152.983846 42.716352 156.248502 50.597928 162.058811 56.408237 
C 167.86912 62.218546 175.750696 65.483201 183.967713 65.483201 
z
" clip-path="url(#pfdbf15bd19)" style="fill: #808080; stroke: #808080"/>
    <path d="M 334.563095 313.564864 
C 339.698731 313.564864 344.624716 311.524454 348.256159 307.893011 
C 351.887602 304.261568 353.928012 299.335583 353.928012 294.199947 
C 353.928012 289.064311 351.887602 284.138326 348.256159 280.506883 
C 344.624716 276.87544 339.698731 274.83503 334.563095 274.83503 
C 329.427459 274.83503 324.501474 276.87544 320.870031 280.506883 
C 317.238588 284.138326 315.198179 289.064311 315.198179 294.199947 
C 315.198179 299.335583 317.238588 304.261568 320.870031 307.893011 
C 324.501474 311.524454 329.427459 313.564864 334.563095 313.564864 
z
" clip-path="url(#pfdbf15bd19)" style="fill: #808080; stroke: #808080"/>
    <path d="M 397.841671 137.241489 
C 407.085816 137.241489 415.952589 133.568751 422.489186 127.032154 
C 429.025783 120.495557 432.698521 111.628784 432.698521 102.384639 
C 432.698521 93.140494 429.025783 84.273721 422.489186 77.737124 
C 415.952589 71.200527 407.085816 67.527789 397.841671 67.527789 
C 388.597526 67.527789 379.730753 71.200527 373.194156 77.737124 
C 366.657558 84.273721 362.984821 93.140494 362.984821 102.384639 
C 362.984821 111.628784 366.657558 120.495557 373.194156 127.032154 
C 379.730753 133.568751 388.597526 137.241489 397.841671 137.241489 
z
" clip-path="url(#pfdbf15bd19)" style="fill: #808080; stroke: #808080"/>
    <path d="M 373.26377 96.647354 
C 378.399406 96.647354 383.325391 94.606945 386.956834 90.975502 
C 390.588277 87.344059 392.628686 82.418074 392.628686 77.282438 
C 392.628686 72.146802 390.588277 67.220817 386.956834 63.589374 
C 383.325391 59.957931 378.399406 57.917521 373.26377 57.917521 
C 368.128134 57.917521 363.202149 59.957931 359.570706 63.589374 
C 355.939263 67.220817 353.898853 72.146802 353.898853 77.282438 
C 353.898853 82.418074 355.939263 87.344059 359.570706 90.975502 
C 363.202149 94.606945 368.128134 96.647354 373.26377 96.647354 
z
" clip-path="url(#pfdbf15bd19)" style="fill: #808080; stroke: #808080"/>
    <path d="M 110.652015 97.304266 
C 119.89616 97.304266 128.762933 93.631529 135.29953 87.094931 
C 141.836128 80.558334 145.508865 71.691561 145.508865 62.447416 
C 145.508865 53.203271 141.836128 44.336498 135.29953 37.799901 
C 128.762933 31.263304 119.89616 27.590566 110.652015 27.590566 
C 101.40787 27.590566 92.541097 31.263304 86.0045 37.799901 
C 79.467903 44.336498 75.795165 53.203271 75.795165 62.447416 
C 75.795165 71.691561 79.467903 80.558334 86.0045 87.094931 
C 92.541097 93.631529 101.40787 97.304266 110.652015 97.304266 
z
" clip-path="url(#pfdbf15bd19)" style="fill: #808080; stroke: #808080"/>
    <path d="M 420.813223 196.473575 
C 430.057368 196.473575 438.924141 192.800837 445.460738 186.26424 
C 451.997336 179.727642 455.670073 170.860869 455.670073 161.616724 
C 455.670073 152.37258 451.997336 143.505807 445.460738 136.969209 
C 438.924141 130.432612 430.057368 126.759874 420.813223 126.759874 
C 411.569078 126.759874 402.702305 130.432612 396.165708 136.969209 
C 389.629111 143.505807 385.956373 152.37258 385.956373 161.616724 
C 385.956373 170.860869 389.629111 179.727642 396.165708 186.26424 
C 402.702305 192.800837 411.569078 196.473575 420.813223 196.473575 
z
" clip-path="url(#pfdbf15bd19)" style="fill: #808080; stroke: #808080"/>
    <path d="M 420.698624 215.825441 
C 426.861387 215.825441 432.772569 213.376949 437.130301 209.019217 
C 441.488032 204.661486 443.936524 198.750304 443.936524 192.587541 
C 443.936524 186.424777 441.488032 180.513595 437.130301 176.155864 
C 432.772569 171.798132 426.861387 169.34964 420.698624 169.34964 
C 414.535861 169.34964 408.624679 171.798132 404.266947 176.155864 
C 399.909216 180.513595 397.460724 186.424777 397.460724 192.587541 
C 397.460724 198.750304 399.909216 204.661486 404.266947 209.019217 
C 408.624679 213.376949 414.535861 215.825441 420.698624 215.825441 
z
" clip-path="url(#pfdbf15bd19)" style="fill: #808080; stroke: #808080"/>
    <path d="M 305.882577 76.584533 
C 315.126722 76.584533 323.993495 72.911795 330.530092 66.375198 
C 337.06669 59.8386 340.739427 50.971827 340.739427 41.727683 
C 340.739427 32.483538 337.06669 23.616765 330.530092 17.080168 
C 323.993495 10.54357 315.126722 6.870833 305.882577 6.870833 
C 296.638433 6.870833 287.77166 10.54357 281.235062 17.080168 
C 274.698465 23.616765 271.025727 32.483538 271.025727 41.727683 
C 271.025727 50.971827 274.698465 59.8386 281.235062 66.375198 
C 287.77166 72.911795 296.638433 76.584533 305.882577 76.584533 
z
" clip-path="url(#pfdbf15bd19)" style="fill: #808080; stroke: #808080"/>
    <path d="M 54.755067 265.806305 
C 63.999212 265.806305 72.865984 262.133568 79.402582 255.59697 
C 85.939179 249.060373 89.611917 240.1936 89.611917 230.949455 
C 89.611917 221.705311 85.939179 212.838538 79.402582 206.30194 
C 72.865984 199.765343 63.999212 196.092605 54.755067 196.092605 
C 45.510922 196.092605 36.644149 199.765343 30.107552 206.30194 
C 23.570954 212.838538 19.898217 221.705311 19.898217 230.949455 
C 19.898217 240.1936 23.570954 249.060373 30.107552 255.59697 
C 36.644149 262.133568 45.510922 265.806305 54.755067 265.806305 
z
" clip-path="url(#pfdbf15bd19)" style="fill: #808080; stroke: #808080"/>
    <path d="M 342.476479 91.233352 
C 351.720624 91.233352 360.587397 87.560614 367.123994 81.024017 
C 373.660592 74.48742 377.333329 65.620647 377.333329 56.376502 
C 377.333329 47.132357 373.660592 38.265584 367.123994 31.728987 
C 360.587397 25.192389 351.720624 21.519652 342.476479 21.519652 
C 333.232335 21.519652 324.365562 25.192389 317.828964 31.728987 
C 311.292367 38.265584 307.619629 47.132357 307.619629 56.376502 
C 307.619629 65.620647 311.292367 74.48742 317.828964 81.024017 
C 324.365562 87.560614 333.232335 91.233352 342.476479 91.233352 
z
" clip-path="url(#pfdbf15bd19)" style="fill: #808080; stroke: #808080"/>
    <path d="M 365.316856 285.320561 
C 368.398238 285.320561 371.353829 284.096315 373.532695 281.917449 
C 375.711561 279.738583 376.935806 276.782992 376.935806 273.701611 
C 376.935806 270.620229 375.711561 267.664638 373.532695 265.485772 
C 371.353829 263.306907 368.398238 262.082661 365.316856 262.082661 
C 362.235475 262.082661 359.279884 263.306907 357.101018 265.485772 
C 354.922152 267.664638 353.697906 270.620229 353.697906 273.701611 
C 353.697906 276.782992 354.922152 279.738583 357.101018 281.917449 
C 359.279884 284.096315 362.235475 285.320561 365.316856 285.320561 
z
" clip-path="url(#pfdbf15bd19)" style="fill: #808080; stroke: #808080"/>
    <path d="M 175.397221 345.792391 
C 184.641366 345.792391 193.508139 342.119654 200.044736 335.583056 
C 206.581334 329.046459 210.254071 320.179686 210.254071 310.935541 
C 210.254071 301.691396 206.581334 292.824623 200.044736 286.288026 
C 193.508139 279.751429 184.641366 276.078691 175.397221 276.078691 
C 166.153076 276.078691 157.286303 279.751429 150.749706 286.288026 
C 144.213109 292.824623 140.540371 301.691396 140.540371 310.935541 
C 140.540371 320.179686 144.213109 329.046459 150.749706 335.583056 
C 157.286303 342.119654 166.153076 345.792391 175.397221 345.792391 
z
" clip-path="url(#pfdbf15bd19)" style="fill: #808080; stroke: #808080"/>
    <path d="M 59.101487 145.2515 
C 68.345632 145.2515 77.212405 141.578763 83.749002 135.042165 
C 90.2856 128.505568 93.958337 119.638795 93.958337 110.39465 
C 93.958337 101.150505 90.2856 92.283732 83.749002 85.747135 
C 77.212405 79.210538 68.345632 75.5378 59.101487 75.5378 
C 49.857342 75.5378 40.990569 79.210538 34.453972 85.747135 
C 27.917375 92.283732 24.244637 101.150505 24.244637 110.39465 
C 24.244637 119.638795 27.917375 128.505568 34.453972 135.042165 
C 40.990569 141.578763 49.857342 145.2515 59.101487 145.2515 
z
" clip-path="url(#pfdbf15bd19)" style="fill: #808080; stroke: #808080"/>
    <path d="M 44.730052 235.817053 
C 53.974197 235.817053 62.84097 232.144315 69.377567 225.607718 
C 75.914164 219.07112 79.586902 210.204347 79.586902 200.960203 
C 79.586902 191.716058 75.914164 182.849285 69.377567 176.312688 
C 62.84097 169.77609 53.974197 166.103353 44.730052 166.103353 
C 35.485907 166.103353 26.619134 169.77609 20.082537 176.312688 
C 13.545939 182.849285 9.873202 191.716058 9.873202 200.960203 
C 9.873202 210.204347 13.545939 219.07112 20.082537 225.607718 
C 26.619134 232.144315 35.485907 235.817053 44.730052 235.817053 
z
" clip-path="url(#pfdbf15bd19)" style="fill: #808080; stroke: #808080"/>
    <path d="M 137.305124 333.60637 
C 146.549269 333.60637 155.416041 329.933633 161.952639 323.397035 
C 168.489236 316.860438 172.161974 307.993665 172.161974 298.74952 
C 172.161974 289.505375 168.489236 280.638602 161.952639 274.102005 
C 155.416041 267.565408 146.549269 263.89267 137.305124 263.89267 
C 128.060979 263.89267 119.194206 267.565408 112.657609 274.102005 
C 106.121011 280.638602 102.448274 289.505375 102.448274 298.74952 
C 102.448274 307.993665 106.121011 316.860438 112.657609 323.397035 
C 119.194206 329.933633 128.060979 333.60637 137.305124 333.60637 
z
" clip-path="url(#pfdbf15bd19)" style="fill: #808080; stroke: #808080"/>
    <path d="M 392.762597 285.54426 
C 402.006742 285.54426 410.873515 281.871522 417.410112 275.334925 
C 423.94671 268.798328 427.619447 259.931555 427.619447 250.68741 
C 427.619447 241.443265 423.94671 232.576492 417.410112 226.039895 
C 410.873515 219.503297 402.006742 215.83056 392.762597 215.83056 
C 383.518452 215.83056 374.651679 219.503297 368.115082 226.039895 
C 361.578485 232.576492 357.905747 241.443265 357.905747 250.68741 
C 357.905747 259.931555 361.578485 268.798328 368.115082 275.334925 
C 374.651679 281.871522 383.518452 285.54426 392.762597 285.54426 
z
" clip-path="url(#pfdbf15bd19)" style="fill: #808080; stroke: #808080"/>
    <path d="M 103.519625 311.774907 
C 111.736643 311.774907 119.618219 308.510252 125.428527 302.699943 
C 131.238836 296.889634 134.503492 289.008058 134.503492 280.79104 
C 134.503492 272.574023 131.238836 264.692447 125.428527 258.882138 
C 119.618219 253.071829 111.736643 249.807174 103.519625 249.807174 
C 95.302608 249.807174 87.421032 253.071829 81.610723 258.882138 
C 75.800414 264.692447 72.535758 272.574023 72.535758 280.79104 
C 72.535758 289.008058 75.800414 296.889634 81.610723 302.699943 
C 87.421032 308.510252 95.302608 311.774907 103.519625 311.774907 
z
" clip-path="url(#pfdbf15bd19)" style="fill: #808080; stroke: #808080"/>
    <path d="M 76.428834 280.623522 
C 82.591597 280.623522 88.502779 278.17503 92.860511 273.817299 
C 97.218242 269.459567 99.666734 263.548385 99.666734 257.385622 
C 99.666734 251.222859 97.218242 245.311677 92.860511 240.953945 
C 88.502779 236.596214 82.591597 234.147722 76.428834 234.147722 
C 70.266071 234.147722 64.354889 236.596214 59.997157 240.953945 
C 55.639426 245.311677 53.190934 251.222859 53.190934 257.385622 
C 53.190934 263.548385 55.639426 269.459567 59.997157 273.817299 
C 64.354889 278.17503 70.266071 280.623522 76.428834 280.623522 
z
" clip-path="url(#pfdbf15bd19)" style="fill: #808080; stroke: #808080"/>
    <path d="M 266.33272 55.697153 
C 272.495483 55.697153 278.406665 53.248661 282.764396 48.890929 
C 287.122128 44.533198 289.57062 38.622016 289.57062 32.459253 
C 289.57062 26.296489 287.122128 20.385307 282.764396 16.027576 
C 278.406665 11.669844 272.495483 9.221353 266.33272 9.221353 
C 260.169957 9.221353 254.258775 11.669844 249.901043 16.027576 
C 245.543311 20.385307 243.09482 26.296489 243.09482 32.459253 
C 243.09482 38.622016 245.543311 44.533198 249.901043 48.890929 
C 254.258775 53.248661 260.169957 55.697153 266.33272 55.697153 
z
" clip-path="url(#pfdbf15bd19)" style="fill: #808080; stroke: #808080"/>
    <path d="M 413.814934 165.948245 
C 423.059079 165.948245 431.925851 162.275507 438.462449 155.73891 
C 444.999046 149.202312 448.671784 140.335539 448.671784 131.091395 
C 448.671784 121.84725 444.999046 112.980477 438.462449 106.443879 
C 431.925851 99.907282 423.059079 96.234544 413.814934 96.234544 
C 404.570789 96.234544 395.704016 99.907282 389.167419 106.443879 
C 382.630821 112.980477 378.958084 121.84725 378.958084 131.091395 
C 378.958084 140.335539 382.630821 149.202312 389.167419 155.73891 
C 395.704016 162.275507 404.570789 165.948245 413.814934 165.948245 
z
" clip-path="url(#pfdbf15bd19)" style="fill: #808080; stroke: #808080"/>
    <path d="M 145.358664 80.502235 
C 154.602809 80.502235 163.469582 76.829497 170.006179 70.2929 
C 176.542776 63.756302 180.215514 54.88953 180.215514 45.645385 
C 180.215514 36.40124 176.542776 27.534467 170.006179 20.99787 
C 163.469582 14.461272 154.602809 10.788535 145.358664 10.788535 
C 136.114519 10.788535 127.247746 14.461272 120.711149 20.99787 
C 114.174551 27.534467 110.501814 36.40124 110.501814 45.645385 
C 110.501814 54.88953 114.174551 63.756302 120.711149 70.2929 
C 127.247746 76.829497 136.114519 80.502235 145.358664 80.502235 
z
" clip-path="url(#pfdbf15bd19)" style="fill: #808080; stroke: #808080"/>
   </g>
   <g id="text_27">
    <g clip-path="url(#pfdbf15bd19)">
     <!-- Pablo -->
     <g transform="translate(208.809998 26.582645)scale(0.12 -0.12)">
      <defs>
       <path id="DejaVuSans-50" d="M 1259 4147 
L 1259 2394 
L 2053 2394 
Q 2494 2394 2734 2622 
Q 2975 2850 2975 3272 
Q 2975 3691 2734 3919 
Q 2494 4147 2053 4147 
L 1259 4147 
z
M 628 4666 
L 2053 4666 
Q 2838 4666 3239 4311 
Q 3641 3956 3641 3272 
Q 3641 2581 3239 2228 
Q 2838 1875 2053 1875 
L 1259 1875 
L 1259 0 
L 628 0 
L 628 4666 
z
" transform="scale(0.015625)"/>
       <path id="DejaVuSans-61" d="M 2194 1759 
Q 1497 1759 1228 1600 
Q 959 1441 959 1056 
Q 959 750 1161 570 
Q 1363 391 1709 391 
Q 2188 391 2477 730 
Q 2766 1069 2766 1631 
L 2766 1759 
L 2194 1759 
z
M 3341 1997 
L 3341 0 
L 2766 0 
L 2766 531 
Q 2569 213 2275 61 
Q 1981 -91 1556 -91 
Q 1019 -91 701 211 
Q 384 513 384 1019 
Q 384 1609 779 1909 
Q 1175 2209 1959 2209 
L 2766 2209 
L 2766 2266 
Q 2766 2663 2505 2880 
Q 2244 3097 1772 3097 
Q 1472 3097 1187 3025 
Q 903 2953 641 2809 
L 641 3341 
Q 956 3463 1253 3523 
Q 1550 3584 1831 3584 
Q 2591 3584 2966 3190 
Q 3341 2797 3341 1997 
z
" transform="scale(0.015625)"/>
       <path id="DejaVuSans-62" d="M 3116 1747 
Q 3116 2381 2855 2742 
Q 2594 3103 2138 3103 
Q 1681 3103 1420 2742 
Q 1159 2381 1159 1747 
Q 1159 1113 1420 752 
Q 1681 391 2138 391 
Q 2594 391 2855 752 
Q 3116 1113 3116 1747 
z
M 1159 2969 
Q 1341 3281 1617 3432 
Q 1894 3584 2278 3584 
Q 2916 3584 3314 3078 
Q 3713 2572 3713 1747 
Q 3713 922 3314 415 
Q 2916 -91 2278 -91 
Q 1894 -91 1617 61 
Q 1341 213 1159 525 
L 1159 0 
L 581 0 
L 581 4863 
L 1159 4863 
L 1159 2969 
z
" transform="scale(0.015625)"/>
       <path id="DejaVuSans-6c" d="M 603 4863 
L 1178 4863 
L 1178 0 
L 603 0 
L 603 4863 
z
" transform="scale(0.015625)"/>
       <path id="DejaVuSans-6f" d="M 1959 3097 
Q 1497 3097 1228 2736 
Q 959 2375 959 1747 
Q 959 1119 1226 758 
Q 1494 397 1959 397 
Q 2419 397 2687 759 
Q 2956 1122 2956 1747 
Q 2956 2369 2687 2733 
Q 2419 3097 1959 3097 
z
M 1959 3584 
Q 2709 3584 3137 3096 
Q 3566 2609 3566 1747 
Q 3566 888 3137 398 
Q 2709 -91 1959 -91 
Q 1206 -91 779 398 
Q 353 888 353 1747 
Q 353 2609 779 3096 
Q 1206 3584 1959 3584 
z
" transform="scale(0.015625)"/>
      </defs>
      <use xlink:href="#DejaVuSans-50"/>
      <use xlink:href="#DejaVuSans-61" x="55.802734"/>
      <use xlink:href="#DejaVuSans-62" x="117.082031"/>
      <use xlink:href="#DejaVuSans-6c" x="180.558594"/>
      <use xlink:href="#DejaVuSans-6f" x="208.341797"/>
     </g>
    </g>
    <g clip-path="url(#pfdbf15bd19)">
     <!-- Ugo -->
     <g transform="translate(213.11031 40.02002)scale(0.12 -0.12)">
      <defs>
       <path id="DejaVuSans-55" d="M 556 4666 
L 1191 4666 
L 1191 1831 
Q 1191 1081 1462 751 
Q 1734 422 2344 422 
Q 2950 422 3222 751 
Q 3494 1081 3494 1831 
L 3494 4666 
L 4128 4666 
L 4128 1753 
Q 4128 841 3676 375 
Q 3225 -91 2344 -91 
Q 1459 -91 1007 375 
Q 556 841 556 1753 
L 556 4666 
z
" transform="scale(0.015625)"/>
       <path id="DejaVuSans-67" d="M 2906 1791 
Q 2906 2416 2648 2759 
Q 2391 3103 1925 3103 
Q 1463 3103 1205 2759 
Q 947 2416 947 1791 
Q 947 1169 1205 825 
Q 1463 481 1925 481 
Q 2391 481 2648 825 
Q 2906 1169 2906 1791 
z
M 3481 434 
Q 3481 -459 3084 -895 
Q 2688 -1331 1869 -1331 
Q 1566 -1331 1297 -1286 
Q 1028 -1241 775 -1147 
L 775 -588 
Q 1028 -725 1275 -790 
Q 1522 -856 1778 -856 
Q 2344 -856 2625 -561 
Q 2906 -266 2906 331 
L 2906 616 
Q 2728 306 2450 153 
Q 2172 0 1784 0 
Q 1141 0 747 490 
Q 353 981 353 1791 
Q 353 2603 747 3093 
Q 1141 3584 1784 3584 
Q 2172 3584 2450 3431 
Q 2728 3278 2906 2969 
L 2906 3500 
L 3481 3500 
L 3481 434 
z
" transform="scale(0.015625)"/>
      </defs>
      <use xlink:href="#DejaVuSans-55"/>
      <use xlink:href="#DejaVuSans-67" x="73.193359"/>
      <use xlink:href="#DejaVuSans-6f" x="136.669922"/>
     </g>
    </g>
   </g>
   <g id="text_28">
    <g clip-path="url(#pfdbf15bd19)">
     <!-- Nicco -->
     <g transform="translate(63.909295 80.241979)scale(0.12 -0.12)">
      <defs>
       <path id="DejaVuSans-4e" d="M 628 4666 
L 1478 4666 
L 3547 763 
L 3547 4666 
L 4159 4666 
L 4159 0 
L 3309 0 
L 1241 3903 
L 1241 0 
L 628 0 
L 628 4666 
z
" transform="scale(0.015625)"/>
       <path id="DejaVuSans-69" d="M 603 3500 
L 1178 3500 
L 1178 0 
L 603 0 
L 603 3500 
z
M 603 4863 
L 1178 4863 
L 1178 4134 
L 603 4134 
L 603 4863 
z
" transform="scale(0.015625)"/>
       <path id="DejaVuSans-63" d="M 3122 3366 
L 3122 2828 
Q 2878 2963 2633 3030 
Q 2388 3097 2138 3097 
Q 1578 3097 1268 2742 
Q 959 2388 959 1747 
Q 959 1106 1268 751 
Q 1578 397 2138 397 
Q 2388 397 2633 464 
Q 2878 531 3122 666 
L 3122 134 
Q 2881 22 2623 -34 
Q 2366 -91 2075 -91 
Q 1284 -91 818 406 
Q 353 903 353 1747 
Q 353 2603 823 3093 
Q 1294 3584 2113 3584 
Q 2378 3584 2631 3529 
Q 2884 3475 3122 3366 
z
" transform="scale(0.015625)"/>
      </defs>
      <use xlink:href="#DejaVuSans-4e"/>
      <use xlink:href="#DejaVuSans-69" x="74.804688"/>
      <use xlink:href="#DejaVuSans-63" x="102.587891"/>
      <use xlink:href="#DejaVuSans-63" x="157.568359"/>
      <use xlink:href="#DejaVuSans-6f" x="212.548828"/>
     </g>
    </g>
    <g clip-path="url(#pfdbf15bd19)">
     <!-- Shintaro -->
     <g transform="translate(55.221483 93.679354)scale(0.12 -0.12)">
      <defs>
       <path id="DejaVuSans-53" d="M 3425 4513 
L 3425 3897 
Q 3066 4069 2747 4153 
Q 2428 4238 2131 4238 
Q 1616 4238 1336 4038 
Q 1056 3838 1056 3469 
Q 1056 3159 1242 3001 
Q 1428 2844 1947 2747 
L 2328 2669 
Q 3034 2534 3370 2195 
Q 3706 1856 3706 1288 
Q 3706 609 3251 259 
Q 2797 -91 1919 -91 
Q 1588 -91 1214 -16 
Q 841 59 441 206 
L 441 856 
Q 825 641 1194 531 
Q 1563 422 1919 422 
Q 2459 422 2753 634 
Q 3047 847 3047 1241 
Q 3047 1584 2836 1778 
Q 2625 1972 2144 2069 
L 1759 2144 
Q 1053 2284 737 2584 
Q 422 2884 422 3419 
Q 422 4038 858 4394 
Q 1294 4750 2059 4750 
Q 2388 4750 2728 4690 
Q 3069 4631 3425 4513 
z
" transform="scale(0.015625)"/>
       <path id="DejaVuSans-68" d="M 3513 2113 
L 3513 0 
L 2938 0 
L 2938 2094 
Q 2938 2591 2744 2837 
Q 2550 3084 2163 3084 
Q 1697 3084 1428 2787 
Q 1159 2491 1159 1978 
L 1159 0 
L 581 0 
L 581 4863 
L 1159 4863 
L 1159 2956 
Q 1366 3272 1645 3428 
Q 1925 3584 2291 3584 
Q 2894 3584 3203 3211 
Q 3513 2838 3513 2113 
z
" transform="scale(0.015625)"/>
       <path id="DejaVuSans-6e" d="M 3513 2113 
L 3513 0 
L 2938 0 
L 2938 2094 
Q 2938 2591 2744 2837 
Q 2550 3084 2163 3084 
Q 1697 3084 1428 2787 
Q 1159 2491 1159 1978 
L 1159 0 
L 581 0 
L 581 3500 
L 1159 3500 
L 1159 2956 
Q 1366 3272 1645 3428 
Q 1925 3584 2291 3584 
Q 2894 3584 3203 3211 
Q 3513 2838 3513 2113 
z
" transform="scale(0.015625)"/>
       <path id="DejaVuSans-74" d="M 1172 4494 
L 1172 3500 
L 2356 3500 
L 2356 3053 
L 1172 3053 
L 1172 1153 
Q 1172 725 1289 603 
Q 1406 481 1766 481 
L 2356 481 
L 2356 0 
L 1766 0 
Q 1100 0 847 248 
Q 594 497 594 1153 
L 594 3053 
L 172 3053 
L 172 3500 
L 594 3500 
L 594 4494 
L 1172 4494 
z
" transform="scale(0.015625)"/>
       <path id="DejaVuSans-72" d="M 2631 2963 
Q 2534 3019 2420 3045 
Q 2306 3072 2169 3072 
Q 1681 3072 1420 2755 
Q 1159 2438 1159 1844 
L 1159 0 
L 581 0 
L 581 3500 
L 1159 3500 
L 1159 2956 
Q 1341 3275 1631 3429 
Q 1922 3584 2338 3584 
Q 2397 3584 2469 3576 
Q 2541 3569 2628 3553 
L 2631 2963 
z
" transform="scale(0.015625)"/>
      </defs>
      <use xlink:href="#DejaVuSans-53"/>
      <use xlink:href="#DejaVuSans-68" x="63.476562"/>
      <use xlink:href="#DejaVuSans-69" x="126.855469"/>
      <use xlink:href="#DejaVuSans-6e" x="154.638672"/>
      <use xlink:href="#DejaVuSans-74" x="218.017578"/>
      <use xlink:href="#DejaVuSans-61" x="257.226562"/>
      <use xlink:href="#DejaVuSans-72" x="318.505859"/>
      <use xlink:href="#DejaVuSans-6f" x="357.369141"/>
     </g>
    </g>
   </g>
   <g id="text_29">
    <g clip-path="url(#pfdbf15bd19)">
     <!-- Pablo -->
     <g transform="translate(394.082539 219.168213)scale(0.12 -0.12)">
      <use xlink:href="#DejaVuSans-50"/>
      <use xlink:href="#DejaVuSans-61" x="55.802734"/>
      <use xlink:href="#DejaVuSans-62" x="117.082031"/>
      <use xlink:href="#DejaVuSans-6c" x="180.558594"/>
      <use xlink:href="#DejaVuSans-6f" x="208.341797"/>
     </g>
    </g>
    <g clip-path="url(#pfdbf15bd19)">
     <!-- Xiaoyu -->
     <g transform="translate(389.775664 232.605588)scale(0.12 -0.12)">
      <defs>
       <path id="DejaVuSans-58" d="M 403 4666 
L 1081 4666 
L 2241 2931 
L 3406 4666 
L 4084 4666 
L 2584 2425 
L 4184 0 
L 3506 0 
L 2194 1984 
L 872 0 
L 191 0 
L 1856 2491 
L 403 4666 
z
" transform="scale(0.015625)"/>
       <path id="DejaVuSans-79" d="M 2059 -325 
Q 1816 -950 1584 -1140 
Q 1353 -1331 966 -1331 
L 506 -1331 
L 506 -850 
L 844 -850 
Q 1081 -850 1212 -737 
Q 1344 -625 1503 -206 
L 1606 56 
L 191 3500 
L 800 3500 
L 1894 763 
L 2988 3500 
L 3597 3500 
L 2059 -325 
z
" transform="scale(0.015625)"/>
       <path id="DejaVuSans-75" d="M 544 1381 
L 544 3500 
L 1119 3500 
L 1119 1403 
Q 1119 906 1312 657 
Q 1506 409 1894 409 
Q 2359 409 2629 706 
Q 2900 1003 2900 1516 
L 2900 3500 
L 3475 3500 
L 3475 0 
L 2900 0 
L 2900 538 
Q 2691 219 2414 64 
Q 2138 -91 1772 -91 
Q 1169 -91 856 284 
Q 544 659 544 1381 
z
M 1991 3584 
L 1991 3584 
z
" transform="scale(0.015625)"/>
      </defs>
      <use xlink:href="#DejaVuSans-58"/>
      <use xlink:href="#DejaVuSans-69" x="68.505859"/>
      <use xlink:href="#DejaVuSans-61" x="96.289062"/>
      <use xlink:href="#DejaVuSans-6f" x="157.568359"/>
      <use xlink:href="#DejaVuSans-79" x="218.75"/>
      <use xlink:href="#DejaVuSans-75" x="277.929688"/>
     </g>
    </g>
   </g>
   <g id="text_30">
    <g clip-path="url(#pfdbf15bd19)">
     <!-- Nicco -->
     <g transform="translate(23.561777 166.906095)scale(0.12 -0.12)">
      <use xlink:href="#DejaVuSans-4e"/>
      <use xlink:href="#DejaVuSans-69" x="74.804688"/>
      <use xlink:href="#DejaVuSans-63" x="102.587891"/>
      <use xlink:href="#DejaVuSans-63" x="157.568359"/>
      <use xlink:href="#DejaVuSans-6f" x="212.548828"/>
     </g>
    </g>
    <g clip-path="url(#pfdbf15bd19)">
     <!-- Leo -->
     <g transform="translate(29.385527 180.34347)scale(0.12 -0.12)">
      <defs>
       <path id="DejaVuSans-4c" d="M 628 4666 
L 1259 4666 
L 1259 531 
L 3531 531 
L 3531 0 
L 628 0 
L 628 4666 
z
" transform="scale(0.015625)"/>
       <path id="DejaVuSans-65" d="M 3597 1894 
L 3597 1613 
L 953 1613 
Q 991 1019 1311 708 
Q 1631 397 2203 397 
Q 2534 397 2845 478 
Q 3156 559 3463 722 
L 3463 178 
Q 3153 47 2828 -22 
Q 2503 -91 2169 -91 
Q 1331 -91 842 396 
Q 353 884 353 1716 
Q 353 2575 817 3079 
Q 1281 3584 2069 3584 
Q 2775 3584 3186 3129 
Q 3597 2675 3597 1894 
z
M 3022 2063 
Q 3016 2534 2758 2815 
Q 2500 3097 2075 3097 
Q 1594 3097 1305 2825 
Q 1016 2553 972 2059 
L 3022 2063 
z
" transform="scale(0.015625)"/>
      </defs>
      <use xlink:href="#DejaVuSans-4c"/>
      <use xlink:href="#DejaVuSans-65" x="53.962891"/>
      <use xlink:href="#DejaVuSans-6f" x="115.486328"/>
     </g>
    </g>
   </g>
   <g id="text_31">
    <g clip-path="url(#pfdbf15bd19)">
     <!-- Leo -->
     <g transform="translate(205.573978 312.20248)scale(0.12 -0.12)">
      <use xlink:href="#DejaVuSans-4c"/>
      <use xlink:href="#DejaVuSans-65" x="53.962891"/>
      <use xlink:href="#DejaVuSans-6f" x="115.486328"/>
     </g>
    </g>
    <g clip-path="url(#pfdbf15bd19)">
     <!-- Shintaro -->
     <g transform="translate(191.062415 325.639855)scale(0.12 -0.12)">
      <use xlink:href="#DejaVuSans-53"/>
      <use xlink:href="#DejaVuSans-68" x="63.476562"/>
      <use xlink:href="#DejaVuSans-69" x="126.855469"/>
      <use xlink:href="#DejaVuSans-6e" x="154.638672"/>
      <use xlink:href="#DejaVuSans-74" x="218.017578"/>
      <use xlink:href="#DejaVuSans-61" x="257.226562"/>
      <use xlink:href="#DejaVuSans-72" x="318.505859"/>
      <use xlink:href="#DejaVuSans-6f" x="357.369141"/>
     </g>
    </g>
   </g>
   <g id="text_32">
    <g clip-path="url(#pfdbf15bd19)">
     <!-- Pablo -->
     <g transform="translate(281.491687 304.909539)scale(0.12 -0.12)">
      <use xlink:href="#DejaVuSans-50"/>
      <use xlink:href="#DejaVuSans-61" x="55.802734"/>
      <use xlink:href="#DejaVuSans-62" x="117.082031"/>
      <use xlink:href="#DejaVuSans-6c" x="180.558594"/>
      <use xlink:href="#DejaVuSans-6f" x="208.341797"/>
     </g>
    </g>
    <g clip-path="url(#pfdbf15bd19)">
     <!-- Leo -->
     <g transform="translate(287.062312 318.346914)scale(0.12 -0.12)">
      <use xlink:href="#DejaVuSans-4c"/>
      <use xlink:href="#DejaVuSans-65" x="53.962891"/>
      <use xlink:href="#DejaVuSans-6f" x="115.486328"/>
     </g>
    </g>
   </g>
   <g id="text_33">
    <g clip-path="url(#pfdbf15bd19)">
     <!-- Shintaro -->
     <g transform="translate(19.470892 136.083957)scale(0.12 -0.12)">
      <use xlink:href="#DejaVuSans-53"/>
      <use xlink:href="#DejaVuSans-68" x="63.476562"/>
      <use xlink:href="#DejaVuSans-69" x="126.855469"/>
      <use xlink:href="#DejaVuSans-6e" x="154.638672"/>
      <use xlink:href="#DejaVuSans-74" x="218.017578"/>
      <use xlink:href="#DejaVuSans-61" x="257.226562"/>
      <use xlink:href="#DejaVuSans-72" x="318.505859"/>
      <use xlink:href="#DejaVuSans-6f" x="357.369141"/>
     </g>
    </g>
    <g clip-path="url(#pfdbf15bd19)">
     <!-- Xiaoyu -->
     <g transform="translate(24.104955 149.521332)scale(0.12 -0.12)">
      <use xlink:href="#DejaVuSans-58"/>
      <use xlink:href="#DejaVuSans-69" x="68.505859"/>
      <use xlink:href="#DejaVuSans-61" x="96.289062"/>
      <use xlink:href="#DejaVuSans-6f" x="157.568359"/>
      <use xlink:href="#DejaVuSans-79" x="218.75"/>
      <use xlink:href="#DejaVuSans-75" x="277.929688"/>
     </g>
    </g>
   </g>
   <g id="text_34">
    <g clip-path="url(#pfdbf15bd19)">
     <!-- Leo -->
     <g transform="translate(246.790744 312.101977)scale(0.12 -0.12)">
      <use xlink:href="#DejaVuSans-4c"/>
      <use xlink:href="#DejaVuSans-65" x="53.962891"/>
      <use xlink:href="#DejaVuSans-6f" x="115.486328"/>
     </g>
    </g>
    <g clip-path="url(#pfdbf15bd19)">
     <!-- Xiaoyu -->
     <g transform="translate(236.913244 325.539352)scale(0.12 -0.12)">
      <use xlink:href="#DejaVuSans-58"/>
      <use xlink:href="#DejaVuSans-69" x="68.505859"/>
      <use xlink:href="#DejaVuSans-61" x="96.289062"/>
      <use xlink:href="#DejaVuSans-6f" x="157.568359"/>
      <use xlink:href="#DejaVuSans-79" x="218.75"/>
      <use xlink:href="#DejaVuSans-75" x="277.929688"/>
     </g>
    </g>
   </g>
   <g id="text_35">
    <g clip-path="url(#pfdbf15bd19)">
     <!-- Pablo -->
     <g transform="translate(167.795838 31.091897)scale(0.12 -0.12)">
      <use xlink:href="#DejaVuSans-50"/>
      <use xlink:href="#DejaVuSans-61" x="55.802734"/>
      <use xlink:href="#DejaVuSans-62" x="117.082031"/>
      <use xlink:href="#DejaVuSans-6c" x="180.558594"/>
      <use xlink:href="#DejaVuSans-6f" x="208.341797"/>
     </g>
    </g>
    <g clip-path="url(#pfdbf15bd19)">
     <!-- Shintaro -->
     <g transform="translate(158.854901 44.529272)scale(0.12 -0.12)">
      <use xlink:href="#DejaVuSans-53"/>
      <use xlink:href="#DejaVuSans-68" x="63.476562"/>
      <use xlink:href="#DejaVuSans-69" x="126.855469"/>
      <use xlink:href="#DejaVuSans-6e" x="154.638672"/>
      <use xlink:href="#DejaVuSans-74" x="218.017578"/>
      <use xlink:href="#DejaVuSans-61" x="257.226562"/>
      <use xlink:href="#DejaVuSans-72" x="318.505859"/>
      <use xlink:href="#DejaVuSans-6f" x="357.369141"/>
     </g>
    </g>
   </g>
   <g id="text_36">
    <g clip-path="url(#pfdbf15bd19)">
     <!-- Ugo -->
     <g transform="translate(322.691533 290.79251)scale(0.12 -0.12)">
      <use xlink:href="#DejaVuSans-55"/>
      <use xlink:href="#DejaVuSans-67" x="73.193359"/>
      <use xlink:href="#DejaVuSans-6f" x="136.669922"/>
     </g>
    </g>
    <g clip-path="url(#pfdbf15bd19)">
     <!-- Nicco -->
     <g transform="translate(318.138095 304.229885)scale(0.12 -0.12)">
      <use xlink:href="#DejaVuSans-4e"/>
      <use xlink:href="#DejaVuSans-69" x="74.804688"/>
      <use xlink:href="#DejaVuSans-63" x="102.587891"/>
      <use xlink:href="#DejaVuSans-63" x="157.568359"/>
      <use xlink:href="#DejaVuSans-6f" x="212.548828"/>
     </g>
    </g>
   </g>
   <g id="text_37">
    <g clip-path="url(#pfdbf15bd19)">
     <!-- Mathieu p -->
     <g transform="translate(367.956046 98.977202)scale(0.12 -0.12)">
      <defs>
       <path id="DejaVuSans-4d" d="M 628 4666 
L 1569 4666 
L 2759 1491 
L 3956 4666 
L 4897 4666 
L 4897 0 
L 4281 0 
L 4281 4097 
L 3078 897 
L 2444 897 
L 1241 4097 
L 1241 0 
L 628 0 
L 628 4666 
z
" transform="scale(0.015625)"/>
       <path id="DejaVuSans-20" transform="scale(0.015625)"/>
       <path id="DejaVuSans-70" d="M 1159 525 
L 1159 -1331 
L 581 -1331 
L 581 3500 
L 1159 3500 
L 1159 2969 
Q 1341 3281 1617 3432 
Q 1894 3584 2278 3584 
Q 2916 3584 3314 3078 
Q 3713 2572 3713 1747 
Q 3713 922 3314 415 
Q 2916 -91 2278 -91 
Q 1894 -91 1617 61 
Q 1341 213 1159 525 
z
M 3116 1747 
Q 3116 2381 2855 2742 
Q 2594 3103 2138 3103 
Q 1681 3103 1420 2742 
Q 1159 2381 1159 1747 
Q 1159 1113 1420 752 
Q 1681 391 2138 391 
Q 2594 391 2855 752 
Q 3116 1113 3116 1747 
z
" transform="scale(0.015625)"/>
      </defs>
      <use xlink:href="#DejaVuSans-4d"/>
      <use xlink:href="#DejaVuSans-61" x="86.279297"/>
      <use xlink:href="#DejaVuSans-74" x="147.558594"/>
      <use xlink:href="#DejaVuSans-68" x="186.767578"/>
      <use xlink:href="#DejaVuSans-69" x="250.146484"/>
      <use xlink:href="#DejaVuSans-65" x="277.929688"/>
      <use xlink:href="#DejaVuSans-75" x="339.453125"/>
      <use xlink:href="#DejaVuSans-20" x="402.832031"/>
      <use xlink:href="#DejaVuSans-70" x="434.619141"/>
     </g>
    </g>
    <g clip-path="url(#pfdbf15bd19)">
     <!-- Shintaro -->
     <g transform="translate(372.728858 112.414577)scale(0.12 -0.12)">
      <use xlink:href="#DejaVuSans-53"/>
      <use xlink:href="#DejaVuSans-68" x="63.476562"/>
      <use xlink:href="#DejaVuSans-69" x="126.855469"/>
      <use xlink:href="#DejaVuSans-6e" x="154.638672"/>
      <use xlink:href="#DejaVuSans-74" x="218.017578"/>
      <use xlink:href="#DejaVuSans-61" x="257.226562"/>
      <use xlink:href="#DejaVuSans-72" x="318.505859"/>
      <use xlink:href="#DejaVuSans-6f" x="357.369141"/>
     </g>
    </g>
   </g>
   <g id="text_38">
    <g clip-path="url(#pfdbf15bd19)">
     <!-- Pablo -->
     <g transform="translate(357.091895 73.875)scale(0.12 -0.12)">
      <use xlink:href="#DejaVuSans-50"/>
      <use xlink:href="#DejaVuSans-61" x="55.802734"/>
      <use xlink:href="#DejaVuSans-62" x="117.082031"/>
      <use xlink:href="#DejaVuSans-6c" x="180.558594"/>
      <use xlink:href="#DejaVuSans-6f" x="208.341797"/>
     </g>
    </g>
    <g clip-path="url(#pfdbf15bd19)">
     <!-- Nicco -->
     <g transform="translate(356.83877 87.312375)scale(0.12 -0.12)">
      <use xlink:href="#DejaVuSans-4e"/>
      <use xlink:href="#DejaVuSans-69" x="74.804688"/>
      <use xlink:href="#DejaVuSans-63" x="102.587891"/>
      <use xlink:href="#DejaVuSans-63" x="157.568359"/>
      <use xlink:href="#DejaVuSans-6f" x="212.548828"/>
     </g>
    </g>
   </g>
   <g id="text_39">
    <g clip-path="url(#pfdbf15bd19)">
     <!-- Mathieu p -->
     <g transform="translate(80.76639 59.039979)scale(0.12 -0.12)">
      <use xlink:href="#DejaVuSans-4d"/>
      <use xlink:href="#DejaVuSans-61" x="86.279297"/>
      <use xlink:href="#DejaVuSans-74" x="147.558594"/>
      <use xlink:href="#DejaVuSans-68" x="186.767578"/>
      <use xlink:href="#DejaVuSans-69" x="250.146484"/>
      <use xlink:href="#DejaVuSans-65" x="277.929688"/>
      <use xlink:href="#DejaVuSans-75" x="339.453125"/>
      <use xlink:href="#DejaVuSans-20" x="402.832031"/>
      <use xlink:href="#DejaVuSans-70" x="434.619141"/>
     </g>
    </g>
    <g clip-path="url(#pfdbf15bd19)">
     <!-- Leo -->
     <g transform="translate(100.050765 72.477354)scale(0.12 -0.12)">
      <use xlink:href="#DejaVuSans-4c"/>
      <use xlink:href="#DejaVuSans-65" x="53.962891"/>
      <use xlink:href="#DejaVuSans-6f" x="115.486328"/>
     </g>
    </g>
   </g>
   <g id="text_40">
    <g clip-path="url(#pfdbf15bd19)">
     <!-- Pablo -->
     <g transform="translate(404.641348 158.209287)scale(0.12 -0.12)">
      <use xlink:href="#DejaVuSans-50"/>
      <use xlink:href="#DejaVuSans-61" x="55.802734"/>
      <use xlink:href="#DejaVuSans-62" x="117.082031"/>
      <use xlink:href="#DejaVuSans-6c" x="180.558594"/>
      <use xlink:href="#DejaVuSans-6f" x="208.341797"/>
     </g>
    </g>
    <g clip-path="url(#pfdbf15bd19)">
     <!-- Mathieu p -->
     <g transform="translate(390.927598 171.646662)scale(0.12 -0.12)">
      <use xlink:href="#DejaVuSans-4d"/>
      <use xlink:href="#DejaVuSans-61" x="86.279297"/>
      <use xlink:href="#DejaVuSans-74" x="147.558594"/>
      <use xlink:href="#DejaVuSans-68" x="186.767578"/>
      <use xlink:href="#DejaVuSans-69" x="250.146484"/>
      <use xlink:href="#DejaVuSans-65" x="277.929688"/>
      <use xlink:href="#DejaVuSans-75" x="339.453125"/>
      <use xlink:href="#DejaVuSans-20" x="402.832031"/>
      <use xlink:href="#DejaVuSans-70" x="434.619141"/>
     </g>
    </g>
   </g>
   <g id="text_41">
    <g clip-path="url(#pfdbf15bd19)">
     <!-- Ugo -->
     <g transform="translate(408.827062 189.180103)scale(0.12 -0.12)">
      <use xlink:href="#DejaVuSans-55"/>
      <use xlink:href="#DejaVuSans-67" x="73.193359"/>
      <use xlink:href="#DejaVuSans-6f" x="136.669922"/>
     </g>
    </g>
    <g clip-path="url(#pfdbf15bd19)">
     <!-- Xiaoyu -->
     <g transform="translate(400.219874 202.617478)scale(0.12 -0.12)">
      <use xlink:href="#DejaVuSans-58"/>
      <use xlink:href="#DejaVuSans-69" x="68.505859"/>
      <use xlink:href="#DejaVuSans-61" x="96.289062"/>
      <use xlink:href="#DejaVuSans-6f" x="157.568359"/>
      <use xlink:href="#DejaVuSans-79" x="218.75"/>
      <use xlink:href="#DejaVuSans-75" x="277.929688"/>
     </g>
    </g>
   </g>
   <g id="text_42">
    <g clip-path="url(#pfdbf15bd19)">
     <!-- Mathieu p -->
     <g transform="translate(275.996952 38.320245)scale(0.12 -0.12)">
      <use xlink:href="#DejaVuSans-4d"/>
      <use xlink:href="#DejaVuSans-61" x="86.279297"/>
      <use xlink:href="#DejaVuSans-74" x="147.558594"/>
      <use xlink:href="#DejaVuSans-68" x="186.767578"/>
      <use xlink:href="#DejaVuSans-69" x="250.146484"/>
      <use xlink:href="#DejaVuSans-65" x="277.929688"/>
      <use xlink:href="#DejaVuSans-75" x="339.453125"/>
      <use xlink:href="#DejaVuSans-20" x="402.832031"/>
      <use xlink:href="#DejaVuSans-70" x="434.619141"/>
     </g>
    </g>
    <g clip-path="url(#pfdbf15bd19)">
     <!-- Xiaoyu -->
     <g transform="translate(285.403827 51.75762)scale(0.12 -0.12)">
      <use xlink:href="#DejaVuSans-58"/>
      <use xlink:href="#DejaVuSans-69" x="68.505859"/>
      <use xlink:href="#DejaVuSans-61" x="96.289062"/>
      <use xlink:href="#DejaVuSans-6f" x="157.568359"/>
      <use xlink:href="#DejaVuSans-79" x="218.75"/>
      <use xlink:href="#DejaVuSans-75" x="277.929688"/>
     </g>
    </g>
   </g>
   <g id="text_43">
    <g clip-path="url(#pfdbf15bd19)">
     <!-- Mathieu p -->
     <g transform="translate(24.869442 227.542018)scale(0.12 -0.12)">
      <use xlink:href="#DejaVuSans-4d"/>
      <use xlink:href="#DejaVuSans-61" x="86.279297"/>
      <use xlink:href="#DejaVuSans-74" x="147.558594"/>
      <use xlink:href="#DejaVuSans-68" x="186.767578"/>
      <use xlink:href="#DejaVuSans-69" x="250.146484"/>
      <use xlink:href="#DejaVuSans-65" x="277.929688"/>
      <use xlink:href="#DejaVuSans-75" x="339.453125"/>
      <use xlink:href="#DejaVuSans-20" x="402.832031"/>
      <use xlink:href="#DejaVuSans-70" x="434.619141"/>
     </g>
    </g>
    <g clip-path="url(#pfdbf15bd19)">
     <!-- Samantha -->
     <g transform="translate(24.113817 240.979393)scale(0.12 -0.12)">
      <defs>
       <path id="DejaVuSans-6d" d="M 3328 2828 
Q 3544 3216 3844 3400 
Q 4144 3584 4550 3584 
Q 5097 3584 5394 3201 
Q 5691 2819 5691 2113 
L 5691 0 
L 5113 0 
L 5113 2094 
Q 5113 2597 4934 2840 
Q 4756 3084 4391 3084 
Q 3944 3084 3684 2787 
Q 3425 2491 3425 1978 
L 3425 0 
L 2847 0 
L 2847 2094 
Q 2847 2600 2669 2842 
Q 2491 3084 2119 3084 
Q 1678 3084 1418 2786 
Q 1159 2488 1159 1978 
L 1159 0 
L 581 0 
L 581 3500 
L 1159 3500 
L 1159 2956 
Q 1356 3278 1631 3431 
Q 1906 3584 2284 3584 
Q 2666 3584 2933 3390 
Q 3200 3197 3328 2828 
z
" transform="scale(0.015625)"/>
      </defs>
      <use xlink:href="#DejaVuSans-53"/>
      <use xlink:href="#DejaVuSans-61" x="63.476562"/>
      <use xlink:href="#DejaVuSans-6d" x="124.755859"/>
      <use xlink:href="#DejaVuSans-61" x="222.167969"/>
      <use xlink:href="#DejaVuSans-6e" x="283.447266"/>
      <use xlink:href="#DejaVuSans-74" x="346.826172"/>
      <use xlink:href="#DejaVuSans-68" x="386.035156"/>
      <use xlink:href="#DejaVuSans-61" x="449.414062"/>
     </g>
    </g>
   </g>
   <g id="text_44">
    <g clip-path="url(#pfdbf15bd19)">
     <!-- Ugo -->
     <g transform="translate(330.604917 52.969064)scale(0.12 -0.12)">
      <use xlink:href="#DejaVuSans-55"/>
      <use xlink:href="#DejaVuSans-67" x="73.193359"/>
      <use xlink:href="#DejaVuSans-6f" x="136.669922"/>
     </g>
    </g>
    <g clip-path="url(#pfdbf15bd19)">
     <!-- Mathieu p -->
     <g transform="translate(312.590854 66.406439)scale(0.12 -0.12)">
      <use xlink:href="#DejaVuSans-4d"/>
      <use xlink:href="#DejaVuSans-61" x="86.279297"/>
      <use xlink:href="#DejaVuSans-74" x="147.558594"/>
      <use xlink:href="#DejaVuSans-68" x="186.767578"/>
      <use xlink:href="#DejaVuSans-69" x="250.146484"/>
      <use xlink:href="#DejaVuSans-65" x="277.929688"/>
      <use xlink:href="#DejaVuSans-75" x="339.453125"/>
      <use xlink:href="#DejaVuSans-20" x="402.832031"/>
      <use xlink:href="#DejaVuSans-70" x="434.619141"/>
     </g>
    </g>
   </g>
   <g id="text_45">
    <g clip-path="url(#pfdbf15bd19)">
     <!-- Ugo -->
     <g transform="translate(353.445294 270.294173)scale(0.12 -0.12)">
      <use xlink:href="#DejaVuSans-55"/>
      <use xlink:href="#DejaVuSans-67" x="73.193359"/>
      <use xlink:href="#DejaVuSans-6f" x="136.669922"/>
     </g>
    </g>
    <g clip-path="url(#pfdbf15bd19)">
     <!-- Leo -->
     <g transform="translate(354.715606 283.731548)scale(0.12 -0.12)">
      <use xlink:href="#DejaVuSans-4c"/>
      <use xlink:href="#DejaVuSans-65" x="53.962891"/>
      <use xlink:href="#DejaVuSans-6f" x="115.486328"/>
     </g>
    </g>
   </g>
   <g id="text_46">
    <g clip-path="url(#pfdbf15bd19)">
     <!-- Nicco -->
     <g transform="translate(158.972221 307.528104)scale(0.12 -0.12)">
      <use xlink:href="#DejaVuSans-4e"/>
      <use xlink:href="#DejaVuSans-69" x="74.804688"/>
      <use xlink:href="#DejaVuSans-63" x="102.587891"/>
      <use xlink:href="#DejaVuSans-63" x="157.568359"/>
      <use xlink:href="#DejaVuSans-6f" x="212.548828"/>
     </g>
    </g>
    <g clip-path="url(#pfdbf15bd19)">
     <!-- Mathieu r -->
     <g transform="translate(146.854096 320.965479)scale(0.12 -0.12)">
      <use xlink:href="#DejaVuSans-4d"/>
      <use xlink:href="#DejaVuSans-61" x="86.279297"/>
      <use xlink:href="#DejaVuSans-74" x="147.558594"/>
      <use xlink:href="#DejaVuSans-68" x="186.767578"/>
      <use xlink:href="#DejaVuSans-69" x="250.146484"/>
      <use xlink:href="#DejaVuSans-65" x="277.929688"/>
      <use xlink:href="#DejaVuSans-75" x="339.453125"/>
      <use xlink:href="#DejaVuSans-20" x="402.832031"/>
      <use xlink:href="#DejaVuSans-72" x="434.619141"/>
     </g>
    </g>
   </g>
   <g id="text_47">
    <g clip-path="url(#pfdbf15bd19)">
     <!-- Ugo -->
     <g transform="translate(47.229925 106.987213)scale(0.12 -0.12)">
      <use xlink:href="#DejaVuSans-55"/>
      <use xlink:href="#DejaVuSans-67" x="73.193359"/>
      <use xlink:href="#DejaVuSans-6f" x="136.669922"/>
     </g>
    </g>
    <g clip-path="url(#pfdbf15bd19)">
     <!-- Mathieu r -->
     <g transform="translate(30.558362 120.424588)scale(0.12 -0.12)">
      <use xlink:href="#DejaVuSans-4d"/>
      <use xlink:href="#DejaVuSans-61" x="86.279297"/>
      <use xlink:href="#DejaVuSans-74" x="147.558594"/>
      <use xlink:href="#DejaVuSans-68" x="186.767578"/>
      <use xlink:href="#DejaVuSans-69" x="250.146484"/>
      <use xlink:href="#DejaVuSans-65" x="277.929688"/>
      <use xlink:href="#DejaVuSans-75" x="339.453125"/>
      <use xlink:href="#DejaVuSans-20" x="402.832031"/>
      <use xlink:href="#DejaVuSans-72" x="434.619141"/>
     </g>
    </g>
   </g>
   <g id="text_48">
    <g clip-path="url(#pfdbf15bd19)">
     <!-- Leo -->
     <g transform="translate(34.128802 197.552765)scale(0.12 -0.12)">
      <use xlink:href="#DejaVuSans-4c"/>
      <use xlink:href="#DejaVuSans-65" x="53.962891"/>
      <use xlink:href="#DejaVuSans-6f" x="115.486328"/>
     </g>
    </g>
    <g clip-path="url(#pfdbf15bd19)">
     <!-- Mathieu r -->
     <g transform="translate(16.186927 210.99014)scale(0.12 -0.12)">
      <use xlink:href="#DejaVuSans-4d"/>
      <use xlink:href="#DejaVuSans-61" x="86.279297"/>
      <use xlink:href="#DejaVuSans-74" x="147.558594"/>
      <use xlink:href="#DejaVuSans-68" x="186.767578"/>
      <use xlink:href="#DejaVuSans-69" x="250.146484"/>
      <use xlink:href="#DejaVuSans-65" x="277.929688"/>
      <use xlink:href="#DejaVuSans-75" x="339.453125"/>
      <use xlink:href="#DejaVuSans-20" x="402.832031"/>
      <use xlink:href="#DejaVuSans-72" x="434.619141"/>
     </g>
    </g>
   </g>
   <g id="text_49">
    <g clip-path="url(#pfdbf15bd19)">
     <!-- Mathieu p -->
     <g transform="translate(107.419499 295.342083)scale(0.12 -0.12)">
      <use xlink:href="#DejaVuSans-4d"/>
      <use xlink:href="#DejaVuSans-61" x="86.279297"/>
      <use xlink:href="#DejaVuSans-74" x="147.558594"/>
      <use xlink:href="#DejaVuSans-68" x="186.767578"/>
      <use xlink:href="#DejaVuSans-69" x="250.146484"/>
      <use xlink:href="#DejaVuSans-65" x="277.929688"/>
      <use xlink:href="#DejaVuSans-75" x="339.453125"/>
      <use xlink:href="#DejaVuSans-20" x="402.832031"/>
      <use xlink:href="#DejaVuSans-70" x="434.619141"/>
     </g>
    </g>
    <g clip-path="url(#pfdbf15bd19)">
     <!-- Nicco -->
     <g transform="translate(120.880124 308.779458)scale(0.12 -0.12)">
      <use xlink:href="#DejaVuSans-4e"/>
      <use xlink:href="#DejaVuSans-69" x="74.804688"/>
      <use xlink:href="#DejaVuSans-63" x="102.587891"/>
      <use xlink:href="#DejaVuSans-63" x="157.568359"/>
      <use xlink:href="#DejaVuSans-6f" x="212.548828"/>
     </g>
    </g>
   </g>
   <g id="text_50">
    <g clip-path="url(#pfdbf15bd19)">
     <!-- Mathieu p -->
     <g transform="translate(362.876972 247.279972)scale(0.12 -0.12)">
      <use xlink:href="#DejaVuSans-4d"/>
      <use xlink:href="#DejaVuSans-61" x="86.279297"/>
      <use xlink:href="#DejaVuSans-74" x="147.558594"/>
      <use xlink:href="#DejaVuSans-68" x="186.767578"/>
      <use xlink:href="#DejaVuSans-69" x="250.146484"/>
      <use xlink:href="#DejaVuSans-65" x="277.929688"/>
      <use xlink:href="#DejaVuSans-75" x="339.453125"/>
      <use xlink:href="#DejaVuSans-20" x="402.832031"/>
      <use xlink:href="#DejaVuSans-70" x="434.619141"/>
     </g>
    </g>
    <g clip-path="url(#pfdbf15bd19)">
     <!-- Mathieu r -->
     <g transform="translate(364.219472 260.717347)scale(0.12 -0.12)">
      <use xlink:href="#DejaVuSans-4d"/>
      <use xlink:href="#DejaVuSans-61" x="86.279297"/>
      <use xlink:href="#DejaVuSans-74" x="147.558594"/>
      <use xlink:href="#DejaVuSans-68" x="186.767578"/>
      <use xlink:href="#DejaVuSans-69" x="250.146484"/>
      <use xlink:href="#DejaVuSans-65" x="277.929688"/>
      <use xlink:href="#DejaVuSans-75" x="339.453125"/>
      <use xlink:href="#DejaVuSans-20" x="402.832031"/>
      <use xlink:href="#DejaVuSans-72" x="434.619141"/>
     </g>
    </g>
   </g>
   <g id="text_51">
    <g clip-path="url(#pfdbf15bd19)">
     <!-- Jonathan -->
     <g transform="translate(76.964938 277.383603)scale(0.12 -0.12)">
      <defs>
       <path id="DejaVuSans-4a" d="M 628 4666 
L 1259 4666 
L 1259 325 
Q 1259 -519 939 -900 
Q 619 -1281 -91 -1281 
L -331 -1281 
L -331 -750 
L -134 -750 
Q 284 -750 456 -515 
Q 628 -281 628 325 
L 628 4666 
z
" transform="scale(0.015625)"/>
      </defs>
      <use xlink:href="#DejaVuSans-4a"/>
      <use xlink:href="#DejaVuSans-6f" x="29.492188"/>
      <use xlink:href="#DejaVuSans-6e" x="90.673828"/>
      <use xlink:href="#DejaVuSans-61" x="154.052734"/>
      <use xlink:href="#DejaVuSans-74" x="215.332031"/>
      <use xlink:href="#DejaVuSans-68" x="254.541016"/>
      <use xlink:href="#DejaVuSans-61" x="317.919922"/>
      <use xlink:href="#DejaVuSans-6e" x="379.199219"/>
     </g>
    </g>
    <g clip-path="url(#pfdbf15bd19)">
     <!-- Pablo -->
     <g transform="translate(87.34775 290.820978)scale(0.12 -0.12)">
      <use xlink:href="#DejaVuSans-50"/>
      <use xlink:href="#DejaVuSans-61" x="55.802734"/>
      <use xlink:href="#DejaVuSans-62" x="117.082031"/>
      <use xlink:href="#DejaVuSans-6c" x="180.558594"/>
      <use xlink:href="#DejaVuSans-6f" x="208.341797"/>
     </g>
    </g>
   </g>
   <g id="text_52">
    <g clip-path="url(#pfdbf15bd19)">
     <!-- Nicco -->
     <g transform="translate(60.003834 253.978184)scale(0.12 -0.12)">
      <use xlink:href="#DejaVuSans-4e"/>
      <use xlink:href="#DejaVuSans-69" x="74.804688"/>
      <use xlink:href="#DejaVuSans-63" x="102.587891"/>
      <use xlink:href="#DejaVuSans-63" x="157.568359"/>
      <use xlink:href="#DejaVuSans-6f" x="212.548828"/>
     </g>
    </g>
    <g clip-path="url(#pfdbf15bd19)">
     <!-- Xiaoyu -->
     <g transform="translate(55.950084 267.415559)scale(0.12 -0.12)">
      <use xlink:href="#DejaVuSans-58"/>
      <use xlink:href="#DejaVuSans-69" x="68.505859"/>
      <use xlink:href="#DejaVuSans-61" x="96.289062"/>
      <use xlink:href="#DejaVuSans-6f" x="157.568359"/>
      <use xlink:href="#DejaVuSans-79" x="218.75"/>
      <use xlink:href="#DejaVuSans-75" x="277.929688"/>
     </g>
    </g>
   </g>
   <g id="text_53">
    <g clip-path="url(#pfdbf15bd19)">
     <!-- Leo -->
     <g transform="translate(255.73147 29.051815)scale(0.12 -0.12)">
      <use xlink:href="#DejaVuSans-4c"/>
      <use xlink:href="#DejaVuSans-65" x="53.962891"/>
      <use xlink:href="#DejaVuSans-6f" x="115.486328"/>
     </g>
    </g>
    <g clip-path="url(#pfdbf15bd19)">
     <!-- Jacopo -->
     <g transform="translate(246.43522 42.48919)scale(0.12 -0.12)">
      <use xlink:href="#DejaVuSans-4a"/>
      <use xlink:href="#DejaVuSans-61" x="29.492188"/>
      <use xlink:href="#DejaVuSans-63" x="90.771484"/>
      <use xlink:href="#DejaVuSans-6f" x="145.751953"/>
      <use xlink:href="#DejaVuSans-70" x="206.933594"/>
      <use xlink:href="#DejaVuSans-6f" x="270.410156"/>
     </g>
    </g>
   </g>
   <g id="text_54">
    <g clip-path="url(#pfdbf15bd19)">
     <!-- Mathieu p -->
     <g transform="translate(383.929309 127.683957)scale(0.12 -0.12)">
      <use xlink:href="#DejaVuSans-4d"/>
      <use xlink:href="#DejaVuSans-61" x="86.279297"/>
      <use xlink:href="#DejaVuSans-74" x="147.558594"/>
      <use xlink:href="#DejaVuSans-68" x="186.767578"/>
      <use xlink:href="#DejaVuSans-69" x="250.146484"/>
      <use xlink:href="#DejaVuSans-65" x="277.929688"/>
      <use xlink:href="#DejaVuSans-75" x="339.453125"/>
      <use xlink:href="#DejaVuSans-20" x="402.832031"/>
      <use xlink:href="#DejaVuSans-70" x="434.619141"/>
     </g>
    </g>
    <g clip-path="url(#pfdbf15bd19)">
     <!-- Jonathan -->
     <g transform="translate(387.260246 141.121332)scale(0.12 -0.12)">
      <use xlink:href="#DejaVuSans-4a"/>
      <use xlink:href="#DejaVuSans-6f" x="29.492188"/>
      <use xlink:href="#DejaVuSans-6e" x="90.673828"/>
      <use xlink:href="#DejaVuSans-61" x="154.052734"/>
      <use xlink:href="#DejaVuSans-74" x="215.332031"/>
      <use xlink:href="#DejaVuSans-68" x="254.541016"/>
      <use xlink:href="#DejaVuSans-61" x="317.919922"/>
      <use xlink:href="#DejaVuSans-6e" x="379.199219"/>
     </g>
    </g>
   </g>
   <g id="text_55">
    <g clip-path="url(#pfdbf15bd19)">
     <!-- Mathieu r -->
     <g transform="translate(116.815539 42.237947)scale(0.12 -0.12)">
      <use xlink:href="#DejaVuSans-4d"/>
      <use xlink:href="#DejaVuSans-61" x="86.279297"/>
      <use xlink:href="#DejaVuSans-74" x="147.558594"/>
      <use xlink:href="#DejaVuSans-68" x="186.767578"/>
      <use xlink:href="#DejaVuSans-69" x="250.146484"/>
      <use xlink:href="#DejaVuSans-65" x="277.929688"/>
      <use xlink:href="#DejaVuSans-75" x="339.453125"/>
      <use xlink:href="#DejaVuSans-20" x="402.832031"/>
      <use xlink:href="#DejaVuSans-72" x="434.619141"/>
     </g>
    </g>
    <g clip-path="url(#pfdbf15bd19)">
     <!-- Pablo -->
     <g transform="translate(129.186789 55.675322)scale(0.12 -0.12)">
      <use xlink:href="#DejaVuSans-50"/>
      <use xlink:href="#DejaVuSans-61" x="55.802734"/>
      <use xlink:href="#DejaVuSans-62" x="117.082031"/>
      <use xlink:href="#DejaVuSans-6c" x="180.558594"/>
      <use xlink:href="#DejaVuSans-6f" x="208.341797"/>
     </g>
    </g>
   </g>
  </g>
 </g>
 <defs>
  <clipPath id="pfdbf15bd19">
   <rect x="0" y="0" width="460.8" height="345.6"/>
  </clipPath>
 </defs>
</svg>
