<?xml version="1.0" encoding="utf-8" standalone="no"?>
<!DOCTYPE svg PUBLIC "-//W3C//DTD SVG 1.1//EN"
  "http://www.w3.org/Graphics/SVG/1.1/DTD/svg11.dtd">
<svg xmlns:xlink="http://www.w3.org/1999/xlink" width="460.8pt" height="345.6pt" viewBox="0 0 460.8 345.6" xmlns="http://www.w3.org/2000/svg" version="1.1">
 <metadata>
  <rdf:RDF xmlns:dc="http://purl.org/dc/elements/1.1/" xmlns:cc="http://creativecommons.org/ns#" xmlns:rdf="http://www.w3.org/1999/02/22-rdf-syntax-ns#">
   <cc:Work>
    <dc:type rdf:resource="http://purl.org/dc/dcmitype/StillImage"/>
    <dc:date>2025-06-10T15:57:25.285534</dc:date>
    <dc:format>image/svg+xml</dc:format>
    <dc:creator>
     <cc:Agent>
      <dc:title>Matplotlib v3.5.1, https://matplotlib.org/</dc:title>
     </cc:Agent>
    </dc:creator>
   </cc:Work>
  </rdf:RDF>
 </metadata>
 <defs>
  <style type="text/css">*{stroke-linejoin: round; stroke-linecap: butt}</style>
 </defs>
 <g id="figure_1">
  <g id="patch_1">
   <path d="M 0 345.6 
L 460.8 345.6 
L 460.8 0 
L 0 0 
z
" style="fill: #ffffff"/>
  </g>
  <g id="axes_1">
   <g id="patch_2">
    <path d="M 377.185064 262.558019 
Q 347.181187 280.978368 318.13011 298.813761 
" clip-path="url(#p94422e8087)" style="fill: none; stroke: #000000; stroke-linecap: round"/>
    <path d="M 322.58535 298.425384 
L 318.13011 298.813761 
L 320.492553 295.016543 
L 322.58535 298.425384 
z
" clip-path="url(#p94422e8087)" style="stroke: #000000; stroke-linecap: round"/>
   </g>
   <g id="patch_3">
    <path d="M 144.130502 295.042609 
Q 101.009285 234.117157 58.533969 174.10429 
" clip-path="url(#p94422e8087)" style="fill: none; stroke: #000000; stroke-linecap: round"/>
    <path d="M 59.212332 178.524677 
L 58.533969 174.10429 
L 62.477297 176.213833 
L 59.212332 178.524677 
z
" clip-path="url(#p94422e8087)" style="stroke: #000000; stroke-linecap: round"/>
   </g>
   <g id="patch_4">
    <path d="M 336.210309 67.06983 
Q 237.67353 65.073895 140.254555 63.100602 
" clip-path="url(#p94422e8087)" style="fill: none; stroke: #000000; stroke-linecap: round"/>
    <path d="M 144.213231 65.181198 
L 140.254555 63.100602 
L 144.294238 61.182018 
L 144.213231 65.181198 
z
" clip-path="url(#p94422e8087)" style="stroke: #000000; stroke-linecap: round"/>
   </g>
   <g id="patch_5">
    <path d="M 74.239445 257.776328 
Q 106.267002 279.393114 137.367853 300.384426 
" clip-path="url(#p94422e8087)" style="fill: none; stroke: #000000; stroke-linecap: round"/>
    <path d="M 135.171253 296.488922 
L 137.367853 300.384426 
L 132.93349 299.804404 
L 135.171253 296.488922 
z
" clip-path="url(#p94422e8087)" style="stroke: #000000; stroke-linecap: round"/>
   </g>
   <g id="patch_6">
    <path d="M 401.443823 141.404702 
Q 330.330963 94.258005 260.149945 47.729104 
" clip-path="url(#p94422e8087)" style="fill: none; stroke: #000000; stroke-linecap: round"/>
    <path d="M 262.378654 51.606327 
L 260.149945 47.729104 
L 264.588948 48.27247 
L 262.378654 51.606327 
z
" clip-path="url(#p94422e8087)" style="stroke: #000000; stroke-linecap: round"/>
   </g>
   <g id="text_1">
    <g id="patch_7">
     <path d="M 336.845701 296.522163 
L 355.820696 284.872802 
Q 358.377327 283.303203 356.807729 280.746573 
L 351.744139 272.498775 
Q 350.174541 269.942144 347.61791 271.511742 
L 328.642915 283.161104 
Q 326.086285 284.730702 327.655883 287.287333 
L 332.719472 295.535131 
Q 334.28907 298.091761 336.845701 296.522163 
z
" clip-path="url(#p94422e8087)" style="fill: #ffffff; stroke: #ffffff; stroke-linejoin: miter"/>
    </g>
    <g clip-path="url(#p94422e8087)">
     <!-- 0.56 -->
     <g transform="translate(334.188012 292.193201)rotate(-31.547106)scale(0.1 -0.1)">
      <defs>
       <path id="DejaVuSans-30" d="M 2034 4250 
Q 1547 4250 1301 3770 
Q 1056 3291 1056 2328 
Q 1056 1369 1301 889 
Q 1547 409 2034 409 
Q 2525 409 2770 889 
Q 3016 1369 3016 2328 
Q 3016 3291 2770 3770 
Q 2525 4250 2034 4250 
z
M 2034 4750 
Q 2819 4750 3233 4129 
Q 3647 3509 3647 2328 
Q 3647 1150 3233 529 
Q 2819 -91 2034 -91 
Q 1250 -91 836 529 
Q 422 1150 422 2328 
Q 422 3509 836 4129 
Q 1250 4750 2034 4750 
z
" transform="scale(0.015625)"/>
       <path id="DejaVuSans-2e" d="M 684 794 
L 1344 794 
L 1344 0 
L 684 0 
L 684 794 
z
" transform="scale(0.015625)"/>
       <path id="DejaVuSans-35" d="M 691 4666 
L 3169 4666 
L 3169 4134 
L 1269 4134 
L 1269 2991 
Q 1406 3038 1543 3061 
Q 1681 3084 1819 3084 
Q 2600 3084 3056 2656 
Q 3513 2228 3513 1497 
Q 3513 744 3044 326 
Q 2575 -91 1722 -91 
Q 1428 -91 1123 -41 
Q 819 9 494 109 
L 494 744 
Q 775 591 1075 516 
Q 1375 441 1709 441 
Q 2250 441 2565 725 
Q 2881 1009 2881 1497 
Q 2881 1984 2565 2268 
Q 2250 2553 1709 2553 
Q 1456 2553 1204 2497 
Q 953 2441 691 2322 
L 691 4666 
z
" transform="scale(0.015625)"/>
       <path id="DejaVuSans-36" d="M 2113 2584 
Q 1688 2584 1439 2293 
Q 1191 2003 1191 1497 
Q 1191 994 1439 701 
Q 1688 409 2113 409 
Q 2538 409 2786 701 
Q 3034 994 3034 1497 
Q 3034 2003 2786 2293 
Q 2538 2584 2113 2584 
z
M 3366 4563 
L 3366 3988 
Q 3128 4100 2886 4159 
Q 2644 4219 2406 4219 
Q 1781 4219 1451 3797 
Q 1122 3375 1075 2522 
Q 1259 2794 1537 2939 
Q 1816 3084 2150 3084 
Q 2853 3084 3261 2657 
Q 3669 2231 3669 1497 
Q 3669 778 3244 343 
Q 2819 -91 2113 -91 
Q 1303 -91 875 529 
Q 447 1150 447 2328 
Q 447 3434 972 4092 
Q 1497 4750 2381 4750 
Q 2619 4750 2861 4703 
Q 3103 4656 3366 4563 
z
" transform="scale(0.015625)"/>
      </defs>
      <use xlink:href="#DejaVuSans-30"/>
      <use xlink:href="#DejaVuSans-2e" x="63.623047"/>
      <use xlink:href="#DejaVuSans-35" x="95.410156"/>
      <use xlink:href="#DejaVuSans-36" x="159.033203"/>
     </g>
    </g>
   </g>
   <g id="text_2">
    <g id="patch_8">
     <path d="M 85.940586 226.395943 
L 98.803687 244.570065 
Q 100.536821 247.018789 102.985544 245.285655 
L 110.885229 239.694494 
Q 113.333953 237.96136 111.600819 235.512637 
L 98.737718 217.338515 
Q 97.004585 214.889791 94.555861 216.622925 
L 86.656176 222.214086 
Q 84.207453 223.94722 85.940586 226.395943 
z
" clip-path="url(#p94422e8087)" style="fill: #ffffff; stroke: #ffffff; stroke-linejoin: miter"/>
    </g>
    <g clip-path="url(#p94422e8087)">
     <!-- 0.56 -->
     <g transform="translate(90.086837 223.461351)rotate(-305.289721)scale(0.1 -0.1)">
      <use xlink:href="#DejaVuSans-30"/>
      <use xlink:href="#DejaVuSans-2e" x="63.623047"/>
      <use xlink:href="#DejaVuSans-35" x="95.410156"/>
      <use xlink:href="#DejaVuSans-36" x="159.033203"/>
     </g>
    </g>
   </g>
   <g id="text_3">
    <g id="patch_9">
     <path d="M 220.577085 72.568264 
L 242.838143 73.019178 
Q 245.837528 73.079933 245.898283 70.080548 
L 246.09428 60.404408 
Q 246.155035 57.405024 243.15565 57.344269 
L 220.894591 56.893355 
Q 217.895207 56.8326 217.834452 59.831985 
L 217.638455 69.508125 
Q 217.5777 72.50751 220.577085 72.568264 
z
" clip-path="url(#p94422e8087)" style="fill: #ffffff; stroke: #ffffff; stroke-linejoin: miter"/>
    </g>
    <g clip-path="url(#p94422e8087)">
     <!-- 0.71 -->
     <g transform="translate(220.679956 67.489619)rotate(-358.83959)scale(0.1 -0.1)">
      <defs>
       <path id="DejaVuSans-37" d="M 525 4666 
L 3525 4666 
L 3525 4397 
L 1831 0 
L 1172 0 
L 2766 4134 
L 525 4134 
L 525 4666 
z
" transform="scale(0.015625)"/>
       <path id="DejaVuSans-31" d="M 794 531 
L 1825 531 
L 1825 4091 
L 703 3866 
L 703 4441 
L 1819 4666 
L 2450 4666 
L 2450 531 
L 3481 531 
L 3481 0 
L 794 0 
L 794 531 
z
" transform="scale(0.015625)"/>
      </defs>
      <use xlink:href="#DejaVuSans-30"/>
      <use xlink:href="#DejaVuSans-2e" x="63.623047"/>
      <use xlink:href="#DejaVuSans-37" x="95.410156"/>
      <use xlink:href="#DejaVuSans-31" x="159.033203"/>
     </g>
    </g>
   </g>
   <g id="text_4">
    <g id="patch_10">
     <path d="M 94.25903 280.745938 
L 112.714349 293.202232 
Q 115.20096 294.880554 116.879282 292.393942 
L 122.293618 284.372031 
Q 123.97194 281.885419 121.485328 280.207097 
L 103.030009 267.750803 
Q 100.543398 266.072482 98.865076 268.559093 
L 93.450741 276.581005 
Q 91.772419 279.067616 94.25903 280.745938 
z
" clip-path="url(#p94422e8087)" style="fill: #ffffff; stroke: #ffffff; stroke-linejoin: miter"/>
    </g>
    <g clip-path="url(#p94422e8087)">
     <!-- 0.62 -->
     <g transform="translate(97.100813 276.535535)rotate(-325.982881)scale(0.1 -0.1)">
      <defs>
       <path id="DejaVuSans-32" d="M 1228 531 
L 3431 531 
L 3431 0 
L 469 0 
L 469 531 
Q 828 903 1448 1529 
Q 2069 2156 2228 2338 
Q 2531 2678 2651 2914 
Q 2772 3150 2772 3378 
Q 2772 3750 2511 3984 
Q 2250 4219 1831 4219 
Q 1534 4219 1204 4116 
Q 875 4013 500 3803 
L 500 4441 
Q 881 4594 1212 4672 
Q 1544 4750 1819 4750 
Q 2544 4750 2975 4387 
Q 3406 4025 3406 3419 
Q 3406 3131 3298 2873 
Q 3191 2616 2906 2266 
Q 2828 2175 2409 1742 
Q 1991 1309 1228 531 
z
" transform="scale(0.015625)"/>
      </defs>
      <use xlink:href="#DejaVuSans-30"/>
      <use xlink:href="#DejaVuSans-2e" x="63.623047"/>
      <use xlink:href="#DejaVuSans-36" x="95.410156"/>
      <use xlink:href="#DejaVuSans-32" x="159.033203"/>
     </g>
    </g>
   </g>
   <g id="text_5">
    <g id="patch_11">
     <path d="M 313.494309 92.500969 
L 332.05191 104.804364 
Q 334.552302 106.462084 336.210023 103.961692 
L 341.557898 95.895321 
Q 343.215619 93.394929 340.715226 91.737208 
L 322.157626 79.433814 
Q 319.657233 77.776093 317.999513 80.276486 
L 312.651637 88.342856 
Q 310.993917 90.843249 313.494309 92.500969 
z
" clip-path="url(#p94422e8087)" style="fill: #ffffff; stroke: #ffffff; stroke-linejoin: miter"/>
    </g>
    <g clip-path="url(#p94422e8087)">
     <!-- 0.62 -->
     <g transform="translate(316.30121 88.267232)rotate(-326.456254)scale(0.1 -0.1)">
      <use xlink:href="#DejaVuSans-30"/>
      <use xlink:href="#DejaVuSans-2e" x="63.623047"/>
      <use xlink:href="#DejaVuSans-36" x="95.410156"/>
      <use xlink:href="#DejaVuSans-32" x="159.033203"/>
     </g>
    </g>
   </g>
   <g id="PathCollection_1">
    <path d="M 393.690054 271.789991 
C 398.825689 271.789991 403.751674 269.749581 407.383117 266.118138 
C 411.01456 262.486695 413.05497 257.56071 413.05497 252.425074 
C 413.05497 247.289438 411.01456 242.363453 407.383117 238.73201 
C 403.751674 235.100567 398.825689 233.060157 393.690054 233.060157 
C 388.554418 233.060157 383.628433 235.100567 379.99699 238.73201 
C 376.365547 242.363453 374.325137 247.289438 374.325137 252.425074 
C 374.325137 257.56071 376.365547 262.486695 379.99699 266.118138 
C 383.628433 269.749581 388.554418 271.789991 393.690054 271.789991 
z
" clip-path="url(#p94422e8087)" style="fill: #808080; stroke: #808080"/>
    <path d="M 290.771789 346.593784 
C 298.988806 346.593784 306.870382 343.329128 312.680691 337.51882 
C 318.491 331.708511 321.755656 323.826935 321.755656 315.609917 
C 321.755656 307.3929 318.491 299.511324 312.680691 293.701015 
C 306.870382 287.890706 298.988806 284.626051 290.771789 284.626051 
C 282.554771 284.626051 274.673195 287.890706 268.862887 293.701015 
C 263.052578 299.511324 259.787922 307.3929 259.787922 315.609917 
C 259.787922 323.826935 263.052578 331.708511 268.862887 337.51882 
C 274.673195 343.329128 282.554771 346.593784 290.771789 346.593784 
z
" clip-path="url(#p94422e8087)" style="fill: #808080; stroke: #808080"/>
    <path d="M 157.554571 337.247216 
C 163.717334 337.247216 169.628516 334.798724 173.986248 330.440992 
C 178.343979 326.083261 180.792471 320.172079 180.792471 314.009316 
C 180.792471 307.846553 178.343979 301.935371 173.986248 297.577639 
C 169.628516 293.219907 163.717334 290.771416 157.554571 290.771416 
C 151.391808 290.771416 145.480626 293.219907 141.122894 297.577639 
C 136.765163 301.935371 134.316671 307.846553 134.316671 314.009316 
C 134.316671 320.172079 136.765163 326.083261 141.122894 330.440992 
C 145.480626 334.798724 151.391808 337.247216 157.554571 337.247216 
z
" clip-path="url(#p94422e8087)" style="fill: #808080; stroke: #808080"/>
    <path d="M 58.188964 266.30808 
C 63.324599 266.30808 68.250584 264.26767 71.882027 260.636227 
C 75.51347 257.004784 77.55388 252.078799 77.55388 246.943163 
C 77.55388 241.807528 75.51347 236.881543 71.882027 233.2501 
C 68.250584 229.618657 63.324599 227.578247 58.188964 227.578247 
C 53.053328 227.578247 48.127343 229.618657 44.4959 233.2501 
C 40.864457 236.881543 38.824047 241.807528 38.824047 246.943163 
C 38.824047 252.078799 40.864457 257.004784 44.4959 260.636227 
C 48.127343 264.26767 53.053328 266.30808 58.188964 266.30808 
z
" clip-path="url(#p94422e8087)" style="fill: #808080; stroke: #808080"/>
    <path d="M 39.986777 178.88305 
C 48.203794 178.88305 56.08537 175.618394 61.895679 169.808085 
C 67.705988 163.997776 70.970644 156.1162 70.970644 147.899183 
C 70.970644 139.682165 67.705988 131.800589 61.895679 125.990281 
C 56.08537 120.179972 48.203794 116.915316 39.986777 116.915316 
C 31.769759 116.915316 23.888183 120.179972 18.077875 125.990281 
C 12.267566 131.800589 9.00291 139.682165 9.00291 147.899183 
C 9.00291 156.1162 12.267566 163.997776 18.077875 169.808085 
C 23.888183 175.618394 31.769759 178.88305 39.986777 178.88305 
z
" clip-path="url(#p94422e8087)" style="fill: #808080; stroke: #808080"/>
    <path d="M 355.573822 86.826969 
C 360.709458 86.826969 365.635443 84.786559 369.266886 81.155116 
C 372.898329 77.523673 374.938739 72.597688 374.938739 67.462052 
C 374.938739 62.326416 372.898329 57.400431 369.266886 53.768988 
C 365.635443 50.137545 360.709458 48.097136 355.573822 48.097136 
C 350.438187 48.097136 345.512202 50.137545 341.880759 53.768988 
C 338.249316 57.400431 336.208906 62.326416 336.208906 67.462052 
C 336.208906 72.597688 338.249316 77.523673 341.880759 81.155116 
C 345.512202 84.786559 350.438187 86.826969 355.573822 86.826969 
z
" clip-path="url(#p94422e8087)" style="fill: #808080; stroke: #808080"/>
    <path d="M 108.155769 93.434284 
C 116.372786 93.434284 124.254362 90.169628 130.064671 84.359319 
C 135.87498 78.549011 139.139636 70.667435 139.139636 62.450417 
C 139.139636 54.2334 135.87498 46.351824 130.064671 40.541515 
C 124.254362 34.731206 116.372786 31.46655 108.155769 31.46655 
C 99.938751 31.46655 92.057175 34.731206 86.246867 40.541515 
C 80.436558 46.351824 77.171902 54.2334 77.171902 62.450417 
C 77.171902 70.667435 80.436558 78.549011 86.246867 84.359319 
C 92.057175 90.169628 99.938751 93.434284 108.155769 93.434284 
z
" clip-path="url(#p94422e8087)" style="fill: #808080; stroke: #808080"/>
    <path d="M 420.813223 177.484207 
C 426.975986 177.484207 432.887168 175.035716 437.2449 170.677984 
C 441.602631 166.320252 444.051123 160.40907 444.051123 154.246307 
C 444.051123 148.083544 441.602631 142.172362 437.2449 137.81463 
C 432.887168 133.456899 426.975986 131.008407 420.813223 131.008407 
C 414.65046 131.008407 408.739278 133.456899 404.381546 137.81463 
C 400.023815 142.172362 397.575323 148.083544 397.575323 154.246307 
C 397.575323 160.40907 400.023815 166.320252 404.381546 170.677984 
C 408.739278 175.035716 414.65046 177.484207 420.813223 177.484207 
z
" clip-path="url(#p94422e8087)" style="fill: #808080; stroke: #808080"/>
    <path d="M 233.393616 60.973949 
C 241.610633 60.973949 249.492209 57.709294 255.302518 51.898985 
C 261.112827 46.088676 264.377482 38.2071 264.377482 29.990083 
C 264.377482 21.773065 261.112827 13.891489 255.302518 8.08118 
C 249.492209 2.270872 241.610633 -0.993784 233.393616 -0.993784 
C 225.176598 -0.993784 217.295022 2.270872 211.484713 8.08118 
C 205.674404 13.891489 202.409749 21.773065 202.409749 29.990083 
C 202.409749 38.2071 205.674404 46.088676 211.484713 51.898985 
C 217.295022 57.709294 225.176598 60.973949 233.393616 60.973949 
z
" clip-path="url(#p94422e8087)" style="fill: #808080; stroke: #808080"/>
   </g>
   <g id="text_6">
    <g clip-path="url(#p94422e8087)">
     <!-- Pablo -->
     <g transform="translate(377.518179 249.017637)scale(0.12 -0.12)">
      <defs>
       <path id="DejaVuSans-50" d="M 1259 4147 
L 1259 2394 
L 2053 2394 
Q 2494 2394 2734 2622 
Q 2975 2850 2975 3272 
Q 2975 3691 2734 3919 
Q 2494 4147 2053 4147 
L 1259 4147 
z
M 628 4666 
L 2053 4666 
Q 2838 4666 3239 4311 
Q 3641 3956 3641 3272 
Q 3641 2581 3239 2228 
Q 2838 1875 2053 1875 
L 1259 1875 
L 1259 0 
L 628 0 
L 628 4666 
z
" transform="scale(0.015625)"/>
       <path id="DejaVuSans-61" d="M 2194 1759 
Q 1497 1759 1228 1600 
Q 959 1441 959 1056 
Q 959 750 1161 570 
Q 1363 391 1709 391 
Q 2188 391 2477 730 
Q 2766 1069 2766 1631 
L 2766 1759 
L 2194 1759 
z
M 3341 1997 
L 3341 0 
L 2766 0 
L 2766 531 
Q 2569 213 2275 61 
Q 1981 -91 1556 -91 
Q 1019 -91 701 211 
Q 384 513 384 1019 
Q 384 1609 779 1909 
Q 1175 2209 1959 2209 
L 2766 2209 
L 2766 2266 
Q 2766 2663 2505 2880 
Q 2244 3097 1772 3097 
Q 1472 3097 1187 3025 
Q 903 2953 641 2809 
L 641 3341 
Q 956 3463 1253 3523 
Q 1550 3584 1831 3584 
Q 2591 3584 2966 3190 
Q 3341 2797 3341 1997 
z
" transform="scale(0.015625)"/>
       <path id="DejaVuSans-62" d="M 3116 1747 
Q 3116 2381 2855 2742 
Q 2594 3103 2138 3103 
Q 1681 3103 1420 2742 
Q 1159 2381 1159 1747 
Q 1159 1113 1420 752 
Q 1681 391 2138 391 
Q 2594 391 2855 752 
Q 3116 1113 3116 1747 
z
M 1159 2969 
Q 1341 3281 1617 3432 
Q 1894 3584 2278 3584 
Q 2916 3584 3314 3078 
Q 3713 2572 3713 1747 
Q 3713 922 3314 415 
Q 2916 -91 2278 -91 
Q 1894 -91 1617 61 
Q 1341 213 1159 525 
L 1159 0 
L 581 0 
L 581 4863 
L 1159 4863 
L 1159 2969 
z
" transform="scale(0.015625)"/>
       <path id="DejaVuSans-6c" d="M 603 4863 
L 1178 4863 
L 1178 0 
L 603 0 
L 603 4863 
z
" transform="scale(0.015625)"/>
       <path id="DejaVuSans-6f" d="M 1959 3097 
Q 1497 3097 1228 2736 
Q 959 2375 959 1747 
Q 959 1119 1226 758 
Q 1494 397 1959 397 
Q 2419 397 2687 759 
Q 2956 1122 2956 1747 
Q 2956 2369 2687 2733 
Q 2419 3097 1959 3097 
z
M 1959 3584 
Q 2709 3584 3137 3096 
Q 3566 2609 3566 1747 
Q 3566 888 3137 398 
Q 2709 -91 1959 -91 
Q 1206 -91 779 398 
Q 353 888 353 1747 
Q 353 2609 779 3096 
Q 1206 3584 1959 3584 
z
" transform="scale(0.015625)"/>
      </defs>
      <use xlink:href="#DejaVuSans-50"/>
      <use xlink:href="#DejaVuSans-61" x="55.802734"/>
      <use xlink:href="#DejaVuSans-62" x="117.082031"/>
      <use xlink:href="#DejaVuSans-6c" x="180.558594"/>
      <use xlink:href="#DejaVuSans-6f" x="208.341797"/>
     </g>
    </g>
    <g clip-path="url(#p94422e8087)">
     <!-- Ugo -->
     <g transform="translate(381.818491 262.455012)scale(0.12 -0.12)">
      <defs>
       <path id="DejaVuSans-55" d="M 556 4666 
L 1191 4666 
L 1191 1831 
Q 1191 1081 1462 751 
Q 1734 422 2344 422 
Q 2950 422 3222 751 
Q 3494 1081 3494 1831 
L 3494 4666 
L 4128 4666 
L 4128 1753 
Q 4128 841 3676 375 
Q 3225 -91 2344 -91 
Q 1459 -91 1007 375 
Q 556 841 556 1753 
L 556 4666 
z
" transform="scale(0.015625)"/>
       <path id="DejaVuSans-67" d="M 2906 1791 
Q 2906 2416 2648 2759 
Q 2391 3103 1925 3103 
Q 1463 3103 1205 2759 
Q 947 2416 947 1791 
Q 947 1169 1205 825 
Q 1463 481 1925 481 
Q 2391 481 2648 825 
Q 2906 1169 2906 1791 
z
M 3481 434 
Q 3481 -459 3084 -895 
Q 2688 -1331 1869 -1331 
Q 1566 -1331 1297 -1286 
Q 1028 -1241 775 -1147 
L 775 -588 
Q 1028 -725 1275 -790 
Q 1522 -856 1778 -856 
Q 2344 -856 2625 -561 
Q 2906 -266 2906 331 
L 2906 616 
Q 2728 306 2450 153 
Q 2172 0 1784 0 
Q 1141 0 747 490 
Q 353 981 353 1791 
Q 353 2603 747 3093 
Q 1141 3584 1784 3584 
Q 2172 3584 2450 3431 
Q 2728 3278 2906 2969 
L 2906 3500 
L 3481 3500 
L 3481 434 
z
" transform="scale(0.015625)"/>
      </defs>
      <use xlink:href="#DejaVuSans-55"/>
      <use xlink:href="#DejaVuSans-67" x="73.193359"/>
      <use xlink:href="#DejaVuSans-6f" x="136.669922"/>
     </g>
    </g>
   </g>
   <g id="text_7">
    <g clip-path="url(#p94422e8087)">
     <!-- Nicco -->
     <g transform="translate(274.346789 312.20248)scale(0.12 -0.12)">
      <defs>
       <path id="DejaVuSans-4e" d="M 628 4666 
L 1478 4666 
L 3547 763 
L 3547 4666 
L 4159 4666 
L 4159 0 
L 3309 0 
L 1241 3903 
L 1241 0 
L 628 0 
L 628 4666 
z
" transform="scale(0.015625)"/>
       <path id="DejaVuSans-69" d="M 603 3500 
L 1178 3500 
L 1178 0 
L 603 0 
L 603 3500 
z
M 603 4863 
L 1178 4863 
L 1178 4134 
L 603 4134 
L 603 4863 
z
" transform="scale(0.015625)"/>
       <path id="DejaVuSans-63" d="M 3122 3366 
L 3122 2828 
Q 2878 2963 2633 3030 
Q 2388 3097 2138 3097 
Q 1578 3097 1268 2742 
Q 959 2388 959 1747 
Q 959 1106 1268 751 
Q 1578 397 2138 397 
Q 2388 397 2633 464 
Q 2878 531 3122 666 
L 3122 134 
Q 2881 22 2623 -34 
Q 2366 -91 2075 -91 
Q 1284 -91 818 406 
Q 353 903 353 1747 
Q 353 2603 823 3093 
Q 1294 3584 2113 3584 
Q 2378 3584 2631 3529 
Q 2884 3475 3122 3366 
z
" transform="scale(0.015625)"/>
      </defs>
      <use xlink:href="#DejaVuSans-4e"/>
      <use xlink:href="#DejaVuSans-69" x="74.804688"/>
      <use xlink:href="#DejaVuSans-63" x="102.587891"/>
      <use xlink:href="#DejaVuSans-63" x="157.568359"/>
      <use xlink:href="#DejaVuSans-6f" x="212.548828"/>
     </g>
    </g>
    <g clip-path="url(#p94422e8087)">
     <!-- Shintaro -->
     <g transform="translate(265.658976 325.639855)scale(0.12 -0.12)">
      <defs>
       <path id="DejaVuSans-53" d="M 3425 4513 
L 3425 3897 
Q 3066 4069 2747 4153 
Q 2428 4238 2131 4238 
Q 1616 4238 1336 4038 
Q 1056 3838 1056 3469 
Q 1056 3159 1242 3001 
Q 1428 2844 1947 2747 
L 2328 2669 
Q 3034 2534 3370 2195 
Q 3706 1856 3706 1288 
Q 3706 609 3251 259 
Q 2797 -91 1919 -91 
Q 1588 -91 1214 -16 
Q 841 59 441 206 
L 441 856 
Q 825 641 1194 531 
Q 1563 422 1919 422 
Q 2459 422 2753 634 
Q 3047 847 3047 1241 
Q 3047 1584 2836 1778 
Q 2625 1972 2144 2069 
L 1759 2144 
Q 1053 2284 737 2584 
Q 422 2884 422 3419 
Q 422 4038 858 4394 
Q 1294 4750 2059 4750 
Q 2388 4750 2728 4690 
Q 3069 4631 3425 4513 
z
" transform="scale(0.015625)"/>
       <path id="DejaVuSans-68" d="M 3513 2113 
L 3513 0 
L 2938 0 
L 2938 2094 
Q 2938 2591 2744 2837 
Q 2550 3084 2163 3084 
Q 1697 3084 1428 2787 
Q 1159 2491 1159 1978 
L 1159 0 
L 581 0 
L 581 4863 
L 1159 4863 
L 1159 2956 
Q 1366 3272 1645 3428 
Q 1925 3584 2291 3584 
Q 2894 3584 3203 3211 
Q 3513 2838 3513 2113 
z
" transform="scale(0.015625)"/>
       <path id="DejaVuSans-6e" d="M 3513 2113 
L 3513 0 
L 2938 0 
L 2938 2094 
Q 2938 2591 2744 2837 
Q 2550 3084 2163 3084 
Q 1697 3084 1428 2787 
Q 1159 2491 1159 1978 
L 1159 0 
L 581 0 
L 581 3500 
L 1159 3500 
L 1159 2956 
Q 1366 3272 1645 3428 
Q 1925 3584 2291 3584 
Q 2894 3584 3203 3211 
Q 3513 2838 3513 2113 
z
" transform="scale(0.015625)"/>
       <path id="DejaVuSans-74" d="M 1172 4494 
L 1172 3500 
L 2356 3500 
L 2356 3053 
L 1172 3053 
L 1172 1153 
Q 1172 725 1289 603 
Q 1406 481 1766 481 
L 2356 481 
L 2356 0 
L 1766 0 
Q 1100 0 847 248 
Q 594 497 594 1153 
L 594 3053 
L 172 3053 
L 172 3500 
L 594 3500 
L 594 4494 
L 1172 4494 
z
" transform="scale(0.015625)"/>
       <path id="DejaVuSans-72" d="M 2631 2963 
Q 2534 3019 2420 3045 
Q 2306 3072 2169 3072 
Q 1681 3072 1420 2755 
Q 1159 2438 1159 1844 
L 1159 0 
L 581 0 
L 581 3500 
L 1159 3500 
L 1159 2956 
Q 1341 3275 1631 3429 
Q 1922 3584 2338 3584 
Q 2397 3584 2469 3576 
Q 2541 3569 2628 3553 
L 2631 2963 
z
" transform="scale(0.015625)"/>
      </defs>
      <use xlink:href="#DejaVuSans-53"/>
      <use xlink:href="#DejaVuSans-68" x="63.476562"/>
      <use xlink:href="#DejaVuSans-69" x="126.855469"/>
      <use xlink:href="#DejaVuSans-6e" x="154.638672"/>
      <use xlink:href="#DejaVuSans-74" x="218.017578"/>
      <use xlink:href="#DejaVuSans-61" x="257.226562"/>
      <use xlink:href="#DejaVuSans-72" x="318.505859"/>
      <use xlink:href="#DejaVuSans-6f" x="357.369141"/>
     </g>
    </g>
   </g>
   <g id="text_8">
    <g clip-path="url(#p94422e8087)">
     <!-- Pablo -->
     <g transform="translate(141.382696 310.601878)scale(0.12 -0.12)">
      <use xlink:href="#DejaVuSans-50"/>
      <use xlink:href="#DejaVuSans-61" x="55.802734"/>
      <use xlink:href="#DejaVuSans-62" x="117.082031"/>
      <use xlink:href="#DejaVuSans-6c" x="180.558594"/>
      <use xlink:href="#DejaVuSans-6f" x="208.341797"/>
     </g>
    </g>
    <g clip-path="url(#p94422e8087)">
     <!-- Xiaoyu -->
     <g transform="translate(137.075821 324.039253)scale(0.12 -0.12)">
      <defs>
       <path id="DejaVuSans-58" d="M 403 4666 
L 1081 4666 
L 2241 2931 
L 3406 4666 
L 4084 4666 
L 2584 2425 
L 4184 0 
L 3506 0 
L 2194 1984 
L 872 0 
L 191 0 
L 1856 2491 
L 403 4666 
z
" transform="scale(0.015625)"/>
       <path id="DejaVuSans-79" d="M 2059 -325 
Q 1816 -950 1584 -1140 
Q 1353 -1331 966 -1331 
L 506 -1331 
L 506 -850 
L 844 -850 
Q 1081 -850 1212 -737 
Q 1344 -625 1503 -206 
L 1606 56 
L 191 3500 
L 800 3500 
L 1894 763 
L 2988 3500 
L 3597 3500 
L 2059 -325 
z
" transform="scale(0.015625)"/>
       <path id="DejaVuSans-75" d="M 544 1381 
L 544 3500 
L 1119 3500 
L 1119 1403 
Q 1119 906 1312 657 
Q 1506 409 1894 409 
Q 2359 409 2629 706 
Q 2900 1003 2900 1516 
L 2900 3500 
L 3475 3500 
L 3475 0 
L 2900 0 
L 2900 538 
Q 2691 219 2414 64 
Q 2138 -91 1772 -91 
Q 1169 -91 856 284 
Q 544 659 544 1381 
z
M 1991 3584 
L 1991 3584 
z
" transform="scale(0.015625)"/>
      </defs>
      <use xlink:href="#DejaVuSans-58"/>
      <use xlink:href="#DejaVuSans-69" x="68.505859"/>
      <use xlink:href="#DejaVuSans-61" x="96.289062"/>
      <use xlink:href="#DejaVuSans-6f" x="157.568359"/>
      <use xlink:href="#DejaVuSans-79" x="218.75"/>
      <use xlink:href="#DejaVuSans-75" x="277.929688"/>
     </g>
    </g>
   </g>
   <g id="text_9">
    <g clip-path="url(#p94422e8087)">
     <!-- Nicco -->
     <g transform="translate(41.763964 243.535726)scale(0.12 -0.12)">
      <use xlink:href="#DejaVuSans-4e"/>
      <use xlink:href="#DejaVuSans-69" x="74.804688"/>
      <use xlink:href="#DejaVuSans-63" x="102.587891"/>
      <use xlink:href="#DejaVuSans-63" x="157.568359"/>
      <use xlink:href="#DejaVuSans-6f" x="212.548828"/>
     </g>
    </g>
    <g clip-path="url(#p94422e8087)">
     <!-- Leo -->
     <g transform="translate(47.587714 256.973101)scale(0.12 -0.12)">
      <defs>
       <path id="DejaVuSans-4c" d="M 628 4666 
L 1259 4666 
L 1259 531 
L 3531 531 
L 3531 0 
L 628 0 
L 628 4666 
z
" transform="scale(0.015625)"/>
       <path id="DejaVuSans-65" d="M 3597 1894 
L 3597 1613 
L 953 1613 
Q 991 1019 1311 708 
Q 1631 397 2203 397 
Q 2534 397 2845 478 
Q 3156 559 3463 722 
L 3463 178 
Q 3153 47 2828 -22 
Q 2503 -91 2169 -91 
Q 1331 -91 842 396 
Q 353 884 353 1716 
Q 353 2575 817 3079 
Q 1281 3584 2069 3584 
Q 2775 3584 3186 3129 
Q 3597 2675 3597 1894 
z
M 3022 2063 
Q 3016 2534 2758 2815 
Q 2500 3097 2075 3097 
Q 1594 3097 1305 2825 
Q 1016 2553 972 2059 
L 3022 2063 
z
" transform="scale(0.015625)"/>
      </defs>
      <use xlink:href="#DejaVuSans-4c"/>
      <use xlink:href="#DejaVuSans-65" x="53.962891"/>
      <use xlink:href="#DejaVuSans-6f" x="115.486328"/>
     </g>
    </g>
   </g>
   <g id="text_10">
    <g clip-path="url(#p94422e8087)">
     <!-- Leo -->
     <g transform="translate(29.385527 144.491745)scale(0.12 -0.12)">
      <use xlink:href="#DejaVuSans-4c"/>
      <use xlink:href="#DejaVuSans-65" x="53.962891"/>
      <use xlink:href="#DejaVuSans-6f" x="115.486328"/>
     </g>
    </g>
    <g clip-path="url(#p94422e8087)">
     <!-- Shintaro -->
     <g transform="translate(14.873964 157.92912)scale(0.12 -0.12)">
      <use xlink:href="#DejaVuSans-53"/>
      <use xlink:href="#DejaVuSans-68" x="63.476562"/>
      <use xlink:href="#DejaVuSans-69" x="126.855469"/>
      <use xlink:href="#DejaVuSans-6e" x="154.638672"/>
      <use xlink:href="#DejaVuSans-74" x="218.017578"/>
      <use xlink:href="#DejaVuSans-61" x="257.226562"/>
      <use xlink:href="#DejaVuSans-72" x="318.505859"/>
      <use xlink:href="#DejaVuSans-6f" x="357.369141"/>
     </g>
    </g>
   </g>
   <g id="text_11">
    <g clip-path="url(#p94422e8087)">
     <!-- Pablo -->
     <g transform="translate(339.401947 64.054615)scale(0.12 -0.12)">
      <use xlink:href="#DejaVuSans-50"/>
      <use xlink:href="#DejaVuSans-61" x="55.802734"/>
      <use xlink:href="#DejaVuSans-62" x="117.082031"/>
      <use xlink:href="#DejaVuSans-6c" x="180.558594"/>
      <use xlink:href="#DejaVuSans-6f" x="208.341797"/>
     </g>
    </g>
    <g clip-path="url(#p94422e8087)">
     <!-- Leo -->
     <g transform="translate(344.972572 77.49199)scale(0.12 -0.12)">
      <use xlink:href="#DejaVuSans-4c"/>
      <use xlink:href="#DejaVuSans-65" x="53.962891"/>
      <use xlink:href="#DejaVuSans-6f" x="115.486328"/>
     </g>
    </g>
   </g>
   <g id="text_12">
    <g clip-path="url(#p94422e8087)">
     <!-- Shintaro -->
     <g transform="translate(83.042956 59.04298)scale(0.12 -0.12)">
      <use xlink:href="#DejaVuSans-53"/>
      <use xlink:href="#DejaVuSans-68" x="63.476562"/>
      <use xlink:href="#DejaVuSans-69" x="126.855469"/>
      <use xlink:href="#DejaVuSans-6e" x="154.638672"/>
      <use xlink:href="#DejaVuSans-74" x="218.017578"/>
      <use xlink:href="#DejaVuSans-61" x="257.226562"/>
      <use xlink:href="#DejaVuSans-72" x="318.505859"/>
      <use xlink:href="#DejaVuSans-6f" x="357.369141"/>
     </g>
    </g>
    <g clip-path="url(#p94422e8087)">
     <!-- Xiaoyu -->
     <g transform="translate(87.677019 72.480355)scale(0.12 -0.12)">
      <use xlink:href="#DejaVuSans-58"/>
      <use xlink:href="#DejaVuSans-69" x="68.505859"/>
      <use xlink:href="#DejaVuSans-61" x="96.289062"/>
      <use xlink:href="#DejaVuSans-6f" x="157.568359"/>
      <use xlink:href="#DejaVuSans-79" x="218.75"/>
      <use xlink:href="#DejaVuSans-75" x="277.929688"/>
     </g>
    </g>
   </g>
   <g id="text_13">
    <g clip-path="url(#p94422e8087)">
     <!-- Leo -->
     <g transform="translate(410.211973 150.83887)scale(0.12 -0.12)">
      <use xlink:href="#DejaVuSans-4c"/>
      <use xlink:href="#DejaVuSans-65" x="53.962891"/>
      <use xlink:href="#DejaVuSans-6f" x="115.486328"/>
     </g>
    </g>
    <g clip-path="url(#p94422e8087)">
     <!-- Xiaoyu -->
     <g transform="translate(400.334473 164.276245)scale(0.12 -0.12)">
      <use xlink:href="#DejaVuSans-58"/>
      <use xlink:href="#DejaVuSans-69" x="68.505859"/>
      <use xlink:href="#DejaVuSans-61" x="96.289062"/>
      <use xlink:href="#DejaVuSans-6f" x="157.568359"/>
      <use xlink:href="#DejaVuSans-79" x="218.75"/>
      <use xlink:href="#DejaVuSans-75" x="277.929688"/>
     </g>
    </g>
   </g>
   <g id="text_14">
    <g clip-path="url(#p94422e8087)">
     <!-- Pablo -->
     <g transform="translate(217.221741 26.582645)scale(0.12 -0.12)">
      <use xlink:href="#DejaVuSans-50"/>
      <use xlink:href="#DejaVuSans-61" x="55.802734"/>
      <use xlink:href="#DejaVuSans-62" x="117.082031"/>
      <use xlink:href="#DejaVuSans-6c" x="180.558594"/>
      <use xlink:href="#DejaVuSans-6f" x="208.341797"/>
     </g>
    </g>
    <g clip-path="url(#p94422e8087)">
     <!-- Shintaro -->
     <g transform="translate(208.280803 40.02002)scale(0.12 -0.12)">
      <use xlink:href="#DejaVuSans-53"/>
      <use xlink:href="#DejaVuSans-68" x="63.476562"/>
      <use xlink:href="#DejaVuSans-69" x="126.855469"/>
      <use xlink:href="#DejaVuSans-6e" x="154.638672"/>
      <use xlink:href="#DejaVuSans-74" x="218.017578"/>
      <use xlink:href="#DejaVuSans-61" x="257.226562"/>
      <use xlink:href="#DejaVuSans-72" x="318.505859"/>
      <use xlink:href="#DejaVuSans-6f" x="357.369141"/>
     </g>
    </g>
   </g>
  </g>
 </g>
 <defs>
  <clipPath id="p94422e8087">
   <rect x="0" y="0" width="460.8" height="345.6"/>
  </clipPath>
 </defs>
</svg>
