<?xml version="1.0" encoding="utf-8" standalone="no"?>
<!DOCTYPE svg PUBLIC "-//W3C//DTD SVG 1.1//EN"
  "http://www.w3.org/Graphics/SVG/1.1/DTD/svg11.dtd">
<svg xmlns:xlink="http://www.w3.org/1999/xlink" width="460.8pt" height="345.6pt" viewBox="0 0 460.8 345.6" xmlns="http://www.w3.org/2000/svg" version="1.1">
 <metadata>
  <rdf:RDF xmlns:dc="http://purl.org/dc/elements/1.1/" xmlns:cc="http://creativecommons.org/ns#" xmlns:rdf="http://www.w3.org/1999/02/22-rdf-syntax-ns#">
   <cc:Work>
    <dc:type rdf:resource="http://purl.org/dc/dcmitype/StillImage"/>
    <dc:date>2025-06-10T12:23:52.374046</dc:date>
    <dc:format>image/svg+xml</dc:format>
    <dc:creator>
     <cc:Agent>
      <dc:title>Matplotlib v3.5.1, https://matplotlib.org/</dc:title>
     </cc:Agent>
    </dc:creator>
   </cc:Work>
  </rdf:RDF>
 </metadata>
 <defs>
  <style type="text/css">*{stroke-linejoin: round; stroke-linecap: butt}</style>
 </defs>
 <g id="figure_1">
  <g id="patch_1">
   <path d="M 0 345.6 
L 460.8 345.6 
L 460.8 0 
L 0 0 
z
" style="fill: #ffffff"/>
  </g>
  <g id="axes_1">
   <g id="patch_2">
    <path d="M 415.748904 288.743407 
Q 416.45211 283.578408 417.004489 279.521222 
" clip-path="url(#p88cc19d225)" style="fill: none; stroke: #000000; stroke-linecap: round"/>
    <path d="M 414.483156 283.21485 
L 417.004489 279.521222 
L 418.446591 283.754465 
L 414.483156 283.21485 
z
" clip-path="url(#p88cc19d225)" style="stroke: #000000; stroke-linecap: round"/>
   </g>
   <g id="patch_3">
    <path d="M 55.12272 51.518026 
Q 47.554748 61.402329 40.666459 70.39892 
" clip-path="url(#p88cc19d225)" style="fill: none; stroke: #000000; stroke-linecap: round"/>
    <path d="M 44.686149 68.438797 
L 40.666459 70.39892 
L 41.510174 66.007093 
L 44.686149 68.438797 
z
" clip-path="url(#p88cc19d225)" style="stroke: #000000; stroke-linecap: round"/>
   </g>
   <g id="text_1">
    <g id="patch_4">
     <path d="M 423.146755 292.515262 
L 425.292146 276.757512 
Q 425.696857 273.784936 422.724281 273.380225 
L 413.134627 272.074609 
Q 410.162051 271.669898 409.757339 274.642474 
L 407.611948 290.400224 
Q 407.207237 293.3728 410.179813 293.777512 
L 419.769468 295.083127 
Q 422.742044 295.487838 423.146755 292.515262 
z
" clip-path="url(#p88cc19d225)" style="fill: #ffffff; stroke: #ffffff; stroke-linejoin: miter"/>
    </g>
    <g clip-path="url(#p88cc19d225)">
     <!-- 0.7 -->
     <g transform="translate(418.113502 291.829993)rotate(-82.246946)scale(0.1 -0.1)">
      <defs>
       <path id="DejaVuSans-30" d="M 2034 4250 
Q 1547 4250 1301 3770 
Q 1056 3291 1056 2328 
Q 1056 1369 1301 889 
Q 1547 409 2034 409 
Q 2525 409 2770 889 
Q 3016 1369 3016 2328 
Q 3016 3291 2770 3770 
Q 2525 4250 2034 4250 
z
M 2034 4750 
Q 2819 4750 3233 4129 
Q 3647 3509 3647 2328 
Q 3647 1150 3233 529 
Q 2819 -91 2034 -91 
Q 1250 -91 836 529 
Q 422 1150 422 2328 
Q 422 3509 836 4129 
Q 1250 4750 2034 4750 
z
" transform="scale(0.015625)"/>
       <path id="DejaVuSans-2e" d="M 684 794 
L 1344 794 
L 1344 0 
L 684 0 
L 684 794 
z
" transform="scale(0.015625)"/>
       <path id="DejaVuSans-37" d="M 525 4666 
L 3525 4666 
L 3525 4397 
L 1831 0 
L 1172 0 
L 2766 4134 
L 525 4134 
L 525 4666 
z
" transform="scale(0.015625)"/>
      </defs>
      <use xlink:href="#DejaVuSans-30"/>
      <use xlink:href="#DejaVuSans-2e" x="63.623047"/>
      <use xlink:href="#DejaVuSans-37" x="95.410156"/>
     </g>
    </g>
   </g>
   <g id="text_2">
    <g id="patch_5">
     <path d="M 57.185325 61.718888 
L 66.853245 49.091905 
Q 68.677022 46.709924 66.295041 44.886146 
L 58.610669 39.002564 
Q 56.228687 37.178787 54.40491 39.560768 
L 44.73699 52.187752 
Q 42.913213 54.569733 45.295194 56.393511 
L 52.979566 62.277092 
Q 55.361547 64.10087 57.185325 61.718888 
z
" clip-path="url(#p88cc19d225)" style="fill: #ffffff; stroke: #ffffff; stroke-linejoin: miter"/>
    </g>
    <g clip-path="url(#p88cc19d225)">
     <!-- 0.6 -->
     <g transform="translate(53.152084 58.630815)rotate(-52.560324)scale(0.1 -0.1)">
      <defs>
       <path id="DejaVuSans-36" d="M 2113 2584 
Q 1688 2584 1439 2293 
Q 1191 2003 1191 1497 
Q 1191 994 1439 701 
Q 1688 409 2113 409 
Q 2538 409 2786 701 
Q 3034 994 3034 1497 
Q 3034 2003 2786 2293 
Q 2538 2584 2113 2584 
z
M 3366 4563 
L 3366 3988 
Q 3128 4100 2886 4159 
Q 2644 4219 2406 4219 
Q 1781 4219 1451 3797 
Q 1122 3375 1075 2522 
Q 1259 2794 1537 2939 
Q 1816 3084 2150 3084 
Q 2853 3084 3261 2657 
Q 3669 2231 3669 1497 
Q 3669 778 3244 343 
Q 2819 -91 2113 -91 
Q 1303 -91 875 529 
Q 447 1150 447 2328 
Q 447 3434 972 4092 
Q 1497 4750 2381 4750 
Q 2619 4750 2861 4703 
Q 3103 4656 3366 4563 
z
" transform="scale(0.015625)"/>
      </defs>
      <use xlink:href="#DejaVuSans-30"/>
      <use xlink:href="#DejaVuSans-2e" x="63.623047"/>
      <use xlink:href="#DejaVuSans-36" x="95.410156"/>
     </g>
    </g>
   </g>
   <g id="PathCollection_1">
    <path d="M 412.091074 342.720801 
C 419.280964 342.720801 426.177343 339.864227 431.261363 334.780207 
C 436.345384 329.696187 439.201957 322.799808 439.201957 315.609917 
C 439.201957 308.420027 436.345384 301.523648 431.261363 296.439628 
C 426.177343 291.355608 419.280964 288.499034 412.091074 288.499034 
C 404.901184 288.499034 398.004805 291.355608 392.920784 296.439628 
C 387.836764 301.523648 384.98019 308.420027 384.98019 315.609917 
C 384.98019 322.799808 387.836764 329.696187 392.920784 334.780207 
C 398.004805 339.864227 404.901184 342.720801 412.091074 342.720801 
z
" clip-path="url(#p88cc19d225)" style="fill: #808080; stroke: #808080"/>
    <path d="M 420.813223 278.657214 
C 428.003113 278.657214 434.899492 275.800641 439.983513 270.716621 
C 445.067533 265.6326 447.924107 258.736221 447.924107 251.546331 
C 447.924107 244.356441 445.067533 237.460062 439.983513 232.376042 
C 434.899492 227.292021 428.003113 224.435448 420.813223 224.435448 
C 413.623333 224.435448 406.726954 227.292021 401.642934 232.376042 
C 396.558913 237.460062 393.70234 244.356441 393.70234 251.546331 
C 393.70234 258.736221 396.558913 265.6326 401.642934 270.716621 
C 406.726954 275.800641 413.623333 278.657214 420.813223 278.657214 
z
" clip-path="url(#p88cc19d225)" style="fill: #808080; stroke: #808080"/>
    <path d="M 39.986777 98.397516 
C 47.176667 98.397516 54.073046 95.540942 59.157066 90.456922 
C 64.241087 85.372902 67.09766 78.476523 67.09766 71.286632 
C 67.09766 64.096742 64.241087 57.200363 59.157066 52.116343 
C 54.073046 47.032323 47.176667 44.175749 39.986777 44.175749 
C 32.796887 44.175749 25.900508 47.032323 20.816487 52.116343 
C 15.732467 57.200363 12.875893 64.096742 12.875893 71.286632 
C 12.875893 78.476523 15.732467 85.372902 20.816487 90.456922 
C 25.900508 95.540942 32.796887 98.397516 39.986777 98.397516 
z
" clip-path="url(#p88cc19d225)" style="fill: #808080; stroke: #808080"/>
    <path d="M 71.60571 57.100966 
C 78.7956 57.100966 85.691979 54.244392 90.776 49.160372 
C 95.86002 44.076352 98.716594 37.179973 98.716594 29.990083 
C 98.716594 22.800192 95.86002 15.903813 90.776 10.819793 
C 85.691979 5.735773 78.7956 2.879199 71.60571 2.879199 
C 64.41582 2.879199 57.519441 5.735773 52.435421 10.819793 
C 47.3514 15.903813 44.494827 22.800192 44.494827 29.990083 
C 44.494827 37.179973 47.3514 44.076352 52.435421 49.160372 
C 57.519441 54.244392 64.41582 57.100966 71.60571 57.100966 
z
" clip-path="url(#p88cc19d225)" style="fill: #808080; stroke: #808080"/>
   </g>
   <g id="text_3">
    <g clip-path="url(#p88cc19d225)">
     <!-- A and B -->
     <g transform="translate(388.767949 318.921167)scale(0.12 -0.12)">
      <defs>
       <path id="DejaVuSans-41" d="M 2188 4044 
L 1331 1722 
L 3047 1722 
L 2188 4044 
z
M 1831 4666 
L 2547 4666 
L 4325 0 
L 3669 0 
L 3244 1197 
L 1141 1197 
L 716 0 
L 50 0 
L 1831 4666 
z
" transform="scale(0.015625)"/>
       <path id="DejaVuSans-20" transform="scale(0.015625)"/>
       <path id="DejaVuSans-61" d="M 2194 1759 
Q 1497 1759 1228 1600 
Q 959 1441 959 1056 
Q 959 750 1161 570 
Q 1363 391 1709 391 
Q 2188 391 2477 730 
Q 2766 1069 2766 1631 
L 2766 1759 
L 2194 1759 
z
M 3341 1997 
L 3341 0 
L 2766 0 
L 2766 531 
Q 2569 213 2275 61 
Q 1981 -91 1556 -91 
Q 1019 -91 701 211 
Q 384 513 384 1019 
Q 384 1609 779 1909 
Q 1175 2209 1959 2209 
L 2766 2209 
L 2766 2266 
Q 2766 2663 2505 2880 
Q 2244 3097 1772 3097 
Q 1472 3097 1187 3025 
Q 903 2953 641 2809 
L 641 3341 
Q 956 3463 1253 3523 
Q 1550 3584 1831 3584 
Q 2591 3584 2966 3190 
Q 3341 2797 3341 1997 
z
" transform="scale(0.015625)"/>
       <path id="DejaVuSans-6e" d="M 3513 2113 
L 3513 0 
L 2938 0 
L 2938 2094 
Q 2938 2591 2744 2837 
Q 2550 3084 2163 3084 
Q 1697 3084 1428 2787 
Q 1159 2491 1159 1978 
L 1159 0 
L 581 0 
L 581 3500 
L 1159 3500 
L 1159 2956 
Q 1366 3272 1645 3428 
Q 1925 3584 2291 3584 
Q 2894 3584 3203 3211 
Q 3513 2838 3513 2113 
z
" transform="scale(0.015625)"/>
       <path id="DejaVuSans-64" d="M 2906 2969 
L 2906 4863 
L 3481 4863 
L 3481 0 
L 2906 0 
L 2906 525 
Q 2725 213 2448 61 
Q 2172 -91 1784 -91 
Q 1150 -91 751 415 
Q 353 922 353 1747 
Q 353 2572 751 3078 
Q 1150 3584 1784 3584 
Q 2172 3584 2448 3432 
Q 2725 3281 2906 2969 
z
M 947 1747 
Q 947 1113 1208 752 
Q 1469 391 1925 391 
Q 2381 391 2643 752 
Q 2906 1113 2906 1747 
Q 2906 2381 2643 2742 
Q 2381 3103 1925 3103 
Q 1469 3103 1208 2742 
Q 947 2381 947 1747 
z
" transform="scale(0.015625)"/>
       <path id="DejaVuSans-42" d="M 1259 2228 
L 1259 519 
L 2272 519 
Q 2781 519 3026 730 
Q 3272 941 3272 1375 
Q 3272 1813 3026 2020 
Q 2781 2228 2272 2228 
L 1259 2228 
z
M 1259 4147 
L 1259 2741 
L 2194 2741 
Q 2656 2741 2882 2914 
Q 3109 3088 3109 3444 
Q 3109 3797 2882 3972 
Q 2656 4147 2194 4147 
L 1259 4147 
z
M 628 4666 
L 2241 4666 
Q 2963 4666 3353 4366 
Q 3744 4066 3744 3513 
Q 3744 3084 3544 2831 
Q 3344 2578 2956 2516 
Q 3422 2416 3680 2098 
Q 3938 1781 3938 1306 
Q 3938 681 3513 340 
Q 3088 0 2303 0 
L 628 0 
L 628 4666 
z
" transform="scale(0.015625)"/>
      </defs>
      <use xlink:href="#DejaVuSans-41"/>
      <use xlink:href="#DejaVuSans-20" x="68.408203"/>
      <use xlink:href="#DejaVuSans-61" x="100.195312"/>
      <use xlink:href="#DejaVuSans-6e" x="161.474609"/>
      <use xlink:href="#DejaVuSans-64" x="224.853516"/>
      <use xlink:href="#DejaVuSans-20" x="288.330078"/>
      <use xlink:href="#DejaVuSans-42" x="320.117188"/>
     </g>
    </g>
   </g>
   <g id="text_4">
    <g clip-path="url(#p88cc19d225)">
     <!-- C and D -->
     <g transform="translate(396.901348 254.857581)scale(0.12 -0.12)">
      <defs>
       <path id="DejaVuSans-43" d="M 4122 4306 
L 4122 3641 
Q 3803 3938 3442 4084 
Q 3081 4231 2675 4231 
Q 1875 4231 1450 3742 
Q 1025 3253 1025 2328 
Q 1025 1406 1450 917 
Q 1875 428 2675 428 
Q 3081 428 3442 575 
Q 3803 722 4122 1019 
L 4122 359 
Q 3791 134 3420 21 
Q 3050 -91 2638 -91 
Q 1578 -91 968 557 
Q 359 1206 359 2328 
Q 359 3453 968 4101 
Q 1578 4750 2638 4750 
Q 3056 4750 3426 4639 
Q 3797 4528 4122 4306 
z
" transform="scale(0.015625)"/>
       <path id="DejaVuSans-44" d="M 1259 4147 
L 1259 519 
L 2022 519 
Q 2988 519 3436 956 
Q 3884 1394 3884 2338 
Q 3884 3275 3436 3711 
Q 2988 4147 2022 4147 
L 1259 4147 
z
M 628 4666 
L 1925 4666 
Q 3281 4666 3915 4102 
Q 4550 3538 4550 2338 
Q 4550 1131 3912 565 
Q 3275 0 1925 0 
L 628 0 
L 628 4666 
z
" transform="scale(0.015625)"/>
      </defs>
      <use xlink:href="#DejaVuSans-43"/>
      <use xlink:href="#DejaVuSans-20" x="69.824219"/>
      <use xlink:href="#DejaVuSans-61" x="101.611328"/>
      <use xlink:href="#DejaVuSans-6e" x="162.890625"/>
      <use xlink:href="#DejaVuSans-64" x="226.269531"/>
      <use xlink:href="#DejaVuSans-20" x="289.746094"/>
      <use xlink:href="#DejaVuSans-44" x="321.533203"/>
     </g>
    </g>
   </g>
   <g id="text_5">
    <g clip-path="url(#p88cc19d225)">
     <!-- B and C -->
     <g transform="translate(16.578339 74.597882)scale(0.12 -0.12)">
      <use xlink:href="#DejaVuSans-42"/>
      <use xlink:href="#DejaVuSans-20" x="68.603516"/>
      <use xlink:href="#DejaVuSans-61" x="100.390625"/>
      <use xlink:href="#DejaVuSans-6e" x="161.669922"/>
      <use xlink:href="#DejaVuSans-64" x="225.048828"/>
      <use xlink:href="#DejaVuSans-20" x="288.525391"/>
      <use xlink:href="#DejaVuSans-43" x="320.3125"/>
     </g>
    </g>
   </g>
   <g id="text_6">
    <g clip-path="url(#p88cc19d225)">
     <!-- D and A -->
     <g transform="translate(47.779148 33.301333)scale(0.12 -0.12)">
      <use xlink:href="#DejaVuSans-44"/>
      <use xlink:href="#DejaVuSans-20" x="77.001953"/>
      <use xlink:href="#DejaVuSans-61" x="108.789062"/>
      <use xlink:href="#DejaVuSans-6e" x="170.068359"/>
      <use xlink:href="#DejaVuSans-64" x="233.447266"/>
      <use xlink:href="#DejaVuSans-20" x="296.923828"/>
      <use xlink:href="#DejaVuSans-41" x="328.710938"/>
     </g>
    </g>
   </g>
  </g>
 </g>
 <defs>
  <clipPath id="p88cc19d225">
   <rect x="0" y="0" width="460.8" height="345.6"/>
  </clipPath>
 </defs>
</svg>
