<?xml version="1.0" encoding="utf-8" standalone="no"?>
<!DOCTYPE svg PUBLIC "-//W3C//DTD SVG 1.1//EN"
  "http://www.w3.org/Graphics/SVG/1.1/DTD/svg11.dtd">
<svg xmlns:xlink="http://www.w3.org/1999/xlink" width="460.8pt" height="345.6pt" viewBox="0 0 460.8 345.6" xmlns="http://www.w3.org/2000/svg" version="1.1">
 <metadata>
  <rdf:RDF xmlns:dc="http://purl.org/dc/elements/1.1/" xmlns:cc="http://creativecommons.org/ns#" xmlns:rdf="http://www.w3.org/1999/02/22-rdf-syntax-ns#">
   <cc:Work>
    <dc:type rdf:resource="http://purl.org/dc/dcmitype/StillImage"/>
    <dc:date>2025-06-16T18:50:22.730124</dc:date>
    <dc:format>image/svg+xml</dc:format>
    <dc:creator>
     <cc:Agent>
      <dc:title>Matplotlib v3.5.1, https://matplotlib.org/</dc:title>
     </cc:Agent>
    </dc:creator>
   </cc:Work>
  </rdf:RDF>
 </metadata>
 <defs>
  <style type="text/css">*{stroke-linejoin: round; stroke-linecap: butt}</style>
 </defs>
 <g id="figure_1">
  <g id="patch_1">
   <path d="M 0 345.6 
L 460.8 345.6 
L 460.8 0 
L 0 0 
z
" style="fill: #ffffff"/>
  </g>
  <g id="axes_1">
   <g id="patch_2">
    <path d="M 395.703718 162.047848 
Q 367.09483 215.370222 339.014523 267.707404 
" clip-path="url(#pbf0e911744)" style="fill: none; stroke: #000000; stroke-linecap: round"/>
    <path d="M 342.667997 265.128233 
L 339.014523 267.707404 
L 339.14327 263.237122 
L 342.667997 265.128233 
z
" clip-path="url(#pbf0e911744)" style="stroke: #000000; stroke-linecap: round"/>
   </g>
   <g id="patch_3">
    <path d="M 70.423921 127.343362 
Q 202.597526 194.124887 333.773237 260.40222 
" clip-path="url(#pbf0e911744)" style="fill: none; stroke: #000000; stroke-linecap: round"/>
    <path d="M 331.104991 256.813284 
L 333.773237 260.40222 
L 329.30114 260.383455 
L 331.104991 256.813284 
z
" clip-path="url(#pbf0e911744)" style="stroke: #000000; stroke-linecap: round"/>
   </g>
   <g id="patch_4">
    <path d="M 383.322632 207.390358 
Q 222.488197 201.673633 62.771091 195.996623 
" clip-path="url(#pbf0e911744)" style="fill: none; stroke: #000000; stroke-linecap: round"/>
    <path d="M 66.697523 198.137447 
L 62.771091 195.996623 
L 66.83961 194.139972 
L 66.697523 198.137447 
z
" clip-path="url(#pbf0e911744)" style="stroke: #000000; stroke-linecap: round"/>
   </g>
   <g id="patch_5">
    <path d="M 383.374022 210.589416 
Q 237.132386 220.515876 92.006217 230.366621 
" clip-path="url(#pbf0e911744)" style="fill: none; stroke: #000000; stroke-linecap: round"/>
    <path d="M 96.132477 232.091144 
L 92.006217 230.366621 
L 95.861592 228.100327 
L 96.132477 232.091144 
z
" clip-path="url(#pbf0e911744)" style="stroke: #000000; stroke-linecap: round"/>
   </g>
   <g id="patch_6">
    <path d="M 357.143737 87.457109 
Q 271.204224 66.659004 186.351375 46.123882 
" clip-path="url(#pbf0e911744)" style="fill: none; stroke: #000000; stroke-linecap: round"/>
    <path d="M 189.768708 49.008641 
L 186.351375 46.123882 
L 190.709582 45.120871 
L 189.768708 49.008641 
z
" clip-path="url(#pbf0e911744)" style="stroke: #000000; stroke-linecap: round"/>
   </g>
   <g id="patch_7">
    <path d="M 334.663493 58.464689 
Q 315.864342 51.494608 298.113491 44.913201 
" clip-path="url(#pbf0e911744)" style="fill: none; stroke: #000000; stroke-linecap: round"/>
    <path d="M 301.168722 48.179018 
L 298.113491 44.913201 
L 302.559283 44.428506 
L 301.168722 48.179018 
z
" clip-path="url(#pbf0e911744)" style="stroke: #000000; stroke-linecap: round"/>
   </g>
   <g id="patch_8">
    <path d="M 47.502916 165.242355 
Q 97.303643 223.97067 146.381275 281.846263 
" clip-path="url(#pbf0e911744)" style="fill: none; stroke: #000000; stroke-linecap: round"/>
    <path d="M 145.319647 277.501963 
L 146.381275 281.846263 
L 142.268858 280.088986 
L 145.319647 277.501963 
z
" clip-path="url(#pbf0e911744)" style="stroke: #000000; stroke-linecap: round"/>
   </g>
   <g id="patch_9">
    <path d="M 71.762075 113.289844 
Q 177.973588 82.946311 283.110077 52.909901 
" clip-path="url(#pbf0e911744)" style="fill: none; stroke: #000000; stroke-linecap: round"/>
    <path d="M 278.714558 52.085638 
L 283.110077 52.909901 
L 279.813355 55.931758 
L 278.714558 52.085638 
z
" clip-path="url(#pbf0e911744)" style="stroke: #000000; stroke-linecap: round"/>
   </g>
   <g id="patch_10">
    <path d="M 368.094149 230.986113 
Q 239.031549 165.694346 110.966587 100.907275 
" clip-path="url(#pbf0e911744)" style="fill: none; stroke: #000000; stroke-linecap: round"/>
    <path d="M 113.633014 104.497563 
L 110.966587 100.907275 
L 115.438673 100.928306 
L 113.633014 104.497563 
z
" clip-path="url(#pbf0e911744)" style="stroke: #000000; stroke-linecap: round"/>
   </g>
   <g id="patch_11">
    <path d="M 239.61796 310.251408 
Q 286.134259 296.853734 331.576198 283.765498 
" clip-path="url(#pbf0e911744)" style="fill: none; stroke: #000000; stroke-linecap: round"/>
    <path d="M 327.178914 282.950705 
L 331.576198 283.765498 
L 328.285993 286.79445 
L 327.178914 282.950705 
z
" clip-path="url(#pbf0e911744)" style="stroke: #000000; stroke-linecap: round"/>
   </g>
   <g id="patch_12">
    <path d="M 145.989307 287.760535 
Q 255.597988 268.982936 364.104688 250.394123 
" clip-path="url(#pbf0e911744)" style="fill: none; stroke: #000000; stroke-linecap: round"/>
    <path d="M 359.824415 249.098261 
L 364.104688 250.394123 
L 360.499835 253.040825 
L 359.824415 249.098261 
z
" clip-path="url(#pbf0e911744)" style="stroke: #000000; stroke-linecap: round"/>
   </g>
   <g id="patch_13">
    <path d="M 392.122471 130.49256 
Q 393.44329 172.247423 394.728759 212.884811 
" clip-path="url(#pbf0e911744)" style="fill: none; stroke: #000000; stroke-linecap: round"/>
    <path d="M 396.601292 208.823577 
L 394.728759 212.884811 
L 392.603292 208.950045 
L 396.601292 208.823577 
z
" clip-path="url(#pbf0e911744)" style="stroke: #000000; stroke-linecap: round"/>
   </g>
   <g id="patch_14">
    <path d="M 223.94434 296.470731 
Q 241.525392 181.666108 258.937202 67.966636 
" clip-path="url(#pbf0e911744)" style="fill: none; stroke: #000000; stroke-linecap: round"/>
    <path d="M 256.354752 71.617794 
L 258.937202 67.966636 
L 260.308658 72.22329 
L 256.354752 71.617794 
z
" clip-path="url(#pbf0e911744)" style="stroke: #000000; stroke-linecap: round"/>
   </g>
   <g id="patch_15">
    <path d="M 236.656285 304.194631 
Q 314.655189 247.275522 391.750962 191.015467 
" clip-path="url(#pbf0e911744)" style="fill: none; stroke: #000000; stroke-linecap: round"/>
    <path d="M 387.340866 191.757798 
L 391.750962 191.015467 
L 389.698769 194.988942 
L 387.340866 191.757798 
z
" clip-path="url(#pbf0e911744)" style="stroke: #000000; stroke-linecap: round"/>
   </g>
   <g id="patch_16">
    <path d="M 112.844407 285.047613 
Q 117.965286 288.365899 122.147895 291.076194 
" clip-path="url(#pbf0e911744)" style="fill: none; stroke: #000000; stroke-linecap: round"/>
    <path d="M 119.878649 287.222557 
L 122.147895 291.076194 
L 117.703437 290.579409 
L 119.878649 287.222557 
z
" clip-path="url(#pbf0e911744)" style="stroke: #000000; stroke-linecap: round"/>
   </g>
   <g id="patch_17">
    <path d="M 206.237335 48.31458 
Q 168.417991 159.00549 130.960125 268.638415 
" clip-path="url(#pbf0e911744)" style="fill: none; stroke: #000000; stroke-linecap: round"/>
    <path d="M 134.14597 265.499881 
L 130.960125 268.638415 
L 130.360805 264.206618 
L 134.14597 265.499881 
z
" clip-path="url(#pbf0e911744)" style="stroke: #000000; stroke-linecap: round"/>
   </g>
   <g id="patch_18">
    <path d="M 216.542855 48.931927 
Q 241.051091 163.708293 265.325855 277.391274 
" clip-path="url(#pbf0e911744)" style="fill: none; stroke: #000000; stroke-linecap: round"/>
    <path d="M 266.446471 273.061814 
L 265.325855 277.391274 
L 262.534657 273.897105 
L 266.446471 273.061814 
z
" clip-path="url(#pbf0e911744)" style="stroke: #000000; stroke-linecap: round"/>
   </g>
   <g id="patch_19">
    <path d="M 52.051893 211.99605 
Q 59.045166 223.990071 65.475289 235.018245 
" clip-path="url(#pbf0e911744)" style="fill: none; stroke: #000000; stroke-linecap: round"/>
    <path d="M 65.188262 230.555329 
L 65.475289 235.018245 
L 61.73274 232.570117 
L 65.188262 230.555329 
z
" clip-path="url(#pbf0e911744)" style="stroke: #000000; stroke-linecap: round"/>
   </g>
   <g id="patch_20">
    <path d="M 113.298621 76.650488 
Q 101.146255 154.153831 89.167078 230.552636 
" clip-path="url(#pbf0e911744)" style="fill: none; stroke: #000000; stroke-linecap: round"/>
    <path d="M 91.762558 226.910729 
L 89.167078 230.552636 
L 87.810841 226.291108 
L 91.762558 226.910729 
z
" clip-path="url(#pbf0e911744)" style="stroke: #000000; stroke-linecap: round"/>
   </g>
   <g id="patch_21">
    <path d="M 365.219984 88.06009 
Q 383.909 133.929176 402.176154 178.762872 
" clip-path="url(#pbf0e911744)" style="fill: none; stroke: #000000; stroke-linecap: round"/>
    <path d="M 402.519017 174.303899 
L 402.176154 178.762872 
L 398.814693 175.813198 
L 402.519017 174.303899 
z
" clip-path="url(#pbf0e911744)" style="stroke: #000000; stroke-linecap: round"/>
   </g>
   <g id="patch_22">
    <path d="M 51.492379 157.980694 
Q 217.54658 181.099596 382.493427 204.064327 
" clip-path="url(#pbf0e911744)" style="fill: none; stroke: #000000; stroke-linecap: round"/>
    <path d="M 378.80743 201.531853 
L 382.493427 204.064327 
L 378.25585 205.49364 
L 378.80743 201.531853 
z
" clip-path="url(#pbf0e911744)" style="stroke: #000000; stroke-linecap: round"/>
   </g>
   <g id="text_1">
    <g id="patch_23">
     <path d="M 368.740216 228.884349 
L 379.266907 209.264287 
Q 380.68524 206.620742 378.041695 205.202409 
L 369.513508 200.626807 
Q 366.869963 199.208474 365.45163 201.852019 
L 354.924938 221.472081 
Q 353.506605 224.115626 356.15015 225.533959 
L 364.678337 230.109561 
Q 367.321883 231.527894 368.740216 228.884349 
z
" clip-path="url(#pbf0e911744)" style="fill: #ffffff; stroke: #ffffff; stroke-linejoin: miter"/>
    </g>
    <g clip-path="url(#pbf0e911744)">
     <!-- 0.62 -->
     <g transform="translate(364.264088 226.482786)rotate(-61.785245)scale(0.1 -0.1)">
      <defs>
       <path id="DejaVuSans-30" d="M 2034 4250 
Q 1547 4250 1301 3770 
Q 1056 3291 1056 2328 
Q 1056 1369 1301 889 
Q 1547 409 2034 409 
Q 2525 409 2770 889 
Q 3016 1369 3016 2328 
Q 3016 3291 2770 3770 
Q 2525 4250 2034 4250 
z
M 2034 4750 
Q 2819 4750 3233 4129 
Q 3647 3509 3647 2328 
Q 3647 1150 3233 529 
Q 2819 -91 2034 -91 
Q 1250 -91 836 529 
Q 422 1150 422 2328 
Q 422 3509 836 4129 
Q 1250 4750 2034 4750 
z
" transform="scale(0.015625)"/>
       <path id="DejaVuSans-2e" d="M 684 794 
L 1344 794 
L 1344 0 
L 684 0 
L 684 794 
z
" transform="scale(0.015625)"/>
       <path id="DejaVuSans-36" d="M 2113 2584 
Q 1688 2584 1439 2293 
Q 1191 2003 1191 1497 
Q 1191 994 1439 701 
Q 1688 409 2113 409 
Q 2538 409 2786 701 
Q 3034 994 3034 1497 
Q 3034 2003 2786 2293 
Q 2538 2584 2113 2584 
z
M 3366 4563 
L 3366 3988 
Q 3128 4100 2886 4159 
Q 2644 4219 2406 4219 
Q 1781 4219 1451 3797 
Q 1122 3375 1075 2522 
Q 1259 2794 1537 2939 
Q 1816 3084 2150 3084 
Q 2853 3084 3261 2657 
Q 3669 2231 3669 1497 
Q 3669 778 3244 343 
Q 2819 -91 2113 -91 
Q 1303 -91 875 529 
Q 447 1150 447 2328 
Q 447 3434 972 4092 
Q 1497 4750 2381 4750 
Q 2619 4750 2861 4703 
Q 3103 4656 3366 4563 
z
" transform="scale(0.015625)"/>
       <path id="DejaVuSans-32" d="M 1228 531 
L 3431 531 
L 3431 0 
L 469 0 
L 469 531 
Q 828 903 1448 1529 
Q 2069 2156 2228 2338 
Q 2531 2678 2651 2914 
Q 2772 3150 2772 3378 
Q 2772 3750 2511 3984 
Q 2250 4219 1831 4219 
Q 1534 4219 1204 4116 
Q 875 4013 500 3803 
L 500 4441 
Q 881 4594 1212 4672 
Q 1544 4750 1819 4750 
Q 2544 4750 2975 4387 
Q 3406 4025 3406 3419 
Q 3406 3131 3298 2873 
Q 3191 2616 2906 2266 
Q 2828 2175 2409 1742 
Q 1991 1309 1228 531 
z
" transform="scale(0.015625)"/>
      </defs>
      <use xlink:href="#DejaVuSans-30"/>
      <use xlink:href="#DejaVuSans-2e" x="63.623047"/>
      <use xlink:href="#DejaVuSans-36" x="95.410156"/>
      <use xlink:href="#DejaVuSans-32" x="159.033203"/>
     </g>
    </g>
   </g>
   <g id="text_2">
    <g id="patch_24">
     <path d="M 194.311483 198.721155 
L 214.184506 208.762122 
Q 216.862134 210.11501 218.215023 207.437382 
L 222.579496 198.799241 
Q 223.932384 196.121613 221.254756 194.768725 
L 201.381733 184.727758 
Q 198.704105 183.37487 197.351217 186.052498 
L 192.986743 194.690639 
Q 191.633855 197.368267 194.311483 198.721155 
z
" clip-path="url(#pbf0e911744)" style="fill: #ffffff; stroke: #ffffff; stroke-linejoin: miter"/>
    </g>
    <g clip-path="url(#pbf0e911744)">
     <!-- 0.62 -->
     <g transform="translate(196.602233 194.187317)rotate(-333.194532)scale(0.1 -0.1)">
      <use xlink:href="#DejaVuSans-30"/>
      <use xlink:href="#DejaVuSans-2e" x="63.623047"/>
      <use xlink:href="#DejaVuSans-36" x="95.410156"/>
      <use xlink:href="#DejaVuSans-32" x="159.033203"/>
     </g>
    </g>
   </g>
   <g id="text_3">
    <g id="patch_25">
     <path d="M 216.891479 209.318715 
L 239.143052 210.109629 
Q 242.141159 210.216194 242.247724 207.218087 
L 242.591507 197.54607 
Q 242.698073 194.547963 239.699966 194.441398 
L 217.448393 193.650485 
Q 214.450286 193.543919 214.343721 196.542026 
L 213.999937 206.214043 
Q 213.893372 209.21215 216.891479 209.318715 
z
" clip-path="url(#pbf0e911744)" style="fill: #ffffff; stroke: #ffffff; stroke-linejoin: miter"/>
    </g>
    <g clip-path="url(#pbf0e911744)">
     <!-- 0.62 -->
     <g transform="translate(217.071918 204.242234)rotate(-357.964327)scale(0.1 -0.1)">
      <use xlink:href="#DejaVuSans-30"/>
      <use xlink:href="#DejaVuSans-2e" x="63.623047"/>
      <use xlink:href="#DejaVuSans-36" x="95.410156"/>
      <use xlink:href="#DejaVuSans-32" x="159.033203"/>
     </g>
    </g>
   </g>
   <g id="text_4">
    <g id="patch_26">
     <path d="M 224.626835 229.221817 
L 246.841344 227.71396 
Q 249.834457 227.510796 249.631293 224.517683 
L 248.975878 214.861777 
Q 248.772715 211.868664 245.779602 212.071828 
L 223.565092 213.579684 
Q 220.57198 213.782848 220.775143 216.775961 
L 221.430558 226.431868 
Q 221.633722 229.424981 224.626835 229.221817 
z
" clip-path="url(#pbf0e911744)" style="fill: #ffffff; stroke: #ffffff; stroke-linejoin: miter"/>
    </g>
    <g clip-path="url(#pbf0e911744)">
     <!-- 0.56 -->
     <g transform="translate(224.282832 224.153791)rotate(-3.883116)scale(0.1 -0.1)">
      <defs>
       <path id="DejaVuSans-35" d="M 691 4666 
L 3169 4666 
L 3169 4134 
L 1269 4134 
L 1269 2991 
Q 1406 3038 1543 3061 
Q 1681 3084 1819 3084 
Q 2600 3084 3056 2656 
Q 3513 2228 3513 1497 
Q 3513 744 3044 326 
Q 2575 -91 1722 -91 
Q 1428 -91 1123 -41 
Q 819 9 494 109 
L 494 744 
Q 775 591 1075 516 
Q 1375 441 1709 441 
Q 2250 441 2565 725 
Q 2881 1009 2881 1497 
Q 2881 1984 2565 2268 
Q 2250 2553 1709 2553 
Q 1456 2553 1204 2497 
Q 953 2441 691 2322 
L 691 4666 
z
" transform="scale(0.015625)"/>
      </defs>
      <use xlink:href="#DejaVuSans-30"/>
      <use xlink:href="#DejaVuSans-2e" x="63.623047"/>
      <use xlink:href="#DejaVuSans-35" x="95.410156"/>
      <use xlink:href="#DejaVuSans-36" x="159.033203"/>
     </g>
    </g>
   </g>
   <g id="text_5">
    <g id="patch_27">
     <path d="M 264.188999 73.026615 
L 285.829907 78.263902 
Q 288.745735 78.969557 289.45139 76.05373 
L 291.727864 66.647149 
Q 292.43352 63.731321 289.517692 63.025666 
L 267.876784 57.788379 
Q 264.960957 57.082724 264.255301 59.998551 
L 261.978827 69.405132 
Q 261.273172 72.32096 264.188999 73.026615 
z
" clip-path="url(#pbf0e911744)" style="fill: #ffffff; stroke: #ffffff; stroke-linejoin: miter"/>
    </g>
    <g clip-path="url(#pbf0e911744)">
     <!-- 0.83 -->
     <g transform="translate(265.383836 68.089451)rotate(-346.395498)scale(0.1 -0.1)">
      <defs>
       <path id="DejaVuSans-38" d="M 2034 2216 
Q 1584 2216 1326 1975 
Q 1069 1734 1069 1313 
Q 1069 891 1326 650 
Q 1584 409 2034 409 
Q 2484 409 2743 651 
Q 3003 894 3003 1313 
Q 3003 1734 2745 1975 
Q 2488 2216 2034 2216 
z
M 1403 2484 
Q 997 2584 770 2862 
Q 544 3141 544 3541 
Q 544 4100 942 4425 
Q 1341 4750 2034 4750 
Q 2731 4750 3128 4425 
Q 3525 4100 3525 3541 
Q 3525 3141 3298 2862 
Q 3072 2584 2669 2484 
Q 3125 2378 3379 2068 
Q 3634 1759 3634 1313 
Q 3634 634 3220 271 
Q 2806 -91 2034 -91 
Q 1263 -91 848 271 
Q 434 634 434 1313 
Q 434 1759 690 2068 
Q 947 2378 1403 2484 
z
M 1172 3481 
Q 1172 3119 1398 2916 
Q 1625 2713 2034 2713 
Q 2441 2713 2670 2916 
Q 2900 3119 2900 3481 
Q 2900 3844 2670 4047 
Q 2441 4250 2034 4250 
Q 1625 4250 1398 4047 
Q 1172 3844 1172 3481 
z
" transform="scale(0.015625)"/>
       <path id="DejaVuSans-33" d="M 2597 2516 
Q 3050 2419 3304 2112 
Q 3559 1806 3559 1356 
Q 3559 666 3084 287 
Q 2609 -91 1734 -91 
Q 1441 -91 1130 -33 
Q 819 25 488 141 
L 488 750 
Q 750 597 1062 519 
Q 1375 441 1716 441 
Q 2309 441 2620 675 
Q 2931 909 2931 1356 
Q 2931 1769 2642 2001 
Q 2353 2234 1838 2234 
L 1294 2234 
L 1294 2753 
L 1863 2753 
Q 2328 2753 2575 2939 
Q 2822 3125 2822 3475 
Q 2822 3834 2567 4026 
Q 2313 4219 1838 4219 
Q 1578 4219 1281 4162 
Q 984 4106 628 3988 
L 628 4550 
Q 988 4650 1302 4700 
Q 1616 4750 1894 4750 
Q 2613 4750 3031 4423 
Q 3450 4097 3450 3541 
Q 3450 3153 3228 2886 
Q 3006 2619 2597 2516 
z
" transform="scale(0.015625)"/>
      </defs>
      <use xlink:href="#DejaVuSans-30"/>
      <use xlink:href="#DejaVuSans-2e" x="63.623047"/>
      <use xlink:href="#DejaVuSans-38" x="95.410156"/>
      <use xlink:href="#DejaVuSans-33" x="159.033203"/>
     </g>
    </g>
   </g>
   <g id="text_6">
    <g id="patch_28">
     <path d="M 297.255243 52.955517 
L 318.132115 60.695946 
Q 320.944999 61.738867 321.98792 58.925983 
L 325.352427 49.851503 
Q 326.395348 47.038619 323.582464 45.995698 
L 302.705591 38.255269 
Q 299.892707 37.212348 298.849786 40.025232 
L 295.48528 49.099712 
Q 294.442359 51.912596 297.255243 52.955517 
z
" clip-path="url(#pbf0e911744)" style="fill: #ffffff; stroke: #ffffff; stroke-linejoin: miter"/>
    </g>
    <g clip-path="url(#pbf0e911744)">
     <!-- 0.83 -->
     <g transform="translate(299.021147 48.19266)rotate(-339.656946)scale(0.1 -0.1)">
      <use xlink:href="#DejaVuSans-30"/>
      <use xlink:href="#DejaVuSans-2e" x="63.623047"/>
      <use xlink:href="#DejaVuSans-38" x="95.410156"/>
      <use xlink:href="#DejaVuSans-33" x="159.033203"/>
     </g>
    </g>
   </g>
   <g id="text_7">
    <g id="patch_29">
     <path d="M 91.637473 229.409339 
L 106.037894 246.391269 
Q 107.978162 248.679361 110.266253 246.739094 
L 117.647732 240.479711 
Q 119.935823 238.539443 117.995556 236.251352 
L 103.595135 219.269422 
Q 101.654868 216.98133 99.366777 218.921598 
L 91.985298 225.180981 
Q 89.697206 227.121248 91.637473 229.409339 
z
" clip-path="url(#pbf0e911744)" style="fill: #ffffff; stroke: #ffffff; stroke-linejoin: miter"/>
    </g>
    <g clip-path="url(#pbf0e911744)">
     <!-- 0.62 -->
     <g transform="translate(95.511737 226.124022)rotate(-310.297443)scale(0.1 -0.1)">
      <use xlink:href="#DejaVuSans-30"/>
      <use xlink:href="#DejaVuSans-2e" x="63.623047"/>
      <use xlink:href="#DejaVuSans-36" x="95.410156"/>
      <use xlink:href="#DejaVuSans-32" x="159.033203"/>
     </g>
    </g>
   </g>
   <g id="text_8">
    <g id="patch_30">
     <path d="M 175.009463 91.945826 
L 196.418533 85.829475 
Q 199.303124 85.005378 198.479026 82.120787 
L 195.820453 72.814978 
Q 194.996355 69.930387 192.111764 70.754485 
L 170.702693 76.870835 
Q 167.818103 77.694933 168.642201 80.579524 
L 171.300774 89.885333 
Q 172.124872 92.769924 175.009463 91.945826 
z
" clip-path="url(#pbf0e911744)" style="fill: #ffffff; stroke: #ffffff; stroke-linejoin: miter"/>
    </g>
    <g clip-path="url(#pbf0e911744)">
     <!-- 0.71 -->
     <g transform="translate(173.614076 87.061553)rotate(-15.944092)scale(0.1 -0.1)">
      <defs>
       <path id="DejaVuSans-37" d="M 525 4666 
L 3525 4666 
L 3525 4397 
L 1831 0 
L 1172 0 
L 2766 4134 
L 525 4134 
L 525 4666 
z
" transform="scale(0.015625)"/>
       <path id="DejaVuSans-31" d="M 794 531 
L 1825 531 
L 1825 4091 
L 703 3866 
L 703 4441 
L 1819 4666 
L 2450 4666 
L 2450 531 
L 3481 531 
L 3481 0 
L 794 0 
L 794 531 
z
" transform="scale(0.015625)"/>
      </defs>
      <use xlink:href="#DejaVuSans-30"/>
      <use xlink:href="#DejaVuSans-2e" x="63.623047"/>
      <use xlink:href="#DejaVuSans-37" x="95.410156"/>
      <use xlink:href="#DejaVuSans-31" x="159.033203"/>
     </g>
    </g>
   </g>
   <g id="text_9">
    <g id="patch_31">
     <path d="M 223.833831 166.79103 
L 243.701765 176.842064 
Q 246.378708 178.196308 247.732952 175.519365 
L 252.101801 166.883437 
Q 253.456046 164.206494 250.779103 162.85225 
L 230.91117 152.801216 
Q 228.234227 151.446972 226.879982 154.123915 
L 222.511133 162.759843 
Q 221.156889 165.436786 223.833831 166.79103 
z
" clip-path="url(#pbf0e911744)" style="fill: #ffffff; stroke: #ffffff; stroke-linejoin: miter"/>
    </g>
    <g clip-path="url(#pbf0e911744)">
     <!-- 0.56 -->
     <g transform="translate(226.126878 162.258353)rotate(-333.165506)scale(0.1 -0.1)">
      <use xlink:href="#DejaVuSans-30"/>
      <use xlink:href="#DejaVuSans-2e" x="63.623047"/>
      <use xlink:href="#DejaVuSans-35" x="95.410156"/>
      <use xlink:href="#DejaVuSans-36" x="159.033203"/>
     </g>
    </g>
   </g>
   <g id="text_10">
    <g id="patch_32">
     <path d="M 283.193295 305.858528 
L 304.589141 299.696074 
Q 307.47195 298.865764 306.64164 295.982955 
L 303.963027 286.682894 
Q 303.132717 283.800086 300.249908 284.630395 
L 278.854063 290.79285 
Q 275.971254 291.623159 276.801563 294.505968 
L 279.480177 303.806029 
Q 280.310487 306.688838 283.193295 305.858528 
z
" clip-path="url(#pbf0e911744)" style="fill: #ffffff; stroke: #ffffff; stroke-linejoin: miter"/>
    </g>
    <g clip-path="url(#pbf0e911744)">
     <!-- 0.56 -->
     <g transform="translate(281.787391 300.977272)rotate(-16.067515)scale(0.1 -0.1)">
      <use xlink:href="#DejaVuSans-30"/>
      <use xlink:href="#DejaVuSans-2e" x="63.623047"/>
      <use xlink:href="#DejaVuSans-35" x="95.410156"/>
      <use xlink:href="#DejaVuSans-36" x="159.033203"/>
     </g>
    </g>
   </g>
   <g id="text_11">
    <g id="patch_33">
     <path d="M 249.766229 277.935268 
L 271.71214 274.175606 
Q 274.669063 273.669041 274.162498 270.712119 
L 272.528298 261.172963 
Q 272.021733 258.21604 269.064811 258.722605 
L 247.1189 262.482266 
Q 244.161977 262.988831 244.668542 265.945754 
L 246.302741 275.48491 
Q 246.809306 278.441832 249.766229 277.935268 
z
" clip-path="url(#pbf0e911744)" style="fill: #ffffff; stroke: #ffffff; stroke-linejoin: miter"/>
    </g>
    <g clip-path="url(#pbf0e911744)">
     <!-- 0.56 -->
     <g transform="translate(248.908498 272.92852)rotate(-9.721251)scale(0.1 -0.1)">
      <use xlink:href="#DejaVuSans-30"/>
      <use xlink:href="#DejaVuSans-2e" x="63.623047"/>
      <use xlink:href="#DejaVuSans-35" x="95.410156"/>
      <use xlink:href="#DejaVuSans-36" x="159.033203"/>
     </g>
    </g>
   </g>
   <g id="text_12">
    <g id="patch_34">
     <path d="M 385.194945 159.432794 
L 385.898914 181.687288 
Q 385.993765 184.685788 388.992265 184.590937 
L 398.665552 184.284945 
Q 401.664052 184.190095 401.569201 181.191595 
L 400.865232 158.937101 
Q 400.770381 155.938601 397.771881 156.033451 
L 388.098595 156.339443 
Q 385.100094 156.434294 385.194945 159.432794 
z
" clip-path="url(#pbf0e911744)" style="fill: #ffffff; stroke: #ffffff; stroke-linejoin: miter"/>
    </g>
    <g clip-path="url(#pbf0e911744)">
     <!-- 0.62 -->
     <g transform="translate(390.272093 159.27219)rotate(-271.811815)scale(0.1 -0.1)">
      <use xlink:href="#DejaVuSans-30"/>
      <use xlink:href="#DejaVuSans-2e" x="63.623047"/>
      <use xlink:href="#DejaVuSans-36" x="95.410156"/>
      <use xlink:href="#DejaVuSans-32" x="159.033203"/>
     </g>
    </g>
   </g>
   <g id="text_13">
    <g id="patch_35">
     <path d="M 249.243062 183.055554 
L 251.650385 167.335688 
Q 252.104508 164.370259 249.139078 163.916136 
L 239.572479 162.451118 
Q 236.607049 161.996995 236.152926 164.962425 
L 233.745604 180.682291 
Q 233.291481 183.64772 236.256911 184.101843 
L 245.82351 185.566861 
Q 248.78894 186.020984 249.243062 183.055554 
z
" clip-path="url(#pbf0e911744)" style="fill: #ffffff; stroke: #ffffff; stroke-linejoin: miter"/>
    </g>
    <g clip-path="url(#pbf0e911744)">
     <!-- 1.0 -->
     <g transform="translate(244.221911 182.286621)rotate(-81.293429)scale(0.1 -0.1)">
      <use xlink:href="#DejaVuSans-31"/>
      <use xlink:href="#DejaVuSans-2e" x="63.623047"/>
      <use xlink:href="#DejaVuSans-30" x="95.410156"/>
     </g>
    </g>
   </g>
   <g id="text_14">
    <g id="patch_36">
     <path d="M 316.543201 255.602139 
L 334.529063 242.477093 
Q 336.952421 240.708666 335.183994 238.285307 
L 329.478974 230.467453 
Q 327.710547 228.044095 325.287189 229.812522 
L 307.301327 242.937568 
Q 304.877969 244.705995 306.646396 247.129353 
L 312.351416 254.947208 
Q 314.119843 257.370566 316.543201 255.602139 
z
" clip-path="url(#pbf0e911744)" style="fill: #ffffff; stroke: #ffffff; stroke-linejoin: miter"/>
    </g>
    <g clip-path="url(#pbf0e911744)">
     <!-- 0.71 -->
     <g transform="translate(313.548849 251.498838)rotate(-36.119815)scale(0.1 -0.1)">
      <use xlink:href="#DejaVuSans-30"/>
      <use xlink:href="#DejaVuSans-2e" x="63.623047"/>
      <use xlink:href="#DejaVuSans-37" x="95.410156"/>
      <use xlink:href="#DejaVuSans-31" x="159.033203"/>
     </g>
    </g>
   </g>
   <g id="text_15">
    <g id="patch_37">
     <path d="M 89.735457 279.414179 
L 108.421059 291.52229 
Q 110.938698 293.153699 112.570107 290.63606 
L 117.833099 282.514052 
Q 119.464507 279.996413 116.946869 278.365004 
L 98.261267 266.256893 
Q 95.743628 264.625484 94.112219 267.143123 
L 88.849227 275.265131 
Q 87.217819 277.78277 89.735457 279.414179 
z
" clip-path="url(#pbf0e911744)" style="fill: #ffffff; stroke: #ffffff; stroke-linejoin: miter"/>
    </g>
    <g clip-path="url(#pbf0e911744)">
     <!-- 0.56 -->
     <g transform="translate(92.497806 275.151239)rotate(-327.057105)scale(0.1 -0.1)">
      <use xlink:href="#DejaVuSans-30"/>
      <use xlink:href="#DejaVuSans-2e" x="63.623047"/>
      <use xlink:href="#DejaVuSans-35" x="95.410156"/>
      <use xlink:href="#DejaVuSans-36" x="159.033203"/>
     </g>
    </g>
   </g>
   <g id="text_16">
    <g id="patch_38">
     <path d="M 171.610543 173.907267 
L 178.80937 152.837503 
Q 179.779317 149.99863 176.940443 149.028683 
L 167.782119 145.899593 
Q 164.943246 144.929646 163.973299 147.768519 
L 156.774472 168.838283 
Q 155.804525 171.677156 158.643398 172.647104 
L 167.801722 175.776193 
Q 170.640596 176.746141 171.610543 173.907267 
z
" clip-path="url(#pbf0e911744)" style="fill: #ffffff; stroke: #ffffff; stroke-linejoin: miter"/>
    </g>
    <g clip-path="url(#pbf0e911744)">
     <!-- 0.62 -->
     <g transform="translate(166.80368 172.264924)rotate(-71.136436)scale(0.1 -0.1)">
      <use xlink:href="#DejaVuSans-30"/>
      <use xlink:href="#DejaVuSans-2e" x="63.623047"/>
      <use xlink:href="#DejaVuSans-36" x="95.410156"/>
      <use xlink:href="#DejaVuSans-32" x="159.033203"/>
     </g>
    </g>
   </g>
   <g id="text_17">
    <g id="patch_39">
     <path d="M 233.341491 165.142201 
L 236.662425 180.694718 
Q 237.288893 183.628579 240.222754 183.002111 
L 249.68751 180.981098 
Q 252.621371 180.35463 251.994903 177.420769 
L 248.673968 161.868253 
Q 248.0475 158.934392 245.11364 159.56086 
L 235.648883 161.581873 
Q 232.715023 162.208341 233.341491 165.142201 
z
" clip-path="url(#pbf0e911744)" style="fill: #ffffff; stroke: #ffffff; stroke-linejoin: miter"/>
    </g>
    <g clip-path="url(#pbf0e911744)">
     <!-- 1.0 -->
     <g transform="translate(238.309189 164.081447)rotate(-282.053371)scale(0.1 -0.1)">
      <use xlink:href="#DejaVuSans-31"/>
      <use xlink:href="#DejaVuSans-2e" x="63.623047"/>
      <use xlink:href="#DejaVuSans-30" x="95.410156"/>
     </g>
    </g>
   </g>
   <g id="text_18">
    <g id="patch_40">
     <path d="M 50.566888 225.012202 
L 61.782015 244.247039 
Q 63.293106 246.838681 65.884747 245.32759 
L 74.24549 240.452748 
Q 76.837131 238.941657 75.326041 236.350016 
L 64.110914 217.115178 
Q 62.599823 214.523537 60.008181 216.034628 
L 51.647439 220.909469 
Q 49.055797 222.42056 50.566888 225.012202 
z
" clip-path="url(#pbf0e911744)" style="fill: #ffffff; stroke: #ffffff; stroke-linejoin: miter"/>
    </g>
    <g clip-path="url(#pbf0e911744)">
     <!-- 0.62 -->
     <g transform="translate(54.955131 222.453579)rotate(-300.24489)scale(0.1 -0.1)">
      <use xlink:href="#DejaVuSans-30"/>
      <use xlink:href="#DejaVuSans-2e" x="63.623047"/>
      <use xlink:href="#DejaVuSans-36" x="95.410156"/>
      <use xlink:href="#DejaVuSans-32" x="159.033203"/>
     </g>
    </g>
   </g>
   <g id="text_19">
    <g id="patch_41">
     <path d="M 105.965928 174.021234 
L 109.414991 152.02437 
Q 109.879707 149.060582 106.915919 148.595866 
L 97.354616 147.096673 
Q 94.390828 146.631958 93.926112 149.595746 
L 90.477048 171.592609 
Q 90.012333 174.556397 92.97612 175.021113 
L 102.537424 176.520306 
Q 105.501212 176.985022 105.965928 174.021234 
z
" clip-path="url(#pbf0e911744)" style="fill: #ffffff; stroke: #ffffff; stroke-linejoin: miter"/>
    </g>
    <g clip-path="url(#pbf0e911744)">
     <!-- 0.71 -->
     <g transform="translate(100.947556 173.234364)rotate(-81.088696)scale(0.1 -0.1)">
      <use xlink:href="#DejaVuSans-30"/>
      <use xlink:href="#DejaVuSans-2e" x="63.623047"/>
      <use xlink:href="#DejaVuSans-37" x="95.410156"/>
      <use xlink:href="#DejaVuSans-31" x="159.033203"/>
     </g>
    </g>
   </g>
   <g id="text_20">
    <g id="patch_42">
     <path d="M 373.909679 130.162874 
L 382.311051 150.782647 
Q 383.443025 153.56089 386.221268 152.428915 
L 395.183996 148.777119 
Q 397.962239 147.645145 396.830265 144.866902 
L 388.428893 124.247129 
Q 387.296918 121.468886 384.518675 122.600861 
L 375.555948 126.252657 
Q 372.777705 127.384631 373.909679 130.162874 
z
" clip-path="url(#pbf0e911744)" style="fill: #ffffff; stroke: #ffffff; stroke-linejoin: miter"/>
    </g>
    <g clip-path="url(#pbf0e911744)">
     <!-- 0.62 -->
     <g transform="translate(378.613881 128.246182)rotate(-292.168071)scale(0.1 -0.1)">
      <use xlink:href="#DejaVuSans-30"/>
      <use xlink:href="#DejaVuSans-2e" x="63.623047"/>
      <use xlink:href="#DejaVuSans-36" x="95.410156"/>
      <use xlink:href="#DejaVuSans-32" x="159.033203"/>
     </g>
    </g>
   </g>
   <g id="text_21">
    <g id="patch_43">
     <path d="M 218.178943 189.102309 
L 233.930143 191.29527 
Q 236.901483 191.708955 237.315168 188.737615 
L 238.649733 179.151946 
Q 239.063418 176.180606 236.092078 175.766921 
L 220.340878 173.573959 
Q 217.369537 173.160274 216.955852 176.131615 
L 215.621287 185.717283 
Q 215.207602 188.688624 218.178943 189.102309 
z
" clip-path="url(#pbf0e911744)" style="fill: #ffffff; stroke: #ffffff; stroke-linejoin: miter"/>
    </g>
    <g clip-path="url(#pbf0e911744)">
     <!-- 1.0 -->
     <g transform="translate(218.879406 184.071149)rotate(-352.073943)scale(0.1 -0.1)">
      <use xlink:href="#DejaVuSans-31"/>
      <use xlink:href="#DejaVuSans-2e" x="63.623047"/>
      <use xlink:href="#DejaVuSans-30" x="95.410156"/>
     </g>
    </g>
   </g>
   <g id="PathCollection_1">
    <path d="M 221.013387 334.974834 
C 226.149023 334.974834 231.075008 332.934424 234.706451 329.302981 
C 238.337894 325.671538 240.378303 320.745553 240.378303 315.609917 
C 240.378303 310.474281 238.337894 305.548296 234.706451 301.916853 
C 231.075008 298.28541 226.149023 296.245001 221.013387 296.245001 
C 215.877751 296.245001 210.951766 298.28541 207.320323 301.916853 
C 203.68888 305.548296 201.64847 310.474281 201.64847 315.609917 
C 201.64847 320.745553 203.68888 325.671538 207.320323 329.302981 
C 210.951766 332.934424 215.877751 334.974834 221.013387 334.974834 
z
" clip-path="url(#pbf0e911744)" style="fill: #808080; stroke: #808080"/>
    <path d="M 362.427135 305.863645 
C 370.644153 305.863645 378.525729 302.598989 384.336038 296.78868 
C 390.146346 290.978372 393.411002 283.096796 393.411002 274.879778 
C 393.411002 266.662761 390.146346 258.781185 384.336038 252.970876 
C 378.525729 247.160567 370.644153 243.895911 362.427135 243.895911 
C 354.210118 243.895911 346.328542 247.160567 340.518233 252.970876 
C 334.707924 258.781185 331.443269 266.662761 331.443269 274.879778 
C 331.443269 283.096796 334.707924 290.978372 340.518233 296.78868 
C 346.328542 302.598989 354.210118 305.863645 362.427135 305.863645 
z
" clip-path="url(#pbf0e911744)" style="fill: #808080; stroke: #808080"/>
    <path d="M 123.086164 314.922085 
C 129.248927 314.922085 135.160109 312.473593 139.51784 308.115861 
C 143.875572 303.75813 146.324064 297.846948 146.324064 291.684184 
C 146.324064 285.521421 143.875572 279.610239 139.51784 275.252508 
C 135.160109 270.894776 129.248927 268.446284 123.086164 268.446284 
C 116.923401 268.446284 111.012219 270.894776 106.654487 275.252508 
C 102.296755 279.610239 99.848264 285.521421 99.848264 291.684184 
C 99.848264 297.846948 102.296755 303.75813 106.654487 308.115861 
C 111.012219 312.473593 116.923401 314.922085 123.086164 314.922085 
z
" clip-path="url(#pbf0e911744)" style="fill: #808080; stroke: #808080"/>
    <path d="M 212.498197 49.354999 
C 217.633833 49.354999 222.559818 47.31459 226.191261 43.683147 
C 229.822704 40.051704 231.863114 35.125719 231.863114 29.990083 
C 231.863114 24.854447 229.822704 19.928462 226.191261 16.297019 
C 222.559818 12.665576 217.633833 10.625166 212.498197 10.625166 
C 207.362561 10.625166 202.436576 12.665576 198.805133 16.297019 
C 195.17369 19.928462 193.13328 24.854447 193.13328 29.990083 
C 193.13328 35.125719 195.17369 40.051704 198.805133 43.683147 
C 202.436576 47.31459 207.362561 49.354999 212.498197 49.354999 
z
" clip-path="url(#pbf0e911744)" style="fill: #808080; stroke: #808080"/>
    <path d="M 395.743822 275.957735 
C 403.96084 275.957735 411.842416 272.69308 417.652725 266.882771 
C 423.463034 261.072462 426.727689 253.190886 426.727689 244.973868 
C 426.727689 236.756851 423.463034 228.875275 417.652725 223.064966 
C 411.842416 217.254657 403.96084 213.990002 395.743822 213.990002 
C 387.526805 213.990002 379.645229 217.254657 373.83492 223.064966 
C 368.024611 228.875275 364.759956 236.756851 364.759956 244.973868 
C 364.759956 253.190886 368.024611 261.072462 373.83492 266.882771 
C 379.645229 272.69308 387.526805 275.957735 395.743822 275.957735 
z
" clip-path="url(#pbf0e911744)" style="fill: #808080; stroke: #808080"/>
    <path d="M 53.139272 137.975103 
C 58.274908 137.975103 63.200893 135.934694 66.832336 132.303251 
C 70.463779 128.671808 72.504188 123.745823 72.504188 118.610187 
C 72.504188 113.474551 70.463779 108.548566 66.832336 104.917123 
C 63.200893 101.28568 58.274908 99.24527 53.139272 99.24527 
C 48.003636 99.24527 43.077651 101.28568 39.446208 104.917123 
C 35.814765 108.548566 33.774355 113.474551 33.774355 118.610187 
C 33.774355 123.745823 35.814765 128.671808 39.446208 132.303251 
C 43.077651 135.934694 48.003636 137.975103 53.139272 137.975103 
z
" clip-path="url(#pbf0e911744)" style="fill: #808080; stroke: #808080"/>
    <path d="M 313.977915 75.075145 
C 322.194933 75.075145 330.076509 71.810489 335.886817 66.000181 
C 341.697126 60.189872 344.961782 52.308296 344.961782 44.091278 
C 344.961782 35.874261 341.697126 27.992685 335.886817 22.182376 
C 330.076509 16.372067 322.194933 13.107412 313.977915 13.107412 
C 305.760898 13.107412 297.879322 16.372067 292.069013 22.182376 
C 286.258704 27.992685 282.994048 35.874261 282.994048 44.091278 
C 282.994048 52.308296 286.258704 60.189872 292.069013 66.000181 
C 297.879322 71.810489 305.760898 75.075145 313.977915 75.075145 
z
" clip-path="url(#pbf0e911744)" style="fill: #808080; stroke: #808080"/>
    <path d="M 356.453244 89.781482 
C 362.616008 89.781482 368.52719 87.33299 372.884921 82.975259 
C 377.242653 78.617527 379.691145 72.706345 379.691145 66.543582 
C 379.691145 60.380819 377.242653 54.469637 372.884921 50.111905 
C 368.52719 45.754174 362.616008 43.305682 356.453244 43.305682 
C 350.290481 43.305682 344.379299 45.754174 340.021568 50.111905 
C 335.663836 54.469637 333.215344 60.380819 333.215344 66.543582 
C 333.215344 72.706345 335.663836 78.617527 340.021568 82.975259 
C 344.379299 87.33299 350.290481 89.781482 356.453244 89.781482 
z
" clip-path="url(#pbf0e911744)" style="fill: #808080; stroke: #808080"/>
    <path d="M 414.288665 239.474887 
C 422.505683 239.474887 430.387259 236.210231 436.197568 230.399922 
C 442.007876 224.589613 445.272532 216.708037 445.272532 208.49102 
C 445.272532 200.274002 442.007876 192.392426 436.197568 186.582117 
C 430.387259 180.771809 422.505683 177.507153 414.288665 177.507153 
C 406.071648 177.507153 398.190072 180.771809 392.379763 186.582117 
C 386.569454 192.392426 383.304798 200.274002 383.304798 208.49102 
C 383.304798 216.708037 386.569454 224.589613 392.379763 230.399922 
C 398.190072 236.210231 406.071648 239.474887 414.288665 239.474887 
z
" clip-path="url(#pbf0e911744)" style="fill: #808080; stroke: #808080"/>
    <path d="M 42.29894 214.633874 
C 47.434576 214.633874 52.360561 212.593464 55.992004 208.962021 
C 59.623447 205.330578 61.663857 200.404593 61.663857 195.268957 
C 61.663857 190.133321 59.623447 185.207336 55.992004 181.575893 
C 52.360561 177.94445 47.434576 175.904041 42.29894 175.904041 
C 37.163304 175.904041 32.237319 177.94445 28.605876 181.575893 
C 24.974433 185.207336 22.934024 190.133321 22.934024 195.268957 
C 22.934024 200.404593 24.974433 205.330578 28.605876 208.962021 
C 32.237319 212.593464 37.163304 214.633874 42.29894 214.633874 
z
" clip-path="url(#pbf0e911744)" style="fill: #808080; stroke: #808080"/>
    <path d="M 264.382764 67.263854 
C 273.626909 67.263854 282.493682 63.591116 289.030279 57.054519 
C 295.566877 50.517921 299.239614 41.651148 299.239614 32.407003 
C 299.239614 23.162859 295.566877 14.296086 289.030279 7.759488 
C 282.493682 1.222891 273.626909 -2.449847 264.382764 -2.449847 
C 255.13862 -2.449847 246.271847 1.222891 239.735249 7.759488 
C 233.198652 14.296086 229.525914 23.162859 229.525914 32.407003 
C 229.525914 41.651148 233.198652 50.517921 239.735249 57.054519 
C 246.271847 63.591116 255.13862 67.263854 264.382764 67.263854 
z
" clip-path="url(#pbf0e911744)" style="fill: #808080; stroke: #808080"/>
    <path d="M 116.298246 76.884893 
C 121.433882 76.884893 126.359867 74.844483 129.99131 71.21304 
C 133.622753 67.581597 135.663162 62.655612 135.663162 57.519976 
C 135.663162 52.38434 133.622753 47.458355 129.99131 43.826912 
C 126.359867 40.195469 121.433882 38.155059 116.298246 38.155059 
C 111.16261 38.155059 106.236625 40.195469 102.605182 43.826912 
C 98.973739 47.458355 96.933329 52.38434 96.933329 57.519976 
C 96.933329 62.655612 98.973739 67.581597 102.605182 71.21304 
C 106.236625 74.844483 111.16261 76.884893 116.298246 76.884893 
z
" clip-path="url(#pbf0e911744)" style="fill: #808080; stroke: #808080"/>
    <path d="M 83.594298 300.950641 
C 92.838442 300.950641 101.705215 297.277903 108.241813 290.741306 
C 114.77841 284.204708 118.451148 275.337935 118.451148 266.093791 
C 118.451148 256.849646 114.77841 247.982873 108.241813 241.446275 
C 101.705215 234.909678 92.838442 231.23694 83.594298 231.23694 
C 74.350153 231.23694 65.48338 234.909678 58.946783 241.446275 
C 52.410185 247.982873 48.737448 256.849646 48.737448 266.093791 
C 48.737448 275.337935 52.410185 284.204708 58.946783 290.741306 
C 65.48338 297.277903 74.350153 300.950641 83.594298 300.950641 
z
" clip-path="url(#pbf0e911744)" style="fill: #808080; stroke: #808080"/>
    <path d="M 391.020484 130.512424 
C 400.264628 130.512424 409.131401 126.839686 415.667999 120.303089 
C 422.204596 113.766492 425.877334 104.899719 425.877334 95.655574 
C 425.877334 86.411429 422.204596 77.544656 415.667999 71.008059 
C 409.131401 64.471461 400.264628 60.798724 391.020484 60.798724 
C 381.776339 60.798724 372.909566 64.471461 366.372969 71.008059 
C 359.836371 77.544656 356.163634 86.411429 356.163634 95.655574 
C 356.163634 104.899719 359.836371 113.766492 366.372969 120.303089 
C 372.909566 126.839686 381.776339 130.512424 391.020484 130.512424 
z
" clip-path="url(#pbf0e911744)" style="fill: #808080; stroke: #808080"/>
    <path d="M 162.68083 63.633306 
C 168.843593 63.633306 174.754775 61.184814 179.112507 56.827082 
C 183.470239 52.469351 185.91873 46.558169 185.91873 40.395406 
C 185.91873 34.232643 183.470239 28.321461 179.112507 23.963729 
C 174.754775 19.605997 168.843593 17.157506 162.68083 17.157506 
C 156.518067 17.157506 150.606885 19.605997 146.249153 23.963729 
C 141.891422 28.321461 139.44293 34.232643 139.44293 40.395406 
C 139.44293 46.558169 141.891422 52.469351 146.249153 56.827082 
C 150.606885 61.184814 156.518067 63.633306 162.68083 63.633306 
z
" clip-path="url(#pbf0e911744)" style="fill: #808080; stroke: #808080"/>
    <path d="M 56.112748 267.659816 
C 65.356893 267.659816 74.223666 263.987078 80.760263 257.450481 
C 87.296861 250.913884 90.969598 242.047111 90.969598 232.802966 
C 90.969598 223.558821 87.296861 214.692048 80.760263 208.155451 
C 74.223666 201.618853 65.356893 197.946116 56.112748 197.946116 
C 46.868603 197.946116 38.00183 201.618853 31.465233 208.155451 
C 24.928636 214.692048 21.255898 223.558821 21.255898 232.802966 
C 21.255898 242.047111 24.928636 250.913884 31.465233 257.450481 
C 38.00183 263.987078 46.868603 267.659816 56.112748 267.659816 
z
" clip-path="url(#pbf0e911744)" style="fill: #808080; stroke: #808080"/>
    <path d="M 420.813223 204.664352 
C 430.057368 204.664352 438.924141 200.991615 445.460738 194.455017 
C 451.997336 187.91842 455.670073 179.051647 455.670073 169.807502 
C 455.670073 160.563357 451.997336 151.696584 445.460738 145.159987 
C 438.924141 138.62339 430.057368 134.950652 420.813223 134.950652 
C 411.569078 134.950652 402.702305 138.62339 396.165708 145.159987 
C 389.629111 151.696584 385.956373 160.563357 385.956373 169.807502 
C 385.956373 179.051647 389.629111 187.91842 396.165708 194.455017 
C 402.702305 200.991615 411.569078 204.664352 420.813223 204.664352 
z
" clip-path="url(#pbf0e911744)" style="fill: #808080; stroke: #808080"/>
    <path d="M 78.868943 119.526176 
C 88.113087 119.526176 96.97986 115.853438 103.516458 109.316841 
C 110.053055 102.780243 113.725793 93.913471 113.725793 84.669326 
C 113.725793 75.425181 110.053055 66.558408 103.516458 60.021811 
C 96.97986 53.485213 88.113087 49.812476 78.868943 49.812476 
C 69.624798 49.812476 60.758025 53.485213 54.221427 60.021811 
C 47.68483 66.558408 44.012092 75.425181 44.012092 84.669326 
C 44.012092 93.913471 47.68483 102.780243 54.221427 109.316841 
C 60.758025 115.853438 69.624798 119.526176 78.868943 119.526176 
z
" clip-path="url(#pbf0e911744)" style="fill: #808080; stroke: #808080"/>
    <path d="M 39.986777 167.997776 
C 43.068158 167.997776 46.023749 166.77353 48.202615 164.594664 
C 50.381481 162.415798 51.605727 159.460207 51.605727 156.378826 
C 51.605727 153.297444 50.381481 150.341853 48.202615 148.162987 
C 46.023749 145.984122 43.068158 144.759876 39.986777 144.759876 
C 36.905395 144.759876 33.949804 145.984122 31.770938 148.162987 
C 29.592073 150.341853 28.367827 153.297444 28.367827 156.378826 
C 28.367827 159.460207 29.592073 162.415798 31.770938 164.594664 
C 33.949804 166.77353 36.905395 167.997776 39.986777 167.997776 
z
" clip-path="url(#pbf0e911744)" style="fill: #808080; stroke: #808080"/>
    <path d="M 169.646605 344.139131 
C 178.89075 344.139131 187.757523 340.466394 194.294121 333.929796 
C 200.830718 327.393199 204.503456 318.526426 204.503456 309.282281 
C 204.503456 300.038137 200.830718 291.171364 194.294121 284.634766 
C 187.757523 278.098169 178.89075 274.425431 169.646605 274.425431 
C 160.402461 274.425431 151.535688 278.098169 144.99909 284.634766 
C 138.462493 291.171364 134.789755 300.038137 134.789755 309.282281 
C 134.789755 318.526426 138.462493 327.393199 144.99909 333.929796 
C 151.535688 340.466394 160.402461 344.139131 169.646605 344.139131 
z
" clip-path="url(#pbf0e911744)" style="fill: #808080; stroke: #808080"/>
    <path d="M 272.837537 347.426648 
C 282.081682 347.426648 290.948455 343.753911 297.485052 337.217313 
C 304.02165 330.680716 307.694387 321.813943 307.694387 312.569798 
C 307.694387 303.325654 304.02165 294.458881 297.485052 287.922283 
C 290.948455 281.385686 282.081682 277.712948 272.837537 277.712948 
C 263.593392 277.712948 254.726619 281.385686 248.190022 287.922283 
C 241.653425 294.458881 237.980687 303.325654 237.980687 312.569798 
C 237.980687 321.813943 241.653425 330.680716 248.190022 337.217313 
C 254.726619 343.753911 263.593392 347.426648 272.837537 347.426648 
z
" clip-path="url(#pbf0e911744)" style="fill: #808080; stroke: #808080"/>
    <path d="M 412.183912 166.188263 
C 421.428057 166.188263 430.29483 162.515525 436.831427 155.978927 
C 443.368025 149.44233 447.040763 140.575557 447.040763 131.331412 
C 447.040763 122.087268 443.368025 113.220495 436.831427 106.683897 
C 430.29483 100.1473 421.428057 96.474562 412.183912 96.474562 
C 402.939768 96.474562 394.072995 100.1473 387.536397 106.683897 
C 380.9998 113.220495 377.327062 122.087268 377.327062 131.331412 
C 377.327062 140.575557 380.9998 149.44233 387.536397 155.978927 
C 394.072995 162.515525 402.939768 166.188263 412.183912 166.188263 
z
" clip-path="url(#pbf0e911744)" style="fill: #808080; stroke: #808080"/>
    <path d="M 322.007239 334.263099 
C 331.251384 334.263099 340.118157 330.590361 346.654754 324.053764 
C 353.191352 317.517167 356.864089 308.650394 356.864089 299.406249 
C 356.864089 290.162104 353.191352 281.295331 346.654754 274.758734 
C 340.118157 268.222136 331.251384 264.549399 322.007239 264.549399 
C 312.763095 264.549399 303.896322 268.222136 297.359724 274.758734 
C 290.823127 281.295331 287.150389 290.162104 287.150389 299.406249 
C 287.150389 308.650394 290.823127 317.517167 297.359724 324.053764 
C 303.896322 330.590361 312.763095 334.263099 322.007239 334.263099 
z
" clip-path="url(#pbf0e911744)" style="fill: #808080; stroke: #808080"/>
   </g>
   <g id="text_22">
    <g clip-path="url(#pbf0e911744)">
     <!-- Pablo -->
     <g transform="translate(204.841512 312.20248)scale(0.12 -0.12)">
      <defs>
       <path id="DejaVuSans-50" d="M 1259 4147 
L 1259 2394 
L 2053 2394 
Q 2494 2394 2734 2622 
Q 2975 2850 2975 3272 
Q 2975 3691 2734 3919 
Q 2494 4147 2053 4147 
L 1259 4147 
z
M 628 4666 
L 2053 4666 
Q 2838 4666 3239 4311 
Q 3641 3956 3641 3272 
Q 3641 2581 3239 2228 
Q 2838 1875 2053 1875 
L 1259 1875 
L 1259 0 
L 628 0 
L 628 4666 
z
" transform="scale(0.015625)"/>
       <path id="DejaVuSans-61" d="M 2194 1759 
Q 1497 1759 1228 1600 
Q 959 1441 959 1056 
Q 959 750 1161 570 
Q 1363 391 1709 391 
Q 2188 391 2477 730 
Q 2766 1069 2766 1631 
L 2766 1759 
L 2194 1759 
z
M 3341 1997 
L 3341 0 
L 2766 0 
L 2766 531 
Q 2569 213 2275 61 
Q 1981 -91 1556 -91 
Q 1019 -91 701 211 
Q 384 513 384 1019 
Q 384 1609 779 1909 
Q 1175 2209 1959 2209 
L 2766 2209 
L 2766 2266 
Q 2766 2663 2505 2880 
Q 2244 3097 1772 3097 
Q 1472 3097 1187 3025 
Q 903 2953 641 2809 
L 641 3341 
Q 956 3463 1253 3523 
Q 1550 3584 1831 3584 
Q 2591 3584 2966 3190 
Q 3341 2797 3341 1997 
z
" transform="scale(0.015625)"/>
       <path id="DejaVuSans-62" d="M 3116 1747 
Q 3116 2381 2855 2742 
Q 2594 3103 2138 3103 
Q 1681 3103 1420 2742 
Q 1159 2381 1159 1747 
Q 1159 1113 1420 752 
Q 1681 391 2138 391 
Q 2594 391 2855 752 
Q 3116 1113 3116 1747 
z
M 1159 2969 
Q 1341 3281 1617 3432 
Q 1894 3584 2278 3584 
Q 2916 3584 3314 3078 
Q 3713 2572 3713 1747 
Q 3713 922 3314 415 
Q 2916 -91 2278 -91 
Q 1894 -91 1617 61 
Q 1341 213 1159 525 
L 1159 0 
L 581 0 
L 581 4863 
L 1159 4863 
L 1159 2969 
z
" transform="scale(0.015625)"/>
       <path id="DejaVuSans-6c" d="M 603 4863 
L 1178 4863 
L 1178 0 
L 603 0 
L 603 4863 
z
" transform="scale(0.015625)"/>
       <path id="DejaVuSans-6f" d="M 1959 3097 
Q 1497 3097 1228 2736 
Q 959 2375 959 1747 
Q 959 1119 1226 758 
Q 1494 397 1959 397 
Q 2419 397 2687 759 
Q 2956 1122 2956 1747 
Q 2956 2369 2687 2733 
Q 2419 3097 1959 3097 
z
M 1959 3584 
Q 2709 3584 3137 3096 
Q 3566 2609 3566 1747 
Q 3566 888 3137 398 
Q 2709 -91 1959 -91 
Q 1206 -91 779 398 
Q 353 888 353 1747 
Q 353 2609 779 3096 
Q 1206 3584 1959 3584 
z
" transform="scale(0.015625)"/>
      </defs>
      <use xlink:href="#DejaVuSans-50"/>
      <use xlink:href="#DejaVuSans-61" x="55.802734"/>
      <use xlink:href="#DejaVuSans-62" x="117.082031"/>
      <use xlink:href="#DejaVuSans-6c" x="180.558594"/>
      <use xlink:href="#DejaVuSans-6f" x="208.341797"/>
     </g>
    </g>
    <g clip-path="url(#pbf0e911744)">
     <!-- Ugo -->
     <g transform="translate(209.141824 325.639855)scale(0.12 -0.12)">
      <defs>
       <path id="DejaVuSans-55" d="M 556 4666 
L 1191 4666 
L 1191 1831 
Q 1191 1081 1462 751 
Q 1734 422 2344 422 
Q 2950 422 3222 751 
Q 3494 1081 3494 1831 
L 3494 4666 
L 4128 4666 
L 4128 1753 
Q 4128 841 3676 375 
Q 3225 -91 2344 -91 
Q 1459 -91 1007 375 
Q 556 841 556 1753 
L 556 4666 
z
" transform="scale(0.015625)"/>
       <path id="DejaVuSans-67" d="M 2906 1791 
Q 2906 2416 2648 2759 
Q 2391 3103 1925 3103 
Q 1463 3103 1205 2759 
Q 947 2416 947 1791 
Q 947 1169 1205 825 
Q 1463 481 1925 481 
Q 2391 481 2648 825 
Q 2906 1169 2906 1791 
z
M 3481 434 
Q 3481 -459 3084 -895 
Q 2688 -1331 1869 -1331 
Q 1566 -1331 1297 -1286 
Q 1028 -1241 775 -1147 
L 775 -588 
Q 1028 -725 1275 -790 
Q 1522 -856 1778 -856 
Q 2344 -856 2625 -561 
Q 2906 -266 2906 331 
L 2906 616 
Q 2728 306 2450 153 
Q 2172 0 1784 0 
Q 1141 0 747 490 
Q 353 981 353 1791 
Q 353 2603 747 3093 
Q 1141 3584 1784 3584 
Q 2172 3584 2450 3431 
Q 2728 3278 2906 2969 
L 2906 3500 
L 3481 3500 
L 3481 434 
z
" transform="scale(0.015625)"/>
      </defs>
      <use xlink:href="#DejaVuSans-55"/>
      <use xlink:href="#DejaVuSans-67" x="73.193359"/>
      <use xlink:href="#DejaVuSans-6f" x="136.669922"/>
     </g>
    </g>
   </g>
   <g id="text_23">
    <g clip-path="url(#pbf0e911744)">
     <!-- Nicco -->
     <g transform="translate(346.002135 271.472341)scale(0.12 -0.12)">
      <defs>
       <path id="DejaVuSans-4e" d="M 628 4666 
L 1478 4666 
L 3547 763 
L 3547 4666 
L 4159 4666 
L 4159 0 
L 3309 0 
L 1241 3903 
L 1241 0 
L 628 0 
L 628 4666 
z
" transform="scale(0.015625)"/>
       <path id="DejaVuSans-69" d="M 603 3500 
L 1178 3500 
L 1178 0 
L 603 0 
L 603 3500 
z
M 603 4863 
L 1178 4863 
L 1178 4134 
L 603 4134 
L 603 4863 
z
" transform="scale(0.015625)"/>
       <path id="DejaVuSans-63" d="M 3122 3366 
L 3122 2828 
Q 2878 2963 2633 3030 
Q 2388 3097 2138 3097 
Q 1578 3097 1268 2742 
Q 959 2388 959 1747 
Q 959 1106 1268 751 
Q 1578 397 2138 397 
Q 2388 397 2633 464 
Q 2878 531 3122 666 
L 3122 134 
Q 2881 22 2623 -34 
Q 2366 -91 2075 -91 
Q 1284 -91 818 406 
Q 353 903 353 1747 
Q 353 2603 823 3093 
Q 1294 3584 2113 3584 
Q 2378 3584 2631 3529 
Q 2884 3475 3122 3366 
z
" transform="scale(0.015625)"/>
      </defs>
      <use xlink:href="#DejaVuSans-4e"/>
      <use xlink:href="#DejaVuSans-69" x="74.804688"/>
      <use xlink:href="#DejaVuSans-63" x="102.587891"/>
      <use xlink:href="#DejaVuSans-63" x="157.568359"/>
      <use xlink:href="#DejaVuSans-6f" x="212.548828"/>
     </g>
    </g>
    <g clip-path="url(#pbf0e911744)">
     <!-- Shintaro -->
     <g transform="translate(337.314323 284.909716)scale(0.12 -0.12)">
      <defs>
       <path id="DejaVuSans-53" d="M 3425 4513 
L 3425 3897 
Q 3066 4069 2747 4153 
Q 2428 4238 2131 4238 
Q 1616 4238 1336 4038 
Q 1056 3838 1056 3469 
Q 1056 3159 1242 3001 
Q 1428 2844 1947 2747 
L 2328 2669 
Q 3034 2534 3370 2195 
Q 3706 1856 3706 1288 
Q 3706 609 3251 259 
Q 2797 -91 1919 -91 
Q 1588 -91 1214 -16 
Q 841 59 441 206 
L 441 856 
Q 825 641 1194 531 
Q 1563 422 1919 422 
Q 2459 422 2753 634 
Q 3047 847 3047 1241 
Q 3047 1584 2836 1778 
Q 2625 1972 2144 2069 
L 1759 2144 
Q 1053 2284 737 2584 
Q 422 2884 422 3419 
Q 422 4038 858 4394 
Q 1294 4750 2059 4750 
Q 2388 4750 2728 4690 
Q 3069 4631 3425 4513 
z
" transform="scale(0.015625)"/>
       <path id="DejaVuSans-68" d="M 3513 2113 
L 3513 0 
L 2938 0 
L 2938 2094 
Q 2938 2591 2744 2837 
Q 2550 3084 2163 3084 
Q 1697 3084 1428 2787 
Q 1159 2491 1159 1978 
L 1159 0 
L 581 0 
L 581 4863 
L 1159 4863 
L 1159 2956 
Q 1366 3272 1645 3428 
Q 1925 3584 2291 3584 
Q 2894 3584 3203 3211 
Q 3513 2838 3513 2113 
z
" transform="scale(0.015625)"/>
       <path id="DejaVuSans-6e" d="M 3513 2113 
L 3513 0 
L 2938 0 
L 2938 2094 
Q 2938 2591 2744 2837 
Q 2550 3084 2163 3084 
Q 1697 3084 1428 2787 
Q 1159 2491 1159 1978 
L 1159 0 
L 581 0 
L 581 3500 
L 1159 3500 
L 1159 2956 
Q 1366 3272 1645 3428 
Q 1925 3584 2291 3584 
Q 2894 3584 3203 3211 
Q 3513 2838 3513 2113 
z
" transform="scale(0.015625)"/>
       <path id="DejaVuSans-74" d="M 1172 4494 
L 1172 3500 
L 2356 3500 
L 2356 3053 
L 1172 3053 
L 1172 1153 
Q 1172 725 1289 603 
Q 1406 481 1766 481 
L 2356 481 
L 2356 0 
L 1766 0 
Q 1100 0 847 248 
Q 594 497 594 1153 
L 594 3053 
L 172 3053 
L 172 3500 
L 594 3500 
L 594 4494 
L 1172 4494 
z
" transform="scale(0.015625)"/>
       <path id="DejaVuSans-72" d="M 2631 2963 
Q 2534 3019 2420 3045 
Q 2306 3072 2169 3072 
Q 1681 3072 1420 2755 
Q 1159 2438 1159 1844 
L 1159 0 
L 581 0 
L 581 3500 
L 1159 3500 
L 1159 2956 
Q 1341 3275 1631 3429 
Q 1922 3584 2338 3584 
Q 2397 3584 2469 3576 
Q 2541 3569 2628 3553 
L 2631 2963 
z
" transform="scale(0.015625)"/>
      </defs>
      <use xlink:href="#DejaVuSans-53"/>
      <use xlink:href="#DejaVuSans-68" x="63.476562"/>
      <use xlink:href="#DejaVuSans-69" x="126.855469"/>
      <use xlink:href="#DejaVuSans-6e" x="154.638672"/>
      <use xlink:href="#DejaVuSans-74" x="218.017578"/>
      <use xlink:href="#DejaVuSans-61" x="257.226562"/>
      <use xlink:href="#DejaVuSans-72" x="318.505859"/>
      <use xlink:href="#DejaVuSans-6f" x="357.369141"/>
     </g>
    </g>
   </g>
   <g id="text_24">
    <g clip-path="url(#pbf0e911744)">
     <!-- Pablo -->
     <g transform="translate(106.914289 288.276747)scale(0.12 -0.12)">
      <use xlink:href="#DejaVuSans-50"/>
      <use xlink:href="#DejaVuSans-61" x="55.802734"/>
      <use xlink:href="#DejaVuSans-62" x="117.082031"/>
      <use xlink:href="#DejaVuSans-6c" x="180.558594"/>
      <use xlink:href="#DejaVuSans-6f" x="208.341797"/>
     </g>
    </g>
    <g clip-path="url(#pbf0e911744)">
     <!-- Xiaoyu -->
     <g transform="translate(102.607414 301.714122)scale(0.12 -0.12)">
      <defs>
       <path id="DejaVuSans-58" d="M 403 4666 
L 1081 4666 
L 2241 2931 
L 3406 4666 
L 4084 4666 
L 2584 2425 
L 4184 0 
L 3506 0 
L 2194 1984 
L 872 0 
L 191 0 
L 1856 2491 
L 403 4666 
z
" transform="scale(0.015625)"/>
       <path id="DejaVuSans-79" d="M 2059 -325 
Q 1816 -950 1584 -1140 
Q 1353 -1331 966 -1331 
L 506 -1331 
L 506 -850 
L 844 -850 
Q 1081 -850 1212 -737 
Q 1344 -625 1503 -206 
L 1606 56 
L 191 3500 
L 800 3500 
L 1894 763 
L 2988 3500 
L 3597 3500 
L 2059 -325 
z
" transform="scale(0.015625)"/>
       <path id="DejaVuSans-75" d="M 544 1381 
L 544 3500 
L 1119 3500 
L 1119 1403 
Q 1119 906 1312 657 
Q 1506 409 1894 409 
Q 2359 409 2629 706 
Q 2900 1003 2900 1516 
L 2900 3500 
L 3475 3500 
L 3475 0 
L 2900 0 
L 2900 538 
Q 2691 219 2414 64 
Q 2138 -91 1772 -91 
Q 1169 -91 856 284 
Q 544 659 544 1381 
z
M 1991 3584 
L 1991 3584 
z
" transform="scale(0.015625)"/>
      </defs>
      <use xlink:href="#DejaVuSans-58"/>
      <use xlink:href="#DejaVuSans-69" x="68.505859"/>
      <use xlink:href="#DejaVuSans-61" x="96.289062"/>
      <use xlink:href="#DejaVuSans-6f" x="157.568359"/>
      <use xlink:href="#DejaVuSans-79" x="218.75"/>
      <use xlink:href="#DejaVuSans-75" x="277.929688"/>
     </g>
    </g>
   </g>
   <g id="text_25">
    <g clip-path="url(#pbf0e911744)">
     <!-- Nicco -->
     <g transform="translate(196.073197 26.582645)scale(0.12 -0.12)">
      <use xlink:href="#DejaVuSans-4e"/>
      <use xlink:href="#DejaVuSans-69" x="74.804688"/>
      <use xlink:href="#DejaVuSans-63" x="102.587891"/>
      <use xlink:href="#DejaVuSans-63" x="157.568359"/>
      <use xlink:href="#DejaVuSans-6f" x="212.548828"/>
     </g>
    </g>
    <g clip-path="url(#pbf0e911744)">
     <!-- Leo -->
     <g transform="translate(201.896947 40.02002)scale(0.12 -0.12)">
      <defs>
       <path id="DejaVuSans-4c" d="M 628 4666 
L 1259 4666 
L 1259 531 
L 3531 531 
L 3531 0 
L 628 0 
L 628 4666 
z
" transform="scale(0.015625)"/>
       <path id="DejaVuSans-65" d="M 3597 1894 
L 3597 1613 
L 953 1613 
Q 991 1019 1311 708 
Q 1631 397 2203 397 
Q 2534 397 2845 478 
Q 3156 559 3463 722 
L 3463 178 
Q 3153 47 2828 -22 
Q 2503 -91 2169 -91 
Q 1331 -91 842 396 
Q 353 884 353 1716 
Q 353 2575 817 3079 
Q 1281 3584 2069 3584 
Q 2775 3584 3186 3129 
Q 3597 2675 3597 1894 
z
M 3022 2063 
Q 3016 2534 2758 2815 
Q 2500 3097 2075 3097 
Q 1594 3097 1305 2825 
Q 1016 2553 972 2059 
L 3022 2063 
z
" transform="scale(0.015625)"/>
      </defs>
      <use xlink:href="#DejaVuSans-4c"/>
      <use xlink:href="#DejaVuSans-65" x="53.962891"/>
      <use xlink:href="#DejaVuSans-6f" x="115.486328"/>
     </g>
    </g>
   </g>
   <g id="text_26">
    <g clip-path="url(#pbf0e911744)">
     <!-- Leo -->
     <g transform="translate(385.142572 241.566431)scale(0.12 -0.12)">
      <use xlink:href="#DejaVuSans-4c"/>
      <use xlink:href="#DejaVuSans-65" x="53.962891"/>
      <use xlink:href="#DejaVuSans-6f" x="115.486328"/>
     </g>
    </g>
    <g clip-path="url(#pbf0e911744)">
     <!-- Shintaro -->
     <g transform="translate(370.63101 255.003806)scale(0.12 -0.12)">
      <use xlink:href="#DejaVuSans-53"/>
      <use xlink:href="#DejaVuSans-68" x="63.476562"/>
      <use xlink:href="#DejaVuSans-69" x="126.855469"/>
      <use xlink:href="#DejaVuSans-6e" x="154.638672"/>
      <use xlink:href="#DejaVuSans-74" x="218.017578"/>
      <use xlink:href="#DejaVuSans-61" x="257.226562"/>
      <use xlink:href="#DejaVuSans-72" x="318.505859"/>
      <use xlink:href="#DejaVuSans-6f" x="357.369141"/>
     </g>
    </g>
   </g>
   <g id="text_27">
    <g clip-path="url(#pbf0e911744)">
     <!-- Pablo -->
     <g transform="translate(36.967397 115.202749)scale(0.12 -0.12)">
      <use xlink:href="#DejaVuSans-50"/>
      <use xlink:href="#DejaVuSans-61" x="55.802734"/>
      <use xlink:href="#DejaVuSans-62" x="117.082031"/>
      <use xlink:href="#DejaVuSans-6c" x="180.558594"/>
      <use xlink:href="#DejaVuSans-6f" x="208.341797"/>
     </g>
    </g>
    <g clip-path="url(#pbf0e911744)">
     <!-- Leo -->
     <g transform="translate(42.538022 128.640124)scale(0.12 -0.12)">
      <use xlink:href="#DejaVuSans-4c"/>
      <use xlink:href="#DejaVuSans-65" x="53.962891"/>
      <use xlink:href="#DejaVuSans-6f" x="115.486328"/>
     </g>
    </g>
   </g>
   <g id="text_28">
    <g clip-path="url(#pbf0e911744)">
     <!-- Shintaro -->
     <g transform="translate(288.865103 40.683841)scale(0.12 -0.12)">
      <use xlink:href="#DejaVuSans-53"/>
      <use xlink:href="#DejaVuSans-68" x="63.476562"/>
      <use xlink:href="#DejaVuSans-69" x="126.855469"/>
      <use xlink:href="#DejaVuSans-6e" x="154.638672"/>
      <use xlink:href="#DejaVuSans-74" x="218.017578"/>
      <use xlink:href="#DejaVuSans-61" x="257.226562"/>
      <use xlink:href="#DejaVuSans-72" x="318.505859"/>
      <use xlink:href="#DejaVuSans-6f" x="357.369141"/>
     </g>
    </g>
    <g clip-path="url(#pbf0e911744)">
     <!-- Xiaoyu -->
     <g transform="translate(293.499165 54.121216)scale(0.12 -0.12)">
      <use xlink:href="#DejaVuSans-58"/>
      <use xlink:href="#DejaVuSans-69" x="68.505859"/>
      <use xlink:href="#DejaVuSans-61" x="96.289062"/>
      <use xlink:href="#DejaVuSans-6f" x="157.568359"/>
      <use xlink:href="#DejaVuSans-79" x="218.75"/>
      <use xlink:href="#DejaVuSans-75" x="277.929688"/>
     </g>
    </g>
   </g>
   <g id="text_29">
    <g clip-path="url(#pbf0e911744)">
     <!-- Leo -->
     <g transform="translate(345.851994 63.136144)scale(0.12 -0.12)">
      <use xlink:href="#DejaVuSans-4c"/>
      <use xlink:href="#DejaVuSans-65" x="53.962891"/>
      <use xlink:href="#DejaVuSans-6f" x="115.486328"/>
     </g>
    </g>
    <g clip-path="url(#pbf0e911744)">
     <!-- Xiaoyu -->
     <g transform="translate(335.974494 76.573519)scale(0.12 -0.12)">
      <use xlink:href="#DejaVuSans-58"/>
      <use xlink:href="#DejaVuSans-69" x="68.505859"/>
      <use xlink:href="#DejaVuSans-61" x="96.289062"/>
      <use xlink:href="#DejaVuSans-6f" x="157.568359"/>
      <use xlink:href="#DejaVuSans-79" x="218.75"/>
      <use xlink:href="#DejaVuSans-75" x="277.929688"/>
     </g>
    </g>
   </g>
   <g id="text_30">
    <g clip-path="url(#pbf0e911744)">
     <!-- Pablo -->
     <g transform="translate(398.11679 205.083582)scale(0.12 -0.12)">
      <use xlink:href="#DejaVuSans-50"/>
      <use xlink:href="#DejaVuSans-61" x="55.802734"/>
      <use xlink:href="#DejaVuSans-62" x="117.082031"/>
      <use xlink:href="#DejaVuSans-6c" x="180.558594"/>
      <use xlink:href="#DejaVuSans-6f" x="208.341797"/>
     </g>
    </g>
    <g clip-path="url(#pbf0e911744)">
     <!-- Shintaro -->
     <g transform="translate(389.175853 218.520957)scale(0.12 -0.12)">
      <use xlink:href="#DejaVuSans-53"/>
      <use xlink:href="#DejaVuSans-68" x="63.476562"/>
      <use xlink:href="#DejaVuSans-69" x="126.855469"/>
      <use xlink:href="#DejaVuSans-6e" x="154.638672"/>
      <use xlink:href="#DejaVuSans-74" x="218.017578"/>
      <use xlink:href="#DejaVuSans-61" x="257.226562"/>
      <use xlink:href="#DejaVuSans-72" x="318.505859"/>
      <use xlink:href="#DejaVuSans-6f" x="357.369141"/>
     </g>
    </g>
   </g>
   <g id="text_31">
    <g clip-path="url(#pbf0e911744)">
     <!-- Ugo -->
     <g transform="translate(30.427378 191.86152)scale(0.12 -0.12)">
      <use xlink:href="#DejaVuSans-55"/>
      <use xlink:href="#DejaVuSans-67" x="73.193359"/>
      <use xlink:href="#DejaVuSans-6f" x="136.669922"/>
     </g>
    </g>
    <g clip-path="url(#pbf0e911744)">
     <!-- Nicco -->
     <g transform="translate(25.87394 205.298895)scale(0.12 -0.12)">
      <use xlink:href="#DejaVuSans-4e"/>
      <use xlink:href="#DejaVuSans-69" x="74.804688"/>
      <use xlink:href="#DejaVuSans-63" x="102.587891"/>
      <use xlink:href="#DejaVuSans-63" x="157.568359"/>
      <use xlink:href="#DejaVuSans-6f" x="212.548828"/>
     </g>
    </g>
   </g>
   <g id="text_32">
    <g clip-path="url(#pbf0e911744)">
     <!-- Mathieu p -->
     <g transform="translate(234.497139 28.999566)scale(0.12 -0.12)">
      <defs>
       <path id="DejaVuSans-4d" d="M 628 4666 
L 1569 4666 
L 2759 1491 
L 3956 4666 
L 4897 4666 
L 4897 0 
L 4281 0 
L 4281 4097 
L 3078 897 
L 2444 897 
L 1241 4097 
L 1241 0 
L 628 0 
L 628 4666 
z
" transform="scale(0.015625)"/>
       <path id="DejaVuSans-20" transform="scale(0.015625)"/>
       <path id="DejaVuSans-70" d="M 1159 525 
L 1159 -1331 
L 581 -1331 
L 581 3500 
L 1159 3500 
L 1159 2969 
Q 1341 3281 1617 3432 
Q 1894 3584 2278 3584 
Q 2916 3584 3314 3078 
Q 3713 2572 3713 1747 
Q 3713 922 3314 415 
Q 2916 -91 2278 -91 
Q 1894 -91 1617 61 
Q 1341 213 1159 525 
z
M 3116 1747 
Q 3116 2381 2855 2742 
Q 2594 3103 2138 3103 
Q 1681 3103 1420 2742 
Q 1159 2381 1159 1747 
Q 1159 1113 1420 752 
Q 1681 391 2138 391 
Q 2594 391 2855 752 
Q 3116 1113 3116 1747 
z
" transform="scale(0.015625)"/>
      </defs>
      <use xlink:href="#DejaVuSans-4d"/>
      <use xlink:href="#DejaVuSans-61" x="86.279297"/>
      <use xlink:href="#DejaVuSans-74" x="147.558594"/>
      <use xlink:href="#DejaVuSans-68" x="186.767578"/>
      <use xlink:href="#DejaVuSans-69" x="250.146484"/>
      <use xlink:href="#DejaVuSans-65" x="277.929688"/>
      <use xlink:href="#DejaVuSans-75" x="339.453125"/>
      <use xlink:href="#DejaVuSans-20" x="402.832031"/>
      <use xlink:href="#DejaVuSans-70" x="434.619141"/>
     </g>
    </g>
    <g clip-path="url(#pbf0e911744)">
     <!-- Shintaro -->
     <g transform="translate(239.269952 42.436941)scale(0.12 -0.12)">
      <use xlink:href="#DejaVuSans-53"/>
      <use xlink:href="#DejaVuSans-68" x="63.476562"/>
      <use xlink:href="#DejaVuSans-69" x="126.855469"/>
      <use xlink:href="#DejaVuSans-6e" x="154.638672"/>
      <use xlink:href="#DejaVuSans-74" x="218.017578"/>
      <use xlink:href="#DejaVuSans-61" x="257.226562"/>
      <use xlink:href="#DejaVuSans-72" x="318.505859"/>
      <use xlink:href="#DejaVuSans-6f" x="357.369141"/>
     </g>
    </g>
   </g>
   <g id="text_33">
    <g clip-path="url(#pbf0e911744)">
     <!-- Pablo -->
     <g transform="translate(100.126371 54.112539)scale(0.12 -0.12)">
      <use xlink:href="#DejaVuSans-50"/>
      <use xlink:href="#DejaVuSans-61" x="55.802734"/>
      <use xlink:href="#DejaVuSans-62" x="117.082031"/>
      <use xlink:href="#DejaVuSans-6c" x="180.558594"/>
      <use xlink:href="#DejaVuSans-6f" x="208.341797"/>
     </g>
    </g>
    <g clip-path="url(#pbf0e911744)">
     <!-- Nicco -->
     <g transform="translate(99.873246 67.549914)scale(0.12 -0.12)">
      <use xlink:href="#DejaVuSans-4e"/>
      <use xlink:href="#DejaVuSans-69" x="74.804688"/>
      <use xlink:href="#DejaVuSans-63" x="102.587891"/>
      <use xlink:href="#DejaVuSans-63" x="157.568359"/>
      <use xlink:href="#DejaVuSans-6f" x="212.548828"/>
     </g>
    </g>
   </g>
   <g id="text_34">
    <g clip-path="url(#pbf0e911744)">
     <!-- Mathieu p -->
     <g transform="translate(53.708673 262.686353)scale(0.12 -0.12)">
      <use xlink:href="#DejaVuSans-4d"/>
      <use xlink:href="#DejaVuSans-61" x="86.279297"/>
      <use xlink:href="#DejaVuSans-74" x="147.558594"/>
      <use xlink:href="#DejaVuSans-68" x="186.767578"/>
      <use xlink:href="#DejaVuSans-69" x="250.146484"/>
      <use xlink:href="#DejaVuSans-65" x="277.929688"/>
      <use xlink:href="#DejaVuSans-75" x="339.453125"/>
      <use xlink:href="#DejaVuSans-20" x="402.832031"/>
      <use xlink:href="#DejaVuSans-70" x="434.619141"/>
     </g>
    </g>
    <g clip-path="url(#pbf0e911744)">
     <!-- Leo -->
     <g transform="translate(72.993048 276.123728)scale(0.12 -0.12)">
      <use xlink:href="#DejaVuSans-4c"/>
      <use xlink:href="#DejaVuSans-65" x="53.962891"/>
      <use xlink:href="#DejaVuSans-6f" x="115.486328"/>
     </g>
    </g>
   </g>
   <g id="text_35">
    <g clip-path="url(#pbf0e911744)">
     <!-- Pablo -->
     <g transform="translate(374.848609 92.248136)scale(0.12 -0.12)">
      <use xlink:href="#DejaVuSans-50"/>
      <use xlink:href="#DejaVuSans-61" x="55.802734"/>
      <use xlink:href="#DejaVuSans-62" x="117.082031"/>
      <use xlink:href="#DejaVuSans-6c" x="180.558594"/>
      <use xlink:href="#DejaVuSans-6f" x="208.341797"/>
     </g>
    </g>
    <g clip-path="url(#pbf0e911744)">
     <!-- Mathieu p -->
     <g transform="translate(361.134859 105.685511)scale(0.12 -0.12)">
      <use xlink:href="#DejaVuSans-4d"/>
      <use xlink:href="#DejaVuSans-61" x="86.279297"/>
      <use xlink:href="#DejaVuSans-74" x="147.558594"/>
      <use xlink:href="#DejaVuSans-68" x="186.767578"/>
      <use xlink:href="#DejaVuSans-69" x="250.146484"/>
      <use xlink:href="#DejaVuSans-65" x="277.929688"/>
      <use xlink:href="#DejaVuSans-75" x="339.453125"/>
      <use xlink:href="#DejaVuSans-20" x="402.832031"/>
      <use xlink:href="#DejaVuSans-70" x="434.619141"/>
     </g>
    </g>
   </g>
   <g id="text_36">
    <g clip-path="url(#pbf0e911744)">
     <!-- Ugo -->
     <g transform="translate(150.809268 36.987968)scale(0.12 -0.12)">
      <use xlink:href="#DejaVuSans-55"/>
      <use xlink:href="#DejaVuSans-67" x="73.193359"/>
      <use xlink:href="#DejaVuSans-6f" x="136.669922"/>
     </g>
    </g>
    <g clip-path="url(#pbf0e911744)">
     <!-- Xiaoyu -->
     <g transform="translate(142.20208 50.425343)scale(0.12 -0.12)">
      <use xlink:href="#DejaVuSans-58"/>
      <use xlink:href="#DejaVuSans-69" x="68.505859"/>
      <use xlink:href="#DejaVuSans-61" x="96.289062"/>
      <use xlink:href="#DejaVuSans-6f" x="157.568359"/>
      <use xlink:href="#DejaVuSans-79" x="218.75"/>
      <use xlink:href="#DejaVuSans-75" x="277.929688"/>
     </g>
    </g>
   </g>
   <g id="text_37">
    <g clip-path="url(#pbf0e911744)">
     <!-- Mathieu p -->
     <g transform="translate(26.227123 229.395528)scale(0.12 -0.12)">
      <use xlink:href="#DejaVuSans-4d"/>
      <use xlink:href="#DejaVuSans-61" x="86.279297"/>
      <use xlink:href="#DejaVuSans-74" x="147.558594"/>
      <use xlink:href="#DejaVuSans-68" x="186.767578"/>
      <use xlink:href="#DejaVuSans-69" x="250.146484"/>
      <use xlink:href="#DejaVuSans-65" x="277.929688"/>
      <use xlink:href="#DejaVuSans-75" x="339.453125"/>
      <use xlink:href="#DejaVuSans-20" x="402.832031"/>
      <use xlink:href="#DejaVuSans-70" x="434.619141"/>
     </g>
    </g>
    <g clip-path="url(#pbf0e911744)">
     <!-- Xiaoyu -->
     <g transform="translate(35.633998 242.832903)scale(0.12 -0.12)">
      <use xlink:href="#DejaVuSans-58"/>
      <use xlink:href="#DejaVuSans-69" x="68.505859"/>
      <use xlink:href="#DejaVuSans-61" x="96.289062"/>
      <use xlink:href="#DejaVuSans-6f" x="157.568359"/>
      <use xlink:href="#DejaVuSans-79" x="218.75"/>
      <use xlink:href="#DejaVuSans-75" x="277.929688"/>
     </g>
    </g>
   </g>
   <g id="text_38">
    <g clip-path="url(#pbf0e911744)">
     <!-- Mathieu p -->
     <g transform="translate(390.927598 166.400065)scale(0.12 -0.12)">
      <use xlink:href="#DejaVuSans-4d"/>
      <use xlink:href="#DejaVuSans-61" x="86.279297"/>
      <use xlink:href="#DejaVuSans-74" x="147.558594"/>
      <use xlink:href="#DejaVuSans-68" x="186.767578"/>
      <use xlink:href="#DejaVuSans-69" x="250.146484"/>
      <use xlink:href="#DejaVuSans-65" x="277.929688"/>
      <use xlink:href="#DejaVuSans-75" x="339.453125"/>
      <use xlink:href="#DejaVuSans-20" x="402.832031"/>
      <use xlink:href="#DejaVuSans-70" x="434.619141"/>
     </g>
    </g>
    <g clip-path="url(#pbf0e911744)">
     <!-- Samantha -->
     <g transform="translate(390.171973 179.83744)scale(0.12 -0.12)">
      <defs>
       <path id="DejaVuSans-6d" d="M 3328 2828 
Q 3544 3216 3844 3400 
Q 4144 3584 4550 3584 
Q 5097 3584 5394 3201 
Q 5691 2819 5691 2113 
L 5691 0 
L 5113 0 
L 5113 2094 
Q 5113 2597 4934 2840 
Q 4756 3084 4391 3084 
Q 3944 3084 3684 2787 
Q 3425 2491 3425 1978 
L 3425 0 
L 2847 0 
L 2847 2094 
Q 2847 2600 2669 2842 
Q 2491 3084 2119 3084 
Q 1678 3084 1418 2786 
Q 1159 2488 1159 1978 
L 1159 0 
L 581 0 
L 581 3500 
L 1159 3500 
L 1159 2956 
Q 1356 3278 1631 3431 
Q 1906 3584 2284 3584 
Q 2666 3584 2933 3390 
Q 3200 3197 3328 2828 
z
" transform="scale(0.015625)"/>
      </defs>
      <use xlink:href="#DejaVuSans-53"/>
      <use xlink:href="#DejaVuSans-61" x="63.476562"/>
      <use xlink:href="#DejaVuSans-6d" x="124.755859"/>
      <use xlink:href="#DejaVuSans-61" x="222.167969"/>
      <use xlink:href="#DejaVuSans-6e" x="283.447266"/>
      <use xlink:href="#DejaVuSans-74" x="346.826172"/>
      <use xlink:href="#DejaVuSans-68" x="386.035156"/>
      <use xlink:href="#DejaVuSans-61" x="449.414062"/>
     </g>
    </g>
   </g>
   <g id="text_39">
    <g clip-path="url(#pbf0e911744)">
     <!-- Ugo -->
     <g transform="translate(66.99738 81.261888)scale(0.12 -0.12)">
      <use xlink:href="#DejaVuSans-55"/>
      <use xlink:href="#DejaVuSans-67" x="73.193359"/>
      <use xlink:href="#DejaVuSans-6f" x="136.669922"/>
     </g>
    </g>
    <g clip-path="url(#pbf0e911744)">
     <!-- Mathieu p -->
     <g transform="translate(48.983318 94.699263)scale(0.12 -0.12)">
      <use xlink:href="#DejaVuSans-4d"/>
      <use xlink:href="#DejaVuSans-61" x="86.279297"/>
      <use xlink:href="#DejaVuSans-74" x="147.558594"/>
      <use xlink:href="#DejaVuSans-68" x="186.767578"/>
      <use xlink:href="#DejaVuSans-69" x="250.146484"/>
      <use xlink:href="#DejaVuSans-65" x="277.929688"/>
      <use xlink:href="#DejaVuSans-75" x="339.453125"/>
      <use xlink:href="#DejaVuSans-20" x="402.832031"/>
      <use xlink:href="#DejaVuSans-70" x="434.619141"/>
     </g>
    </g>
   </g>
   <g id="text_40">
    <g clip-path="url(#pbf0e911744)">
     <!-- Ugo -->
     <g transform="translate(28.115214 152.971388)scale(0.12 -0.12)">
      <use xlink:href="#DejaVuSans-55"/>
      <use xlink:href="#DejaVuSans-67" x="73.193359"/>
      <use xlink:href="#DejaVuSans-6f" x="136.669922"/>
     </g>
    </g>
    <g clip-path="url(#pbf0e911744)">
     <!-- Leo -->
     <g transform="translate(29.385527 166.408763)scale(0.12 -0.12)">
      <use xlink:href="#DejaVuSans-4c"/>
      <use xlink:href="#DejaVuSans-65" x="53.962891"/>
      <use xlink:href="#DejaVuSans-6f" x="115.486328"/>
     </g>
    </g>
   </g>
   <g id="text_41">
    <g clip-path="url(#pbf0e911744)">
     <!-- Nicco -->
     <g transform="translate(153.221605 305.874844)scale(0.12 -0.12)">
      <use xlink:href="#DejaVuSans-4e"/>
      <use xlink:href="#DejaVuSans-69" x="74.804688"/>
      <use xlink:href="#DejaVuSans-63" x="102.587891"/>
      <use xlink:href="#DejaVuSans-63" x="157.568359"/>
      <use xlink:href="#DejaVuSans-6f" x="212.548828"/>
     </g>
    </g>
    <g clip-path="url(#pbf0e911744)">
     <!-- Mathieu r -->
     <g transform="translate(141.10348 319.312219)scale(0.12 -0.12)">
      <use xlink:href="#DejaVuSans-4d"/>
      <use xlink:href="#DejaVuSans-61" x="86.279297"/>
      <use xlink:href="#DejaVuSans-74" x="147.558594"/>
      <use xlink:href="#DejaVuSans-68" x="186.767578"/>
      <use xlink:href="#DejaVuSans-69" x="250.146484"/>
      <use xlink:href="#DejaVuSans-65" x="277.929688"/>
      <use xlink:href="#DejaVuSans-75" x="339.453125"/>
      <use xlink:href="#DejaVuSans-20" x="402.832031"/>
      <use xlink:href="#DejaVuSans-72" x="434.619141"/>
     </g>
    </g>
   </g>
   <g id="text_42">
    <g clip-path="url(#pbf0e911744)">
     <!-- Ugo -->
     <g transform="translate(260.965975 309.162361)scale(0.12 -0.12)">
      <use xlink:href="#DejaVuSans-55"/>
      <use xlink:href="#DejaVuSans-67" x="73.193359"/>
      <use xlink:href="#DejaVuSans-6f" x="136.669922"/>
     </g>
    </g>
    <g clip-path="url(#pbf0e911744)">
     <!-- Mathieu r -->
     <g transform="translate(244.294412 322.599736)scale(0.12 -0.12)">
      <use xlink:href="#DejaVuSans-4d"/>
      <use xlink:href="#DejaVuSans-61" x="86.279297"/>
      <use xlink:href="#DejaVuSans-74" x="147.558594"/>
      <use xlink:href="#DejaVuSans-68" x="186.767578"/>
      <use xlink:href="#DejaVuSans-69" x="250.146484"/>
      <use xlink:href="#DejaVuSans-65" x="277.929688"/>
      <use xlink:href="#DejaVuSans-75" x="339.453125"/>
      <use xlink:href="#DejaVuSans-20" x="402.832031"/>
      <use xlink:href="#DejaVuSans-72" x="434.619141"/>
     </g>
    </g>
   </g>
   <g id="text_43">
    <g clip-path="url(#pbf0e911744)">
     <!-- Leo -->
     <g transform="translate(401.582662 127.923975)scale(0.12 -0.12)">
      <use xlink:href="#DejaVuSans-4c"/>
      <use xlink:href="#DejaVuSans-65" x="53.962891"/>
      <use xlink:href="#DejaVuSans-6f" x="115.486328"/>
     </g>
    </g>
    <g clip-path="url(#pbf0e911744)">
     <!-- Mathieu r -->
     <g transform="translate(383.640787 141.36135)scale(0.12 -0.12)">
      <use xlink:href="#DejaVuSans-4d"/>
      <use xlink:href="#DejaVuSans-61" x="86.279297"/>
      <use xlink:href="#DejaVuSans-74" x="147.558594"/>
      <use xlink:href="#DejaVuSans-68" x="186.767578"/>
      <use xlink:href="#DejaVuSans-69" x="250.146484"/>
      <use xlink:href="#DejaVuSans-65" x="277.929688"/>
      <use xlink:href="#DejaVuSans-75" x="339.453125"/>
      <use xlink:href="#DejaVuSans-20" x="402.832031"/>
      <use xlink:href="#DejaVuSans-72" x="434.619141"/>
     </g>
    </g>
   </g>
   <g id="text_44">
    <g clip-path="url(#pbf0e911744)">
     <!-- Mathieu p -->
     <g transform="translate(292.121614 295.998811)scale(0.12 -0.12)">
      <use xlink:href="#DejaVuSans-4d"/>
      <use xlink:href="#DejaVuSans-61" x="86.279297"/>
      <use xlink:href="#DejaVuSans-74" x="147.558594"/>
      <use xlink:href="#DejaVuSans-68" x="186.767578"/>
      <use xlink:href="#DejaVuSans-69" x="250.146484"/>
      <use xlink:href="#DejaVuSans-65" x="277.929688"/>
      <use xlink:href="#DejaVuSans-75" x="339.453125"/>
      <use xlink:href="#DejaVuSans-20" x="402.832031"/>
      <use xlink:href="#DejaVuSans-70" x="434.619141"/>
     </g>
    </g>
    <g clip-path="url(#pbf0e911744)">
     <!-- Nicco -->
     <g transform="translate(305.582239 309.436186)scale(0.12 -0.12)">
      <use xlink:href="#DejaVuSans-4e"/>
      <use xlink:href="#DejaVuSans-69" x="74.804688"/>
      <use xlink:href="#DejaVuSans-63" x="102.587891"/>
      <use xlink:href="#DejaVuSans-63" x="157.568359"/>
      <use xlink:href="#DejaVuSans-6f" x="212.548828"/>
     </g>
    </g>
   </g>
  </g>
 </g>
 <defs>
  <clipPath id="pbf0e911744">
   <rect x="0" y="0" width="460.8" height="345.6"/>
  </clipPath>
 </defs>
</svg>
