<?xml version="1.0" encoding="utf-8" standalone="no"?>
<!DOCTYPE svg PUBLIC "-//W3C//DTD SVG 1.1//EN"
  "http://www.w3.org/Graphics/SVG/1.1/DTD/svg11.dtd">
<svg xmlns:xlink="http://www.w3.org/1999/xlink" width="460.8pt" height="345.6pt" viewBox="0 0 460.8 345.6" xmlns="http://www.w3.org/2000/svg" version="1.1">
 <metadata>
  <rdf:RDF xmlns:dc="http://purl.org/dc/elements/1.1/" xmlns:cc="http://creativecommons.org/ns#" xmlns:rdf="http://www.w3.org/1999/02/22-rdf-syntax-ns#">
   <cc:Work>
    <dc:type rdf:resource="http://purl.org/dc/dcmitype/StillImage"/>
    <dc:date>2025-06-10T12:38:48.264632</dc:date>
    <dc:format>image/svg+xml</dc:format>
    <dc:creator>
     <cc:Agent>
      <dc:title>Matplotlib v3.5.1, https://matplotlib.org/</dc:title>
     </cc:Agent>
    </dc:creator>
   </cc:Work>
  </rdf:RDF>
 </metadata>
 <defs>
  <style type="text/css">*{stroke-linejoin: round; stroke-linecap: butt}</style>
 </defs>
 <g id="figure_1">
  <g id="patch_1">
   <path d="M 0 345.6 
L 460.8 345.6 
L 460.8 0 
L 0 0 
z
" style="fill: #ffffff"/>
  </g>
  <g id="axes_1">
   <g id="patch_2">
    <path d="M 99.618633 53.556722 
Q 104.870206 41.773402 109.666651 31.011287 
" clip-path="url(#peb82dec61b)" style="fill: none; stroke: #000000; stroke-linecap: round"/>
    <path d="M 106.211547 33.850698 
L 109.666651 31.011287 
L 109.865118 35.479017 
L 106.211547 33.850698 
z
" clip-path="url(#peb82dec61b)" style="stroke: #000000; stroke-linecap: round"/>
   </g>
   <g id="patch_3">
    <path d="M 109.213801 72.185761 
Q 98.897759 75.253388 89.653373 78.002343 
" clip-path="url(#peb82dec61b)" style="fill: none; stroke: #000000; stroke-linecap: round"/>
    <path d="M 94.057507 78.779261 
L 89.653373 78.002343 
L 92.917389 74.945186 
L 94.057507 78.779261 
z
" clip-path="url(#peb82dec61b)" style="stroke: #000000; stroke-linecap: round"/>
   </g>
   <g id="patch_4">
    <path d="M 65.070237 91.817017 
Q 64.284848 92.267844 64.469101 92.16208 
" clip-path="url(#peb82dec61b)" style="fill: none; stroke: #000000; stroke-linecap: round"/>
    <path d="M 68.933859 91.905306 
L 64.469101 92.16208 
L 66.942536 88.436209 
L 68.933859 91.905306 
z
" clip-path="url(#peb82dec61b)" style="stroke: #000000; stroke-linecap: round"/>
   </g>
   <g id="patch_5">
    <path d="M 405.85957 300.390363 
Q 400.827428 308.00014 396.411974 314.677342 
" clip-path="url(#peb82dec61b)" style="fill: none; stroke: #000000; stroke-linecap: round"/>
    <path d="M 400.286542 312.444022 
L 396.411974 314.677342 
L 396.950059 310.237695 
L 400.286542 312.444022 
z
" clip-path="url(#peb82dec61b)" style="stroke: #000000; stroke-linecap: round"/>
   </g>
   <g id="patch_6">
    <path d="M 119.24941 42.534808 
Q 114.685595 36.262445 110.779573 30.894133 
" clip-path="url(#peb82dec61b)" style="fill: none; stroke: #000000; stroke-linecap: round"/>
    <path d="M 111.515752 35.30526 
L 110.779573 30.894133 
L 114.750182 32.951866 
L 111.515752 35.30526 
z
" clip-path="url(#peb82dec61b)" style="stroke: #000000; stroke-linecap: round"/>
   </g>
   <g id="text_1">
    <g id="patch_7">
     <path d="M 103.274169 64.611372 
L 109.748006 50.085574 
Q 110.969245 47.345396 108.229067 46.124157 
L 99.389138 42.18439 
Q 96.64896 40.963152 95.427721 43.70333 
L 88.953884 58.229128 
Q 87.732645 60.969306 90.472823 62.190545 
L 99.312752 66.130312 
Q 102.05293 67.35155 103.274169 64.611372 
z
" clip-path="url(#peb82dec61b)" style="fill: #ffffff; stroke: #ffffff; stroke-linejoin: miter"/>
    </g>
    <g clip-path="url(#peb82dec61b)">
     <!-- 0.7 -->
     <g transform="translate(98.634419 62.543535)rotate(-65.978489)scale(0.1 -0.1)">
      <defs>
       <path id="DejaVuSans-30" d="M 2034 4250 
Q 1547 4250 1301 3770 
Q 1056 3291 1056 2328 
Q 1056 1369 1301 889 
Q 1547 409 2034 409 
Q 2525 409 2770 889 
Q 3016 1369 3016 2328 
Q 3016 3291 2770 3770 
Q 2525 4250 2034 4250 
z
M 2034 4750 
Q 2819 4750 3233 4129 
Q 3647 3509 3647 2328 
Q 3647 1150 3233 529 
Q 2819 -91 2034 -91 
Q 1250 -91 836 529 
Q 422 1150 422 2328 
Q 422 3509 836 4129 
Q 1250 4750 2034 4750 
z
" transform="scale(0.015625)"/>
       <path id="DejaVuSans-2e" d="M 684 794 
L 1344 794 
L 1344 0 
L 684 0 
L 684 794 
z
" transform="scale(0.015625)"/>
       <path id="DejaVuSans-37" d="M 525 4666 
L 3525 4666 
L 3525 4397 
L 1831 0 
L 1172 0 
L 2766 4134 
L 525 4134 
L 525 4666 
z
" transform="scale(0.015625)"/>
      </defs>
      <use xlink:href="#DejaVuSans-30"/>
      <use xlink:href="#DejaVuSans-2e" x="63.623047"/>
      <use xlink:href="#DejaVuSans-37" x="95.410156"/>
     </g>
    </g>
   </g>
   <g id="text_2">
    <g id="patch_8">
     <path d="M 103.456055 82.076221 
L 124.798073 75.729857 
Q 127.673629 74.874768 126.81854 71.999212 
L 124.059987 62.722548 
Q 123.204898 59.846992 120.329342 60.702081 
L 98.987324 67.048445 
Q 96.111768 67.903534 96.966857 70.77909 
L 99.72541 80.055754 
Q 100.580499 82.93131 103.456055 82.076221 
z
" clip-path="url(#peb82dec61b)" style="fill: #ffffff; stroke: #ffffff; stroke-linejoin: miter"/>
    </g>
    <g clip-path="url(#peb82dec61b)">
     <!-- 0.67 -->
     <g transform="translate(102.008194 77.207245)rotate(-16.560622)scale(0.1 -0.1)">
      <defs>
       <path id="DejaVuSans-36" d="M 2113 2584 
Q 1688 2584 1439 2293 
Q 1191 2003 1191 1497 
Q 1191 994 1439 701 
Q 1688 409 2113 409 
Q 2538 409 2786 701 
Q 3034 994 3034 1497 
Q 3034 2003 2786 2293 
Q 2538 2584 2113 2584 
z
M 3366 4563 
L 3366 3988 
Q 3128 4100 2886 4159 
Q 2644 4219 2406 4219 
Q 1781 4219 1451 3797 
Q 1122 3375 1075 2522 
Q 1259 2794 1537 2939 
Q 1816 3084 2150 3084 
Q 2853 3084 3261 2657 
Q 3669 2231 3669 1497 
Q 3669 778 3244 343 
Q 2819 -91 2113 -91 
Q 1303 -91 875 529 
Q 447 1150 447 2328 
Q 447 3434 972 4092 
Q 1497 4750 2381 4750 
Q 2619 4750 2861 4703 
Q 3103 4656 3366 4563 
z
" transform="scale(0.015625)"/>
      </defs>
      <use xlink:href="#DejaVuSans-30"/>
      <use xlink:href="#DejaVuSans-2e" x="63.623047"/>
      <use xlink:href="#DejaVuSans-36" x="95.410156"/>
      <use xlink:href="#DejaVuSans-37" x="159.033203"/>
     </g>
    </g>
   </g>
   <g id="text_3">
    <g id="patch_9">
     <path d="M 61.289055 103.026217 
L 75.081426 95.109154 
Q 77.683248 93.615662 76.189757 91.01384 
L 71.371689 82.620251 
Q 69.878198 80.018428 67.276375 81.51192 
L 53.484004 89.428983 
Q 50.882181 90.922475 52.375673 93.524298 
L 57.19374 101.917886 
Q 58.687232 104.519709 61.289055 103.026217 
z
" clip-path="url(#peb82dec61b)" style="fill: #ffffff; stroke: #ffffff; stroke-linejoin: miter"/>
    </g>
    <g clip-path="url(#peb82dec61b)">
     <!-- 0.8 -->
     <g transform="translate(58.76023 98.620735)rotate(-29.85658)scale(0.1 -0.1)">
      <defs>
       <path id="DejaVuSans-38" d="M 2034 2216 
Q 1584 2216 1326 1975 
Q 1069 1734 1069 1313 
Q 1069 891 1326 650 
Q 1584 409 2034 409 
Q 2484 409 2743 651 
Q 3003 894 3003 1313 
Q 3003 1734 2745 1975 
Q 2488 2216 2034 2216 
z
M 1403 2484 
Q 997 2584 770 2862 
Q 544 3141 544 3541 
Q 544 4100 942 4425 
Q 1341 4750 2034 4750 
Q 2731 4750 3128 4425 
Q 3525 4100 3525 3541 
Q 3525 3141 3298 2862 
Q 3072 2584 2669 2484 
Q 3125 2378 3379 2068 
Q 3634 1759 3634 1313 
Q 3634 634 3220 271 
Q 2806 -91 2034 -91 
Q 1263 -91 848 271 
Q 434 634 434 1313 
Q 434 1759 690 2068 
Q 947 2378 1403 2484 
z
M 1172 3481 
Q 1172 3119 1398 2916 
Q 1625 2713 2034 2713 
Q 2441 2713 2670 2916 
Q 2900 3119 2900 3481 
Q 2900 3844 2670 4047 
Q 2441 4250 2034 4250 
Q 1625 4250 1398 4047 
Q 1172 3844 1172 3481 
z
" transform="scale(0.015625)"/>
      </defs>
      <use xlink:href="#DejaVuSans-30"/>
      <use xlink:href="#DejaVuSans-2e" x="63.623047"/>
      <use xlink:href="#DejaVuSans-38" x="95.410156"/>
     </g>
    </g>
   </g>
   <g id="text_4">
    <g id="patch_10">
     <path d="M 410.456032 307.651404 
L 419.227905 294.386276 
Q 420.882651 291.883914 418.380288 290.229169 
L 410.307563 284.890891 
Q 407.8052 283.236146 406.150455 285.738509 
L 397.378581 299.003636 
Q 395.723836 301.505999 398.226198 303.160744 
L 406.298924 308.499021 
Q 408.801287 310.153767 410.456032 307.651404 
z
" clip-path="url(#peb82dec61b)" style="fill: #ffffff; stroke: #ffffff; stroke-linejoin: miter"/>
    </g>
    <g clip-path="url(#peb82dec61b)">
     <!-- 0.6 -->
     <g transform="translate(406.218959 304.849541)rotate(-56.524404)scale(0.1 -0.1)">
      <use xlink:href="#DejaVuSans-30"/>
      <use xlink:href="#DejaVuSans-2e" x="63.623047"/>
      <use xlink:href="#DejaVuSans-36" x="95.410156"/>
     </g>
    </g>
   </g>
   <g id="text_5">
    <g id="patch_11">
     <path d="M 111.644419 45.406592 
L 121.000998 58.265977 
Q 122.766044 60.6918 125.191866 58.926754 
L 133.01767 53.232644 
Q 135.443493 51.467599 133.678447 49.041776 
L 124.321868 36.18239 
Q 122.556822 33.756568 120.131 35.521614 
L 112.305196 41.215724 
Q 109.879373 42.980769 111.644419 45.406592 
z
" clip-path="url(#peb82dec61b)" style="fill: #ffffff; stroke: #ffffff; stroke-linejoin: miter"/>
    </g>
    <g clip-path="url(#peb82dec61b)">
     <!-- 0.6 -->
     <g transform="translate(115.751892 42.417965)rotate(-306.039899)scale(0.1 -0.1)">
      <use xlink:href="#DejaVuSans-30"/>
      <use xlink:href="#DejaVuSans-2e" x="63.623047"/>
      <use xlink:href="#DejaVuSans-36" x="95.410156"/>
     </g>
    </g>
   </g>
   <g id="PathCollection_1">
    <path d="M 88.581717 105.431899 
C 95.771607 105.431899 102.667986 102.575325 107.752006 97.491305 
C 112.836026 92.407285 115.6926 85.510906 115.6926 78.321015 
C 115.6926 71.131125 112.836026 64.234746 107.752006 59.150726 
C 102.667986 54.066706 95.771607 51.210132 88.581717 51.210132 
C 81.391826 51.210132 74.495447 54.066706 69.411427 59.150726 
C 64.327407 64.234746 61.470833 71.131125 61.470833 78.321015 
C 61.470833 85.510906 64.327407 92.407285 69.411427 97.491305 
C 74.495447 102.575325 81.391826 105.431899 88.581717 105.431899 
z
" clip-path="url(#peb82dec61b)" style="fill: #808080; stroke: #808080"/>
    <path d="M 110.12178 57.100966 
C 117.31167 57.100966 124.208049 54.244392 129.292069 49.160372 
C 134.376089 44.076352 137.232663 37.179973 137.232663 29.990083 
C 137.232663 22.800192 134.376089 15.903813 129.292069 10.819793 
C 124.208049 5.735773 117.31167 2.879199 110.12178 2.879199 
C 102.931889 2.879199 96.03551 5.735773 90.95149 10.819793 
C 85.86747 15.903813 83.010896 22.800192 83.010896 29.990083 
C 83.010896 37.179973 85.86747 44.076352 90.95149 49.160372 
C 96.03551 54.244392 102.931889 57.100966 110.12178 57.100966 
z
" clip-path="url(#peb82dec61b)" style="fill: #808080; stroke: #808080"/>
    <path d="M 395.795286 342.720801 
C 402.985177 342.720801 409.881556 339.864227 414.965576 334.780207 
C 420.049596 329.696187 422.90617 322.799808 422.90617 315.609917 
C 422.90617 308.420027 420.049596 301.523648 414.965576 296.439628 
C 409.881556 291.355608 402.985177 288.499034 395.795286 288.499034 
C 388.605396 288.499034 381.709017 291.355608 376.624997 296.439628 
C 371.540977 301.523648 368.684403 308.420027 368.684403 315.609917 
C 368.684403 322.799808 371.540977 329.696187 376.624997 334.780207 
C 381.709017 339.864227 388.605396 342.720801 395.795286 342.720801 
z
" clip-path="url(#peb82dec61b)" style="fill: #808080; stroke: #808080"/>
    <path d="M 420.813223 304.88782 
C 428.003113 304.88782 434.899492 302.031246 439.983513 296.947226 
C 445.067533 291.863206 447.924107 284.966827 447.924107 277.776936 
C 447.924107 270.587046 445.067533 263.690667 439.983513 258.606647 
C 434.899492 253.522626 428.003113 250.666053 420.813223 250.666053 
C 413.623333 250.666053 406.726954 253.522626 401.642934 258.606647 
C 396.558913 263.690667 393.70234 270.587046 393.70234 277.776936 
C 393.70234 284.966827 396.558913 291.863206 401.642934 296.947226 
C 406.726954 302.031246 413.623333 304.88782 420.813223 304.88782 
z
" clip-path="url(#peb82dec61b)" style="fill: #808080; stroke: #808080"/>
    <path d="M 135.20095 91.568982 
C 142.390841 91.568982 149.28722 88.712408 154.37124 83.628388 
C 159.45526 78.544368 162.311834 71.647989 162.311834 64.458099 
C 162.311834 57.268208 159.45526 50.371829 154.37124 45.287809 
C 149.28722 40.203789 142.390841 37.347215 135.20095 37.347215 
C 128.01106 37.347215 121.114681 40.203789 116.030661 45.287809 
C 110.946641 50.371829 108.090067 57.268208 108.090067 64.458099 
C 108.090067 71.647989 110.946641 78.544368 116.030661 83.628388 
C 121.114681 88.712408 128.01106 91.568982 135.20095 91.568982 
z
" clip-path="url(#peb82dec61b)" style="fill: #808080; stroke: #808080"/>
    <path d="M 39.986777 133.326246 
C 47.176667 133.326246 54.073046 130.469673 59.157066 125.385652 
C 64.241087 120.301632 67.09766 113.405253 67.09766 106.215363 
C 67.09766 99.025473 64.241087 92.129094 59.157066 87.045073 
C 54.073046 81.961053 47.176667 79.104479 39.986777 79.104479 
C 32.796887 79.104479 25.900508 81.961053 20.816487 87.045073 
C 15.732467 92.129094 12.875893 99.025473 12.875893 106.215363 
C 12.875893 113.405253 15.732467 120.301632 20.816487 125.385652 
C 25.900508 130.469673 32.796887 133.326246 39.986777 133.326246 
z
" clip-path="url(#peb82dec61b)" style="fill: #808080; stroke: #808080"/>
   </g>
   <g id="text_6">
    <g clip-path="url(#peb82dec61b)">
     <!-- A and B -->
     <g transform="translate(65.258592 81.632265)scale(0.12 -0.12)">
      <defs>
       <path id="DejaVuSans-41" d="M 2188 4044 
L 1331 1722 
L 3047 1722 
L 2188 4044 
z
M 1831 4666 
L 2547 4666 
L 4325 0 
L 3669 0 
L 3244 1197 
L 1141 1197 
L 716 0 
L 50 0 
L 1831 4666 
z
" transform="scale(0.015625)"/>
       <path id="DejaVuSans-20" transform="scale(0.015625)"/>
       <path id="DejaVuSans-61" d="M 2194 1759 
Q 1497 1759 1228 1600 
Q 959 1441 959 1056 
Q 959 750 1161 570 
Q 1363 391 1709 391 
Q 2188 391 2477 730 
Q 2766 1069 2766 1631 
L 2766 1759 
L 2194 1759 
z
M 3341 1997 
L 3341 0 
L 2766 0 
L 2766 531 
Q 2569 213 2275 61 
Q 1981 -91 1556 -91 
Q 1019 -91 701 211 
Q 384 513 384 1019 
Q 384 1609 779 1909 
Q 1175 2209 1959 2209 
L 2766 2209 
L 2766 2266 
Q 2766 2663 2505 2880 
Q 2244 3097 1772 3097 
Q 1472 3097 1187 3025 
Q 903 2953 641 2809 
L 641 3341 
Q 956 3463 1253 3523 
Q 1550 3584 1831 3584 
Q 2591 3584 2966 3190 
Q 3341 2797 3341 1997 
z
" transform="scale(0.015625)"/>
       <path id="DejaVuSans-6e" d="M 3513 2113 
L 3513 0 
L 2938 0 
L 2938 2094 
Q 2938 2591 2744 2837 
Q 2550 3084 2163 3084 
Q 1697 3084 1428 2787 
Q 1159 2491 1159 1978 
L 1159 0 
L 581 0 
L 581 3500 
L 1159 3500 
L 1159 2956 
Q 1366 3272 1645 3428 
Q 1925 3584 2291 3584 
Q 2894 3584 3203 3211 
Q 3513 2838 3513 2113 
z
" transform="scale(0.015625)"/>
       <path id="DejaVuSans-64" d="M 2906 2969 
L 2906 4863 
L 3481 4863 
L 3481 0 
L 2906 0 
L 2906 525 
Q 2725 213 2448 61 
Q 2172 -91 1784 -91 
Q 1150 -91 751 415 
Q 353 922 353 1747 
Q 353 2572 751 3078 
Q 1150 3584 1784 3584 
Q 2172 3584 2448 3432 
Q 2725 3281 2906 2969 
z
M 947 1747 
Q 947 1113 1208 752 
Q 1469 391 1925 391 
Q 2381 391 2643 752 
Q 2906 1113 2906 1747 
Q 2906 2381 2643 2742 
Q 2381 3103 1925 3103 
Q 1469 3103 1208 2742 
Q 947 2381 947 1747 
z
" transform="scale(0.015625)"/>
       <path id="DejaVuSans-42" d="M 1259 2228 
L 1259 519 
L 2272 519 
Q 2781 519 3026 730 
Q 3272 941 3272 1375 
Q 3272 1813 3026 2020 
Q 2781 2228 2272 2228 
L 1259 2228 
z
M 1259 4147 
L 1259 2741 
L 2194 2741 
Q 2656 2741 2882 2914 
Q 3109 3088 3109 3444 
Q 3109 3797 2882 3972 
Q 2656 4147 2194 4147 
L 1259 4147 
z
M 628 4666 
L 2241 4666 
Q 2963 4666 3353 4366 
Q 3744 4066 3744 3513 
Q 3744 3084 3544 2831 
Q 3344 2578 2956 2516 
Q 3422 2416 3680 2098 
Q 3938 1781 3938 1306 
Q 3938 681 3513 340 
Q 3088 0 2303 0 
L 628 0 
L 628 4666 
z
" transform="scale(0.015625)"/>
      </defs>
      <use xlink:href="#DejaVuSans-41"/>
      <use xlink:href="#DejaVuSans-20" x="68.408203"/>
      <use xlink:href="#DejaVuSans-61" x="100.195312"/>
      <use xlink:href="#DejaVuSans-6e" x="161.474609"/>
      <use xlink:href="#DejaVuSans-64" x="224.853516"/>
      <use xlink:href="#DejaVuSans-20" x="288.330078"/>
      <use xlink:href="#DejaVuSans-42" x="320.117188"/>
     </g>
    </g>
   </g>
   <g id="text_7">
    <g clip-path="url(#peb82dec61b)">
     <!-- C and D -->
     <g transform="translate(86.209905 33.301333)scale(0.12 -0.12)">
      <defs>
       <path id="DejaVuSans-43" d="M 4122 4306 
L 4122 3641 
Q 3803 3938 3442 4084 
Q 3081 4231 2675 4231 
Q 1875 4231 1450 3742 
Q 1025 3253 1025 2328 
Q 1025 1406 1450 917 
Q 1875 428 2675 428 
Q 3081 428 3442 575 
Q 3803 722 4122 1019 
L 4122 359 
Q 3791 134 3420 21 
Q 3050 -91 2638 -91 
Q 1578 -91 968 557 
Q 359 1206 359 2328 
Q 359 3453 968 4101 
Q 1578 4750 2638 4750 
Q 3056 4750 3426 4639 
Q 3797 4528 4122 4306 
z
" transform="scale(0.015625)"/>
       <path id="DejaVuSans-44" d="M 1259 4147 
L 1259 519 
L 2022 519 
Q 2988 519 3436 956 
Q 3884 1394 3884 2338 
Q 3884 3275 3436 3711 
Q 2988 4147 2022 4147 
L 1259 4147 
z
M 628 4666 
L 1925 4666 
Q 3281 4666 3915 4102 
Q 4550 3538 4550 2338 
Q 4550 1131 3912 565 
Q 3275 0 1925 0 
L 628 0 
L 628 4666 
z
" transform="scale(0.015625)"/>
      </defs>
      <use xlink:href="#DejaVuSans-43"/>
      <use xlink:href="#DejaVuSans-20" x="69.824219"/>
      <use xlink:href="#DejaVuSans-61" x="101.611328"/>
      <use xlink:href="#DejaVuSans-6e" x="162.890625"/>
      <use xlink:href="#DejaVuSans-64" x="226.269531"/>
      <use xlink:href="#DejaVuSans-20" x="289.746094"/>
      <use xlink:href="#DejaVuSans-44" x="321.533203"/>
     </g>
    </g>
   </g>
   <g id="text_8">
    <g clip-path="url(#peb82dec61b)">
     <!-- B and C -->
     <g transform="translate(372.386849 318.921167)scale(0.12 -0.12)">
      <use xlink:href="#DejaVuSans-42"/>
      <use xlink:href="#DejaVuSans-20" x="68.603516"/>
      <use xlink:href="#DejaVuSans-61" x="100.390625"/>
      <use xlink:href="#DejaVuSans-6e" x="161.669922"/>
      <use xlink:href="#DejaVuSans-64" x="225.048828"/>
      <use xlink:href="#DejaVuSans-20" x="288.525391"/>
      <use xlink:href="#DejaVuSans-43" x="320.3125"/>
     </g>
    </g>
   </g>
   <g id="text_9">
    <g clip-path="url(#peb82dec61b)">
     <!-- D and A -->
     <g transform="translate(396.986661 281.088186)scale(0.12 -0.12)">
      <use xlink:href="#DejaVuSans-44"/>
      <use xlink:href="#DejaVuSans-20" x="77.001953"/>
      <use xlink:href="#DejaVuSans-61" x="108.789062"/>
      <use xlink:href="#DejaVuSans-6e" x="170.068359"/>
      <use xlink:href="#DejaVuSans-64" x="233.447266"/>
      <use xlink:href="#DejaVuSans-20" x="296.923828"/>
      <use xlink:href="#DejaVuSans-41" x="328.710938"/>
     </g>
    </g>
   </g>
   <g id="text_10">
    <g clip-path="url(#peb82dec61b)">
     <!-- E and F -->
     <g transform="translate(112.856575 67.769349)scale(0.12 -0.12)">
      <defs>
       <path id="DejaVuSans-45" d="M 628 4666 
L 3578 4666 
L 3578 4134 
L 1259 4134 
L 1259 2753 
L 3481 2753 
L 3481 2222 
L 1259 2222 
L 1259 531 
L 3634 531 
L 3634 0 
L 628 0 
L 628 4666 
z
" transform="scale(0.015625)"/>
       <path id="DejaVuSans-46" d="M 628 4666 
L 3309 4666 
L 3309 4134 
L 1259 4134 
L 1259 2759 
L 3109 2759 
L 3109 2228 
L 1259 2228 
L 1259 0 
L 628 0 
L 628 4666 
z
" transform="scale(0.015625)"/>
      </defs>
      <use xlink:href="#DejaVuSans-45"/>
      <use xlink:href="#DejaVuSans-20" x="63.183594"/>
      <use xlink:href="#DejaVuSans-61" x="94.970703"/>
      <use xlink:href="#DejaVuSans-6e" x="156.25"/>
      <use xlink:href="#DejaVuSans-64" x="219.628906"/>
      <use xlink:href="#DejaVuSans-20" x="283.105469"/>
      <use xlink:href="#DejaVuSans-46" x="314.892578"/>
     </g>
    </g>
   </g>
   <g id="text_11">
    <g clip-path="url(#peb82dec61b)">
     <!-- E and G -->
     <g transform="translate(16.444277 109.526613)scale(0.12 -0.12)">
      <defs>
       <path id="DejaVuSans-47" d="M 3809 666 
L 3809 1919 
L 2778 1919 
L 2778 2438 
L 4434 2438 
L 4434 434 
Q 4069 175 3628 42 
Q 3188 -91 2688 -91 
Q 1594 -91 976 548 
Q 359 1188 359 2328 
Q 359 3472 976 4111 
Q 1594 4750 2688 4750 
Q 3144 4750 3555 4637 
Q 3966 4525 4313 4306 
L 4313 3634 
Q 3963 3931 3569 4081 
Q 3175 4231 2741 4231 
Q 1884 4231 1454 3753 
Q 1025 3275 1025 2328 
Q 1025 1384 1454 906 
Q 1884 428 2741 428 
Q 3075 428 3337 486 
Q 3600 544 3809 666 
z
" transform="scale(0.015625)"/>
      </defs>
      <use xlink:href="#DejaVuSans-45"/>
      <use xlink:href="#DejaVuSans-20" x="63.183594"/>
      <use xlink:href="#DejaVuSans-61" x="94.970703"/>
      <use xlink:href="#DejaVuSans-6e" x="156.25"/>
      <use xlink:href="#DejaVuSans-64" x="219.628906"/>
      <use xlink:href="#DejaVuSans-20" x="283.105469"/>
      <use xlink:href="#DejaVuSans-47" x="314.892578"/>
     </g>
    </g>
   </g>
  </g>
 </g>
 <defs>
  <clipPath id="peb82dec61b">
   <rect x="0" y="0" width="460.8" height="345.6"/>
  </clipPath>
 </defs>
</svg>
