<?xml version="1.0" encoding="utf-8" standalone="no"?>
<!DOCTYPE svg PUBLIC "-//W3C//DTD SVG 1.1//EN"
  "http://www.w3.org/Graphics/SVG/1.1/DTD/svg11.dtd">
<svg xmlns:xlink="http://www.w3.org/1999/xlink" width="460.8pt" height="345.6pt" viewBox="0 0 460.8 345.6" xmlns="http://www.w3.org/2000/svg" version="1.1">
 <metadata>
  <rdf:RDF xmlns:dc="http://purl.org/dc/elements/1.1/" xmlns:cc="http://creativecommons.org/ns#" xmlns:rdf="http://www.w3.org/1999/02/22-rdf-syntax-ns#">
   <cc:Work>
    <dc:type rdf:resource="http://purl.org/dc/dcmitype/StillImage"/>
    <dc:date>2025-06-12T20:08:44.712837</dc:date>
    <dc:format>image/svg+xml</dc:format>
    <dc:creator>
     <cc:Agent>
      <dc:title>Matplotlib v3.5.1, https://matplotlib.org/</dc:title>
     </cc:Agent>
    </dc:creator>
   </cc:Work>
  </rdf:RDF>
 </metadata>
 <defs>
  <style type="text/css">*{stroke-linejoin: round; stroke-linecap: butt}</style>
 </defs>
 <g id="figure_1">
  <g id="patch_1">
   <path d="M 0 345.6 
L 460.8 345.6 
L 460.8 0 
L 0 0 
z
" style="fill: #ffffff"/>
  </g>
  <g id="axes_1">
   <g id="patch_2">
    <path d="M 54.14741 210.09176 
Q 53.397653 180.886468 52.676588 152.798842 
" clip-path="url(#p7be6fcd439)" style="fill: none; stroke: #000000; stroke-linecap: round"/>
    <path d="M 50.779901 156.848851 
L 52.676588 152.798842 
L 54.778583 156.746197 
L 50.779901 156.848851 
z
" clip-path="url(#p7be6fcd439)" style="stroke: #000000; stroke-linecap: round"/>
   </g>
   <g id="patch_3">
    <path d="M 163.03277 75.406411 
Q 194.714103 184.353083 226.083247 292.226193 
" clip-path="url(#p7be6fcd439)" style="fill: none; stroke: #000000; stroke-linecap: round"/>
    <path d="M 226.886776 287.826835 
L 226.083247 292.226193 
L 223.045879 288.943756 
L 226.886776 287.826835 
z
" clip-path="url(#p7be6fcd439)" style="stroke: #000000; stroke-linecap: round"/>
   </g>
   <g id="patch_4">
    <path d="M 118.510154 268.335552 
Q 254.921554 224.19931 390.269214 180.407245 
" clip-path="url(#p7be6fcd439)" style="fill: none; stroke: #000000; stroke-linecap: round"/>
    <path d="M 385.847781 179.735729 
L 390.269214 180.407245 
L 387.079142 183.541481 
L 385.847781 179.735729 
z
" clip-path="url(#p7be6fcd439)" style="stroke: #000000; stroke-linecap: round"/>
   </g>
   <g id="patch_5">
    <path d="M 165.151887 282.340606 
Q 191.704841 173.102048 217.99372 64.949889 
" clip-path="url(#p7be6fcd439)" style="fill: none; stroke: #000000; stroke-linecap: round"/>
    <path d="M 215.105527 68.36432 
L 217.99372 64.949889 
L 218.992349 69.309102 
L 215.105527 68.36432 
z
" clip-path="url(#p7be6fcd439)" style="stroke: #000000; stroke-linecap: round"/>
   </g>
   <g id="patch_6">
    <path d="M 79.811261 88.811929 
Q 76.044264 93.109302 73.014251 96.565927 
" clip-path="url(#p7be6fcd439)" style="fill: none; stroke: #000000; stroke-linecap: round"/>
    <path d="M 77.154937 94.876334 
L 73.014251 96.565927 
L 74.146989 92.239623 
L 77.154937 94.876334 
z
" clip-path="url(#p7be6fcd439)" style="stroke: #000000; stroke-linecap: round"/>
   </g>
   <g id="patch_7">
    <path d="M 58.398022 169.29166 
Q 194.38459 124.996386 329.3081 81.047385 
" clip-path="url(#p7be6fcd439)" style="fill: none; stroke: #000000; stroke-linecap: round"/>
    <path d="M 324.885351 80.384592 
L 329.3081 81.047385 
L 326.124216 84.187908 
L 324.885351 80.384592 
z
" clip-path="url(#p7be6fcd439)" style="stroke: #000000; stroke-linecap: round"/>
   </g>
   <g id="patch_8">
    <path d="M 392.186412 198.5114 
Q 350.893156 127.981713 310.164784 58.416859 
" clip-path="url(#p7be6fcd439)" style="fill: none; stroke: #000000; stroke-linecap: round"/>
    <path d="M 310.459829 62.879252 
L 310.164784 58.416859 
L 313.911725 60.858259 
L 310.459829 62.879252 
z
" clip-path="url(#p7be6fcd439)" style="stroke: #000000; stroke-linecap: round"/>
   </g>
   <g id="patch_9">
    <path d="M 335.891149 91.165797 
Q 225.352843 176.241294 115.700539 260.634882 
" clip-path="url(#p7be6fcd439)" style="fill: none; stroke: #000000; stroke-linecap: round"/>
    <path d="M 120.090234 259.780138 
L 115.700539 260.634882 
L 117.650561 256.610281 
L 120.090234 259.780138 
z
" clip-path="url(#p7be6fcd439)" style="stroke: #000000; stroke-linecap: round"/>
   </g>
   <g id="patch_10">
    <path d="M 105.77007 88.428375 
Q 195.096954 184.388129 283.662057 279.529537 
" clip-path="url(#p7be6fcd439)" style="fill: none; stroke: #000000; stroke-linecap: round"/>
    <path d="M 282.400529 275.239019 
L 283.662057 279.529537 
L 279.472725 277.964449 
L 282.400529 275.239019 
z
" clip-path="url(#p7be6fcd439)" style="stroke: #000000; stroke-linecap: round"/>
   </g>
   <g id="patch_11">
    <path d="M 347.905005 272.207119 
Q 233.771168 273.69656 120.755269 275.171412 
" clip-path="url(#p7be6fcd439)" style="fill: none; stroke: #000000; stroke-linecap: round"/>
    <path d="M 124.781026 277.119047 
L 120.755269 275.171412 
L 124.728831 273.119387 
L 124.781026 277.119047 
z
" clip-path="url(#p7be6fcd439)" style="stroke: #000000; stroke-linecap: round"/>
   </g>
   <g id="patch_12">
    <path d="M 407.282539 194.267259 
Q 406.891758 172.56416 406.521104 151.978914 
" clip-path="url(#p7be6fcd439)" style="fill: none; stroke: #000000; stroke-linecap: round"/>
    <path d="M 404.59344 156.014272 
L 406.521104 151.978914 
L 408.592791 155.94226 
L 404.59344 156.014272 
z
" clip-path="url(#p7be6fcd439)" style="stroke: #000000; stroke-linecap: round"/>
   </g>
   <g id="patch_13">
    <path d="M 181.789502 297.819532 
Q 280.064171 266.269664 377.274319 235.061548 
" clip-path="url(#p7be6fcd439)" style="fill: none; stroke: #000000; stroke-linecap: round"/>
    <path d="M 372.854428 234.379961 
L 377.274319 235.061548 
L 374.077115 238.188509 
L 372.854428 234.379961 
z
" clip-path="url(#p7be6fcd439)" style="stroke: #000000; stroke-linecap: round"/>
   </g>
   <g id="text_1">
    <g id="patch_14">
     <path d="M 45.126358 164.150341 
L 45.697772 186.408632 
Q 45.774763 189.407644 48.773775 189.330654 
L 58.448712 189.082279 
Q 61.447724 189.005288 61.370734 186.006276 
L 60.799319 163.747985 
Q 60.722329 160.748973 57.723317 160.825963 
L 48.048379 161.074338 
Q 45.049367 161.151329 45.126358 164.150341 
z
" clip-path="url(#p7be6fcd439)" style="fill: #ffffff; stroke: #ffffff; stroke-linejoin: miter"/>
    </g>
    <g clip-path="url(#p7be6fcd439)">
     <!-- 0.56 -->
     <g transform="translate(50.204372 164.019978)rotate(-271.470573)scale(0.1 -0.1)">
      <defs>
       <path id="DejaVuSans-30" d="M 2034 4250 
Q 1547 4250 1301 3770 
Q 1056 3291 1056 2328 
Q 1056 1369 1301 889 
Q 1547 409 2034 409 
Q 2525 409 2770 889 
Q 3016 1369 3016 2328 
Q 3016 3291 2770 3770 
Q 2525 4250 2034 4250 
z
M 2034 4750 
Q 2819 4750 3233 4129 
Q 3647 3509 3647 2328 
Q 3647 1150 3233 529 
Q 2819 -91 2034 -91 
Q 1250 -91 836 529 
Q 422 1150 422 2328 
Q 422 3509 836 4129 
Q 1250 4750 2034 4750 
z
" transform="scale(0.015625)"/>
       <path id="DejaVuSans-2e" d="M 684 794 
L 1344 794 
L 1344 0 
L 684 0 
L 684 794 
z
" transform="scale(0.015625)"/>
       <path id="DejaVuSans-35" d="M 691 4666 
L 3169 4666 
L 3169 4134 
L 1269 4134 
L 1269 2991 
Q 1406 3038 1543 3061 
Q 1681 3084 1819 3084 
Q 2600 3084 3056 2656 
Q 3513 2228 3513 1497 
Q 3513 744 3044 326 
Q 2575 -91 1722 -91 
Q 1428 -91 1123 -41 
Q 819 9 494 109 
L 494 744 
Q 775 591 1075 516 
Q 1375 441 1709 441 
Q 2250 441 2565 725 
Q 2881 1009 2881 1497 
Q 2881 1984 2565 2268 
Q 2250 2553 1709 2553 
Q 1456 2553 1204 2497 
Q 953 2441 691 2322 
L 691 4666 
z
" transform="scale(0.015625)"/>
       <path id="DejaVuSans-36" d="M 2113 2584 
Q 1688 2584 1439 2293 
Q 1191 2003 1191 1497 
Q 1191 994 1439 701 
Q 1688 409 2113 409 
Q 2538 409 2786 701 
Q 3034 994 3034 1497 
Q 3034 2003 2786 2293 
Q 2538 2584 2113 2584 
z
M 3366 4563 
L 3366 3988 
Q 3128 4100 2886 4159 
Q 2644 4219 2406 4219 
Q 1781 4219 1451 3797 
Q 1122 3375 1075 2522 
Q 1259 2794 1537 2939 
Q 1816 3084 2150 3084 
Q 2853 3084 3261 2657 
Q 3669 2231 3669 1497 
Q 3669 778 3244 343 
Q 2819 -91 2113 -91 
Q 1303 -91 875 529 
Q 447 1150 447 2328 
Q 447 3434 972 4092 
Q 1497 4750 2381 4750 
Q 2619 4750 2861 4703 
Q 3103 4656 3366 4563 
z
" transform="scale(0.015625)"/>
      </defs>
      <use xlink:href="#DejaVuSans-30"/>
      <use xlink:href="#DejaVuSans-2e" x="63.623047"/>
      <use xlink:href="#DejaVuSans-35" x="95.410156"/>
      <use xlink:href="#DejaVuSans-36" x="159.033203"/>
     </g>
    </g>
   </g>
   <g id="text_2">
    <g id="patch_15">
     <path d="M 182.455824 170.272815 
L 188.673056 191.652808 
Q 189.510746 194.533481 192.391418 193.695791 
L 201.684589 190.993367 
Q 204.565261 190.155677 203.727571 187.275004 
L 197.51034 165.895012 
Q 196.67265 163.014339 193.791977 163.852029 
L 184.498807 166.554452 
Q 181.618134 167.392142 182.455824 170.272815 
z
" clip-path="url(#p7be6fcd439)" style="fill: #ffffff; stroke: #ffffff; stroke-linejoin: miter"/>
    </g>
    <g clip-path="url(#p7be6fcd439)">
     <!-- 0.83 -->
     <g transform="translate(187.333463 168.854414)rotate(-286.214256)scale(0.1 -0.1)">
      <defs>
       <path id="DejaVuSans-38" d="M 2034 2216 
Q 1584 2216 1326 1975 
Q 1069 1734 1069 1313 
Q 1069 891 1326 650 
Q 1584 409 2034 409 
Q 2484 409 2743 651 
Q 3003 894 3003 1313 
Q 3003 1734 2745 1975 
Q 2488 2216 2034 2216 
z
M 1403 2484 
Q 997 2584 770 2862 
Q 544 3141 544 3541 
Q 544 4100 942 4425 
Q 1341 4750 2034 4750 
Q 2731 4750 3128 4425 
Q 3525 4100 3525 3541 
Q 3525 3141 3298 2862 
Q 3072 2584 2669 2484 
Q 3125 2378 3379 2068 
Q 3634 1759 3634 1313 
Q 3634 634 3220 271 
Q 2806 -91 2034 -91 
Q 1263 -91 848 271 
Q 434 634 434 1313 
Q 434 1759 690 2068 
Q 947 2378 1403 2484 
z
M 1172 3481 
Q 1172 3119 1398 2916 
Q 1625 2713 2034 2713 
Q 2441 2713 2670 2916 
Q 2900 3119 2900 3481 
Q 2900 3844 2670 4047 
Q 2441 4250 2034 4250 
Q 1625 4250 1398 4047 
Q 1172 3844 1172 3481 
z
" transform="scale(0.015625)"/>
       <path id="DejaVuSans-33" d="M 2597 2516 
Q 3050 2419 3304 2112 
Q 3559 1806 3559 1356 
Q 3559 666 3084 287 
Q 2609 -91 1734 -91 
Q 1441 -91 1130 -33 
Q 819 25 488 141 
L 488 750 
Q 750 597 1062 519 
Q 1375 441 1716 441 
Q 2309 441 2620 675 
Q 2931 909 2931 1356 
Q 2931 1769 2642 2001 
Q 2353 2234 1838 2234 
L 1294 2234 
L 1294 2753 
L 1863 2753 
Q 2328 2753 2575 2939 
Q 2822 3125 2822 3475 
Q 2822 3834 2567 4026 
Q 2313 4219 1838 4219 
Q 1578 4219 1281 4162 
Q 984 4106 628 3988 
L 628 4550 
Q 988 4650 1302 4700 
Q 1616 4750 1894 4750 
Q 2613 4750 3031 4423 
Q 3450 4097 3450 3541 
Q 3450 3153 3228 2886 
Q 3006 2619 2597 2516 
z
" transform="scale(0.015625)"/>
      </defs>
      <use xlink:href="#DejaVuSans-30"/>
      <use xlink:href="#DejaVuSans-2e" x="63.623047"/>
      <use xlink:href="#DejaVuSans-38" x="95.410156"/>
      <use xlink:href="#DejaVuSans-33" x="159.033203"/>
     </g>
    </g>
   </g>
   <g id="text_3">
    <g id="patch_16">
     <path d="M 250.428676 233.892164 
L 271.61304 227.037912 
Q 274.467354 226.114391 273.543834 223.260077 
L 270.564519 214.05194 
Q 269.640998 211.197626 266.786684 212.121146 
L 245.60232 218.975399 
Q 242.748006 219.898919 243.671526 222.753234 
L 246.650841 231.96137 
Q 247.574362 234.815685 250.428676 233.892164 
z
" clip-path="url(#p7be6fcd439)" style="fill: #ffffff; stroke: #ffffff; stroke-linejoin: miter"/>
    </g>
    <g clip-path="url(#p7be6fcd439)">
     <!-- 0.56 -->
     <g transform="translate(248.864944 229.059156)rotate(-17.929114)scale(0.1 -0.1)">
      <use xlink:href="#DejaVuSans-30"/>
      <use xlink:href="#DejaVuSans-2e" x="63.623047"/>
      <use xlink:href="#DejaVuSans-35" x="95.410156"/>
      <use xlink:href="#DejaVuSans-36" x="159.033203"/>
     </g>
    </g>
   </g>
   <g id="text_4">
    <g id="patch_17">
     <path d="M 198.064486 180.127414 
L 203.323526 158.491782 
Q 204.032113 155.576665 201.116996 154.868079 
L 191.712708 152.582149 
Q 188.797591 151.873563 188.089005 154.78868 
L 182.829965 176.424311 
Q 182.121379 179.339428 185.036495 180.048014 
L 194.440783 182.333944 
Q 197.3559 183.04253 198.064486 180.127414 
z
" clip-path="url(#p7be6fcd439)" style="fill: #ffffff; stroke: #ffffff; stroke-linejoin: miter"/>
    </g>
    <g clip-path="url(#p7be6fcd439)">
     <!-- 0.83 -->
     <g transform="translate(193.128526 178.927614)rotate(-76.337898)scale(0.1 -0.1)">
      <use xlink:href="#DejaVuSans-30"/>
      <use xlink:href="#DejaVuSans-2e" x="63.623047"/>
      <use xlink:href="#DejaVuSans-38" x="95.410156"/>
      <use xlink:href="#DejaVuSans-33" x="159.033203"/>
     </g>
    </g>
   </g>
   <g id="text_5">
    <g id="patch_18">
     <path d="M 70.769107 111.019358 
L 85.446114 94.275896 
Q 87.423648 92.019934 85.167687 90.042401 
L 77.889862 83.662795 
Q 75.633901 81.685262 73.656367 83.941223 
L 58.97936 100.684685 
Q 57.001827 102.940646 59.257788 104.91818 
L 66.535613 111.297785 
Q 68.791574 113.275319 70.769107 111.019358 
z
" clip-path="url(#p7be6fcd439)" style="fill: #ffffff; stroke: #ffffff; stroke-linejoin: miter"/>
    </g>
    <g clip-path="url(#p7be6fcd439)">
     <!-- 0.62 -->
     <g transform="translate(66.949248 107.67094)rotate(-48.762798)scale(0.1 -0.1)">
      <defs>
       <path id="DejaVuSans-32" d="M 1228 531 
L 3431 531 
L 3431 0 
L 469 0 
L 469 531 
Q 828 903 1448 1529 
Q 2069 2156 2228 2338 
Q 2531 2678 2651 2914 
Q 2772 3150 2772 3378 
Q 2772 3750 2511 3984 
Q 2250 4219 1831 4219 
Q 1534 4219 1204 4116 
Q 875 4013 500 3803 
L 500 4441 
Q 881 4594 1212 4672 
Q 1544 4750 1819 4750 
Q 2544 4750 2975 4387 
Q 3406 4025 3406 3419 
Q 3406 3131 3298 2873 
Q 3191 2616 2906 2266 
Q 2828 2175 2409 1742 
Q 1991 1309 1228 531 
z
" transform="scale(0.015625)"/>
      </defs>
      <use xlink:href="#DejaVuSans-30"/>
      <use xlink:href="#DejaVuSans-2e" x="63.623047"/>
      <use xlink:href="#DejaVuSans-36" x="95.410156"/>
      <use xlink:href="#DejaVuSans-32" x="159.033203"/>
     </g>
    </g>
   </g>
   <g id="text_6">
    <g id="patch_19">
     <path d="M 193.594898 133.498065 
L 214.765701 126.602041 
Q 217.618188 125.672893 216.68904 122.820406 
L 213.691569 113.618163 
Q 212.76242 110.765676 209.909933 111.694824 
L 188.73913 118.590848 
Q 185.886642 119.519996 186.815791 122.372483 
L 189.813262 131.574726 
Q 190.742411 134.427213 193.594898 133.498065 
z
" clip-path="url(#p7be6fcd439)" style="fill: #ffffff; stroke: #ffffff; stroke-linejoin: miter"/>
    </g>
    <g clip-path="url(#p7be6fcd439)">
     <!-- 0.71 -->
     <g transform="translate(192.021637 128.66815)rotate(-18.042124)scale(0.1 -0.1)">
      <defs>
       <path id="DejaVuSans-37" d="M 525 4666 
L 3525 4666 
L 3525 4397 
L 1831 0 
L 1172 0 
L 2766 4134 
L 525 4134 
L 525 4666 
z
" transform="scale(0.015625)"/>
       <path id="DejaVuSans-31" d="M 794 531 
L 1825 531 
L 1825 4091 
L 703 3866 
L 703 4441 
L 1819 4666 
L 2450 4666 
L 2450 531 
L 3481 531 
L 3481 0 
L 794 0 
L 794 531 
z
" transform="scale(0.015625)"/>
      </defs>
      <use xlink:href="#DejaVuSans-30"/>
      <use xlink:href="#DejaVuSans-2e" x="63.623047"/>
      <use xlink:href="#DejaVuSans-37" x="95.410156"/>
      <use xlink:href="#DejaVuSans-31" x="159.033203"/>
     </g>
    </g>
   </g>
   <g id="text_7">
    <g id="patch_20">
     <path d="M 341.438836 127.348817 
L 352.688506 146.563473 
Q 354.204251 149.152395 356.793173 147.63665 
L 365.145143 142.746793 
Q 367.734065 141.231048 366.21832 138.642126 
L 354.96865 119.427471 
Q 353.452905 116.838549 350.863983 118.354294 
L 342.512013 123.24415 
Q 339.923091 124.759895 341.438836 127.348817 
z
" clip-path="url(#p7be6fcd439)" style="fill: #ffffff; stroke: #ffffff; stroke-linejoin: miter"/>
    </g>
    <g clip-path="url(#p7be6fcd439)">
     <!-- 0.62 -->
     <g transform="translate(345.822474 124.782313)rotate(-300.347838)scale(0.1 -0.1)">
      <use xlink:href="#DejaVuSans-30"/>
      <use xlink:href="#DejaVuSans-2e" x="63.623047"/>
      <use xlink:href="#DejaVuSans-36" x="95.410156"/>
      <use xlink:href="#DejaVuSans-32" x="159.033203"/>
     </g>
    </g>
   </g>
   <g id="text_8">
    <g id="patch_21">
     <path d="M 225.917816 185.698469 
L 243.562533 172.118262 
Q 245.939926 170.288508 244.110172 167.911114 
L 238.207309 160.241544 
Q 236.377555 157.864151 234.000161 159.693905 
L 216.355444 173.274112 
Q 213.978051 175.103866 215.807805 177.481259 
L 221.710668 185.15083 
Q 223.540423 187.528223 225.917816 185.698469 
z
" clip-path="url(#p7be6fcd439)" style="fill: #ffffff; stroke: #ffffff; stroke-linejoin: miter"/>
    </g>
    <g clip-path="url(#p7be6fcd439)">
     <!-- 0.56 -->
     <g transform="translate(222.819623 181.672997)rotate(-37.583579)scale(0.1 -0.1)">
      <use xlink:href="#DejaVuSans-30"/>
      <use xlink:href="#DejaVuSans-2e" x="63.623047"/>
      <use xlink:href="#DejaVuSans-35" x="95.410156"/>
      <use xlink:href="#DejaVuSans-36" x="159.033203"/>
     </g>
    </g>
   </g>
   <g id="text_9">
    <g id="patch_22">
     <path d="M 185.729305 185.829962 
L 200.900153 202.127306 
Q 202.944226 204.323158 205.140078 202.279086 
L 212.22399 195.684824 
Q 214.419843 193.640752 212.375771 191.444899 
L 197.204922 175.147556 
Q 195.16085 172.951703 192.964997 174.995775 
L 185.881085 181.590037 
Q 183.685232 183.63411 185.729305 185.829962 
z
" clip-path="url(#p7be6fcd439)" style="fill: #ffffff; stroke: #ffffff; stroke-linejoin: miter"/>
    </g>
    <g clip-path="url(#p7be6fcd439)">
     <!-- 0.71 -->
     <g transform="translate(189.447386 182.36888)rotate(-312.949808)scale(0.1 -0.1)">
      <use xlink:href="#DejaVuSans-30"/>
      <use xlink:href="#DejaVuSans-2e" x="63.623047"/>
      <use xlink:href="#DejaVuSans-37" x="95.410156"/>
      <use xlink:href="#DejaVuSans-31" x="159.033203"/>
     </g>
    </g>
   </g>
   <g id="text_10">
    <g id="patch_23">
     <path d="M 220.806563 281.705478 
L 243.070293 281.414937 
Q 246.070037 281.37579 246.030891 278.376046 
L 245.904602 268.698745 
Q 245.865456 265.699 242.865711 265.738147 
L 220.601982 266.028687 
Q 217.602237 266.067834 217.641384 269.067579 
L 217.767672 278.74488 
Q 217.806819 281.744624 220.806563 281.705478 
z
" clip-path="url(#p7be6fcd439)" style="fill: #ffffff; stroke: #ffffff; stroke-linejoin: miter"/>
    </g>
    <g clip-path="url(#p7be6fcd439)">
     <!-- 0.62 -->
     <g transform="translate(220.740279 276.626223)rotate(-0.747665)scale(0.1 -0.1)">
      <use xlink:href="#DejaVuSans-30"/>
      <use xlink:href="#DejaVuSans-2e" x="63.623047"/>
      <use xlink:href="#DejaVuSans-36" x="95.410156"/>
      <use xlink:href="#DejaVuSans-32" x="159.033203"/>
     </g>
    </g>
   </g>
   <g id="text_11">
    <g id="patch_24">
     <path d="M 398.818675 159.63778 
L 399.21952 181.899797 
Q 399.273529 184.89931 402.273043 184.845302 
L 411.949599 184.671068 
Q 414.949113 184.617059 414.895104 181.617545 
L 414.494259 159.355529 
Q 414.44025 156.356015 411.440737 156.410023 
L 401.76418 156.584258 
Q 398.764666 156.638266 398.818675 159.63778 
z
" clip-path="url(#p7be6fcd439)" style="fill: #ffffff; stroke: #ffffff; stroke-linejoin: miter"/>
    </g>
    <g clip-path="url(#p7be6fcd439)">
     <!-- 0.56 -->
     <g transform="translate(403.897539 159.546331)rotate(-271.031545)scale(0.1 -0.1)">
      <use xlink:href="#DejaVuSans-30"/>
      <use xlink:href="#DejaVuSans-2e" x="63.623047"/>
      <use xlink:href="#DejaVuSans-35" x="95.410156"/>
      <use xlink:href="#DejaVuSans-36" x="159.033203"/>
     </g>
    </g>
   </g>
   <g id="text_12">
    <g id="patch_25">
     <path d="M 275.545565 275.953432 
L 296.745489 269.147458 
Q 299.6019 268.230443 298.684885 265.374032 
L 295.726555 256.159132 
Q 294.80954 253.302721 291.953129 254.219736 
L 270.753205 261.02571 
Q 267.896794 261.942725 268.813809 264.799136 
L 271.772139 274.014036 
Q 272.689154 276.870447 275.545565 275.953432 
z
" clip-path="url(#p7be6fcd439)" style="fill: #ffffff; stroke: #ffffff; stroke-linejoin: miter"/>
    </g>
    <g clip-path="url(#p7be6fcd439)">
     <!-- 0.62 -->
     <g transform="translate(273.992848 271.116874)rotate(-17.798585)scale(0.1 -0.1)">
      <use xlink:href="#DejaVuSans-30"/>
      <use xlink:href="#DejaVuSans-2e" x="63.623047"/>
      <use xlink:href="#DejaVuSans-36" x="95.410156"/>
      <use xlink:href="#DejaVuSans-32" x="159.033203"/>
     </g>
    </g>
   </g>
   <g id="PathCollection_1">
    <path d="M 54.644344 248.813717 
C 59.77998 248.813717 64.705965 246.773308 68.337408 243.141865 
C 71.968851 239.510422 74.009261 234.584437 74.009261 229.448801 
C 74.009261 224.313165 71.968851 219.38718 68.337408 215.755737 
C 64.705965 212.124294 59.77998 210.083884 54.644344 210.083884 
C 49.508708 210.083884 44.582723 212.124294 40.95128 215.755737 
C 37.319837 219.38718 35.279427 224.313165 35.279427 229.448801 
C 35.279427 234.584437 37.319837 239.510422 40.95128 243.141865 
C 44.582723 246.773308 49.508708 248.813717 54.644344 248.813717 
z
" clip-path="url(#p7be6fcd439)" style="fill: #808080; stroke: #808080"/>
    <path d="M 51.852724 151.690766 
C 60.069741 151.690766 67.951317 148.426111 73.761626 142.615802 
C 79.571935 136.805493 82.836591 128.923917 82.836591 120.7069 
C 82.836591 112.489882 79.571935 104.608306 73.761626 98.797997 
C 67.951317 92.987688 60.069741 89.723033 51.852724 89.723033 
C 43.635706 89.723033 35.75413 92.987688 29.943822 98.797997 
C 24.133513 104.608306 20.868857 112.489882 20.868857 120.7069 
C 20.868857 128.923917 24.133513 136.805493 29.943822 142.615802 
C 35.75413 148.426111 43.635706 151.690766 51.852724 151.690766 
z
" clip-path="url(#p7be6fcd439)" style="fill: #808080; stroke: #808080"/>
    <path d="M 96.400318 298.727143 
C 102.563081 298.727143 108.474263 296.278652 112.831994 291.92092 
C 117.189726 287.563189 119.638218 281.652007 119.638218 275.489243 
C 119.638218 269.32648 117.189726 263.415298 112.831994 259.057567 
C 108.474263 254.699835 102.563081 252.251343 96.400318 252.251343 
C 90.237554 252.251343 84.326372 254.699835 79.968641 259.057567 
C 75.610909 263.415298 73.162417 269.32648 73.162417 275.489243 
C 73.162417 281.652007 75.610909 287.563189 79.968641 291.92092 
C 84.326372 296.278652 90.237554 298.727143 96.400318 298.727143 
z
" clip-path="url(#p7be6fcd439)" style="fill: #808080; stroke: #808080"/>
    <path d="M 367.268687 291.319341 
C 372.404323 291.319341 377.330308 289.278931 380.961751 285.647488 
C 384.593194 282.016045 386.633604 277.09006 386.633604 271.954424 
C 386.633604 266.818788 384.593194 261.892803 380.961751 258.26136 
C 377.330308 254.629917 372.404323 252.589507 367.268687 252.589507 
C 362.133051 252.589507 357.207066 254.629917 353.575623 258.26136 
C 349.94418 261.892803 347.903771 266.818788 347.903771 271.954424 
C 347.903771 277.09006 349.94418 282.016045 353.575623 285.647488 
C 357.207066 289.278931 362.133051 291.319341 367.268687 291.319341 
z
" clip-path="url(#p7be6fcd439)" style="fill: #808080; stroke: #808080"/>
    <path d="M 420.813223 201.508523 
C 429.030241 201.508523 436.911817 198.243867 442.722125 192.433558 
C 448.532434 186.623249 451.79709 178.741673 451.79709 170.524656 
C 451.79709 162.307638 448.532434 154.426062 442.722125 148.615754 
C 436.911817 142.805445 429.030241 139.540789 420.813223 139.540789 
C 412.596206 139.540789 404.71463 142.805445 398.904321 148.615754 
C 393.094012 154.426062 389.829356 162.307638 389.829356 170.524656 
C 389.829356 178.741673 393.094012 186.623249 398.904321 192.433558 
C 404.71463 198.243867 412.596206 201.508523 420.813223 201.508523 
z
" clip-path="url(#p7be6fcd439)" style="fill: #808080; stroke: #808080"/>
    <path d="M 92.573914 93.61727 
C 97.70955 93.61727 102.635535 91.57686 106.266978 87.945417 
C 109.898421 84.313974 111.938831 79.387989 111.938831 74.252353 
C 111.938831 69.116717 109.898421 64.190732 106.266978 60.559289 
C 102.635535 56.927846 97.70955 54.887437 92.573914 54.887437 
C 87.438278 54.887437 82.512293 56.927846 78.88085 60.559289 
C 75.249407 64.190732 73.208998 69.116717 73.208998 74.252353 
C 73.208998 79.387989 75.249407 84.313974 78.88085 87.945417 
C 82.512293 91.57686 87.438278 93.61727 92.573914 93.61727 
z
" clip-path="url(#p7be6fcd439)" style="fill: #808080; stroke: #808080"/>
    <path d="M 305.532116 334.007401 
C 313.749134 334.007401 321.63071 330.742745 327.441019 324.932437 
C 333.251327 319.122128 336.515983 311.240552 336.515983 303.023534 
C 336.515983 294.806517 333.251327 286.924941 327.441019 281.114632 
C 321.63071 275.304323 313.749134 272.039668 305.532116 272.039668 
C 297.315099 272.039668 289.433523 275.304323 283.623214 281.114632 
C 277.812905 286.924941 274.548249 294.806517 274.548249 303.023534 
C 274.548249 311.240552 277.812905 319.122128 283.623214 324.932437 
C 289.433523 330.742745 297.315099 334.007401 305.532116 334.007401 
z
" clip-path="url(#p7be6fcd439)" style="fill: #808080; stroke: #808080"/>
    <path d="M 159.662698 328.160969 
C 165.825461 328.160969 171.736643 325.712477 176.094375 321.354745 
C 180.452106 316.997014 182.900598 311.085832 182.900598 304.923069 
C 182.900598 298.760305 180.452106 292.849124 176.094375 288.491392 
C 171.736643 284.13366 165.825461 281.685169 159.662698 281.685169 
C 153.499935 281.685169 147.588753 284.13366 143.231021 288.491392 
C 138.87329 292.849124 136.424798 298.760305 136.424798 304.923069 
C 136.424798 311.085832 138.87329 316.997014 143.231021 321.354745 
C 147.588753 325.712477 153.499935 328.160969 159.662698 328.160969 
z
" clip-path="url(#p7be6fcd439)" style="fill: #808080; stroke: #808080"/>
    <path d="M 407.840385 256.232557 
C 416.057402 256.232557 423.938978 252.967902 429.749287 247.157593 
C 435.559596 241.347284 438.824252 233.465708 438.824252 225.248691 
C 438.824252 217.031673 435.559596 209.150097 429.749287 203.339788 
C 423.938978 197.529479 416.057402 194.264824 407.840385 194.264824 
C 399.623367 194.264824 391.741791 197.529479 385.931483 203.339788 
C 380.121174 209.150097 376.856518 217.031673 376.856518 225.248691 
C 376.856518 233.465708 380.121174 241.347284 385.931483 247.157593 
C 391.741791 252.967902 399.623367 256.232557 407.840385 256.232557 
z
" clip-path="url(#p7be6fcd439)" style="fill: #808080; stroke: #808080"/>
    <path d="M 299.816931 60.107442 
C 304.952567 60.107442 309.878552 58.067032 313.509995 54.435589 
C 317.141438 50.804146 319.181848 45.878161 319.181848 40.742525 
C 319.181848 35.60689 317.141438 30.680905 313.509995 27.049462 
C 309.878552 23.418019 304.952567 21.377609 299.816931 21.377609 
C 294.681295 21.377609 289.75531 23.418019 286.123867 27.049462 
C 282.492424 30.680905 280.452014 35.60689 280.452014 40.742525 
C 280.452014 45.878161 282.492424 50.804146 286.123867 54.435589 
C 289.75531 58.067032 294.681295 60.107442 299.816931 60.107442 
z
" clip-path="url(#p7be6fcd439)" style="fill: #808080; stroke: #808080"/>
    <path d="M 226.491508 64.846933 
C 235.735653 64.846933 244.602426 61.174195 251.139023 54.637598 
C 257.675621 48.101 261.348358 39.234227 261.348358 29.990083 
C 261.348358 20.745938 257.675621 11.879165 251.139023 5.342568 
C 244.602426 -1.19403 235.735653 -4.866767 226.491508 -4.866767 
C 217.247364 -4.866767 208.380591 -1.19403 201.843993 5.342568 
C 195.307396 11.879165 191.634658 20.745938 191.634658 29.990083 
C 191.634658 39.234227 195.307396 48.101 201.843993 54.637598 
C 208.380591 61.174195 217.247364 64.846933 226.491508 64.846933 
z
" clip-path="url(#p7be6fcd439)" style="fill: #808080; stroke: #808080"/>
    <path d="M 39.986777 194.653722 
C 45.122413 194.653722 50.048398 192.613312 53.679841 188.981869 
C 57.311284 185.350426 59.351694 180.424441 59.351694 175.288805 
C 59.351694 170.153169 57.311284 165.227184 53.679841 161.595741 
C 50.048398 157.964298 45.122413 155.923888 39.986777 155.923888 
C 34.851141 155.923888 29.925156 157.964298 26.293713 161.595741 
C 22.66227 165.227184 20.62186 170.153169 20.62186 175.288805 
C 20.62186 180.424441 22.66227 185.350426 26.293713 188.981869 
C 29.925156 192.613312 34.851141 194.653722 39.986777 194.653722 
z
" clip-path="url(#p7be6fcd439)" style="fill: #808080; stroke: #808080"/>
    <path d="M 363.515222 104.761856 
C 372.759367 104.761856 381.62614 101.089119 388.162738 94.552521 
C 394.699335 88.015924 398.372073 79.149151 398.372073 69.905006 
C 398.372073 60.660862 394.699335 51.794089 388.162738 45.257491 
C 381.62614 38.720894 372.759367 35.048156 363.515222 35.048156 
C 354.271078 35.048156 345.404305 38.720894 338.867707 45.257491 
C 332.33111 51.794089 328.658372 60.660862 328.658372 69.905006 
C 328.658372 79.149151 332.33111 88.015924 338.867707 94.552521 
C 345.404305 101.089119 354.271078 104.761856 363.515222 104.761856 
z
" clip-path="url(#p7be6fcd439)" style="fill: #808080; stroke: #808080"/>
    <path d="M 153.299788 76.793205 
C 162.543933 76.793205 171.410706 73.120467 177.947303 66.58387 
C 184.483901 60.047272 188.156638 51.180499 188.156638 41.936354 
C 188.156638 32.69221 184.483901 23.825437 177.947303 17.288839 
C 171.410706 10.752242 162.543933 7.079504 153.299788 7.079504 
C 144.055643 7.079504 135.18887 10.752242 128.652273 17.288839 
C 122.115676 23.825437 118.442938 32.69221 118.442938 41.936354 
C 118.442938 51.180499 122.115676 60.047272 128.652273 66.58387 
C 135.18887 73.120467 144.055643 76.793205 153.299788 76.793205 
z
" clip-path="url(#p7be6fcd439)" style="fill: #808080; stroke: #808080"/>
    <path d="M 232.883157 338.847817 
C 239.04592 338.847817 244.957102 336.399326 249.314834 332.041594 
C 253.672566 327.683862 256.121057 321.77268 256.121057 315.609917 
C 256.121057 309.447154 253.672566 303.535972 249.314834 299.178241 
C 244.957102 294.820509 239.04592 292.372017 232.883157 292.372017 
C 226.720394 292.372017 220.809212 294.820509 216.451481 299.178241 
C 212.093749 303.535972 209.645257 309.447154 209.645257 315.609917 
C 209.645257 321.77268 212.093749 327.683862 216.451481 332.041594 
C 220.809212 336.399326 226.720394 338.847817 232.883157 338.847817 
z
" clip-path="url(#p7be6fcd439)" style="fill: #808080; stroke: #808080"/>
    <path d="M 405.873369 150.862071 
C 415.117514 150.862071 423.984287 147.189333 430.520884 140.652736 
C 437.057481 134.116139 440.730219 125.249366 440.730219 116.005221 
C 440.730219 106.761076 437.057481 97.894303 430.520884 91.357706 
C 423.984287 84.821108 415.117514 81.148371 405.873369 81.148371 
C 396.629224 81.148371 387.762451 84.821108 381.225854 91.357706 
C 374.689256 97.894303 371.016519 106.761076 371.016519 116.005221 
C 371.016519 125.249366 374.689256 134.116139 381.225854 140.652736 
C 387.762451 147.189333 396.629224 150.862071 405.873369 150.862071 
z
" clip-path="url(#p7be6fcd439)" style="fill: #808080; stroke: #808080"/>
   </g>
   <g id="text_13">
    <g clip-path="url(#p7be6fcd439)">
     <!-- Pablo -->
     <g transform="translate(38.472469 226.041363)scale(0.12 -0.12)">
      <defs>
       <path id="DejaVuSans-50" d="M 1259 4147 
L 1259 2394 
L 2053 2394 
Q 2494 2394 2734 2622 
Q 2975 2850 2975 3272 
Q 2975 3691 2734 3919 
Q 2494 4147 2053 4147 
L 1259 4147 
z
M 628 4666 
L 2053 4666 
Q 2838 4666 3239 4311 
Q 3641 3956 3641 3272 
Q 3641 2581 3239 2228 
Q 2838 1875 2053 1875 
L 1259 1875 
L 1259 0 
L 628 0 
L 628 4666 
z
" transform="scale(0.015625)"/>
       <path id="DejaVuSans-61" d="M 2194 1759 
Q 1497 1759 1228 1600 
Q 959 1441 959 1056 
Q 959 750 1161 570 
Q 1363 391 1709 391 
Q 2188 391 2477 730 
Q 2766 1069 2766 1631 
L 2766 1759 
L 2194 1759 
z
M 3341 1997 
L 3341 0 
L 2766 0 
L 2766 531 
Q 2569 213 2275 61 
Q 1981 -91 1556 -91 
Q 1019 -91 701 211 
Q 384 513 384 1019 
Q 384 1609 779 1909 
Q 1175 2209 1959 2209 
L 2766 2209 
L 2766 2266 
Q 2766 2663 2505 2880 
Q 2244 3097 1772 3097 
Q 1472 3097 1187 3025 
Q 903 2953 641 2809 
L 641 3341 
Q 956 3463 1253 3523 
Q 1550 3584 1831 3584 
Q 2591 3584 2966 3190 
Q 3341 2797 3341 1997 
z
" transform="scale(0.015625)"/>
       <path id="DejaVuSans-62" d="M 3116 1747 
Q 3116 2381 2855 2742 
Q 2594 3103 2138 3103 
Q 1681 3103 1420 2742 
Q 1159 2381 1159 1747 
Q 1159 1113 1420 752 
Q 1681 391 2138 391 
Q 2594 391 2855 752 
Q 3116 1113 3116 1747 
z
M 1159 2969 
Q 1341 3281 1617 3432 
Q 1894 3584 2278 3584 
Q 2916 3584 3314 3078 
Q 3713 2572 3713 1747 
Q 3713 922 3314 415 
Q 2916 -91 2278 -91 
Q 1894 -91 1617 61 
Q 1341 213 1159 525 
L 1159 0 
L 581 0 
L 581 4863 
L 1159 4863 
L 1159 2969 
z
" transform="scale(0.015625)"/>
       <path id="DejaVuSans-6c" d="M 603 4863 
L 1178 4863 
L 1178 0 
L 603 0 
L 603 4863 
z
" transform="scale(0.015625)"/>
       <path id="DejaVuSans-6f" d="M 1959 3097 
Q 1497 3097 1228 2736 
Q 959 2375 959 1747 
Q 959 1119 1226 758 
Q 1494 397 1959 397 
Q 2419 397 2687 759 
Q 2956 1122 2956 1747 
Q 2956 2369 2687 2733 
Q 2419 3097 1959 3097 
z
M 1959 3584 
Q 2709 3584 3137 3096 
Q 3566 2609 3566 1747 
Q 3566 888 3137 398 
Q 2709 -91 1959 -91 
Q 1206 -91 779 398 
Q 353 888 353 1747 
Q 353 2609 779 3096 
Q 1206 3584 1959 3584 
z
" transform="scale(0.015625)"/>
      </defs>
      <use xlink:href="#DejaVuSans-50"/>
      <use xlink:href="#DejaVuSans-61" x="55.802734"/>
      <use xlink:href="#DejaVuSans-62" x="117.082031"/>
      <use xlink:href="#DejaVuSans-6c" x="180.558594"/>
      <use xlink:href="#DejaVuSans-6f" x="208.341797"/>
     </g>
    </g>
    <g clip-path="url(#p7be6fcd439)">
     <!-- Ugo -->
     <g transform="translate(42.772782 239.478738)scale(0.12 -0.12)">
      <defs>
       <path id="DejaVuSans-55" d="M 556 4666 
L 1191 4666 
L 1191 1831 
Q 1191 1081 1462 751 
Q 1734 422 2344 422 
Q 2950 422 3222 751 
Q 3494 1081 3494 1831 
L 3494 4666 
L 4128 4666 
L 4128 1753 
Q 4128 841 3676 375 
Q 3225 -91 2344 -91 
Q 1459 -91 1007 375 
Q 556 841 556 1753 
L 556 4666 
z
" transform="scale(0.015625)"/>
       <path id="DejaVuSans-67" d="M 2906 1791 
Q 2906 2416 2648 2759 
Q 2391 3103 1925 3103 
Q 1463 3103 1205 2759 
Q 947 2416 947 1791 
Q 947 1169 1205 825 
Q 1463 481 1925 481 
Q 2391 481 2648 825 
Q 2906 1169 2906 1791 
z
M 3481 434 
Q 3481 -459 3084 -895 
Q 2688 -1331 1869 -1331 
Q 1566 -1331 1297 -1286 
Q 1028 -1241 775 -1147 
L 775 -588 
Q 1028 -725 1275 -790 
Q 1522 -856 1778 -856 
Q 2344 -856 2625 -561 
Q 2906 -266 2906 331 
L 2906 616 
Q 2728 306 2450 153 
Q 2172 0 1784 0 
Q 1141 0 747 490 
Q 353 981 353 1791 
Q 353 2603 747 3093 
Q 1141 3584 1784 3584 
Q 2172 3584 2450 3431 
Q 2728 3278 2906 2969 
L 2906 3500 
L 3481 3500 
L 3481 434 
z
" transform="scale(0.015625)"/>
      </defs>
      <use xlink:href="#DejaVuSans-55"/>
      <use xlink:href="#DejaVuSans-67" x="73.193359"/>
      <use xlink:href="#DejaVuSans-6f" x="136.669922"/>
     </g>
    </g>
   </g>
   <g id="text_14">
    <g clip-path="url(#p7be6fcd439)">
     <!-- Nicco -->
     <g transform="translate(35.427724 117.299462)scale(0.12 -0.12)">
      <defs>
       <path id="DejaVuSans-4e" d="M 628 4666 
L 1478 4666 
L 3547 763 
L 3547 4666 
L 4159 4666 
L 4159 0 
L 3309 0 
L 1241 3903 
L 1241 0 
L 628 0 
L 628 4666 
z
" transform="scale(0.015625)"/>
       <path id="DejaVuSans-69" d="M 603 3500 
L 1178 3500 
L 1178 0 
L 603 0 
L 603 3500 
z
M 603 4863 
L 1178 4863 
L 1178 4134 
L 603 4134 
L 603 4863 
z
" transform="scale(0.015625)"/>
       <path id="DejaVuSans-63" d="M 3122 3366 
L 3122 2828 
Q 2878 2963 2633 3030 
Q 2388 3097 2138 3097 
Q 1578 3097 1268 2742 
Q 959 2388 959 1747 
Q 959 1106 1268 751 
Q 1578 397 2138 397 
Q 2388 397 2633 464 
Q 2878 531 3122 666 
L 3122 134 
Q 2881 22 2623 -34 
Q 2366 -91 2075 -91 
Q 1284 -91 818 406 
Q 353 903 353 1747 
Q 353 2603 823 3093 
Q 1294 3584 2113 3584 
Q 2378 3584 2631 3529 
Q 2884 3475 3122 3366 
z
" transform="scale(0.015625)"/>
      </defs>
      <use xlink:href="#DejaVuSans-4e"/>
      <use xlink:href="#DejaVuSans-69" x="74.804688"/>
      <use xlink:href="#DejaVuSans-63" x="102.587891"/>
      <use xlink:href="#DejaVuSans-63" x="157.568359"/>
      <use xlink:href="#DejaVuSans-6f" x="212.548828"/>
     </g>
    </g>
    <g clip-path="url(#p7be6fcd439)">
     <!-- Shintaro -->
     <g transform="translate(26.739911 130.736837)scale(0.12 -0.12)">
      <defs>
       <path id="DejaVuSans-53" d="M 3425 4513 
L 3425 3897 
Q 3066 4069 2747 4153 
Q 2428 4238 2131 4238 
Q 1616 4238 1336 4038 
Q 1056 3838 1056 3469 
Q 1056 3159 1242 3001 
Q 1428 2844 1947 2747 
L 2328 2669 
Q 3034 2534 3370 2195 
Q 3706 1856 3706 1288 
Q 3706 609 3251 259 
Q 2797 -91 1919 -91 
Q 1588 -91 1214 -16 
Q 841 59 441 206 
L 441 856 
Q 825 641 1194 531 
Q 1563 422 1919 422 
Q 2459 422 2753 634 
Q 3047 847 3047 1241 
Q 3047 1584 2836 1778 
Q 2625 1972 2144 2069 
L 1759 2144 
Q 1053 2284 737 2584 
Q 422 2884 422 3419 
Q 422 4038 858 4394 
Q 1294 4750 2059 4750 
Q 2388 4750 2728 4690 
Q 3069 4631 3425 4513 
z
" transform="scale(0.015625)"/>
       <path id="DejaVuSans-68" d="M 3513 2113 
L 3513 0 
L 2938 0 
L 2938 2094 
Q 2938 2591 2744 2837 
Q 2550 3084 2163 3084 
Q 1697 3084 1428 2787 
Q 1159 2491 1159 1978 
L 1159 0 
L 581 0 
L 581 4863 
L 1159 4863 
L 1159 2956 
Q 1366 3272 1645 3428 
Q 1925 3584 2291 3584 
Q 2894 3584 3203 3211 
Q 3513 2838 3513 2113 
z
" transform="scale(0.015625)"/>
       <path id="DejaVuSans-6e" d="M 3513 2113 
L 3513 0 
L 2938 0 
L 2938 2094 
Q 2938 2591 2744 2837 
Q 2550 3084 2163 3084 
Q 1697 3084 1428 2787 
Q 1159 2491 1159 1978 
L 1159 0 
L 581 0 
L 581 3500 
L 1159 3500 
L 1159 2956 
Q 1366 3272 1645 3428 
Q 1925 3584 2291 3584 
Q 2894 3584 3203 3211 
Q 3513 2838 3513 2113 
z
" transform="scale(0.015625)"/>
       <path id="DejaVuSans-74" d="M 1172 4494 
L 1172 3500 
L 2356 3500 
L 2356 3053 
L 1172 3053 
L 1172 1153 
Q 1172 725 1289 603 
Q 1406 481 1766 481 
L 2356 481 
L 2356 0 
L 1766 0 
Q 1100 0 847 248 
Q 594 497 594 1153 
L 594 3053 
L 172 3053 
L 172 3500 
L 594 3500 
L 594 4494 
L 1172 4494 
z
" transform="scale(0.015625)"/>
       <path id="DejaVuSans-72" d="M 2631 2963 
Q 2534 3019 2420 3045 
Q 2306 3072 2169 3072 
Q 1681 3072 1420 2755 
Q 1159 2438 1159 1844 
L 1159 0 
L 581 0 
L 581 3500 
L 1159 3500 
L 1159 2956 
Q 1341 3275 1631 3429 
Q 1922 3584 2338 3584 
Q 2397 3584 2469 3576 
Q 2541 3569 2628 3553 
L 2631 2963 
z
" transform="scale(0.015625)"/>
      </defs>
      <use xlink:href="#DejaVuSans-53"/>
      <use xlink:href="#DejaVuSans-68" x="63.476562"/>
      <use xlink:href="#DejaVuSans-69" x="126.855469"/>
      <use xlink:href="#DejaVuSans-6e" x="154.638672"/>
      <use xlink:href="#DejaVuSans-74" x="218.017578"/>
      <use xlink:href="#DejaVuSans-61" x="257.226562"/>
      <use xlink:href="#DejaVuSans-72" x="318.505859"/>
      <use xlink:href="#DejaVuSans-6f" x="357.369141"/>
     </g>
    </g>
   </g>
   <g id="text_15">
    <g clip-path="url(#p7be6fcd439)">
     <!-- Pablo -->
     <g transform="translate(80.228443 272.081806)scale(0.12 -0.12)">
      <use xlink:href="#DejaVuSans-50"/>
      <use xlink:href="#DejaVuSans-61" x="55.802734"/>
      <use xlink:href="#DejaVuSans-62" x="117.082031"/>
      <use xlink:href="#DejaVuSans-6c" x="180.558594"/>
      <use xlink:href="#DejaVuSans-6f" x="208.341797"/>
     </g>
    </g>
    <g clip-path="url(#p7be6fcd439)">
     <!-- Xiaoyu -->
     <g transform="translate(75.921568 285.519181)scale(0.12 -0.12)">
      <defs>
       <path id="DejaVuSans-58" d="M 403 4666 
L 1081 4666 
L 2241 2931 
L 3406 4666 
L 4084 4666 
L 2584 2425 
L 4184 0 
L 3506 0 
L 2194 1984 
L 872 0 
L 191 0 
L 1856 2491 
L 403 4666 
z
" transform="scale(0.015625)"/>
       <path id="DejaVuSans-79" d="M 2059 -325 
Q 1816 -950 1584 -1140 
Q 1353 -1331 966 -1331 
L 506 -1331 
L 506 -850 
L 844 -850 
Q 1081 -850 1212 -737 
Q 1344 -625 1503 -206 
L 1606 56 
L 191 3500 
L 800 3500 
L 1894 763 
L 2988 3500 
L 3597 3500 
L 2059 -325 
z
" transform="scale(0.015625)"/>
       <path id="DejaVuSans-75" d="M 544 1381 
L 544 3500 
L 1119 3500 
L 1119 1403 
Q 1119 906 1312 657 
Q 1506 409 1894 409 
Q 2359 409 2629 706 
Q 2900 1003 2900 1516 
L 2900 3500 
L 3475 3500 
L 3475 0 
L 2900 0 
L 2900 538 
Q 2691 219 2414 64 
Q 2138 -91 1772 -91 
Q 1169 -91 856 284 
Q 544 659 544 1381 
z
M 1991 3584 
L 1991 3584 
z
" transform="scale(0.015625)"/>
      </defs>
      <use xlink:href="#DejaVuSans-58"/>
      <use xlink:href="#DejaVuSans-69" x="68.505859"/>
      <use xlink:href="#DejaVuSans-61" x="96.289062"/>
      <use xlink:href="#DejaVuSans-6f" x="157.568359"/>
      <use xlink:href="#DejaVuSans-79" x="218.75"/>
      <use xlink:href="#DejaVuSans-75" x="277.929688"/>
     </g>
    </g>
   </g>
   <g id="text_16">
    <g clip-path="url(#p7be6fcd439)">
     <!-- Nicco -->
     <g transform="translate(350.843687 268.546986)scale(0.12 -0.12)">
      <use xlink:href="#DejaVuSans-4e"/>
      <use xlink:href="#DejaVuSans-69" x="74.804688"/>
      <use xlink:href="#DejaVuSans-63" x="102.587891"/>
      <use xlink:href="#DejaVuSans-63" x="157.568359"/>
      <use xlink:href="#DejaVuSans-6f" x="212.548828"/>
     </g>
    </g>
    <g clip-path="url(#p7be6fcd439)">
     <!-- Leo -->
     <g transform="translate(356.667437 281.984361)scale(0.12 -0.12)">
      <defs>
       <path id="DejaVuSans-4c" d="M 628 4666 
L 1259 4666 
L 1259 531 
L 3531 531 
L 3531 0 
L 628 0 
L 628 4666 
z
" transform="scale(0.015625)"/>
       <path id="DejaVuSans-65" d="M 3597 1894 
L 3597 1613 
L 953 1613 
Q 991 1019 1311 708 
Q 1631 397 2203 397 
Q 2534 397 2845 478 
Q 3156 559 3463 722 
L 3463 178 
Q 3153 47 2828 -22 
Q 2503 -91 2169 -91 
Q 1331 -91 842 396 
Q 353 884 353 1716 
Q 353 2575 817 3079 
Q 1281 3584 2069 3584 
Q 2775 3584 3186 3129 
Q 3597 2675 3597 1894 
z
M 3022 2063 
Q 3016 2534 2758 2815 
Q 2500 3097 2075 3097 
Q 1594 3097 1305 2825 
Q 1016 2553 972 2059 
L 3022 2063 
z
" transform="scale(0.015625)"/>
      </defs>
      <use xlink:href="#DejaVuSans-4c"/>
      <use xlink:href="#DejaVuSans-65" x="53.962891"/>
      <use xlink:href="#DejaVuSans-6f" x="115.486328"/>
     </g>
    </g>
   </g>
   <g id="text_17">
    <g clip-path="url(#p7be6fcd439)">
     <!-- Leo -->
     <g transform="translate(410.211973 167.117218)scale(0.12 -0.12)">
      <use xlink:href="#DejaVuSans-4c"/>
      <use xlink:href="#DejaVuSans-65" x="53.962891"/>
      <use xlink:href="#DejaVuSans-6f" x="115.486328"/>
     </g>
    </g>
    <g clip-path="url(#p7be6fcd439)">
     <!-- Shintaro -->
     <g transform="translate(395.700411 180.554593)scale(0.12 -0.12)">
      <use xlink:href="#DejaVuSans-53"/>
      <use xlink:href="#DejaVuSans-68" x="63.476562"/>
      <use xlink:href="#DejaVuSans-69" x="126.855469"/>
      <use xlink:href="#DejaVuSans-6e" x="154.638672"/>
      <use xlink:href="#DejaVuSans-74" x="218.017578"/>
      <use xlink:href="#DejaVuSans-61" x="257.226562"/>
      <use xlink:href="#DejaVuSans-72" x="318.505859"/>
      <use xlink:href="#DejaVuSans-6f" x="357.369141"/>
     </g>
    </g>
   </g>
   <g id="text_18">
    <g clip-path="url(#p7be6fcd439)">
     <!-- Pablo -->
     <g transform="translate(76.402039 70.844916)scale(0.12 -0.12)">
      <use xlink:href="#DejaVuSans-50"/>
      <use xlink:href="#DejaVuSans-61" x="55.802734"/>
      <use xlink:href="#DejaVuSans-62" x="117.082031"/>
      <use xlink:href="#DejaVuSans-6c" x="180.558594"/>
      <use xlink:href="#DejaVuSans-6f" x="208.341797"/>
     </g>
    </g>
    <g clip-path="url(#p7be6fcd439)">
     <!-- Leo -->
     <g transform="translate(81.972664 84.282291)scale(0.12 -0.12)">
      <use xlink:href="#DejaVuSans-4c"/>
      <use xlink:href="#DejaVuSans-65" x="53.962891"/>
      <use xlink:href="#DejaVuSans-6f" x="115.486328"/>
     </g>
    </g>
   </g>
   <g id="text_19">
    <g clip-path="url(#p7be6fcd439)">
     <!-- Shintaro -->
     <g transform="translate(280.419304 299.616097)scale(0.12 -0.12)">
      <use xlink:href="#DejaVuSans-53"/>
      <use xlink:href="#DejaVuSans-68" x="63.476562"/>
      <use xlink:href="#DejaVuSans-69" x="126.855469"/>
      <use xlink:href="#DejaVuSans-6e" x="154.638672"/>
      <use xlink:href="#DejaVuSans-74" x="218.017578"/>
      <use xlink:href="#DejaVuSans-61" x="257.226562"/>
      <use xlink:href="#DejaVuSans-72" x="318.505859"/>
      <use xlink:href="#DejaVuSans-6f" x="357.369141"/>
     </g>
    </g>
    <g clip-path="url(#p7be6fcd439)">
     <!-- Xiaoyu -->
     <g transform="translate(285.053366 313.053472)scale(0.12 -0.12)">
      <use xlink:href="#DejaVuSans-58"/>
      <use xlink:href="#DejaVuSans-69" x="68.505859"/>
      <use xlink:href="#DejaVuSans-61" x="96.289062"/>
      <use xlink:href="#DejaVuSans-6f" x="157.568359"/>
      <use xlink:href="#DejaVuSans-79" x="218.75"/>
      <use xlink:href="#DejaVuSans-75" x="277.929688"/>
     </g>
    </g>
   </g>
   <g id="text_20">
    <g clip-path="url(#p7be6fcd439)">
     <!-- Leo -->
     <g transform="translate(149.061448 301.515631)scale(0.12 -0.12)">
      <use xlink:href="#DejaVuSans-4c"/>
      <use xlink:href="#DejaVuSans-65" x="53.962891"/>
      <use xlink:href="#DejaVuSans-6f" x="115.486328"/>
     </g>
    </g>
    <g clip-path="url(#p7be6fcd439)">
     <!-- Xiaoyu -->
     <g transform="translate(139.183948 314.953006)scale(0.12 -0.12)">
      <use xlink:href="#DejaVuSans-58"/>
      <use xlink:href="#DejaVuSans-69" x="68.505859"/>
      <use xlink:href="#DejaVuSans-61" x="96.289062"/>
      <use xlink:href="#DejaVuSans-6f" x="157.568359"/>
      <use xlink:href="#DejaVuSans-79" x="218.75"/>
      <use xlink:href="#DejaVuSans-75" x="277.929688"/>
     </g>
    </g>
   </g>
   <g id="text_21">
    <g clip-path="url(#p7be6fcd439)">
     <!-- Pablo -->
     <g transform="translate(391.66851 221.841253)scale(0.12 -0.12)">
      <use xlink:href="#DejaVuSans-50"/>
      <use xlink:href="#DejaVuSans-61" x="55.802734"/>
      <use xlink:href="#DejaVuSans-62" x="117.082031"/>
      <use xlink:href="#DejaVuSans-6c" x="180.558594"/>
      <use xlink:href="#DejaVuSans-6f" x="208.341797"/>
     </g>
    </g>
    <g clip-path="url(#p7be6fcd439)">
     <!-- Shintaro -->
     <g transform="translate(382.727572 235.278628)scale(0.12 -0.12)">
      <use xlink:href="#DejaVuSans-53"/>
      <use xlink:href="#DejaVuSans-68" x="63.476562"/>
      <use xlink:href="#DejaVuSans-69" x="126.855469"/>
      <use xlink:href="#DejaVuSans-6e" x="154.638672"/>
      <use xlink:href="#DejaVuSans-74" x="218.017578"/>
      <use xlink:href="#DejaVuSans-61" x="257.226562"/>
      <use xlink:href="#DejaVuSans-72" x="318.505859"/>
      <use xlink:href="#DejaVuSans-6f" x="357.369141"/>
     </g>
    </g>
   </g>
   <g id="text_22">
    <g clip-path="url(#p7be6fcd439)">
     <!-- Ugo -->
     <g transform="translate(287.945369 37.335088)scale(0.12 -0.12)">
      <use xlink:href="#DejaVuSans-55"/>
      <use xlink:href="#DejaVuSans-67" x="73.193359"/>
      <use xlink:href="#DejaVuSans-6f" x="136.669922"/>
     </g>
    </g>
    <g clip-path="url(#p7be6fcd439)">
     <!-- Nicco -->
     <g transform="translate(283.391931 50.772463)scale(0.12 -0.12)">
      <use xlink:href="#DejaVuSans-4e"/>
      <use xlink:href="#DejaVuSans-69" x="74.804688"/>
      <use xlink:href="#DejaVuSans-63" x="102.587891"/>
      <use xlink:href="#DejaVuSans-63" x="157.568359"/>
      <use xlink:href="#DejaVuSans-6f" x="212.548828"/>
     </g>
    </g>
   </g>
   <g id="text_23">
    <g clip-path="url(#p7be6fcd439)">
     <!-- Mathieu p -->
     <g transform="translate(196.605883 26.582645)scale(0.12 -0.12)">
      <defs>
       <path id="DejaVuSans-4d" d="M 628 4666 
L 1569 4666 
L 2759 1491 
L 3956 4666 
L 4897 4666 
L 4897 0 
L 4281 0 
L 4281 4097 
L 3078 897 
L 2444 897 
L 1241 4097 
L 1241 0 
L 628 0 
L 628 4666 
z
" transform="scale(0.015625)"/>
       <path id="DejaVuSans-20" transform="scale(0.015625)"/>
       <path id="DejaVuSans-70" d="M 1159 525 
L 1159 -1331 
L 581 -1331 
L 581 3500 
L 1159 3500 
L 1159 2969 
Q 1341 3281 1617 3432 
Q 1894 3584 2278 3584 
Q 2916 3584 3314 3078 
Q 3713 2572 3713 1747 
Q 3713 922 3314 415 
Q 2916 -91 2278 -91 
Q 1894 -91 1617 61 
Q 1341 213 1159 525 
z
M 3116 1747 
Q 3116 2381 2855 2742 
Q 2594 3103 2138 3103 
Q 1681 3103 1420 2742 
Q 1159 2381 1159 1747 
Q 1159 1113 1420 752 
Q 1681 391 2138 391 
Q 2594 391 2855 752 
Q 3116 1113 3116 1747 
z
" transform="scale(0.015625)"/>
      </defs>
      <use xlink:href="#DejaVuSans-4d"/>
      <use xlink:href="#DejaVuSans-61" x="86.279297"/>
      <use xlink:href="#DejaVuSans-74" x="147.558594"/>
      <use xlink:href="#DejaVuSans-68" x="186.767578"/>
      <use xlink:href="#DejaVuSans-69" x="250.146484"/>
      <use xlink:href="#DejaVuSans-65" x="277.929688"/>
      <use xlink:href="#DejaVuSans-75" x="339.453125"/>
      <use xlink:href="#DejaVuSans-20" x="402.832031"/>
      <use xlink:href="#DejaVuSans-70" x="434.619141"/>
     </g>
    </g>
    <g clip-path="url(#p7be6fcd439)">
     <!-- Shintaro -->
     <g transform="translate(201.378696 40.02002)scale(0.12 -0.12)">
      <use xlink:href="#DejaVuSans-53"/>
      <use xlink:href="#DejaVuSans-68" x="63.476562"/>
      <use xlink:href="#DejaVuSans-69" x="126.855469"/>
      <use xlink:href="#DejaVuSans-6e" x="154.638672"/>
      <use xlink:href="#DejaVuSans-74" x="218.017578"/>
      <use xlink:href="#DejaVuSans-61" x="257.226562"/>
      <use xlink:href="#DejaVuSans-72" x="318.505859"/>
      <use xlink:href="#DejaVuSans-6f" x="357.369141"/>
     </g>
    </g>
   </g>
   <g id="text_24">
    <g clip-path="url(#p7be6fcd439)">
     <!-- Pablo -->
     <g transform="translate(23.814902 171.881368)scale(0.12 -0.12)">
      <use xlink:href="#DejaVuSans-50"/>
      <use xlink:href="#DejaVuSans-61" x="55.802734"/>
      <use xlink:href="#DejaVuSans-62" x="117.082031"/>
      <use xlink:href="#DejaVuSans-6c" x="180.558594"/>
      <use xlink:href="#DejaVuSans-6f" x="208.341797"/>
     </g>
    </g>
    <g clip-path="url(#p7be6fcd439)">
     <!-- Nicco -->
     <g transform="translate(23.561777 185.318743)scale(0.12 -0.12)">
      <use xlink:href="#DejaVuSans-4e"/>
      <use xlink:href="#DejaVuSans-69" x="74.804688"/>
      <use xlink:href="#DejaVuSans-63" x="102.587891"/>
      <use xlink:href="#DejaVuSans-63" x="157.568359"/>
      <use xlink:href="#DejaVuSans-6f" x="212.548828"/>
     </g>
    </g>
   </g>
   <g id="text_25">
    <g clip-path="url(#p7be6fcd439)">
     <!-- Mathieu p -->
     <g transform="translate(333.629597 66.497569)scale(0.12 -0.12)">
      <use xlink:href="#DejaVuSans-4d"/>
      <use xlink:href="#DejaVuSans-61" x="86.279297"/>
      <use xlink:href="#DejaVuSans-74" x="147.558594"/>
      <use xlink:href="#DejaVuSans-68" x="186.767578"/>
      <use xlink:href="#DejaVuSans-69" x="250.146484"/>
      <use xlink:href="#DejaVuSans-65" x="277.929688"/>
      <use xlink:href="#DejaVuSans-75" x="339.453125"/>
      <use xlink:href="#DejaVuSans-20" x="402.832031"/>
      <use xlink:href="#DejaVuSans-70" x="434.619141"/>
     </g>
    </g>
    <g clip-path="url(#p7be6fcd439)">
     <!-- Leo -->
     <g transform="translate(352.913972 79.934944)scale(0.12 -0.12)">
      <use xlink:href="#DejaVuSans-4c"/>
      <use xlink:href="#DejaVuSans-65" x="53.962891"/>
      <use xlink:href="#DejaVuSans-6f" x="115.486328"/>
     </g>
    </g>
   </g>
   <g id="text_26">
    <g clip-path="url(#p7be6fcd439)">
     <!-- Pablo -->
     <g transform="translate(137.127913 38.528917)scale(0.12 -0.12)">
      <use xlink:href="#DejaVuSans-50"/>
      <use xlink:href="#DejaVuSans-61" x="55.802734"/>
      <use xlink:href="#DejaVuSans-62" x="117.082031"/>
      <use xlink:href="#DejaVuSans-6c" x="180.558594"/>
      <use xlink:href="#DejaVuSans-6f" x="208.341797"/>
     </g>
    </g>
    <g clip-path="url(#p7be6fcd439)">
     <!-- Mathieu p -->
     <g transform="translate(123.414163 51.966292)scale(0.12 -0.12)">
      <use xlink:href="#DejaVuSans-4d"/>
      <use xlink:href="#DejaVuSans-61" x="86.279297"/>
      <use xlink:href="#DejaVuSans-74" x="147.558594"/>
      <use xlink:href="#DejaVuSans-68" x="186.767578"/>
      <use xlink:href="#DejaVuSans-69" x="250.146484"/>
      <use xlink:href="#DejaVuSans-65" x="277.929688"/>
      <use xlink:href="#DejaVuSans-75" x="339.453125"/>
      <use xlink:href="#DejaVuSans-20" x="402.832031"/>
      <use xlink:href="#DejaVuSans-70" x="434.619141"/>
     </g>
    </g>
   </g>
   <g id="text_27">
    <g clip-path="url(#p7be6fcd439)">
     <!-- Ugo -->
     <g transform="translate(221.011595 312.20248)scale(0.12 -0.12)">
      <use xlink:href="#DejaVuSans-55"/>
      <use xlink:href="#DejaVuSans-67" x="73.193359"/>
      <use xlink:href="#DejaVuSans-6f" x="136.669922"/>
     </g>
    </g>
    <g clip-path="url(#p7be6fcd439)">
     <!-- Xiaoyu -->
     <g transform="translate(212.404407 325.639855)scale(0.12 -0.12)">
      <use xlink:href="#DejaVuSans-58"/>
      <use xlink:href="#DejaVuSans-69" x="68.505859"/>
      <use xlink:href="#DejaVuSans-61" x="96.289062"/>
      <use xlink:href="#DejaVuSans-6f" x="157.568359"/>
      <use xlink:href="#DejaVuSans-79" x="218.75"/>
      <use xlink:href="#DejaVuSans-75" x="277.929688"/>
     </g>
    </g>
   </g>
   <g id="text_28">
    <g clip-path="url(#p7be6fcd439)">
     <!-- Mathieu p -->
     <g transform="translate(375.987744 112.597783)scale(0.12 -0.12)">
      <use xlink:href="#DejaVuSans-4d"/>
      <use xlink:href="#DejaVuSans-61" x="86.279297"/>
      <use xlink:href="#DejaVuSans-74" x="147.558594"/>
      <use xlink:href="#DejaVuSans-68" x="186.767578"/>
      <use xlink:href="#DejaVuSans-69" x="250.146484"/>
      <use xlink:href="#DejaVuSans-65" x="277.929688"/>
      <use xlink:href="#DejaVuSans-75" x="339.453125"/>
      <use xlink:href="#DejaVuSans-20" x="402.832031"/>
      <use xlink:href="#DejaVuSans-70" x="434.619141"/>
     </g>
    </g>
    <g clip-path="url(#p7be6fcd439)">
     <!-- Xiaoyu -->
     <g transform="translate(385.394619 126.035158)scale(0.12 -0.12)">
      <use xlink:href="#DejaVuSans-58"/>
      <use xlink:href="#DejaVuSans-69" x="68.505859"/>
      <use xlink:href="#DejaVuSans-61" x="96.289062"/>
      <use xlink:href="#DejaVuSans-6f" x="157.568359"/>
      <use xlink:href="#DejaVuSans-79" x="218.75"/>
      <use xlink:href="#DejaVuSans-75" x="277.929688"/>
     </g>
    </g>
   </g>
  </g>
 </g>
 <defs>
  <clipPath id="p7be6fcd439">
   <rect x="0" y="0" width="460.8" height="345.6"/>
  </clipPath>
 </defs>
</svg>
