<?xml version="1.0" encoding="utf-8" standalone="no"?>
<!DOCTYPE svg PUBLIC "-//W3C//DTD SVG 1.1//EN"
  "http://www.w3.org/Graphics/SVG/1.1/DTD/svg11.dtd">
<svg xmlns:xlink="http://www.w3.org/1999/xlink" width="460.8pt" height="345.6pt" viewBox="0 0 460.8 345.6" xmlns="http://www.w3.org/2000/svg" version="1.1">
 <metadata>
  <rdf:RDF xmlns:dc="http://purl.org/dc/elements/1.1/" xmlns:cc="http://creativecommons.org/ns#" xmlns:rdf="http://www.w3.org/1999/02/22-rdf-syntax-ns#">
   <cc:Work>
    <dc:type rdf:resource="http://purl.org/dc/dcmitype/StillImage"/>
    <dc:date>2025-06-10T12:42:12.805890</dc:date>
    <dc:format>image/svg+xml</dc:format>
    <dc:creator>
     <cc:Agent>
      <dc:title>Matplotlib v3.5.1, https://matplotlib.org/</dc:title>
     </cc:Agent>
    </dc:creator>
   </cc:Work>
  </rdf:RDF>
 </metadata>
 <defs>
  <style type="text/css">*{stroke-linejoin: round; stroke-linecap: butt}</style>
 </defs>
 <g id="figure_1">
  <g id="patch_1">
   <path d="M 0 345.6 
L 460.8 345.6 
L 460.8 0 
L 0 0 
z
" style="fill: #ffffff"/>
  </g>
  <g id="axes_1">
   <g id="patch_2">
    <path d="M 369.890535 286.35093 
Q 362.232666 292.989097 355.419609 298.894944 
" clip-path="url(#p92349c2ec2)" style="fill: none; stroke: #000000; stroke-linecap: round"/>
    <path d="M 359.752115 297.786165 
L 355.419609 298.894944 
L 357.132089 294.763672 
L 359.752115 297.786165 
z
" clip-path="url(#p92349c2ec2)" style="stroke: #000000; stroke-linecap: round"/>
   </g>
   <g id="patch_3">
    <path d="M 390.7357 288.505719 
Q 390.556023 278.549338 390.396519 269.710809 
" clip-path="url(#p92349c2ec2)" style="fill: none; stroke: #000000; stroke-linecap: round"/>
    <path d="M 388.469018 273.746245 
L 390.396519 269.710809 
L 392.468367 273.674071 
L 388.469018 273.746245 
z
" clip-path="url(#p92349c2ec2)" style="stroke: #000000; stroke-linecap: round"/>
   </g>
   <g id="patch_4">
    <path d="M 406.224551 246.593332 
Q 413.518887 236.467728 420.15972 227.249281 
" clip-path="url(#p92349c2ec2)" style="fill: none; stroke: #000000; stroke-linecap: round"/>
    <path d="M 416.198906 229.325804 
L 420.15972 227.249281 
L 419.44445 231.663846 
L 416.198906 229.325804 
z
" clip-path="url(#p92349c2ec2)" style="stroke: #000000; stroke-linecap: round"/>
   </g>
   <g id="patch_5">
    <path d="M 53.451277 40.500688 
Q 46.719027 43.332441 41.017354 45.730708 
" clip-path="url(#p92349c2ec2)" style="fill: none; stroke: #000000; stroke-linecap: round"/>
    <path d="M 45.479904 46.023372 
L 41.017354 45.730708 
L 43.929015 42.336266 
L 45.479904 46.023372 
z
" clip-path="url(#p92349c2ec2)" style="stroke: #000000; stroke-linecap: round"/>
   </g>
   <g id="patch_6">
    <path d="M 366.372422 304.77207 
Q 360.473609 302.199667 355.599622 300.074178 
" clip-path="url(#p92349c2ec2)" style="fill: none; stroke: #000000; stroke-linecap: round"/>
    <path d="M 358.466685 303.506371 
L 355.599622 300.074178 
L 360.065614 299.839844 
L 358.466685 303.506371 
z
" clip-path="url(#p92349c2ec2)" style="stroke: #000000; stroke-linecap: round"/>
   </g>
   <g id="text_1">
    <g id="patch_7">
     <path d="M 371.602755 295.241004 
L 383.619527 284.824355 
Q 385.886396 282.859336 383.921377 280.592466 
L 377.582143 273.279449 
Q 375.617124 271.012579 373.350254 272.977598 
L 361.333482 283.394248 
Q 359.066612 285.359267 361.031631 287.626137 
L 367.370866 294.939154 
Q 369.335885 297.206023 371.602755 295.241004 
z
" clip-path="url(#p92349c2ec2)" style="fill: #ffffff; stroke: #ffffff; stroke-linejoin: miter"/>
    </g>
    <g clip-path="url(#p92349c2ec2)">
     <!-- 0.7 -->
     <g transform="translate(368.275527 291.402674)rotate(-40.920138)scale(0.1 -0.1)">
      <defs>
       <path id="DejaVuSans-30" d="M 2034 4250 
Q 1547 4250 1301 3770 
Q 1056 3291 1056 2328 
Q 1056 1369 1301 889 
Q 1547 409 2034 409 
Q 2525 409 2770 889 
Q 3016 1369 3016 2328 
Q 3016 3291 2770 3770 
Q 2525 4250 2034 4250 
z
M 2034 4750 
Q 2819 4750 3233 4129 
Q 3647 3509 3647 2328 
Q 3647 1150 3233 529 
Q 2819 -91 2034 -91 
Q 1250 -91 836 529 
Q 422 1150 422 2328 
Q 422 3509 836 4129 
Q 1250 4750 2034 4750 
z
" transform="scale(0.015625)"/>
       <path id="DejaVuSans-2e" d="M 684 794 
L 1344 794 
L 1344 0 
L 684 0 
L 684 794 
z
" transform="scale(0.015625)"/>
       <path id="DejaVuSans-37" d="M 525 4666 
L 3525 4666 
L 3525 4397 
L 1831 0 
L 1172 0 
L 2766 4134 
L 525 4134 
L 525 4666 
z
" transform="scale(0.015625)"/>
      </defs>
      <use xlink:href="#DejaVuSans-30"/>
      <use xlink:href="#DejaVuSans-2e" x="63.623047"/>
      <use xlink:href="#DejaVuSans-37" x="95.410156"/>
     </g>
    </g>
   </g>
   <g id="text_2">
    <g id="patch_8">
     <path d="M 382.76193 281.111937 
L 383.16368 303.373937 
Q 383.21781 306.373449 386.217322 306.319318 
L 395.893871 306.144691 
Q 398.893383 306.090561 398.839252 303.091049 
L 398.437502 280.829049 
Q 398.383372 277.829537 395.38386 277.883668 
L 385.707311 278.058295 
Q 382.707799 278.112425 382.76193 281.111937 
z
" clip-path="url(#p92349c2ec2)" style="fill: #ffffff; stroke: #ffffff; stroke-linejoin: miter"/>
    </g>
    <g clip-path="url(#p92349c2ec2)">
     <!-- 0.67 -->
     <g transform="translate(387.84079 281.020282)rotate(-271.033873)scale(0.1 -0.1)">
      <defs>
       <path id="DejaVuSans-36" d="M 2113 2584 
Q 1688 2584 1439 2293 
Q 1191 2003 1191 1497 
Q 1191 994 1439 701 
Q 1688 409 2113 409 
Q 2538 409 2786 701 
Q 3034 994 3034 1497 
Q 3034 2003 2786 2293 
Q 2538 2584 2113 2584 
z
M 3366 4563 
L 3366 3988 
Q 3128 4100 2886 4159 
Q 2644 4219 2406 4219 
Q 1781 4219 1451 3797 
Q 1122 3375 1075 2522 
Q 1259 2794 1537 2939 
Q 1816 3084 2150 3084 
Q 2853 3084 3261 2657 
Q 3669 2231 3669 1497 
Q 3669 778 3244 343 
Q 2819 -91 2113 -91 
Q 1303 -91 875 529 
Q 447 1150 447 2328 
Q 447 3434 972 4092 
Q 1497 4750 2381 4750 
Q 2619 4750 2861 4703 
Q 3103 4656 3366 4563 
z
" transform="scale(0.015625)"/>
      </defs>
      <use xlink:href="#DejaVuSans-30"/>
      <use xlink:href="#DejaVuSans-2e" x="63.623047"/>
      <use xlink:href="#DejaVuSans-36" x="95.410156"/>
      <use xlink:href="#DejaVuSans-37" x="159.033203"/>
     </g>
    </g>
   </g>
   <g id="text_3">
    <g id="patch_9">
     <path d="M 407.307242 258.501726 
L 416.602787 245.598151 
Q 418.356319 243.163993 415.92216 241.410461 
L 408.069464 235.753495 
Q 405.635306 233.999963 403.881774 236.434122 
L 394.58623 249.337696 
Q 392.832698 251.771854 395.266856 253.525386 
L 403.119552 259.182352 
Q 405.55371 260.935884 407.307242 258.501726 
z
" clip-path="url(#p92349c2ec2)" style="fill: #ffffff; stroke: #ffffff; stroke-linejoin: miter"/>
    </g>
    <g clip-path="url(#p92349c2ec2)">
     <!-- 0.8 -->
     <g transform="translate(403.185654 255.532595)rotate(-54.231578)scale(0.1 -0.1)">
      <defs>
       <path id="DejaVuSans-38" d="M 2034 2216 
Q 1584 2216 1326 1975 
Q 1069 1734 1069 1313 
Q 1069 891 1326 650 
Q 1584 409 2034 409 
Q 2484 409 2743 651 
Q 3003 894 3003 1313 
Q 3003 1734 2745 1975 
Q 2488 2216 2034 2216 
z
M 1403 2484 
Q 997 2584 770 2862 
Q 544 3141 544 3541 
Q 544 4100 942 4425 
Q 1341 4750 2034 4750 
Q 2731 4750 3128 4425 
Q 3525 4100 3525 3541 
Q 3525 3141 3298 2862 
Q 3072 2584 2669 2484 
Q 3125 2378 3379 2068 
Q 3634 1759 3634 1313 
Q 3634 634 3220 271 
Q 2806 -91 2034 -91 
Q 1263 -91 848 271 
Q 434 634 434 1313 
Q 434 1759 690 2068 
Q 947 2378 1403 2484 
z
M 1172 3481 
Q 1172 3119 1398 2916 
Q 1625 2713 2034 2713 
Q 2441 2713 2670 2916 
Q 2900 3119 2900 3481 
Q 2900 3844 2670 4047 
Q 2441 4250 2034 4250 
Q 1625 4250 1398 4047 
Q 1172 3844 1172 3481 
z
" transform="scale(0.015625)"/>
      </defs>
      <use xlink:href="#DejaVuSans-30"/>
      <use xlink:href="#DejaVuSans-2e" x="63.623047"/>
      <use xlink:href="#DejaVuSans-38" x="95.410156"/>
     </g>
    </g>
   </g>
   <g id="text_4">
    <g id="patch_10">
     <path d="M 54.924812 48.385183 
L 69.583936 42.219189 
Q 72.349264 41.056023 71.186098 38.290694 
L 67.433674 29.369628 
Q 66.270508 26.604299 63.505179 27.767466 
L 48.846056 33.93346 
Q 46.080727 35.096626 47.243893 37.861955 
L 50.996317 46.783021 
Q 52.159483 49.54835 54.924812 48.385183 
z
" clip-path="url(#p92349c2ec2)" style="fill: #ffffff; stroke: #ffffff; stroke-linejoin: miter"/>
    </g>
    <g clip-path="url(#p92349c2ec2)">
     <!-- 0.6 -->
     <g transform="translate(52.955305 43.702848)rotate(-22.81284)scale(0.1 -0.1)">
      <use xlink:href="#DejaVuSans-30"/>
      <use xlink:href="#DejaVuSans-2e" x="63.623047"/>
      <use xlink:href="#DejaVuSans-36" x="95.410156"/>
     </g>
    </g>
   </g>
   <g id="text_5">
    <g id="patch_11">
     <path d="M 362.475913 311.624878 
L 377.053224 317.981873 
Q 379.80312 319.18107 381.002317 316.431175 
L 384.870978 307.559897 
Q 386.070175 304.810001 383.32028 303.610804 
L 368.742969 297.253809 
Q 365.993073 296.054611 364.793876 298.804507 
L 360.925215 307.675785 
Q 359.726018 310.42568 362.475913 311.624878 
z
" clip-path="url(#p92349c2ec2)" style="fill: #ffffff; stroke: #ffffff; stroke-linejoin: miter"/>
    </g>
    <g clip-path="url(#p92349c2ec2)">
     <!-- 0.6 -->
     <g transform="translate(364.506429 306.968674)rotate(-336.438546)scale(0.1 -0.1)">
      <use xlink:href="#DejaVuSans-30"/>
      <use xlink:href="#DejaVuSans-2e" x="63.623047"/>
      <use xlink:href="#DejaVuSans-36" x="95.410156"/>
     </g>
    </g>
   </g>
   <g id="PathCollection_1">
    <path d="M 390.376346 295.70384 
C 397.566236 295.70384 404.462615 292.847267 409.546635 287.763246 
C 414.630655 282.679226 417.487229 275.782847 417.487229 268.592957 
C 417.487229 261.403067 414.630655 254.506688 409.546635 249.422667 
C 404.462615 244.338647 397.566236 241.482074 390.376346 241.482074 
C 383.186455 241.482074 376.290076 244.338647 371.206056 249.422667 
C 366.122036 254.506688 363.265462 261.403067 363.265462 268.592957 
C 363.265462 275.782847 366.122036 282.679226 371.206056 287.763246 
C 376.290076 292.847267 383.186455 295.70384 390.376346 295.70384 
z
" clip-path="url(#p92349c2ec2)" style="fill: #808080; stroke: #808080"/>
    <path d="M 354.574796 326.738147 
C 361.764687 326.738147 368.661066 323.881573 373.745086 318.797553 
C 378.829106 313.713533 381.68568 306.817154 381.68568 299.627263 
C 381.68568 292.437373 378.829106 285.540994 373.745086 280.456974 
C 368.661066 275.372954 361.764687 272.51638 354.574796 272.51638 
C 347.384906 272.51638 340.488527 275.372954 335.404507 280.456974 
C 330.320487 285.540994 327.463913 292.437373 327.463913 299.627263 
C 327.463913 306.817154 330.320487 313.713533 335.404507 318.797553 
C 340.488527 323.881573 347.384906 326.738147 354.574796 326.738147 
z
" clip-path="url(#p92349c2ec2)" style="fill: #808080; stroke: #808080"/>
    <path d="M 39.986777 73.275078 
C 47.176667 73.275078 54.073046 70.418504 59.157066 65.334484 
C 64.241087 60.250464 67.09766 53.354085 67.09766 46.164194 
C 67.09766 38.974304 64.241087 32.077925 59.157066 26.993905 
C 54.073046 21.909885 47.176667 19.053311 39.986777 19.053311 
C 32.796887 19.053311 25.900508 21.909885 20.816487 26.993905 
C 15.732467 32.077925 12.875893 38.974304 12.875893 46.164194 
C 12.875893 53.354085 15.732467 60.250464 20.816487 65.334484 
C 25.900508 70.418504 32.796887 73.275078 39.986777 73.275078 
z
" clip-path="url(#p92349c2ec2)" style="fill: #808080; stroke: #808080"/>
    <path d="M 78.439344 57.100966 
C 85.629234 57.100966 92.525613 54.244392 97.609634 49.160372 
C 102.693654 44.076352 105.550227 37.179973 105.550227 29.990083 
C 105.550227 22.800192 102.693654 15.903813 97.609634 10.819793 
C 92.525613 5.735773 85.629234 2.879199 78.439344 2.879199 
C 71.249454 2.879199 64.353075 5.735773 59.269054 10.819793 
C 54.185034 15.903813 51.328461 22.800192 51.328461 29.990083 
C 51.328461 37.179973 54.185034 44.076352 59.269054 49.160372 
C 64.353075 54.244392 71.249454 57.100966 78.439344 57.100966 
z
" clip-path="url(#p92349c2ec2)" style="fill: #808080; stroke: #808080"/>
    <path d="M 391.224835 342.720801 
C 398.414725 342.720801 405.311104 339.864227 410.395124 334.780207 
C 415.479144 329.696187 418.335718 322.799808 418.335718 315.609917 
C 418.335718 308.420027 415.479144 301.523648 410.395124 296.439628 
C 405.311104 291.355608 398.414725 288.499034 391.224835 288.499034 
C 384.034944 288.499034 377.138565 291.355608 372.054545 296.439628 
C 366.970525 301.523648 364.113951 308.420027 364.113951 315.609917 
C 364.113951 322.799808 366.970525 329.696187 372.054545 334.780207 
C 377.138565 339.864227 384.034944 342.720801 391.224835 342.720801 
z
" clip-path="url(#p92349c2ec2)" style="fill: #808080; stroke: #808080"/>
    <path d="M 420.813223 253.453007 
C 428.003113 253.453007 434.899492 250.596433 439.983513 245.512413 
C 445.067533 240.428393 447.924107 233.532014 447.924107 226.342124 
C 447.924107 219.152233 445.067533 212.255854 439.983513 207.171834 
C 434.899492 202.087814 428.003113 199.23124 420.813223 199.23124 
C 413.623333 199.23124 406.726954 202.087814 401.642934 207.171834 
C 396.558913 212.255854 393.70234 219.152233 393.70234 226.342124 
C 393.70234 233.532014 396.558913 240.428393 401.642934 245.512413 
C 406.726954 250.596433 413.623333 253.453007 420.813223 253.453007 
z
" clip-path="url(#p92349c2ec2)" style="fill: #808080; stroke: #808080"/>
   </g>
   <g id="text_6">
    <g clip-path="url(#p92349c2ec2)">
     <!-- A and B -->
     <g transform="translate(367.053221 271.904207)scale(0.12 -0.12)">
      <defs>
       <path id="DejaVuSans-41" d="M 2188 4044 
L 1331 1722 
L 3047 1722 
L 2188 4044 
z
M 1831 4666 
L 2547 4666 
L 4325 0 
L 3669 0 
L 3244 1197 
L 1141 1197 
L 716 0 
L 50 0 
L 1831 4666 
z
" transform="scale(0.015625)"/>
       <path id="DejaVuSans-20" transform="scale(0.015625)"/>
       <path id="DejaVuSans-61" d="M 2194 1759 
Q 1497 1759 1228 1600 
Q 959 1441 959 1056 
Q 959 750 1161 570 
Q 1363 391 1709 391 
Q 2188 391 2477 730 
Q 2766 1069 2766 1631 
L 2766 1759 
L 2194 1759 
z
M 3341 1997 
L 3341 0 
L 2766 0 
L 2766 531 
Q 2569 213 2275 61 
Q 1981 -91 1556 -91 
Q 1019 -91 701 211 
Q 384 513 384 1019 
Q 384 1609 779 1909 
Q 1175 2209 1959 2209 
L 2766 2209 
L 2766 2266 
Q 2766 2663 2505 2880 
Q 2244 3097 1772 3097 
Q 1472 3097 1187 3025 
Q 903 2953 641 2809 
L 641 3341 
Q 956 3463 1253 3523 
Q 1550 3584 1831 3584 
Q 2591 3584 2966 3190 
Q 3341 2797 3341 1997 
z
" transform="scale(0.015625)"/>
       <path id="DejaVuSans-6e" d="M 3513 2113 
L 3513 0 
L 2938 0 
L 2938 2094 
Q 2938 2591 2744 2837 
Q 2550 3084 2163 3084 
Q 1697 3084 1428 2787 
Q 1159 2491 1159 1978 
L 1159 0 
L 581 0 
L 581 3500 
L 1159 3500 
L 1159 2956 
Q 1366 3272 1645 3428 
Q 1925 3584 2291 3584 
Q 2894 3584 3203 3211 
Q 3513 2838 3513 2113 
z
" transform="scale(0.015625)"/>
       <path id="DejaVuSans-64" d="M 2906 2969 
L 2906 4863 
L 3481 4863 
L 3481 0 
L 2906 0 
L 2906 525 
Q 2725 213 2448 61 
Q 2172 -91 1784 -91 
Q 1150 -91 751 415 
Q 353 922 353 1747 
Q 353 2572 751 3078 
Q 1150 3584 1784 3584 
Q 2172 3584 2448 3432 
Q 2725 3281 2906 2969 
z
M 947 1747 
Q 947 1113 1208 752 
Q 1469 391 1925 391 
Q 2381 391 2643 752 
Q 2906 1113 2906 1747 
Q 2906 2381 2643 2742 
Q 2381 3103 1925 3103 
Q 1469 3103 1208 2742 
Q 947 2381 947 1747 
z
" transform="scale(0.015625)"/>
       <path id="DejaVuSans-42" d="M 1259 2228 
L 1259 519 
L 2272 519 
Q 2781 519 3026 730 
Q 3272 941 3272 1375 
Q 3272 1813 3026 2020 
Q 2781 2228 2272 2228 
L 1259 2228 
z
M 1259 4147 
L 1259 2741 
L 2194 2741 
Q 2656 2741 2882 2914 
Q 3109 3088 3109 3444 
Q 3109 3797 2882 3972 
Q 2656 4147 2194 4147 
L 1259 4147 
z
M 628 4666 
L 2241 4666 
Q 2963 4666 3353 4366 
Q 3744 4066 3744 3513 
Q 3744 3084 3544 2831 
Q 3344 2578 2956 2516 
Q 3422 2416 3680 2098 
Q 3938 1781 3938 1306 
Q 3938 681 3513 340 
Q 3088 0 2303 0 
L 628 0 
L 628 4666 
z
" transform="scale(0.015625)"/>
      </defs>
      <use xlink:href="#DejaVuSans-41"/>
      <use xlink:href="#DejaVuSans-20" x="68.408203"/>
      <use xlink:href="#DejaVuSans-61" x="100.195312"/>
      <use xlink:href="#DejaVuSans-6e" x="161.474609"/>
      <use xlink:href="#DejaVuSans-64" x="224.853516"/>
      <use xlink:href="#DejaVuSans-20" x="288.330078"/>
      <use xlink:href="#DejaVuSans-42" x="320.117188"/>
     </g>
    </g>
   </g>
   <g id="text_7">
    <g clip-path="url(#p92349c2ec2)">
     <!-- C and D -->
     <g transform="translate(330.662921 302.938513)scale(0.12 -0.12)">
      <defs>
       <path id="DejaVuSans-43" d="M 4122 4306 
L 4122 3641 
Q 3803 3938 3442 4084 
Q 3081 4231 2675 4231 
Q 1875 4231 1450 3742 
Q 1025 3253 1025 2328 
Q 1025 1406 1450 917 
Q 1875 428 2675 428 
Q 3081 428 3442 575 
Q 3803 722 4122 1019 
L 4122 359 
Q 3791 134 3420 21 
Q 3050 -91 2638 -91 
Q 1578 -91 968 557 
Q 359 1206 359 2328 
Q 359 3453 968 4101 
Q 1578 4750 2638 4750 
Q 3056 4750 3426 4639 
Q 3797 4528 4122 4306 
z
" transform="scale(0.015625)"/>
       <path id="DejaVuSans-44" d="M 1259 4147 
L 1259 519 
L 2022 519 
Q 2988 519 3436 956 
Q 3884 1394 3884 2338 
Q 3884 3275 3436 3711 
Q 2988 4147 2022 4147 
L 1259 4147 
z
M 628 4666 
L 1925 4666 
Q 3281 4666 3915 4102 
Q 4550 3538 4550 2338 
Q 4550 1131 3912 565 
Q 3275 0 1925 0 
L 628 0 
L 628 4666 
z
" transform="scale(0.015625)"/>
      </defs>
      <use xlink:href="#DejaVuSans-43"/>
      <use xlink:href="#DejaVuSans-20" x="69.824219"/>
      <use xlink:href="#DejaVuSans-61" x="101.611328"/>
      <use xlink:href="#DejaVuSans-6e" x="162.890625"/>
      <use xlink:href="#DejaVuSans-64" x="226.269531"/>
      <use xlink:href="#DejaVuSans-20" x="289.746094"/>
      <use xlink:href="#DejaVuSans-44" x="321.533203"/>
     </g>
    </g>
   </g>
   <g id="text_8">
    <g clip-path="url(#p92349c2ec2)">
     <!-- B and C -->
     <g transform="translate(16.578339 49.475444)scale(0.12 -0.12)">
      <use xlink:href="#DejaVuSans-42"/>
      <use xlink:href="#DejaVuSans-20" x="68.603516"/>
      <use xlink:href="#DejaVuSans-61" x="100.390625"/>
      <use xlink:href="#DejaVuSans-6e" x="161.669922"/>
      <use xlink:href="#DejaVuSans-64" x="225.048828"/>
      <use xlink:href="#DejaVuSans-20" x="288.525391"/>
      <use xlink:href="#DejaVuSans-43" x="320.3125"/>
     </g>
    </g>
   </g>
   <g id="text_9">
    <g clip-path="url(#p92349c2ec2)">
     <!-- D and A -->
     <g transform="translate(54.612781 33.301333)scale(0.12 -0.12)">
      <use xlink:href="#DejaVuSans-44"/>
      <use xlink:href="#DejaVuSans-20" x="77.001953"/>
      <use xlink:href="#DejaVuSans-61" x="108.789062"/>
      <use xlink:href="#DejaVuSans-6e" x="170.068359"/>
      <use xlink:href="#DejaVuSans-64" x="233.447266"/>
      <use xlink:href="#DejaVuSans-20" x="296.923828"/>
      <use xlink:href="#DejaVuSans-41" x="328.710938"/>
     </g>
    </g>
   </g>
   <g id="text_10">
    <g clip-path="url(#p92349c2ec2)">
     <!-- E and F -->
     <g transform="translate(368.88046 318.921167)scale(0.12 -0.12)">
      <defs>
       <path id="DejaVuSans-45" d="M 628 4666 
L 3578 4666 
L 3578 4134 
L 1259 4134 
L 1259 2753 
L 3481 2753 
L 3481 2222 
L 1259 2222 
L 1259 531 
L 3634 531 
L 3634 0 
L 628 0 
L 628 4666 
z
" transform="scale(0.015625)"/>
       <path id="DejaVuSans-46" d="M 628 4666 
L 3309 4666 
L 3309 4134 
L 1259 4134 
L 1259 2759 
L 3109 2759 
L 3109 2228 
L 1259 2228 
L 1259 0 
L 628 0 
L 628 4666 
z
" transform="scale(0.015625)"/>
      </defs>
      <use xlink:href="#DejaVuSans-45"/>
      <use xlink:href="#DejaVuSans-20" x="63.183594"/>
      <use xlink:href="#DejaVuSans-61" x="94.970703"/>
      <use xlink:href="#DejaVuSans-6e" x="156.25"/>
      <use xlink:href="#DejaVuSans-64" x="219.628906"/>
      <use xlink:href="#DejaVuSans-20" x="283.105469"/>
      <use xlink:href="#DejaVuSans-46" x="314.892578"/>
     </g>
    </g>
   </g>
   <g id="text_11">
    <g clip-path="url(#p92349c2ec2)">
     <!-- E and G -->
     <g transform="translate(397.270723 229.653374)scale(0.12 -0.12)">
      <defs>
       <path id="DejaVuSans-47" d="M 3809 666 
L 3809 1919 
L 2778 1919 
L 2778 2438 
L 4434 2438 
L 4434 434 
Q 4069 175 3628 42 
Q 3188 -91 2688 -91 
Q 1594 -91 976 548 
Q 359 1188 359 2328 
Q 359 3472 976 4111 
Q 1594 4750 2688 4750 
Q 3144 4750 3555 4637 
Q 3966 4525 4313 4306 
L 4313 3634 
Q 3963 3931 3569 4081 
Q 3175 4231 2741 4231 
Q 1884 4231 1454 3753 
Q 1025 3275 1025 2328 
Q 1025 1384 1454 906 
Q 1884 428 2741 428 
Q 3075 428 3337 486 
Q 3600 544 3809 666 
z
" transform="scale(0.015625)"/>
      </defs>
      <use xlink:href="#DejaVuSans-45"/>
      <use xlink:href="#DejaVuSans-20" x="63.183594"/>
      <use xlink:href="#DejaVuSans-61" x="94.970703"/>
      <use xlink:href="#DejaVuSans-6e" x="156.25"/>
      <use xlink:href="#DejaVuSans-64" x="219.628906"/>
      <use xlink:href="#DejaVuSans-20" x="283.105469"/>
      <use xlink:href="#DejaVuSans-47" x="314.892578"/>
     </g>
    </g>
   </g>
  </g>
 </g>
 <defs>
  <clipPath id="p92349c2ec2">
   <rect x="0" y="0" width="460.8" height="345.6"/>
  </clipPath>
 </defs>
</svg>
