<?xml version="1.0" encoding="utf-8" standalone="no"?>
<!DOCTYPE svg PUBLIC "-//W3C//DTD SVG 1.1//EN"
  "http://www.w3.org/Graphics/SVG/1.1/DTD/svg11.dtd">
<svg xmlns:xlink="http://www.w3.org/1999/xlink" width="460.8pt" height="345.6pt" viewBox="0 0 460.8 345.6" xmlns="http://www.w3.org/2000/svg" version="1.1">
 <metadata>
  <rdf:RDF xmlns:dc="http://purl.org/dc/elements/1.1/" xmlns:cc="http://creativecommons.org/ns#" xmlns:rdf="http://www.w3.org/1999/02/22-rdf-syntax-ns#">
   <cc:Work>
    <dc:type rdf:resource="http://purl.org/dc/dcmitype/StillImage"/>
    <dc:date>2025-06-17T18:00:55.166790</dc:date>
    <dc:format>image/svg+xml</dc:format>
    <dc:creator>
     <cc:Agent>
      <dc:title>Matplotlib v3.5.1, https://matplotlib.org/</dc:title>
     </cc:Agent>
    </dc:creator>
   </cc:Work>
  </rdf:RDF>
 </metadata>
 <defs>
  <style type="text/css">*{stroke-linejoin: round; stroke-linecap: butt}</style>
 </defs>
 <g id="figure_1">
  <g id="patch_1">
   <path d="M 0 345.6 
L 460.8 345.6 
L 460.8 0 
L 0 0 
z
" style="fill: #ffffff"/>
  </g>
  <g id="axes_1">
   <g id="patch_2">
    <path d="M 91.648248 266.539064 
Q 90.77801 265.80981 90.764701 265.798658 
" clip-path="url(#p42595bb240)" style="fill: none; stroke: #000000; stroke-linecap: round"/>
    <path d="M 92.545968 269.900741 
L 90.764701 265.798658 
L 95.115128 266.834894 
L 92.545968 269.900741 
z
" clip-path="url(#p42595bb240)" style="stroke: #000000; stroke-linecap: round"/>
   </g>
   <g id="patch_3">
    <path d="M 137.634595 67.843332 
Q 199.59151 176.186646 260.993411 283.559414 
" clip-path="url(#p42595bb240)" style="fill: none; stroke: #000000; stroke-linecap: round"/>
    <path d="M 260.743898 279.094244 
L 260.993411 283.559414 
L 257.271567 281.079922 
L 260.743898 279.094244 
z
" clip-path="url(#p42595bb240)" style="stroke: #000000; stroke-linecap: round"/>
   </g>
   <g id="patch_4">
    <path d="M 90.455815 122.20944 
Q 152.652342 204.976263 214.177211 286.849288 
" clip-path="url(#p42595bb240)" style="fill: none; stroke: #000000; stroke-linecap: round"/>
    <path d="M 213.373083 282.45004 
L 214.177211 286.849288 
L 210.175336 284.853041 
L 213.373083 282.45004 
z
" clip-path="url(#p42595bb240)" style="stroke: #000000; stroke-linecap: round"/>
   </g>
   <g id="patch_5">
    <path d="M 127.124707 69.991335 
Q 233.158002 67.65382 338.073534 65.340947 
" clip-path="url(#p42595bb240)" style="fill: none; stroke: #000000; stroke-linecap: round"/>
    <path d="M 334.030426 63.429592 
L 338.073534 65.340947 
L 334.118585 67.42862 
L 334.030426 63.429592 
z
" clip-path="url(#p42595bb240)" style="stroke: #000000; stroke-linecap: round"/>
   </g>
   <g id="patch_6">
    <path d="M 58.656045 178.165055 
Q 205.993139 137.523654 352.25245 97.179548 
" clip-path="url(#p42595bb240)" style="fill: none; stroke: #000000; stroke-linecap: round"/>
    <path d="M 347.86464 96.315187 
L 352.25245 97.179548 
L 348.928275 100.17118 
L 347.86464 96.315187 
z
" clip-path="url(#p42595bb240)" style="stroke: #000000; stroke-linecap: round"/>
   </g>
   <g id="patch_7">
    <path d="M 126.591111 64.908009 
Q 189.612701 52.971982 251.535785 41.244007 
" clip-path="url(#p42595bb240)" style="fill: none; stroke: #000000; stroke-linecap: round"/>
    <path d="M 247.233477 40.023291 
L 251.535785 41.244007 
L 247.977828 43.953424 
L 247.233477 40.023291 
z
" clip-path="url(#p42595bb240)" style="stroke: #000000; stroke-linecap: round"/>
   </g>
   <g id="patch_8">
    <path d="M 396.631892 193.303219 
Q 290.428758 121.710331 185.152686 50.742387 
" clip-path="url(#p42595bb240)" style="fill: none; stroke: #000000; stroke-linecap: round"/>
    <path d="M 187.35151 54.636635 
L 185.152686 50.742387 
L 189.58738 51.319877 
L 187.35151 54.636635 
z
" clip-path="url(#p42595bb240)" style="stroke: #000000; stroke-linecap: round"/>
   </g>
   <g id="patch_9">
    <path d="M 290.614523 41.737351 
Q 259.387436 37.44559 229.267971 33.306058 
" clip-path="url(#p42595bb240)" style="fill: none; stroke: #000000; stroke-linecap: round"/>
    <path d="M 232.958405 35.832061 
L 229.267971 33.306058 
L 233.503034 31.869312 
L 232.958405 35.832061 
z
" clip-path="url(#p42595bb240)" style="stroke: #000000; stroke-linecap: round"/>
   </g>
   <g id="patch_10">
    <path d="M 118.21608 272.326035 
Q 199.664331 283.862617 280.005598 295.242403 
" clip-path="url(#p42595bb240)" style="fill: none; stroke: #000000; stroke-linecap: round"/>
    <path d="M 276.325616 292.701195 
L 280.005598 295.242403 
L 275.764643 296.661664 
L 276.325616 292.701195 
z
" clip-path="url(#p42595bb240)" style="stroke: #000000; stroke-linecap: round"/>
   </g>
   <g id="patch_11">
    <path d="M 358.034223 261.804133 
Q 376.46053 205.120588 394.541199 149.500308 
" clip-path="url(#p42595bb240)" style="fill: none; stroke: #000000; stroke-linecap: round"/>
    <path d="M 391.402575 152.686064 
L 394.541199 149.500308 
L 395.206629 153.922661 
L 391.402575 152.686064 
z
" clip-path="url(#p42595bb240)" style="stroke: #000000; stroke-linecap: round"/>
   </g>
   <g id="patch_12">
    <path d="M 206.010078 313.810719 
Q 220.899975 314.710318 234.673873 315.542492 
" clip-path="url(#p42595bb240)" style="fill: none; stroke: #000000; stroke-linecap: round"/>
    <path d="M 230.801767 313.304905 
L 234.673873 315.542492 
L 230.56054 317.297625 
L 230.801767 313.304905 
z
" clip-path="url(#p42595bb240)" style="stroke: #000000; stroke-linecap: round"/>
   </g>
   <g id="patch_13">
    <path d="M 144.092281 61.840058 
Q 260.504631 140.127114 375.989226 217.790256 
" clip-path="url(#p42595bb240)" style="fill: none; stroke: #000000; stroke-linecap: round"/>
    <path d="M 373.786076 213.898453 
L 375.989226 217.790256 
L 371.553894 217.217694 
L 373.786076 213.898453 
z
" clip-path="url(#p42595bb240)" style="stroke: #000000; stroke-linecap: round"/>
   </g>
   <g id="patch_14">
    <path d="M 136.329754 278.721089 
Q 98.904513 229.35861 62.154743 180.887051 
" clip-path="url(#p42595bb240)" style="fill: none; stroke: #000000; stroke-linecap: round"/>
    <path d="M 62.977654 185.282824 
L 62.154743 180.887051 
L 66.165108 182.866186 
L 62.977654 185.282824 
z
" clip-path="url(#p42595bb240)" style="stroke: #000000; stroke-linecap: round"/>
   </g>
   <g id="patch_15">
    <path d="M 406.28163 159.423471 
Q 351.645537 223.628316 297.734013 286.981692 
" clip-path="url(#p42595bb240)" style="fill: none; stroke: #000000; stroke-linecap: round"/>
    <path d="M 301.849466 285.231537 
L 297.734013 286.981692 
L 298.80316 282.639236 
L 301.849466 285.231537 
z
" clip-path="url(#p42595bb240)" style="stroke: #000000; stroke-linecap: round"/>
   </g>
   <g id="patch_16">
    <path d="M 65.343418 228.734863 
Q 98.289632 256.161523 130.376584 282.872874 
" clip-path="url(#p42595bb240)" style="fill: none; stroke: #000000; stroke-linecap: round"/>
    <path d="M 128.581973 278.77661 
L 130.376584 282.872874 
L 126.022807 281.850804 
L 128.581973 278.77661 
z
" clip-path="url(#p42595bb240)" style="stroke: #000000; stroke-linecap: round"/>
   </g>
   <g id="patch_17">
    <path d="M 305.90601 75.545492 
Q 239.030924 176.56062 172.773015 276.643497 
" clip-path="url(#p42595bb240)" style="fill: none; stroke: #000000; stroke-linecap: round"/>
    <path d="M 176.64876 274.412218 
L 172.773015 276.643497 
L 173.313439 272.204134 
L 176.64876 274.412218 
z
" clip-path="url(#p42595bb240)" style="stroke: #000000; stroke-linecap: round"/>
   </g>
   <g id="patch_18">
    <path d="M 410.911332 127.002166 
Q 408.286355 121.147129 406.11876 116.312288 
" clip-path="url(#p42595bb240)" style="fill: none; stroke: #000000; stroke-linecap: round"/>
    <path d="M 405.930159 120.780446 
L 406.11876 116.312288 
L 409.580125 119.144063 
L 405.930159 120.780446 
z
" clip-path="url(#p42595bb240)" style="stroke: #000000; stroke-linecap: round"/>
   </g>
   <g id="patch_19">
    <path d="M 399.505652 143.484593 
Q 242.482043 133.829151 86.574361 124.242328 
" clip-path="url(#p42595bb240)" style="fill: none; stroke: #000000; stroke-linecap: round"/>
    <path d="M 90.444071 126.484056 
L 86.574361 124.242328 
L 90.689569 122.491597 
L 90.444071 126.484056 
z
" clip-path="url(#p42595bb240)" style="stroke: #000000; stroke-linecap: round"/>
   </g>
   <g id="patch_20">
    <path d="M 142.873939 63.461388 
Q 249.312319 152.531118 354.893273 240.883338 
" clip-path="url(#p42595bb240)" style="fill: none; stroke: #000000; stroke-linecap: round"/>
    <path d="M 353.109176 236.782485 
L 354.893273 240.883338 
L 350.542132 239.850104 
L 353.109176 236.782485 
z
" clip-path="url(#p42595bb240)" style="stroke: #000000; stroke-linecap: round"/>
   </g>
   <g id="patch_21">
    <path d="M 63.19657 128.62804 
Q 57.445825 159.820955 51.897786 189.914365 
" clip-path="url(#p42595bb240)" style="fill: none; stroke: #000000; stroke-linecap: round"/>
    <path d="M 54.58986 186.343268 
L 51.897786 189.914365 
L 50.656153 185.618047 
L 54.58986 186.343268 
z
" clip-path="url(#p42595bb240)" style="stroke: #000000; stroke-linecap: round"/>
   </g>
   <g id="patch_22">
    <path d="M 44.600885 202.122047 
Q 46.041479 207.993958 47.215678 212.780036 
" clip-path="url(#p42595bb240)" style="fill: none; stroke: #000000; stroke-linecap: round"/>
    <path d="M 48.204994 208.418699 
L 47.215678 212.780036 
L 44.320198 209.371781 
L 48.204994 208.418699 
z
" clip-path="url(#p42595bb240)" style="stroke: #000000; stroke-linecap: round"/>
   </g>
   <g id="patch_23">
    <path d="M 59.345958 182.922695 
Q 222.654581 179.6152 384.845398 176.330344 
" clip-path="url(#p42595bb240)" style="fill: none; stroke: #000000; stroke-linecap: round"/>
    <path d="M 380.805721 174.41175 
L 384.845398 176.330344 
L 380.886716 178.410929 
L 380.805721 174.41175 
z
" clip-path="url(#p42595bb240)" style="stroke: #000000; stroke-linecap: round"/>
   </g>
   <g id="patch_24">
    <path d="M 339.284731 66.853164 
Q 221.740872 78.832158 105.309285 90.6978 
" clip-path="url(#p42595bb240)" style="fill: none; stroke: #000000; stroke-linecap: round"/>
    <path d="M 109.491446 92.281951 
L 105.309285 90.6978 
L 109.085903 88.302563 
L 109.491446 92.281951 
z
" clip-path="url(#p42595bb240)" style="stroke: #000000; stroke-linecap: round"/>
   </g>
   <g id="patch_25">
    <path d="M 227.953822 37.122575 
Q 165.127609 59.813598 103.352948 82.124832 
" clip-path="url(#p42595bb240)" style="fill: none; stroke: #000000; stroke-linecap: round"/>
    <path d="M 107.79448 82.647125 
L 103.352948 82.124832 
L 106.435702 78.884982 
L 107.79448 82.647125 
z
" clip-path="url(#p42595bb240)" style="stroke: #000000; stroke-linecap: round"/>
   </g>
   <g id="patch_26">
    <path d="M 333.033246 268.985635 
Q 226.46884 179.774875 120.761719 91.281793 
" clip-path="url(#p42595bb240)" style="fill: none; stroke: #000000; stroke-linecap: round"/>
    <path d="M 122.545011 95.382996 
L 120.761719 91.281793 
L 125.112657 92.315881 
L 122.545011 95.382996 
z
" clip-path="url(#p42595bb240)" style="stroke: #000000; stroke-linecap: round"/>
   </g>
   <g id="patch_27">
    <path d="M 190.045088 302.341284 
Q 148.914604 200.865011 108.204097 100.424894 
" clip-path="url(#p42595bb240)" style="fill: none; stroke: #000000; stroke-linecap: round"/>
    <path d="M 107.853116 104.883236 
L 108.204097 100.424894 
L 111.560182 103.380684 
L 107.853116 104.883236 
z
" clip-path="url(#p42595bb240)" style="stroke: #000000; stroke-linecap: round"/>
   </g>
   <g id="text_1">
    <g id="patch_28">
     <path d="M 77.208915 264.666595 
L 94.274665 278.967583 
Q 96.57405 280.894452 98.50092 278.595067 
L 104.717083 271.177155 
Q 106.643952 268.87777 104.344567 266.9509 
L 87.278818 252.649912 
Q 84.979433 250.723042 83.052563 253.022427 
L 76.8364 260.44034 
Q 74.90953 262.739725 77.208915 264.666595 
z
" clip-path="url(#p42595bb240)" style="fill: #ffffff; stroke: #ffffff; stroke-linejoin: miter"/>
    </g>
    <g clip-path="url(#p42595bb240)">
     <!-- 0.62 -->
     <g transform="translate(80.471548 260.773209)rotate(-320.03721)scale(0.1 -0.1)">
      <defs>
       <path id="DejaVuSans-30" d="M 2034 4250 
Q 1547 4250 1301 3770 
Q 1056 3291 1056 2328 
Q 1056 1369 1301 889 
Q 1547 409 2034 409 
Q 2525 409 2770 889 
Q 3016 1369 3016 2328 
Q 3016 3291 2770 3770 
Q 2525 4250 2034 4250 
z
M 2034 4750 
Q 2819 4750 3233 4129 
Q 3647 3509 3647 2328 
Q 3647 1150 3233 529 
Q 2819 -91 2034 -91 
Q 1250 -91 836 529 
Q 422 1150 422 2328 
Q 422 3509 836 4129 
Q 1250 4750 2034 4750 
z
" transform="scale(0.015625)"/>
       <path id="DejaVuSans-2e" d="M 684 794 
L 1344 794 
L 1344 0 
L 684 0 
L 684 794 
z
" transform="scale(0.015625)"/>
       <path id="DejaVuSans-36" d="M 2113 2584 
Q 1688 2584 1439 2293 
Q 1191 2003 1191 1497 
Q 1191 994 1439 701 
Q 1688 409 2113 409 
Q 2538 409 2786 701 
Q 3034 994 3034 1497 
Q 3034 2003 2786 2293 
Q 2538 2584 2113 2584 
z
M 3366 4563 
L 3366 3988 
Q 3128 4100 2886 4159 
Q 2644 4219 2406 4219 
Q 1781 4219 1451 3797 
Q 1122 3375 1075 2522 
Q 1259 2794 1537 2939 
Q 1816 3084 2150 3084 
Q 2853 3084 3261 2657 
Q 3669 2231 3669 1497 
Q 3669 778 3244 343 
Q 2819 -91 2113 -91 
Q 1303 -91 875 529 
Q 447 1150 447 2328 
Q 447 3434 972 4092 
Q 1497 4750 2381 4750 
Q 2619 4750 2861 4703 
Q 3103 4656 3366 4563 
z
" transform="scale(0.015625)"/>
       <path id="DejaVuSans-32" d="M 1228 531 
L 3431 531 
L 3431 0 
L 469 0 
L 469 531 
Q 828 903 1448 1529 
Q 2069 2156 2228 2338 
Q 2531 2678 2651 2914 
Q 2772 3150 2772 3378 
Q 2772 3750 2511 3984 
Q 2250 4219 1831 4219 
Q 1534 4219 1204 4116 
Q 875 4013 500 3803 
L 500 4441 
Q 881 4594 1212 4672 
Q 1544 4750 1819 4750 
Q 2544 4750 2975 4387 
Q 3406 4025 3406 3419 
Q 3406 3131 3298 2873 
Q 3191 2616 2906 2266 
Q 2828 2175 2409 1742 
Q 1991 1309 1228 531 
z
" transform="scale(0.015625)"/>
      </defs>
      <use xlink:href="#DejaVuSans-30"/>
      <use xlink:href="#DejaVuSans-2e" x="63.623047"/>
      <use xlink:href="#DejaVuSans-36" x="95.410156"/>
      <use xlink:href="#DejaVuSans-32" x="159.033203"/>
     </g>
    </g>
   </g>
   <g id="text_2">
    <g id="patch_29">
     <path d="M 190.144629 175.458206 
L 201.197719 194.786611 
Q 202.686977 197.39086 205.291225 195.901601 
L 213.692639 191.097192 
Q 216.296887 189.607933 214.807629 187.003685 
L 203.754539 167.675279 
Q 202.265281 165.071031 199.661032 166.560289 
L 191.259619 171.364699 
Q 188.65537 172.853957 190.144629 175.458206 
z
" clip-path="url(#p42595bb240)" style="fill: #ffffff; stroke: #ffffff; stroke-linejoin: miter"/>
    </g>
    <g clip-path="url(#p42595bb240)">
     <!-- 0.62 -->
     <g transform="translate(194.554218 172.93655)rotate(-299.763396)scale(0.1 -0.1)">
      <use xlink:href="#DejaVuSans-30"/>
      <use xlink:href="#DejaVuSans-2e" x="63.623047"/>
      <use xlink:href="#DejaVuSans-36" x="95.410156"/>
      <use xlink:href="#DejaVuSans-32" x="159.033203"/>
     </g>
    </g>
   </g>
   <g id="text_3">
    <g id="patch_30">
     <path d="M 139.698849 200.78744 
L 153.074929 218.587399 
Q 154.877179 220.985709 157.27549 219.183458 
L 165.012539 213.369322 
Q 167.410849 211.567071 165.608598 209.168761 
L 152.232518 191.368802 
Q 150.430267 188.970492 148.031957 190.772743 
L 140.294908 196.586879 
Q 137.896598 198.38913 139.698849 200.78744 
z
" clip-path="url(#p42595bb240)" style="fill: #ffffff; stroke: #ffffff; stroke-linejoin: miter"/>
    </g>
    <g clip-path="url(#p42595bb240)">
     <!-- 0.62 -->
     <g transform="translate(143.759738 197.735816)rotate(-306.92365)scale(0.1 -0.1)">
      <use xlink:href="#DejaVuSans-30"/>
      <use xlink:href="#DejaVuSans-2e" x="63.623047"/>
      <use xlink:href="#DejaVuSans-36" x="95.410156"/>
      <use xlink:href="#DejaVuSans-32" x="159.033203"/>
     </g>
    </g>
   </g>
   <g id="text_4">
    <g id="patch_31">
     <path d="M 216.391868 75.864398 
L 238.652084 75.37367 
Q 241.651356 75.30755 241.585236 72.308279 
L 241.371933 62.632505 
Q 241.305814 59.633234 238.306543 59.699353 
L 216.046326 60.190082 
Q 213.047055 60.256201 213.113174 63.255472 
L 213.326477 72.931246 
Q 213.392597 75.930518 216.391868 75.864398 
z
" clip-path="url(#p42595bb240)" style="fill: #ffffff; stroke: #ffffff; stroke-linejoin: miter"/>
    </g>
    <g clip-path="url(#p42595bb240)">
     <!-- 0.62 -->
     <g transform="translate(216.279913 70.785945)rotate(-1.262887)scale(0.1 -0.1)">
      <use xlink:href="#DejaVuSans-30"/>
      <use xlink:href="#DejaVuSans-2e" x="63.623047"/>
      <use xlink:href="#DejaVuSans-36" x="95.410156"/>
      <use xlink:href="#DejaVuSans-32" x="159.033203"/>
     </g>
    </g>
   </g>
   <g id="text_5">
    <g id="patch_32">
     <path d="M 204.812455 145.981156 
L 226.276477 140.060529 
Q 229.168471 139.262803 228.370745 136.370808 
L 225.797246 127.041113 
Q 224.999519 124.149119 222.107525 124.946845 
L 200.643503 130.867472 
Q 197.751508 131.665199 198.549235 134.557193 
L 201.122734 143.886888 
Q 201.92046 146.778883 204.812455 145.981156 
z
" clip-path="url(#p42595bb240)" style="fill: #ffffff; stroke: #ffffff; stroke-linejoin: miter"/>
    </g>
    <g clip-path="url(#p42595bb240)">
     <!-- 0.62 -->
     <g transform="translate(203.461721 141.084347)rotate(-15.420964)scale(0.1 -0.1)">
      <use xlink:href="#DejaVuSans-30"/>
      <use xlink:href="#DejaVuSans-2e" x="63.623047"/>
      <use xlink:href="#DejaVuSans-36" x="95.410156"/>
      <use xlink:href="#DejaVuSans-32" x="159.033203"/>
     </g>
    </g>
   </g>
   <g id="text_6">
    <g id="patch_33">
     <path d="M 182.03139 62.386271 
L 203.908105 58.242912 
Q 206.855704 57.684649 206.297441 54.737049 
L 204.496461 45.227971 
Q 203.938198 42.280371 200.990598 42.838635 
L 179.113884 46.981993 
Q 176.166285 47.540256 176.724548 50.487856 
L 178.525528 59.996934 
Q 179.083791 62.944534 182.03139 62.386271 
z
" clip-path="url(#p42595bb240)" style="fill: #ffffff; stroke: #ffffff; stroke-linejoin: miter"/>
    </g>
    <g clip-path="url(#p42595bb240)">
     <!-- 0.56 -->
     <g transform="translate(181.086123 57.395309)rotate(-10.724554)scale(0.1 -0.1)">
      <defs>
       <path id="DejaVuSans-35" d="M 691 4666 
L 3169 4666 
L 3169 4134 
L 1269 4134 
L 1269 2991 
Q 1406 3038 1543 3061 
Q 1681 3084 1819 3084 
Q 2600 3084 3056 2656 
Q 3513 2228 3513 1497 
Q 3513 744 3044 326 
Q 2575 -91 1722 -91 
Q 1428 -91 1123 -41 
Q 819 9 494 109 
L 494 744 
Q 775 591 1075 516 
Q 1375 441 1709 441 
Q 2250 441 2565 725 
Q 2881 1009 2881 1497 
Q 2881 1984 2565 2268 
Q 2250 2553 1709 2553 
Q 1456 2553 1204 2497 
Q 953 2441 691 2322 
L 691 4666 
z
" transform="scale(0.015625)"/>
      </defs>
      <use xlink:href="#DejaVuSans-30"/>
      <use xlink:href="#DejaVuSans-2e" x="63.623047"/>
      <use xlink:href="#DejaVuSans-35" x="95.410156"/>
      <use xlink:href="#DejaVuSans-36" x="159.033203"/>
     </g>
    </g>
   </g>
   <g id="text_7">
    <g id="patch_34">
     <path d="M 276.818401 121.989299 
L 295.280827 134.435056 
Q 297.768396 136.111958 299.445298 133.624389 
L 304.855054 125.599388 
Q 306.531956 123.111819 304.044387 121.434917 
L 285.581961 108.989159 
Q 283.094392 107.312257 281.41749 109.799826 
L 276.007734 117.824828 
Q 274.330832 120.312397 276.818401 121.989299 
z
" clip-path="url(#p42595bb240)" style="fill: #ffffff; stroke: #ffffff; stroke-linejoin: miter"/>
    </g>
    <g clip-path="url(#p42595bb240)">
     <!-- 0.62 -->
     <g transform="translate(279.65778 117.777274)rotate(-326.015587)scale(0.1 -0.1)">
      <use xlink:href="#DejaVuSans-30"/>
      <use xlink:href="#DejaVuSans-2e" x="63.623047"/>
      <use xlink:href="#DejaVuSans-36" x="95.410156"/>
      <use xlink:href="#DejaVuSans-32" x="159.033203"/>
     </g>
    </g>
   </g>
   <g id="text_8">
    <g id="patch_35">
     <path d="M 253.046206 44.486822 
L 275.104477 47.518447 
Q 278.076539 47.926919 278.48501 44.954857 
L 279.802757 35.366862 
Q 280.211228 32.3948 277.239167 31.986329 
L 255.180896 28.954703 
Q 252.208834 28.546232 251.800362 31.518293 
L 250.482616 41.106288 
Q 250.074144 44.07835 253.046206 44.486822 
z
" clip-path="url(#p42595bb240)" style="fill: #ffffff; stroke: #ffffff; stroke-linejoin: miter"/>
    </g>
    <g clip-path="url(#p42595bb240)">
     <!-- 0.83 -->
     <g transform="translate(253.737842 39.45444)rotate(-352.174459)scale(0.1 -0.1)">
      <defs>
       <path id="DejaVuSans-38" d="M 2034 2216 
Q 1584 2216 1326 1975 
Q 1069 1734 1069 1313 
Q 1069 891 1326 650 
Q 1584 409 2034 409 
Q 2484 409 2743 651 
Q 3003 894 3003 1313 
Q 3003 1734 2745 1975 
Q 2488 2216 2034 2216 
z
M 1403 2484 
Q 997 2584 770 2862 
Q 544 3141 544 3541 
Q 544 4100 942 4425 
Q 1341 4750 2034 4750 
Q 2731 4750 3128 4425 
Q 3525 4100 3525 3541 
Q 3525 3141 3298 2862 
Q 3072 2584 2669 2484 
Q 3125 2378 3379 2068 
Q 3634 1759 3634 1313 
Q 3634 634 3220 271 
Q 2806 -91 2034 -91 
Q 1263 -91 848 271 
Q 434 634 434 1313 
Q 434 1759 690 2068 
Q 947 2378 1403 2484 
z
M 1172 3481 
Q 1172 3119 1398 2916 
Q 1625 2713 2034 2713 
Q 2441 2713 2670 2916 
Q 2900 3119 2900 3481 
Q 2900 3844 2670 4047 
Q 2441 4250 2034 4250 
Q 1625 4250 1398 4047 
Q 1172 3844 1172 3481 
z
" transform="scale(0.015625)"/>
       <path id="DejaVuSans-33" d="M 2597 2516 
Q 3050 2419 3304 2112 
Q 3559 1806 3559 1356 
Q 3559 666 3084 287 
Q 2609 -91 1734 -91 
Q 1441 -91 1130 -33 
Q 819 25 488 141 
L 488 750 
Q 750 597 1062 519 
Q 1375 441 1716 441 
Q 2309 441 2620 675 
Q 2931 909 2931 1356 
Q 2931 1769 2642 2001 
Q 2353 2234 1838 2234 
L 1294 2234 
L 1294 2753 
L 1863 2753 
Q 2328 2753 2575 2939 
Q 2822 3125 2822 3475 
Q 2822 3834 2567 4026 
Q 2313 4219 1838 4219 
Q 1578 4219 1281 4162 
Q 984 4106 628 3988 
L 628 4550 
Q 988 4650 1302 4700 
Q 1616 4750 1894 4750 
Q 2613 4750 3031 4423 
Q 3450 4097 3450 3541 
Q 3450 3153 3228 2886 
Q 3006 2619 2597 2516 
z
" transform="scale(0.015625)"/>
      </defs>
      <use xlink:href="#DejaVuSans-30"/>
      <use xlink:href="#DejaVuSans-2e" x="63.623047"/>
      <use xlink:href="#DejaVuSans-38" x="95.410156"/>
      <use xlink:href="#DejaVuSans-33" x="159.033203"/>
     </g>
    </g>
   </g>
   <g id="text_9">
    <g id="patch_36">
     <path d="M 189.45832 290.334315 
L 211.503895 293.456918 
Q 214.474247 293.877648 214.894976 290.907297 
L 216.252268 281.32482 
Q 216.672998 278.354469 213.702647 277.933739 
L 191.657071 274.811136 
Q 188.68672 274.390406 188.26599 277.360757 
L 186.908698 286.943234 
Q 186.487969 289.913585 189.45832 290.334315 
z
" clip-path="url(#p42595bb240)" style="fill: #ffffff; stroke: #ffffff; stroke-linejoin: miter"/>
    </g>
    <g clip-path="url(#p42595bb240)">
     <!-- 0.56 -->
     <g transform="translate(190.170712 285.30483)rotate(-351.938078)scale(0.1 -0.1)">
      <use xlink:href="#DejaVuSans-30"/>
      <use xlink:href="#DejaVuSans-2e" x="63.623047"/>
      <use xlink:href="#DejaVuSans-35" x="95.410156"/>
      <use xlink:href="#DejaVuSans-36" x="159.033203"/>
     </g>
    </g>
   </g>
   <g id="text_10">
    <g id="patch_37">
     <path d="M 382.269635 212.607346 
L 389.153034 191.432435 
Q 390.080481 188.579394 387.227441 187.651946 
L 378.023412 184.659963 
Q 375.170372 183.732515 374.242924 186.585556 
L 367.359526 207.760467 
Q 366.432078 210.613508 369.285119 211.540956 
L 378.489147 214.532939 
Q 381.342188 215.460387 382.269635 212.607346 
z
" clip-path="url(#p42595bb240)" style="fill: #ffffff; stroke: #ffffff; stroke-linejoin: miter"/>
    </g>
    <g clip-path="url(#p42595bb240)">
     <!-- 0.83 -->
     <g transform="translate(377.438784 211.036965)rotate(-71.992039)scale(0.1 -0.1)">
      <use xlink:href="#DejaVuSans-30"/>
      <use xlink:href="#DejaVuSans-2e" x="63.623047"/>
      <use xlink:href="#DejaVuSans-38" x="95.410156"/>
      <use xlink:href="#DejaVuSans-33" x="159.033203"/>
     </g>
    </g>
   </g>
   <g id="text_11">
    <g id="patch_38">
     <path d="M 203.515563 321.513365 
L 225.740662 322.856133 
Q 228.735202 323.037054 228.916122 320.042514 
L 229.499778 310.382004 
Q 229.680699 307.387465 226.686159 307.206544 
L 204.46106 305.863776 
Q 201.46652 305.682856 201.2856 308.677396 
L 200.701944 318.337905 
Q 200.521023 321.332445 203.515563 321.513365 
z
" clip-path="url(#p42595bb240)" style="fill: #ffffff; stroke: #ffffff; stroke-linejoin: miter"/>
    </g>
    <g clip-path="url(#p42595bb240)">
     <!-- 0.62 -->
     <g transform="translate(203.821902 316.442924)rotate(-356.542579)scale(0.1 -0.1)">
      <use xlink:href="#DejaVuSans-30"/>
      <use xlink:href="#DejaVuSans-2e" x="63.623047"/>
      <use xlink:href="#DejaVuSans-36" x="95.410156"/>
      <use xlink:href="#DejaVuSans-32" x="159.033203"/>
     </g>
    </g>
   </g>
   <g id="text_12">
    <g id="patch_39">
     <path d="M 251.712058 143.66094 
L 270.188302 156.086175 
Q 272.677733 157.760312 274.35187 155.270881 
L 279.752705 147.239874 
Q 281.426842 144.750443 278.937411 143.076306 
L 260.461167 130.651071 
Q 257.971736 128.976934 256.297599 131.466365 
L 250.896764 139.497373 
Q 249.222627 141.986804 251.712058 143.66094 
z
" clip-path="url(#p42595bb240)" style="fill: #ffffff; stroke: #ffffff; stroke-linejoin: miter"/>
    </g>
    <g clip-path="url(#p42595bb240)">
     <!-- 0.71 -->
     <g transform="translate(254.546755 139.445764)rotate(-326.079253)scale(0.1 -0.1)">
      <defs>
       <path id="DejaVuSans-37" d="M 525 4666 
L 3525 4666 
L 3525 4397 
L 1831 0 
L 1172 0 
L 2766 4134 
L 525 4134 
L 525 4666 
z
" transform="scale(0.015625)"/>
       <path id="DejaVuSans-31" d="M 794 531 
L 1825 531 
L 1825 4091 
L 703 3866 
L 703 4441 
L 1819 4666 
L 2450 4666 
L 2450 531 
L 3481 531 
L 3481 0 
L 794 0 
L 794 531 
z
" transform="scale(0.015625)"/>
      </defs>
      <use xlink:href="#DejaVuSans-30"/>
      <use xlink:href="#DejaVuSans-2e" x="63.623047"/>
      <use xlink:href="#DejaVuSans-37" x="95.410156"/>
      <use xlink:href="#DejaVuSans-31" x="159.033203"/>
     </g>
    </g>
   </g>
   <g id="text_13">
    <g id="patch_40">
     <path d="M 84.763461 223.682251 
L 98.215448 241.424914 
Q 100.027927 243.815505 102.418517 242.003026 
L 110.130661 236.155896 
Q 112.521252 234.343418 110.708773 231.952827 
L 97.256786 214.210164 
Q 95.444308 211.819574 93.053717 213.632052 
L 85.341573 219.479182 
Q 82.950983 221.291661 84.763461 223.682251 
z
" clip-path="url(#p42595bb240)" style="fill: #ffffff; stroke: #ffffff; stroke-linejoin: miter"/>
    </g>
    <g clip-path="url(#p42595bb240)">
     <!-- 0.56 -->
     <g transform="translate(88.811278 220.61331)rotate(-307.168379)scale(0.1 -0.1)">
      <use xlink:href="#DejaVuSans-30"/>
      <use xlink:href="#DejaVuSans-2e" x="63.623047"/>
      <use xlink:href="#DejaVuSans-35" x="95.410156"/>
      <use xlink:href="#DejaVuSans-36" x="159.033203"/>
     </g>
    </g>
   </g>
   <g id="text_14">
    <g id="patch_41">
     <path d="M 346.636433 241.61061 
L 361.06623 224.653635 
Q 363.010456 222.368906 360.725726 220.424681 
L 353.355095 214.152529 
Q 351.070365 212.208303 349.12614 214.493033 
L 334.696343 231.450008 
Q 332.752117 233.734737 335.036847 235.678963 
L 342.407479 241.951114 
Q 344.692208 243.89534 346.636433 241.61061 
z
" clip-path="url(#p42595bb240)" style="fill: #ffffff; stroke: #ffffff; stroke-linejoin: miter"/>
    </g>
    <g clip-path="url(#p42595bb240)">
     <!-- 0.56 -->
     <g transform="translate(342.767863 238.318591)rotate(-49.603371)scale(0.1 -0.1)">
      <use xlink:href="#DejaVuSans-30"/>
      <use xlink:href="#DejaVuSans-2e" x="63.623047"/>
      <use xlink:href="#DejaVuSans-35" x="95.410156"/>
      <use xlink:href="#DejaVuSans-36" x="159.033203"/>
     </g>
    </g>
   </g>
   <g id="text_15">
    <g id="patch_42">
     <path d="M 87.694355 257.541126 
L 104.806564 271.786488 
Q 107.112209 273.705863 109.031584 271.400218 
L 115.223568 263.962111 
Q 117.142943 261.656466 114.837298 259.737091 
L 97.725089 245.491729 
Q 95.419444 243.572354 93.500069 245.877999 
L 87.308085 253.316106 
Q 85.388709 255.621751 87.694355 257.541126 
z
" clip-path="url(#p42595bb240)" style="fill: #ffffff; stroke: #ffffff; stroke-linejoin: miter"/>
    </g>
    <g clip-path="url(#p42595bb240)">
     <!-- 0.56 -->
     <g transform="translate(90.944296 253.63714)rotate(-320.223711)scale(0.1 -0.1)">
      <use xlink:href="#DejaVuSans-30"/>
      <use xlink:href="#DejaVuSans-2e" x="63.623047"/>
      <use xlink:href="#DejaVuSans-35" x="95.410156"/>
      <use xlink:href="#DejaVuSans-36" x="159.033203"/>
     </g>
    </g>
   </g>
   <g id="text_16">
    <g id="patch_43">
     <path d="M 240.490259 188.556949 
L 252.78135 169.991198 
Q 254.437413 167.489707 251.935923 165.833644 
L 243.866009 160.491116 
Q 241.364519 158.835053 239.708456 161.336544 
L 227.417364 179.902295 
Q 225.761301 182.403786 228.262792 184.059849 
L 236.332705 189.402377 
Q 238.834196 191.058439 240.490259 188.556949 
z
" clip-path="url(#p42595bb240)" style="fill: #ffffff; stroke: #ffffff; stroke-linejoin: miter"/>
    </g>
    <g clip-path="url(#p42595bb240)">
     <!-- 0.62 -->
     <g transform="translate(236.254662 185.752855)rotate(-56.494229)scale(0.1 -0.1)">
      <use xlink:href="#DejaVuSans-30"/>
      <use xlink:href="#DejaVuSans-2e" x="63.623047"/>
      <use xlink:href="#DejaVuSans-36" x="95.410156"/>
      <use xlink:href="#DejaVuSans-32" x="159.033203"/>
     </g>
    </g>
   </g>
   <g id="text_17">
    <g id="patch_44">
     <path d="M 401.841303 125.933315 
L 408.347201 140.444782 
Q 409.574487 143.182257 412.311962 141.95497 
L 421.143169 137.995692 
Q 423.880644 136.768405 422.653357 134.030931 
L 416.14746 119.519464 
Q 414.920173 116.781989 412.182698 118.009276 
L 403.351491 121.968554 
Q 400.614016 123.19584 401.841303 125.933315 
z
" clip-path="url(#p42595bb240)" style="fill: #ffffff; stroke: #ffffff; stroke-linejoin: miter"/>
    </g>
    <g clip-path="url(#p42595bb240)">
     <!-- 1.0 -->
     <g transform="translate(406.476475 123.855237)rotate(-294.148032)scale(0.1 -0.1)">
      <use xlink:href="#DejaVuSans-31"/>
      <use xlink:href="#DejaVuSans-2e" x="63.623047"/>
      <use xlink:href="#DejaVuSans-30" x="95.410156"/>
     </g>
    </g>
   </g>
   <g id="text_18">
    <g id="patch_45">
     <path d="M 223.156663 140.494695 
L 245.380313 141.861236 
Q 248.374657 142.045359 248.558781 139.051014 
L 249.15277 129.391135 
Q 249.336894 126.39679 246.342549 126.212667 
L 224.118899 124.846126 
Q 221.124555 124.662003 220.940431 127.656347 
L 220.346442 137.316227 
Q 220.162318 140.310571 223.156663 140.494695 
z
" clip-path="url(#p42595bb240)" style="fill: #ffffff; stroke: #ffffff; stroke-linejoin: miter"/>
    </g>
    <g clip-path="url(#p42595bb240)">
     <!-- 0.71 -->
     <g transform="translate(223.468426 135.424583)rotate(-356.481291)scale(0.1 -0.1)">
      <use xlink:href="#DejaVuSans-30"/>
      <use xlink:href="#DejaVuSans-2e" x="63.623047"/>
      <use xlink:href="#DejaVuSans-37" x="95.410156"/>
      <use xlink:href="#DejaVuSans-31" x="159.033203"/>
     </g>
    </g>
   </g>
   <g id="text_19">
    <g id="patch_46">
     <path d="M 240.199501 155.127023 
L 257.275114 169.416232 
Q 259.575828 171.341515 261.501111 169.040801 
L 267.712154 161.618601 
Q 269.637437 159.317887 267.336723 157.392604 
L 250.261109 143.103395 
Q 247.960395 141.178112 246.035112 143.478826 
L 239.82407 150.901026 
Q 237.898787 153.20174 240.199501 155.127023 
z
" clip-path="url(#p42595bb240)" style="fill: #ffffff; stroke: #ffffff; stroke-linejoin: miter"/>
    </g>
    <g clip-path="url(#p42595bb240)">
     <!-- 0.83 -->
     <g transform="translate(243.459446 151.231387)rotate(-320.076744)scale(0.1 -0.1)">
      <use xlink:href="#DejaVuSans-30"/>
      <use xlink:href="#DejaVuSans-2e" x="63.623047"/>
      <use xlink:href="#DejaVuSans-38" x="95.410156"/>
      <use xlink:href="#DejaVuSans-33" x="159.033203"/>
     </g>
    </g>
   </g>
   <g id="text_20">
    <g id="patch_47">
     <path d="M 64.190475 166.473787 
L 68.227348 144.577173 
Q 68.771263 141.626893 65.820982 141.082977 
L 56.303254 139.328283 
Q 53.352973 138.784367 52.809058 141.734648 
L 48.772185 163.631262 
Q 48.228269 166.581543 51.17855 167.125458 
L 60.696278 168.880153 
Q 63.646559 169.424068 64.190475 166.473787 
z
" clip-path="url(#p42595bb240)" style="fill: #ffffff; stroke: #ffffff; stroke-linejoin: miter"/>
    </g>
    <g clip-path="url(#p42595bb240)">
     <!-- 0.56 -->
     <g transform="translate(59.194973 165.552814)rotate(-79.554208)scale(0.1 -0.1)">
      <use xlink:href="#DejaVuSans-30"/>
      <use xlink:href="#DejaVuSans-2e" x="63.623047"/>
      <use xlink:href="#DejaVuSans-35" x="95.410156"/>
      <use xlink:href="#DejaVuSans-36" x="159.033203"/>
     </g>
    </g>
   </g>
   <g id="text_21">
    <g id="patch_48">
     <path d="M 33.468681 189.646638 
L 38.773921 211.270987 
Q 39.488732 214.184584 42.402329 213.469772 
L 51.801713 211.163761 
Q 54.715309 210.44895 54.000498 207.535353 
L 48.695258 185.911004 
Q 47.980446 182.997407 45.06685 183.712219 
L 35.667466 186.01823 
Q 32.753869 186.733041 33.468681 189.646638 
z
" clip-path="url(#p42595bb240)" style="fill: #ffffff; stroke: #ffffff; stroke-linejoin: miter"/>
    </g>
    <g clip-path="url(#p42595bb240)">
     <!-- 0.62 -->
     <g transform="translate(38.402067 188.436298)rotate(-283.784483)scale(0.1 -0.1)">
      <use xlink:href="#DejaVuSans-30"/>
      <use xlink:href="#DejaVuSans-2e" x="63.623047"/>
      <use xlink:href="#DejaVuSans-36" x="95.410156"/>
      <use xlink:href="#DejaVuSans-32" x="159.033203"/>
     </g>
    </g>
   </g>
   <g id="text_22">
    <g id="patch_49">
     <path d="M 222.610753 187.456758 
L 238.510617 187.134737 
Q 241.510002 187.073991 241.449255 184.074606 
L 241.253284 174.398465 
Q 241.192537 171.39908 238.193153 171.459827 
L 222.293288 171.781847 
Q 219.293903 171.842594 219.35465 174.841979 
L 219.550621 184.51812 
Q 219.611368 187.517505 222.610753 187.456758 
z
" clip-path="url(#p42595bb240)" style="fill: #ffffff; stroke: #ffffff; stroke-linejoin: miter"/>
    </g>
    <g clip-path="url(#p42595bb240)">
     <!-- 1.0 -->
     <g transform="translate(222.507895 182.378112)rotate(-1.160255)scale(0.1 -0.1)">
      <use xlink:href="#DejaVuSans-31"/>
      <use xlink:href="#DejaVuSans-2e" x="63.623047"/>
      <use xlink:href="#DejaVuSans-30" x="95.410156"/>
     </g>
    </g>
   </g>
   <g id="text_23">
    <g id="patch_50">
     <path d="M 203.754586 88.544821 
L 225.905481 86.287404 
Q 228.890023 85.983247 228.585865 82.998706 
L 227.604642 73.37045 
Q 227.300485 70.385909 224.315943 70.690066 
L 202.165048 72.947482 
Q 199.180507 73.251639 199.484664 76.236181 
L 200.465888 85.864436 
Q 200.770045 88.848978 203.754586 88.544821 
z
" clip-path="url(#p42595bb240)" style="fill: #ffffff; stroke: #ffffff; stroke-linejoin: miter"/>
    </g>
    <g clip-path="url(#p42595bb240)">
     <!-- 0.62 -->
     <g transform="translate(203.239579 83.491308)rotate(-5.818972)scale(0.1 -0.1)">
      <use xlink:href="#DejaVuSans-30"/>
      <use xlink:href="#DejaVuSans-2e" x="63.623047"/>
      <use xlink:href="#DejaVuSans-36" x="95.410156"/>
      <use xlink:href="#DejaVuSans-32" x="159.033203"/>
     </g>
    </g>
   </g>
   <g id="text_24">
    <g id="patch_51">
     <path d="M 150.034107 73.599615 
L 170.975725 66.036104 
Q 173.797333 65.01702 172.778249 62.195413 
L 169.490643 53.09279 
Q 168.47156 50.271182 165.649952 51.290266 
L 144.708334 58.853777 
Q 141.886727 59.87286 142.90581 62.694468 
L 146.193416 71.797091 
Q 147.2125 74.618698 150.034107 73.599615 
z
" clip-path="url(#p42595bb240)" style="fill: #ffffff; stroke: #ffffff; stroke-linejoin: miter"/>
    </g>
    <g clip-path="url(#p42595bb240)">
     <!-- 0.71 -->
     <g transform="translate(148.308565 68.821987)rotate(-19.858264)scale(0.1 -0.1)">
      <use xlink:href="#DejaVuSans-30"/>
      <use xlink:href="#DejaVuSans-2e" x="63.623047"/>
      <use xlink:href="#DejaVuSans-37" x="95.410156"/>
      <use xlink:href="#DejaVuSans-31" x="159.033203"/>
     </g>
    </g>
   </g>
   <g id="text_25">
    <g id="patch_52">
     <path d="M 209.931276 176.153765 
L 227.004084 190.446326 
Q 229.304421 192.37206 231.230155 190.071724 
L 237.442655 182.650743 
Q 239.368389 180.350407 237.068053 178.424672 
L 219.995245 164.132112 
Q 217.694908 162.206378 215.769174 164.506714 
L 209.556674 171.927695 
Q 207.63094 174.228031 209.931276 176.153765 
z
" clip-path="url(#p42595bb240)" style="fill: #ffffff; stroke: #ffffff; stroke-linejoin: miter"/>
    </g>
    <g clip-path="url(#p42595bb240)">
     <!-- 0.62 -->
     <g transform="translate(213.191986 172.258769)rotate(-320.065498)scale(0.1 -0.1)">
      <use xlink:href="#DejaVuSans-30"/>
      <use xlink:href="#DejaVuSans-2e" x="63.623047"/>
      <use xlink:href="#DejaVuSans-36" x="95.410156"/>
      <use xlink:href="#DejaVuSans-32" x="159.033203"/>
     </g>
    </g>
   </g>
   <g id="text_26">
    <g id="patch_53">
     <path d="M 135.025616 187.467046 
L 140.999435 202.205529 
Q 142.126349 204.985828 144.906649 203.858914 
L 153.87601 200.223441 
Q 156.656309 199.096527 155.529395 196.316228 
L 149.555576 181.577745 
Q 148.428662 178.797446 145.648362 179.92436 
L 136.679001 183.559832 
Q 133.898702 184.686747 135.025616 187.467046 
z
" clip-path="url(#p42595bb240)" style="fill: #ffffff; stroke: #ffffff; stroke-linejoin: miter"/>
    </g>
    <g clip-path="url(#p42595bb240)">
     <!-- 1.0 -->
     <g transform="translate(139.7333 185.558922)rotate(-292.063755)scale(0.1 -0.1)">
      <use xlink:href="#DejaVuSans-31"/>
      <use xlink:href="#DejaVuSans-2e" x="63.623047"/>
      <use xlink:href="#DejaVuSans-30" x="95.410156"/>
     </g>
    </g>
   </g>
   <g id="PathCollection_1">
    <path d="M 418.833699 164.037999 
C 423.969335 164.037999 428.89532 161.997589 432.526763 158.366146 
C 436.158206 154.734703 438.198616 149.808718 438.198616 144.673082 
C 438.198616 139.537446 436.158206 134.611461 432.526763 130.980018 
C 428.89532 127.348575 423.969335 125.308165 418.833699 125.308165 
C 413.698063 125.308165 408.772078 127.348575 405.140635 130.980018 
C 401.509192 134.611461 399.468782 139.537446 399.468782 144.673082 
C 399.468782 149.808718 401.509192 154.734703 405.140635 158.366146 
C 408.772078 161.997589 413.698063 164.037999 418.833699 164.037999 
z
" clip-path="url(#p42595bb240)" style="fill: #808080; stroke: #808080"/>
    <path d="M 276.930582 342.412421 
C 285.147599 342.412421 293.029175 339.147765 298.839484 333.337457 
C 304.649793 327.527148 307.914449 319.645572 307.914449 311.428554 
C 307.914449 303.211537 304.649793 295.329961 298.839484 289.519652 
C 293.029175 283.709343 285.147599 280.444688 276.930582 280.444688 
C 268.713564 280.444688 260.831988 283.709343 255.02168 289.519652 
C 249.211371 295.329961 245.946715 303.211537 245.946715 311.428554 
C 245.946715 319.645572 249.211371 327.527148 255.02168 333.337457 
C 260.831988 339.147765 268.713564 342.412421 276.930582 342.412421 
z
" clip-path="url(#p42595bb240)" style="fill: #808080; stroke: #808080"/>
    <path d="M 47.482072 237.103769 
C 53.644835 237.103769 59.556017 234.655277 63.913749 230.297546 
C 68.27148 225.939814 70.719972 220.028632 70.719972 213.865869 
C 70.719972 207.703106 68.27148 201.791924 63.913749 197.434192 
C 59.556017 193.076461 53.644835 190.627969 47.482072 190.627969 
C 41.319309 190.627969 35.408127 193.076461 31.050395 197.434192 
C 26.692664 201.791924 24.244172 207.703106 24.244172 213.865869 
C 24.244172 220.028632 26.692664 225.939814 31.050395 230.297546 
C 35.408127 234.655277 41.319309 237.103769 47.482072 237.103769 
z
" clip-path="url(#p42595bb240)" style="fill: #808080; stroke: #808080"/>
    <path d="M 39.986777 202.679694 
C 45.122413 202.679694 50.048398 200.639285 53.679841 197.007842 
C 57.311284 193.376399 59.351694 188.450414 59.351694 183.314778 
C 59.351694 178.179142 57.311284 173.253157 53.679841 169.621714 
C 50.048398 165.990271 45.122413 163.949861 39.986777 163.949861 
C 34.851141 163.949861 29.925156 165.990271 26.293713 169.621714 
C 22.66227 173.253157 20.62186 178.179142 20.62186 183.314778 
C 20.62186 188.450414 22.66227 193.376399 26.293713 197.007842 
C 29.925156 200.639285 34.851141 202.679694 39.986777 202.679694 
z
" clip-path="url(#p42595bb240)" style="fill: #808080; stroke: #808080"/>
    <path d="M 155.050639 334.397096 
C 163.267657 334.397096 171.149233 331.13244 176.959541 325.322131 
C 182.76985 319.511822 186.034506 311.630246 186.034506 303.413229 
C 186.034506 295.196211 182.76985 287.314635 176.959541 281.504327 
C 171.149233 275.694018 163.267657 272.429362 155.050639 272.429362 
C 146.833622 272.429362 138.952046 275.694018 133.141737 281.504327 
C 127.331428 287.314635 124.066772 295.196211 124.066772 303.413229 
C 124.066772 311.630246 127.331428 319.511822 133.141737 325.322131 
C 138.952046 331.13244 146.833622 334.397096 155.050639 334.397096 
z
" clip-path="url(#p42595bb240)" style="fill: #808080; stroke: #808080"/>
    <path d="M 128.021002 70.397074 
C 133.156638 70.397074 138.082622 68.356664 141.714066 64.725221 
C 145.345509 61.093778 147.385918 56.167793 147.385918 51.032157 
C 147.385918 45.896522 145.345509 40.970537 141.714066 37.339094 
C 138.082622 33.707651 133.156638 31.667241 128.021002 31.667241 
C 122.885366 31.667241 117.959381 33.707651 114.327938 37.339094 
C 110.696495 40.970537 108.656085 45.896522 108.656085 51.032157 
C 108.656085 56.167793 110.696495 61.093778 114.327938 64.725221 
C 117.959381 68.356664 122.885366 70.397074 128.021002 70.397074 
z
" clip-path="url(#p42595bb240)" style="fill: #808080; stroke: #808080"/>
    <path d="M 402.625967 266.687274 
C 410.842984 266.687274 418.72456 263.422619 424.534869 257.61231 
C 430.345178 251.802001 433.609834 243.920425 433.609834 235.703407 
C 433.609834 227.48639 430.345178 219.604814 424.534869 213.794505 
C 418.72456 207.984196 410.842984 204.719541 402.625967 204.719541 
C 394.408949 204.719541 386.527373 207.984196 380.717065 213.794505 
C 374.906756 219.604814 371.6421 227.48639 371.6421 235.703407 
C 371.6421 243.920425 374.906756 251.802001 380.717065 257.61231 
C 386.527373 263.422619 394.408949 266.687274 402.625967 266.687274 
z
" clip-path="url(#p42595bb240)" style="fill: #808080; stroke: #808080"/>
    <path d="M 350.850883 307.139631 
C 357.013646 307.139631 362.924828 304.69114 367.28256 300.333408 
C 371.640292 295.975677 374.088783 290.064495 374.088783 283.901731 
C 374.088783 277.738968 371.640292 271.827786 367.28256 267.470055 
C 362.924828 263.112323 357.013646 260.663831 350.850883 260.663831 
C 344.68812 260.663831 338.776938 263.112323 334.419206 267.470055 
C 330.061475 271.827786 327.612983 277.738968 327.612983 283.901731 
C 327.612983 290.064495 330.061475 295.975677 334.419206 300.333408 
C 338.776938 304.69114 344.68812 307.139631 350.850883 307.139631 
z
" clip-path="url(#p42595bb240)" style="fill: #808080; stroke: #808080"/>
    <path d="M 96.14554 101.65814 
C 104.362557 101.65814 112.244133 98.393485 118.054442 92.583176 
C 123.864751 86.772867 127.129406 78.891291 127.129406 70.674273 
C 127.129406 62.457256 123.864751 54.57568 118.054442 48.765371 
C 112.244133 42.955062 104.362557 39.690407 96.14554 39.690407 
C 87.928522 39.690407 80.046946 42.955062 74.236637 48.765371 
C 68.426329 54.57568 65.161673 62.457256 65.161673 70.674273 
C 65.161673 78.891291 68.426329 86.772867 74.236637 92.583176 
C 80.046946 98.393485 87.928522 101.65814 96.14554 101.65814 
z
" clip-path="url(#p42595bb240)" style="fill: #808080; stroke: #808080"/>
    <path d="M 358.553545 84.25438 
C 363.689181 84.25438 368.615166 82.21397 372.246609 78.582527 
C 375.878052 74.951084 377.918462 70.025099 377.918462 64.889463 
C 377.918462 59.753827 375.878052 54.827842 372.246609 51.196399 
C 368.615166 47.564956 363.689181 45.524546 358.553545 45.524546 
C 353.417909 45.524546 348.491924 47.564956 344.860481 51.196399 
C 341.229038 54.827842 339.188628 59.753827 339.188628 64.889463 
C 339.188628 70.025099 341.229038 74.951084 344.860481 78.582527 
C 348.491924 82.21397 353.417909 84.25438 358.553545 84.25438 
z
" clip-path="url(#p42595bb240)" style="fill: #808080; stroke: #808080"/>
    <path d="M 405.661377 150.148942 
C 414.905522 150.148942 423.772295 146.476204 430.308892 139.939607 
C 436.84549 133.403009 440.518227 124.536236 440.518227 115.292092 
C 440.518227 106.047947 436.84549 97.181174 430.308892 90.644577 
C 423.772295 84.107979 414.905522 80.435242 405.661377 80.435242 
C 396.417232 80.435242 387.550459 84.107979 381.013862 90.644577 
C 374.477265 97.181174 370.804527 106.047947 370.804527 115.292092 
C 370.804527 124.536236 374.477265 133.403009 381.013862 139.939607 
C 387.550459 146.476204 396.417232 150.148942 405.661377 150.148942 
z
" clip-path="url(#p42595bb240)" style="fill: #808080; stroke: #808080"/>
    <path d="M 246.167096 49.90938 
C 251.302732 49.90938 256.228717 47.86897 259.86016 44.237527 
C 263.491603 40.606084 265.532013 35.680099 265.532013 30.544463 
C 265.532013 25.408827 263.491603 20.482842 259.86016 16.851399 
C 256.228717 13.219956 251.302732 11.179546 246.167096 11.179546 
C 241.03146 11.179546 236.105475 13.219956 232.474032 16.851399 
C 228.842589 20.482842 226.802179 25.408827 226.802179 30.544463 
C 226.802179 35.680099 228.842589 40.606084 232.474032 44.237527 
C 236.105475 47.86897 241.03146 49.90938 246.167096 49.90938 
z
" clip-path="url(#p42595bb240)" style="fill: #808080; stroke: #808080"/>
    <path d="M 69.516933 129.202279 
C 78.761077 129.202279 87.62785 125.529541 94.164448 118.992944 
C 100.701045 112.456346 104.373783 103.589574 104.373783 94.345429 
C 104.373783 85.101284 100.701045 76.234511 94.164448 69.697914 
C 87.62785 63.161316 78.761077 59.488579 69.516933 59.488579 
C 60.272788 59.488579 51.406015 63.161316 44.869418 69.697914 
C 38.33282 76.234511 34.660082 85.101284 34.660082 94.345429 
C 34.660082 103.589574 38.33282 112.456346 44.869418 118.992944 
C 51.406015 125.529541 60.272788 129.202279 69.516933 129.202279 
z
" clip-path="url(#p42595bb240)" style="fill: #808080; stroke: #808080"/>
    <path d="M 325.146085 81.34012 
C 334.39023 81.34012 343.257003 77.667382 349.7936 71.130785 
C 356.330198 64.594187 360.002935 55.727414 360.002935 46.48327 
C 360.002935 37.239125 356.330198 28.372352 349.7936 21.835755 
C 343.257003 15.299157 334.39023 11.62642 325.146085 11.62642 
C 315.90194 11.62642 307.035167 15.299157 300.49857 21.835755 
C 293.961973 28.372352 290.289235 37.239125 290.289235 46.48327 
C 290.289235 55.727414 293.961973 64.594187 300.49857 71.130785 
C 307.035167 77.667382 315.90194 81.34012 325.146085 81.34012 
z
" clip-path="url(#p42595bb240)" style="fill: #808080; stroke: #808080"/>
    <path d="M 205.140757 53.227983 
C 211.30352 53.227983 217.214702 50.779491 221.572434 46.421759 
C 225.930165 42.064028 228.378657 36.152846 228.378657 29.990083 
C 228.378657 23.82732 225.930165 17.916138 221.572434 13.558406 
C 217.214702 9.200674 211.30352 6.752183 205.140757 6.752183 
C 198.977994 6.752183 193.066812 9.200674 188.70908 13.558406 
C 184.351349 17.916138 181.902857 23.82732 181.902857 29.990083 
C 181.902857 36.152846 184.351349 42.064028 188.70908 46.421759 
C 193.066812 50.779491 198.977994 53.227983 205.140757 53.227983 
z
" clip-path="url(#p42595bb240)" style="fill: #808080; stroke: #808080"/>
    <path d="M 286.880742 69.406669 
C 296.124886 69.406669 304.991659 65.733931 311.528257 59.197334 
C 318.064854 52.660737 321.737592 43.793964 321.737592 34.549819 
C 321.737592 25.305674 318.064854 16.438901 311.528257 9.902304 
C 304.991659 3.365706 296.124886 -0.307031 286.880742 -0.307031 
C 277.636597 -0.307031 268.769824 3.365706 262.233227 9.902304 
C 255.696629 16.438901 252.023892 25.305674 252.023892 34.549819 
C 252.023892 43.793964 255.696629 52.660737 262.233227 59.197334 
C 268.769824 65.733931 277.636597 69.406669 286.880742 69.406669 
z
" clip-path="url(#p42595bb240)" style="fill: #808080; stroke: #808080"/>
    <path d="M 50.665434 156.891125 
C 59.909578 156.891125 68.776351 153.218387 75.312949 146.68179 
C 81.849546 140.145192 85.522284 131.27842 85.522284 122.034275 
C 85.522284 112.79013 81.849546 103.923357 75.312949 97.38676 
C 68.776351 90.850162 59.909578 87.177425 50.665434 87.177425 
C 41.421289 87.177425 32.554516 90.850162 26.017919 97.38676 
C 19.481321 103.923357 15.808584 112.79013 15.808584 122.034275 
C 15.808584 131.27842 19.481321 140.145192 26.017919 146.68179 
C 32.554516 153.218387 41.421289 156.891125 50.665434 156.891125 
z
" clip-path="url(#p42595bb240)" style="fill: #808080; stroke: #808080"/>
    <path d="M 40.419983 187.076573 
C 49.664128 187.076573 58.530901 183.403836 65.067498 176.867238 
C 71.604096 170.330641 75.276833 161.463868 75.276833 152.219723 
C 75.276833 142.975578 71.604096 134.108806 65.067498 127.572208 
C 58.530901 121.035611 49.664128 117.362873 40.419983 117.362873 
C 31.175838 117.362873 22.309065 121.035611 15.772468 127.572208 
C 9.235871 134.108806 5.563133 142.975578 5.563133 152.219723 
C 5.563133 161.463868 9.235871 170.330641 15.772468 176.867238 
C 22.309065 183.403836 31.175838 187.076573 40.419983 187.076573 
z
" clip-path="url(#p42595bb240)" style="fill: #808080; stroke: #808080"/>
    <path d="M 194.409824 324.72882 
C 197.491205 324.72882 200.446796 323.504574 202.625662 321.325708 
C 204.804528 319.146843 206.028774 316.191252 206.028774 313.10987 
C 206.028774 310.028488 204.804528 307.072897 202.625662 304.894032 
C 200.446796 302.715166 197.491205 301.49092 194.409824 301.49092 
C 191.328442 301.49092 188.372851 302.715166 186.193985 304.894032 
C 184.01512 307.072897 182.790874 310.028488 182.790874 313.10987 
C 182.790874 316.191252 184.01512 319.146843 186.193985 321.325708 
C 188.372851 323.504574 191.328442 324.72882 194.409824 324.72882 
z
" clip-path="url(#p42595bb240)" style="fill: #808080; stroke: #808080"/>
    <path d="M 235.789872 350.466767 
C 245.034017 350.466767 253.900789 346.79403 260.437387 340.257432 
C 266.973984 333.720835 270.646722 324.854062 270.646722 315.609917 
C 270.646722 306.365773 266.973984 297.499 260.437387 290.962402 
C 253.900789 284.425805 245.034017 280.753067 235.789872 280.753067 
C 226.545727 280.753067 217.678954 284.425805 211.142357 290.962402 
C 204.605759 297.499 200.933022 306.365773 200.933022 315.609917 
C 200.933022 324.854062 204.605759 333.720835 211.142357 340.257432 
C 217.678954 346.79403 226.545727 350.466767 235.789872 350.466767 
z
" clip-path="url(#p42595bb240)" style="fill: #808080; stroke: #808080"/>
    <path d="M 420.813223 210.458736 
C 430.057368 210.458736 438.924141 206.785999 445.460738 200.249401 
C 451.997336 193.712804 455.670073 184.846031 455.670073 175.601886 
C 455.670073 166.357742 451.997336 157.490969 445.460738 150.954371 
C 438.924141 144.417774 430.057368 140.745036 420.813223 140.745036 
C 411.569078 140.745036 402.702305 144.417774 396.165708 150.954371 
C 389.629111 157.490969 385.956373 166.357742 385.956373 175.601886 
C 385.956373 184.846031 389.629111 193.712804 396.165708 200.249401 
C 402.702305 206.785999 411.569078 210.458736 420.813223 210.458736 
z
" clip-path="url(#p42595bb240)" style="fill: #808080; stroke: #808080"/>
    <path d="M 118.362923 323.78264 
C 127.607068 323.78264 136.473841 320.109902 143.010438 313.573305 
C 149.547036 307.036707 153.219773 298.169934 153.219773 288.92579 
C 153.219773 279.681645 149.547036 270.814872 143.010438 264.278274 
C 136.473841 257.741677 127.607068 254.068939 118.362923 254.068939 
C 109.118779 254.068939 100.252006 257.741677 93.715408 264.278274 
C 87.178811 270.814872 83.506073 279.681645 83.506073 288.92579 
C 83.506073 298.169934 87.178811 307.036707 93.715408 313.573305 
C 100.252006 320.109902 109.118779 323.78264 118.362923 323.78264 
z
" clip-path="url(#p42595bb240)" style="fill: #808080; stroke: #808080"/>
    <path d="M 63.189188 277.547406 
C 72.433333 277.547406 81.300106 273.874669 87.836704 267.338071 
C 94.373301 260.801474 98.046039 251.934701 98.046039 242.690556 
C 98.046039 233.446412 94.373301 224.579639 87.836704 218.043041 
C 81.300106 211.506444 72.433333 207.833706 63.189188 207.833706 
C 53.945044 207.833706 45.078271 211.506444 38.541673 218.043041 
C 32.005076 224.579639 28.332338 233.446412 28.332338 242.690556 
C 28.332338 251.934701 32.005076 260.801474 38.541673 267.338071 
C 45.078271 273.874669 53.945044 277.547406 63.189188 277.547406 
z
" clip-path="url(#p42595bb240)" style="fill: #808080; stroke: #808080"/>
    <path d="M 315.623303 335.144254 
C 324.867447 335.144254 333.73422 331.471517 340.270818 324.934919 
C 346.807415 318.398322 350.480153 309.531549 350.480153 300.287404 
C 350.480153 291.04326 346.807415 282.176487 340.270818 275.639889 
C 333.73422 269.103292 324.867447 265.430554 315.623303 265.430554 
C 306.379158 265.430554 297.512385 269.103292 290.975787 275.639889 
C 284.43919 282.176487 280.766452 291.04326 280.766452 300.287404 
C 280.766452 309.531549 284.43919 318.398322 290.975787 324.934919 
C 297.512385 331.471517 306.379158 335.144254 315.623303 335.144254 
z
" clip-path="url(#p42595bb240)" style="fill: #808080; stroke: #808080"/>
    <path d="M 87.53706 298.964431 
C 95.754078 298.964431 103.635654 295.699775 109.445963 289.889466 
C 115.256272 284.079158 118.520927 276.197582 118.520927 267.980564 
C 118.520927 259.763547 115.256272 251.881971 109.445963 246.071662 
C 103.635654 240.261353 95.754078 236.996697 87.53706 236.996697 
C 79.320043 236.996697 71.438467 240.261353 65.628158 246.071662 
C 59.817849 251.881971 56.553194 259.763547 56.553194 267.980564 
C 56.553194 276.197582 59.817849 284.079158 65.628158 289.889466 
C 71.438467 295.699775 79.320043 298.964431 87.53706 298.964431 
z
" clip-path="url(#p42595bb240)" style="fill: #808080; stroke: #808080"/>
    <path d="M 415.904088 229.532753 
C 422.066851 229.532753 427.978033 227.084261 432.335765 222.72653 
C 436.693497 218.368798 439.141988 212.457616 439.141988 206.294853 
C 439.141988 200.13209 436.693497 194.220908 432.335765 189.863176 
C 427.978033 185.505445 422.066851 183.056953 415.904088 183.056953 
C 409.741325 183.056953 403.830143 185.505445 399.472411 189.863176 
C 395.11468 194.220908 392.666188 200.13209 392.666188 206.294853 
C 392.666188 212.457616 395.11468 218.368798 399.472411 222.72653 
C 403.830143 227.084261 409.741325 229.532753 415.904088 229.532753 
z
" clip-path="url(#p42595bb240)" style="fill: #808080; stroke: #808080"/>
    <path d="M 164.955814 60.365317 
C 171.118577 60.365317 177.029759 57.916825 181.38749 53.559094 
C 185.745222 49.201362 188.193714 43.29018 188.193714 37.127417 
C 188.193714 30.964654 185.745222 25.053472 181.38749 20.69574 
C 177.029759 16.338009 171.118577 13.889517 164.955814 13.889517 
C 158.79305 13.889517 152.881868 16.338009 148.524137 20.69574 
C 144.166405 25.053472 141.717914 30.964654 141.717914 37.127417 
C 141.717914 43.29018 144.166405 49.201362 148.524137 53.559094 
C 152.881868 57.916825 158.79305 60.365317 164.955814 60.365317 
z
" clip-path="url(#p42595bb240)" style="fill: #808080; stroke: #808080"/>
    <path d="M 379.513601 292.469981 
C 387.730619 292.469981 395.612195 289.205325 401.422504 283.395016 
C 407.232812 277.584707 410.497468 269.703131 410.497468 261.486114 
C 410.497468 253.269096 407.232812 245.38752 401.422504 239.577211 
C 395.612195 233.766903 387.730619 230.502247 379.513601 230.502247 
C 371.296584 230.502247 363.415008 233.766903 357.604699 239.577211 
C 351.79439 245.38752 348.529734 253.269096 348.529734 261.486114 
C 348.529734 269.703131 351.79439 277.584707 357.604699 283.395016 
C 363.415008 289.205325 371.296584 292.469981 379.513601 292.469981 
z
" clip-path="url(#p42595bb240)" style="fill: #808080; stroke: #808080"/>
    <path d="M 386.933935 122.469872 
C 396.17808 122.469872 405.044853 118.797134 411.58145 112.260537 
C 418.118047 105.72394 421.790785 96.857167 421.790785 87.613022 
C 421.790785 78.368877 418.118047 69.502104 411.58145 62.965507 
C 405.044853 56.428909 396.17808 52.756172 386.933935 52.756172 
C 377.68979 52.756172 368.823017 56.428909 362.28642 62.965507 
C 355.749822 69.502104 352.077085 78.368877 352.077085 87.613022 
C 352.077085 96.857167 355.749822 105.72394 362.28642 112.260537 
C 368.823017 118.797134 377.68979 122.469872 386.933935 122.469872 
z
" clip-path="url(#p42595bb240)" style="fill: #808080; stroke: #808080"/>
   </g>
   <g id="text_27">
    <g clip-path="url(#p42595bb240)">
     <!-- Pablo -->
     <g transform="translate(402.661824 141.265644)scale(0.12 -0.12)">
      <defs>
       <path id="DejaVuSans-50" d="M 1259 4147 
L 1259 2394 
L 2053 2394 
Q 2494 2394 2734 2622 
Q 2975 2850 2975 3272 
Q 2975 3691 2734 3919 
Q 2494 4147 2053 4147 
L 1259 4147 
z
M 628 4666 
L 2053 4666 
Q 2838 4666 3239 4311 
Q 3641 3956 3641 3272 
Q 3641 2581 3239 2228 
Q 2838 1875 2053 1875 
L 1259 1875 
L 1259 0 
L 628 0 
L 628 4666 
z
" transform="scale(0.015625)"/>
       <path id="DejaVuSans-61" d="M 2194 1759 
Q 1497 1759 1228 1600 
Q 959 1441 959 1056 
Q 959 750 1161 570 
Q 1363 391 1709 391 
Q 2188 391 2477 730 
Q 2766 1069 2766 1631 
L 2766 1759 
L 2194 1759 
z
M 3341 1997 
L 3341 0 
L 2766 0 
L 2766 531 
Q 2569 213 2275 61 
Q 1981 -91 1556 -91 
Q 1019 -91 701 211 
Q 384 513 384 1019 
Q 384 1609 779 1909 
Q 1175 2209 1959 2209 
L 2766 2209 
L 2766 2266 
Q 2766 2663 2505 2880 
Q 2244 3097 1772 3097 
Q 1472 3097 1187 3025 
Q 903 2953 641 2809 
L 641 3341 
Q 956 3463 1253 3523 
Q 1550 3584 1831 3584 
Q 2591 3584 2966 3190 
Q 3341 2797 3341 1997 
z
" transform="scale(0.015625)"/>
       <path id="DejaVuSans-62" d="M 3116 1747 
Q 3116 2381 2855 2742 
Q 2594 3103 2138 3103 
Q 1681 3103 1420 2742 
Q 1159 2381 1159 1747 
Q 1159 1113 1420 752 
Q 1681 391 2138 391 
Q 2594 391 2855 752 
Q 3116 1113 3116 1747 
z
M 1159 2969 
Q 1341 3281 1617 3432 
Q 1894 3584 2278 3584 
Q 2916 3584 3314 3078 
Q 3713 2572 3713 1747 
Q 3713 922 3314 415 
Q 2916 -91 2278 -91 
Q 1894 -91 1617 61 
Q 1341 213 1159 525 
L 1159 0 
L 581 0 
L 581 4863 
L 1159 4863 
L 1159 2969 
z
" transform="scale(0.015625)"/>
       <path id="DejaVuSans-6c" d="M 603 4863 
L 1178 4863 
L 1178 0 
L 603 0 
L 603 4863 
z
" transform="scale(0.015625)"/>
       <path id="DejaVuSans-6f" d="M 1959 3097 
Q 1497 3097 1228 2736 
Q 959 2375 959 1747 
Q 959 1119 1226 758 
Q 1494 397 1959 397 
Q 2419 397 2687 759 
Q 2956 1122 2956 1747 
Q 2956 2369 2687 2733 
Q 2419 3097 1959 3097 
z
M 1959 3584 
Q 2709 3584 3137 3096 
Q 3566 2609 3566 1747 
Q 3566 888 3137 398 
Q 2709 -91 1959 -91 
Q 1206 -91 779 398 
Q 353 888 353 1747 
Q 353 2609 779 3096 
Q 1206 3584 1959 3584 
z
" transform="scale(0.015625)"/>
      </defs>
      <use xlink:href="#DejaVuSans-50"/>
      <use xlink:href="#DejaVuSans-61" x="55.802734"/>
      <use xlink:href="#DejaVuSans-62" x="117.082031"/>
      <use xlink:href="#DejaVuSans-6c" x="180.558594"/>
      <use xlink:href="#DejaVuSans-6f" x="208.341797"/>
     </g>
    </g>
    <g clip-path="url(#p42595bb240)">
     <!-- Ugo -->
     <g transform="translate(406.962137 154.703019)scale(0.12 -0.12)">
      <defs>
       <path id="DejaVuSans-55" d="M 556 4666 
L 1191 4666 
L 1191 1831 
Q 1191 1081 1462 751 
Q 1734 422 2344 422 
Q 2950 422 3222 751 
Q 3494 1081 3494 1831 
L 3494 4666 
L 4128 4666 
L 4128 1753 
Q 4128 841 3676 375 
Q 3225 -91 2344 -91 
Q 1459 -91 1007 375 
Q 556 841 556 1753 
L 556 4666 
z
" transform="scale(0.015625)"/>
       <path id="DejaVuSans-67" d="M 2906 1791 
Q 2906 2416 2648 2759 
Q 2391 3103 1925 3103 
Q 1463 3103 1205 2759 
Q 947 2416 947 1791 
Q 947 1169 1205 825 
Q 1463 481 1925 481 
Q 2391 481 2648 825 
Q 2906 1169 2906 1791 
z
M 3481 434 
Q 3481 -459 3084 -895 
Q 2688 -1331 1869 -1331 
Q 1566 -1331 1297 -1286 
Q 1028 -1241 775 -1147 
L 775 -588 
Q 1028 -725 1275 -790 
Q 1522 -856 1778 -856 
Q 2344 -856 2625 -561 
Q 2906 -266 2906 331 
L 2906 616 
Q 2728 306 2450 153 
Q 2172 0 1784 0 
Q 1141 0 747 490 
Q 353 981 353 1791 
Q 353 2603 747 3093 
Q 1141 3584 1784 3584 
Q 2172 3584 2450 3431 
Q 2728 3278 2906 2969 
L 2906 3500 
L 3481 3500 
L 3481 434 
z
" transform="scale(0.015625)"/>
      </defs>
      <use xlink:href="#DejaVuSans-55"/>
      <use xlink:href="#DejaVuSans-67" x="73.193359"/>
      <use xlink:href="#DejaVuSans-6f" x="136.669922"/>
     </g>
    </g>
   </g>
   <g id="text_28">
    <g clip-path="url(#p42595bb240)">
     <!-- Nicco -->
     <g transform="translate(260.505582 308.021117)scale(0.12 -0.12)">
      <defs>
       <path id="DejaVuSans-4e" d="M 628 4666 
L 1478 4666 
L 3547 763 
L 3547 4666 
L 4159 4666 
L 4159 0 
L 3309 0 
L 1241 3903 
L 1241 0 
L 628 0 
L 628 4666 
z
" transform="scale(0.015625)"/>
       <path id="DejaVuSans-69" d="M 603 3500 
L 1178 3500 
L 1178 0 
L 603 0 
L 603 3500 
z
M 603 4863 
L 1178 4863 
L 1178 4134 
L 603 4134 
L 603 4863 
z
" transform="scale(0.015625)"/>
       <path id="DejaVuSans-63" d="M 3122 3366 
L 3122 2828 
Q 2878 2963 2633 3030 
Q 2388 3097 2138 3097 
Q 1578 3097 1268 2742 
Q 959 2388 959 1747 
Q 959 1106 1268 751 
Q 1578 397 2138 397 
Q 2388 397 2633 464 
Q 2878 531 3122 666 
L 3122 134 
Q 2881 22 2623 -34 
Q 2366 -91 2075 -91 
Q 1284 -91 818 406 
Q 353 903 353 1747 
Q 353 2603 823 3093 
Q 1294 3584 2113 3584 
Q 2378 3584 2631 3529 
Q 2884 3475 3122 3366 
z
" transform="scale(0.015625)"/>
      </defs>
      <use xlink:href="#DejaVuSans-4e"/>
      <use xlink:href="#DejaVuSans-69" x="74.804688"/>
      <use xlink:href="#DejaVuSans-63" x="102.587891"/>
      <use xlink:href="#DejaVuSans-63" x="157.568359"/>
      <use xlink:href="#DejaVuSans-6f" x="212.548828"/>
     </g>
    </g>
    <g clip-path="url(#p42595bb240)">
     <!-- Shintaro -->
     <g transform="translate(251.817769 321.458492)scale(0.12 -0.12)">
      <defs>
       <path id="DejaVuSans-53" d="M 3425 4513 
L 3425 3897 
Q 3066 4069 2747 4153 
Q 2428 4238 2131 4238 
Q 1616 4238 1336 4038 
Q 1056 3838 1056 3469 
Q 1056 3159 1242 3001 
Q 1428 2844 1947 2747 
L 2328 2669 
Q 3034 2534 3370 2195 
Q 3706 1856 3706 1288 
Q 3706 609 3251 259 
Q 2797 -91 1919 -91 
Q 1588 -91 1214 -16 
Q 841 59 441 206 
L 441 856 
Q 825 641 1194 531 
Q 1563 422 1919 422 
Q 2459 422 2753 634 
Q 3047 847 3047 1241 
Q 3047 1584 2836 1778 
Q 2625 1972 2144 2069 
L 1759 2144 
Q 1053 2284 737 2584 
Q 422 2884 422 3419 
Q 422 4038 858 4394 
Q 1294 4750 2059 4750 
Q 2388 4750 2728 4690 
Q 3069 4631 3425 4513 
z
" transform="scale(0.015625)"/>
       <path id="DejaVuSans-68" d="M 3513 2113 
L 3513 0 
L 2938 0 
L 2938 2094 
Q 2938 2591 2744 2837 
Q 2550 3084 2163 3084 
Q 1697 3084 1428 2787 
Q 1159 2491 1159 1978 
L 1159 0 
L 581 0 
L 581 4863 
L 1159 4863 
L 1159 2956 
Q 1366 3272 1645 3428 
Q 1925 3584 2291 3584 
Q 2894 3584 3203 3211 
Q 3513 2838 3513 2113 
z
" transform="scale(0.015625)"/>
       <path id="DejaVuSans-6e" d="M 3513 2113 
L 3513 0 
L 2938 0 
L 2938 2094 
Q 2938 2591 2744 2837 
Q 2550 3084 2163 3084 
Q 1697 3084 1428 2787 
Q 1159 2491 1159 1978 
L 1159 0 
L 581 0 
L 581 3500 
L 1159 3500 
L 1159 2956 
Q 1366 3272 1645 3428 
Q 1925 3584 2291 3584 
Q 2894 3584 3203 3211 
Q 3513 2838 3513 2113 
z
" transform="scale(0.015625)"/>
       <path id="DejaVuSans-74" d="M 1172 4494 
L 1172 3500 
L 2356 3500 
L 2356 3053 
L 1172 3053 
L 1172 1153 
Q 1172 725 1289 603 
Q 1406 481 1766 481 
L 2356 481 
L 2356 0 
L 1766 0 
Q 1100 0 847 248 
Q 594 497 594 1153 
L 594 3053 
L 172 3053 
L 172 3500 
L 594 3500 
L 594 4494 
L 1172 4494 
z
" transform="scale(0.015625)"/>
       <path id="DejaVuSans-72" d="M 2631 2963 
Q 2534 3019 2420 3045 
Q 2306 3072 2169 3072 
Q 1681 3072 1420 2755 
Q 1159 2438 1159 1844 
L 1159 0 
L 581 0 
L 581 3500 
L 1159 3500 
L 1159 2956 
Q 1341 3275 1631 3429 
Q 1922 3584 2338 3584 
Q 2397 3584 2469 3576 
Q 2541 3569 2628 3553 
L 2631 2963 
z
" transform="scale(0.015625)"/>
      </defs>
      <use xlink:href="#DejaVuSans-53"/>
      <use xlink:href="#DejaVuSans-68" x="63.476562"/>
      <use xlink:href="#DejaVuSans-69" x="126.855469"/>
      <use xlink:href="#DejaVuSans-6e" x="154.638672"/>
      <use xlink:href="#DejaVuSans-74" x="218.017578"/>
      <use xlink:href="#DejaVuSans-61" x="257.226562"/>
      <use xlink:href="#DejaVuSans-72" x="318.505859"/>
      <use xlink:href="#DejaVuSans-6f" x="357.369141"/>
     </g>
    </g>
   </g>
   <g id="text_29">
    <g clip-path="url(#p42595bb240)">
     <!-- Pablo -->
     <g transform="translate(31.310197 210.458432)scale(0.12 -0.12)">
      <use xlink:href="#DejaVuSans-50"/>
      <use xlink:href="#DejaVuSans-61" x="55.802734"/>
      <use xlink:href="#DejaVuSans-62" x="117.082031"/>
      <use xlink:href="#DejaVuSans-6c" x="180.558594"/>
      <use xlink:href="#DejaVuSans-6f" x="208.341797"/>
     </g>
    </g>
    <g clip-path="url(#p42595bb240)">
     <!-- Xiaoyu -->
     <g transform="translate(27.003322 223.895807)scale(0.12 -0.12)">
      <defs>
       <path id="DejaVuSans-58" d="M 403 4666 
L 1081 4666 
L 2241 2931 
L 3406 4666 
L 4084 4666 
L 2584 2425 
L 4184 0 
L 3506 0 
L 2194 1984 
L 872 0 
L 191 0 
L 1856 2491 
L 403 4666 
z
" transform="scale(0.015625)"/>
       <path id="DejaVuSans-79" d="M 2059 -325 
Q 1816 -950 1584 -1140 
Q 1353 -1331 966 -1331 
L 506 -1331 
L 506 -850 
L 844 -850 
Q 1081 -850 1212 -737 
Q 1344 -625 1503 -206 
L 1606 56 
L 191 3500 
L 800 3500 
L 1894 763 
L 2988 3500 
L 3597 3500 
L 2059 -325 
z
" transform="scale(0.015625)"/>
       <path id="DejaVuSans-75" d="M 544 1381 
L 544 3500 
L 1119 3500 
L 1119 1403 
Q 1119 906 1312 657 
Q 1506 409 1894 409 
Q 2359 409 2629 706 
Q 2900 1003 2900 1516 
L 2900 3500 
L 3475 3500 
L 3475 0 
L 2900 0 
L 2900 538 
Q 2691 219 2414 64 
Q 2138 -91 1772 -91 
Q 1169 -91 856 284 
Q 544 659 544 1381 
z
M 1991 3584 
L 1991 3584 
z
" transform="scale(0.015625)"/>
      </defs>
      <use xlink:href="#DejaVuSans-58"/>
      <use xlink:href="#DejaVuSans-69" x="68.505859"/>
      <use xlink:href="#DejaVuSans-61" x="96.289062"/>
      <use xlink:href="#DejaVuSans-6f" x="157.568359"/>
      <use xlink:href="#DejaVuSans-79" x="218.75"/>
      <use xlink:href="#DejaVuSans-75" x="277.929688"/>
     </g>
    </g>
   </g>
   <g id="text_30">
    <g clip-path="url(#p42595bb240)">
     <!-- Nicco -->
     <g transform="translate(23.561777 179.90734)scale(0.12 -0.12)">
      <use xlink:href="#DejaVuSans-4e"/>
      <use xlink:href="#DejaVuSans-69" x="74.804688"/>
      <use xlink:href="#DejaVuSans-63" x="102.587891"/>
      <use xlink:href="#DejaVuSans-63" x="157.568359"/>
      <use xlink:href="#DejaVuSans-6f" x="212.548828"/>
     </g>
    </g>
    <g clip-path="url(#p42595bb240)">
     <!-- Leo -->
     <g transform="translate(29.385527 193.344715)scale(0.12 -0.12)">
      <defs>
       <path id="DejaVuSans-4c" d="M 628 4666 
L 1259 4666 
L 1259 531 
L 3531 531 
L 3531 0 
L 628 0 
L 628 4666 
z
" transform="scale(0.015625)"/>
       <path id="DejaVuSans-65" d="M 3597 1894 
L 3597 1613 
L 953 1613 
Q 991 1019 1311 708 
Q 1631 397 2203 397 
Q 2534 397 2845 478 
Q 3156 559 3463 722 
L 3463 178 
Q 3153 47 2828 -22 
Q 2503 -91 2169 -91 
Q 1331 -91 842 396 
Q 353 884 353 1716 
Q 353 2575 817 3079 
Q 1281 3584 2069 3584 
Q 2775 3584 3186 3129 
Q 3597 2675 3597 1894 
z
M 3022 2063 
Q 3016 2534 2758 2815 
Q 2500 3097 2075 3097 
Q 1594 3097 1305 2825 
Q 1016 2553 972 2059 
L 3022 2063 
z
" transform="scale(0.015625)"/>
      </defs>
      <use xlink:href="#DejaVuSans-4c"/>
      <use xlink:href="#DejaVuSans-65" x="53.962891"/>
      <use xlink:href="#DejaVuSans-6f" x="115.486328"/>
     </g>
    </g>
   </g>
   <g id="text_31">
    <g clip-path="url(#p42595bb240)">
     <!-- Leo -->
     <g transform="translate(144.449389 300.005791)scale(0.12 -0.12)">
      <use xlink:href="#DejaVuSans-4c"/>
      <use xlink:href="#DejaVuSans-65" x="53.962891"/>
      <use xlink:href="#DejaVuSans-6f" x="115.486328"/>
     </g>
    </g>
    <g clip-path="url(#p42595bb240)">
     <!-- Shintaro -->
     <g transform="translate(129.937827 313.443166)scale(0.12 -0.12)">
      <use xlink:href="#DejaVuSans-53"/>
      <use xlink:href="#DejaVuSans-68" x="63.476562"/>
      <use xlink:href="#DejaVuSans-69" x="126.855469"/>
      <use xlink:href="#DejaVuSans-6e" x="154.638672"/>
      <use xlink:href="#DejaVuSans-74" x="218.017578"/>
      <use xlink:href="#DejaVuSans-61" x="257.226562"/>
      <use xlink:href="#DejaVuSans-72" x="318.505859"/>
      <use xlink:href="#DejaVuSans-6f" x="357.369141"/>
     </g>
    </g>
   </g>
   <g id="text_32">
    <g clip-path="url(#p42595bb240)">
     <!-- Pablo -->
     <g transform="translate(111.849127 47.62472)scale(0.12 -0.12)">
      <use xlink:href="#DejaVuSans-50"/>
      <use xlink:href="#DejaVuSans-61" x="55.802734"/>
      <use xlink:href="#DejaVuSans-62" x="117.082031"/>
      <use xlink:href="#DejaVuSans-6c" x="180.558594"/>
      <use xlink:href="#DejaVuSans-6f" x="208.341797"/>
     </g>
    </g>
    <g clip-path="url(#p42595bb240)">
     <!-- Leo -->
     <g transform="translate(117.419752 61.062095)scale(0.12 -0.12)">
      <use xlink:href="#DejaVuSans-4c"/>
      <use xlink:href="#DejaVuSans-65" x="53.962891"/>
      <use xlink:href="#DejaVuSans-6f" x="115.486328"/>
     </g>
    </g>
   </g>
   <g id="text_33">
    <g clip-path="url(#p42595bb240)">
     <!-- Shintaro -->
     <g transform="translate(377.513154 232.29597)scale(0.12 -0.12)">
      <use xlink:href="#DejaVuSans-53"/>
      <use xlink:href="#DejaVuSans-68" x="63.476562"/>
      <use xlink:href="#DejaVuSans-69" x="126.855469"/>
      <use xlink:href="#DejaVuSans-6e" x="154.638672"/>
      <use xlink:href="#DejaVuSans-74" x="218.017578"/>
      <use xlink:href="#DejaVuSans-61" x="257.226562"/>
      <use xlink:href="#DejaVuSans-72" x="318.505859"/>
      <use xlink:href="#DejaVuSans-6f" x="357.369141"/>
     </g>
    </g>
    <g clip-path="url(#p42595bb240)">
     <!-- Xiaoyu -->
     <g transform="translate(382.147217 245.733345)scale(0.12 -0.12)">
      <use xlink:href="#DejaVuSans-58"/>
      <use xlink:href="#DejaVuSans-69" x="68.505859"/>
      <use xlink:href="#DejaVuSans-61" x="96.289062"/>
      <use xlink:href="#DejaVuSans-6f" x="157.568359"/>
      <use xlink:href="#DejaVuSans-79" x="218.75"/>
      <use xlink:href="#DejaVuSans-75" x="277.929688"/>
     </g>
    </g>
   </g>
   <g id="text_34">
    <g clip-path="url(#p42595bb240)">
     <!-- Leo -->
     <g transform="translate(340.249633 280.494294)scale(0.12 -0.12)">
      <use xlink:href="#DejaVuSans-4c"/>
      <use xlink:href="#DejaVuSans-65" x="53.962891"/>
      <use xlink:href="#DejaVuSans-6f" x="115.486328"/>
     </g>
    </g>
    <g clip-path="url(#p42595bb240)">
     <!-- Xiaoyu -->
     <g transform="translate(330.372133 293.931669)scale(0.12 -0.12)">
      <use xlink:href="#DejaVuSans-58"/>
      <use xlink:href="#DejaVuSans-69" x="68.505859"/>
      <use xlink:href="#DejaVuSans-61" x="96.289062"/>
      <use xlink:href="#DejaVuSans-6f" x="157.568359"/>
      <use xlink:href="#DejaVuSans-79" x="218.75"/>
      <use xlink:href="#DejaVuSans-75" x="277.929688"/>
     </g>
    </g>
   </g>
   <g id="text_35">
    <g clip-path="url(#p42595bb240)">
     <!-- Pablo -->
     <g transform="translate(79.973665 67.266836)scale(0.12 -0.12)">
      <use xlink:href="#DejaVuSans-50"/>
      <use xlink:href="#DejaVuSans-61" x="55.802734"/>
      <use xlink:href="#DejaVuSans-62" x="117.082031"/>
      <use xlink:href="#DejaVuSans-6c" x="180.558594"/>
      <use xlink:href="#DejaVuSans-6f" x="208.341797"/>
     </g>
    </g>
    <g clip-path="url(#p42595bb240)">
     <!-- Shintaro -->
     <g transform="translate(71.032727 80.704211)scale(0.12 -0.12)">
      <use xlink:href="#DejaVuSans-53"/>
      <use xlink:href="#DejaVuSans-68" x="63.476562"/>
      <use xlink:href="#DejaVuSans-69" x="126.855469"/>
      <use xlink:href="#DejaVuSans-6e" x="154.638672"/>
      <use xlink:href="#DejaVuSans-74" x="218.017578"/>
      <use xlink:href="#DejaVuSans-61" x="257.226562"/>
      <use xlink:href="#DejaVuSans-72" x="318.505859"/>
      <use xlink:href="#DejaVuSans-6f" x="357.369141"/>
     </g>
    </g>
   </g>
   <g id="text_36">
    <g clip-path="url(#p42595bb240)">
     <!-- Ugo -->
     <g transform="translate(346.681982 61.482026)scale(0.12 -0.12)">
      <use xlink:href="#DejaVuSans-55"/>
      <use xlink:href="#DejaVuSans-67" x="73.193359"/>
      <use xlink:href="#DejaVuSans-6f" x="136.669922"/>
     </g>
    </g>
    <g clip-path="url(#p42595bb240)">
     <!-- Nicco -->
     <g transform="translate(342.128545 74.919401)scale(0.12 -0.12)">
      <use xlink:href="#DejaVuSans-4e"/>
      <use xlink:href="#DejaVuSans-69" x="74.804688"/>
      <use xlink:href="#DejaVuSans-63" x="102.587891"/>
      <use xlink:href="#DejaVuSans-63" x="157.568359"/>
      <use xlink:href="#DejaVuSans-6f" x="212.548828"/>
     </g>
    </g>
   </g>
   <g id="text_37">
    <g clip-path="url(#p42595bb240)">
     <!-- Mathieu p -->
     <g transform="translate(375.775752 111.884654)scale(0.12 -0.12)">
      <defs>
       <path id="DejaVuSans-4d" d="M 628 4666 
L 1569 4666 
L 2759 1491 
L 3956 4666 
L 4897 4666 
L 4897 0 
L 4281 0 
L 4281 4097 
L 3078 897 
L 2444 897 
L 1241 4097 
L 1241 0 
L 628 0 
L 628 4666 
z
" transform="scale(0.015625)"/>
       <path id="DejaVuSans-20" transform="scale(0.015625)"/>
       <path id="DejaVuSans-70" d="M 1159 525 
L 1159 -1331 
L 581 -1331 
L 581 3500 
L 1159 3500 
L 1159 2969 
Q 1341 3281 1617 3432 
Q 1894 3584 2278 3584 
Q 2916 3584 3314 3078 
Q 3713 2572 3713 1747 
Q 3713 922 3314 415 
Q 2916 -91 2278 -91 
Q 1894 -91 1617 61 
Q 1341 213 1159 525 
z
M 3116 1747 
Q 3116 2381 2855 2742 
Q 2594 3103 2138 3103 
Q 1681 3103 1420 2742 
Q 1159 2381 1159 1747 
Q 1159 1113 1420 752 
Q 1681 391 2138 391 
Q 2594 391 2855 752 
Q 3116 1113 3116 1747 
z
" transform="scale(0.015625)"/>
      </defs>
      <use xlink:href="#DejaVuSans-4d"/>
      <use xlink:href="#DejaVuSans-61" x="86.279297"/>
      <use xlink:href="#DejaVuSans-74" x="147.558594"/>
      <use xlink:href="#DejaVuSans-68" x="186.767578"/>
      <use xlink:href="#DejaVuSans-69" x="250.146484"/>
      <use xlink:href="#DejaVuSans-65" x="277.929688"/>
      <use xlink:href="#DejaVuSans-75" x="339.453125"/>
      <use xlink:href="#DejaVuSans-20" x="402.832031"/>
      <use xlink:href="#DejaVuSans-70" x="434.619141"/>
     </g>
    </g>
    <g clip-path="url(#p42595bb240)">
     <!-- Shintaro -->
     <g transform="translate(380.548565 125.322029)scale(0.12 -0.12)">
      <use xlink:href="#DejaVuSans-53"/>
      <use xlink:href="#DejaVuSans-68" x="63.476562"/>
      <use xlink:href="#DejaVuSans-69" x="126.855469"/>
      <use xlink:href="#DejaVuSans-6e" x="154.638672"/>
      <use xlink:href="#DejaVuSans-74" x="218.017578"/>
      <use xlink:href="#DejaVuSans-61" x="257.226562"/>
      <use xlink:href="#DejaVuSans-72" x="318.505859"/>
      <use xlink:href="#DejaVuSans-6f" x="357.369141"/>
     </g>
    </g>
   </g>
   <g id="text_38">
    <g clip-path="url(#p42595bb240)">
     <!-- Pablo -->
     <g transform="translate(229.995221 27.137025)scale(0.12 -0.12)">
      <use xlink:href="#DejaVuSans-50"/>
      <use xlink:href="#DejaVuSans-61" x="55.802734"/>
      <use xlink:href="#DejaVuSans-62" x="117.082031"/>
      <use xlink:href="#DejaVuSans-6c" x="180.558594"/>
      <use xlink:href="#DejaVuSans-6f" x="208.341797"/>
     </g>
    </g>
    <g clip-path="url(#p42595bb240)">
     <!-- Nicco -->
     <g transform="translate(229.742096 40.5744)scale(0.12 -0.12)">
      <use xlink:href="#DejaVuSans-4e"/>
      <use xlink:href="#DejaVuSans-69" x="74.804688"/>
      <use xlink:href="#DejaVuSans-63" x="102.587891"/>
      <use xlink:href="#DejaVuSans-63" x="157.568359"/>
      <use xlink:href="#DejaVuSans-6f" x="212.548828"/>
     </g>
    </g>
   </g>
   <g id="text_39">
    <g clip-path="url(#p42595bb240)">
     <!-- Mathieu p -->
     <g transform="translate(39.631308 90.937991)scale(0.12 -0.12)">
      <use xlink:href="#DejaVuSans-4d"/>
      <use xlink:href="#DejaVuSans-61" x="86.279297"/>
      <use xlink:href="#DejaVuSans-74" x="147.558594"/>
      <use xlink:href="#DejaVuSans-68" x="186.767578"/>
      <use xlink:href="#DejaVuSans-69" x="250.146484"/>
      <use xlink:href="#DejaVuSans-65" x="277.929688"/>
      <use xlink:href="#DejaVuSans-75" x="339.453125"/>
      <use xlink:href="#DejaVuSans-20" x="402.832031"/>
      <use xlink:href="#DejaVuSans-70" x="434.619141"/>
     </g>
    </g>
    <g clip-path="url(#p42595bb240)">
     <!-- Leo -->
     <g transform="translate(58.915683 104.375366)scale(0.12 -0.12)">
      <use xlink:href="#DejaVuSans-4c"/>
      <use xlink:href="#DejaVuSans-65" x="53.962891"/>
      <use xlink:href="#DejaVuSans-6f" x="115.486328"/>
     </g>
    </g>
   </g>
   <g id="text_40">
    <g clip-path="url(#p42595bb240)">
     <!-- Pablo -->
     <g transform="translate(308.97421 43.075832)scale(0.12 -0.12)">
      <use xlink:href="#DejaVuSans-50"/>
      <use xlink:href="#DejaVuSans-61" x="55.802734"/>
      <use xlink:href="#DejaVuSans-62" x="117.082031"/>
      <use xlink:href="#DejaVuSans-6c" x="180.558594"/>
      <use xlink:href="#DejaVuSans-6f" x="208.341797"/>
     </g>
    </g>
    <g clip-path="url(#p42595bb240)">
     <!-- Mathieu p -->
     <g transform="translate(295.26046 56.513207)scale(0.12 -0.12)">
      <use xlink:href="#DejaVuSans-4d"/>
      <use xlink:href="#DejaVuSans-61" x="86.279297"/>
      <use xlink:href="#DejaVuSans-74" x="147.558594"/>
      <use xlink:href="#DejaVuSans-68" x="186.767578"/>
      <use xlink:href="#DejaVuSans-69" x="250.146484"/>
      <use xlink:href="#DejaVuSans-65" x="277.929688"/>
      <use xlink:href="#DejaVuSans-75" x="339.453125"/>
      <use xlink:href="#DejaVuSans-20" x="402.832031"/>
      <use xlink:href="#DejaVuSans-70" x="434.619141"/>
     </g>
    </g>
   </g>
   <g id="text_41">
    <g clip-path="url(#p42595bb240)">
     <!-- Ugo -->
     <g transform="translate(193.269195 26.582645)scale(0.12 -0.12)">
      <use xlink:href="#DejaVuSans-55"/>
      <use xlink:href="#DejaVuSans-67" x="73.193359"/>
      <use xlink:href="#DejaVuSans-6f" x="136.669922"/>
     </g>
    </g>
    <g clip-path="url(#p42595bb240)">
     <!-- Xiaoyu -->
     <g transform="translate(184.662007 40.02002)scale(0.12 -0.12)">
      <use xlink:href="#DejaVuSans-58"/>
      <use xlink:href="#DejaVuSans-69" x="68.505859"/>
      <use xlink:href="#DejaVuSans-61" x="96.289062"/>
      <use xlink:href="#DejaVuSans-6f" x="157.568359"/>
      <use xlink:href="#DejaVuSans-79" x="218.75"/>
      <use xlink:href="#DejaVuSans-75" x="277.929688"/>
     </g>
    </g>
   </g>
   <g id="text_42">
    <g clip-path="url(#p42595bb240)">
     <!-- Mathieu p -->
     <g transform="translate(256.995117 31.142381)scale(0.12 -0.12)">
      <use xlink:href="#DejaVuSans-4d"/>
      <use xlink:href="#DejaVuSans-61" x="86.279297"/>
      <use xlink:href="#DejaVuSans-74" x="147.558594"/>
      <use xlink:href="#DejaVuSans-68" x="186.767578"/>
      <use xlink:href="#DejaVuSans-69" x="250.146484"/>
      <use xlink:href="#DejaVuSans-65" x="277.929688"/>
      <use xlink:href="#DejaVuSans-75" x="339.453125"/>
      <use xlink:href="#DejaVuSans-20" x="402.832031"/>
      <use xlink:href="#DejaVuSans-70" x="434.619141"/>
     </g>
    </g>
    <g clip-path="url(#p42595bb240)">
     <!-- Xiaoyu -->
     <g transform="translate(266.401992 44.579756)scale(0.12 -0.12)">
      <use xlink:href="#DejaVuSans-58"/>
      <use xlink:href="#DejaVuSans-69" x="68.505859"/>
      <use xlink:href="#DejaVuSans-61" x="96.289062"/>
      <use xlink:href="#DejaVuSans-6f" x="157.568359"/>
      <use xlink:href="#DejaVuSans-79" x="218.75"/>
      <use xlink:href="#DejaVuSans-75" x="277.929688"/>
     </g>
    </g>
   </g>
   <g id="text_43">
    <g clip-path="url(#p42595bb240)">
     <!-- Mathieu p -->
     <g transform="translate(20.779809 118.626837)scale(0.12 -0.12)">
      <use xlink:href="#DejaVuSans-4d"/>
      <use xlink:href="#DejaVuSans-61" x="86.279297"/>
      <use xlink:href="#DejaVuSans-74" x="147.558594"/>
      <use xlink:href="#DejaVuSans-68" x="186.767578"/>
      <use xlink:href="#DejaVuSans-69" x="250.146484"/>
      <use xlink:href="#DejaVuSans-65" x="277.929688"/>
      <use xlink:href="#DejaVuSans-75" x="339.453125"/>
      <use xlink:href="#DejaVuSans-20" x="402.832031"/>
      <use xlink:href="#DejaVuSans-70" x="434.619141"/>
     </g>
    </g>
    <g clip-path="url(#p42595bb240)">
     <!-- Samantha -->
     <g transform="translate(20.024184 132.064212)scale(0.12 -0.12)">
      <defs>
       <path id="DejaVuSans-6d" d="M 3328 2828 
Q 3544 3216 3844 3400 
Q 4144 3584 4550 3584 
Q 5097 3584 5394 3201 
Q 5691 2819 5691 2113 
L 5691 0 
L 5113 0 
L 5113 2094 
Q 5113 2597 4934 2840 
Q 4756 3084 4391 3084 
Q 3944 3084 3684 2787 
Q 3425 2491 3425 1978 
L 3425 0 
L 2847 0 
L 2847 2094 
Q 2847 2600 2669 2842 
Q 2491 3084 2119 3084 
Q 1678 3084 1418 2786 
Q 1159 2488 1159 1978 
L 1159 0 
L 581 0 
L 581 3500 
L 1159 3500 
L 1159 2956 
Q 1356 3278 1631 3431 
Q 1906 3584 2284 3584 
Q 2666 3584 2933 3390 
Q 3200 3197 3328 2828 
z
" transform="scale(0.015625)"/>
      </defs>
      <use xlink:href="#DejaVuSans-53"/>
      <use xlink:href="#DejaVuSans-61" x="63.476562"/>
      <use xlink:href="#DejaVuSans-6d" x="124.755859"/>
      <use xlink:href="#DejaVuSans-61" x="222.167969"/>
      <use xlink:href="#DejaVuSans-6e" x="283.447266"/>
      <use xlink:href="#DejaVuSans-74" x="346.826172"/>
      <use xlink:href="#DejaVuSans-68" x="386.035156"/>
      <use xlink:href="#DejaVuSans-61" x="449.414062"/>
     </g>
    </g>
   </g>
   <g id="text_44">
    <g clip-path="url(#p42595bb240)">
     <!-- Ugo -->
     <g transform="translate(28.548421 148.812286)scale(0.12 -0.12)">
      <use xlink:href="#DejaVuSans-55"/>
      <use xlink:href="#DejaVuSans-67" x="73.193359"/>
      <use xlink:href="#DejaVuSans-6f" x="136.669922"/>
     </g>
    </g>
    <g clip-path="url(#p42595bb240)">
     <!-- Mathieu p -->
     <g transform="translate(10.534358 162.249661)scale(0.12 -0.12)">
      <use xlink:href="#DejaVuSans-4d"/>
      <use xlink:href="#DejaVuSans-61" x="86.279297"/>
      <use xlink:href="#DejaVuSans-74" x="147.558594"/>
      <use xlink:href="#DejaVuSans-68" x="186.767578"/>
      <use xlink:href="#DejaVuSans-69" x="250.146484"/>
      <use xlink:href="#DejaVuSans-65" x="277.929688"/>
      <use xlink:href="#DejaVuSans-75" x="339.453125"/>
      <use xlink:href="#DejaVuSans-20" x="402.832031"/>
      <use xlink:href="#DejaVuSans-70" x="434.619141"/>
     </g>
    </g>
   </g>
   <g id="text_45">
    <g clip-path="url(#p42595bb240)">
     <!-- Ugo -->
     <g transform="translate(182.538261 309.702432)scale(0.12 -0.12)">
      <use xlink:href="#DejaVuSans-55"/>
      <use xlink:href="#DejaVuSans-67" x="73.193359"/>
      <use xlink:href="#DejaVuSans-6f" x="136.669922"/>
     </g>
    </g>
    <g clip-path="url(#p42595bb240)">
     <!-- Leo -->
     <g transform="translate(183.808574 323.139807)scale(0.12 -0.12)">
      <use xlink:href="#DejaVuSans-4c"/>
      <use xlink:href="#DejaVuSans-65" x="53.962891"/>
      <use xlink:href="#DejaVuSans-6f" x="115.486328"/>
     </g>
    </g>
   </g>
   <g id="text_46">
    <g clip-path="url(#p42595bb240)">
     <!-- Nicco -->
     <g transform="translate(219.364872 312.20248)scale(0.12 -0.12)">
      <use xlink:href="#DejaVuSans-4e"/>
      <use xlink:href="#DejaVuSans-69" x="74.804688"/>
      <use xlink:href="#DejaVuSans-63" x="102.587891"/>
      <use xlink:href="#DejaVuSans-63" x="157.568359"/>
      <use xlink:href="#DejaVuSans-6f" x="212.548828"/>
     </g>
    </g>
    <g clip-path="url(#p42595bb240)">
     <!-- Mathieu r -->
     <g transform="translate(207.246747 325.639855)scale(0.12 -0.12)">
      <use xlink:href="#DejaVuSans-4d"/>
      <use xlink:href="#DejaVuSans-61" x="86.279297"/>
      <use xlink:href="#DejaVuSans-74" x="147.558594"/>
      <use xlink:href="#DejaVuSans-68" x="186.767578"/>
      <use xlink:href="#DejaVuSans-69" x="250.146484"/>
      <use xlink:href="#DejaVuSans-65" x="277.929688"/>
      <use xlink:href="#DejaVuSans-75" x="339.453125"/>
      <use xlink:href="#DejaVuSans-20" x="402.832031"/>
      <use xlink:href="#DejaVuSans-72" x="434.619141"/>
     </g>
    </g>
   </g>
   <g id="text_47">
    <g clip-path="url(#p42595bb240)">
     <!-- Ugo -->
     <g transform="translate(408.941661 172.194449)scale(0.12 -0.12)">
      <use xlink:href="#DejaVuSans-55"/>
      <use xlink:href="#DejaVuSans-67" x="73.193359"/>
      <use xlink:href="#DejaVuSans-6f" x="136.669922"/>
     </g>
    </g>
    <g clip-path="url(#p42595bb240)">
     <!-- Mathieu r -->
     <g transform="translate(392.270098 185.631824)scale(0.12 -0.12)">
      <use xlink:href="#DejaVuSans-4d"/>
      <use xlink:href="#DejaVuSans-61" x="86.279297"/>
      <use xlink:href="#DejaVuSans-74" x="147.558594"/>
      <use xlink:href="#DejaVuSans-68" x="186.767578"/>
      <use xlink:href="#DejaVuSans-69" x="250.146484"/>
      <use xlink:href="#DejaVuSans-65" x="277.929688"/>
      <use xlink:href="#DejaVuSans-75" x="339.453125"/>
      <use xlink:href="#DejaVuSans-20" x="402.832031"/>
      <use xlink:href="#DejaVuSans-72" x="434.619141"/>
     </g>
    </g>
   </g>
   <g id="text_48">
    <g clip-path="url(#p42595bb240)">
     <!-- Leo -->
     <g transform="translate(107.761673 285.518352)scale(0.12 -0.12)">
      <use xlink:href="#DejaVuSans-4c"/>
      <use xlink:href="#DejaVuSans-65" x="53.962891"/>
      <use xlink:href="#DejaVuSans-6f" x="115.486328"/>
     </g>
    </g>
    <g clip-path="url(#p42595bb240)">
     <!-- Mathieu r -->
     <g transform="translate(89.819798 298.955727)scale(0.12 -0.12)">
      <use xlink:href="#DejaVuSans-4d"/>
      <use xlink:href="#DejaVuSans-61" x="86.279297"/>
      <use xlink:href="#DejaVuSans-74" x="147.558594"/>
      <use xlink:href="#DejaVuSans-68" x="186.767578"/>
      <use xlink:href="#DejaVuSans-69" x="250.146484"/>
      <use xlink:href="#DejaVuSans-65" x="277.929688"/>
      <use xlink:href="#DejaVuSans-75" x="339.453125"/>
      <use xlink:href="#DejaVuSans-20" x="402.832031"/>
      <use xlink:href="#DejaVuSans-72" x="434.619141"/>
     </g>
    </g>
   </g>
   <g id="text_49">
    <g clip-path="url(#p42595bb240)">
     <!-- Mathieu p -->
     <g transform="translate(33.303563 239.283119)scale(0.12 -0.12)">
      <use xlink:href="#DejaVuSans-4d"/>
      <use xlink:href="#DejaVuSans-61" x="86.279297"/>
      <use xlink:href="#DejaVuSans-74" x="147.558594"/>
      <use xlink:href="#DejaVuSans-68" x="186.767578"/>
      <use xlink:href="#DejaVuSans-69" x="250.146484"/>
      <use xlink:href="#DejaVuSans-65" x="277.929688"/>
      <use xlink:href="#DejaVuSans-75" x="339.453125"/>
      <use xlink:href="#DejaVuSans-20" x="402.832031"/>
      <use xlink:href="#DejaVuSans-70" x="434.619141"/>
     </g>
    </g>
    <g clip-path="url(#p42595bb240)">
     <!-- Nicco -->
     <g transform="translate(46.764188 252.720494)scale(0.12 -0.12)">
      <use xlink:href="#DejaVuSans-4e"/>
      <use xlink:href="#DejaVuSans-69" x="74.804688"/>
      <use xlink:href="#DejaVuSans-63" x="102.587891"/>
      <use xlink:href="#DejaVuSans-63" x="157.568359"/>
      <use xlink:href="#DejaVuSans-6f" x="212.548828"/>
     </g>
    </g>
   </g>
   <g id="text_50">
    <g clip-path="url(#p42595bb240)">
     <!-- Mathieu p -->
     <g transform="translate(285.737678 296.879967)scale(0.12 -0.12)">
      <use xlink:href="#DejaVuSans-4d"/>
      <use xlink:href="#DejaVuSans-61" x="86.279297"/>
      <use xlink:href="#DejaVuSans-74" x="147.558594"/>
      <use xlink:href="#DejaVuSans-68" x="186.767578"/>
      <use xlink:href="#DejaVuSans-69" x="250.146484"/>
      <use xlink:href="#DejaVuSans-65" x="277.929688"/>
      <use xlink:href="#DejaVuSans-75" x="339.453125"/>
      <use xlink:href="#DejaVuSans-20" x="402.832031"/>
      <use xlink:href="#DejaVuSans-70" x="434.619141"/>
     </g>
    </g>
    <g clip-path="url(#p42595bb240)">
     <!-- Mathieu r -->
     <g transform="translate(287.080178 310.317342)scale(0.12 -0.12)">
      <use xlink:href="#DejaVuSans-4d"/>
      <use xlink:href="#DejaVuSans-61" x="86.279297"/>
      <use xlink:href="#DejaVuSans-74" x="147.558594"/>
      <use xlink:href="#DejaVuSans-68" x="186.767578"/>
      <use xlink:href="#DejaVuSans-69" x="250.146484"/>
      <use xlink:href="#DejaVuSans-65" x="277.929688"/>
      <use xlink:href="#DejaVuSans-75" x="339.453125"/>
      <use xlink:href="#DejaVuSans-20" x="402.832031"/>
      <use xlink:href="#DejaVuSans-72" x="434.619141"/>
     </g>
    </g>
   </g>
   <g id="text_51">
    <g clip-path="url(#p42595bb240)">
     <!-- Jonathan -->
     <g transform="translate(60.982373 264.573127)scale(0.12 -0.12)">
      <defs>
       <path id="DejaVuSans-4a" d="M 628 4666 
L 1259 4666 
L 1259 325 
Q 1259 -519 939 -900 
Q 619 -1281 -91 -1281 
L -331 -1281 
L -331 -750 
L -134 -750 
Q 284 -750 456 -515 
Q 628 -281 628 325 
L 628 4666 
z
" transform="scale(0.015625)"/>
      </defs>
      <use xlink:href="#DejaVuSans-4a"/>
      <use xlink:href="#DejaVuSans-6f" x="29.492188"/>
      <use xlink:href="#DejaVuSans-6e" x="90.673828"/>
      <use xlink:href="#DejaVuSans-61" x="154.052734"/>
      <use xlink:href="#DejaVuSans-74" x="215.332031"/>
      <use xlink:href="#DejaVuSans-68" x="254.541016"/>
      <use xlink:href="#DejaVuSans-61" x="317.919922"/>
      <use xlink:href="#DejaVuSans-6e" x="379.199219"/>
     </g>
    </g>
    <g clip-path="url(#p42595bb240)">
     <!-- Pablo -->
     <g transform="translate(71.365185 278.010502)scale(0.12 -0.12)">
      <use xlink:href="#DejaVuSans-50"/>
      <use xlink:href="#DejaVuSans-61" x="55.802734"/>
      <use xlink:href="#DejaVuSans-62" x="117.082031"/>
      <use xlink:href="#DejaVuSans-6c" x="180.558594"/>
      <use xlink:href="#DejaVuSans-6f" x="208.341797"/>
     </g>
    </g>
   </g>
   <g id="text_52">
    <g clip-path="url(#p42595bb240)">
     <!-- Nicco -->
     <g transform="translate(399.479088 202.887416)scale(0.12 -0.12)">
      <use xlink:href="#DejaVuSans-4e"/>
      <use xlink:href="#DejaVuSans-69" x="74.804688"/>
      <use xlink:href="#DejaVuSans-63" x="102.587891"/>
      <use xlink:href="#DejaVuSans-63" x="157.568359"/>
      <use xlink:href="#DejaVuSans-6f" x="212.548828"/>
     </g>
    </g>
    <g clip-path="url(#p42595bb240)">
     <!-- Xiaoyu -->
     <g transform="translate(395.425338 216.324791)scale(0.12 -0.12)">
      <use xlink:href="#DejaVuSans-58"/>
      <use xlink:href="#DejaVuSans-69" x="68.505859"/>
      <use xlink:href="#DejaVuSans-61" x="96.289062"/>
      <use xlink:href="#DejaVuSans-6f" x="157.568359"/>
      <use xlink:href="#DejaVuSans-79" x="218.75"/>
      <use xlink:href="#DejaVuSans-75" x="277.929688"/>
     </g>
    </g>
   </g>
   <g id="text_53">
    <g clip-path="url(#p42595bb240)">
     <!-- Leo -->
     <g transform="translate(154.354564 33.719979)scale(0.12 -0.12)">
      <use xlink:href="#DejaVuSans-4c"/>
      <use xlink:href="#DejaVuSans-65" x="53.962891"/>
      <use xlink:href="#DejaVuSans-6f" x="115.486328"/>
     </g>
    </g>
    <g clip-path="url(#p42595bb240)">
     <!-- Jacopo -->
     <g transform="translate(145.058314 47.157354)scale(0.12 -0.12)">
      <use xlink:href="#DejaVuSans-4a"/>
      <use xlink:href="#DejaVuSans-61" x="29.492188"/>
      <use xlink:href="#DejaVuSans-63" x="90.771484"/>
      <use xlink:href="#DejaVuSans-6f" x="145.751953"/>
      <use xlink:href="#DejaVuSans-70" x="206.933594"/>
      <use xlink:href="#DejaVuSans-6f" x="270.410156"/>
     </g>
    </g>
   </g>
   <g id="text_54">
    <g clip-path="url(#p42595bb240)">
     <!-- Mathieu -->
     <g transform="translate(355.343914 258.078676)scale(0.12 -0.12)">
      <use xlink:href="#DejaVuSans-4d"/>
      <use xlink:href="#DejaVuSans-61" x="86.279297"/>
      <use xlink:href="#DejaVuSans-74" x="147.558594"/>
      <use xlink:href="#DejaVuSans-68" x="186.767578"/>
      <use xlink:href="#DejaVuSans-69" x="250.146484"/>
      <use xlink:href="#DejaVuSans-65" x="277.929688"/>
      <use xlink:href="#DejaVuSans-75" x="339.453125"/>
     </g>
    </g>
    <g clip-path="url(#p42595bb240)">
     <!-- Jonathan -->
     <g transform="translate(352.958914 271.516051)scale(0.12 -0.12)">
      <use xlink:href="#DejaVuSans-4a"/>
      <use xlink:href="#DejaVuSans-6f" x="29.492188"/>
      <use xlink:href="#DejaVuSans-6e" x="90.673828"/>
      <use xlink:href="#DejaVuSans-61" x="154.052734"/>
      <use xlink:href="#DejaVuSans-74" x="215.332031"/>
      <use xlink:href="#DejaVuSans-68" x="254.541016"/>
      <use xlink:href="#DejaVuSans-61" x="317.919922"/>
      <use xlink:href="#DejaVuSans-6e" x="379.199219"/>
     </g>
    </g>
   </g>
   <g id="text_55">
    <g clip-path="url(#p42595bb240)">
     <!-- Mathieu r -->
     <g transform="translate(358.39081 84.205584)scale(0.12 -0.12)">
      <use xlink:href="#DejaVuSans-4d"/>
      <use xlink:href="#DejaVuSans-61" x="86.279297"/>
      <use xlink:href="#DejaVuSans-74" x="147.558594"/>
      <use xlink:href="#DejaVuSans-68" x="186.767578"/>
      <use xlink:href="#DejaVuSans-69" x="250.146484"/>
      <use xlink:href="#DejaVuSans-65" x="277.929688"/>
      <use xlink:href="#DejaVuSans-75" x="339.453125"/>
      <use xlink:href="#DejaVuSans-20" x="402.832031"/>
      <use xlink:href="#DejaVuSans-72" x="434.619141"/>
     </g>
    </g>
    <g clip-path="url(#p42595bb240)">
     <!-- Pablo -->
     <g transform="translate(370.76206 97.642959)scale(0.12 -0.12)">
      <use xlink:href="#DejaVuSans-50"/>
      <use xlink:href="#DejaVuSans-61" x="55.802734"/>
      <use xlink:href="#DejaVuSans-62" x="117.082031"/>
      <use xlink:href="#DejaVuSans-6c" x="180.558594"/>
      <use xlink:href="#DejaVuSans-6f" x="208.341797"/>
     </g>
    </g>
   </g>
  </g>
 </g>
 <defs>
  <clipPath id="p42595bb240">
   <rect x="0" y="0" width="460.8" height="345.6"/>
  </clipPath>
 </defs>
</svg>
