<?xml version="1.0" encoding="utf-8" standalone="no"?>
<!DOCTYPE svg PUBLIC "-//W3C//DTD SVG 1.1//EN"
  "http://www.w3.org/Graphics/SVG/1.1/DTD/svg11.dtd">
<svg xmlns:xlink="http://www.w3.org/1999/xlink" width="460.8pt" height="345.6pt" viewBox="0 0 460.8 345.6" xmlns="http://www.w3.org/2000/svg" version="1.1">
 <metadata>
  <rdf:RDF xmlns:dc="http://purl.org/dc/elements/1.1/" xmlns:cc="http://creativecommons.org/ns#" xmlns:rdf="http://www.w3.org/1999/02/22-rdf-syntax-ns#">
   <cc:Work>
    <dc:type rdf:resource="http://purl.org/dc/dcmitype/StillImage"/>
    <dc:date>2025-06-16T15:54:03.652872</dc:date>
    <dc:format>image/svg+xml</dc:format>
    <dc:creator>
     <cc:Agent>
      <dc:title>Matplotlib v3.5.1, https://matplotlib.org/</dc:title>
     </cc:Agent>
    </dc:creator>
   </cc:Work>
  </rdf:RDF>
 </metadata>
 <defs>
  <style type="text/css">*{stroke-linejoin: round; stroke-linecap: butt}</style>
 </defs>
 <g id="figure_1">
  <g id="patch_1">
   <path d="M 0 345.6 
L 460.8 345.6 
L 460.8 0 
L 0 0 
z
" style="fill: #ffffff"/>
  </g>
  <g id="axes_1">
   <g id="patch_2">
    <path d="M 59.655269 163.318567 
Q 72.804028 202.914344 85.600435 241.449061 
" clip-path="url(#pd86dc5076a)" style="fill: none; stroke: #000000; stroke-linecap: round"/>
    <path d="M 86.237907 237.022592 
L 85.600435 241.449061 
L 82.441743 238.283202 
L 86.237907 237.022592 
z
" clip-path="url(#pd86dc5076a)" style="stroke: #000000; stroke-linecap: round"/>
   </g>
   <g id="patch_3">
    <path d="M 388.837354 125.631248 
Q 241.663586 179.639623 95.53941 233.262829 
" clip-path="url(#pd86dc5076a)" style="fill: none; stroke: #000000; stroke-linecap: round"/>
    <path d="M 99.983558 233.762374 
L 95.53941 233.262829 
L 98.605535 230.007237 
L 99.983558 233.762374 
z
" clip-path="url(#pd86dc5076a)" style="stroke: #000000; stroke-linecap: round"/>
   </g>
   <g id="patch_4">
    <path d="M 64.935824 187.303199 
Q 144.276753 245.715295 222.717334 303.464539 
" clip-path="url(#pd86dc5076a)" style="fill: none; stroke: #000000; stroke-linecap: round"/>
    <path d="M 220.681893 299.482456 
L 222.717334 303.464539 
L 218.310403 302.703642 
L 220.681893 299.482456 
z
" clip-path="url(#pd86dc5076a)" style="stroke: #000000; stroke-linecap: round"/>
   </g>
   <g id="patch_5">
    <path d="M 69.7509 177.540487 
Q 205.892643 216.900795 340.960339 255.950582 
" clip-path="url(#pd86dc5076a)" style="fill: none; stroke: #000000; stroke-linecap: round"/>
    <path d="M 337.673188 252.918316 
L 340.960339 255.950582 
L 336.562235 256.760943 
L 337.673188 252.918316 
z
" clip-path="url(#pd86dc5076a)" style="stroke: #000000; stroke-linecap: round"/>
   </g>
   <g id="patch_6">
    <path d="M 420.642512 161.039368 
Q 420.727867 158.854957 420.769569 157.787727 
" clip-path="url(#pd86dc5076a)" style="fill: none; stroke: #000000; stroke-linecap: round"/>
    <path d="M 418.614914 161.706587 
L 420.769569 157.787727 
L 422.611864 161.862767 
L 418.614914 161.706587 
z
" clip-path="url(#pd86dc5076a)" style="stroke: #000000; stroke-linecap: round"/>
   </g>
   <g id="patch_7">
    <path d="M 276.279402 290.870717 
Q 200.737115 191.667665 125.872173 93.354109 
" clip-path="url(#pd86dc5076a)" style="fill: none; stroke: #000000; stroke-linecap: round"/>
    <path d="M 126.704333 97.74814 
L 125.872173 93.354109 
L 129.886694 95.3248 
L 126.704333 97.74814 
z
" clip-path="url(#pd86dc5076a)" style="stroke: #000000; stroke-linecap: round"/>
   </g>
   <g id="patch_8">
    <path d="M 77.174195 105.514769 
Q 124.180284 193.641892 170.660195 280.782537 
" clip-path="url(#pd86dc5076a)" style="fill: none; stroke: #000000; stroke-linecap: round"/>
    <path d="M 170.542353 276.311954 
L 170.660195 280.782537 
L 167.013023 278.194462 
L 170.542353 276.311954 
z
" clip-path="url(#pd86dc5076a)" style="stroke: #000000; stroke-linecap: round"/>
   </g>
   <g id="patch_9">
    <path d="M 391.530254 107.339138 
Q 357.899132 82.101669 325.162256 57.535261 
" clip-path="url(#pd86dc5076a)" style="fill: none; stroke: #000000; stroke-linecap: round"/>
    <path d="M 327.161181 61.535799 
L 325.162256 57.535261 
L 329.562041 58.336444 
L 327.161181 61.535799 
z
" clip-path="url(#pd86dc5076a)" style="stroke: #000000; stroke-linecap: round"/>
   </g>
   <g id="patch_10">
    <path d="M 314.589816 54.588745 
Q 248.478738 50.080443 183.483104 45.648206 
" clip-path="url(#pd86dc5076a)" style="fill: none; stroke: #000000; stroke-linecap: round"/>
    <path d="M 187.337766 47.915712 
L 183.483104 45.648206 
L 187.609905 43.92498 
L 187.337766 47.915712 
z
" clip-path="url(#pd86dc5076a)" style="stroke: #000000; stroke-linecap: round"/>
   </g>
   <g id="patch_11">
    <path d="M 55.170089 225.008208 
Q 60.287159 234.664874 64.880737 243.333635 
" clip-path="url(#pd86dc5076a)" style="fill: none; stroke: #000000; stroke-linecap: round"/>
    <path d="M 64.775057 238.862747 
L 64.880737 243.333635 
L 61.240619 240.735647 
L 64.775057 238.862747 
z
" clip-path="url(#pd86dc5076a)" style="stroke: #000000; stroke-linecap: round"/>
   </g>
   <g id="patch_12">
    <path d="M 337.633682 268.643641 
Q 340.99422 178.150055 344.313268 88.773732 
" clip-path="url(#pd86dc5076a)" style="fill: none; stroke: #000000; stroke-linecap: round"/>
    <path d="M 342.166206 92.696757 
L 344.313268 88.773732 
L 346.16345 92.845197 
L 342.166206 92.696757 
z
" clip-path="url(#pd86dc5076a)" style="stroke: #000000; stroke-linecap: round"/>
   </g>
   <g id="patch_13">
    <path d="M 402.955895 165.073611 
Q 381.486122 124.572909 360.540001 85.060028 
" clip-path="url(#pd86dc5076a)" style="fill: none; stroke: #000000; stroke-linecap: round"/>
    <path d="M 360.646409 89.530898 
L 360.540001 85.060028 
L 364.180542 87.657423 
L 360.646409 89.530898 
z
" clip-path="url(#pd86dc5076a)" style="stroke: #000000; stroke-linecap: round"/>
   </g>
   <g id="patch_14">
    <path d="M 53.37208 189.943623 
Q 72.182861 143.491796 90.573994 98.076257 
" clip-path="url(#pd86dc5076a)" style="fill: none; stroke: #000000; stroke-linecap: round"/>
    <path d="M 87.218846 101.03311 
L 90.573994 98.076257 
L 90.926387 102.534488 
L 87.218846 101.03311 
z
" clip-path="url(#pd86dc5076a)" style="stroke: #000000; stroke-linecap: round"/>
   </g>
   <g id="patch_15">
    <path d="M 60.004572 221.372221 
Q 87.146713 247.682712 113.486081 273.215027 
" clip-path="url(#pd86dc5076a)" style="fill: none; stroke: #000000; stroke-linecap: round"/>
    <path d="M 112.006037 268.994901 
L 113.486081 273.215027 
L 109.221953 271.866987 
L 112.006037 268.994901 
z
" clip-path="url(#pd86dc5076a)" style="stroke: #000000; stroke-linecap: round"/>
   </g>
   <g id="patch_16">
    <path d="M 259.894617 63.031998 
Q 294.632624 166.43341 329.014581 268.774997 
" clip-path="url(#pd86dc5076a)" style="fill: none; stroke: #000000; stroke-linecap: round"/>
    <path d="M 329.636605 264.34633 
L 329.014581 268.774997 
L 325.844862 265.620177 
L 329.636605 264.34633 
z
" clip-path="url(#pd86dc5076a)" style="stroke: #000000; stroke-linecap: round"/>
   </g>
   <g id="patch_17">
    <path d="M 377.596215 103.800981 
Q 359.64845 186.478839 341.937865 268.064111 
" clip-path="url(#pd86dc5076a)" style="fill: none; stroke: #000000; stroke-linecap: round"/>
    <path d="M 344.740903 264.579433 
L 341.937865 268.064111 
L 340.831946 263.730874 
L 344.740903 264.579433 
z
" clip-path="url(#pd86dc5076a)" style="stroke: #000000; stroke-linecap: round"/>
   </g>
   <g id="patch_18">
    <path d="M 363.128163 79.402838 
Q 296.69901 59.817762 231.342253 40.548858 
" clip-path="url(#pd86dc5076a)" style="fill: none; stroke: #000000; stroke-linecap: round"/>
    <path d="M 234.613394 43.598388 
L 231.342253 40.548858 
L 235.744562 39.761663 
L 234.613394 43.598388 
z
" clip-path="url(#pd86dc5076a)" style="stroke: #000000; stroke-linecap: round"/>
   </g>
   <g id="patch_19">
    <path d="M 239.86352 296.255094 
Q 243.744548 180.542194 247.588098 65.946698 
" clip-path="url(#pd86dc5076a)" style="fill: none; stroke: #000000; stroke-linecap: round"/>
    <path d="M 245.455137 69.877408 
L 247.588098 65.946698 
L 249.452889 70.011493 
L 245.455137 69.877408 
z
" clip-path="url(#pd86dc5076a)" style="stroke: #000000; stroke-linecap: round"/>
   </g>
   <g id="patch_20">
    <path d="M 390.503724 217.188724 
Q 330.167499 137.484481 270.506083 58.67166 
" clip-path="url(#pd86dc5076a)" style="fill: none; stroke: #000000; stroke-linecap: round"/>
    <path d="M 271.325724 63.068043 
L 270.506083 58.67166 
L 274.514975 60.653777 
L 271.325724 63.068043 
z
" clip-path="url(#pd86dc5076a)" style="stroke: #000000; stroke-linecap: round"/>
   </g>
   <g id="patch_21">
    <path d="M 270.090919 297.99183 
Q 168.551357 241.04221 67.986928 184.639505 
" clip-path="url(#pd86dc5076a)" style="fill: none; stroke: #000000; stroke-linecap: round"/>
    <path d="M 70.49732 188.340577 
L 67.986928 184.639505 
L 72.454021 184.851835 
L 70.49732 188.340577 
z
" clip-path="url(#pd86dc5076a)" style="stroke: #000000; stroke-linecap: round"/>
   </g>
   <g id="patch_22">
    <path d="M 67.110934 105.931607 
Q 59.675134 123.203402 52.681436 139.448287 
" clip-path="url(#pd86dc5076a)" style="fill: none; stroke: #000000; stroke-linecap: round"/>
    <path d="M 56.100143 136.565156 
L 52.681436 139.448287 
L 52.426156 134.983443 
L 56.100143 136.565156 
z
" clip-path="url(#pd86dc5076a)" style="stroke: #000000; stroke-linecap: round"/>
   </g>
   <g id="text_1">
    <g id="patch_23">
     <path d="M 61.857243 194.823389 
L 68.874312 215.954381 
Q 69.81977 218.801504 72.666893 217.856046 
L 81.85183 214.80596 
Q 84.698953 213.860502 83.753496 211.013379 
L 76.736426 189.882388 
Q 75.790969 187.035265 72.943846 187.980722 
L 63.758908 191.030808 
Q 60.911785 191.976266 61.857243 194.823389 
z
" clip-path="url(#pd86dc5076a)" style="fill: #ffffff; stroke: #ffffff; stroke-linejoin: miter"/>
    </g>
    <g clip-path="url(#pd86dc5076a)">
     <!-- 0.62 -->
     <g transform="translate(66.678074 193.222513)rotate(-288.370025)scale(0.1 -0.1)">
      <defs>
       <path id="DejaVuSans-30" d="M 2034 4250 
Q 1547 4250 1301 3770 
Q 1056 3291 1056 2328 
Q 1056 1369 1301 889 
Q 1547 409 2034 409 
Q 2525 409 2770 889 
Q 3016 1369 3016 2328 
Q 3016 3291 2770 3770 
Q 2525 4250 2034 4250 
z
M 2034 4750 
Q 2819 4750 3233 4129 
Q 3647 3509 3647 2328 
Q 3647 1150 3233 529 
Q 2819 -91 2034 -91 
Q 1250 -91 836 529 
Q 422 1150 422 2328 
Q 422 3509 836 4129 
Q 1250 4750 2034 4750 
z
" transform="scale(0.015625)"/>
       <path id="DejaVuSans-2e" d="M 684 794 
L 1344 794 
L 1344 0 
L 684 0 
L 684 794 
z
" transform="scale(0.015625)"/>
       <path id="DejaVuSans-36" d="M 2113 2584 
Q 1688 2584 1439 2293 
Q 1191 2003 1191 1497 
Q 1191 994 1439 701 
Q 1688 409 2113 409 
Q 2538 409 2786 701 
Q 3034 994 3034 1497 
Q 3034 2003 2786 2293 
Q 2538 2584 2113 2584 
z
M 3366 4563 
L 3366 3988 
Q 3128 4100 2886 4159 
Q 2644 4219 2406 4219 
Q 1781 4219 1451 3797 
Q 1122 3375 1075 2522 
Q 1259 2794 1537 2939 
Q 1816 3084 2150 3084 
Q 2853 3084 3261 2657 
Q 3669 2231 3669 1497 
Q 3669 778 3244 343 
Q 2819 -91 2113 -91 
Q 1303 -91 875 529 
Q 447 1150 447 2328 
Q 447 3434 972 4092 
Q 1497 4750 2381 4750 
Q 2619 4750 2861 4703 
Q 3103 4656 3366 4563 
z
" transform="scale(0.015625)"/>
       <path id="DejaVuSans-32" d="M 1228 531 
L 3431 531 
L 3431 0 
L 469 0 
L 469 531 
Q 828 903 1448 1529 
Q 2069 2156 2228 2338 
Q 2531 2678 2651 2914 
Q 2772 3150 2772 3378 
Q 2772 3750 2511 3984 
Q 2250 4219 1831 4219 
Q 1534 4219 1204 4116 
Q 875 4013 500 3803 
L 500 4441 
Q 881 4594 1212 4672 
Q 1544 4750 1819 4750 
Q 2544 4750 2975 4387 
Q 3406 4025 3406 3419 
Q 3406 3131 3298 2873 
Q 3191 2616 2906 2266 
Q 2828 2175 2409 1742 
Q 1991 1309 1228 531 
z
" transform="scale(0.015625)"/>
      </defs>
      <use xlink:href="#DejaVuSans-30"/>
      <use xlink:href="#DejaVuSans-2e" x="63.623047"/>
      <use xlink:href="#DejaVuSans-36" x="95.410156"/>
      <use xlink:href="#DejaVuSans-32" x="159.033203"/>
     </g>
    </g>
   </g>
   <g id="text_2">
    <g id="patch_24">
     <path d="M 228.459494 192.835358 
L 249.362111 185.164722 
Q 252.178464 184.131205 251.144947 181.314853 
L 247.810777 172.229182 
Q 246.77726 169.412829 243.960907 170.446346 
L 223.05829 178.116982 
Q 220.241937 179.150499 221.275455 181.966852 
L 224.609624 191.052523 
Q 225.643142 193.868876 228.459494 192.835358 
z
" clip-path="url(#pd86dc5076a)" style="fill: #ffffff; stroke: #ffffff; stroke-linejoin: miter"/>
    </g>
    <g clip-path="url(#pd86dc5076a)">
     <!-- 0.62 -->
     <g transform="translate(226.709513 188.066628)rotate(-20.151628)scale(0.1 -0.1)">
      <use xlink:href="#DejaVuSans-30"/>
      <use xlink:href="#DejaVuSans-2e" x="63.623047"/>
      <use xlink:href="#DejaVuSans-36" x="95.410156"/>
      <use xlink:href="#DejaVuSans-32" x="159.033203"/>
     </g>
    </g>
   </g>
   <g id="text_3">
    <g id="patch_25">
     <path d="M 125.989673 241.986428 
L 143.920101 255.187103 
Q 146.33599 256.965721 148.114607 254.549831 
L 153.852501 246.756072 
Q 155.631118 244.340183 153.215229 242.561566 
L 135.284801 229.36089 
Q 132.868912 227.582273 131.090295 229.998162 
L 125.352402 237.791922 
Q 123.573784 240.207811 125.989673 241.986428 
z
" clip-path="url(#pd86dc5076a)" style="fill: #ffffff; stroke: #ffffff; stroke-linejoin: miter"/>
    </g>
    <g clip-path="url(#pd86dc5076a)">
     <!-- 0.62 -->
     <g transform="translate(129.00128 237.895774)rotate(-323.638889)scale(0.1 -0.1)">
      <use xlink:href="#DejaVuSans-30"/>
      <use xlink:href="#DejaVuSans-2e" x="63.623047"/>
      <use xlink:href="#DejaVuSans-36" x="95.410156"/>
      <use xlink:href="#DejaVuSans-32" x="159.033203"/>
     </g>
    </g>
   </g>
   <g id="text_4">
    <g id="patch_26">
     <path d="M 194.879529 221.876871 
L 216.269154 228.060883 
Q 219.151124 228.894097 219.984339 226.012127 
L 222.672323 216.71477 
Q 223.505537 213.832799 220.623567 212.999585 
L 199.233942 206.815573 
Q 196.351971 205.982359 195.518757 208.864329 
L 192.830773 218.161686 
Q 191.997559 221.043656 194.879529 221.876871 
z
" clip-path="url(#pd86dc5076a)" style="fill: #ffffff; stroke: #ffffff; stroke-linejoin: miter"/>
    </g>
    <g clip-path="url(#pd86dc5076a)">
     <!-- 0.56 -->
     <g transform="translate(196.290352 216.997034)rotate(-343.874747)scale(0.1 -0.1)">
      <defs>
       <path id="DejaVuSans-35" d="M 691 4666 
L 3169 4666 
L 3169 4134 
L 1269 4134 
L 1269 2991 
Q 1406 3038 1543 3061 
Q 1681 3084 1819 3084 
Q 2600 3084 3056 2656 
Q 3513 2228 3513 1497 
Q 3513 744 3044 326 
Q 2575 -91 1722 -91 
Q 1428 -91 1123 -41 
Q 819 9 494 109 
L 494 744 
Q 775 591 1075 516 
Q 1375 441 1709 441 
Q 2250 441 2565 725 
Q 2881 1009 2881 1497 
Q 2881 1984 2565 2268 
Q 2250 2553 1709 2553 
Q 1456 2553 1204 2497 
Q 953 2441 691 2322 
L 691 4666 
z
" transform="scale(0.015625)"/>
      </defs>
      <use xlink:href="#DejaVuSans-30"/>
      <use xlink:href="#DejaVuSans-2e" x="63.623047"/>
      <use xlink:href="#DejaVuSans-35" x="95.410156"/>
      <use xlink:href="#DejaVuSans-36" x="159.033203"/>
     </g>
    </g>
   </g>
   <g id="text_5">
    <g id="patch_27">
     <path d="M 427.445812 187.69955 
L 428.315176 165.450904 
Q 428.432311 162.453191 425.434599 162.336056 
L 415.763854 161.958172 
Q 412.766142 161.841037 412.649006 164.838749 
L 411.779642 187.087396 
Q 411.662507 190.085108 414.660219 190.202243 
L 424.330964 190.580127 
Q 427.328677 190.697262 427.445812 187.69955 
z
" clip-path="url(#pd86dc5076a)" style="fill: #ffffff; stroke: #ffffff; stroke-linejoin: miter"/>
    </g>
    <g clip-path="url(#pd86dc5076a)">
     <!-- 0.83 -->
     <g transform="translate(422.369998 187.501213)rotate(-87.76231)scale(0.1 -0.1)">
      <defs>
       <path id="DejaVuSans-38" d="M 2034 2216 
Q 1584 2216 1326 1975 
Q 1069 1734 1069 1313 
Q 1069 891 1326 650 
Q 1584 409 2034 409 
Q 2484 409 2743 651 
Q 3003 894 3003 1313 
Q 3003 1734 2745 1975 
Q 2488 2216 2034 2216 
z
M 1403 2484 
Q 997 2584 770 2862 
Q 544 3141 544 3541 
Q 544 4100 942 4425 
Q 1341 4750 2034 4750 
Q 2731 4750 3128 4425 
Q 3525 4100 3525 3541 
Q 3525 3141 3298 2862 
Q 3072 2584 2669 2484 
Q 3125 2378 3379 2068 
Q 3634 1759 3634 1313 
Q 3634 634 3220 271 
Q 2806 -91 2034 -91 
Q 1263 -91 848 271 
Q 434 634 434 1313 
Q 434 1759 690 2068 
Q 947 2378 1403 2484 
z
M 1172 3481 
Q 1172 3119 1398 2916 
Q 1625 2713 2034 2713 
Q 2441 2713 2670 2916 
Q 2900 3119 2900 3481 
Q 2900 3844 2670 4047 
Q 2441 4250 2034 4250 
Q 1625 4250 1398 4047 
Q 1172 3844 1172 3481 
z
" transform="scale(0.015625)"/>
       <path id="DejaVuSans-33" d="M 2597 2516 
Q 3050 2419 3304 2112 
Q 3559 1806 3559 1356 
Q 3559 666 3084 287 
Q 2609 -91 1734 -91 
Q 1441 -91 1130 -33 
Q 819 25 488 141 
L 488 750 
Q 750 597 1062 519 
Q 1375 441 1716 441 
Q 2309 441 2620 675 
Q 2931 909 2931 1356 
Q 2931 1769 2642 2001 
Q 2353 2234 1838 2234 
L 1294 2234 
L 1294 2753 
L 1863 2753 
Q 2328 2753 2575 2939 
Q 2822 3125 2822 3475 
Q 2822 3834 2567 4026 
Q 2313 4219 1838 4219 
Q 1578 4219 1281 4162 
Q 984 4106 628 3988 
L 628 4550 
Q 988 4650 1302 4700 
Q 1616 4750 1894 4750 
Q 2613 4750 3031 4423 
Q 3450 4097 3450 3541 
Q 3450 3153 3228 2886 
Q 3006 2619 2597 2516 
z
" transform="scale(0.015625)"/>
      </defs>
      <use xlink:href="#DejaVuSans-30"/>
      <use xlink:href="#DejaVuSans-2e" x="63.623047"/>
      <use xlink:href="#DejaVuSans-38" x="95.410156"/>
      <use xlink:href="#DejaVuSans-33" x="159.033203"/>
     </g>
    </g>
   </g>
   <g id="text_6">
    <g id="patch_28">
     <path d="M 184.23679 182.938503 
L 197.726089 200.652815 
Q 199.543595 203.039585 201.930366 201.22208 
L 209.630187 195.358731 
Q 212.016957 193.541225 210.199452 191.154455 
L 196.710152 173.440143 
Q 194.892647 171.053372 192.505876 172.870878 
L 184.806055 178.734226 
Q 182.419285 180.551732 184.23679 182.938503 
z
" clip-path="url(#pd86dc5076a)" style="fill: #ffffff; stroke: #ffffff; stroke-linejoin: miter"/>
    </g>
    <g clip-path="url(#pd86dc5076a)">
     <!-- 0.83 -->
     <g transform="translate(188.27814 179.861049)rotate(-307.288966)scale(0.1 -0.1)">
      <use xlink:href="#DejaVuSans-30"/>
      <use xlink:href="#DejaVuSans-2e" x="63.623047"/>
      <use xlink:href="#DejaVuSans-38" x="95.410156"/>
      <use xlink:href="#DejaVuSans-33" x="159.033203"/>
     </g>
    </g>
   </g>
   <g id="text_7">
    <g id="patch_29">
     <path d="M 117.492209 197.759714 
L 127.97101 217.405395 
Q 129.382891 220.052392 132.029888 218.640512 
L 140.56921 214.085726 
Q 143.216207 212.673845 141.804327 210.026848 
L 131.325525 190.381167 
Q 129.913645 187.73417 127.266648 189.146051 
L 118.727325 193.700837 
Q 116.080328 195.112717 117.492209 197.759714 
z
" clip-path="url(#pd86dc5076a)" style="fill: #ffffff; stroke: #ffffff; stroke-linejoin: miter"/>
    </g>
    <g clip-path="url(#pd86dc5076a)">
     <!-- 0.62 -->
     <g transform="translate(121.974181 195.369077)rotate(-298.074996)scale(0.1 -0.1)">
      <use xlink:href="#DejaVuSans-30"/>
      <use xlink:href="#DejaVuSans-2e" x="63.623047"/>
      <use xlink:href="#DejaVuSans-36" x="95.410156"/>
      <use xlink:href="#DejaVuSans-32" x="159.033203"/>
     </g>
    </g>
   </g>
   <g id="text_8">
    <g id="patch_30">
     <path d="M 339.641492 78.201575 
L 357.450401 91.565737 
Q 359.849917 93.366382 361.650562 90.966866 
L 367.459518 83.225927 
Q 369.260163 80.826411 366.860647 79.025766 
L 349.051738 65.661604 
Q 346.652222 63.860959 344.851577 66.260475 
L 339.042621 74.001414 
Q 337.241976 76.40093 339.641492 78.201575 
z
" clip-path="url(#pd86dc5076a)" style="fill: #ffffff; stroke: #ffffff; stroke-linejoin: miter"/>
    </g>
    <g clip-path="url(#pd86dc5076a)">
     <!-- 0.71 -->
     <g transform="translate(342.690397 74.138644)rotate(-323.114702)scale(0.1 -0.1)">
      <defs>
       <path id="DejaVuSans-37" d="M 525 4666 
L 3525 4666 
L 3525 4397 
L 1831 0 
L 1172 0 
L 2766 4134 
L 525 4134 
L 525 4666 
z
" transform="scale(0.015625)"/>
       <path id="DejaVuSans-31" d="M 794 531 
L 1825 531 
L 1825 4091 
L 703 3866 
L 703 4441 
L 1819 4666 
L 2450 4666 
L 2450 531 
L 3481 531 
L 3481 0 
L 794 0 
L 794 531 
z
" transform="scale(0.015625)"/>
      </defs>
      <use xlink:href="#DejaVuSans-30"/>
      <use xlink:href="#DejaVuSans-2e" x="63.623047"/>
      <use xlink:href="#DejaVuSans-37" x="95.410156"/>
      <use xlink:href="#DejaVuSans-31" x="159.033203"/>
     </g>
    </g>
   </g>
   <g id="text_9">
    <g id="patch_31">
     <path d="M 234.90739 57.012243 
L 257.121424 58.52708 
Q 260.114473 58.731185 260.318577 55.738136 
L 260.977027 46.082436 
Q 261.181131 43.089387 258.188083 42.885283 
L 235.974048 41.370445 
Q 232.980999 41.16634 232.776895 44.159389 
L 232.118445 53.815089 
Q 231.914341 56.808138 234.90739 57.012243 
z
" clip-path="url(#pd86dc5076a)" style="fill: #ffffff; stroke: #ffffff; stroke-linejoin: miter"/>
    </g>
    <g clip-path="url(#pd86dc5076a)">
     <!-- 0.56 -->
     <g transform="translate(235.252985 51.944325)rotate(-356.098878)scale(0.1 -0.1)">
      <use xlink:href="#DejaVuSans-30"/>
      <use xlink:href="#DejaVuSans-2e" x="63.623047"/>
      <use xlink:href="#DejaVuSans-35" x="95.410156"/>
      <use xlink:href="#DejaVuSans-36" x="159.033203"/>
     </g>
    </g>
   </g>
   <g id="text_10">
    <g id="patch_32">
     <path d="M 43.612903 219.940185 
L 54.038222 239.614299 
Q 55.442897 242.265127 58.093725 240.860453 
L 66.645407 236.328914 
Q 69.296235 234.92424 67.89156 232.273412 
L 57.466241 212.599297 
Q 56.061567 209.948469 53.410739 211.353144 
L 44.859057 215.884682 
Q 42.208229 217.289357 43.612903 219.940185 
z
" clip-path="url(#pd86dc5076a)" style="fill: #ffffff; stroke: #ffffff; stroke-linejoin: miter"/>
    </g>
    <g clip-path="url(#pd86dc5076a)">
     <!-- 0.56 -->
     <g transform="translate(48.101363 217.561749)rotate(-297.919129)scale(0.1 -0.1)">
      <use xlink:href="#DejaVuSans-30"/>
      <use xlink:href="#DejaVuSans-2e" x="63.623047"/>
      <use xlink:href="#DejaVuSans-35" x="95.410156"/>
      <use xlink:href="#DejaVuSans-36" x="159.033203"/>
     </g>
    </g>
   </g>
   <g id="text_11">
    <g id="patch_33">
     <path d="M 348.558451 185.696328 
L 349.38473 163.44604 
Q 349.49606 160.448106 346.498126 160.336776 
L 336.826668 159.97762 
Q 333.828734 159.86629 333.717404 162.864224 
L 332.891125 185.114512 
Q 332.779795 188.112445 335.777728 188.223775 
L 345.449187 188.582931 
Q 348.44712 188.694262 348.558451 185.696328 
z
" clip-path="url(#pd86dc5076a)" style="fill: #ffffff; stroke: #ffffff; stroke-linejoin: miter"/>
    </g>
    <g clip-path="url(#pd86dc5076a)">
     <!-- 0.56 -->
     <g transform="translate(343.482262 185.50782)rotate(-87.873261)scale(0.1 -0.1)">
      <use xlink:href="#DejaVuSans-30"/>
      <use xlink:href="#DejaVuSans-2e" x="63.623047"/>
      <use xlink:href="#DejaVuSans-35" x="95.410156"/>
      <use xlink:href="#DejaVuSans-36" x="159.033203"/>
     </g>
    </g>
   </g>
   <g id="text_12">
    <g id="patch_34">
     <path d="M 370.253984 120.121491 
L 380.682503 139.79391 
Q 382.087609 142.444509 384.738208 141.039403 
L 393.289153 136.506474 
Q 395.939752 135.101368 394.534647 132.450768 
L 384.106127 112.77835 
Q 382.701021 110.127751 380.050422 111.532856 
L 371.499477 116.065786 
Q 368.848878 117.470892 370.253984 120.121491 
z
" clip-path="url(#pd86dc5076a)" style="fill: #ffffff; stroke: #ffffff; stroke-linejoin: miter"/>
    </g>
    <g clip-path="url(#pd86dc5076a)">
     <!-- 0.62 -->
     <g transform="translate(374.742056 117.742325)rotate(-297.92845)scale(0.1 -0.1)">
      <use xlink:href="#DejaVuSans-30"/>
      <use xlink:href="#DejaVuSans-2e" x="63.623047"/>
      <use xlink:href="#DejaVuSans-36" x="95.410156"/>
      <use xlink:href="#DejaVuSans-32" x="159.033203"/>
     </g>
    </g>
   </g>
   <g id="text_13">
    <g id="patch_35">
     <path d="M 79.370108 146.628403 
L 85.339259 131.888029 
Q 86.465292 129.107373 83.684636 127.98134 
L 74.714123 124.348709 
Q 71.933467 123.222675 70.807434 126.003331 
L 64.838283 140.743705 
Q 63.71225 143.524361 66.492906 144.650395 
L 75.463419 148.283026 
Q 78.244075 149.409059 79.370108 146.628403 
z
" clip-path="url(#pd86dc5076a)" style="fill: #ffffff; stroke: #ffffff; stroke-linejoin: miter"/>
    </g>
    <g clip-path="url(#pd86dc5076a)">
     <!-- 1.0 -->
     <g transform="translate(74.66182 144.721771)rotate(-67.954394)scale(0.1 -0.1)">
      <use xlink:href="#DejaVuSans-31"/>
      <use xlink:href="#DejaVuSans-2e" x="63.623047"/>
      <use xlink:href="#DejaVuSans-30" x="95.410156"/>
     </g>
    </g>
   </g>
   <g id="text_14">
    <g id="patch_36">
     <path d="M 79.258429 250.953717 
L 95.245627 266.451058 
Q 97.399691 268.539121 99.487754 266.385056 
L 106.223931 259.435955 
Q 108.311994 257.28189 106.15793 255.193827 
L 90.170732 239.696486 
Q 88.016668 237.608424 85.928605 239.762488 
L 79.192427 246.71159 
Q 77.104365 248.865654 79.258429 250.953717 
z
" clip-path="url(#pd86dc5076a)" style="fill: #ffffff; stroke: #ffffff; stroke-linejoin: miter"/>
    </g>
    <g clip-path="url(#pd86dc5076a)">
     <!-- 0.71 -->
     <g transform="translate(82.793998 247.306392)rotate(-315.891372)scale(0.1 -0.1)">
      <use xlink:href="#DejaVuSans-30"/>
      <use xlink:href="#DejaVuSans-2e" x="63.623047"/>
      <use xlink:href="#DejaVuSans-37" x="95.410156"/>
      <use xlink:href="#DejaVuSans-31" x="159.033203"/>
     </g>
    </g>
   </g>
   <g id="text_15">
    <g id="patch_37">
     <path d="M 281.806773 152.87128 
L 288.897524 173.977661 
Q 289.852909 176.821468 292.696716 175.866083 
L 301.870956 172.78397 
Q 304.714763 171.828585 303.759378 168.984778 
L 296.668628 147.878397 
Q 295.713242 145.03459 292.869435 145.989975 
L 283.695195 149.072088 
Q 280.851388 150.027473 281.806773 152.87128 
z
" clip-path="url(#pd86dc5076a)" style="fill: #ffffff; stroke: #ffffff; stroke-linejoin: miter"/>
    </g>
    <g clip-path="url(#pd86dc5076a)">
     <!-- 0.56 -->
     <g transform="translate(286.62199 151.253594)rotate(-288.569925)scale(0.1 -0.1)">
      <use xlink:href="#DejaVuSans-30"/>
      <use xlink:href="#DejaVuSans-2e" x="63.623047"/>
      <use xlink:href="#DejaVuSans-35" x="95.410156"/>
      <use xlink:href="#DejaVuSans-36" x="159.033203"/>
     </g>
    </g>
   </g>
   <g id="text_16">
    <g id="patch_38">
     <path d="M 364.536421 200.914348 
L 369.259845 179.155504 
Q 369.896264 176.223786 366.964546 175.587366 
L 357.506702 173.534251 
Q 354.574984 172.897832 353.938565 175.82955 
L 349.21514 197.588395 
Q 348.578721 200.520113 351.510439 201.156532 
L 360.968283 203.209647 
Q 363.900001 203.846066 364.536421 200.914348 
z
" clip-path="url(#pd86dc5076a)" style="fill: #ffffff; stroke: #ffffff; stroke-linejoin: miter"/>
    </g>
    <g clip-path="url(#pd86dc5076a)">
     <!-- 0.62 -->
     <g transform="translate(359.57235 199.836745)rotate(-77.752223)scale(0.1 -0.1)">
      <use xlink:href="#DejaVuSans-30"/>
      <use xlink:href="#DejaVuSans-2e" x="63.623047"/>
      <use xlink:href="#DejaVuSans-36" x="95.410156"/>
      <use xlink:href="#DejaVuSans-32" x="159.033203"/>
     </g>
    </g>
   </g>
   <g id="text_17">
    <g id="patch_39">
     <path d="M 279.424227 62.897359 
L 294.678206 67.394636 
Q 297.55575 68.243012 298.404126 65.365469 
L 301.141023 56.082393 
Q 301.989399 53.204849 299.111856 52.356473 
L 283.857876 47.859195 
Q 280.980333 47.010819 280.131957 49.888363 
L 277.39506 59.171439 
Q 276.546683 62.048982 279.424227 62.897359 
z
" clip-path="url(#pd86dc5076a)" style="fill: #ffffff; stroke: #ffffff; stroke-linejoin: miter"/>
    </g>
    <g clip-path="url(#pd86dc5076a)">
     <!-- 1.0 -->
     <g transform="translate(280.860722 58.025018)rotate(-343.573085)scale(0.1 -0.1)">
      <use xlink:href="#DejaVuSans-31"/>
      <use xlink:href="#DejaVuSans-2e" x="63.623047"/>
      <use xlink:href="#DejaVuSans-30" x="95.410156"/>
     </g>
    </g>
   </g>
   <g id="text_18">
    <g id="patch_40">
     <path d="M 251.465551 184.193556 
L 252.211924 161.940444 
Q 252.312488 158.94213 249.314174 158.841566 
L 239.641488 158.517143 
Q 236.643174 158.416579 236.54261 161.414893 
L 235.796237 183.668004 
Q 235.695673 186.666318 238.693987 186.766882 
L 248.366673 187.091306 
Q 251.364987 187.19187 251.465551 184.193556 
z
" clip-path="url(#pd86dc5076a)" style="fill: #ffffff; stroke: #ffffff; stroke-linejoin: miter"/>
    </g>
    <g clip-path="url(#pd86dc5076a)">
     <!-- 0.62 -->
     <g transform="translate(246.388718 184.023278)rotate(-88.079011)scale(0.1 -0.1)">
      <use xlink:href="#DejaVuSans-30"/>
      <use xlink:href="#DejaVuSans-2e" x="63.623047"/>
      <use xlink:href="#DejaVuSans-36" x="95.410156"/>
      <use xlink:href="#DejaVuSans-32" x="159.033203"/>
     </g>
    </g>
   </g>
   <g id="text_19">
    <g id="patch_41">
     <path d="M 312.521878 127.162487 
L 325.960668 144.915148 
Q 327.771368 147.307086 330.163306 145.496386 
L 337.879796 139.654992 
Q 340.271733 137.844292 338.461033 135.452354 
L 325.022244 117.699693 
Q 323.211544 115.307755 320.819606 117.118455 
L 313.103116 122.959849 
Q 310.711178 124.770549 312.521878 127.162487 
z
" clip-path="url(#pd86dc5076a)" style="fill: #ffffff; stroke: #ffffff; stroke-linejoin: miter"/>
    </g>
    <g clip-path="url(#pd86dc5076a)">
     <!-- 0.71 -->
     <g transform="translate(316.571977 124.096557)rotate(-307.125773)scale(0.1 -0.1)">
      <use xlink:href="#DejaVuSans-30"/>
      <use xlink:href="#DejaVuSans-2e" x="63.623047"/>
      <use xlink:href="#DejaVuSans-37" x="95.410156"/>
      <use xlink:href="#DejaVuSans-31" x="159.033203"/>
     </g>
    </g>
   </g>
   <g id="text_20">
    <g id="patch_42">
     <path d="M 151.628738 240.538805 
L 171.048494 251.430596 
Q 173.665051 252.898122 175.132576 250.281565 
L 179.866875 241.840444 
Q 181.334401 239.223888 178.717844 237.756362 
L 159.298088 226.864571 
Q 156.681531 225.397045 155.214006 228.013602 
L 150.479707 236.454722 
Q 149.012181 239.071279 151.628738 240.538805 
z
" clip-path="url(#pd86dc5076a)" style="fill: #ffffff; stroke: #ffffff; stroke-linejoin: miter"/>
    </g>
    <g clip-path="url(#pd86dc5076a)">
     <!-- 0.62 -->
     <g transform="translate(154.113595 236.108375)rotate(-330.713616)scale(0.1 -0.1)">
      <use xlink:href="#DejaVuSans-30"/>
      <use xlink:href="#DejaVuSans-2e" x="63.623047"/>
      <use xlink:href="#DejaVuSans-36" x="95.410156"/>
      <use xlink:href="#DejaVuSans-32" x="159.033203"/>
     </g>
    </g>
   </g>
   <g id="text_21">
    <g id="patch_43">
     <path d="M 59.9016 142.501596 
L 66.190147 127.894627 
Q 67.376432 125.139136 64.620942 123.952851 
L 55.731615 120.125845 
Q 52.976125 118.93956 51.78984 121.69505 
L 45.501292 136.30202 
Q 44.315007 139.05751 47.070497 140.243795 
L 55.959824 144.070801 
Q 58.715314 145.257086 59.9016 142.501596 
z
" clip-path="url(#pd86dc5076a)" style="fill: #ffffff; stroke: #ffffff; stroke-linejoin: miter"/>
    </g>
    <g clip-path="url(#pd86dc5076a)">
     <!-- 1.0 -->
     <g transform="translate(55.235923 140.492943)rotate(-66.707304)scale(0.1 -0.1)">
      <use xlink:href="#DejaVuSans-31"/>
      <use xlink:href="#DejaVuSans-2e" x="63.623047"/>
      <use xlink:href="#DejaVuSans-30" x="95.410156"/>
     </g>
    </g>
   </g>
   <g id="PathCollection_1">
    <path d="M 46.102266 227.260807 
C 51.237902 227.260807 56.163887 225.220397 59.79533 221.588954 
C 63.426773 217.957511 65.467183 213.031526 65.467183 207.89589 
C 65.467183 202.760254 63.426773 197.834269 59.79533 194.202826 
C 56.163887 190.571383 51.237902 188.530973 46.102266 188.530973 
C 40.96663 188.530973 36.040645 190.571383 32.409202 194.202826 
C 28.777759 197.834269 26.737349 202.760254 26.737349 207.89589 
C 26.737349 213.031526 28.777759 217.957511 32.409202 221.588954 
C 36.040645 225.220397 40.96663 227.260807 46.102266 227.260807 
z
" clip-path="url(#pd86dc5076a)" style="fill: #808080; stroke: #808080"/>
    <path d="M 65.404229 275.305407 
C 73.621246 275.305407 81.502822 272.040751 87.313131 266.230442 
C 93.12344 260.420133 96.388095 252.538557 96.388095 244.32154 
C 96.388095 236.104522 93.12344 228.222946 87.313131 222.412638 
C 81.502822 216.602329 73.621246 213.337673 65.404229 213.337673 
C 57.187211 213.337673 49.305635 216.602329 43.495326 222.412638 
C 37.685017 228.222946 34.420362 236.104522 34.420362 244.32154 
C 34.420362 252.538557 37.685017 260.420133 43.495326 266.230442 
C 49.305635 272.040751 57.187211 275.305407 65.404229 275.305407 
z
" clip-path="url(#pd86dc5076a)" style="fill: #808080; stroke: #808080"/>
    <path d="M 336.771381 315.101846 
C 342.934144 315.101846 348.845326 312.653355 353.203058 308.295623 
C 357.56079 303.937891 360.009281 298.026709 360.009281 291.863946 
C 360.009281 285.701183 357.56079 279.790001 353.203058 275.43227 
C 348.845326 271.074538 342.934144 268.626046 336.771381 268.626046 
C 330.608618 268.626046 324.697436 271.074538 320.339704 275.43227 
C 315.981973 279.790001 313.533481 285.701183 313.533481 291.863946 
C 313.533481 298.026709 315.981973 303.937891 320.339704 308.295623 
C 324.697436 312.653355 330.608618 315.101846 336.771381 315.101846 
z
" clip-path="url(#pd86dc5076a)" style="fill: #808080; stroke: #808080"/>
    <path d="M 381.703723 104.244322 
C 386.839359 104.244322 391.765344 102.203912 395.396787 98.572469 
C 399.02823 94.941026 401.06864 90.015041 401.06864 84.879405 
C 401.06864 79.743769 399.02823 74.817784 395.396787 71.186341 
C 391.765344 67.554898 386.839359 65.514489 381.703723 65.514489 
C 376.568087 65.514489 371.642102 67.554898 368.010659 71.186341 
C 364.379216 74.817784 362.338806 79.743769 362.338806 84.879405 
C 362.338806 90.015041 364.379216 94.941026 368.010659 98.572469 
C 371.642102 102.203912 376.568087 104.244322 381.703723 104.244322 
z
" clip-path="url(#pd86dc5076a)" style="fill: #808080; stroke: #808080"/>
    <path d="M 345.504462 87.680769 
C 353.72148 87.680769 361.603056 84.416113 367.413365 78.605804 
C 373.223673 72.795496 376.488329 64.91392 376.488329 56.696902 
C 376.488329 48.479885 373.223673 40.598309 367.413365 34.788 
C 361.603056 28.977691 353.72148 25.713035 345.504462 25.713035 
C 337.287445 25.713035 329.405869 28.977691 323.59556 34.788 
C 317.785251 40.598309 314.520595 48.479885 314.520595 56.696902 
C 314.520595 64.91392 317.785251 72.795496 323.59556 78.605804 
C 329.405869 84.416113 337.287445 87.680769 345.504462 87.680769 
z
" clip-path="url(#pd86dc5076a)" style="fill: #808080; stroke: #808080"/>
    <path d="M 407.016247 138.325054 
C 412.151883 138.325054 417.077868 136.284645 420.709311 132.653202 
C 424.340754 129.021759 426.381164 124.095774 426.381164 118.960138 
C 426.381164 113.824502 424.340754 108.898517 420.709311 105.267074 
C 417.077868 101.635631 412.151883 99.595221 407.016247 99.595221 
C 401.880611 99.595221 396.954626 101.635631 393.323183 105.267074 
C 389.69174 108.898517 387.65133 113.824502 387.65133 118.960138 
C 387.65133 124.095774 389.69174 129.021759 393.323183 132.653202 
C 396.954626 136.284645 401.880611 138.325054 407.016247 138.325054 
z
" clip-path="url(#pd86dc5076a)" style="fill: #808080; stroke: #808080"/>
    <path d="M 299.483929 69.249597 
C 307.700947 69.249597 315.582523 65.984941 321.392831 60.174632 
C 327.20314 54.364323 330.467796 46.482747 330.467796 38.26573 
C 330.467796 30.048712 327.20314 22.167136 321.392831 16.356828 
C 315.582523 10.546519 307.700947 7.281863 299.483929 7.281863 
C 291.266912 7.281863 283.385336 10.546519 277.575027 16.356828 
C 271.764718 22.167136 268.500062 30.048712 268.500062 38.26573 
C 268.500062 46.482747 271.764718 54.364323 277.575027 60.174632 
C 283.385336 65.984941 291.266912 69.249597 299.483929 69.249597 
z
" clip-path="url(#pd86dc5076a)" style="fill: #808080; stroke: #808080"/>
    <path d="M 290.357932 332.596715 
C 296.520695 332.596715 302.431877 330.148223 306.789609 325.790492 
C 311.14734 321.43276 313.595832 315.521578 313.595832 309.358815 
C 313.595832 303.196052 311.14734 297.28487 306.789609 292.927138 
C 302.431877 288.569407 296.520695 286.120915 290.357932 286.120915 
C 284.195169 286.120915 278.283987 288.569407 273.926255 292.927138 
C 269.568524 297.28487 267.120032 303.196052 267.120032 309.358815 
C 267.120032 315.521578 269.568524 321.43276 273.926255 325.790492 
C 278.283987 330.148223 284.195169 332.596715 290.357932 332.596715 
z
" clip-path="url(#pd86dc5076a)" style="fill: #808080; stroke: #808080"/>
    <path d="M 39.986777 199.919168 
C 48.203794 199.919168 56.08537 196.654512 61.895679 190.844204 
C 67.705988 185.033895 70.970644 177.152319 70.970644 168.935301 
C 70.970644 160.718284 67.705988 152.836708 61.895679 147.026399 
C 56.08537 141.21609 48.203794 137.951434 39.986777 137.951434 
C 31.769759 137.951434 23.888183 141.21609 18.077875 147.026399 
C 12.267566 152.836708 9.00291 160.718284 9.00291 168.935301 
C 9.00291 177.152319 12.267566 185.033895 18.077875 190.844204 
C 23.888183 196.654512 31.769759 199.919168 39.986777 199.919168 
z
" clip-path="url(#pd86dc5076a)" style="fill: #808080; stroke: #808080"/>
    <path d="M 239.214356 334.974834 
C 244.349992 334.974834 249.275977 332.934424 252.90742 329.302981 
C 256.538863 325.671538 258.579273 320.745553 258.579273 315.609917 
C 258.579273 310.474281 256.538863 305.548296 252.90742 301.916853 
C 249.275977 298.28541 244.349992 296.245001 239.214356 296.245001 
C 234.07872 296.245001 229.152735 298.28541 225.521292 301.916853 
C 221.889849 305.548296 219.849439 310.474281 219.849439 315.609917 
C 219.849439 320.745553 221.889849 325.671538 225.521292 329.302981 
C 229.152735 332.934424 234.07872 334.974834 239.214356 334.974834 
z
" clip-path="url(#pd86dc5076a)" style="fill: #808080; stroke: #808080"/>
    <path d="M 104.076779 99.588983 
C 113.320924 99.588983 122.187697 95.916245 128.724294 89.379648 
C 135.260892 82.84305 138.933629 73.976277 138.933629 64.732133 
C 138.933629 55.487988 135.260892 46.621215 128.724294 40.084617 
C 122.187697 33.54802 113.320924 29.875282 104.076779 29.875282 
C 94.832634 29.875282 85.965861 33.54802 79.429264 40.084617 
C 72.892667 46.621215 69.219929 55.487988 69.219929 64.732133 
C 69.219929 73.976277 72.892667 82.84305 79.429264 89.379648 
C 85.965861 95.916245 94.832634 99.588983 104.076779 99.588983 
z
" clip-path="url(#pd86dc5076a)" style="fill: #808080; stroke: #808080"/>
    <path d="M 402.190561 251.991971 
C 407.326197 251.991971 412.252182 249.951561 415.883625 246.320118 
C 419.515068 242.688675 421.555478 237.76269 421.555478 232.627054 
C 421.555478 227.491418 419.515068 222.565433 415.883625 218.93399 
C 412.252182 215.302547 407.326197 213.262137 402.190561 213.262137 
C 397.054925 213.262137 392.12894 215.302547 388.497497 218.93399 
C 384.866054 222.565433 382.825644 227.491418 382.825644 232.627054 
C 382.825644 237.76269 384.866054 242.688675 388.497497 246.320118 
C 392.12894 249.951561 397.054925 251.991971 402.190561 251.991971 
z
" clip-path="url(#pd86dc5076a)" style="fill: #808080; stroke: #808080"/>
    <path d="M 248.794088 64.846933 
C 258.038233 64.846933 266.905006 61.174195 273.441603 54.637598 
C 279.978201 48.101 283.650938 39.234227 283.650938 29.990083 
C 283.650938 20.745938 279.978201 11.879165 273.441603 5.342568 
C 266.905006 -1.19403 258.038233 -4.866767 248.794088 -4.866767 
C 239.549944 -4.866767 230.683171 -1.19403 224.146573 5.342568 
C 217.609976 11.879165 213.937238 20.745938 213.937238 29.990083 
C 213.937238 39.234227 217.609976 48.101 224.146573 54.637598 
C 230.683171 61.174195 239.549944 64.846933 248.794088 64.846933 
z
" clip-path="url(#pd86dc5076a)" style="fill: #808080; stroke: #808080"/>
    <path d="M 419.281495 230.727165 
C 428.52564 230.727165 437.392413 227.054428 443.92901 220.51783 
C 450.465608 213.981233 454.138345 205.11446 454.138345 195.870315 
C 454.138345 186.626171 450.465608 177.759398 443.92901 171.2228 
C 437.392413 164.686203 428.52564 161.013465 419.281495 161.013465 
C 410.037351 161.013465 401.170578 164.686203 394.63398 171.2228 
C 388.097383 177.759398 384.424645 186.626171 384.424645 195.870315 
C 384.424645 205.11446 388.097383 213.981233 394.63398 220.51783 
C 401.170578 227.054428 410.037351 230.727165 419.281495 230.727165 
z
" clip-path="url(#pd86dc5076a)" style="fill: #808080; stroke: #808080"/>
    <path d="M 420.813223 179.908446 
C 426.975986 179.908446 432.887168 177.459954 437.2449 173.102222 
C 441.602631 168.744491 444.051123 162.833309 444.051123 156.670546 
C 444.051123 150.507782 441.602631 144.5966 437.2449 140.238869 
C 432.887168 135.881137 426.975986 133.432646 420.813223 133.432646 
C 414.65046 133.432646 408.739278 135.881137 404.381546 140.238869 
C 400.023815 144.5966 397.575323 150.507782 397.575323 156.670546 
C 397.575323 162.833309 400.023815 168.744491 404.381546 173.102222 
C 408.739278 177.459954 414.65046 179.908446 420.813223 179.908446 
z
" clip-path="url(#pd86dc5076a)" style="fill: #808080; stroke: #808080"/>
    <path d="M 375.519857 300.799027 
C 384.764001 300.799027 393.630774 297.12629 400.167372 290.589692 
C 406.703969 284.053095 410.376707 275.186322 410.376707 265.942177 
C 410.376707 256.698033 406.703969 247.83126 400.167372 241.294662 
C 393.630774 234.758065 384.764001 231.085327 375.519857 231.085327 
C 366.275712 231.085327 357.408939 234.758065 350.872341 241.294662 
C 344.335744 247.83126 340.663006 256.698033 340.663006 265.942177 
C 340.663006 275.186322 344.335744 284.053095 350.872341 290.589692 
C 357.408939 297.12629 366.275712 300.799027 375.519857 300.799027 
z
" clip-path="url(#pd86dc5076a)" style="fill: #808080; stroke: #808080"/>
    <path d="M 139.319118 333.113376 
C 148.563263 333.113376 157.430036 329.440639 163.966633 322.904041 
C 170.503231 316.367444 174.175968 307.500671 174.175968 298.256526 
C 174.175968 289.012382 170.503231 280.145609 163.966633 273.609011 
C 157.430036 267.072414 148.563263 263.399676 139.319118 263.399676 
C 130.074974 263.399676 121.208201 267.072414 114.671603 273.609011 
C 108.135006 280.145609 104.462268 289.012382 104.462268 298.256526 
C 104.462268 307.500671 108.135006 316.367444 114.671603 322.904041 
C 121.208201 329.440639 130.074974 333.113376 139.319118 333.113376 
z
" clip-path="url(#pd86dc5076a)" style="fill: #808080; stroke: #808080"/>
    <path d="M 147.592741 78.057591 
C 156.836886 78.057591 165.703659 74.384853 172.240256 67.848256 
C 178.776854 61.311659 182.449592 52.444886 182.449592 43.200741 
C 182.449592 33.956596 178.776854 25.089823 172.240256 18.553226 
C 165.703659 12.016628 156.836886 8.343891 147.592741 8.343891 
C 138.348597 8.343891 129.481824 12.016628 122.945226 18.553226 
C 116.408629 25.089823 112.735891 33.956596 112.735891 43.200741 
C 112.735891 52.444886 116.408629 61.311659 122.945226 67.848256 
C 129.481824 74.384853 138.348597 78.057591 147.592741 78.057591 
z
" clip-path="url(#pd86dc5076a)" style="fill: #808080; stroke: #808080"/>
    <path d="M 71.704869 106.879815 
C 74.786251 106.879815 77.741842 105.655569 79.920708 103.476703 
C 82.099573 101.297837 83.323819 98.342246 83.323819 95.260865 
C 83.323819 92.179483 82.099573 89.223892 79.920708 87.045026 
C 77.741842 84.86616 74.786251 83.641915 71.704869 83.641915 
C 68.623488 83.641915 65.667897 84.86616 63.489031 87.045026 
C 61.310165 89.223892 60.085919 92.179483 60.085919 95.260865 
C 60.085919 98.342246 61.310165 101.297837 63.489031 103.476703 
C 65.667897 105.655569 68.623488 106.879815 71.704869 106.879815 
z
" clip-path="url(#pd86dc5076a)" style="fill: #808080; stroke: #808080"/>
    <path d="M 187.591623 347.382466 
C 196.835767 347.382466 205.70254 343.709729 212.239138 337.173131 
C 218.775735 330.636534 222.448473 321.769761 222.448473 312.525616 
C 222.448473 303.281471 218.775735 294.414698 212.239138 287.878101 
C 205.70254 281.341504 196.835767 277.668766 187.591623 277.668766 
C 178.347478 277.668766 169.480705 281.341504 162.944108 287.878101 
C 156.40751 294.414698 152.734773 303.281471 152.734773 312.525616 
C 152.734773 321.769761 156.40751 330.636534 162.944108 337.173131 
C 169.480705 343.709729 178.347478 347.382466 187.591623 347.382466 
z
" clip-path="url(#pd86dc5076a)" style="fill: #808080; stroke: #808080"/>
    <path d="M 196.833887 65.231726 
C 206.078031 65.231726 214.944804 61.558989 221.481402 55.022391 
C 228.017999 48.485794 231.690737 39.619021 231.690737 30.374876 
C 231.690737 21.130731 228.017999 12.263958 221.481402 5.727361 
C 214.944804 -0.809236 206.078031 -4.481974 196.833887 -4.481974 
C 187.589742 -4.481974 178.722969 -0.809236 172.186371 5.727361 
C 165.649774 12.263958 161.977036 21.130731 161.977036 30.374876 
C 161.977036 39.619021 165.649774 48.485794 172.186371 55.022391 
C 178.722969 61.558989 187.589742 65.231726 196.833887 65.231726 
z
" clip-path="url(#pd86dc5076a)" style="fill: #808080; stroke: #808080"/>
    <path d="M 48.671201 165.098325 
C 57.915346 165.098325 66.782119 161.425588 73.318716 154.88899 
C 79.855313 148.352393 83.528051 139.48562 83.528051 130.241475 
C 83.528051 120.99733 79.855313 112.130557 73.318716 105.59396 
C 66.782119 99.057363 57.915346 95.384625 48.671201 95.384625 
C 39.427056 95.384625 30.560283 99.057363 24.023686 105.59396 
C 17.487088 112.130557 13.814351 120.99733 13.814351 130.241475 
C 13.814351 139.48562 17.487088 148.352393 24.023686 154.88899 
C 30.560283 161.425588 39.427056 165.098325 48.671201 165.098325 
z
" clip-path="url(#pd86dc5076a)" style="fill: #808080; stroke: #808080"/>
    <path d="M 96.938056 310.447682 
C 106.1822 310.447682 115.048973 306.774944 121.585571 300.238347 
C 128.122168 293.701749 131.794906 284.834976 131.794906 275.590832 
C 131.794906 266.346687 128.122168 257.479914 121.585571 250.943317 
C 115.048973 244.406719 106.1822 240.733982 96.938056 240.733982 
C 87.693911 240.733982 78.827138 244.406719 72.290541 250.943317 
C 65.753943 257.479914 62.081206 266.346687 62.081206 275.590832 
C 62.081206 284.834976 65.753943 293.701749 72.290541 300.238347 
C 78.827138 306.774944 87.693911 310.447682 96.938056 310.447682 
z
" clip-path="url(#pd86dc5076a)" style="fill: #808080; stroke: #808080"/>
   </g>
   <g id="text_22">
    <g clip-path="url(#pd86dc5076a)">
     <!-- Pablo -->
     <g transform="translate(29.930391 204.488452)scale(0.12 -0.12)">
      <defs>
       <path id="DejaVuSans-50" d="M 1259 4147 
L 1259 2394 
L 2053 2394 
Q 2494 2394 2734 2622 
Q 2975 2850 2975 3272 
Q 2975 3691 2734 3919 
Q 2494 4147 2053 4147 
L 1259 4147 
z
M 628 4666 
L 2053 4666 
Q 2838 4666 3239 4311 
Q 3641 3956 3641 3272 
Q 3641 2581 3239 2228 
Q 2838 1875 2053 1875 
L 1259 1875 
L 1259 0 
L 628 0 
L 628 4666 
z
" transform="scale(0.015625)"/>
       <path id="DejaVuSans-61" d="M 2194 1759 
Q 1497 1759 1228 1600 
Q 959 1441 959 1056 
Q 959 750 1161 570 
Q 1363 391 1709 391 
Q 2188 391 2477 730 
Q 2766 1069 2766 1631 
L 2766 1759 
L 2194 1759 
z
M 3341 1997 
L 3341 0 
L 2766 0 
L 2766 531 
Q 2569 213 2275 61 
Q 1981 -91 1556 -91 
Q 1019 -91 701 211 
Q 384 513 384 1019 
Q 384 1609 779 1909 
Q 1175 2209 1959 2209 
L 2766 2209 
L 2766 2266 
Q 2766 2663 2505 2880 
Q 2244 3097 1772 3097 
Q 1472 3097 1187 3025 
Q 903 2953 641 2809 
L 641 3341 
Q 956 3463 1253 3523 
Q 1550 3584 1831 3584 
Q 2591 3584 2966 3190 
Q 3341 2797 3341 1997 
z
" transform="scale(0.015625)"/>
       <path id="DejaVuSans-62" d="M 3116 1747 
Q 3116 2381 2855 2742 
Q 2594 3103 2138 3103 
Q 1681 3103 1420 2742 
Q 1159 2381 1159 1747 
Q 1159 1113 1420 752 
Q 1681 391 2138 391 
Q 2594 391 2855 752 
Q 3116 1113 3116 1747 
z
M 1159 2969 
Q 1341 3281 1617 3432 
Q 1894 3584 2278 3584 
Q 2916 3584 3314 3078 
Q 3713 2572 3713 1747 
Q 3713 922 3314 415 
Q 2916 -91 2278 -91 
Q 1894 -91 1617 61 
Q 1341 213 1159 525 
L 1159 0 
L 581 0 
L 581 4863 
L 1159 4863 
L 1159 2969 
z
" transform="scale(0.015625)"/>
       <path id="DejaVuSans-6c" d="M 603 4863 
L 1178 4863 
L 1178 0 
L 603 0 
L 603 4863 
z
" transform="scale(0.015625)"/>
       <path id="DejaVuSans-6f" d="M 1959 3097 
Q 1497 3097 1228 2736 
Q 959 2375 959 1747 
Q 959 1119 1226 758 
Q 1494 397 1959 397 
Q 2419 397 2687 759 
Q 2956 1122 2956 1747 
Q 2956 2369 2687 2733 
Q 2419 3097 1959 3097 
z
M 1959 3584 
Q 2709 3584 3137 3096 
Q 3566 2609 3566 1747 
Q 3566 888 3137 398 
Q 2709 -91 1959 -91 
Q 1206 -91 779 398 
Q 353 888 353 1747 
Q 353 2609 779 3096 
Q 1206 3584 1959 3584 
z
" transform="scale(0.015625)"/>
      </defs>
      <use xlink:href="#DejaVuSans-50"/>
      <use xlink:href="#DejaVuSans-61" x="55.802734"/>
      <use xlink:href="#DejaVuSans-62" x="117.082031"/>
      <use xlink:href="#DejaVuSans-6c" x="180.558594"/>
      <use xlink:href="#DejaVuSans-6f" x="208.341797"/>
     </g>
    </g>
    <g clip-path="url(#pd86dc5076a)">
     <!-- Ugo -->
     <g transform="translate(34.230704 217.925827)scale(0.12 -0.12)">
      <defs>
       <path id="DejaVuSans-55" d="M 556 4666 
L 1191 4666 
L 1191 1831 
Q 1191 1081 1462 751 
Q 1734 422 2344 422 
Q 2950 422 3222 751 
Q 3494 1081 3494 1831 
L 3494 4666 
L 4128 4666 
L 4128 1753 
Q 4128 841 3676 375 
Q 3225 -91 2344 -91 
Q 1459 -91 1007 375 
Q 556 841 556 1753 
L 556 4666 
z
" transform="scale(0.015625)"/>
       <path id="DejaVuSans-67" d="M 2906 1791 
Q 2906 2416 2648 2759 
Q 2391 3103 1925 3103 
Q 1463 3103 1205 2759 
Q 947 2416 947 1791 
Q 947 1169 1205 825 
Q 1463 481 1925 481 
Q 2391 481 2648 825 
Q 2906 1169 2906 1791 
z
M 3481 434 
Q 3481 -459 3084 -895 
Q 2688 -1331 1869 -1331 
Q 1566 -1331 1297 -1286 
Q 1028 -1241 775 -1147 
L 775 -588 
Q 1028 -725 1275 -790 
Q 1522 -856 1778 -856 
Q 2344 -856 2625 -561 
Q 2906 -266 2906 331 
L 2906 616 
Q 2728 306 2450 153 
Q 2172 0 1784 0 
Q 1141 0 747 490 
Q 353 981 353 1791 
Q 353 2603 747 3093 
Q 1141 3584 1784 3584 
Q 2172 3584 2450 3431 
Q 2728 3278 2906 2969 
L 2906 3500 
L 3481 3500 
L 3481 434 
z
" transform="scale(0.015625)"/>
      </defs>
      <use xlink:href="#DejaVuSans-55"/>
      <use xlink:href="#DejaVuSans-67" x="73.193359"/>
      <use xlink:href="#DejaVuSans-6f" x="136.669922"/>
     </g>
    </g>
   </g>
   <g id="text_23">
    <g clip-path="url(#pd86dc5076a)">
     <!-- Nicco -->
     <g transform="translate(48.979229 240.914102)scale(0.12 -0.12)">
      <defs>
       <path id="DejaVuSans-4e" d="M 628 4666 
L 1478 4666 
L 3547 763 
L 3547 4666 
L 4159 4666 
L 4159 0 
L 3309 0 
L 1241 3903 
L 1241 0 
L 628 0 
L 628 4666 
z
" transform="scale(0.015625)"/>
       <path id="DejaVuSans-69" d="M 603 3500 
L 1178 3500 
L 1178 0 
L 603 0 
L 603 3500 
z
M 603 4863 
L 1178 4863 
L 1178 4134 
L 603 4134 
L 603 4863 
z
" transform="scale(0.015625)"/>
       <path id="DejaVuSans-63" d="M 3122 3366 
L 3122 2828 
Q 2878 2963 2633 3030 
Q 2388 3097 2138 3097 
Q 1578 3097 1268 2742 
Q 959 2388 959 1747 
Q 959 1106 1268 751 
Q 1578 397 2138 397 
Q 2388 397 2633 464 
Q 2878 531 3122 666 
L 3122 134 
Q 2881 22 2623 -34 
Q 2366 -91 2075 -91 
Q 1284 -91 818 406 
Q 353 903 353 1747 
Q 353 2603 823 3093 
Q 1294 3584 2113 3584 
Q 2378 3584 2631 3529 
Q 2884 3475 3122 3366 
z
" transform="scale(0.015625)"/>
      </defs>
      <use xlink:href="#DejaVuSans-4e"/>
      <use xlink:href="#DejaVuSans-69" x="74.804688"/>
      <use xlink:href="#DejaVuSans-63" x="102.587891"/>
      <use xlink:href="#DejaVuSans-63" x="157.568359"/>
      <use xlink:href="#DejaVuSans-6f" x="212.548828"/>
     </g>
    </g>
    <g clip-path="url(#pd86dc5076a)">
     <!-- Shintaro -->
     <g transform="translate(40.291416 254.351477)scale(0.12 -0.12)">
      <defs>
       <path id="DejaVuSans-53" d="M 3425 4513 
L 3425 3897 
Q 3066 4069 2747 4153 
Q 2428 4238 2131 4238 
Q 1616 4238 1336 4038 
Q 1056 3838 1056 3469 
Q 1056 3159 1242 3001 
Q 1428 2844 1947 2747 
L 2328 2669 
Q 3034 2534 3370 2195 
Q 3706 1856 3706 1288 
Q 3706 609 3251 259 
Q 2797 -91 1919 -91 
Q 1588 -91 1214 -16 
Q 841 59 441 206 
L 441 856 
Q 825 641 1194 531 
Q 1563 422 1919 422 
Q 2459 422 2753 634 
Q 3047 847 3047 1241 
Q 3047 1584 2836 1778 
Q 2625 1972 2144 2069 
L 1759 2144 
Q 1053 2284 737 2584 
Q 422 2884 422 3419 
Q 422 4038 858 4394 
Q 1294 4750 2059 4750 
Q 2388 4750 2728 4690 
Q 3069 4631 3425 4513 
z
" transform="scale(0.015625)"/>
       <path id="DejaVuSans-68" d="M 3513 2113 
L 3513 0 
L 2938 0 
L 2938 2094 
Q 2938 2591 2744 2837 
Q 2550 3084 2163 3084 
Q 1697 3084 1428 2787 
Q 1159 2491 1159 1978 
L 1159 0 
L 581 0 
L 581 4863 
L 1159 4863 
L 1159 2956 
Q 1366 3272 1645 3428 
Q 1925 3584 2291 3584 
Q 2894 3584 3203 3211 
Q 3513 2838 3513 2113 
z
" transform="scale(0.015625)"/>
       <path id="DejaVuSans-6e" d="M 3513 2113 
L 3513 0 
L 2938 0 
L 2938 2094 
Q 2938 2591 2744 2837 
Q 2550 3084 2163 3084 
Q 1697 3084 1428 2787 
Q 1159 2491 1159 1978 
L 1159 0 
L 581 0 
L 581 3500 
L 1159 3500 
L 1159 2956 
Q 1366 3272 1645 3428 
Q 1925 3584 2291 3584 
Q 2894 3584 3203 3211 
Q 3513 2838 3513 2113 
z
" transform="scale(0.015625)"/>
       <path id="DejaVuSans-74" d="M 1172 4494 
L 1172 3500 
L 2356 3500 
L 2356 3053 
L 1172 3053 
L 1172 1153 
Q 1172 725 1289 603 
Q 1406 481 1766 481 
L 2356 481 
L 2356 0 
L 1766 0 
Q 1100 0 847 248 
Q 594 497 594 1153 
L 594 3053 
L 172 3053 
L 172 3500 
L 594 3500 
L 594 4494 
L 1172 4494 
z
" transform="scale(0.015625)"/>
       <path id="DejaVuSans-72" d="M 2631 2963 
Q 2534 3019 2420 3045 
Q 2306 3072 2169 3072 
Q 1681 3072 1420 2755 
Q 1159 2438 1159 1844 
L 1159 0 
L 581 0 
L 581 3500 
L 1159 3500 
L 1159 2956 
Q 1341 3275 1631 3429 
Q 1922 3584 2338 3584 
Q 2397 3584 2469 3576 
Q 2541 3569 2628 3553 
L 2631 2963 
z
" transform="scale(0.015625)"/>
      </defs>
      <use xlink:href="#DejaVuSans-53"/>
      <use xlink:href="#DejaVuSans-68" x="63.476562"/>
      <use xlink:href="#DejaVuSans-69" x="126.855469"/>
      <use xlink:href="#DejaVuSans-6e" x="154.638672"/>
      <use xlink:href="#DejaVuSans-74" x="218.017578"/>
      <use xlink:href="#DejaVuSans-61" x="257.226562"/>
      <use xlink:href="#DejaVuSans-72" x="318.505859"/>
      <use xlink:href="#DejaVuSans-6f" x="357.369141"/>
     </g>
    </g>
   </g>
   <g id="text_24">
    <g clip-path="url(#pd86dc5076a)">
     <!-- Pablo -->
     <g transform="translate(320.599506 288.456509)scale(0.12 -0.12)">
      <use xlink:href="#DejaVuSans-50"/>
      <use xlink:href="#DejaVuSans-61" x="55.802734"/>
      <use xlink:href="#DejaVuSans-62" x="117.082031"/>
      <use xlink:href="#DejaVuSans-6c" x="180.558594"/>
      <use xlink:href="#DejaVuSans-6f" x="208.341797"/>
     </g>
    </g>
    <g clip-path="url(#pd86dc5076a)">
     <!-- Xiaoyu -->
     <g transform="translate(316.292631 301.893884)scale(0.12 -0.12)">
      <defs>
       <path id="DejaVuSans-58" d="M 403 4666 
L 1081 4666 
L 2241 2931 
L 3406 4666 
L 4084 4666 
L 2584 2425 
L 4184 0 
L 3506 0 
L 2194 1984 
L 872 0 
L 191 0 
L 1856 2491 
L 403 4666 
z
" transform="scale(0.015625)"/>
       <path id="DejaVuSans-79" d="M 2059 -325 
Q 1816 -950 1584 -1140 
Q 1353 -1331 966 -1331 
L 506 -1331 
L 506 -850 
L 844 -850 
Q 1081 -850 1212 -737 
Q 1344 -625 1503 -206 
L 1606 56 
L 191 3500 
L 800 3500 
L 1894 763 
L 2988 3500 
L 3597 3500 
L 2059 -325 
z
" transform="scale(0.015625)"/>
       <path id="DejaVuSans-75" d="M 544 1381 
L 544 3500 
L 1119 3500 
L 1119 1403 
Q 1119 906 1312 657 
Q 1506 409 1894 409 
Q 2359 409 2629 706 
Q 2900 1003 2900 1516 
L 2900 3500 
L 3475 3500 
L 3475 0 
L 2900 0 
L 2900 538 
Q 2691 219 2414 64 
Q 2138 -91 1772 -91 
Q 1169 -91 856 284 
Q 544 659 544 1381 
z
M 1991 3584 
L 1991 3584 
z
" transform="scale(0.015625)"/>
      </defs>
      <use xlink:href="#DejaVuSans-58"/>
      <use xlink:href="#DejaVuSans-69" x="68.505859"/>
      <use xlink:href="#DejaVuSans-61" x="96.289062"/>
      <use xlink:href="#DejaVuSans-6f" x="157.568359"/>
      <use xlink:href="#DejaVuSans-79" x="218.75"/>
      <use xlink:href="#DejaVuSans-75" x="277.929688"/>
     </g>
    </g>
   </g>
   <g id="text_25">
    <g clip-path="url(#pd86dc5076a)">
     <!-- Nicco -->
     <g transform="translate(365.278723 81.471968)scale(0.12 -0.12)">
      <use xlink:href="#DejaVuSans-4e"/>
      <use xlink:href="#DejaVuSans-69" x="74.804688"/>
      <use xlink:href="#DejaVuSans-63" x="102.587891"/>
      <use xlink:href="#DejaVuSans-63" x="157.568359"/>
      <use xlink:href="#DejaVuSans-6f" x="212.548828"/>
     </g>
    </g>
    <g clip-path="url(#pd86dc5076a)">
     <!-- Leo -->
     <g transform="translate(371.102473 94.909343)scale(0.12 -0.12)">
      <defs>
       <path id="DejaVuSans-4c" d="M 628 4666 
L 1259 4666 
L 1259 531 
L 3531 531 
L 3531 0 
L 628 0 
L 628 4666 
z
" transform="scale(0.015625)"/>
       <path id="DejaVuSans-65" d="M 3597 1894 
L 3597 1613 
L 953 1613 
Q 991 1019 1311 708 
Q 1631 397 2203 397 
Q 2534 397 2845 478 
Q 3156 559 3463 722 
L 3463 178 
Q 3153 47 2828 -22 
Q 2503 -91 2169 -91 
Q 1331 -91 842 396 
Q 353 884 353 1716 
Q 353 2575 817 3079 
Q 1281 3584 2069 3584 
Q 2775 3584 3186 3129 
Q 3597 2675 3597 1894 
z
M 3022 2063 
Q 3016 2534 2758 2815 
Q 2500 3097 2075 3097 
Q 1594 3097 1305 2825 
Q 1016 2553 972 2059 
L 3022 2063 
z
" transform="scale(0.015625)"/>
      </defs>
      <use xlink:href="#DejaVuSans-4c"/>
      <use xlink:href="#DejaVuSans-65" x="53.962891"/>
      <use xlink:href="#DejaVuSans-6f" x="115.486328"/>
     </g>
    </g>
   </g>
   <g id="text_26">
    <g clip-path="url(#pd86dc5076a)">
     <!-- Leo -->
     <g transform="translate(334.903212 53.289465)scale(0.12 -0.12)">
      <use xlink:href="#DejaVuSans-4c"/>
      <use xlink:href="#DejaVuSans-65" x="53.962891"/>
      <use xlink:href="#DejaVuSans-6f" x="115.486328"/>
     </g>
    </g>
    <g clip-path="url(#pd86dc5076a)">
     <!-- Shintaro -->
     <g transform="translate(320.39165 66.72684)scale(0.12 -0.12)">
      <use xlink:href="#DejaVuSans-53"/>
      <use xlink:href="#DejaVuSans-68" x="63.476562"/>
      <use xlink:href="#DejaVuSans-69" x="126.855469"/>
      <use xlink:href="#DejaVuSans-6e" x="154.638672"/>
      <use xlink:href="#DejaVuSans-74" x="218.017578"/>
      <use xlink:href="#DejaVuSans-61" x="257.226562"/>
      <use xlink:href="#DejaVuSans-72" x="318.505859"/>
      <use xlink:href="#DejaVuSans-6f" x="357.369141"/>
     </g>
    </g>
   </g>
   <g id="text_27">
    <g clip-path="url(#pd86dc5076a)">
     <!-- Pablo -->
     <g transform="translate(390.844372 115.5527)scale(0.12 -0.12)">
      <use xlink:href="#DejaVuSans-50"/>
      <use xlink:href="#DejaVuSans-61" x="55.802734"/>
      <use xlink:href="#DejaVuSans-62" x="117.082031"/>
      <use xlink:href="#DejaVuSans-6c" x="180.558594"/>
      <use xlink:href="#DejaVuSans-6f" x="208.341797"/>
     </g>
    </g>
    <g clip-path="url(#pd86dc5076a)">
     <!-- Leo -->
     <g transform="translate(396.414997 128.990075)scale(0.12 -0.12)">
      <use xlink:href="#DejaVuSans-4c"/>
      <use xlink:href="#DejaVuSans-65" x="53.962891"/>
      <use xlink:href="#DejaVuSans-6f" x="115.486328"/>
     </g>
    </g>
   </g>
   <g id="text_28">
    <g clip-path="url(#pd86dc5076a)">
     <!-- Shintaro -->
     <g transform="translate(274.371117 34.858292)scale(0.12 -0.12)">
      <use xlink:href="#DejaVuSans-53"/>
      <use xlink:href="#DejaVuSans-68" x="63.476562"/>
      <use xlink:href="#DejaVuSans-69" x="126.855469"/>
      <use xlink:href="#DejaVuSans-6e" x="154.638672"/>
      <use xlink:href="#DejaVuSans-74" x="218.017578"/>
      <use xlink:href="#DejaVuSans-61" x="257.226562"/>
      <use xlink:href="#DejaVuSans-72" x="318.505859"/>
      <use xlink:href="#DejaVuSans-6f" x="357.369141"/>
     </g>
    </g>
    <g clip-path="url(#pd86dc5076a)">
     <!-- Xiaoyu -->
     <g transform="translate(279.005179 48.295667)scale(0.12 -0.12)">
      <use xlink:href="#DejaVuSans-58"/>
      <use xlink:href="#DejaVuSans-69" x="68.505859"/>
      <use xlink:href="#DejaVuSans-61" x="96.289062"/>
      <use xlink:href="#DejaVuSans-6f" x="157.568359"/>
      <use xlink:href="#DejaVuSans-79" x="218.75"/>
      <use xlink:href="#DejaVuSans-75" x="277.929688"/>
     </g>
    </g>
   </g>
   <g id="text_29">
    <g clip-path="url(#pd86dc5076a)">
     <!-- Leo -->
     <g transform="translate(279.756682 305.951377)scale(0.12 -0.12)">
      <use xlink:href="#DejaVuSans-4c"/>
      <use xlink:href="#DejaVuSans-65" x="53.962891"/>
      <use xlink:href="#DejaVuSans-6f" x="115.486328"/>
     </g>
    </g>
    <g clip-path="url(#pd86dc5076a)">
     <!-- Xiaoyu -->
     <g transform="translate(269.879182 319.388752)scale(0.12 -0.12)">
      <use xlink:href="#DejaVuSans-58"/>
      <use xlink:href="#DejaVuSans-69" x="68.505859"/>
      <use xlink:href="#DejaVuSans-61" x="96.289062"/>
      <use xlink:href="#DejaVuSans-6f" x="157.568359"/>
      <use xlink:href="#DejaVuSans-79" x="218.75"/>
      <use xlink:href="#DejaVuSans-75" x="277.929688"/>
     </g>
    </g>
   </g>
   <g id="text_30">
    <g clip-path="url(#pd86dc5076a)">
     <!-- Pablo -->
     <g transform="translate(23.814902 165.527864)scale(0.12 -0.12)">
      <use xlink:href="#DejaVuSans-50"/>
      <use xlink:href="#DejaVuSans-61" x="55.802734"/>
      <use xlink:href="#DejaVuSans-62" x="117.082031"/>
      <use xlink:href="#DejaVuSans-6c" x="180.558594"/>
      <use xlink:href="#DejaVuSans-6f" x="208.341797"/>
     </g>
    </g>
    <g clip-path="url(#pd86dc5076a)">
     <!-- Shintaro -->
     <g transform="translate(14.873964 178.965239)scale(0.12 -0.12)">
      <use xlink:href="#DejaVuSans-53"/>
      <use xlink:href="#DejaVuSans-68" x="63.476562"/>
      <use xlink:href="#DejaVuSans-69" x="126.855469"/>
      <use xlink:href="#DejaVuSans-6e" x="154.638672"/>
      <use xlink:href="#DejaVuSans-74" x="218.017578"/>
      <use xlink:href="#DejaVuSans-61" x="257.226562"/>
      <use xlink:href="#DejaVuSans-72" x="318.505859"/>
      <use xlink:href="#DejaVuSans-6f" x="357.369141"/>
     </g>
    </g>
   </g>
   <g id="text_31">
    <g clip-path="url(#pd86dc5076a)">
     <!-- Ugo -->
     <g transform="translate(227.342794 312.20248)scale(0.12 -0.12)">
      <use xlink:href="#DejaVuSans-55"/>
      <use xlink:href="#DejaVuSans-67" x="73.193359"/>
      <use xlink:href="#DejaVuSans-6f" x="136.669922"/>
     </g>
    </g>
    <g clip-path="url(#pd86dc5076a)">
     <!-- Nicco -->
     <g transform="translate(222.789356 325.639855)scale(0.12 -0.12)">
      <use xlink:href="#DejaVuSans-4e"/>
      <use xlink:href="#DejaVuSans-69" x="74.804688"/>
      <use xlink:href="#DejaVuSans-63" x="102.587891"/>
      <use xlink:href="#DejaVuSans-63" x="157.568359"/>
      <use xlink:href="#DejaVuSans-6f" x="212.548828"/>
     </g>
    </g>
   </g>
   <g id="text_32">
    <g clip-path="url(#pd86dc5076a)">
     <!-- Mathieu p -->
     <g transform="translate(74.191154 61.324695)scale(0.12 -0.12)">
      <defs>
       <path id="DejaVuSans-4d" d="M 628 4666 
L 1569 4666 
L 2759 1491 
L 3956 4666 
L 4897 4666 
L 4897 0 
L 4281 0 
L 4281 4097 
L 3078 897 
L 2444 897 
L 1241 4097 
L 1241 0 
L 628 0 
L 628 4666 
z
" transform="scale(0.015625)"/>
       <path id="DejaVuSans-20" transform="scale(0.015625)"/>
       <path id="DejaVuSans-70" d="M 1159 525 
L 1159 -1331 
L 581 -1331 
L 581 3500 
L 1159 3500 
L 1159 2969 
Q 1341 3281 1617 3432 
Q 1894 3584 2278 3584 
Q 2916 3584 3314 3078 
Q 3713 2572 3713 1747 
Q 3713 922 3314 415 
Q 2916 -91 2278 -91 
Q 1894 -91 1617 61 
Q 1341 213 1159 525 
z
M 3116 1747 
Q 3116 2381 2855 2742 
Q 2594 3103 2138 3103 
Q 1681 3103 1420 2742 
Q 1159 2381 1159 1747 
Q 1159 1113 1420 752 
Q 1681 391 2138 391 
Q 2594 391 2855 752 
Q 3116 1113 3116 1747 
z
" transform="scale(0.015625)"/>
      </defs>
      <use xlink:href="#DejaVuSans-4d"/>
      <use xlink:href="#DejaVuSans-61" x="86.279297"/>
      <use xlink:href="#DejaVuSans-74" x="147.558594"/>
      <use xlink:href="#DejaVuSans-68" x="186.767578"/>
      <use xlink:href="#DejaVuSans-69" x="250.146484"/>
      <use xlink:href="#DejaVuSans-65" x="277.929688"/>
      <use xlink:href="#DejaVuSans-75" x="339.453125"/>
      <use xlink:href="#DejaVuSans-20" x="402.832031"/>
      <use xlink:href="#DejaVuSans-70" x="434.619141"/>
     </g>
    </g>
    <g clip-path="url(#pd86dc5076a)">
     <!-- Shintaro -->
     <g transform="translate(78.963967 74.76207)scale(0.12 -0.12)">
      <use xlink:href="#DejaVuSans-53"/>
      <use xlink:href="#DejaVuSans-68" x="63.476562"/>
      <use xlink:href="#DejaVuSans-69" x="126.855469"/>
      <use xlink:href="#DejaVuSans-6e" x="154.638672"/>
      <use xlink:href="#DejaVuSans-74" x="218.017578"/>
      <use xlink:href="#DejaVuSans-61" x="257.226562"/>
      <use xlink:href="#DejaVuSans-72" x="318.505859"/>
      <use xlink:href="#DejaVuSans-6f" x="357.369141"/>
     </g>
    </g>
   </g>
   <g id="text_33">
    <g clip-path="url(#pd86dc5076a)">
     <!-- Pablo -->
     <g transform="translate(386.018686 229.219617)scale(0.12 -0.12)">
      <use xlink:href="#DejaVuSans-50"/>
      <use xlink:href="#DejaVuSans-61" x="55.802734"/>
      <use xlink:href="#DejaVuSans-62" x="117.082031"/>
      <use xlink:href="#DejaVuSans-6c" x="180.558594"/>
      <use xlink:href="#DejaVuSans-6f" x="208.341797"/>
     </g>
    </g>
    <g clip-path="url(#pd86dc5076a)">
     <!-- Nicco -->
     <g transform="translate(385.765561 242.656992)scale(0.12 -0.12)">
      <use xlink:href="#DejaVuSans-4e"/>
      <use xlink:href="#DejaVuSans-69" x="74.804688"/>
      <use xlink:href="#DejaVuSans-63" x="102.587891"/>
      <use xlink:href="#DejaVuSans-63" x="157.568359"/>
      <use xlink:href="#DejaVuSans-6f" x="212.548828"/>
     </g>
    </g>
   </g>
   <g id="text_34">
    <g clip-path="url(#pd86dc5076a)">
     <!-- Mathieu p -->
     <g transform="translate(218.908463 26.582645)scale(0.12 -0.12)">
      <use xlink:href="#DejaVuSans-4d"/>
      <use xlink:href="#DejaVuSans-61" x="86.279297"/>
      <use xlink:href="#DejaVuSans-74" x="147.558594"/>
      <use xlink:href="#DejaVuSans-68" x="186.767578"/>
      <use xlink:href="#DejaVuSans-69" x="250.146484"/>
      <use xlink:href="#DejaVuSans-65" x="277.929688"/>
      <use xlink:href="#DejaVuSans-75" x="339.453125"/>
      <use xlink:href="#DejaVuSans-20" x="402.832031"/>
      <use xlink:href="#DejaVuSans-70" x="434.619141"/>
     </g>
    </g>
    <g clip-path="url(#pd86dc5076a)">
     <!-- Leo -->
     <g transform="translate(238.192838 40.02002)scale(0.12 -0.12)">
      <use xlink:href="#DejaVuSans-4c"/>
      <use xlink:href="#DejaVuSans-65" x="53.962891"/>
      <use xlink:href="#DejaVuSans-6f" x="115.486328"/>
     </g>
    </g>
   </g>
   <g id="text_35">
    <g clip-path="url(#pd86dc5076a)">
     <!-- Pablo -->
     <g transform="translate(403.10962 192.462878)scale(0.12 -0.12)">
      <use xlink:href="#DejaVuSans-50"/>
      <use xlink:href="#DejaVuSans-61" x="55.802734"/>
      <use xlink:href="#DejaVuSans-62" x="117.082031"/>
      <use xlink:href="#DejaVuSans-6c" x="180.558594"/>
      <use xlink:href="#DejaVuSans-6f" x="208.341797"/>
     </g>
    </g>
    <g clip-path="url(#pd86dc5076a)">
     <!-- Mathieu p -->
     <g transform="translate(389.39587 205.900253)scale(0.12 -0.12)">
      <use xlink:href="#DejaVuSans-4d"/>
      <use xlink:href="#DejaVuSans-61" x="86.279297"/>
      <use xlink:href="#DejaVuSans-74" x="147.558594"/>
      <use xlink:href="#DejaVuSans-68" x="186.767578"/>
      <use xlink:href="#DejaVuSans-69" x="250.146484"/>
      <use xlink:href="#DejaVuSans-65" x="277.929688"/>
      <use xlink:href="#DejaVuSans-75" x="339.453125"/>
      <use xlink:href="#DejaVuSans-20" x="402.832031"/>
      <use xlink:href="#DejaVuSans-70" x="434.619141"/>
     </g>
    </g>
   </g>
   <g id="text_36">
    <g clip-path="url(#pd86dc5076a)">
     <!-- Ugo -->
     <g transform="translate(408.941661 153.263108)scale(0.12 -0.12)">
      <use xlink:href="#DejaVuSans-55"/>
      <use xlink:href="#DejaVuSans-67" x="73.193359"/>
      <use xlink:href="#DejaVuSans-6f" x="136.669922"/>
     </g>
    </g>
    <g clip-path="url(#pd86dc5076a)">
     <!-- Xiaoyu -->
     <g transform="translate(400.334473 166.700483)scale(0.12 -0.12)">
      <use xlink:href="#DejaVuSans-58"/>
      <use xlink:href="#DejaVuSans-69" x="68.505859"/>
      <use xlink:href="#DejaVuSans-61" x="96.289062"/>
      <use xlink:href="#DejaVuSans-6f" x="157.568359"/>
      <use xlink:href="#DejaVuSans-79" x="218.75"/>
      <use xlink:href="#DejaVuSans-75" x="277.929688"/>
     </g>
    </g>
   </g>
   <g id="text_37">
    <g clip-path="url(#pd86dc5076a)">
     <!-- Mathieu p -->
     <g transform="translate(345.634232 262.53474)scale(0.12 -0.12)">
      <use xlink:href="#DejaVuSans-4d"/>
      <use xlink:href="#DejaVuSans-61" x="86.279297"/>
      <use xlink:href="#DejaVuSans-74" x="147.558594"/>
      <use xlink:href="#DejaVuSans-68" x="186.767578"/>
      <use xlink:href="#DejaVuSans-69" x="250.146484"/>
      <use xlink:href="#DejaVuSans-65" x="277.929688"/>
      <use xlink:href="#DejaVuSans-75" x="339.453125"/>
      <use xlink:href="#DejaVuSans-20" x="402.832031"/>
      <use xlink:href="#DejaVuSans-70" x="434.619141"/>
     </g>
    </g>
    <g clip-path="url(#pd86dc5076a)">
     <!-- Xiaoyu -->
     <g transform="translate(355.041107 275.972115)scale(0.12 -0.12)">
      <use xlink:href="#DejaVuSans-58"/>
      <use xlink:href="#DejaVuSans-69" x="68.505859"/>
      <use xlink:href="#DejaVuSans-61" x="96.289062"/>
      <use xlink:href="#DejaVuSans-6f" x="157.568359"/>
      <use xlink:href="#DejaVuSans-79" x="218.75"/>
      <use xlink:href="#DejaVuSans-75" x="277.929688"/>
     </g>
    </g>
   </g>
   <g id="text_38">
    <g clip-path="url(#pd86dc5076a)">
     <!-- Mathieu p -->
     <g transform="translate(109.433493 294.849089)scale(0.12 -0.12)">
      <use xlink:href="#DejaVuSans-4d"/>
      <use xlink:href="#DejaVuSans-61" x="86.279297"/>
      <use xlink:href="#DejaVuSans-74" x="147.558594"/>
      <use xlink:href="#DejaVuSans-68" x="186.767578"/>
      <use xlink:href="#DejaVuSans-69" x="250.146484"/>
      <use xlink:href="#DejaVuSans-65" x="277.929688"/>
      <use xlink:href="#DejaVuSans-75" x="339.453125"/>
      <use xlink:href="#DejaVuSans-20" x="402.832031"/>
      <use xlink:href="#DejaVuSans-70" x="434.619141"/>
     </g>
    </g>
    <g clip-path="url(#pd86dc5076a)">
     <!-- Samantha -->
     <g transform="translate(108.677868 308.286464)scale(0.12 -0.12)">
      <defs>
       <path id="DejaVuSans-6d" d="M 3328 2828 
Q 3544 3216 3844 3400 
Q 4144 3584 4550 3584 
Q 5097 3584 5394 3201 
Q 5691 2819 5691 2113 
L 5691 0 
L 5113 0 
L 5113 2094 
Q 5113 2597 4934 2840 
Q 4756 3084 4391 3084 
Q 3944 3084 3684 2787 
Q 3425 2491 3425 1978 
L 3425 0 
L 2847 0 
L 2847 2094 
Q 2847 2600 2669 2842 
Q 2491 3084 2119 3084 
Q 1678 3084 1418 2786 
Q 1159 2488 1159 1978 
L 1159 0 
L 581 0 
L 581 3500 
L 1159 3500 
L 1159 2956 
Q 1356 3278 1631 3431 
Q 1906 3584 2284 3584 
Q 2666 3584 2933 3390 
Q 3200 3197 3328 2828 
z
" transform="scale(0.015625)"/>
      </defs>
      <use xlink:href="#DejaVuSans-53"/>
      <use xlink:href="#DejaVuSans-61" x="63.476562"/>
      <use xlink:href="#DejaVuSans-6d" x="124.755859"/>
      <use xlink:href="#DejaVuSans-61" x="222.167969"/>
      <use xlink:href="#DejaVuSans-6e" x="283.447266"/>
      <use xlink:href="#DejaVuSans-74" x="346.826172"/>
      <use xlink:href="#DejaVuSans-68" x="386.035156"/>
      <use xlink:href="#DejaVuSans-61" x="449.414062"/>
     </g>
    </g>
   </g>
   <g id="text_39">
    <g clip-path="url(#pd86dc5076a)">
     <!-- Ugo -->
     <g transform="translate(135.721179 39.793303)scale(0.12 -0.12)">
      <use xlink:href="#DejaVuSans-55"/>
      <use xlink:href="#DejaVuSans-67" x="73.193359"/>
      <use xlink:href="#DejaVuSans-6f" x="136.669922"/>
     </g>
    </g>
    <g clip-path="url(#pd86dc5076a)">
     <!-- Mathieu p -->
     <g transform="translate(117.707116 53.230678)scale(0.12 -0.12)">
      <use xlink:href="#DejaVuSans-4d"/>
      <use xlink:href="#DejaVuSans-61" x="86.279297"/>
      <use xlink:href="#DejaVuSans-74" x="147.558594"/>
      <use xlink:href="#DejaVuSans-68" x="186.767578"/>
      <use xlink:href="#DejaVuSans-69" x="250.146484"/>
      <use xlink:href="#DejaVuSans-65" x="277.929688"/>
      <use xlink:href="#DejaVuSans-75" x="339.453125"/>
      <use xlink:href="#DejaVuSans-20" x="402.832031"/>
      <use xlink:href="#DejaVuSans-70" x="434.619141"/>
     </g>
    </g>
   </g>
   <g id="text_40">
    <g clip-path="url(#pd86dc5076a)">
     <!-- Ugo -->
     <g transform="translate(59.833307 91.853427)scale(0.12 -0.12)">
      <use xlink:href="#DejaVuSans-55"/>
      <use xlink:href="#DejaVuSans-67" x="73.193359"/>
      <use xlink:href="#DejaVuSans-6f" x="136.669922"/>
     </g>
    </g>
    <g clip-path="url(#pd86dc5076a)">
     <!-- Leo -->
     <g transform="translate(61.103619 105.290802)scale(0.12 -0.12)">
      <use xlink:href="#DejaVuSans-4c"/>
      <use xlink:href="#DejaVuSans-65" x="53.962891"/>
      <use xlink:href="#DejaVuSans-6f" x="115.486328"/>
     </g>
    </g>
   </g>
   <g id="text_41">
    <g clip-path="url(#pd86dc5076a)">
     <!-- Nicco -->
     <g transform="translate(171.166623 309.118179)scale(0.12 -0.12)">
      <use xlink:href="#DejaVuSans-4e"/>
      <use xlink:href="#DejaVuSans-69" x="74.804688"/>
      <use xlink:href="#DejaVuSans-63" x="102.587891"/>
      <use xlink:href="#DejaVuSans-63" x="157.568359"/>
      <use xlink:href="#DejaVuSans-6f" x="212.548828"/>
     </g>
    </g>
    <g clip-path="url(#pd86dc5076a)">
     <!-- Mathieu r -->
     <g transform="translate(159.048498 322.555554)scale(0.12 -0.12)">
      <use xlink:href="#DejaVuSans-4d"/>
      <use xlink:href="#DejaVuSans-61" x="86.279297"/>
      <use xlink:href="#DejaVuSans-74" x="147.558594"/>
      <use xlink:href="#DejaVuSans-68" x="186.767578"/>
      <use xlink:href="#DejaVuSans-69" x="250.146484"/>
      <use xlink:href="#DejaVuSans-65" x="277.929688"/>
      <use xlink:href="#DejaVuSans-75" x="339.453125"/>
      <use xlink:href="#DejaVuSans-20" x="402.832031"/>
      <use xlink:href="#DejaVuSans-72" x="434.619141"/>
     </g>
    </g>
   </g>
   <g id="text_42">
    <g clip-path="url(#pd86dc5076a)">
     <!-- Ugo -->
     <g transform="translate(184.962324 26.967439)scale(0.12 -0.12)">
      <use xlink:href="#DejaVuSans-55"/>
      <use xlink:href="#DejaVuSans-67" x="73.193359"/>
      <use xlink:href="#DejaVuSans-6f" x="136.669922"/>
     </g>
    </g>
    <g clip-path="url(#pd86dc5076a)">
     <!-- Mathieu r -->
     <g transform="translate(168.290762 40.404814)scale(0.12 -0.12)">
      <use xlink:href="#DejaVuSans-4d"/>
      <use xlink:href="#DejaVuSans-61" x="86.279297"/>
      <use xlink:href="#DejaVuSans-74" x="147.558594"/>
      <use xlink:href="#DejaVuSans-68" x="186.767578"/>
      <use xlink:href="#DejaVuSans-69" x="250.146484"/>
      <use xlink:href="#DejaVuSans-65" x="277.929688"/>
      <use xlink:href="#DejaVuSans-75" x="339.453125"/>
      <use xlink:href="#DejaVuSans-20" x="402.832031"/>
      <use xlink:href="#DejaVuSans-72" x="434.619141"/>
     </g>
    </g>
   </g>
   <g id="text_43">
    <g clip-path="url(#pd86dc5076a)">
     <!-- Leo -->
     <g transform="translate(38.069951 126.834038)scale(0.12 -0.12)">
      <use xlink:href="#DejaVuSans-4c"/>
      <use xlink:href="#DejaVuSans-65" x="53.962891"/>
      <use xlink:href="#DejaVuSans-6f" x="115.486328"/>
     </g>
    </g>
    <g clip-path="url(#pd86dc5076a)">
     <!-- Mathieu r -->
     <g transform="translate(20.128076 140.271413)scale(0.12 -0.12)">
      <use xlink:href="#DejaVuSans-4d"/>
      <use xlink:href="#DejaVuSans-61" x="86.279297"/>
      <use xlink:href="#DejaVuSans-74" x="147.558594"/>
      <use xlink:href="#DejaVuSans-68" x="186.767578"/>
      <use xlink:href="#DejaVuSans-69" x="250.146484"/>
      <use xlink:href="#DejaVuSans-65" x="277.929688"/>
      <use xlink:href="#DejaVuSans-75" x="339.453125"/>
      <use xlink:href="#DejaVuSans-20" x="402.832031"/>
      <use xlink:href="#DejaVuSans-72" x="434.619141"/>
     </g>
    </g>
   </g>
   <g id="text_44">
    <g clip-path="url(#pd86dc5076a)">
     <!-- Mathieu p -->
     <g transform="translate(67.052431 272.183394)scale(0.12 -0.12)">
      <use xlink:href="#DejaVuSans-4d"/>
      <use xlink:href="#DejaVuSans-61" x="86.279297"/>
      <use xlink:href="#DejaVuSans-74" x="147.558594"/>
      <use xlink:href="#DejaVuSans-68" x="186.767578"/>
      <use xlink:href="#DejaVuSans-69" x="250.146484"/>
      <use xlink:href="#DejaVuSans-65" x="277.929688"/>
      <use xlink:href="#DejaVuSans-75" x="339.453125"/>
      <use xlink:href="#DejaVuSans-20" x="402.832031"/>
      <use xlink:href="#DejaVuSans-70" x="434.619141"/>
     </g>
    </g>
    <g clip-path="url(#pd86dc5076a)">
     <!-- Nicco -->
     <g transform="translate(80.513056 285.620769)scale(0.12 -0.12)">
      <use xlink:href="#DejaVuSans-4e"/>
      <use xlink:href="#DejaVuSans-69" x="74.804688"/>
      <use xlink:href="#DejaVuSans-63" x="102.587891"/>
      <use xlink:href="#DejaVuSans-63" x="157.568359"/>
      <use xlink:href="#DejaVuSans-6f" x="212.548828"/>
     </g>
    </g>
   </g>
  </g>
 </g>
 <defs>
  <clipPath id="pd86dc5076a">
   <rect x="0" y="0" width="460.8" height="345.6"/>
  </clipPath>
 </defs>
</svg>
