<?xml version="1.0" encoding="utf-8" standalone="no"?>
<!DOCTYPE svg PUBLIC "-//W3C//DTD SVG 1.1//EN"
  "http://www.w3.org/Graphics/SVG/1.1/DTD/svg11.dtd">
<svg xmlns:xlink="http://www.w3.org/1999/xlink" width="460.8pt" height="345.6pt" viewBox="0 0 460.8 345.6" xmlns="http://www.w3.org/2000/svg" version="1.1">
 <metadata>
  <rdf:RDF xmlns:dc="http://purl.org/dc/elements/1.1/" xmlns:cc="http://creativecommons.org/ns#" xmlns:rdf="http://www.w3.org/1999/02/22-rdf-syntax-ns#">
   <cc:Work>
    <dc:type rdf:resource="http://purl.org/dc/dcmitype/StillImage"/>
    <dc:date>2025-06-10T15:02:47.547803</dc:date>
    <dc:format>image/svg+xml</dc:format>
    <dc:creator>
     <cc:Agent>
      <dc:title>Matplotlib v3.5.1, https://matplotlib.org/</dc:title>
     </cc:Agent>
    </dc:creator>
   </cc:Work>
  </rdf:RDF>
 </metadata>
 <defs>
  <style type="text/css">*{stroke-linejoin: round; stroke-linecap: butt}</style>
 </defs>
 <g id="figure_1">
  <g id="patch_1">
   <path d="M 0 345.6 
L 460.8 345.6 
L 460.8 0 
L 0 0 
z
" style="fill: #ffffff"/>
  </g>
  <g id="axes_1">
   <g id="patch_2">
    <path d="M 353.753173 235.494962 
Q 348.618107 242.972676 344.11595 249.528746 
" clip-path="url(#pb666f9704b)" style="fill: none; stroke: #000000; stroke-linecap: round"/>
    <path d="M 348.028996 247.363552 
L 344.11595 249.528746 
L 344.731622 245.099192 
L 348.028996 247.363552 
z
" clip-path="url(#pb666f9704b)" style="stroke: #000000; stroke-linecap: round"/>
   </g>
   <g id="patch_3">
    <path d="M 401.500213 110.254119 
Q 411.156718 112.668732 419.728584 114.81213 
" clip-path="url(#pb666f9704b)" style="fill: none; stroke: #000000; stroke-linecap: round"/>
    <path d="M 416.333223 111.901541 
L 419.728584 114.81213 
L 415.362896 115.782065 
L 416.333223 111.901541 
z
" clip-path="url(#pb666f9704b)" style="stroke: #000000; stroke-linecap: round"/>
   </g>
   <g id="patch_4">
    <path d="M 331.919168 238.947238 
Q 342.836171 237.2211 352.648858 235.66957 
" clip-path="url(#pb666f9704b)" style="fill: none; stroke: #000000; stroke-linecap: round"/>
    <path d="M 348.385591 234.318809 
L 352.648858 235.66957 
L 349.010289 238.269727 
L 348.385591 234.318809 
z
" clip-path="url(#pb666f9704b)" style="stroke: #000000; stroke-linecap: round"/>
   </g>
   <g id="patch_5">
    <path d="M 51.489853 209.492006 
Q 45.738315 202.310069 40.685651 196.000815 
" clip-path="url(#pb666f9704b)" style="fill: none; stroke: #000000; stroke-linecap: round"/>
    <path d="M 41.624916 200.373204 
L 40.685651 196.000815 
L 44.747121 197.872836 
L 41.624916 200.373204 
z
" clip-path="url(#pb666f9704b)" style="stroke: #000000; stroke-linecap: round"/>
   </g>
   <g id="patch_6">
    <path d="M 170.715169 298.365056 
Q 167.787613 306.987487 165.219507 314.551241 
" clip-path="url(#pb666f9704b)" style="fill: none; stroke: #000000; stroke-linecap: round"/>
    <path d="M 168.399333 311.40661 
L 165.219507 314.551241 
L 164.611697 310.120601 
L 168.399333 311.40661 
z
" clip-path="url(#pb666f9704b)" style="stroke: #000000; stroke-linecap: round"/>
   </g>
   <g id="patch_7">
    <path d="M 40.368605 79.712587 
Q 41.749459 86.874556 42.91865 92.938711 
" clip-path="url(#pb666f9704b)" style="fill: none; stroke: #000000; stroke-linecap: round"/>
    <path d="M 44.125214 88.632412 
L 42.91865 92.938711 
L 40.19755 89.38968 
L 44.125214 88.632412 
z
" clip-path="url(#pb666f9704b)" style="stroke: #000000; stroke-linecap: round"/>
   </g>
   <g id="patch_8">
    <path d="M 59.335786 225.005375 
Q 55.412819 217.248691 51.994439 210.489699 
" clip-path="url(#pb666f9704b)" style="fill: none; stroke: #000000; stroke-linecap: round"/>
    <path d="M 52.014974 214.961788 
L 51.994439 210.489699 
L 55.584431 213.156525 
L 52.014974 214.961788 
z
" clip-path="url(#pb666f9704b)" style="stroke: #000000; stroke-linecap: round"/>
   </g>
   <g id="patch_9">
    <path d="M 380.823313 236.995256 
Q 381.509007 237.033259 381.07838 237.009393 
" clip-path="url(#pb666f9704b)" style="fill: none; stroke: #000000; stroke-linecap: round"/>
    <path d="M 377.195184 234.791107 
L 381.07838 237.009393 
L 376.973834 238.784978 
L 377.195184 234.791107 
z
" clip-path="url(#pb666f9704b)" style="stroke: #000000; stroke-linecap: round"/>
   </g>
   <g id="patch_10">
    <path d="M 252.963773 29.990083 
Q 251.908349 38.270256 250.994291 45.441369 
" clip-path="url(#pb666f9704b)" style="fill: none; stroke: #000000; stroke-linecap: round"/>
    <path d="M 253.484003 41.726354 
L 250.994291 45.441369 
L 249.516106 41.22059 
L 253.484003 41.726354 
z
" clip-path="url(#pb666f9704b)" style="stroke: #000000; stroke-linecap: round"/>
   </g>
   <g id="patch_11">
    <path d="M 331.919168 238.947238 
Q 337.701105 244.698814 342.690394 249.661905 
" clip-path="url(#pb666f9704b)" style="fill: none; stroke: #000000; stroke-linecap: round"/>
    <path d="M 341.265017 245.423001 
L 342.690394 249.661905 
L 338.444046 248.258864 
L 341.265017 245.423001 
z
" clip-path="url(#pb666f9704b)" style="stroke: #000000; stroke-linecap: round"/>
   </g>
   <g id="text_1">
    <g id="patch_12">
     <path d="M 350.580096 253.963352 
L 359.582693 240.853713 
Q 361.280963 238.380682 358.807932 236.682413 
L 350.829832 231.203725 
Q 348.356801 229.505455 346.658532 231.978486 
L 337.655935 245.088125 
Q 335.957665 247.561155 338.430696 249.259425 
L 346.408796 254.738113 
Q 348.881827 256.436383 350.580096 253.963352 
z
" clip-path="url(#pb666f9704b)" style="fill: #ffffff; stroke: #ffffff; stroke-linejoin: miter"/>
    </g>
    <g clip-path="url(#pb666f9704b)">
     <!-- 0.7 -->
     <g transform="translate(346.392688 251.087792)rotate(-55.521995)scale(0.1 -0.1)">
      <defs>
       <path id="DejaVuSans-30" d="M 2034 4250 
Q 1547 4250 1301 3770 
Q 1056 3291 1056 2328 
Q 1056 1369 1301 889 
Q 1547 409 2034 409 
Q 2525 409 2770 889 
Q 3016 1369 3016 2328 
Q 3016 3291 2770 3770 
Q 2525 4250 2034 4250 
z
M 2034 4750 
Q 2819 4750 3233 4129 
Q 3647 3509 3647 2328 
Q 3647 1150 3233 529 
Q 2819 -91 2034 -91 
Q 1250 -91 836 529 
Q 422 1150 422 2328 
Q 422 3509 836 4129 
Q 1250 4750 2034 4750 
z
" transform="scale(0.015625)"/>
       <path id="DejaVuSans-2e" d="M 684 794 
L 1344 794 
L 1344 0 
L 684 0 
L 684 794 
z
" transform="scale(0.015625)"/>
       <path id="DejaVuSans-37" d="M 525 4666 
L 3525 4666 
L 3525 4397 
L 1831 0 
L 1172 0 
L 2766 4134 
L 525 4134 
L 525 4666 
z
" transform="scale(0.015625)"/>
      </defs>
      <use xlink:href="#DejaVuSans-30"/>
      <use xlink:href="#DejaVuSans-2e" x="63.623047"/>
      <use xlink:href="#DejaVuSans-37" x="95.410156"/>
     </g>
    </g>
   </g>
   <g id="text_2">
    <g id="patch_13">
     <path d="M 398.452391 117.572427 
L 420.052964 122.973658 
Q 422.963357 123.701402 423.691102 120.791009 
L 426.038837 111.40196 
Q 426.766582 108.491567 423.856189 107.763822 
L 402.255616 102.362591 
Q 399.345223 101.634847 398.617478 104.54524 
L 396.269743 113.934289 
Q 395.541998 116.844682 398.452391 117.572427 
z
" clip-path="url(#pb666f9704b)" style="fill: #ffffff; stroke: #ffffff; stroke-linejoin: miter"/>
    </g>
    <g clip-path="url(#pb666f9704b)">
     <!-- 0.62 -->
     <g transform="translate(399.68463 112.644464)rotate(-345.961041)scale(0.1 -0.1)">
      <defs>
       <path id="DejaVuSans-36" d="M 2113 2584 
Q 1688 2584 1439 2293 
Q 1191 2003 1191 1497 
Q 1191 994 1439 701 
Q 1688 409 2113 409 
Q 2538 409 2786 701 
Q 3034 994 3034 1497 
Q 3034 2003 2786 2293 
Q 2538 2584 2113 2584 
z
M 3366 4563 
L 3366 3988 
Q 3128 4100 2886 4159 
Q 2644 4219 2406 4219 
Q 1781 4219 1451 3797 
Q 1122 3375 1075 2522 
Q 1259 2794 1537 2939 
Q 1816 3084 2150 3084 
Q 2853 3084 3261 2657 
Q 3669 2231 3669 1497 
Q 3669 778 3244 343 
Q 2819 -91 2113 -91 
Q 1303 -91 875 529 
Q 447 1150 447 2328 
Q 447 3434 972 4092 
Q 1497 4750 2381 4750 
Q 2619 4750 2861 4703 
Q 3103 4656 3366 4563 
z
" transform="scale(0.015625)"/>
       <path id="DejaVuSans-32" d="M 1228 531 
L 3431 531 
L 3431 0 
L 469 0 
L 469 531 
Q 828 903 1448 1529 
Q 2069 2156 2228 2338 
Q 2531 2678 2651 2914 
Q 2772 3150 2772 3378 
Q 2772 3750 2511 3984 
Q 2250 4219 1831 4219 
Q 1534 4219 1204 4116 
Q 875 4013 500 3803 
L 500 4441 
Q 881 4594 1212 4672 
Q 1544 4750 1819 4750 
Q 2544 4750 2975 4387 
Q 3406 4025 3406 3419 
Q 3406 3131 3298 2873 
Q 3191 2616 2906 2266 
Q 2828 2175 2409 1742 
Q 1991 1309 1228 531 
z
" transform="scale(0.015625)"/>
      </defs>
      <use xlink:href="#DejaVuSans-30"/>
      <use xlink:href="#DejaVuSans-2e" x="63.623047"/>
      <use xlink:href="#DejaVuSans-36" x="95.410156"/>
      <use xlink:href="#DejaVuSans-32" x="159.033203"/>
     </g>
    </g>
   </g>
   <g id="text_3">
    <g id="patch_14">
     <path d="M 333.06225 246.702947 
L 355.054664 243.225624 
Q 358.017852 242.7571 357.549328 239.793912 
L 356.037852 230.234542 
Q 355.569328 227.271354 352.60614 227.739877 
L 330.613726 231.217201 
Q 327.650537 231.685725 328.119061 234.648913 
L 329.630538 244.208282 
Q 330.099061 247.171471 333.06225 246.702947 
z
" clip-path="url(#pb666f9704b)" style="fill: #ffffff; stroke: #ffffff; stroke-linejoin: miter"/>
    </g>
    <g clip-path="url(#pb666f9704b)">
     <!-- 0.67 -->
     <g transform="translate(332.268932 241.68559)rotate(-8.984922)scale(0.1 -0.1)">
      <use xlink:href="#DejaVuSans-30"/>
      <use xlink:href="#DejaVuSans-2e" x="63.623047"/>
      <use xlink:href="#DejaVuSans-36" x="95.410156"/>
      <use xlink:href="#DejaVuSans-37" x="159.033203"/>
     </g>
    </g>
   </g>
   <g id="text_4">
    <g id="patch_15">
     <path d="M 32.662725 198.523258 
L 46.580785 215.902718 
Q 48.456061 218.244372 50.797715 216.369097 
L 58.351987 210.31938 
Q 60.693641 208.444104 58.818365 206.102451 
L 44.900305 188.72299 
Q 43.025029 186.381336 40.683376 188.256612 
L 33.129103 194.306328 
Q 30.78745 196.181604 32.662725 198.523258 
z
" clip-path="url(#pb666f9704b)" style="fill: #ffffff; stroke: #ffffff; stroke-linejoin: miter"/>
    </g>
    <g clip-path="url(#pb666f9704b)">
     <!-- 0.56 -->
     <g transform="translate(36.627682 195.347986)rotate(-308.688928)scale(0.1 -0.1)">
      <defs>
       <path id="DejaVuSans-35" d="M 691 4666 
L 3169 4666 
L 3169 4134 
L 1269 4134 
L 1269 2991 
Q 1406 3038 1543 3061 
Q 1681 3084 1819 3084 
Q 2600 3084 3056 2656 
Q 3513 2228 3513 1497 
Q 3513 744 3044 326 
Q 2575 -91 1722 -91 
Q 1428 -91 1123 -41 
Q 819 9 494 109 
L 494 744 
Q 775 591 1075 516 
Q 1375 441 1709 441 
Q 2250 441 2565 725 
Q 2881 1009 2881 1497 
Q 2881 1984 2565 2268 
Q 2250 2553 1709 2553 
Q 1456 2553 1204 2497 
Q 953 2441 691 2322 
L 691 4666 
z
" transform="scale(0.015625)"/>
      </defs>
      <use xlink:href="#DejaVuSans-30"/>
      <use xlink:href="#DejaVuSans-2e" x="63.623047"/>
      <use xlink:href="#DejaVuSans-35" x="95.410156"/>
      <use xlink:href="#DejaVuSans-36" x="159.033203"/>
     </g>
    </g>
   </g>
   <g id="text_5">
    <g id="patch_16">
     <path d="M 171.632398 320.046193 
L 178.790842 298.962675 
Q 179.755349 296.121949 176.914622 295.157442 
L 167.750319 292.045905 
Q 164.909593 291.081399 163.945087 293.922126 
L 156.786643 315.005644 
Q 155.822136 317.846371 158.662863 318.810877 
L 167.827166 321.922414 
Q 170.667892 322.88692 171.632398 320.046193 
z
" clip-path="url(#pb666f9704b)" style="fill: #ffffff; stroke: #ffffff; stroke-linejoin: miter"/>
    </g>
    <g clip-path="url(#pb666f9704b)">
     <!-- 0.71 -->
     <g transform="translate(166.822397 318.413063)rotate(-71.246213)scale(0.1 -0.1)">
      <defs>
       <path id="DejaVuSans-31" d="M 794 531 
L 1825 531 
L 1825 4091 
L 703 3866 
L 703 4441 
L 1819 4666 
L 2450 4666 
L 2450 531 
L 3481 531 
L 3481 0 
L 794 0 
L 794 531 
z
" transform="scale(0.015625)"/>
      </defs>
      <use xlink:href="#DejaVuSans-30"/>
      <use xlink:href="#DejaVuSans-2e" x="63.623047"/>
      <use xlink:href="#DejaVuSans-37" x="95.410156"/>
      <use xlink:href="#DejaVuSans-31" x="159.033203"/>
     </g>
    </g>
   </g>
   <g id="text_6">
    <g id="patch_17">
     <path d="M 32.764072 81.677808 
L 36.979334 103.540782 
Q 37.547285 106.48653 40.493033 105.918579 
L 49.996139 104.086345 
Q 52.941887 103.518394 52.373936 100.572646 
L 48.158674 78.709673 
Q 47.590723 75.763924 44.644975 76.331875 
L 35.141869 78.164109 
Q 32.196121 78.73206 32.764072 81.677808 
z
" clip-path="url(#pb666f9704b)" style="fill: #ffffff; stroke: #ffffff; stroke-linejoin: miter"/>
    </g>
    <g clip-path="url(#pb666f9704b)">
     <!-- 0.56 -->
     <g transform="translate(37.751899 80.716137)rotate(-280.912928)scale(0.1 -0.1)">
      <use xlink:href="#DejaVuSans-30"/>
      <use xlink:href="#DejaVuSans-2e" x="63.623047"/>
      <use xlink:href="#DejaVuSans-35" x="95.410156"/>
      <use xlink:href="#DejaVuSans-36" x="159.033203"/>
     </g>
    </g>
   </g>
   <g id="text_7">
    <g id="patch_18">
     <path d="M 43.392098 210.850069 
L 53.440928 230.719117 
Q 54.794876 233.39621 57.471969 232.042262 
L 66.108382 227.674371 
Q 68.785474 226.320423 67.431527 223.64333 
L 57.382696 203.774282 
Q 56.028749 201.09719 53.351656 202.451137 
L 44.715243 206.819029 
Q 42.03815 208.172977 43.392098 210.850069 
z
" clip-path="url(#pb666f9704b)" style="fill: #ffffff; stroke: #ffffff; stroke-linejoin: miter"/>
    </g>
    <g clip-path="url(#pb666f9704b)">
     <!-- 0.62 -->
     <g transform="translate(47.92503 208.557526)rotate(-296.828142)scale(0.1 -0.1)">
      <use xlink:href="#DejaVuSans-30"/>
      <use xlink:href="#DejaVuSans-2e" x="63.623047"/>
      <use xlink:href="#DejaVuSans-36" x="95.410156"/>
      <use xlink:href="#DejaVuSans-32" x="159.033203"/>
     </g>
    </g>
   </g>
   <g id="text_8">
    <g id="patch_19">
     <path d="M 359.602479 243.670237 
L 375.481235 244.550278 
Q 378.476639 244.71629 378.642651 241.720887 
L 379.178215 232.057592 
Q 379.344228 229.062189 376.348825 228.896176 
L 360.470068 228.016136 
Q 357.474665 227.850123 357.308652 230.845526 
L 356.773088 240.508822 
Q 356.607076 243.504225 359.602479 243.670237 
z
" clip-path="url(#pb666f9704b)" style="fill: #ffffff; stroke: #ffffff; stroke-linejoin: miter"/>
    </g>
    <g clip-path="url(#pb666f9704b)">
     <!-- 0.8 -->
     <g transform="translate(359.883576 238.598333)rotate(-356.82777)scale(0.1 -0.1)">
      <defs>
       <path id="DejaVuSans-38" d="M 2034 2216 
Q 1584 2216 1326 1975 
Q 1069 1734 1069 1313 
Q 1069 891 1326 650 
Q 1584 409 2034 409 
Q 2484 409 2743 651 
Q 3003 894 3003 1313 
Q 3003 1734 2745 1975 
Q 2488 2216 2034 2216 
z
M 1403 2484 
Q 997 2584 770 2862 
Q 544 3141 544 3541 
Q 544 4100 942 4425 
Q 1341 4750 2034 4750 
Q 2731 4750 3128 4425 
Q 3525 4100 3525 3541 
Q 3525 3141 3298 2862 
Q 3072 2584 2669 2484 
Q 3125 2378 3379 2068 
Q 3634 1759 3634 1313 
Q 3634 634 3220 271 
Q 2806 -91 2034 -91 
Q 1263 -91 848 271 
Q 434 634 434 1313 
Q 434 1759 690 2068 
Q 947 2378 1403 2484 
z
M 1172 3481 
Q 1172 3119 1398 2916 
Q 1625 2713 2034 2713 
Q 2441 2713 2670 2916 
Q 2900 3119 2900 3481 
Q 2900 3844 2670 4047 
Q 2441 4250 2034 4250 
Q 1625 4250 1398 4047 
Q 1172 3844 1172 3481 
z
" transform="scale(0.015625)"/>
      </defs>
      <use xlink:href="#DejaVuSans-30"/>
      <use xlink:href="#DejaVuSans-2e" x="63.623047"/>
      <use xlink:href="#DejaVuSans-38" x="95.410156"/>
     </g>
    </g>
   </g>
   <g id="text_9">
    <g id="patch_20">
     <path d="M 258.131541 51.444923 
L 260.142347 35.669435 
Q 260.52167 32.693512 257.545747 32.314189 
L 247.945298 31.090478 
Q 244.969375 30.711155 244.590052 33.687078 
L 242.579246 49.462566 
Q 242.199923 52.438489 245.175846 52.817811 
L 254.776295 54.041523 
Q 257.752218 54.420846 258.131541 51.444923 
z
" clip-path="url(#pb666f9704b)" style="fill: #ffffff; stroke: #ffffff; stroke-linejoin: miter"/>
    </g>
    <g clip-path="url(#pb666f9704b)">
     <!-- 0.6 -->
     <g transform="translate(253.092622 50.802643)rotate(-82.736024)scale(0.1 -0.1)">
      <use xlink:href="#DejaVuSans-30"/>
      <use xlink:href="#DejaVuSans-2e" x="63.623047"/>
      <use xlink:href="#DejaVuSans-36" x="95.410156"/>
     </g>
    </g>
   </g>
   <g id="text_10">
    <g id="patch_21">
     <path d="M 329.605519 247.702778 
L 340.880289 258.918345 
Q 343.007187 261.034074 345.122915 258.907176 
L 351.948345 252.045718 
Q 354.064074 249.91882 351.937176 247.803092 
L 340.662406 236.587525 
Q 338.535509 234.471796 336.41978 236.598693 
L 329.594351 243.460152 
Q 327.478622 245.587049 329.605519 247.702778 
z
" clip-path="url(#pb666f9704b)" style="fill: #ffffff; stroke: #ffffff; stroke-linejoin: miter"/>
    </g>
    <g clip-path="url(#pb666f9704b)">
     <!-- 0.6 -->
     <g transform="translate(333.187933 244.101454)rotate(-315.150826)scale(0.1 -0.1)">
      <use xlink:href="#DejaVuSans-30"/>
      <use xlink:href="#DejaVuSans-2e" x="63.623047"/>
      <use xlink:href="#DejaVuSans-36" x="95.410156"/>
     </g>
    </g>
   </g>
   <g id="PathCollection_1">
    <path d="M 353.753173 262.605845 
C 360.943063 262.605845 367.839442 259.749271 372.923462 254.665251 
C 378.007482 249.581231 380.864056 242.684852 380.864056 235.494962 
C 380.864056 228.305071 378.007482 221.408692 372.923462 216.324672 
C 367.839442 211.240652 360.943063 208.384078 353.753173 208.384078 
C 346.563282 208.384078 339.666903 211.240652 334.582883 216.324672 
C 329.498863 221.408692 326.642289 228.305071 326.642289 235.494962 
C 326.642289 242.684852 329.498863 249.581231 334.582883 254.665251 
C 339.666903 259.749271 346.563282 262.605845 353.753173 262.605845 
z
" clip-path="url(#pb666f9704b)" style="fill: #808080; stroke: #808080"/>
    <path d="M 343.483042 277.561274 
C 350.672933 277.561274 357.569312 274.7047 362.653332 269.62068 
C 367.737352 264.53666 370.593926 257.640281 370.593926 250.45039 
C 370.593926 243.2605 367.737352 236.364121 362.653332 231.280101 
C 357.569312 226.196081 350.672933 223.339507 343.483042 223.339507 
C 336.293152 223.339507 329.396773 226.196081 324.312753 231.280101 
C 319.228732 236.364121 316.372159 243.2605 316.372159 250.45039 
C 316.372159 257.640281 319.228732 264.53666 324.312753 269.62068 
C 329.396773 274.7047 336.293152 277.561274 343.483042 277.561274 
z
" clip-path="url(#pb666f9704b)" style="fill: #808080; stroke: #808080"/>
    <path d="M 250.852925 73.661313 
C 258.042816 73.661313 264.939195 70.804739 270.023215 65.720719 
C 275.107235 60.636699 277.963809 53.74032 277.963809 46.55043 
C 277.963809 39.360539 275.107235 32.46416 270.023215 27.38014 
C 264.939195 22.29612 258.042816 19.439546 250.852925 19.439546 
C 243.663035 19.439546 236.766656 22.29612 231.682636 27.38014 
C 226.598616 32.46416 223.742042 39.360539 223.742042 46.55043 
C 223.742042 53.74032 226.598616 60.636699 231.682636 65.720719 
C 236.766656 70.804739 243.663035 73.661313 250.852925 73.661313 
z
" clip-path="url(#pb666f9704b)" style="fill: #808080; stroke: #808080"/>
    <path d="M 252.963773 57.100966 
C 260.153663 57.100966 267.050042 54.244392 272.134062 49.160372 
C 277.218082 44.076352 280.074656 37.179973 280.074656 29.990083 
C 280.074656 22.800192 277.218082 15.903813 272.134062 10.819793 
C 267.050042 5.735773 260.153663 2.879199 252.963773 2.879199 
C 245.773882 2.879199 238.877503 5.735773 233.793483 10.819793 
C 228.709463 15.903813 225.852889 22.800192 225.852889 29.990083 
C 225.852889 37.179973 228.709463 44.076352 233.793483 49.160372 
C 238.877503 54.244392 245.773882 57.100966 252.963773 57.100966 
z
" clip-path="url(#pb666f9704b)" style="fill: #808080; stroke: #808080"/>
    <path d="M 331.919168 266.058122 
C 339.109059 266.058122 346.005438 263.201548 351.089458 258.117528 
C 356.173478 253.033508 359.030052 246.137129 359.030052 238.947238 
C 359.030052 231.757348 356.173478 224.860969 351.089458 219.776949 
C 346.005438 214.692929 339.109059 211.836355 331.919168 211.836355 
C 324.729278 211.836355 317.832899 214.692929 312.748879 219.776949 
C 307.664859 224.860969 304.808285 231.757348 304.808285 238.947238 
C 304.808285 246.137129 307.664859 253.033508 312.748879 258.117528 
C 317.832899 263.201548 324.729278 266.058122 331.919168 266.058122 
z
" clip-path="url(#pb666f9704b)" style="fill: #808080; stroke: #808080"/>
    <path d="M 382.1947 264.182145 
C 389.384591 264.182145 396.28097 261.325572 401.36499 256.241551 
C 406.44901 251.157531 409.305584 244.261152 409.305584 237.071262 
C 409.305584 229.881372 406.44901 222.984993 401.36499 217.900972 
C 396.28097 212.816952 389.384591 209.960379 382.1947 209.960379 
C 375.00481 209.960379 368.108431 212.816952 363.024411 217.900972 
C 357.940391 222.984993 355.083817 229.881372 355.083817 237.071262 
C 355.083817 244.261152 357.940391 251.157531 363.024411 256.241551 
C 368.108431 261.325572 375.00481 264.182145 382.1947 264.182145 
z
" clip-path="url(#pb666f9704b)" style="fill: #808080; stroke: #808080"/>
    <path d="M 40.368605 130.06137 
C 53.721258 130.06137 66.528819 124.756305 75.970571 115.314553 
C 85.412323 105.872801 90.717388 93.06524 90.717388 79.712587 
C 90.717388 66.359933 85.412323 53.552372 75.970571 44.110621 
C 66.528819 34.668869 53.721258 29.363803 40.368605 29.363803 
C 27.015952 29.363803 14.208391 34.668869 4.766639 44.110621 
C -4.675113 53.552372 -9.980179 66.359933 -9.980179 79.712587 
C -9.980179 93.06524 -4.675113 105.872801 4.766639 115.314553 
C 14.208391 124.756305 27.015952 130.06137 40.368605 130.06137 
z
" clip-path="url(#pb666f9704b)" style="fill: #808080; stroke: #808080"/>
    <path d="M 43.130313 163.750226 
C 61.618602 163.750226 79.352148 156.404751 92.425343 143.331556 
C 105.498538 130.258361 112.844013 112.524815 112.844013 94.036526 
C 112.844013 75.548237 105.498538 57.814691 92.425343 44.741496 
C 79.352148 31.668301 61.618602 24.322826 43.130313 24.322826 
C 24.642024 24.322826 6.908478 31.668301 -6.164717 44.741496 
C -19.237912 57.814691 -26.583387 75.548237 -26.583387 94.036526 
C -26.583387 112.524815 -19.237912 130.258361 -6.164717 143.331556 
C 6.908478 156.404751 24.642024 163.750226 43.130313 163.750226 
z
" clip-path="url(#pb666f9704b)" style="fill: #808080; stroke: #808080"/>
    <path d="M 51.489853 271.459739 
C 67.923888 271.459739 83.68704 264.930428 95.307657 253.30981 
C 106.928275 241.689193 113.457586 225.926041 113.457586 209.492006 
C 113.457586 193.057971 106.928275 177.294819 95.307657 165.674201 
C 83.68704 154.053583 67.923888 147.524272 51.489853 147.524272 
C 35.055818 147.524272 19.292666 154.053583 7.672048 165.674201 
C -3.94857 177.294819 -10.477881 193.057971 -10.477881 209.492006 
C -10.477881 225.926041 -3.94857 241.689193 7.672048 253.30981 
C 19.292666 264.930428 35.055818 271.459739 51.489853 271.459739 
z
" clip-path="url(#pb666f9704b)" style="fill: #808080; stroke: #808080"/>
    <path d="M 59.335786 275.354159 
C 72.688439 275.354159 85.496 270.049093 94.937752 260.607342 
C 104.379504 251.16559 109.684569 238.358029 109.684569 225.005375 
C 109.684569 211.652722 104.379504 198.845161 94.937752 189.403409 
C 85.496 179.961657 72.688439 174.656592 59.335786 174.656592 
C 45.983132 174.656592 33.175571 179.961657 23.73382 189.403409 
C 14.292068 198.845161 8.987002 211.652722 8.987002 225.005375 
C 8.987002 238.358029 14.292068 251.16559 23.73382 260.607342 
C 33.175571 270.049093 45.983132 275.354159 59.335786 275.354159 
z
" clip-path="url(#pb666f9704b)" style="fill: #808080; stroke: #808080"/>
    <path d="M 39.986777 257.095866 
C 56.420812 257.095866 72.183964 250.566554 83.804581 238.945937 
C 95.425199 227.325319 101.95451 211.562167 101.95451 195.128132 
C 101.95451 178.694097 95.425199 162.930945 83.804581 151.310328 
C 72.183964 139.68971 56.420812 133.160399 39.986777 133.160399 
C 23.552742 133.160399 7.78959 139.68971 -3.831028 151.310328 
C -15.451645 162.930945 -21.980957 178.694097 -21.980957 195.128132 
C -21.980957 211.562167 -15.451645 227.325319 -3.831028 238.945937 
C 7.78959 250.566554 23.552742 257.095866 39.986777 257.095866 
z
" clip-path="url(#pb666f9704b)" style="fill: #808080; stroke: #808080"/>
    <path d="M 170.715169 348.71384 
C 184.067823 348.71384 196.875384 343.408774 206.317135 333.967022 
C 215.758887 324.525271 221.063953 311.71771 221.063953 298.365056 
C 221.063953 285.012403 215.758887 272.204842 206.317135 262.76309 
C 196.875384 253.321338 184.067823 248.016273 170.715169 248.016273 
C 157.362516 248.016273 144.554955 253.321338 135.113203 262.76309 
C 125.671451 272.204842 120.366386 285.012403 120.366386 298.365056 
C 120.366386 311.71771 125.671451 324.525271 135.113203 333.967022 
C 144.554955 343.408774 157.362516 348.71384 170.715169 348.71384 
z
" clip-path="url(#pb666f9704b)" style="fill: #808080; stroke: #808080"/>
    <path d="M 164.860056 389.196601 
C 184.375473 389.196601 203.094216 381.443044 216.893699 367.64356 
C 230.693183 353.844077 238.44674 335.125334 238.44674 315.609917 
C 238.44674 296.094501 230.693183 277.375758 216.893699 263.576274 
C 203.094216 249.776791 184.375473 242.023234 164.860056 242.023234 
C 145.34464 242.023234 126.625897 249.776791 112.826414 263.576274 
C 99.02693 277.375758 91.273373 296.094501 91.273373 315.609917 
C 91.273373 335.125334 99.02693 353.844077 112.826414 367.64356 
C 126.625897 381.443044 145.34464 389.196601 164.860056 389.196601 
z
" clip-path="url(#pb666f9704b)" style="fill: #808080; stroke: #808080"/>
    <path d="M 401.500213 164.475886 
C 415.879994 164.475886 429.672752 158.762739 439.840792 148.594698 
C 450.008833 138.426658 455.72198 124.6339 455.72198 110.254119 
C 455.72198 95.874339 450.008833 82.081581 439.840792 71.91354 
C 429.672752 61.7455 415.879994 56.032352 401.500213 56.032352 
C 387.120433 56.032352 373.327675 61.7455 363.159634 71.91354 
C 352.991594 82.081581 347.278447 95.874339 347.278447 110.254119 
C 347.278447 124.6339 352.991594 138.426658 363.159634 148.594698 
C 373.327675 158.762739 387.120433 164.475886 401.500213 164.475886 
z
" clip-path="url(#pb666f9704b)" style="fill: #808080; stroke: #808080"/>
    <path d="M 420.813223 184.797044 
C 439.301513 184.797044 457.035058 177.451569 470.108253 164.378374 
C 483.181448 151.30518 490.526923 133.571634 490.526923 115.083344 
C 490.526923 96.595055 483.181448 78.861509 470.108253 65.788314 
C 457.035058 52.715119 439.301513 45.369644 420.813223 45.369644 
C 402.324934 45.369644 384.591388 52.715119 371.518193 65.788314 
C 358.444998 78.861509 351.099523 96.595055 351.099523 115.083344 
C 351.099523 133.571634 358.444998 151.30518 371.518193 164.378374 
C 384.591388 177.451569 402.324934 184.797044 420.813223 184.797044 
z
" clip-path="url(#pb666f9704b)" style="fill: #808080; stroke: #808080"/>
   </g>
   <g id="text_11">
    <g clip-path="url(#pb666f9704b)">
     <!-- A and B -->
     <g transform="translate(330.430048 238.806212)scale(0.12 -0.12)">
      <defs>
       <path id="DejaVuSans-41" d="M 2188 4044 
L 1331 1722 
L 3047 1722 
L 2188 4044 
z
M 1831 4666 
L 2547 4666 
L 4325 0 
L 3669 0 
L 3244 1197 
L 1141 1197 
L 716 0 
L 50 0 
L 1831 4666 
z
" transform="scale(0.015625)"/>
       <path id="DejaVuSans-20" transform="scale(0.015625)"/>
       <path id="DejaVuSans-61" d="M 2194 1759 
Q 1497 1759 1228 1600 
Q 959 1441 959 1056 
Q 959 750 1161 570 
Q 1363 391 1709 391 
Q 2188 391 2477 730 
Q 2766 1069 2766 1631 
L 2766 1759 
L 2194 1759 
z
M 3341 1997 
L 3341 0 
L 2766 0 
L 2766 531 
Q 2569 213 2275 61 
Q 1981 -91 1556 -91 
Q 1019 -91 701 211 
Q 384 513 384 1019 
Q 384 1609 779 1909 
Q 1175 2209 1959 2209 
L 2766 2209 
L 2766 2266 
Q 2766 2663 2505 2880 
Q 2244 3097 1772 3097 
Q 1472 3097 1187 3025 
Q 903 2953 641 2809 
L 641 3341 
Q 956 3463 1253 3523 
Q 1550 3584 1831 3584 
Q 2591 3584 2966 3190 
Q 3341 2797 3341 1997 
z
" transform="scale(0.015625)"/>
       <path id="DejaVuSans-6e" d="M 3513 2113 
L 3513 0 
L 2938 0 
L 2938 2094 
Q 2938 2591 2744 2837 
Q 2550 3084 2163 3084 
Q 1697 3084 1428 2787 
Q 1159 2491 1159 1978 
L 1159 0 
L 581 0 
L 581 3500 
L 1159 3500 
L 1159 2956 
Q 1366 3272 1645 3428 
Q 1925 3584 2291 3584 
Q 2894 3584 3203 3211 
Q 3513 2838 3513 2113 
z
" transform="scale(0.015625)"/>
       <path id="DejaVuSans-64" d="M 2906 2969 
L 2906 4863 
L 3481 4863 
L 3481 0 
L 2906 0 
L 2906 525 
Q 2725 213 2448 61 
Q 2172 -91 1784 -91 
Q 1150 -91 751 415 
Q 353 922 353 1747 
Q 353 2572 751 3078 
Q 1150 3584 1784 3584 
Q 2172 3584 2448 3432 
Q 2725 3281 2906 2969 
z
M 947 1747 
Q 947 1113 1208 752 
Q 1469 391 1925 391 
Q 2381 391 2643 752 
Q 2906 1113 2906 1747 
Q 2906 2381 2643 2742 
Q 2381 3103 1925 3103 
Q 1469 3103 1208 2742 
Q 947 2381 947 1747 
z
" transform="scale(0.015625)"/>
       <path id="DejaVuSans-42" d="M 1259 2228 
L 1259 519 
L 2272 519 
Q 2781 519 3026 730 
Q 3272 941 3272 1375 
Q 3272 1813 3026 2020 
Q 2781 2228 2272 2228 
L 1259 2228 
z
M 1259 4147 
L 1259 2741 
L 2194 2741 
Q 2656 2741 2882 2914 
Q 3109 3088 3109 3444 
Q 3109 3797 2882 3972 
Q 2656 4147 2194 4147 
L 1259 4147 
z
M 628 4666 
L 2241 4666 
Q 2963 4666 3353 4366 
Q 3744 4066 3744 3513 
Q 3744 3084 3544 2831 
Q 3344 2578 2956 2516 
Q 3422 2416 3680 2098 
Q 3938 1781 3938 1306 
Q 3938 681 3513 340 
Q 3088 0 2303 0 
L 628 0 
L 628 4666 
z
" transform="scale(0.015625)"/>
      </defs>
      <use xlink:href="#DejaVuSans-41"/>
      <use xlink:href="#DejaVuSans-20" x="68.408203"/>
      <use xlink:href="#DejaVuSans-61" x="100.195312"/>
      <use xlink:href="#DejaVuSans-6e" x="161.474609"/>
      <use xlink:href="#DejaVuSans-64" x="224.853516"/>
      <use xlink:href="#DejaVuSans-20" x="288.330078"/>
      <use xlink:href="#DejaVuSans-42" x="320.117188"/>
     </g>
    </g>
   </g>
   <g id="text_12">
    <g clip-path="url(#pb666f9704b)">
     <!-- C and D -->
     <g transform="translate(319.571167 253.76164)scale(0.12 -0.12)">
      <defs>
       <path id="DejaVuSans-43" d="M 4122 4306 
L 4122 3641 
Q 3803 3938 3442 4084 
Q 3081 4231 2675 4231 
Q 1875 4231 1450 3742 
Q 1025 3253 1025 2328 
Q 1025 1406 1450 917 
Q 1875 428 2675 428 
Q 3081 428 3442 575 
Q 3803 722 4122 1019 
L 4122 359 
Q 3791 134 3420 21 
Q 3050 -91 2638 -91 
Q 1578 -91 968 557 
Q 359 1206 359 2328 
Q 359 3453 968 4101 
Q 1578 4750 2638 4750 
Q 3056 4750 3426 4639 
Q 3797 4528 4122 4306 
z
" transform="scale(0.015625)"/>
       <path id="DejaVuSans-44" d="M 1259 4147 
L 1259 519 
L 2022 519 
Q 2988 519 3436 956 
Q 3884 1394 3884 2338 
Q 3884 3275 3436 3711 
Q 2988 4147 2022 4147 
L 1259 4147 
z
M 628 4666 
L 1925 4666 
Q 3281 4666 3915 4102 
Q 4550 3538 4550 2338 
Q 4550 1131 3912 565 
Q 3275 0 1925 0 
L 628 0 
L 628 4666 
z
" transform="scale(0.015625)"/>
      </defs>
      <use xlink:href="#DejaVuSans-43"/>
      <use xlink:href="#DejaVuSans-20" x="69.824219"/>
      <use xlink:href="#DejaVuSans-61" x="101.611328"/>
      <use xlink:href="#DejaVuSans-6e" x="162.890625"/>
      <use xlink:href="#DejaVuSans-64" x="226.269531"/>
      <use xlink:href="#DejaVuSans-20" x="289.746094"/>
      <use xlink:href="#DejaVuSans-44" x="321.533203"/>
     </g>
    </g>
   </g>
   <g id="text_13">
    <g clip-path="url(#pb666f9704b)">
     <!-- B and C -->
     <g transform="translate(227.444488 49.86168)scale(0.12 -0.12)">
      <use xlink:href="#DejaVuSans-42"/>
      <use xlink:href="#DejaVuSans-20" x="68.603516"/>
      <use xlink:href="#DejaVuSans-61" x="100.390625"/>
      <use xlink:href="#DejaVuSans-6e" x="161.669922"/>
      <use xlink:href="#DejaVuSans-64" x="225.048828"/>
      <use xlink:href="#DejaVuSans-20" x="288.525391"/>
      <use xlink:href="#DejaVuSans-43" x="320.3125"/>
     </g>
    </g>
   </g>
   <g id="text_14">
    <g clip-path="url(#pb666f9704b)">
     <!-- D and A -->
     <g transform="translate(229.13721 33.301333)scale(0.12 -0.12)">
      <use xlink:href="#DejaVuSans-44"/>
      <use xlink:href="#DejaVuSans-20" x="77.001953"/>
      <use xlink:href="#DejaVuSans-61" x="108.789062"/>
      <use xlink:href="#DejaVuSans-6e" x="170.068359"/>
      <use xlink:href="#DejaVuSans-64" x="233.447266"/>
      <use xlink:href="#DejaVuSans-20" x="296.923828"/>
      <use xlink:href="#DejaVuSans-41" x="328.710938"/>
     </g>
    </g>
   </g>
   <g id="text_15">
    <g clip-path="url(#pb666f9704b)">
     <!-- E and F -->
     <g transform="translate(309.574793 242.258488)scale(0.12 -0.12)">
      <defs>
       <path id="DejaVuSans-45" d="M 628 4666 
L 3578 4666 
L 3578 4134 
L 1259 4134 
L 1259 2753 
L 3481 2753 
L 3481 2222 
L 1259 2222 
L 1259 531 
L 3634 531 
L 3634 0 
L 628 0 
L 628 4666 
z
" transform="scale(0.015625)"/>
       <path id="DejaVuSans-46" d="M 628 4666 
L 3309 4666 
L 3309 4134 
L 1259 4134 
L 1259 2759 
L 3109 2759 
L 3109 2228 
L 1259 2228 
L 1259 0 
L 628 0 
L 628 4666 
z
" transform="scale(0.015625)"/>
      </defs>
      <use xlink:href="#DejaVuSans-45"/>
      <use xlink:href="#DejaVuSans-20" x="63.183594"/>
      <use xlink:href="#DejaVuSans-61" x="94.970703"/>
      <use xlink:href="#DejaVuSans-6e" x="156.25"/>
      <use xlink:href="#DejaVuSans-64" x="219.628906"/>
      <use xlink:href="#DejaVuSans-20" x="283.105469"/>
      <use xlink:href="#DejaVuSans-46" x="314.892578"/>
     </g>
    </g>
   </g>
   <g id="text_16">
    <g clip-path="url(#pb666f9704b)">
     <!-- E and G -->
     <g transform="translate(358.6522 240.382512)scale(0.12 -0.12)">
      <defs>
       <path id="DejaVuSans-47" d="M 3809 666 
L 3809 1919 
L 2778 1919 
L 2778 2438 
L 4434 2438 
L 4434 434 
Q 4069 175 3628 42 
Q 3188 -91 2688 -91 
Q 1594 -91 976 548 
Q 359 1188 359 2328 
Q 359 3472 976 4111 
Q 1594 4750 2688 4750 
Q 3144 4750 3555 4637 
Q 3966 4525 4313 4306 
L 4313 3634 
Q 3963 3931 3569 4081 
Q 3175 4231 2741 4231 
Q 1884 4231 1454 3753 
Q 1025 3275 1025 2328 
Q 1025 1384 1454 906 
Q 1884 428 2741 428 
Q 3075 428 3337 486 
Q 3600 544 3809 666 
z
" transform="scale(0.015625)"/>
      </defs>
      <use xlink:href="#DejaVuSans-45"/>
      <use xlink:href="#DejaVuSans-20" x="63.183594"/>
      <use xlink:href="#DejaVuSans-61" x="94.970703"/>
      <use xlink:href="#DejaVuSans-6e" x="156.25"/>
      <use xlink:href="#DejaVuSans-64" x="219.628906"/>
      <use xlink:href="#DejaVuSans-20" x="283.105469"/>
      <use xlink:href="#DejaVuSans-47" x="314.892578"/>
     </g>
    </g>
   </g>
   <g id="text_17">
    <g clip-path="url(#pb666f9704b)">
     <!-- Pablo and Ugo -->
     <g transform="translate(-2.77702 83.023837)scale(0.12 -0.12)">
      <defs>
       <path id="DejaVuSans-50" d="M 1259 4147 
L 1259 2394 
L 2053 2394 
Q 2494 2394 2734 2622 
Q 2975 2850 2975 3272 
Q 2975 3691 2734 3919 
Q 2494 4147 2053 4147 
L 1259 4147 
z
M 628 4666 
L 2053 4666 
Q 2838 4666 3239 4311 
Q 3641 3956 3641 3272 
Q 3641 2581 3239 2228 
Q 2838 1875 2053 1875 
L 1259 1875 
L 1259 0 
L 628 0 
L 628 4666 
z
" transform="scale(0.015625)"/>
       <path id="DejaVuSans-62" d="M 3116 1747 
Q 3116 2381 2855 2742 
Q 2594 3103 2138 3103 
Q 1681 3103 1420 2742 
Q 1159 2381 1159 1747 
Q 1159 1113 1420 752 
Q 1681 391 2138 391 
Q 2594 391 2855 752 
Q 3116 1113 3116 1747 
z
M 1159 2969 
Q 1341 3281 1617 3432 
Q 1894 3584 2278 3584 
Q 2916 3584 3314 3078 
Q 3713 2572 3713 1747 
Q 3713 922 3314 415 
Q 2916 -91 2278 -91 
Q 1894 -91 1617 61 
Q 1341 213 1159 525 
L 1159 0 
L 581 0 
L 581 4863 
L 1159 4863 
L 1159 2969 
z
" transform="scale(0.015625)"/>
       <path id="DejaVuSans-6c" d="M 603 4863 
L 1178 4863 
L 1178 0 
L 603 0 
L 603 4863 
z
" transform="scale(0.015625)"/>
       <path id="DejaVuSans-6f" d="M 1959 3097 
Q 1497 3097 1228 2736 
Q 959 2375 959 1747 
Q 959 1119 1226 758 
Q 1494 397 1959 397 
Q 2419 397 2687 759 
Q 2956 1122 2956 1747 
Q 2956 2369 2687 2733 
Q 2419 3097 1959 3097 
z
M 1959 3584 
Q 2709 3584 3137 3096 
Q 3566 2609 3566 1747 
Q 3566 888 3137 398 
Q 2709 -91 1959 -91 
Q 1206 -91 779 398 
Q 353 888 353 1747 
Q 353 2609 779 3096 
Q 1206 3584 1959 3584 
z
" transform="scale(0.015625)"/>
       <path id="DejaVuSans-55" d="M 556 4666 
L 1191 4666 
L 1191 1831 
Q 1191 1081 1462 751 
Q 1734 422 2344 422 
Q 2950 422 3222 751 
Q 3494 1081 3494 1831 
L 3494 4666 
L 4128 4666 
L 4128 1753 
Q 4128 841 3676 375 
Q 3225 -91 2344 -91 
Q 1459 -91 1007 375 
Q 556 841 556 1753 
L 556 4666 
z
" transform="scale(0.015625)"/>
       <path id="DejaVuSans-67" d="M 2906 1791 
Q 2906 2416 2648 2759 
Q 2391 3103 1925 3103 
Q 1463 3103 1205 2759 
Q 947 2416 947 1791 
Q 947 1169 1205 825 
Q 1463 481 1925 481 
Q 2391 481 2648 825 
Q 2906 1169 2906 1791 
z
M 3481 434 
Q 3481 -459 3084 -895 
Q 2688 -1331 1869 -1331 
Q 1566 -1331 1297 -1286 
Q 1028 -1241 775 -1147 
L 775 -588 
Q 1028 -725 1275 -790 
Q 1522 -856 1778 -856 
Q 2344 -856 2625 -561 
Q 2906 -266 2906 331 
L 2906 616 
Q 2728 306 2450 153 
Q 2172 0 1784 0 
Q 1141 0 747 490 
Q 353 981 353 1791 
Q 353 2603 747 3093 
Q 1141 3584 1784 3584 
Q 2172 3584 2450 3431 
Q 2728 3278 2906 2969 
L 2906 3500 
L 3481 3500 
L 3481 434 
z
" transform="scale(0.015625)"/>
      </defs>
      <use xlink:href="#DejaVuSans-50"/>
      <use xlink:href="#DejaVuSans-61" x="55.802734"/>
      <use xlink:href="#DejaVuSans-62" x="117.082031"/>
      <use xlink:href="#DejaVuSans-6c" x="180.558594"/>
      <use xlink:href="#DejaVuSans-6f" x="208.341797"/>
      <use xlink:href="#DejaVuSans-20" x="269.523438"/>
      <use xlink:href="#DejaVuSans-61" x="301.310547"/>
      <use xlink:href="#DejaVuSans-6e" x="362.589844"/>
      <use xlink:href="#DejaVuSans-64" x="425.96875"/>
      <use xlink:href="#DejaVuSans-20" x="489.445312"/>
      <use xlink:href="#DejaVuSans-55" x="521.232422"/>
      <use xlink:href="#DejaVuSans-67" x="594.425781"/>
      <use xlink:href="#DejaVuSans-6f" x="657.902344"/>
     </g>
    </g>
   </g>
   <g id="text_18">
    <g clip-path="url(#pb666f9704b)">
     <!-- Nicco and Shintaro -->
     <g transform="translate(-13.509687 97.347776)scale(0.12 -0.12)">
      <defs>
       <path id="DejaVuSans-4e" d="M 628 4666 
L 1478 4666 
L 3547 763 
L 3547 4666 
L 4159 4666 
L 4159 0 
L 3309 0 
L 1241 3903 
L 1241 0 
L 628 0 
L 628 4666 
z
" transform="scale(0.015625)"/>
       <path id="DejaVuSans-69" d="M 603 3500 
L 1178 3500 
L 1178 0 
L 603 0 
L 603 3500 
z
M 603 4863 
L 1178 4863 
L 1178 4134 
L 603 4134 
L 603 4863 
z
" transform="scale(0.015625)"/>
       <path id="DejaVuSans-63" d="M 3122 3366 
L 3122 2828 
Q 2878 2963 2633 3030 
Q 2388 3097 2138 3097 
Q 1578 3097 1268 2742 
Q 959 2388 959 1747 
Q 959 1106 1268 751 
Q 1578 397 2138 397 
Q 2388 397 2633 464 
Q 2878 531 3122 666 
L 3122 134 
Q 2881 22 2623 -34 
Q 2366 -91 2075 -91 
Q 1284 -91 818 406 
Q 353 903 353 1747 
Q 353 2603 823 3093 
Q 1294 3584 2113 3584 
Q 2378 3584 2631 3529 
Q 2884 3475 3122 3366 
z
" transform="scale(0.015625)"/>
       <path id="DejaVuSans-53" d="M 3425 4513 
L 3425 3897 
Q 3066 4069 2747 4153 
Q 2428 4238 2131 4238 
Q 1616 4238 1336 4038 
Q 1056 3838 1056 3469 
Q 1056 3159 1242 3001 
Q 1428 2844 1947 2747 
L 2328 2669 
Q 3034 2534 3370 2195 
Q 3706 1856 3706 1288 
Q 3706 609 3251 259 
Q 2797 -91 1919 -91 
Q 1588 -91 1214 -16 
Q 841 59 441 206 
L 441 856 
Q 825 641 1194 531 
Q 1563 422 1919 422 
Q 2459 422 2753 634 
Q 3047 847 3047 1241 
Q 3047 1584 2836 1778 
Q 2625 1972 2144 2069 
L 1759 2144 
Q 1053 2284 737 2584 
Q 422 2884 422 3419 
Q 422 4038 858 4394 
Q 1294 4750 2059 4750 
Q 2388 4750 2728 4690 
Q 3069 4631 3425 4513 
z
" transform="scale(0.015625)"/>
       <path id="DejaVuSans-68" d="M 3513 2113 
L 3513 0 
L 2938 0 
L 2938 2094 
Q 2938 2591 2744 2837 
Q 2550 3084 2163 3084 
Q 1697 3084 1428 2787 
Q 1159 2491 1159 1978 
L 1159 0 
L 581 0 
L 581 4863 
L 1159 4863 
L 1159 2956 
Q 1366 3272 1645 3428 
Q 1925 3584 2291 3584 
Q 2894 3584 3203 3211 
Q 3513 2838 3513 2113 
z
" transform="scale(0.015625)"/>
       <path id="DejaVuSans-74" d="M 1172 4494 
L 1172 3500 
L 2356 3500 
L 2356 3053 
L 1172 3053 
L 1172 1153 
Q 1172 725 1289 603 
Q 1406 481 1766 481 
L 2356 481 
L 2356 0 
L 1766 0 
Q 1100 0 847 248 
Q 594 497 594 1153 
L 594 3053 
L 172 3053 
L 172 3500 
L 594 3500 
L 594 4494 
L 1172 4494 
z
" transform="scale(0.015625)"/>
       <path id="DejaVuSans-72" d="M 2631 2963 
Q 2534 3019 2420 3045 
Q 2306 3072 2169 3072 
Q 1681 3072 1420 2755 
Q 1159 2438 1159 1844 
L 1159 0 
L 581 0 
L 581 3500 
L 1159 3500 
L 1159 2956 
Q 1341 3275 1631 3429 
Q 1922 3584 2338 3584 
Q 2397 3584 2469 3576 
Q 2541 3569 2628 3553 
L 2631 2963 
z
" transform="scale(0.015625)"/>
      </defs>
      <use xlink:href="#DejaVuSans-4e"/>
      <use xlink:href="#DejaVuSans-69" x="74.804688"/>
      <use xlink:href="#DejaVuSans-63" x="102.587891"/>
      <use xlink:href="#DejaVuSans-63" x="157.568359"/>
      <use xlink:href="#DejaVuSans-6f" x="212.548828"/>
      <use xlink:href="#DejaVuSans-20" x="273.730469"/>
      <use xlink:href="#DejaVuSans-61" x="305.517578"/>
      <use xlink:href="#DejaVuSans-6e" x="366.796875"/>
      <use xlink:href="#DejaVuSans-64" x="430.175781"/>
      <use xlink:href="#DejaVuSans-20" x="493.652344"/>
      <use xlink:href="#DejaVuSans-53" x="525.439453"/>
      <use xlink:href="#DejaVuSans-68" x="588.916016"/>
      <use xlink:href="#DejaVuSans-69" x="652.294922"/>
      <use xlink:href="#DejaVuSans-6e" x="680.078125"/>
      <use xlink:href="#DejaVuSans-74" x="743.457031"/>
      <use xlink:href="#DejaVuSans-61" x="782.666016"/>
      <use xlink:href="#DejaVuSans-72" x="843.945312"/>
      <use xlink:href="#DejaVuSans-6f" x="882.808594"/>
     </g>
    </g>
   </g>
   <g id="text_19">
    <g clip-path="url(#pb666f9704b)">
     <!-- Pablo and Xiaoyu -->
     <g transform="translate(-0.26296 212.803256)scale(0.12 -0.12)">
      <defs>
       <path id="DejaVuSans-58" d="M 403 4666 
L 1081 4666 
L 2241 2931 
L 3406 4666 
L 4084 4666 
L 2584 2425 
L 4184 0 
L 3506 0 
L 2194 1984 
L 872 0 
L 191 0 
L 1856 2491 
L 403 4666 
z
" transform="scale(0.015625)"/>
       <path id="DejaVuSans-79" d="M 2059 -325 
Q 1816 -950 1584 -1140 
Q 1353 -1331 966 -1331 
L 506 -1331 
L 506 -850 
L 844 -850 
Q 1081 -850 1212 -737 
Q 1344 -625 1503 -206 
L 1606 56 
L 191 3500 
L 800 3500 
L 1894 763 
L 2988 3500 
L 3597 3500 
L 2059 -325 
z
" transform="scale(0.015625)"/>
       <path id="DejaVuSans-75" d="M 544 1381 
L 544 3500 
L 1119 3500 
L 1119 1403 
Q 1119 906 1312 657 
Q 1506 409 1894 409 
Q 2359 409 2629 706 
Q 2900 1003 2900 1516 
L 2900 3500 
L 3475 3500 
L 3475 0 
L 2900 0 
L 2900 538 
Q 2691 219 2414 64 
Q 2138 -91 1772 -91 
Q 1169 -91 856 284 
Q 544 659 544 1381 
z
M 1991 3584 
L 1991 3584 
z
" transform="scale(0.015625)"/>
      </defs>
      <use xlink:href="#DejaVuSans-50"/>
      <use xlink:href="#DejaVuSans-61" x="55.802734"/>
      <use xlink:href="#DejaVuSans-62" x="117.082031"/>
      <use xlink:href="#DejaVuSans-6c" x="180.558594"/>
      <use xlink:href="#DejaVuSans-6f" x="208.341797"/>
      <use xlink:href="#DejaVuSans-20" x="269.523438"/>
      <use xlink:href="#DejaVuSans-61" x="301.310547"/>
      <use xlink:href="#DejaVuSans-6e" x="362.589844"/>
      <use xlink:href="#DejaVuSans-64" x="425.96875"/>
      <use xlink:href="#DejaVuSans-20" x="489.445312"/>
      <use xlink:href="#DejaVuSans-58" x="521.232422"/>
      <use xlink:href="#DejaVuSans-69" x="589.738281"/>
      <use xlink:href="#DejaVuSans-61" x="617.521484"/>
      <use xlink:href="#DejaVuSans-6f" x="678.800781"/>
      <use xlink:href="#DejaVuSans-79" x="739.982422"/>
      <use xlink:href="#DejaVuSans-75" x="799.162109"/>
     </g>
    </g>
   </g>
   <g id="text_20">
    <g clip-path="url(#pb666f9704b)">
     <!-- Nicco and Leo -->
     <g transform="translate(17.207348 228.316625)scale(0.12 -0.12)">
      <defs>
       <path id="DejaVuSans-4c" d="M 628 4666 
L 1259 4666 
L 1259 531 
L 3531 531 
L 3531 0 
L 628 0 
L 628 4666 
z
" transform="scale(0.015625)"/>
       <path id="DejaVuSans-65" d="M 3597 1894 
L 3597 1613 
L 953 1613 
Q 991 1019 1311 708 
Q 1631 397 2203 397 
Q 2534 397 2845 478 
Q 3156 559 3463 722 
L 3463 178 
Q 3153 47 2828 -22 
Q 2503 -91 2169 -91 
Q 1331 -91 842 396 
Q 353 884 353 1716 
Q 353 2575 817 3079 
Q 1281 3584 2069 3584 
Q 2775 3584 3186 3129 
Q 3597 2675 3597 1894 
z
M 3022 2063 
Q 3016 2534 2758 2815 
Q 2500 3097 2075 3097 
Q 1594 3097 1305 2825 
Q 1016 2553 972 2059 
L 3022 2063 
z
" transform="scale(0.015625)"/>
      </defs>
      <use xlink:href="#DejaVuSans-4e"/>
      <use xlink:href="#DejaVuSans-69" x="74.804688"/>
      <use xlink:href="#DejaVuSans-63" x="102.587891"/>
      <use xlink:href="#DejaVuSans-63" x="157.568359"/>
      <use xlink:href="#DejaVuSans-6f" x="212.548828"/>
      <use xlink:href="#DejaVuSans-20" x="273.730469"/>
      <use xlink:href="#DejaVuSans-61" x="305.517578"/>
      <use xlink:href="#DejaVuSans-6e" x="366.796875"/>
      <use xlink:href="#DejaVuSans-64" x="430.175781"/>
      <use xlink:href="#DejaVuSans-20" x="493.652344"/>
      <use xlink:href="#DejaVuSans-4c" x="525.439453"/>
      <use xlink:href="#DejaVuSans-65" x="579.402344"/>
      <use xlink:href="#DejaVuSans-6f" x="640.925781"/>
     </g>
    </g>
   </g>
   <g id="text_21">
    <g clip-path="url(#pb666f9704b)">
     <!-- Leo and Shintaro -->
     <g transform="translate(-10.829473 198.439382)scale(0.12 -0.12)">
      <use xlink:href="#DejaVuSans-4c"/>
      <use xlink:href="#DejaVuSans-65" x="53.962891"/>
      <use xlink:href="#DejaVuSans-6f" x="115.486328"/>
      <use xlink:href="#DejaVuSans-20" x="176.667969"/>
      <use xlink:href="#DejaVuSans-61" x="208.455078"/>
      <use xlink:href="#DejaVuSans-6e" x="269.734375"/>
      <use xlink:href="#DejaVuSans-64" x="333.113281"/>
      <use xlink:href="#DejaVuSans-20" x="396.589844"/>
      <use xlink:href="#DejaVuSans-53" x="428.376953"/>
      <use xlink:href="#DejaVuSans-68" x="491.853516"/>
      <use xlink:href="#DejaVuSans-69" x="555.232422"/>
      <use xlink:href="#DejaVuSans-6e" x="583.015625"/>
      <use xlink:href="#DejaVuSans-74" x="646.394531"/>
      <use xlink:href="#DejaVuSans-61" x="685.603516"/>
      <use xlink:href="#DejaVuSans-72" x="746.882812"/>
      <use xlink:href="#DejaVuSans-6f" x="785.746094"/>
     </g>
    </g>
   </g>
   <g id="text_22">
    <g clip-path="url(#pb666f9704b)">
     <!-- Pablo and Leo -->
     <g transform="translate(128.839857 301.676306)scale(0.12 -0.12)">
      <use xlink:href="#DejaVuSans-50"/>
      <use xlink:href="#DejaVuSans-61" x="55.802734"/>
      <use xlink:href="#DejaVuSans-62" x="117.082031"/>
      <use xlink:href="#DejaVuSans-6c" x="180.558594"/>
      <use xlink:href="#DejaVuSans-6f" x="208.341797"/>
      <use xlink:href="#DejaVuSans-20" x="269.523438"/>
      <use xlink:href="#DejaVuSans-61" x="301.310547"/>
      <use xlink:href="#DejaVuSans-6e" x="362.589844"/>
      <use xlink:href="#DejaVuSans-64" x="425.96875"/>
      <use xlink:href="#DejaVuSans-20" x="489.445312"/>
      <use xlink:href="#DejaVuSans-4c" x="521.232422"/>
      <use xlink:href="#DejaVuSans-65" x="575.195312"/>
      <use xlink:href="#DejaVuSans-6f" x="636.71875"/>
     </g>
    </g>
   </g>
   <g id="text_23">
    <g clip-path="url(#pb666f9704b)">
     <!-- Shintaro and Xiaoyu -->
     <g transform="translate(104.166306 318.921167)scale(0.12 -0.12)">
      <use xlink:href="#DejaVuSans-53"/>
      <use xlink:href="#DejaVuSans-68" x="63.476562"/>
      <use xlink:href="#DejaVuSans-69" x="126.855469"/>
      <use xlink:href="#DejaVuSans-6e" x="154.638672"/>
      <use xlink:href="#DejaVuSans-74" x="218.017578"/>
      <use xlink:href="#DejaVuSans-61" x="257.226562"/>
      <use xlink:href="#DejaVuSans-72" x="318.505859"/>
      <use xlink:href="#DejaVuSans-6f" x="357.369141"/>
      <use xlink:href="#DejaVuSans-20" x="418.550781"/>
      <use xlink:href="#DejaVuSans-61" x="450.337891"/>
      <use xlink:href="#DejaVuSans-6e" x="511.617188"/>
      <use xlink:href="#DejaVuSans-64" x="574.996094"/>
      <use xlink:href="#DejaVuSans-20" x="638.472656"/>
      <use xlink:href="#DejaVuSans-58" x="670.259766"/>
      <use xlink:href="#DejaVuSans-69" x="738.765625"/>
      <use xlink:href="#DejaVuSans-61" x="766.548828"/>
      <use xlink:href="#DejaVuSans-6f" x="827.828125"/>
      <use xlink:href="#DejaVuSans-79" x="889.009766"/>
      <use xlink:href="#DejaVuSans-75" x="948.189453"/>
     </g>
    </g>
   </g>
   <g id="text_24">
    <g clip-path="url(#pb666f9704b)">
     <!-- Leo and Xiaoyu -->
     <g transform="translate(355.318026 113.565369)scale(0.12 -0.12)">
      <use xlink:href="#DejaVuSans-4c"/>
      <use xlink:href="#DejaVuSans-65" x="53.962891"/>
      <use xlink:href="#DejaVuSans-6f" x="115.486328"/>
      <use xlink:href="#DejaVuSans-20" x="176.667969"/>
      <use xlink:href="#DejaVuSans-61" x="208.455078"/>
      <use xlink:href="#DejaVuSans-6e" x="269.734375"/>
      <use xlink:href="#DejaVuSans-64" x="333.113281"/>
      <use xlink:href="#DejaVuSans-20" x="396.589844"/>
      <use xlink:href="#DejaVuSans-58" x="428.376953"/>
      <use xlink:href="#DejaVuSans-69" x="496.882812"/>
      <use xlink:href="#DejaVuSans-61" x="524.666016"/>
      <use xlink:href="#DejaVuSans-6f" x="585.945312"/>
      <use xlink:href="#DejaVuSans-79" x="647.126953"/>
      <use xlink:href="#DejaVuSans-75" x="706.306641"/>
     </g>
    </g>
   </g>
   <g id="text_25">
    <g clip-path="url(#pb666f9704b)">
     <!-- Pablo and Shintaro -->
     <g transform="translate(364.426348 118.394594)scale(0.12 -0.12)">
      <use xlink:href="#DejaVuSans-50"/>
      <use xlink:href="#DejaVuSans-61" x="55.802734"/>
      <use xlink:href="#DejaVuSans-62" x="117.082031"/>
      <use xlink:href="#DejaVuSans-6c" x="180.558594"/>
      <use xlink:href="#DejaVuSans-6f" x="208.341797"/>
      <use xlink:href="#DejaVuSans-20" x="269.523438"/>
      <use xlink:href="#DejaVuSans-61" x="301.310547"/>
      <use xlink:href="#DejaVuSans-6e" x="362.589844"/>
      <use xlink:href="#DejaVuSans-64" x="425.96875"/>
      <use xlink:href="#DejaVuSans-20" x="489.445312"/>
      <use xlink:href="#DejaVuSans-53" x="521.232422"/>
      <use xlink:href="#DejaVuSans-68" x="584.708984"/>
      <use xlink:href="#DejaVuSans-69" x="648.087891"/>
      <use xlink:href="#DejaVuSans-6e" x="675.871094"/>
      <use xlink:href="#DejaVuSans-74" x="739.25"/>
      <use xlink:href="#DejaVuSans-61" x="778.458984"/>
      <use xlink:href="#DejaVuSans-72" x="839.738281"/>
      <use xlink:href="#DejaVuSans-6f" x="878.601562"/>
     </g>
    </g>
   </g>
  </g>
 </g>
 <defs>
  <clipPath id="pb666f9704b">
   <rect x="0" y="0" width="460.8" height="345.6"/>
  </clipPath>
 </defs>
</svg>
